# Blender 4.4.1
# www.blender.org
mtllib SM_pCube3_petri_dish_0_002.mtl
o SM_pCube3_petri_dish_0_002
v -1.075512 -0.212438 2.543095
v -1.974368 0.472794 2.007934
v -1.971773 -0.212438 2.005339
v -1.076928 0.472794 2.546398
v 0.000000 -0.212438 2.722347
v 0.000000 -0.329997 1.878369
v -0.866385 -0.326549 1.751399
v -1.460573 -0.319561 1.494139
v 1.460573 -0.319561 1.494139
v 0.866385 -0.326549 1.751399
v 1.075512 -0.212438 2.543095
v 0.000000 0.472794 2.725886
v 1.076928 0.472794 2.546398
v 1.971773 -0.212438 2.005339
v 1.974368 0.472794 2.007934
v 2.509529 -0.212438 1.109079
v 2.512832 0.472794 1.110495
v 2.688781 -0.212438 0.033567
v 1.844803 -0.329997 0.033567
v 1.717832 -0.326549 0.899951
v -1.844803 -0.329997 0.033567
v -1.717832 -0.326549 0.899951
v -2.509529 -0.212438 1.109079
v -2.688781 -0.212438 0.033567
v -2.512832 0.472794 -1.043361
v -2.509529 -0.212438 -1.041946
v -2.692320 0.472794 0.033567
v -2.512832 0.472794 1.110495
v -1.974368 0.472794 -1.940801
v -1.971773 -0.212438 -1.938206
v -1.717832 -0.326549 -0.832818
v -1.460573 -0.319561 -1.427006
v -1.075512 -0.212438 -2.475962
v -0.866385 -0.326549 -1.684266
v 0.866385 -0.326549 -1.684266
v 1.460573 -0.319561 -1.427006
v 2.509529 -0.212438 -1.041946
v 1.971773 -0.212438 -1.938206
v 1.717832 -0.326549 -0.832818
v 1.075513 -0.212438 -2.475962
v 1.974367 0.472794 -1.940801
v 1.076928 0.472794 -2.479265
v 0.000000 -0.212438 -2.655215
v 0.000000 -0.329997 -1.811236
v 0.000000 0.472794 -2.658753
v -1.076928 0.472794 -2.479265
v 2.512832 0.472794 -1.043361
v 2.692320 0.472794 0.033567
v -2.013293 -0.503306 2.046860
v -1.098160 -0.503306 2.595940
v -1.094621 0.477190 2.587683
v -2.006806 0.477190 2.040372
v 0.000000 -0.503306 2.778967
v 0.000000 0.477190 2.770120
v 1.098160 -0.503306 2.595940
v 1.094621 0.477190 2.587683
v 2.013293 -0.503306 2.046860
v 2.006806 0.477190 2.040372
v 2.562374 -0.503306 1.131727
v 2.554116 0.477190 1.128188
v 2.745400 -0.503306 0.033567
v 2.736553 0.477190 0.033567
v 2.562374 -0.503306 -1.064594
v 2.554116 0.477190 -1.061055
v 2.013293 -0.503306 -1.979727
v 2.006805 0.477190 -1.973239
v -2.006805 0.477190 -1.973239
v -2.013293 -0.503306 -1.979727
v -2.562374 -0.503306 -1.064594
v -2.554116 0.477190 -1.061055
v -2.745400 -0.503306 0.033567
v -2.736553 0.477190 0.033566
v -2.562374 -0.503306 1.131727
v -2.554116 0.477190 1.128188
v -1.491329 -0.621816 1.524895
v -0.884629 -0.624080 1.787573
v -1.062572 -0.599826 2.514595
v -1.948471 -0.599673 1.982038
v 0.000000 -0.625197 1.917216
v 0.000000 -0.599980 2.692538
v 0.884629 -0.624080 1.787572
v 1.062572 -0.599826 2.514595
v 1.491329 -0.621816 1.524895
v 1.948471 -0.599673 1.982038
v 1.754006 -0.624080 0.918196
v 2.481028 -0.599826 1.096138
v 1.883649 -0.625197 0.033567
v 2.658971 -0.599980 0.033567
v 1.754006 -0.624080 -0.851062
v 2.481029 -0.599826 -1.029005
v 1.491329 -0.621816 -1.457762
v 1.948472 -0.599673 -1.914905
v -1.948472 -0.599673 -1.914905
v -1.491329 -0.621816 -1.457762
v -1.754006 -0.624080 -0.851062
v -2.481028 -0.599826 -1.029005
v -1.883649 -0.625197 0.033567
v -2.658971 -0.599980 0.033567
v -1.754006 -0.624080 0.918196
v -2.481029 -0.599826 1.096138
v -2.013293 -0.503306 -1.979727
v -1.062572 -0.599826 -2.447462
v -1.098160 -0.503306 -2.528807
v -1.948472 -0.599673 -1.914905
v -2.006805 0.477190 -1.973239
v -1.094621 0.477190 -2.520550
v 0.000000 -0.503306 -2.711834
v -0.000000 0.477190 -2.702987
v 1.098160 -0.503306 -2.528807
v 1.094621 0.477190 -2.520550
v 2.013293 -0.503306 -1.979727
v 2.006805 0.477190 -1.973239
v 1.948472 -0.599673 -1.914905
v 1.062572 -0.599826 -2.447462
v 1.491329 -0.621816 -1.457762
v 0.884629 -0.624080 -1.720439
v -0.884629 -0.624080 -1.720439
v -1.491329 -0.621816 -1.457762
v 1.754006 -0.624080 -0.851062
v -1.754006 -0.624080 -0.851062
v 1.883649 -0.625197 0.033567
v -1.883649 -0.625197 0.033567
v -1.754006 -0.624080 0.918196
v 1.754006 -0.624080 0.918196
v 1.491329 -0.621816 1.524895
v -1.491329 -0.621816 1.524895
v 0.884629 -0.624080 1.787572
v -0.884629 -0.624080 1.787573
v 0.000000 -0.625197 1.917216
v 0.000000 -0.625197 -1.850083
v 0.000000 -0.599980 -2.625405
v -1.094621 0.477190 2.587683
v 0.000000 0.472794 2.725886
v 0.000000 0.477190 2.770120
v -1.076928 0.472794 2.546398
v 0.000000 0.477190 2.770120
v 1.076928 0.472794 2.546398
v 1.094621 0.477190 2.587683
v 0.000000 0.472794 2.725886
v 1.094621 0.477190 2.587683
v 1.974367 0.472794 2.007934
v 2.006806 0.477190 2.040372
v 1.076928 0.472794 2.546398
v 2.006806 0.477190 2.040372
v 2.512831 0.472794 1.110495
v 2.554116 0.477190 1.128188
v 1.974367 0.472794 2.007934
v 2.554116 0.477190 1.128188
v 2.692319 0.472794 0.033567
v 2.736553 0.477190 0.033567
v 2.512831 0.472794 1.110495
v 2.736553 0.477190 0.033567
v 2.512832 0.472794 -1.043361
v 2.554116 0.477190 -1.061055
v 2.692319 0.472794 0.033567
v 2.554116 0.477190 -1.061055
v 1.974367 0.472794 -1.940801
v 2.006805 0.477190 -1.973239
v 2.512832 0.472794 -1.043361
v 2.006805 0.477190 -1.973239
v 1.076928 0.472794 -2.479265
v 1.094621 0.477190 -2.520550
v 1.974367 0.472794 -1.940801
v 1.094621 0.477190 -2.520550
v 0.000000 0.472794 -2.658753
v -0.000000 0.477190 -2.702987
v 1.076928 0.472794 -2.479265
v -0.000000 0.477190 -2.702987
v -1.076928 0.472794 -2.479265
v -1.094621 0.477190 -2.520550
v 0.000000 0.472794 -2.658753
v -1.094621 0.477190 -2.520550
v -1.974368 0.472794 -1.940801
v -2.006805 0.477190 -1.973239
v -1.076928 0.472794 -2.479265
v -2.006805 0.477190 -1.973239
v -2.512832 0.472794 -1.043361
v -2.554116 0.477190 -1.061055
v -1.974368 0.472794 -1.940801
v -2.554116 0.477190 -1.061055
v -2.692319 0.472794 0.033567
v -2.736553 0.477190 0.033566
v -2.512832 0.472794 -1.043361
v -2.736553 0.477190 0.033566
v -2.512832 0.472794 1.110495
v -2.554116 0.477190 1.128188
v -2.692319 0.472794 0.033567
v -2.554116 0.477190 1.128188
v -1.974367 0.472794 2.007934
v -2.006806 0.477190 2.040372
v -2.512832 0.472794 1.110495
v -2.006806 0.477190 2.040372
v -1.076928 0.472794 2.546398
v -1.094621 0.477190 2.587683
v -1.974367 0.472794 2.007934
vn 0.2648 0.6218 -0.7370
vn 0.7071 0.0054 -0.7071
vn 0.3418 0.0052 -0.9397
vn 0.5811 0.5699 -0.5811
vn 0.0032 1.0000 -0.0093
vn -0.0000 0.6564 -0.7544
vn -0.0000 0.9999 -0.0110
vn -0.0032 1.0000 -0.0094
vn 0.0084 0.9999 -0.0084
vn -0.0084 0.9999 -0.0084
vn -0.2648 0.6218 -0.7370
vn -0.0000 0.0052 -1.0000
vn -0.3419 0.0052 -0.9397
vn -0.5811 0.5699 -0.5811
vn -0.7071 0.0054 -0.7071
vn -0.7370 0.6218 -0.2648
vn -0.9397 0.0052 -0.3418
vn -0.7544 0.6564 -0.0000
vn -0.0110 0.9999 -0.0000
vn -0.0094 1.0000 -0.0032
vn 0.0110 0.9999 -0.0000
vn 0.0094 1.0000 -0.0032
vn 0.7544 0.6564 -0.0000
vn 0.7370 0.6218 -0.2648
vn 0.9397 0.0052 0.3418
vn 1.0000 0.0052 -0.0000
vn 0.7370 0.6218 0.2648
vn 0.9397 0.0052 -0.3419
vn 0.7071 0.0054 0.7071
vn 0.5811 0.5699 0.5811
vn 0.0084 0.9999 0.0084
vn 0.0093 1.0000 0.0032
vn 0.2648 0.6218 0.7370
vn 0.0032 1.0000 0.0094
vn -0.0032 1.0000 0.0094
vn -0.0084 0.9999 0.0084
vn -0.7370 0.6218 0.2649
vn -0.0094 1.0000 0.0032
vn -0.5811 0.5699 0.5811
vn -0.2648 0.6218 0.7370
vn -0.7071 0.0054 0.7071
vn -0.3418 0.0052 0.9397
vn -0.0000 0.6564 0.7544
vn -0.0000 0.9999 0.0110
vn -0.0000 0.0052 1.0000
vn 0.3418 0.0052 0.9397
vn -0.9397 0.0052 0.3419
vn -1.0000 0.0052 -0.0000
vn -0.7055 -0.0668 0.7055
vn -0.3415 -0.0668 0.9375
vn -0.3417 0.0091 0.9398
vn -0.7071 0.0094 0.7071
vn -0.0002 -0.0662 0.9978
vn -0.0000 0.0090 1.0000
vn 0.3415 -0.0668 0.9375
vn 0.3417 0.0092 0.9398
vn 0.7055 -0.0668 0.7055
vn 0.7071 0.0094 0.7071
vn 0.9375 -0.0668 0.3415
vn 0.9398 0.0091 0.3417
vn 0.9978 -0.0662 0.0002
vn 1.0000 0.0090 -0.0000
vn 0.9375 -0.0668 -0.3415
vn 0.9398 0.0092 -0.3417
vn 0.7055 -0.0668 -0.7055
vn 0.7071 0.0093 -0.7070
vn -0.7071 0.0094 -0.7070
vn -0.7056 -0.0668 -0.7055
vn -0.9375 -0.0668 -0.3415
vn -0.9398 0.0091 -0.3417
vn -0.9978 -0.0662 -0.0002
vn -1.0000 0.0090 -0.0000
vn -0.9375 -0.0668 0.3415
vn -0.9398 0.0092 0.3416
vn -0.0017 -1.0000 0.0017
vn -0.0007 -1.0000 0.0019
vn -0.0620 -0.9827 0.1747
vn -0.1481 -0.9778 0.1482
vn -0.0000 -1.0000 0.0023
vn -0.0000 -0.9852 0.1712
vn 0.0007 -1.0000 0.0019
vn 0.0620 -0.9827 0.1747
vn 0.0017 -1.0000 0.0017
vn 0.1482 -0.9778 0.1481
vn 0.0019 -1.0000 0.0007
vn 0.1747 -0.9827 0.0620
vn 0.0023 -1.0000 -0.0000
vn 0.1712 -0.9852 -0.0000
vn 0.0019 -1.0000 -0.0007
vn 0.1747 -0.9827 -0.0620
vn 0.0017 -1.0000 -0.0017
vn 0.1482 -0.9778 -0.1481
vn -0.1482 -0.9778 -0.1481
vn -0.0017 -1.0000 -0.0017
vn -0.0019 -1.0000 -0.0007
vn -0.1747 -0.9827 -0.0620
vn -0.0023 -1.0000 -0.0000
vn -0.1712 -0.9852 -0.0000
vn -0.0019 -1.0000 0.0007
vn -0.1747 -0.9827 0.0620
vn -0.7055 -0.0669 -0.7056
vn -0.0620 -0.9827 -0.1748
vn -0.1481 -0.9778 -0.1482
vn -0.3415 -0.0669 -0.9375
vn -0.7070 0.0094 -0.7072
vn -0.3417 0.0092 -0.9398
vn -0.0000 -0.0663 -0.9978
vn -0.0000 0.0090 -1.0000
vn 0.3414 -0.0669 -0.9375
vn 0.3417 0.0091 -0.9398
vn 0.7055 -0.0668 -0.7056
vn 0.7070 0.0094 -0.7072
vn 0.1482 -0.9778 -0.1483
vn 0.0620 -0.9827 -0.1747
vn 0.0007 -1.0000 -0.0019
vn -0.0007 -1.0000 -0.0019
vn 0.0018 -1.0000 -0.0007
vn -0.0018 -1.0000 -0.0007
vn 0.0022 -1.0000 -0.0000
vn -0.0022 -1.0000 -0.0000
vn -0.0018 -1.0000 0.0007
vn 0.0018 -1.0000 0.0007
vn 0.0016 -1.0000 0.0017
vn -0.0016 -1.0000 0.0017
vn -0.0000 -1.0000 -0.0023
vn 0.0001 -0.9852 -0.1712
vn 0.0165 0.9950 -0.0989
vn -0.0165 0.9950 -0.0989
vn -0.0506 0.9952 -0.0843
vn -0.0843 0.9952 -0.0506
vn -0.0989 0.9950 -0.0165
vn -0.0989 0.9950 0.0165
vn -0.0843 0.9952 0.0506
vn -0.0506 0.9952 0.0843
vn -0.0165 0.9950 0.0989
vn 0.0165 0.9950 0.0989
vn 0.0506 0.9952 0.0843
vn 0.0843 0.9952 0.0506
vn 0.0989 0.9950 0.0165
vn 0.0989 0.9950 -0.0165
vn 0.0843 0.9952 -0.0506
vn 0.0506 0.9952 -0.0843
s 1
usemtl M_pCube3_petri_dish_0_002_0
f 1//1 2//2 4//3
f 1//1 3//4 2//2
f 3//4 1//1 7//5
f 5//6 1//1 4//3
f 1//1 5//6 6//7
f 1//1 6//7 7//5
f 10//8 7//5 6//7
f 3//4 7//5 8//9
f 9//10 8//9 7//5
f 9//10 7//5 10//8
f 5//6 11//11 10//8
f 11//11 9//10 10//8
f 5//6 10//8 6//7
f 11//11 12//12 13//13
f 11//11 5//6 12//12
f 14//14 11//11 13//13
f 11//11 14//14 9//10
f 14//14 13//13 15//15
f 16//16 14//14 15//15
f 9//10 14//14 16//16
f 16//16 15//15 17//17
f 18//18 16//16 17//17
f 16//16 18//18 19//19
f 16//16 19//19 20//20
f 9//10 16//16 20//20
f 19//19 21//21 20//20
f 20//20 8//9 9//10
f 20//20 21//21 22//22
f 20//20 22//22 8//9
f 24//23 23//24 22//22
f 23//24 8//9 22//22
f 24//23 22//22 21//21
f 24//23 25//25 27//26
f 24//23 26//27 25//25
f 26//27 24//23 21//21
f 23//24 24//23 27//26
f 23//24 27//26 28//28
f 3//4 23//24 28//28
f 3//4 28//28 2//2
f 26//27 29//29 25//25
f 26//27 30//30 29//29
f 32//31 30//30 26//27
f 26//27 21//21 31//32
f 32//31 26//27 31//32
f 33//33 32//31 34//34
f 33//33 30//30 32//31
f 35//35 34//34 32//31
f 36//36 32//31 31//32
f 35//35 32//31 36//36
f 37//37 36//36 39//38
f 37//37 38//39 36//36
f 36//36 38//39 40//40
f 36//36 31//32 39//38
f 36//36 40//40 35//35
f 40//40 41//41 42//42
f 40//40 38//39 41//41
f 43//43 40//40 42//42
f 40//40 43//43 44//44
f 40//40 44//44 35//35
f 43//43 34//34 44//44
f 34//34 35//35 44//44
f 43//43 42//42 45//45
f 33//33 43//43 45//45
f 43//43 33//33 34//34
f 33//33 45//45 46//46
f 30//30 33//33 46//46
f 30//30 46//46 29//29
f 38//39 47//47 41//41
f 38//39 37//37 47//47
f 37//37 48//48 47//47
f 37//37 18//18 48//48
f 18//18 17//17 48//48
f 18//18 37//37 39//38
f 18//18 39//38 19//19
f 39//38 21//21 19//19
f 39//38 31//32 21//21
f 23//24 3//4 8//9
f 5//6 4//3 12//12
f 49//49 50//50 51//51
f 49//49 51//51 52//52
f 50//50 53//53 54//54
f 50//50 54//54 51//51
f 53//53 55//55 56//56
f 53//53 56//56 54//54
f 55//55 57//57 58//58
f 55//55 58//58 56//56
f 57//57 59//59 60//60
f 57//57 60//60 58//58
f 59//59 61//61 62//62
f 59//59 62//62 60//60
f 61//61 63//63 64//64
f 61//61 64//64 62//62
f 63//63 65//65 66//66
f 63//63 66//66 64//64
f 67//67 68//68 69//69
f 67//67 69//69 70//70
f 69//69 71//71 72//72
f 69//69 72//72 70//70
f 71//71 73//73 74//74
f 71//71 74//74 72//72
f 73//73 49//49 52//52
f 73//73 52//52 74//74
f 75//75 76//76 77//77
f 75//75 77//77 78//78
f 76//76 79//79 80//80
f 76//76 80//80 77//77
f 80//80 79//79 81//81
f 80//80 81//81 82//82
f 81//81 83//83 84//84
f 81//81 84//84 82//82
f 80//80 82//82 55//55
f 80//80 55//55 53//53
f 82//82 84//84 57//57
f 82//82 57//57 55//55
f 78//78 77//77 50//50
f 78//78 50//50 49//49
f 77//77 80//80 53//53
f 77//77 53//53 50//50
f 84//84 83//83 85//85
f 84//84 85//85 86//86
f 85//85 87//87 88//88
f 85//85 88//88 86//86
f 88//88 87//87 89//89
f 88//88 89//89 90//90
f 89//89 91//91 92//92
f 89//89 92//92 90//90
f 88//88 90//90 63//63
f 88//88 63//63 61//61
f 90//90 92//92 65//65
f 90//90 65//65 63//63
f 57//57 84//84 86//86
f 57//57 86//86 59//59
f 86//86 88//88 61//61
f 86//86 61//61 59//59
f 93//93 94//94 95//95
f 93//93 95//95 96//96
f 95//95 97//97 98//98
f 95//95 98//98 96//96
f 98//98 97//97 99//99
f 98//98 99//99 100//100
f 99//99 75//75 78//78
f 99//99 78//78 100//100
f 98//98 100//100 73//73
f 98//98 73//73 71//71
f 100//100 78//78 49//49
f 100//100 49//49 73//73
f 68//68 93//93 96//96
f 68//68 96//96 69//69
f 96//96 98//98 71//71
f 96//96 71//71 69//69
f 101//101 102//102 104//103
f 101//101 103//104 102//102
f 105//105 103//104 101//101
f 105//105 106//106 103//104
f 106//106 107//107 103//104
f 106//106 108//108 107//107
f 108//108 109//109 107//107
f 108//108 110//110 109//109
f 110//110 111//111 109//109
f 110//110 112//112 111//111
f 109//109 111//111 113//113
f 109//109 113//113 114//114
f 114//114 113//113 115//91
f 114//114 115//91 116//115
f 117//116 116//115 115//91
f 117//116 115//91 118//94
f 118//94 115//91 119//117
f 118//94 119//117 120//118
f 120//118 119//117 121//119
f 120//118 121//119 122//120
f 122//120 121//119 123//121
f 123//121 121//119 124//122
f 123//121 124//122 125//123
f 123//121 125//123 126//124
f 126//124 125//123 127//81
f 126//124 127//81 128//76
f 128//76 127//81 129//79
f 104//103 117//116 118//94
f 104//103 102//102 117//116
f 102//102 130//125 117//116
f 116//115 117//116 130//125
f 102//102 131//126 130//125
f 131//126 116//115 130//125
f 103//104 131//126 102//102
f 103//104 107//107 131//126
f 131//126 107//107 109//109
f 131//126 109//109 114//114
f 131//126 114//114 116//115
f 132//127 133//127 135//127
f 132//127 134//127 133//127
f 136//128 137//128 139//128
f 136//128 138//128 137//128
f 140//129 141//129 143//129
f 140//129 142//129 141//129
f 144//130 145//130 147//130
f 144//130 146//130 145//130
f 148//131 149//131 151//131
f 148//131 150//131 149//131
f 152//132 153//132 155//132
f 152//132 154//132 153//132
f 156//133 157//133 159//133
f 156//133 158//133 157//133
f 160//134 161//134 163//134
f 160//134 162//134 161//134
f 164//135 165//135 167//135
f 164//135 166//135 165//135
f 168//136 169//136 171//136
f 168//136 170//136 169//136
f 172//137 173//137 175//137
f 172//137 174//137 173//137
f 176//138 177//138 179//138
f 176//138 178//138 177//138
f 180//139 181//139 183//139
f 180//139 182//139 181//139
f 184//140 185//140 187//140
f 184//140 186//140 185//140
f 188//141 189//141 191//141
f 188//141 190//141 189//141
f 192//142 193//142 195//142
f 192//142 194//142 193//142
