# Blender 4.4.1
# www.blender.org
mtllib SM_pCube3_petri_dish_0_019.mtl
o SM_pCube3_petri_dish_0_019
v 2.175356 -2.968853 0.187882
v 1.186176 -3.869509 -0.320801
v 1.186558 -3.772587 0.186857
v 2.174655 -3.066033 -0.319776
v 2.768635 -1.629295 0.189590
v 2.105316 -2.870676 0.205034
v 2.680743 -1.573895 0.206761
v 2.873008 -0.018505 0.208819
v 1.895197 -1.311176 0.218731
v 2.035276 -0.016166 0.220918
v 1.611375 -2.199462 0.216512
v 1.148105 -3.650209 0.204114
v 0.955838 -2.583755 0.217108
v -0.000000 -3.910664 0.203855
v -0.000000 -2.773422 0.217402
v -0.955838 -2.583755 0.217108
v -1.148105 -3.650209 0.204114
v -2.105316 -2.870675 0.205034
v -1.611375 -2.199462 0.216512
v -1.895197 -1.311176 0.218731
v -2.680742 -1.573895 0.206761
v -2.873008 -0.018505 0.208819
v -2.035276 -0.016166 0.220918
v -1.895197 1.278636 0.222033
v -2.680743 1.536856 0.210728
v -2.105316 2.833609 0.212309
v -1.611375 2.166503 0.222080
v -2.175356 2.925201 0.195398
v -2.768635 1.585643 0.193690
v -2.174655 2.826120 -0.312262
v -2.767743 1.486995 -0.313970
v -2.137503 2.773609 -0.323611
v -1.165911 3.563357 -0.322603
v -2.174655 2.826120 -0.312262
v -2.720458 1.457360 -0.325289
v -2.133297 2.769753 -0.314085
v -1.163617 3.557948 -0.313080
v -1.162087 3.618959 0.027559
v -0.000000 3.881346 0.027894
v -0.000000 3.820680 -0.312745
v 1.162087 3.618959 0.027559
v 1.163617 3.557948 -0.313080
v 0.000000 3.826607 -0.322268
v 1.165911 3.563357 -0.322603
v 0.000000 3.897422 -0.310896
v 1.186176 3.629596 -0.311238
v -1.186176 3.629597 -0.311237
v -1.186558 3.728935 0.196423
v -0.000000 3.996847 0.196765
v 1.186558 3.728935 0.196423
v -0.000000 3.873655 0.213782
v -1.148105 3.613170 0.213376
v -2.105316 2.833609 0.212309
v -0.955838 2.551217 0.223656
v -1.611375 2.166503 0.222080
v 0.955838 2.551217 0.223656
v 1.611375 2.166503 0.222080
v -1.895197 1.278636 0.222033
v 1.895197 1.278635 0.222033
v -2.035276 -0.016166 0.220918
v 2.035276 -0.016166 0.220918
v -1.895197 -1.311176 0.218731
v 1.895197 -1.311176 0.218731
v -1.611375 -2.199462 0.216512
v 1.611375 -2.199462 0.216512
v 0.955838 -2.583755 0.217108
v -0.955838 -2.583755 0.217108
v -0.000000 -2.773422 0.217402
v 2.105316 2.833608 0.212309
v 2.175356 2.925201 0.195398
v 1.148105 3.613170 0.213376
v -0.000000 2.741090 0.224434
v 2.174655 2.826121 -0.312262
v 2.137503 2.773607 -0.323611
v 2.767743 1.486996 -0.313970
v 2.174655 2.826121 -0.312262
v 2.720458 1.457360 -0.325289
v 2.133297 2.769753 -0.314085
v 2.715105 1.456095 -0.315760
v 2.711536 1.519870 0.024883
v 2.905218 -0.054448 0.022875
v 2.909042 -0.120296 -0.317771
v 2.711537 -1.628766 0.020867
v 2.715105 -1.696684 -0.319781
v 2.914777 -0.122137 -0.327303
v 2.965439 -0.119956 -0.316019
v 2.720458 -1.701635 -0.329318
v 2.767743 -1.726907 -0.318068
v 2.137503 -3.017883 -0.330996
v 2.133297 -3.010343 -0.321456
v 1.162087 -3.727856 0.018191
v 2.130493 -2.940697 0.019194
v 1.163617 -3.798538 -0.322461
v -0.000000 -3.990242 0.017856
v -0.000000 -4.061269 -0.322796
v 1.165911 -3.807632 -0.332003
v -0.000000 -4.070882 -0.332339
v -0.000000 -4.137334 -0.321142
v -1.165911 -3.807632 -0.332003
v -1.163617 -3.798537 -0.322461
v -1.162087 -3.727856 0.018190
v -2.130493 -2.940697 0.019194
v -2.133297 -3.010343 -0.321456
v -2.711536 -1.628766 0.020867
v -2.715105 -1.696684 -0.319781
v -2.137503 -3.017883 -0.330996
v -2.174655 -3.066033 -0.319776
v -2.720458 -1.701635 -0.329318
v -1.186176 -3.869509 -0.320801
v -1.186558 -3.772587 0.186857
v -0.000000 -4.040499 0.186516
v -2.175356 -2.968853 0.187882
v -2.767743 -1.726907 -0.318068
v -2.768635 -1.629295 0.189590
v -2.965439 -0.119956 -0.316019
v -2.966395 -0.021825 0.191640
v -2.914777 -0.122137 -0.327303
v -2.909042 -0.120296 -0.317771
v -2.715105 1.456095 -0.315760
v -2.711537 1.519870 0.024883
v -2.130493 2.831802 0.026556
v -2.061898 2.744110 0.053532
v -1.124427 3.507625 0.054733
v -0.000000 3.762768 0.055286
v -1.578143 2.093451 0.076999
v -0.936126 2.470670 0.080832
v -0.000000 2.656847 0.082724
v 0.936126 2.470670 0.080832
v 1.124427 3.507624 0.054733
v 1.578143 2.093451 0.076999
v 2.061898 2.744110 0.053532
v 2.625456 1.474132 0.052140
v 1.856111 1.224336 0.079243
v 1.993302 -0.043544 0.079280
v -1.856111 1.224336 0.079243
v -2.813757 -0.049123 0.050424
v -2.625456 1.474131 0.052140
v -1.993302 -0.043544 0.079280
v -2.625456 -1.572465 0.048255
v -1.856111 -1.312065 0.076008
v 1.856111 -1.312065 0.076008
v 2.813757 -0.049122 0.050425
v 2.625456 -1.572465 0.048255
v 1.578143 -2.182476 0.071547
v 2.061898 -2.842531 0.046408
v 0.936126 -2.558400 0.074419
v -1.578143 -2.182475 0.071547
v -0.936126 -2.558401 0.074419
v -0.000000 -3.861013 0.045563
v -1.124427 -3.605959 0.045662
v -0.000000 -2.743937 0.075836
v 1.124427 -3.605959 0.045662
v -2.061898 -2.842531 0.046408
v -2.905218 -0.054448 0.022875
v 2.130493 2.831801 0.026556
v 2.768635 1.585643 0.193690
v 2.966395 -0.021825 0.191640
v 2.680742 1.536855 0.210728
v 2.105316 2.833608 0.212309
v 1.895197 1.278635 0.222033
v 1.611375 2.166503 0.222080
v 2.175356 2.925201 0.195398
v -2.175356 2.925201 0.195398
vn 0.7307 -0.6449 0.2241
vn 0.4329 -0.9014 -0.0062
vn 0.8364 -0.5455 -0.0538
vn 0.3881 -0.8897 0.2405
vn 0.0109 -0.0054 0.9999
vn 0.9506 -0.2419 0.1946
vn 0.0131 -0.0043 0.9999
vn 0.0126 -0.0049 0.9999
vn -0.0041 0.0005 1.0000
vn -0.0037 -0.0013 1.0000
vn -0.0038 0.0028 1.0000
vn -0.0035 0.0022 1.0000
vn -0.0026 0.0054 1.0000
vn -0.0054 0.0109 0.9999
vn -0.0000 0.0063 1.0000
vn 0.0027 0.0054 1.0000
vn -0.0033 0.0055 1.0000
vn -0.0113 -0.0050 0.9999
vn 0.0038 0.0031 1.0000
vn 0.0041 0.0005 1.0000
vn -0.0128 -0.0056 0.9999
vn -0.0126 -0.0048 0.9999
vn 0.0037 -0.0013 1.0000
vn 0.0041 -0.0031 1.0000
vn -0.0158 -0.0027 0.9999
vn -0.0300 0.0019 0.9995
vn 0.0040 -0.0047 1.0000
vn -0.8262 0.5624 0.0331
vn -0.9159 0.3745 0.1443
vn -0.7231 0.6844 -0.0931
vn -0.9199 0.3615 -0.1521
vn 0.0412 0.1212 -0.9918
vn -0.0085 0.0746 -0.9972
vn 0.4462 -0.8949 -0.0050
vn -0.7168 0.6444 -0.2662
vn -0.0132 0.1173 -0.9930
vn 0.8036 -0.5949 -0.0181
vn 0.0091 -0.9853 -0.1709
vn 0.4495 -0.8766 -0.1722
vn -0.0000 -1.0000 -0.0009
vn -0.4120 -0.8948 -0.1718
vn -0.4606 -0.8876 -0.0061
vn 0.0218 0.0693 -0.9974
vn 0.0080 0.0733 -0.9973
vn 0.0361 0.9774 -0.2084
vn 0.3049 0.9279 -0.2147
vn 0.0826 0.9958 0.0401
vn -0.4063 0.8910 -0.2024
vn -0.3548 0.9335 0.0516
vn 0.4754 0.8783 0.0506
vn -0.0033 -0.0097 0.9999
vn -0.0048 -0.0048 1.0000
vn -0.0291 -0.0260 0.9992
vn 0.0009 -0.0044 1.0000
vn 0.0013 -0.0029 1.0000
vn -0.0004 -0.0034 1.0000
vn -0.0009 -0.0046 1.0000
vn -0.0011 -0.0015 1.0000
vn 0.0010 -0.0014 1.0000
vn -0.0012 -0.0013 1.0000
vn 0.0012 -0.0013 1.0000
vn -0.0010 -0.0011 1.0000
vn 0.0010 -0.0011 1.0000
vn -0.0011 -0.0016 1.0000
vn 0.0010 -0.0016 1.0000
vn 0.0009 -0.0047 1.0000
vn -0.0009 -0.0048 1.0000
vn -0.0000 -0.0050 1.0000
vn 0.0292 -0.0256 0.9992
vn 0.8238 0.5532 0.1237
vn -0.0021 -0.0015 1.0000
vn 0.0010 -0.0034 1.0000
vn 0.7154 0.6444 -0.2701
vn -0.0407 0.1220 -0.9917
vn -0.8029 -0.5958 -0.0185
vn 0.9044 0.3951 -0.1614
vn 0.0594 -0.0017 -0.9982
vn 0.7231 0.6845 -0.0931
vn -0.9657 -0.2560 -0.0437
vn -0.9770 -0.0009 -0.2132
vn -0.9613 -0.1877 -0.2018
vn -0.9956 0.0413 -0.0839
vn -0.9377 0.2525 -0.2385
vn -0.9451 0.2982 -0.1341
vn 0.0705 0.0241 -0.9972
vn 0.9923 0.0238 -0.1214
vn 0.0908 -0.0259 -0.9955
vn 0.9226 -0.3750 -0.0911
vn 0.1185 -0.0686 -0.9906
vn -0.7873 0.5785 -0.2134
vn -0.4664 0.8242 -0.3213
vn -0.4058 0.8667 -0.2902
vn -0.7253 0.6290 -0.2797
vn -0.0233 0.9421 -0.3345
vn -0.0000 0.9494 -0.3140
vn 0.0628 -0.1528 -0.9863
vn 0.0249 -0.1730 -0.9846
vn -0.0001 -1.0000 0.0047
vn -0.0633 -0.1527 -0.9862
vn 0.4090 0.8652 -0.2900
vn 0.7659 0.5820 -0.2734
vn 0.3809 0.8676 -0.3197
vn 0.7606 0.6123 -0.2157
vn 0.9405 0.2431 -0.2376
vn 0.9451 0.2982 -0.1340
vn -0.1181 -0.0693 -0.9906
vn -0.4329 -0.9014 -0.0015
vn -0.6643 -0.7445 -0.0665
vn -0.0990 0.0029 -0.9951
vn -0.3881 -0.8894 0.2414
vn -0.0278 -0.9691 0.2449
vn -0.7293 -0.6469 0.2230
vn -0.9611 -0.2620 -0.0871
vn -0.9140 -0.3533 0.1996
vn -0.9928 0.0022 -0.1198
vn -0.9807 -0.1048 0.1654
vn -0.0706 0.0195 -0.9973
vn 0.9650 -0.2588 -0.0435
vn 0.9968 0.0021 -0.0800
vn 0.7701 -0.6139 -0.1731
vn 0.9616 -0.1875 -0.2006
vn 0.0291 -0.0151 -0.9995
vn 0.0012 -0.0089 -1.0000
vn -0.0084 0.0031 -1.0000
vn 0.0019 0.0057 -1.0000
vn 0.0004 0.0121 -0.9999
vn -0.0026 0.0045 -1.0000
vn 0.0017 0.0053 -1.0000
vn -0.0266 0.0016 -0.9996
vn 0.0049 0.0071 -1.0000
vn -0.0546 0.0102 -0.9985
vn -0.0332 -0.0097 -0.9994
vn 0.0047 0.0036 -1.0000
vn 0.0039 0.0005 -1.0000
vn -0.0038 0.0057 -1.0000
vn 0.0321 -0.0203 -0.9993
vn -0.0039 0.0010 -1.0000
vn 0.0420 0.0150 -0.9990
vn 0.0327 0.0003 -0.9995
vn -0.0028 -0.0050 -1.0000
vn 0.0039 -0.0032 -1.0000
vn -0.0320 0.0208 -0.9993
vn -0.0395 -0.0163 -0.9991
vn 0.0046 -0.0052 -1.0000
vn -0.0501 -0.0137 -0.9987
vn 0.0027 -0.0021 -1.0000
vn -0.0005 -0.0036 -1.0000
vn -0.0046 -0.0052 -1.0000
vn -0.0226 -0.0100 -0.9997
vn 0.0001 -0.0034 -1.0000
vn 0.0228 -0.0084 -0.9997
vn -0.0081 -0.0029 -1.0000
vn 0.0245 0.0118 -0.9996
vn 0.9772 -0.0008 -0.2122
vn -0.7700 -0.6137 -0.1746
vn 0.9730 0.1793 0.1454
vn 0.9805 -0.1044 0.1664
vn 0.0152 -0.0009 0.9999
vn 0.0298 0.0017 0.9996
vn -0.0041 -0.0031 1.0000
vn -0.0040 -0.0047 1.0000
vn 0.8260 0.5627 0.0321
vn -0.8228 0.5541 0.1262
s 1
usemtl M_pCube3_petri_dish_0_019_0
f 1//1 2//2 4//3
f 1//1 3//4 2//2
f 6//5 3//4 1//1
f 5//6 1//1 4//3
f 7//7 1//1 5//6
f 7//7 6//5 1//1
f 8//8 7//7 5//6
f 8//8 9//9 7//7
f 9//9 6//5 7//7
f 8//8 10//10 9//9
f 9//9 11//11 6//5
f 11//11 12//12 6//5
f 11//11 13//13 12//12
f 13//13 14//14 12//12
f 13//13 15//15 14//14
f 14//14 15//15 16//16
f 14//14 16//16 17//17
f 16//16 18//18 17//17
f 16//16 19//19 18//18
f 18//18 19//19 20//20
f 18//18 20//20 21//21
f 20//20 22//22 21//21
f 20//20 23//23 22//22
f 22//22 23//23 24//24
f 22//22 24//24 25//25
f 24//24 26//26 25//25
f 24//24 27//27 26//26
f 25//25 26//26 28//28
f 25//25 28//28 29//29
f 29//29 28//28 30//30
f 29//29 30//30 31//31
f 31//31 30//30 32//32
f 32//32 33//33 37//34
f 33//33 32//32 34//35
f 31//31 32//32 35//36
f 35//36 32//32 36//37
f 32//32 37//34 36//37
f 39//38 38//39 37//34
f 38//39 36//37 37//34
f 39//38 37//34 40//40
f 33//33 40//40 37//34
f 41//41 39//38 40//40
f 41//41 40//40 42//42
f 43//43 42//42 40//40
f 33//33 43//43 40//40
f 43//43 44//44 42//42
f 44//44 43//43 45//45
f 45//45 43//43 33//33
f 44//44 45//45 46//46
f 46//46 45//45 49//47
f 45//45 33//33 47//48
f 45//45 47//48 48//49
f 45//45 48//49 49//47
f 46//46 49//47 50//50
f 50//50 49//47 51//51
f 49//47 52//52 51//51
f 49//47 48//49 52//52
f 48//49 53//53 52//52
f 52//52 53//53 55//54
f 51//51 52//52 54//55
f 52//52 55//54 54//55
f 56//56 54//55 55//54
f 56//56 55//54 57//57
f 57//57 55//54 58//58
f 57//57 58//58 59//59
f 59//59 58//58 60//60
f 59//59 60//60 61//61
f 61//61 60//60 62//62
f 61//61 62//62 63//63
f 63//63 62//62 64//64
f 63//63 64//64 65//65
f 65//65 64//64 66//66
f 66//66 64//64 67//67
f 66//66 67//67 68//68
f 69//69 56//56 57//57
f 70//70 71//71 69//69
f 69//69 71//71 56//56
f 70//70 50//50 71//71
f 50//50 51//51 71//71
f 71//71 51//51 72//72
f 71//71 72//72 56//56
f 51//51 54//55 72//72
f 54//55 56//56 72//72
f 73//73 50//50 70//70
f 74//74 46//46 73//73
f 73//73 46//46 50//50
f 74//74 44//44 46//46
f 44//44 74//74 78//75
f 74//74 75//76 77//77
f 74//74 76//78 75//76
f 74//74 77//77 79//79
f 74//74 79//79 78//75
f 81//80 80//81 79//79
f 80//81 78//75 79//79
f 81//80 79//79 82//82
f 77//77 82//82 79//79
f 83//83 81//80 82//82
f 83//83 82//82 84//84
f 85//85 84//84 82//82
f 77//77 85//85 82//82
f 75//76 86//86 85//85
f 86//86 87//87 85//85
f 85//85 87//87 84//84
f 75//76 85//85 77//77
f 86//86 88//88 87//87
f 88//88 89//89 87//87
f 87//87 89//89 90//90
f 87//87 90//90 84//84
f 91//91 90//90 93//92
f 91//91 92//93 90//90
f 92//93 84//84 90//90
f 89//89 93//92 90//90
f 94//94 91//91 93//92
f 94//94 93//92 95//95
f 96//96 95//95 93//92
f 89//89 96//96 93//92
f 4//3 96//96 89//89
f 4//3 2//2 96//96
f 2//2 97//97 96//96
f 96//96 97//97 95//95
f 2//2 98//98 97//97
f 98//98 99//99 97//97
f 97//97 99//99 100//100
f 97//97 100//100 95//95
f 102//101 101//102 100//100
f 101//102 95//95 100//100
f 102//101 100//100 103//103
f 99//99 103//103 100//100
f 104//104 102//101 103//103
f 104//104 103//103 105//105
f 106//106 105//105 103//103
f 99//99 106//106 103//103
f 109//107 107//108 106//106
f 107//108 108//109 106//106
f 106//106 108//109 105//105
f 109//107 106//106 99//99
f 98//98 109//107 99//99
f 98//98 110//110 109//107
f 110//110 107//108 109//107
f 98//98 111//111 110//110
f 14//14 110//110 111//111
f 110//110 112//112 107//108
f 17//17 112//112 110//110
f 14//14 17//17 110//110
f 112//112 113//113 107//108
f 112//112 114//114 113//113
f 18//18 114//114 112//112
f 17//17 18//18 112//112
f 114//114 115//115 113//113
f 114//114 116//116 115//115
f 21//21 116//116 114//114
f 18//18 21//21 114//114
f 115//115 116//116 29//29
f 22//22 29//29 116//116
f 21//21 22//22 116//116
f 113//113 115//115 117//117
f 115//115 29//29 31//31
f 115//115 31//31 35//36
f 115//115 35//36 117//117
f 117//117 35//36 119//118
f 113//113 117//117 108//109
f 108//109 117//117 118//119
f 117//117 119//118 118//119
f 121//120 120//121 119//118
f 120//121 118//119 119//118
f 121//120 119//118 36//37
f 35//36 36//37 119//118
f 120//121 121//120 122//122
f 38//39 121//120 36//37
f 121//120 123//123 122//122
f 121//120 38//39 123//123
f 38//39 124//124 123//123
f 123//123 124//124 127//125
f 125//126 122//122 123//123
f 125//126 123//123 126//127
f 123//123 127//125 126//127
f 124//124 128//128 127//125
f 128//128 126//127 127//125
f 124//124 129//129 128//128
f 129//129 130//130 128//128
f 126//127 128//128 130//130
f 129//129 131//131 130//130
f 130//130 131//131 132//132
f 130//130 132//132 133//133
f 125//126 130//130 133//133
f 126//127 130//130 125//126
f 132//132 134//134 133//133
f 135//135 133//133 134//134
f 125//126 133//133 135//135
f 136//136 135//135 138//137
f 136//136 137//138 135//135
f 137//138 125//126 135//135
f 135//135 134//134 138//137
f 139//139 136//136 138//137
f 139//139 138//137 140//140
f 138//137 141//141 140//140
f 138//137 134//134 141//141
f 142//142 141//141 134//134
f 142//142 143//143 141//141
f 143//143 144//144 141//141
f 140//140 141//141 144//144
f 143//143 145//145 144//144
f 145//145 146//146 144//144
f 148//147 144//144 146//146
f 140//140 144//144 147//148
f 147//148 144//144 148//147
f 149//149 148//147 151//150
f 149//149 150//151 148//147
f 150//151 147//148 148//147
f 148//147 146//146 151//150
f 152//152 149//149 151//150
f 152//152 151//150 146//146
f 92//93 91//91 152//152
f 91//91 149//149 152//152
f 92//93 152//152 145//145
f 145//145 152//152 146//146
f 94//94 101//102 150//151
f 101//102 153//153 150//151
f 150//151 153//153 147//148
f 94//94 150//151 149//149
f 101//102 102//101 153//153
f 102//101 139//139 153//153
f 147//148 153//153 139//139
f 91//91 94//94 149//149
f 147//148 139//139 140//140
f 83//83 92//93 145//145
f 83//83 145//145 143//143
f 81//80 83//83 143//143
f 81//80 143//143 142//142
f 80//81 142//142 132//132
f 80//81 81//80 142//142
f 132//132 142//142 134//134
f 102//101 104//104 139//139
f 104//104 136//136 139//139
f 154//154 120//121 137//138
f 120//121 122//122 137//138
f 137//138 122//122 125//126
f 154//154 137//138 136//136
f 154//154 105//105 118//119
f 154//154 104//104 105//105
f 104//104 154//154 136//136
f 120//121 154//154 118//119
f 155//155 80//81 132//132
f 155//155 132//132 131//131
f 155//155 42//42 78//75
f 155//155 41//41 42//42
f 41//41 155//155 131//131
f 80//81 155//155 78//75
f 41//41 131//131 129//129
f 39//38 41//41 129//129
f 39//38 129//129 124//124
f 38//39 39//38 124//124
f 108//109 118//119 105//105
f 107//108 113//113 108//109
f 12//12 111//111 3//4
f 3//4 111//111 98//98
f 12//12 14//14 111//111
f 101//102 94//94 95//95
f 3//4 98//98 2//2
f 92//93 83//83 84//84
f 88//88 4//3 89//89
f 86//86 5//6 88//88
f 5//6 4//3 88//88
f 156//156 86//86 75//76
f 156//156 157//157 86//86
f 86//86 157//157 5//6
f 158//158 157//157 156//156
f 8//8 5//6 157//157
f 158//158 8//8 157//157
f 159//159 158//158 156//156
f 159//159 160//160 158//158
f 160//160 8//8 158//158
f 159//159 161//161 160//160
f 160//160 10//10 8//8
f 159//159 156//156 162//162
f 76//78 162//162 156//156
f 76//78 156//156 75//76
f 44//44 78//75 42//42
f 48//49 163//163 53//53
f 47//48 163//163 48//49
f 47//48 34//35 163//163
f 33//33 34//35 47//48
f 22//22 25//25 29//29
f 6//5 12//12 3//4
