# Blender 4.4.1
# www.blender.org
mtllib SM_Incubator_door_NakedSingularity_main_0_009.mtl
o SM_Incubator_door_NakedSingularity_main_0_009
v -0.735985 -0.435196 4.872300
v -0.817383 -0.404030 5.015496
v -0.817389 -0.404030 -5.015495
v -0.735991 -0.435196 -4.872301
v -0.758227 -0.435196 5.013520
v -0.510624 -0.435196 4.548490
v -0.473418 -0.435196 4.612969
v -0.436276 -0.403362 4.454274
v -0.510630 -0.435196 -4.548489
v -0.436282 -0.403362 -4.454273
v -0.473404 -0.435196 -4.613195
v -0.759362 -0.435196 -5.013906
v -0.383652 -0.435196 -4.639740
v -0.402989 -0.403530 -4.527849
v -0.322115 -0.403610 -4.558605
v 0.640140 -0.403122 -4.558310
v 0.640041 -0.435196 -4.635740
v -0.703324 -0.435196 -5.101337
v 0.636207 -0.435196 -5.515209
v 0.717472 -0.403122 -4.635653
v 0.703291 -0.388847 -4.572521
v 0.715933 -0.403957 -5.535591
v 0.631111 -0.403587 -5.597052
v 0.697557 -0.389835 -5.598927
v -0.743552 -0.403969 -5.170021
v -0.802674 -0.404224 -5.113670
v -0.403332 -0.403763 4.527829
v -0.323224 -0.404060 4.558625
v 0.640140 -0.403122 4.558309
v -0.383700 -0.435196 4.639440
v -0.701645 -0.435196 5.100511
v 0.640041 -0.435196 4.635739
v 0.636207 -0.435196 5.515210
v 0.715833 -0.403591 5.534677
v 0.717472 -0.403122 4.635659
v 0.703291 -0.388847 4.572522
v 0.631111 -0.403587 5.597051
v 0.697504 -0.389565 5.598519
v -0.742230 -0.403606 5.170037
v -0.802149 -0.404007 5.113580
v -0.846957 0.327015 5.077428
v -0.817389 0.404011 5.015496
v -0.817395 0.404011 -5.015495
v -0.846962 0.327015 -5.077425
v -0.822113 0.327610 5.153825
v -0.846957 -0.327030 5.077428
v -0.821820 -0.326984 5.153913
v -0.817389 -0.404026 5.015496
v -0.846962 -0.327030 -5.077425
v -0.817395 -0.404026 -5.015495
v -0.822115 -0.327633 -5.153824
v -0.821827 0.326969 -5.153912
v -0.802679 -0.404224 -5.113670
v -0.802163 0.403988 -5.113581
v -0.802155 -0.404003 5.113580
v -0.802678 0.404202 5.113671
v -0.817389 0.404011 5.015496
v -0.735991 0.435177 4.872300
v -0.735997 0.435177 -4.872301
v -0.817395 0.404011 -5.015495
v -0.759362 0.435177 5.013906
v -0.802678 0.404202 5.113671
v -0.743557 0.403950 5.170022
v -0.703322 0.435177 5.101338
v 0.631105 0.403568 5.597051
v 0.636202 0.435177 5.515210
v 0.715927 0.403942 5.535592
v 0.697552 0.389820 5.598927
v 0.717466 0.403103 4.635652
v 0.640036 0.435177 4.635739
v 0.640135 0.403103 4.558309
v 0.703285 0.388828 4.572518
v -0.322115 0.403591 4.558602
v -0.402994 0.403507 4.527848
v -0.473410 0.435177 4.613194
v -0.383652 0.435177 4.639737
v -0.510630 0.435177 4.548490
v -0.436281 0.403347 4.454274
v -0.436287 0.403347 -4.454273
v -0.403343 0.403744 -4.527830
v -0.510636 0.435177 -4.548489
v -0.473429 0.435177 -4.612968
v -0.701657 0.435177 -5.100510
v -0.758234 0.435177 -5.013521
v -0.383707 0.435177 -4.639439
v -0.323229 0.404041 -4.558626
v 0.640135 0.403103 -4.558310
v 0.640036 0.435177 -4.635740
v 0.717466 0.403103 -4.635658
v 0.703285 0.388828 -4.572521
v 0.715828 0.403576 -5.534676
v 0.631105 0.403568 -5.597052
v 0.697498 0.389545 -5.598520
v 0.636202 0.435177 -5.515209
v -0.742236 0.403591 -5.170036
v -0.802163 0.403988 -5.113581
v -0.757246 0.328175 5.200311
v -0.822113 0.327610 5.153825
v -0.821820 -0.326984 5.153913
v -0.756199 -0.326939 5.200635
v -0.743557 0.403950 5.170022
v 0.626352 0.327015 5.630845
v 0.626352 -0.327030 5.630845
v 0.631105 -0.403584 5.597051
v 0.710873 0.327732 5.617150
v 0.710871 -0.327061 5.616647
v 0.697498 -0.389561 5.598519
v 0.697552 0.389820 5.598927
v 0.631105 0.403568 5.597051
v -0.742236 -0.403606 5.170037
v -0.802155 -0.404003 5.113580
v -0.802678 0.404202 5.113671
v 0.749542 0.328350 5.541764
v 0.710873 0.327732 5.617150
v 0.710871 -0.327061 5.616647
v 0.749542 -0.327030 5.540162
v 0.715927 0.403942 5.535592
v 0.749542 0.325672 4.635739
v 0.749542 -0.325687 4.635739
v 0.717466 0.325565 4.558309
v 0.717466 -0.325581 4.558309
v 0.717466 -0.403118 4.635659
v 0.715828 -0.403591 5.534677
v 0.703285 -0.388844 4.572522
v 0.697498 -0.389561 5.598519
v 0.703285 0.388828 4.572518
v 0.717466 0.403103 4.635652
v 0.697552 0.389820 5.598927
v -0.436281 0.403347 4.454274
v -0.403050 0.326016 4.417073
v -0.403055 0.326016 -4.417074
v -0.436287 0.403347 -4.454273
v -0.371420 0.326641 4.494264
v -0.402994 0.403507 4.527848
v -0.371870 -0.327450 4.494267
v -0.403050 -0.326031 4.417073
v -0.436281 -0.403362 4.454274
v -0.403338 -0.403759 4.527829
v -0.436287 -0.403362 -4.454273
v -0.402994 -0.403530 -4.527849
v -0.403055 -0.326031 -4.417074
v -0.371426 -0.326656 -4.494265
v -0.371870 0.327435 -4.494270
v -0.403343 0.403744 -4.527830
v -0.756205 0.326923 -5.200634
v 0.626352 -0.327030 -5.630846
v -0.742236 0.403591 -5.170036
v 0.631105 0.403568 -5.597052
v 0.626352 0.327015 -5.630846
v -0.821827 0.326969 -5.153912
v -0.757254 -0.328190 -5.200308
v -0.822115 -0.327633 -5.153824
v -0.743557 -0.403965 -5.170021
v 0.631105 -0.403584 -5.597052
v -0.802679 -0.404224 -5.113670
v 0.710873 -0.327755 -5.617151
v 0.697552 -0.389835 -5.598927
v 0.710871 0.327045 -5.616648
v 0.697498 0.389545 -5.598520
v -0.802163 0.403988 -5.113581
v 0.749542 0.327015 -5.540163
v 0.715828 0.403576 -5.534676
v 0.717466 0.403103 -4.635658
v 0.749542 0.325672 -4.635740
v 0.710871 0.327045 -5.616648
v 0.749542 -0.328373 -5.541761
v 0.749542 -0.325687 -4.635740
v 0.717466 -0.403118 -4.635653
v 0.717466 -0.325581 -4.558310
v 0.715927 -0.403957 -5.535591
v 0.710873 -0.327755 -5.617151
v 0.697552 -0.389835 -5.598927
v 0.717466 0.325565 -4.558310
v 0.703285 -0.388844 -4.572521
v 0.703285 0.388828 -4.572521
v 0.697498 0.389545 -5.598520
v 0.640036 0.325672 -4.526236
v 0.640135 0.403103 -4.558310
v -0.323229 0.404041 -4.558626
v -0.296574 0.328693 -4.526236
v 0.717466 0.325565 -4.558310
v 0.640036 -0.325687 -4.526236
v -0.295058 -0.327198 -4.526236
v -0.322121 -0.403606 -4.558605
v -0.371426 -0.326656 -4.494265
v 0.640135 -0.403118 -4.558310
v 0.717466 -0.325581 -4.558310
v 0.703285 -0.388844 -4.572521
v -0.402994 -0.403530 -4.527849
v -0.371870 0.327435 -4.494270
v -0.403343 0.403744 -4.527830
v 0.703285 0.388828 -4.572521
v 0.640135 0.403103 4.558309
v 0.640036 0.325672 4.526235
v -0.295058 0.327183 4.526235
v -0.322115 0.403591 4.558602
v 0.717466 0.325565 4.558309
v 0.703285 0.388828 4.572518
v 0.717466 -0.325581 4.558309
v 0.640036 -0.325687 4.526235
v 0.640135 -0.403118 4.558309
v 0.703285 -0.388844 4.572522
v -0.323229 -0.404057 4.558625
v -0.296568 -0.328709 4.526235
v -0.371870 -0.327450 4.494267
v -0.403338 -0.403759 4.527829
v -0.371420 0.326641 4.494264
v -0.402994 0.403507 4.527848
vn -0.8693 -0.4942 0.0007
vn -0.2487 -0.9686 -0.0000
vn -0.0825 -0.9966 0.0083
vn -0.8693 -0.4942 -0.0006
vn 0.0299 -0.9996 -0.0005
vn 0.0299 -0.9996 0.0004
vn 0.0203 -0.9994 -0.0296
vn 0.6074 -0.7944 -0.0022
vn 0.6075 -0.7943 0.0022
vn 0.0206 -0.9993 0.0299
vn -0.0827 -0.9965 -0.0073
vn 0.3526 -0.8521 0.3869
vn 0.0008 -0.9998 0.0215
vn 0.0180 -0.7772 0.6290
vn 0.0305 -0.9990 0.0341
vn 0.0199 -0.7225 0.6911
vn -0.0172 -0.9987 -0.0474
vn 0.0219 -0.9978 -0.0633
vn 0.6973 -0.7164 0.0224
vn 0.7213 -0.6921 -0.0292
vn 0.5820 -0.5674 0.5824
vn -0.2000 -0.6826 -0.7029
vn 0.4632 -0.6043 -0.6483
vn -0.2199 -0.7235 -0.6544
vn -0.5993 -0.7372 -0.3120
vn 0.3515 -0.8534 -0.3849
vn 0.0181 -0.7789 -0.6269
vn 0.0203 -0.7242 -0.6893
vn 0.0008 -0.9998 -0.0215
vn -0.0173 -0.9987 0.0476
vn 0.0307 -0.9990 -0.0338
vn 0.0218 -0.9977 0.0637
vn 0.7219 -0.6913 0.0295
vn 0.6992 -0.7145 -0.0220
vn 0.5821 -0.5674 -0.5824
vn -0.2001 -0.6826 0.7029
vn 0.4724 -0.6008 0.6448
vn -0.2201 -0.7234 0.6544
vn -0.5943 -0.7394 0.3164
vn -0.8694 0.4941 0.0006
vn -0.9996 0.0278 0.0026
vn -0.8070 0.0521 0.5882
vn -0.8694 0.4942 -0.0007
vn -0.9996 0.0278 -0.0026
vn -0.9996 -0.0278 0.0026
vn -0.8075 -0.0534 0.5874
vn -0.8694 -0.4942 0.0007
vn -0.9996 -0.0278 -0.0026
vn -0.8694 -0.4940 -0.0006
vn -0.8070 -0.0521 -0.5882
vn -0.8075 0.0534 -0.5874
vn -0.5994 -0.7372 -0.3120
vn -0.5943 0.7394 -0.3164
vn -0.5993 0.7372 0.3120
vn -0.0828 0.9965 0.0073
vn -0.2487 0.9686 -0.0000
vn -0.2488 0.9686 -0.0000
vn -0.8693 0.4943 -0.0007
vn -0.2199 0.7235 0.6544
vn -0.0172 0.9987 0.0475
vn -0.2000 0.6826 0.7029
vn 0.0219 0.9978 0.0632
vn 0.7212 0.6921 0.0292
vn 0.4631 0.6042 0.6484
vn 0.6973 0.7164 -0.0224
vn 0.0305 0.9990 -0.0340
vn 0.0199 0.7225 -0.6911
vn 0.5820 0.5675 -0.5825
vn 0.0180 0.7772 -0.6290
vn 0.0206 0.9993 -0.0299
vn 0.3525 0.8521 -0.3869
vn 0.0008 0.9998 -0.0215
vn 0.0299 0.9996 -0.0005
vn 0.6075 0.7943 -0.0022
vn 0.6074 0.7944 0.0022
vn 0.0203 0.9994 0.0296
vn 0.3515 0.8534 0.3849
vn 0.0299 0.9996 0.0004
vn -0.0825 0.9966 -0.0083
vn -0.0173 0.9987 -0.0476
vn 0.0008 0.9998 0.0215
vn 0.0181 0.7789 0.6269
vn 0.0203 0.7242 0.6893
vn 0.6992 0.7146 0.0220
vn 0.0307 0.9990 0.0338
vn 0.5820 0.5675 0.5824
vn 0.7220 0.6913 -0.0295
vn -0.2000 0.6826 -0.7029
vn 0.4725 0.6008 -0.6449
vn 0.0217 0.9977 -0.0637
vn -0.2201 0.7234 -0.6544
vn -0.5942 0.7395 -0.3164
vn -0.8069 0.0521 0.5883
vn -0.3126 0.0466 0.9487
vn -0.2200 0.7234 0.6545
vn -0.8074 -0.0534 0.5876
vn -0.3127 -0.0467 0.9487
vn -0.2732 -0.0428 0.9610
vn -0.2731 0.0424 0.9611
vn -0.2001 -0.6825 0.7030
vn 0.5902 0.0335 0.8066
vn 0.5884 -0.0346 0.8078
vn 0.4724 -0.6009 0.6448
vn -0.1999 0.6825 0.7030
vn 0.4633 0.6043 0.6482
vn -0.2203 -0.7233 0.6545
vn -0.5944 -0.7393 0.3164
vn -0.5994 0.7371 0.3121
vn 0.9983 0.0430 0.0385
vn 0.7214 0.6920 0.0293
vn 0.5884 -0.0347 0.8078
vn 0.9983 -0.0430 0.0385
vn 0.9985 -0.0438 -0.0315
vn 0.9985 0.0437 -0.0315
vn 0.7058 0.0310 -0.7078
vn 0.7058 -0.0310 -0.7078
vn 0.6992 -0.7146 -0.0220
vn 0.7220 -0.6913 0.0295
vn 0.5820 -0.5674 -0.5824
vn 0.4723 -0.6009 0.6449
vn 0.6974 0.7164 -0.0224
vn 0.4631 0.6043 0.6484
vn 0.7094 0.0676 -0.7015
vn 0.9985 0.0544 -0.0035
vn 0.9985 0.0544 0.0035
vn 0.6075 0.7943 0.0022
vn 0.3526 0.8520 -0.3870
vn 0.7078 -0.0680 -0.7032
vn 0.9985 -0.0544 -0.0035
vn 0.6075 -0.7943 -0.0021
vn 0.3515 -0.8533 -0.3850
vn 0.6075 -0.7943 0.0021
vn 0.7094 -0.0676 0.7015
vn 0.3526 -0.8520 0.3869
vn 0.9985 -0.0544 0.0035
vn 0.7077 0.0680 0.7032
vn 0.3515 0.8534 0.3850
vn -0.3127 0.0467 -0.9487
vn -0.2731 -0.0424 -0.9611
vn -0.3126 -0.0466 -0.9487
vn -0.2732 0.0427 -0.9610
vn -0.2202 0.7233 -0.6544
vn -0.8074 0.0534 -0.5876
vn -0.2001 0.6825 -0.7030
vn -0.8069 -0.0521 -0.5883
vn -0.2200 -0.7234 -0.6545
vn -0.5994 -0.7371 -0.3121
vn -0.2000 -0.6825 -0.7030
vn 0.5902 -0.0335 -0.8066
vn 0.4633 -0.6043 -0.6483
vn 0.5884 0.0346 -0.8079
vn 0.4725 0.6008 -0.6448
vn -0.5943 0.7394 -0.3165
vn 0.9983 0.0430 -0.0385
vn 0.5884 0.0347 -0.8078
vn 0.6992 0.7145 0.0220
vn 0.9985 0.0437 0.0315
vn 0.9985 -0.0437 0.0315
vn 0.9983 -0.0430 -0.0385
vn 0.7058 -0.0310 0.7078
vn 0.7213 -0.6920 -0.0292
vn 0.5902 -0.0335 -0.8065
vn 0.4632 -0.6042 -0.6484
vn 0.7058 0.0310 0.7078
vn 0.5821 0.5674 0.5824
vn 0.4724 0.6009 -0.6448
vn 0.0305 0.0434 0.9986
vn 0.0181 0.7788 0.6270
vn 0.0310 0.0508 0.9982
vn 0.0311 -0.0503 0.9982
vn 0.0304 -0.0434 0.9986
vn 0.0181 -0.7772 0.6290
vn 0.7095 -0.0676 0.7015
vn 0.7058 -0.0309 0.7078
vn 0.5820 -0.5675 0.5824
vn 0.0304 0.0434 -0.9986
vn 0.0310 0.0503 -0.9983
vn 0.0181 0.7772 -0.6290
vn 0.5820 0.5674 -0.5825
vn 0.7058 -0.0310 -0.7077
vn 0.0304 -0.0434 -0.9986
vn 0.0203 -0.7241 -0.6894
vn 0.5820 -0.5675 -0.5824
vn 0.0181 -0.7788 -0.6270
vn 0.0310 -0.0508 -0.9982
vn 0.7095 0.0676 -0.7015
vn 0.3526 0.8520 -0.3869
vt 0.767532 0.724342
vt 0.767928 0.725040
vt 0.767820 0.724352
vt 0.767532 0.773199
vt 0.767928 0.772502
vt 0.769026 0.726617
vt 0.769026 0.770924
vt 0.769207 0.726303
vt 0.769388 0.727076
vt 0.769388 0.770466
vt 0.769207 0.771240
vt 0.767814 0.773191
vt 0.769550 0.770824
vt 0.769644 0.771369
vt 0.769944 0.770974
vt 0.774630 0.771349
vt 0.774631 0.770972
vt 0.768087 0.773617
vt 0.774612 0.775633
vt 0.775007 0.771349
vt 0.775000 0.775732
vt 0.774938 0.771042
vt 0.774587 0.776032
vt 0.774910 0.776041
vt 0.767891 0.773952
vt 0.767603 0.773677
vt 0.769548 0.726717
vt 0.769939 0.726567
vt 0.774631 0.726569
vt 0.769644 0.726174
vt 0.768095 0.723928
vt 0.774630 0.726192
vt 0.774612 0.721908
vt 0.774999 0.721813
vt 0.775007 0.726192
vt 0.774938 0.726500
vt 0.774587 0.721510
vt 0.774910 0.721502
vt 0.767898 0.723589
vt 0.767606 0.723864
vt 0.760292 0.828966
vt 0.760667 0.828665
vt 0.760664 0.828293
vt 0.760292 0.877823
vt 0.760667 0.878125
vt 0.763852 0.828665
vt 0.763852 0.828292
vt 0.764227 0.828966
vt 0.763852 0.878125
vt 0.764227 0.877823
vt 0.763855 0.878497
vt 0.760667 0.878498
vt 0.764228 0.878302
vt 0.760292 0.878301
vt 0.764227 0.828489
vt 0.760291 0.828488
vt 0.180974 0.772154
vt 0.180860 0.772844
vt 0.181256 0.772146
vt 0.180860 0.820306
vt 0.181256 0.821003
vt 0.181185 0.771668
vt 0.180897 0.771394
vt 0.180701 0.771728
vt 0.174201 0.769314
vt 0.174177 0.769712
vt 0.173788 0.769613
vt 0.173878 0.769305
vt 0.173781 0.773996
vt 0.174158 0.773996
vt 0.174157 0.774373
vt 0.173850 0.774304
vt 0.178844 0.774372
vt 0.179581 0.774106
vt 0.179238 0.774521
vt 0.179144 0.773977
vt 0.179762 0.774421
vt 0.179400 0.774880
vt 0.179400 0.818270
vt 0.179581 0.819043
vt 0.179240 0.818628
vt 0.179762 0.818729
vt 0.180968 0.820994
vt 0.180693 0.821417
vt 0.179144 0.819172
vt 0.178850 0.818778
vt 0.174157 0.818777
vt 0.173781 0.819153
vt 0.174158 0.819154
vt 0.173850 0.818846
vt 0.173789 0.823532
vt 0.174201 0.823836
vt 0.173878 0.823843
vt 0.174177 0.823437
vt 0.180890 0.821756
vt 0.181182 0.821481
vt 0.108986 0.961867
vt 0.108983 0.961551
vt 0.108614 0.961485
vt 0.112174 0.961866
vt 0.112174 0.961546
vt 0.112175 0.954812
vt 0.108989 0.954812
vt 0.112547 0.954789
vt 0.108985 0.954401
vt 0.112175 0.954401
vt 0.112479 0.954466
vt 0.108616 0.954789
vt 0.108683 0.954465
vt 0.112547 0.961478
vt 0.112549 0.961770
vt 0.108613 0.961772
vt 0.087261 0.958940
vt 0.087258 0.958573
vt 0.086890 0.958543
vt 0.090451 0.958937
vt 0.090451 0.958565
vt 0.090444 0.954160
vt 0.087272 0.954160
vt 0.087272 0.953782
vt 0.090444 0.953782
vt 0.090821 0.954159
vt 0.090823 0.958538
vt 0.090752 0.953852
vt 0.090755 0.958849
vt 0.086894 0.954159
vt 0.086964 0.953852
vt 0.086959 0.958851
vt 0.217602 0.994128
vt 0.217605 0.993752
vt 0.217228 0.993933
vt 0.217605 0.950724
vt 0.217228 0.950543
vt 0.217227 0.994292
vt 0.220787 0.994128
vt 0.220780 0.993752
vt 0.221157 0.993933
vt 0.221159 0.994291
vt 0.221157 0.950543
vt 0.220783 0.950348
vt 0.221158 0.950185
vt 0.220780 0.950724
vt 0.217598 0.950348
vt 0.217226 0.950185
vt 0.101747 0.954721
vt 0.104933 0.961455
vt 0.104938 0.954717
vt 0.101747 0.961455
vt 0.101374 0.954790
vt 0.101747 0.954402
vt 0.101374 0.961479
vt 0.104936 0.954400
vt 0.105307 0.954783
vt 0.105309 0.954495
vt 0.105305 0.961479
vt 0.104936 0.961867
vt 0.105239 0.961802
vt 0.101747 0.961867
vt 0.101443 0.961802
vt 0.101372 0.954498
vt 0.094131 0.955016
vt 0.094504 0.954989
vt 0.094504 0.954617
vt 0.094134 0.959395
vt 0.094511 0.959394
vt 0.097683 0.959394
vt 0.097696 0.954981
vt 0.098060 0.959395
vt 0.097683 0.959771
vt 0.098064 0.955012
vt 0.097693 0.954614
vt 0.097996 0.954703
vt 0.097991 0.959702
vt 0.094511 0.959771
vt 0.094203 0.959702
vt 0.094200 0.954705
vt 0.065172 0.954920
vt 0.065549 0.954920
vt 0.065550 0.954543
vt 0.065168 0.959612
vt 0.065535 0.959482
vt 0.068729 0.959475
vt 0.068722 0.954920
vt 0.069101 0.959606
vt 0.068727 0.959847
vt 0.069099 0.954920
vt 0.068721 0.954543
vt 0.069030 0.954612
vt 0.069101 0.960000
vt 0.065541 0.959849
vt 0.065169 0.960002
vt 0.065242 0.954612
vt 0.043825 0.980691
vt 0.043825 0.980314
vt 0.043448 0.980314
vt 0.043817 0.975759
vt 0.043445 0.975627
vt 0.043517 0.980622
vt 0.046997 0.980691
vt 0.046997 0.980314
vt 0.047374 0.980314
vt 0.047305 0.980622
vt 0.047379 0.975622
vt 0.047006 0.975385
vt 0.047012 0.975752
vt 0.047377 0.975232
vt 0.043820 0.975387
vt 0.043446 0.975233
s 1
usemtl M_Incubator_door_NakedSingularity_main_0_009_0
f 2/1/1 1/2/2 5/3/3
f 1/2/2 2/1/1 3/4/4
f 1/2/2 3/4/4 4/5/2
f 6/6/5 1/2/2 4/5/2
f 5/3/3 1/2/2 6/6/5
f 6/6/5 4/5/2 9/7/6
f 5/3/3 6/6/5 7/8/7
f 7/8/7 6/6/5 8/9/8
f 8/9/8 6/6/5 9/7/6
f 8/9/8 9/7/6 10/10/9
f 4/5/2 11/11/10 9/7/6
f 10/10/9 9/7/6 11/11/10
f 4/5/2 12/12/11 11/11/10
f 10/10/9 11/11/10 14/13/12
f 12/12/11 13/14/13 11/11/10
f 11/11/10 13/14/13 15/15/14
f 11/11/10 15/15/14 14/13/12
f 17/16/15 16/17/16 15/15/14
f 17/16/15 15/15/14 13/14/13
f 18/18/17 17/16/15 13/14/13
f 18/18/17 19/19/18 17/16/15
f 19/19/18 20/20/19 17/16/15
f 16/17/16 17/16/15 20/20/19
f 19/19/18 22/21/20 20/20/19
f 16/17/16 20/20/19 21/22/21
f 22/21/20 23/23/22 24/24/23
f 22/21/20 19/19/18 23/23/22
f 18/18/17 23/23/22 19/19/18
f 18/18/17 25/25/24 23/23/22
f 25/25/24 18/18/17 12/12/11
f 25/25/24 12/12/11 26/26/25
f 12/12/11 3/4/4 26/26/25
f 12/12/11 18/18/17 13/14/13
f 12/12/11 4/5/2 3/4/4
f 7/8/7 8/9/8 27/27/26
f 28/28/27 7/8/7 27/27/26
f 29/29/28 30/30/29 28/28/27
f 28/28/27 30/30/29 7/8/7
f 31/31/30 30/30/29 32/32/31
f 31/31/30 7/8/7 30/30/29
f 29/29/28 32/32/31 30/30/29
f 31/31/30 32/32/31 33/33/32
f 34/34/33 33/33/32 32/32/31
f 34/34/33 32/32/31 35/35/34
f 35/35/34 32/32/31 29/29/28
f 35/35/34 29/29/28 36/36/35
f 37/37/36 33/33/32 34/34/33
f 37/37/36 34/34/33 38/38/37
f 39/39/38 33/33/32 37/37/36
f 5/3/3 31/31/30 39/39/38
f 39/39/38 31/31/30 33/33/32
f 5/3/3 39/39/38 40/40/39
f 2/1/1 5/3/3 40/40/39
f 31/31/30 5/3/3 7/8/7
f 42/41/40 41/42/41 45/43/42
f 41/42/41 42/41/40 43/44/43
f 41/42/41 43/44/43 44/45/44
f 46/46/45 41/42/41 44/45/44
f 45/43/42 41/42/41 46/46/45
f 45/43/42 46/46/45 47/47/46
f 47/47/46 46/46/45 48/48/47
f 48/48/47 46/46/45 49/49/48
f 46/46/45 44/45/44 49/49/48
f 48/48/47 49/49/48 50/50/49
f 50/50/49 49/49/48 51/51/50
f 44/45/44 51/51/50 49/49/48
f 44/45/44 52/52/51 51/51/50
f 50/50/49 51/51/50 53/53/52
f 52/52/51 43/44/43 54/54/53
f 52/52/51 44/45/44 43/44/43
f 47/47/46 48/48/47 55/55/39
f 42/41/40 45/43/42 56/56/54
f 61/57/55 58/58/56 57/59/40
f 57/59/40 58/58/56 59/60/57
f 57/59/40 59/60/57 60/61/58
f 61/57/55 57/59/40 62/62/54
f 63/63/59 61/57/55 62/62/54
f 63/63/59 64/64/60 61/57/55
f 64/64/60 63/63/59 65/65/61
f 64/64/60 65/65/61 66/66/62
f 67/67/63 66/66/62 65/65/61
f 67/67/63 65/65/61 68/68/64
f 66/66/62 67/67/63 69/69/65
f 66/66/62 69/69/65 70/70/66
f 71/71/67 70/70/66 69/69/65
f 71/71/67 69/69/65 72/72/68
f 70/70/66 71/71/67 73/73/69
f 75/74/70 73/73/69 74/75/71
f 70/70/66 73/73/69 76/76/72
f 75/74/70 76/76/72 73/73/69
f 70/70/66 76/76/72 64/64/60
f 61/57/55 64/64/60 76/76/72
f 61/57/55 76/76/72 75/74/70
f 58/58/56 75/74/70 77/77/73
f 58/58/56 61/57/55 75/74/70
f 78/78/74 77/77/73 75/74/70
f 78/78/74 75/74/70 74/75/71
f 77/77/73 78/78/74 79/79/75
f 82/80/76 79/79/75 80/81/77
f 82/80/76 81/82/78 79/79/75
f 77/77/73 79/79/75 81/82/78
f 84/83/79 81/82/78 82/80/76
f 83/84/80 82/80/76 85/85/81
f 83/84/80 84/83/79 82/80/76
f 86/86/82 85/85/81 82/80/76
f 86/86/82 82/80/76 80/81/77
f 87/87/83 85/85/81 86/86/82
f 89/88/84 88/89/85 87/87/83
f 87/87/83 88/89/85 85/85/81
f 89/88/84 87/87/83 90/90/86
f 91/91/87 88/89/85 89/88/84
f 92/92/88 91/91/87 93/93/89
f 92/92/88 94/94/90 91/91/87
f 91/91/87 94/94/90 88/89/85
f 88/89/85 94/94/90 83/84/80
f 95/95/91 83/84/80 94/94/90
f 95/95/91 94/94/90 92/92/88
f 84/83/79 83/84/80 95/95/91
f 84/83/79 95/95/91 96/96/92
f 60/61/58 84/83/79 96/96/92
f 88/89/85 83/84/80 85/85/81
f 84/83/79 59/60/57 81/82/78
f 60/61/58 59/60/57 84/83/79
f 58/58/56 81/82/78 59/60/57
f 58/58/56 77/77/73 81/82/78
f 70/70/66 64/64/60 66/66/62
f 98/97/93 97/98/94 101/99/95
f 97/98/94 98/97/93 99/100/96
f 97/98/94 99/100/96 100/101/97
f 97/98/94 100/101/97 103/102/98
f 101/99/95 97/98/94 102/103/99
f 97/98/94 103/102/98 102/103/99
f 100/101/97 104/104/100 103/102/98
f 105/105/101 102/103/99 103/102/98
f 106/106/102 103/102/98 104/104/100
f 105/105/101 103/102/98 106/106/102
f 106/106/102 104/104/100 107/107/103
f 109/108/104 105/105/101 108/109/105
f 109/108/104 102/103/99 105/105/101
f 101/99/95 102/103/99 109/108/104
f 100/101/97 110/110/106 104/104/100
f 110/110/106 99/100/96 111/111/107
f 110/110/106 100/101/97 99/100/96
f 98/97/93 101/99/95 112/112/108
f 114/113/101 113/114/109 117/115/110
f 113/114/109 114/113/101 115/116/111
f 113/114/109 115/116/111 116/117/112
f 113/114/109 116/117/112 119/118/113
f 117/115/110 113/114/109 118/119/114
f 113/114/109 119/118/113 118/119/114
f 120/120/115 119/118/113 121/121/116
f 120/120/115 118/119/114 119/118/113
f 121/121/116 119/118/113 122/122/117
f 116/117/112 122/122/117 119/118/113
f 116/117/112 123/123/118 122/122/117
f 121/121/116 122/122/117 124/124/119
f 123/123/118 115/116/111 125/125/120
f 123/123/118 116/117/112 115/116/111
f 127/126/121 120/120/115 126/127/68
f 127/126/121 118/119/114 120/120/115
f 117/115/110 118/119/114 127/126/121
f 114/113/101 117/115/110 128/128/122
f 133/129/123 130/130/124 129/131/74
f 129/131/74 130/130/124 131/132/125
f 129/131/74 131/132/125 132/133/126
f 133/129/123 129/131/74 134/134/127
f 130/130/124 133/129/123 135/135/128
f 130/130/124 135/135/128 136/136/129
f 137/137/130 136/136/129 135/135/128
f 137/137/130 135/135/128 138/138/131
f 136/136/129 137/137/130 139/139/132
f 142/140/133 139/139/132 140/141/134
f 142/140/133 141/142/135 139/139/132
f 136/136/129 139/139/132 141/142/135
f 143/143/136 141/142/135 142/140/133
f 143/143/136 131/132/125 141/142/135
f 132/133/126 143/143/136 144/144/137
f 132/133/126 131/132/125 143/143/136
f 130/130/124 141/142/135 131/132/125
f 130/130/124 136/136/129 141/142/135
f 145/145/138 146/146/139 151/147/140
f 145/145/138 149/148/141 146/146/139
f 147/149/142 145/145/138 150/150/143
f 145/145/138 147/149/142 148/151/144
f 145/145/138 148/151/144 149/148/141
f 150/150/143 145/145/138 151/147/140
f 150/150/143 151/147/140 152/152/145
f 152/152/145 151/147/140 153/153/146
f 153/153/146 151/147/140 146/146/139
f 152/152/145 153/153/146 155/154/147
f 153/153/146 146/146/139 154/155/148
f 154/155/148 146/146/139 156/156/149
f 154/155/148 156/156/149 157/157/150
f 149/148/141 158/158/151 156/156/149
f 149/148/141 156/156/149 146/146/139
f 158/158/151 148/151/144 159/159/152
f 158/158/151 149/148/141 148/151/144
f 147/149/142 150/150/143 160/160/153
f 162/161/87 161/162/154 165/163/155
f 161/162/154 162/161/87 163/164/156
f 161/162/154 163/164/156 164/165/157
f 161/162/154 164/165/157 167/166/158
f 165/163/155 161/162/154 166/167/159
f 161/162/154 167/166/158 166/167/159
f 168/168/19 167/166/158 169/169/160
f 170/170/161 167/166/158 168/168/19
f 164/165/157 169/169/160 167/166/158
f 170/170/161 166/167/159 167/166/158
f 171/171/162 166/167/159 170/170/161
f 171/171/162 170/170/161 172/172/163
f 165/163/155 166/167/159 171/171/162
f 168/168/19 169/169/160 174/173/21
f 164/165/157 173/174/164 169/169/160
f 173/174/164 163/164/156 175/175/165
f 173/174/164 164/165/157 163/164/156
f 162/161/87 165/163/155 176/176/166
f 178/177/83 177/178/167 181/179/164
f 177/178/167 178/177/83 179/180/168
f 177/178/167 179/180/168 180/181/169
f 177/178/167 180/181/169 183/182/170
f 181/179/164 177/178/167 182/183/171
f 177/178/167 183/182/170 182/183/171
f 184/184/172 183/182/170 185/185/173
f 186/186/16 183/182/170 184/184/172
f 180/181/169 185/185/173 183/182/170
f 186/186/16 182/183/171 183/182/170
f 187/187/174 182/183/171 186/186/16
f 187/187/174 186/186/16 188/188/175
f 181/179/164 182/183/171 187/187/174
f 184/184/172 185/185/173 189/189/134
f 180/181/169 190/190/136 185/185/173
f 190/190/136 179/180/168 191/191/137
f 190/190/136 180/181/169 179/180/168
f 178/177/83 181/179/164 192/192/86
f 197/193/115 194/194/176 193/195/67
f 193/195/67 194/194/176 195/196/177
f 193/195/67 195/196/177 196/197/178
f 197/193/115 193/195/67 198/198/179
f 194/194/176 197/193/115 199/199/180
f 194/194/176 199/199/180 200/200/181
f 201/201/182 200/200/181 199/199/180
f 201/201/182 199/199/180 202/202/183
f 200/200/181 201/201/182 203/203/184
f 205/204/128 204/205/185 203/203/184
f 200/200/181 203/203/184 204/205/185
f 205/204/128 203/203/184 206/206/131
f 207/207/186 204/205/185 205/204/128
f 207/207/186 195/196/177 204/205/185
f 196/197/178 195/196/177 207/207/186
f 196/197/178 207/207/186 208/208/187
f 194/194/176 204/205/185 195/196/177
f 194/194/176 200/200/181 204/205/185
