# Blender 4.4.1
# www.blender.org
mtllib SM_Incubator_door_NakedSingularity_glass_0_0.mtl
o SM_Incubator_door_NakedSingularity_glass_0_0
v -0.455947 48.215897 -21.016964
v -0.455954 0.201862 -21.016964
v -0.455954 0.201862 21.016964
v -0.455947 48.215897 21.016964
v -0.455947 48.215897 21.016964
v -0.455954 0.201862 21.016964
v -0.201006 0.201862 21.016964
v -0.200999 48.215897 21.016964
v -0.200999 48.215897 21.016964
v -0.201006 0.201862 21.016964
v -0.201006 0.201862 -21.016964
v -0.200999 48.215897 -21.016964
v -0.200999 48.215897 -21.016964
v -0.201006 0.201862 -21.016964
v -0.455954 0.201862 -21.016964
v -0.455947 48.215897 -21.016964
v -0.455954 0.201862 -21.016964
v -0.201006 0.201862 -21.016964
v -0.201006 0.201862 21.016964
v -0.455954 0.201862 21.016964
v -0.200999 48.215897 -21.016964
v -0.455947 48.215897 -21.016964
v -0.455947 48.215897 21.016964
v -0.200999 48.215897 21.016964
v 0.056764 47.125679 16.395777
v 0.056764 46.955498 16.565947
v 0.056764 45.087128 16.565947
v 0.056764 44.916954 16.395777
v 0.056764 47.125679 13.975188
v 0.056764 44.916954 13.975188
v 0.056764 45.087128 13.805015
v 0.056764 46.955498 13.805015
v -0.637803 45.393547 15.301665
v -0.637803 45.456978 15.365088
v -0.668632 45.543617 15.215022
v -0.637803 45.543617 15.388301
v -0.637803 45.630257 15.365088
v -0.637803 45.693687 15.301665
v -0.637803 45.716904 15.215022
v -0.637803 45.693687 15.128379
v -0.637803 45.630257 15.064956
v -0.637803 45.543617 15.041739
v -0.637803 45.456978 15.064956
v -0.637803 45.393547 15.128379
v -0.637803 45.370331 15.215022
v -0.565249 45.296188 15.357867
v -0.565249 45.400764 15.462443
v -0.565249 45.686470 15.462443
v -0.565249 45.791046 15.357867
v -0.565249 45.791046 15.072165
v -0.565249 45.686470 14.967589
v -0.565249 45.400764 14.967589
v -0.565249 45.296188 15.072165
v -0.637803 45.393547 -15.251550
v -0.565249 45.296188 -15.195346
v -0.565249 45.400764 -15.090768
v -0.637803 45.456978 -15.188127
v -0.668632 45.543617 -15.338191
v -0.637803 45.370331 -15.338191
v -0.637803 45.393547 -15.424832
v -0.637803 45.456978 -15.488256
v -0.565249 45.296188 -15.481048
v -0.565249 45.400764 -15.585624
v -0.637803 45.543617 -15.511476
v -0.637803 45.630257 -15.488256
v -0.637803 45.693687 -15.424832
v -0.565249 45.686470 -15.585624
v -0.565249 45.791046 -15.481048
v -0.637803 45.716904 -15.338191
v -0.637803 45.693687 -15.251550
v -0.637803 45.630257 -15.188127
v -0.565249 45.791046 -15.195346
v -0.565249 45.686470 -15.090768
v -0.637803 45.543617 -15.164912
v 0.186908 0.107906 17.004641
v 0.000001 -0.000004 17.004641
v 0.186908 -0.107914 17.004641
v 0.000001 0.215817 17.004641
v -0.186906 0.107906 17.004641
v -0.186906 -0.107914 17.004641
v 0.000001 -0.215824 17.004641
v 0.145631 -0.084085 9.267174
v 0.000001 -0.000004 9.267174
v 0.145631 0.084072 9.267174
v 0.000001 -0.168161 9.267174
v -0.145627 -0.084085 9.267174
v -0.145627 0.084072 9.267174
v 0.000001 0.168152 9.267174
v 0.186908 0.107906 -8.463251
v 0.000001 -0.000004 -8.463251
v 0.186908 -0.107914 -8.463251
v 0.000001 0.215817 -8.463251
v -0.186906 0.107906 -8.463251
v -0.186906 -0.107914 -8.463251
v 0.000001 -0.215824 -8.463251
v 0.145631 -0.084085 -16.200720
v 0.000001 -0.000004 -16.200720
v 0.145631 0.084072 -16.200720
v 0.000001 -0.168161 -16.200720
v -0.145627 -0.084085 -16.200720
v -0.145627 0.084072 -16.200720
v 0.000001 0.168152 -16.200720
v -0.565249 45.296188 15.357867
v -0.637803 45.393547 15.301665
v -0.565249 45.257912 15.215022
v -0.458169 45.269928 15.373038
v -0.458169 45.227585 15.215022
v -0.637803 45.370331 15.215022
v -0.565249 45.400764 15.462443
v -0.458169 45.385597 15.488715
v -0.637803 45.393547 15.128379
v -0.565249 45.296188 15.072165
v -0.458169 45.385597 14.941329
v -0.458169 45.269928 15.057006
v -0.565249 45.400764 14.967589
v -0.637803 45.456978 15.365088
v -0.565249 45.543617 15.500728
v -0.637803 45.543617 15.388301
v -0.565249 45.400764 15.462443
v -0.458169 45.385597 15.488715
v -0.458169 45.543617 15.531054
v -0.565249 45.686470 15.462443
v -0.458169 45.701630 15.488715
v -0.637803 45.630257 15.365088
v -0.637803 45.693687 15.301665
v -0.565249 45.829323 15.215022
v -0.565249 45.791046 15.357867
v -0.637803 45.716904 15.215022
v -0.565249 45.791046 15.072165
v -0.637803 45.693687 15.128379
v -0.458169 45.859650 15.215022
v -0.458169 45.817314 15.057006
v -0.565249 45.686470 14.967589
v -0.458169 45.701630 14.941329
v -0.458169 45.817314 15.373038
v -0.458169 45.701630 15.488715
v -0.565249 45.686470 15.462443
v -0.637803 45.630257 15.064956
v -0.565249 45.543617 14.929320
v -0.565249 45.686470 14.967589
v -0.637803 45.543617 15.041739
v -0.565249 45.400764 14.967589
v -0.637803 45.456978 15.064956
v -0.458169 45.543617 14.898990
v -0.458169 45.385597 14.941329
v -0.458169 45.701630 14.941329
v -0.458169 45.465538 15.350257
v -0.191474 45.408386 15.293097
v -0.458169 45.408386 15.293097
v -0.191474 45.465538 15.350257
v -0.458169 45.387466 15.215022
v -0.191474 45.387466 15.215022
v -0.191474 45.408386 15.136947
v -0.458169 45.408386 15.136947
v -0.191474 45.465538 15.079787
v -0.458169 45.465538 15.079787
v -0.458169 45.543617 15.371177
v -0.191474 45.465538 15.350257
v -0.458169 45.465538 15.350257
v -0.191474 45.543617 15.371177
v -0.458169 45.621696 15.350253
v -0.191474 45.621696 15.350253
v -0.458169 45.678848 15.293094
v -0.191474 45.621696 15.350253
v -0.191474 45.678848 15.293094
v -0.458169 45.699768 15.215022
v -0.458169 45.621696 15.350253
v -0.458169 45.678848 15.136950
v -0.191474 45.699768 15.215022
v -0.191474 45.678848 15.136950
v -0.191474 45.621696 15.079787
v -0.458169 45.621696 15.079787
v -0.458169 45.543617 15.058867
v -0.458169 45.621696 15.079787
v -0.191474 45.621696 15.079787
v -0.191474 45.543617 15.058867
v -0.458169 45.465538 15.079787
v -0.191474 45.465538 15.079787
v -0.458169 45.385597 15.488715
v -0.458169 45.269928 15.373038
v -0.458169 45.408386 15.293097
v -0.458169 45.465538 15.350257
v -0.458169 45.543617 15.531054
v -0.458169 45.701630 15.488715
v -0.458169 45.543617 15.371177
v -0.458169 45.621696 15.350253
v -0.458169 45.817314 15.373038
v -0.458169 45.678848 15.293094
v -0.458169 45.859650 15.215022
v -0.458169 45.699768 15.215022
v -0.458169 45.817314 15.057006
v -0.458169 45.678848 15.136950
v -0.458169 45.701630 14.941329
v -0.458169 45.621696 15.079787
v -0.458169 45.543617 15.058867
v -0.458169 45.543617 14.898990
v -0.458169 45.385597 14.941329
v -0.458169 45.465538 15.079787
v -0.458169 45.269928 15.057006
v -0.458169 45.227585 15.215022
v -0.458169 45.408386 15.136947
v -0.458169 45.387466 15.215022
v -0.565249 45.296188 -15.195346
v -0.637803 45.393547 -15.251550
v -0.637803 45.370331 -15.338191
v -0.565249 45.257912 -15.338191
v -0.458169 45.269928 -15.180175
v -0.565249 45.400764 -15.090768
v -0.458169 45.227585 -15.338191
v -0.458169 45.269928 -15.496207
v -0.565249 45.296188 -15.481048
v -0.458169 45.385597 -15.611886
v -0.565249 45.400764 -15.585624
v -0.637803 45.393547 -15.424832
v -0.458169 45.385597 -15.064496
v -0.637803 45.456978 -15.188127
v -0.565249 45.400764 -15.090768
v -0.565249 45.543617 -15.052485
v -0.637803 45.543617 -15.164912
v -0.565249 45.686470 -15.090768
v -0.637803 45.630257 -15.188127
v -0.458169 45.543617 -15.022157
v -0.458169 45.701630 -15.064496
v -0.458169 45.385597 -15.064496
v -0.637803 45.693687 -15.251550
v -0.565249 45.791046 -15.195346
v -0.565249 45.829323 -15.338191
v -0.637803 45.716904 -15.338191
v -0.565249 45.791046 -15.481048
v -0.637803 45.693687 -15.424832
v -0.458169 45.859650 -15.338191
v -0.458169 45.817314 -15.496207
v -0.565249 45.686470 -15.585624
v -0.458169 45.701630 -15.611886
v -0.458169 45.817314 -15.180175
v -0.458169 45.701630 -15.064496
v -0.565249 45.686470 -15.090768
v -0.637803 45.630257 -15.488256
v -0.565249 45.686470 -15.585624
v -0.637803 45.543617 -15.511476
v -0.565249 45.543617 -15.623893
v -0.458169 45.701630 -15.611886
v -0.458169 45.543617 -15.654225
v -0.565249 45.400764 -15.585624
v -0.637803 45.456978 -15.488256
v -0.458169 45.385597 -15.611886
v -0.458169 45.465538 -15.202958
v -0.191474 45.408386 -15.260114
v -0.458169 45.408386 -15.260114
v -0.191474 45.465538 -15.202958
v -0.458169 45.387466 -15.338191
v -0.191474 45.387466 -15.338191
v -0.191474 45.408386 -15.416268
v -0.458169 45.408386 -15.416268
v -0.191474 45.465538 -15.473424
v -0.458169 45.465538 -15.473424
v -0.458169 45.543617 -15.182038
v -0.191474 45.465538 -15.202958
v -0.458169 45.621696 -15.202962
v -0.458169 45.465538 -15.202958
v -0.191474 45.543617 -15.182038
v -0.191474 45.621696 -15.202962
v -0.458169 45.678848 -15.260118
v -0.458169 45.621696 -15.202962
v -0.191474 45.678848 -15.260118
v -0.458169 45.699768 -15.338191
v -0.191474 45.621696 -15.202962
v -0.458169 45.678848 -15.416265
v -0.191474 45.699768 -15.338191
v -0.191474 45.678848 -15.416265
v -0.458169 45.621696 -15.473424
v -0.191474 45.621696 -15.473424
v -0.458169 45.543617 -15.494344
v -0.458169 45.621696 -15.473424
v -0.191474 45.621696 -15.473424
v -0.191474 45.543617 -15.494344
v -0.458169 45.465538 -15.473424
v -0.191474 45.465538 -15.473424
v -0.458169 45.385597 -15.064496
v -0.458169 45.269928 -15.180175
v -0.458169 45.408386 -15.260114
v -0.458169 45.465538 -15.202958
v -0.458169 45.543617 -15.022157
v -0.458169 45.543617 -15.182038
v -0.458169 45.701630 -15.064496
v -0.458169 45.817314 -15.180175
v -0.458169 45.621696 -15.202962
v -0.458169 45.678848 -15.260118
v -0.458169 45.859650 -15.338191
v -0.458169 45.699768 -15.338191
v -0.458169 45.817314 -15.496207
v -0.458169 45.678848 -15.416265
v -0.458169 45.701630 -15.611886
v -0.458169 45.621696 -15.473424
v -0.458169 45.543617 -15.654225
v -0.458169 45.543617 -15.494344
v -0.458169 45.385597 -15.611886
v -0.458169 45.465538 -15.473424
v -0.458169 45.408386 -15.416268
v -0.458169 45.269928 -15.496207
v -0.458169 45.227585 -15.338191
v -0.458169 45.387466 -15.338191
v -0.428922 1.645048 -20.516958
v -0.228036 1.716059 -20.487543
v -0.428922 1.716059 -20.487543
v -0.228036 1.645048 -20.516958
v -0.499934 1.645048 -20.487543
v -0.428922 0.000656 -20.516958
v -0.428922 -0.070354 -20.487543
v -0.499934 0.000656 -20.487543
v -0.228036 0.000656 -20.516958
v -0.157025 0.000656 -20.487543
v -0.228036 -0.070354 -20.487543
v -0.170077 -0.057302 -20.474493
v -0.157025 1.645048 -20.487543
v -0.170077 1.703007 -20.474493
v -0.486882 -0.057302 -20.474493
v -0.486882 1.703007 -20.474493
v -0.428922 1.716059 -20.487543
v -0.486882 1.703007 -20.474493
v -0.228036 1.716059 -20.487543
v -0.428922 1.745472 -20.416536
v -0.228036 1.745472 -20.416536
v -0.499934 1.716059 -20.416536
v -0.499934 1.716059 20.493948
v -0.428922 1.716059 20.564959
v -0.486882 1.703007 20.551905
v -0.428922 1.745472 20.493948
v -0.228036 1.716059 20.564959
v -0.228036 1.745472 20.493948
v -0.157025 1.716059 20.493948
v -0.157025 1.716059 -20.416536
v -0.170077 1.703007 -20.474493
v -0.170077 1.703007 20.551905
v -0.529347 1.645048 -20.416536
v -0.499934 0.000656 -20.487543
v -0.529347 1.645048 20.493948
v -0.499934 1.645048 -20.487543
v -0.529347 0.000656 -20.416536
v -0.499934 1.716059 -20.416536
v -0.529347 0.000656 20.493948
v -0.499934 -0.070354 20.493948
v -0.499934 1.645048 20.564959
v -0.499934 0.000656 20.564959
v -0.486882 -0.057302 20.551905
v -0.499934 1.716059 20.493948
v -0.486882 1.703007 20.551905
v -0.499934 -0.070354 -20.416536
v -0.486882 -0.057302 -20.474493
v -0.486882 1.703007 -20.474493
v -0.428922 -0.099768 -20.416536
v -0.228036 -0.099768 20.493948
v -0.428922 -0.070354 -20.487543
v -0.228036 -0.070354 -20.487543
v -0.228036 -0.099768 -20.416536
v -0.499934 -0.070354 -20.416536
v -0.428922 -0.099768 20.493948
v -0.428922 -0.070354 20.564959
v -0.499934 -0.070354 20.493948
v -0.486882 -0.057302 20.551905
v -0.228036 -0.070354 20.564959
v -0.157025 -0.070354 20.493948
v -0.170077 -0.057302 20.551905
v -0.157025 -0.070354 -20.416536
v -0.170077 -0.057302 -20.474493
v -0.486882 -0.057302 -20.474493
v -0.428922 1.716059 20.564959
v -0.428922 1.645048 20.594370
v -0.228036 1.645048 20.594370
v -0.228036 1.716059 20.564959
v -0.499934 1.645048 20.564959
v -0.486882 1.703007 20.551905
v -0.499934 0.000656 20.564959
v -0.428922 0.000656 20.594370
v -0.428922 -0.070354 20.564959
v -0.486882 -0.057302 20.551905
v -0.228036 -0.070354 20.564959
v -0.228036 0.000656 20.594370
v -0.157025 0.000656 20.564959
v -0.170077 -0.057302 20.551905
v -0.157025 1.645048 20.564959
v -0.170077 1.703007 20.551905
v -0.157025 1.716059 20.493948
v -0.127612 1.645048 20.493948
v -0.170077 1.703007 20.551905
v -0.157025 1.645048 20.564959
v -0.127612 1.645048 -20.416536
v -0.157025 1.716059 -20.416536
v -0.157025 1.645048 -20.487543
v -0.170077 1.703007 -20.474493
v -0.157025 0.000656 -20.487543
v -0.127612 0.000656 -20.416536
v -0.127612 0.000656 20.493948
v -0.157025 -0.070354 -20.416536
v -0.170077 -0.057302 -20.474493
v -0.157025 -0.070354 20.493948
v -0.157025 0.000656 20.564959
v -0.170077 -0.057302 20.551905
v 0.186908 -0.107914 17.004641
v 0.186908 -0.107914 12.926639
v 0.186908 0.107906 12.926639
v 0.186908 0.107906 17.004641
v 0.186908 0.107906 17.004641
v 0.000001 0.215817 17.004641
v 0.000001 0.215817 12.926639
v 0.186908 0.107906 12.926639
v -0.186906 0.107906 12.926639
v -0.186906 0.107906 17.004641
v -0.186906 0.107906 17.004641
v -0.186906 -0.107914 17.004641
v -0.186906 0.107906 12.926639
v -0.186906 -0.107914 12.926639
v -0.186906 -0.107914 17.004641
v -0.186906 -0.107914 12.926639
v 0.000001 -0.215824 12.926639
v 0.000001 -0.215824 17.004641
v 0.186908 -0.107914 17.004641
v 0.186908 -0.107914 12.926639
v 0.186908 -0.107914 12.926639
v 0.145631 0.084072 12.926639
v 0.186908 0.107906 12.926639
v 0.145631 -0.084085 12.926639
v 0.186908 0.107906 12.926639
v 0.145631 0.084072 12.926639
v 0.000001 0.168152 12.926639
v 0.000001 0.215817 12.926639
v 0.000001 0.215817 12.926639
v -0.145627 0.084072 12.926639
v -0.186906 0.107906 12.926639
v 0.000001 0.168152 12.926639
v -0.186906 0.107906 12.926639
v -0.145627 0.084072 12.926639
v -0.145627 -0.084085 12.926639
v -0.186906 -0.107914 12.926639
v -0.186906 -0.107914 12.926639
v 0.000001 -0.168161 12.926639
v 0.000001 -0.215824 12.926639
v -0.145627 -0.084085 12.926639
v 0.000001 -0.215824 12.926639
v 0.145631 -0.084085 12.926639
v 0.186908 -0.107914 12.926639
v 0.000001 -0.168161 12.926639
v 0.145631 -0.084085 12.926639
v 0.145631 0.084072 9.267174
v 0.145631 0.084072 12.926639
v 0.145631 -0.084085 9.267174
v 0.000001 0.168152 12.926639
v 0.000001 0.168152 9.267174
v 0.000001 0.168152 12.926639
v 0.000001 0.168152 9.267174
v -0.145627 0.084072 9.267174
v -0.145627 0.084072 12.926639
v -0.145627 -0.084085 9.267174
v -0.145627 -0.084085 12.926639
v -0.145627 -0.084085 12.926639
v -0.145627 -0.084085 9.267174
v 0.000001 -0.168161 12.926639
v 0.000001 -0.168161 9.267174
v 0.145631 -0.084085 9.267174
v 0.145631 -0.084085 12.926639
v 0.186908 -0.107914 -8.463251
v 0.186908 0.107906 -12.541251
v 0.186908 -0.107914 -12.541251
v 0.186908 0.107906 -8.463251
v 0.186908 0.107906 -8.463251
v 0.000001 0.215817 -12.541251
v 0.000001 0.215817 -8.463251
v 0.186908 0.107906 -12.541251
v -0.186906 0.107906 -12.541251
v -0.186906 0.107906 -8.463251
v -0.186906 0.107906 -8.463251
v -0.186906 -0.107914 -12.541251
v -0.186906 0.107906 -12.541251
v -0.186906 -0.107914 -8.463251
v -0.186906 -0.107914 -8.463251
v -0.186906 -0.107914 -12.541251
v 0.000001 -0.215824 -12.541251
v 0.000001 -0.215824 -8.463251
v 0.186908 -0.107914 -8.463251
v 0.186908 -0.107914 -12.541251
v 0.186908 -0.107914 -12.541251
v 0.145631 -0.084085 -12.541251
v 0.145631 0.084072 -12.541251
v 0.186908 0.107906 -12.541251
v 0.186908 0.107906 -12.541251
v 0.000001 0.215817 -12.541251
v 0.145631 0.084072 -12.541251
v 0.000001 0.168152 -12.541251
v 0.000001 0.215817 -12.541251
v 0.000001 0.168152 -12.541251
v -0.186906 0.107906 -12.541251
v -0.145627 0.084072 -12.541251
v -0.186906 0.107906 -12.541251
v -0.186906 -0.107914 -12.541251
v -0.145627 0.084072 -12.541251
v -0.145627 -0.084085 -12.541251
v -0.186906 -0.107914 -12.541251
v -0.145627 -0.084085 -12.541251
v 0.000001 -0.168161 -12.541251
v 0.000001 -0.215824 -12.541251
v 0.000001 -0.215824 -12.541251
v 0.000001 -0.168161 -12.541251
v 0.145631 -0.084085 -12.541251
v 0.186908 -0.107914 -12.541251
v 0.145631 -0.084085 -12.541251
v 0.145631 -0.084085 -16.200720
v 0.145631 0.084072 -16.200720
v 0.145631 0.084072 -12.541251
v 0.000001 0.168152 -16.200720
v 0.000001 0.168152 -12.541251
v 0.000001 0.168152 -12.541251
v 0.000001 0.168152 -16.200720
v -0.145627 0.084072 -16.200720
v -0.145627 0.084072 -12.541251
v -0.145627 -0.084085 -16.200720
v -0.145627 -0.084085 -12.541251
v -0.145627 -0.084085 -12.541251
v 0.000001 -0.168161 -16.200720
v 0.000001 -0.168161 -12.541251
v -0.145627 -0.084085 -16.200720
v 0.145631 -0.084085 -16.200720
v 0.145631 -0.084085 -12.541251
v 0.056758 46.955498 16.565947
v 0.056758 45.087135 16.565947
v -0.206349 45.087135 16.565947
v -0.206349 46.955498 16.565947
v -0.206349 46.955498 13.805015
v 0.056758 46.955498 13.805015
v -0.206349 45.087135 13.805015
v 0.056758 45.087135 13.805015
v -0.206349 44.916954 13.975188
v 0.056758 44.916954 13.975188
v 0.056758 44.916954 16.395777
v -0.206349 44.916954 16.395777
v 0.056758 47.125679 13.975188
v -0.206349 47.125679 13.975188
v -0.206349 47.125679 16.395777
v 0.056758 47.125679 16.395777
v -0.206349 47.125679 13.975188
v -0.206349 46.955498 13.805015
v -0.206349 45.087135 13.805015
v -0.206349 44.916954 13.975188
v -0.206349 47.125679 16.395777
v -0.206349 44.916954 16.395777
v -0.206349 45.087135 16.565947
v -0.206349 46.955498 16.565947
v -0.206349 47.125679 16.395777
v 0.056758 46.955498 16.565947
v 0.056758 47.125679 16.395777
v -0.206349 46.955498 16.565947
v -0.206349 45.087135 16.565947
v 0.056758 44.916954 16.395777
v -0.206349 44.916954 16.395777
v 0.056758 45.087135 16.565947
v -0.206349 46.955498 13.805015
v 0.056758 47.125679 13.975188
v -0.206349 47.125679 13.975188
v 0.056758 46.955498 13.805015
v -0.206349 44.916954 13.975188
v -0.206349 45.087135 13.805015
v 0.056758 45.087135 13.805015
v 0.056758 44.916954 13.975188
v 0.056758 46.955498 -13.938481
v -0.206349 46.955498 -13.938481
v -0.206349 45.087135 -13.938481
v 0.056758 45.087135 -13.938481
v -0.206349 46.955498 -16.699413
v 0.056758 45.087135 -16.699413
v 0.056758 46.955498 -16.699413
v -0.206349 45.087135 -16.699413
v -0.206349 44.916954 -16.529240
v 0.056758 44.916954 -16.529240
v 0.056758 44.916954 -14.108651
v -0.206349 44.916954 -14.108651
v 0.056758 47.125679 -16.529240
v -0.206349 47.125679 -16.529240
v -0.206349 47.125679 -14.108651
v 0.056758 47.125679 -14.108651
v 0.056758 47.125679 -14.108651
v 0.056758 46.955498 -13.938481
v 0.056758 45.087135 -13.938481
v 0.056758 44.916954 -14.108651
v 0.056758 47.125679 -16.529240
v 0.056758 44.916954 -16.529240
v 0.056758 45.087135 -16.699413
v 0.056758 46.955498 -16.699413
v -0.206349 47.125679 -16.529240
v -0.206349 45.087135 -16.699413
v -0.206349 46.955498 -16.699413
v -0.206349 47.125679 -14.108651
v -0.206349 44.916954 -14.108651
v -0.206349 44.916954 -16.529240
v -0.206349 45.087135 -13.938481
v -0.206349 46.955498 -13.938481
v -0.206349 47.125679 -14.108651
v 0.056758 46.955498 -13.938481
v -0.206349 46.955498 -13.938481
v 0.056758 47.125679 -14.108651
v -0.206349 45.087135 -13.938481
v 0.056758 44.916954 -14.108651
v -0.206349 44.916954 -14.108651
v 0.056758 45.087135 -13.938481
v -0.206349 46.955498 -16.699413
v -0.206349 47.125679 -16.529240
v 0.056758 47.125679 -16.529240
v 0.056758 46.955498 -16.699413
v -0.206349 44.916954 -16.529240
v -0.206349 45.087135 -16.699413
v 0.056758 44.916954 -16.529240
v 0.056758 45.087135 -16.699413
vn -1.0000 -0.0000 -0.0000
vn -0.0000 -0.0000 1.0000
vn 1.0000 -0.0000 -0.0000
vn -0.0000 -0.0000 -1.0000
vn -0.0000 -1.0000 -0.0000
vn -0.0000 1.0000 -0.0000
vn -0.8958 -0.3849 0.2222
vn -0.8958 -0.2222 0.3849
vn -0.8958 -0.0000 0.4444
vn -0.8958 0.2222 0.3849
vn -0.8958 0.3849 0.2222
vn -0.8958 0.4444 -0.0000
vn -0.8958 0.3849 -0.2222
vn -0.8958 0.2222 -0.3849
vn -0.8958 -0.0000 -0.4444
vn -0.8958 -0.2222 -0.3849
vn -0.8958 -0.3849 -0.2222
vn -0.8958 -0.4444 -0.0000
vn -0.5689 -0.7122 0.4112
vn -0.5689 -0.4112 0.7122
vn -0.5689 0.4112 0.7122
vn -0.5689 0.7122 0.4112
vn -0.5689 0.7122 -0.4112
vn -0.5689 0.4112 -0.7122
vn -0.5689 -0.4112 -0.7122
vn -0.5689 -0.7122 -0.4112
vn -0.8958 -0.3848 0.2222
vn -0.8958 -0.2222 0.3848
vn -0.8958 -0.3848 -0.2222
vn -0.8958 -0.2222 -0.3848
vn -0.8958 0.2222 -0.3848
vn -0.8958 0.3848 -0.2222
vn -0.8958 0.3848 0.2223
vn -0.8958 0.2222 0.3848
vn -0.5690 0.4112 0.7122
vn -0.5688 -0.7123 0.4112
vn -0.8958 -0.3850 0.2222
vn -0.8957 -0.4446 -0.0000
vn -0.2725 -0.9622 -0.0000
vn -0.5686 -0.8226 -0.0000
vn -0.2725 -0.8332 0.4811
vn -0.5688 -0.4113 0.7122
vn -0.2726 -0.4812 0.8332
vn -0.8958 -0.3850 -0.2222
vn -0.5687 -0.7123 -0.4112
vn -0.2725 -0.4812 -0.8332
vn -0.5688 -0.4113 -0.7122
vn -0.2725 -0.8333 -0.4811
vn -0.8958 -0.2222 0.3850
vn -0.5686 -0.0000 0.8226
vn -0.8957 -0.0000 0.4446
vn -0.5689 -0.4111 0.7123
vn -0.2725 -0.4810 0.8333
vn -0.2725 -0.0000 0.9622
vn -0.5689 0.4111 0.7123
vn -0.2726 0.4810 0.8333
vn -0.8958 0.2222 0.3850
vn -0.8958 0.3850 0.2222
vn -0.5685 0.8227 -0.0000
vn -0.8957 0.4446 -0.0000
vn -0.5688 0.7123 0.4112
vn -0.5688 0.7123 -0.4112
vn -0.8958 0.3850 -0.2222
vn -0.2725 0.9622 -0.0000
vn -0.2725 0.8333 -0.4811
vn -0.5688 0.4113 -0.7123
vn -0.2725 0.4811 -0.8332
vn -0.2726 0.8332 0.4811
vn -0.2725 0.4811 0.8332
vn -0.5688 0.4113 0.7122
vn -0.8958 0.2222 -0.3850
vn -0.5686 -0.0000 -0.8226
vn -0.8957 -0.0000 -0.4446
vn -0.5689 0.4111 -0.7123
vn -0.5689 -0.4111 -0.7123
vn -0.8958 -0.2222 -0.3850
vn -0.2725 -0.0000 -0.9622
vn -0.2725 -0.4810 -0.8333
vn -0.2725 0.4810 -0.8333
vn -0.0000 -0.5001 0.8660
vn -0.0000 -0.8660 0.5000
vn -0.0000 -0.5000 0.8660
vn -0.0000 -0.8660 -0.5000
vn -0.0001 -0.5000 -0.8660
vn -0.0000 -0.5001 -0.8660
vn -0.0000 -0.4999 0.8661
vn 0.0001 0.4999 0.8661
vn -0.0000 0.4999 0.8661
vn -0.0000 0.8660 0.5000
vn -0.0001 0.5002 0.8659
vn -0.0000 0.5001 0.8660
vn -0.0000 0.8661 -0.5000
vn -0.0000 0.8660 -0.5000
vn -0.0000 0.5001 -0.8660
vn -0.0000 0.5000 -0.8660
vn -0.0000 0.4999 -0.8661
vn -0.0000 -0.5000 -0.8660
vn -0.0000 -0.4999 -0.8661
vn -0.5685 -0.8227 -0.0000
vn -0.5688 -0.4113 -0.7123
vn -0.2725 -0.4812 0.8332
vn -0.8957 -0.2222 0.3850
vn -0.8958 -0.0000 0.4446
vn -0.2725 -0.0000 0.9621
vn -0.2725 0.4810 0.8333
vn -0.5686 0.8226 -0.0000
vn -0.8957 0.3851 -0.2222
vn -0.2725 0.8332 0.4811
vn -0.2725 0.4812 0.8332
vn -0.5690 -0.0000 -0.8223
vn -0.8958 -0.0000 -0.4446
vn -0.2725 -0.0000 -0.9621
vn -0.0001 -0.5001 0.8660
vn -0.0000 -0.5000 0.8661
vn -0.0001 0.5001 0.8660
vn -0.1065 0.0158 -0.9942
vn 0.0804 0.7047 -0.7049
vn 0.1065 0.0158 -0.9942
vn -0.0804 0.7047 -0.7049
vn -0.7094 0.0116 -0.7048
vn -0.1065 -0.0158 -0.9942
vn 0.1065 -0.0158 -0.9942
vn -0.7093 -0.0115 -0.7048
vn -0.0804 -0.7047 -0.7049
vn 0.7093 -0.0115 -0.7048
vn 0.0804 -0.7047 -0.7049
vn 0.5439 -0.5934 -0.5934
vn 0.7094 0.0115 -0.7048
vn 0.5439 0.5934 -0.5934
vn -0.5438 -0.5934 -0.5934
vn -0.5438 0.5934 -0.5934
vn -0.7072 0.7070 -0.0005
vn -0.0804 0.7049 -0.7048
vn 0.1076 0.9942 -0.0008
vn 0.0804 0.7049 -0.7047
vn -0.1076 0.9942 -0.0008
vn -0.7072 0.7070 0.0005
vn -0.1075 0.9942 0.0008
vn -0.0804 0.7049 0.7048
vn -0.5438 0.5934 0.5934
vn 0.1076 0.9942 0.0008
vn 0.0804 0.7049 0.7047
vn 0.7072 0.7070 0.0005
vn 0.7072 0.7070 -0.0005
vn 0.5438 0.5934 -0.5934
vn 0.5438 0.5934 0.5934
vn -0.9999 0.0172 -0.0008
vn -0.9999 -0.0172 -0.0008
vn -0.7094 0.0115 -0.7047
vn -0.9999 -0.0172 0.0008
vn -0.9999 0.0172 0.0008
vn -0.7093 0.0115 0.7048
vn -0.7094 -0.0115 0.7047
vn -0.7072 -0.7070 0.0005
vn -0.5438 -0.5934 0.5934
vn -0.7072 -0.7070 -0.0005
vn -0.1076 -0.9942 -0.0008
vn 0.1075 -0.9942 0.0008
vn -0.1075 -0.9942 0.0008
vn 0.1076 -0.9942 -0.0008
vn -0.0804 -0.7049 -0.7047
vn 0.0804 -0.7049 -0.7048
vn -0.0804 -0.7049 0.7047
vn -0.5439 -0.5934 0.5934
vn 0.0804 -0.7049 0.7048
vn 0.7072 -0.7070 0.0005
vn 0.5438 -0.5934 0.5934
vn 0.7072 -0.7070 -0.0005
vn 0.5438 -0.5934 -0.5934
vn -0.7094 0.0116 0.7048
vn -0.1065 0.0158 0.9942
vn -0.0804 0.7047 0.7049
vn 0.1065 0.0158 0.9942
vn 0.0804 0.7047 0.7049
vn -0.5439 0.5934 0.5934
vn -0.7094 -0.0116 0.7047
vn -0.0804 -0.7047 0.7049
vn -0.1065 -0.0158 0.9942
vn 0.0804 -0.7047 0.7049
vn 0.1065 -0.0158 0.9942
vn 0.7093 -0.0115 0.7048
vn 0.5439 -0.5933 0.5935
vn 0.7094 0.0116 0.7047
vn 0.5439 0.5934 0.5934
vn 0.7094 0.0115 0.7047
vn 0.9999 0.0172 0.0008
vn 0.9999 0.0172 -0.0008
vn 0.7094 0.0115 -0.7047
vn 0.9999 -0.0172 -0.0008
vn 0.7094 -0.0115 -0.7048
vn 0.9999 -0.0172 0.0008
vn 0.7094 -0.0116 0.7047
vn 0.8660 -0.5000 -0.0000
vn 0.8660 0.5000 -0.0000
vn -0.8660 0.5000 -0.0000
vn -0.8660 -0.5000 -0.0000
vn -0.0001 -0.0000 -1.0000
vn 0.0001 -0.0000 -1.0000
vn -0.0000 1.0000 0.0002
vn -0.0000 0.7071 0.7071
vn -0.0000 -0.7071 0.7071
vn -0.0000 0.7071 -0.7071
vn -0.0000 -0.7071 -0.7071
vt 0.238949 0.766142
vt 0.238949 1.000000
vt 0.443679 1.000000
vt 0.443679 0.766142
vt 0.832700 0.544220
vt 0.832700 0.778077
vt 0.833941 0.778077
vt 0.833941 0.544220
vt 0.238949 0.530475
vt 0.238949 0.764332
vt 0.443679 0.764332
vt 0.443679 0.530475
vt 0.832700 0.308552
vt 0.832700 0.542410
vt 0.833941 0.542410
vt 0.833941 0.308552
vt 0.543065 0.475044
vt 0.544307 0.475044
vt 0.544307 0.270314
vt 0.543065 0.270314
vt 0.535824 0.475044
vt 0.537066 0.475044
vt 0.537066 0.270314
vt 0.535824 0.270314
vt 0.014482 0.978204
vt 0.015311 0.979033
vt 0.024411 0.979033
vt 0.025240 0.978204
vt 0.025240 0.966415
vt 0.014482 0.966415
vt 0.024411 0.965586
vt 0.015311 0.965586
vt 0.088826 0.950355
vt 0.088517 0.950046
vt 0.088095 0.950777
vt 0.088095 0.949933
vt 0.087673 0.950046
vt 0.087364 0.950355
vt 0.087251 0.950777
vt 0.087364 0.951199
vt 0.087673 0.951508
vt 0.088095 0.951621
vt 0.088517 0.951508
vt 0.088826 0.951199
vt 0.088939 0.950777
vt 0.089301 0.950081
vt 0.088791 0.949572
vt 0.087400 0.949572
vt 0.086890 0.950081
vt 0.086890 0.951473
vt 0.087400 0.951982
vt 0.088791 0.951982
vt 0.089301 0.951473
vt 0.081586 0.950410
vt 0.082060 0.950136
vt 0.081550 0.949626
vt 0.081277 0.950101
vt 0.080855 0.950831
vt 0.081699 0.950831
vt 0.081586 0.951254
vt 0.081277 0.951562
vt 0.082060 0.951527
vt 0.081550 0.952037
vt 0.080855 0.951675
vt 0.080433 0.951562
vt 0.080124 0.951254
vt 0.080159 0.952037
vt 0.079650 0.951527
vt 0.080011 0.950831
vt 0.080124 0.950410
vt 0.080433 0.950101
vt 0.079650 0.950136
vt 0.080159 0.949626
vt 0.080855 0.949988
vt 0.210896 0.992202
vt 0.210896 0.993253
vt 0.211806 0.992727
vt 0.211806 0.993778
vt 0.209985 0.992727
vt 0.209985 0.993778
vt 0.210896 0.994304
vt 0.138286 0.758369
vt 0.138286 0.757550
vt 0.137576 0.757960
vt 0.137576 0.757141
vt 0.138995 0.757960
vt 0.138995 0.757141
vt 0.138286 0.756732
vt 0.189173 0.972859
vt 0.189173 0.973910
vt 0.190083 0.973385
vt 0.190083 0.974436
vt 0.188263 0.973385
vt 0.188263 0.974436
vt 0.189173 0.974961
vt 0.210694 0.758694
vt 0.210694 0.757875
vt 0.209985 0.758285
vt 0.209985 0.757466
vt 0.211404 0.758285
vt 0.211404 0.757466
vt 0.210694 0.757056
vt 0.210338 0.761127
vt 0.209985 0.761401
vt 0.209985 0.761823
vt 0.210860 0.761823
vt 0.210338 0.761823
vt 0.210860 0.761053
vt 0.210338 0.760618
vt 0.210860 0.760490
vt 0.209985 0.762245
vt 0.210338 0.762519
vt 0.210860 0.763156
vt 0.210338 0.763028
vt 0.210860 0.762593
vt 0.637196 0.539362
vt 0.637550 0.538940
vt 0.637196 0.538940
vt 0.637550 0.539636
vt 0.638071 0.539710
vt 0.638071 0.538940
vt 0.637550 0.538244
vt 0.638071 0.538171
vt 0.637196 0.538518
vt 0.058802 0.949908
vt 0.058448 0.950330
vt 0.058802 0.950330
vt 0.058448 0.949634
vt 0.058448 0.951026
vt 0.058802 0.950752
vt 0.057927 0.950330
vt 0.057927 0.951100
vt 0.058448 0.951535
vt 0.057927 0.951663
vt 0.057927 0.949560
vt 0.057927 0.948997
vt 0.058448 0.949125
vt 0.645312 0.538515
vt 0.644959 0.538937
vt 0.645312 0.538937
vt 0.644959 0.538241
vt 0.644959 0.539632
vt 0.645312 0.539359
vt 0.644437 0.538937
vt 0.644437 0.539706
vt 0.644437 0.538167
vt 0.014482 0.758047
vt 0.015781 0.758326
vt 0.015781 0.758047
vt 0.014482 0.758326
vt 0.014482 0.758706
vt 0.015781 0.758706
vt 0.015781 0.759086
vt 0.014482 0.759086
vt 0.015781 0.759365
vt 0.014482 0.759365
vt 0.999620 0.699126
vt 1.000000 0.697827
vt 0.999620 0.697827
vt 1.000000 0.699126
vt 0.999239 0.699126
vt 0.999239 0.697827
vt 0.008540 0.758326
vt 0.007241 0.758047
vt 0.007241 0.758326
vt 0.008540 0.758047
vt 0.008540 0.758706
vt 0.007241 0.758706
vt 0.008540 0.759086
vt 0.007241 0.759086
vt 0.008540 0.759365
vt 0.007241 0.759365
vt 0.999620 0.688500
vt 0.999239 0.688500
vt 0.999239 0.689799
vt 0.999620 0.689799
vt 1.000000 0.688500
vt 1.000000 0.689799
vt 0.067477 0.952531
vt 0.068040 0.951968
vt 0.067366 0.951578
vt 0.067087 0.951857
vt 0.066707 0.952737
vt 0.065937 0.952531
vt 0.066707 0.951958
vt 0.066327 0.951857
vt 0.065374 0.951968
vt 0.066048 0.951578
vt 0.065168 0.951198
vt 0.065946 0.951198
vt 0.065374 0.950428
vt 0.066048 0.950818
vt 0.065937 0.949865
vt 0.066327 0.950539
vt 0.066707 0.949659
vt 0.066707 0.950437
vt 0.067477 0.949865
vt 0.067087 0.950539
vt 0.068040 0.950428
vt 0.068246 0.951198
vt 0.067366 0.950818
vt 0.067468 0.951198
vt 0.174134 0.759365
vt 0.173781 0.759638
vt 0.173781 0.760060
vt 0.174134 0.760060
vt 0.174656 0.760060
vt 0.174656 0.759291
vt 0.174134 0.758855
vt 0.174656 0.760830
vt 0.174134 0.760756
vt 0.174656 0.761393
vt 0.174134 0.761266
vt 0.173781 0.760482
vt 0.174656 0.758727
vt 0.629955 0.539362
vt 0.630309 0.539636
vt 0.630309 0.538940
vt 0.629955 0.538940
vt 0.630309 0.538244
vt 0.629955 0.538518
vt 0.630830 0.538940
vt 0.630830 0.538170
vt 0.630830 0.539710
vt 0.051561 0.949814
vt 0.051208 0.949541
vt 0.051208 0.950236
vt 0.051561 0.950236
vt 0.051208 0.950932
vt 0.051561 0.950658
vt 0.050686 0.950236
vt 0.050686 0.951006
vt 0.051208 0.951442
vt 0.050686 0.951569
vt 0.050686 0.949467
vt 0.050686 0.948904
vt 0.051208 0.949031
vt 0.652553 0.541592
vt 0.652200 0.541318
vt 0.652200 0.542013
vt 0.652553 0.542013
vt 0.651678 0.541244
vt 0.652200 0.542709
vt 0.651678 0.542013
vt 0.652553 0.542436
vt 0.651678 0.542783
vt 0.065168 0.757919
vt 0.066467 0.758197
vt 0.066467 0.757919
vt 0.065168 0.758197
vt 0.065168 0.758577
vt 0.066467 0.758577
vt 0.066467 0.758958
vt 0.065168 0.758958
vt 0.066467 0.759236
vt 0.065168 0.759236
vt 0.999620 0.696017
vt 1.000000 0.694718
vt 0.999620 0.694718
vt 1.000000 0.696017
vt 0.999239 0.696017
vt 0.999239 0.694718
vt 0.073708 0.758197
vt 0.073708 0.757919
vt 0.072409 0.757919
vt 0.073708 0.758577
vt 0.072409 0.758197
vt 0.072409 0.758577
vt 0.073708 0.758958
vt 0.072409 0.758958
vt 0.073708 0.759236
vt 0.072409 0.759236
vt 0.999620 0.691609
vt 0.999239 0.691609
vt 0.999239 0.692908
vt 0.999620 0.692908
vt 1.000000 0.691609
vt 1.000000 0.692908
vt 0.096440 0.952602
vt 0.097004 0.952039
vt 0.096329 0.951649
vt 0.096051 0.951928
vt 0.095671 0.952808
vt 0.095671 0.952030
vt 0.094901 0.952602
vt 0.094337 0.952039
vt 0.095290 0.951928
vt 0.095012 0.951649
vt 0.094131 0.951269
vt 0.094910 0.951269
vt 0.094337 0.950499
vt 0.095012 0.950889
vt 0.094901 0.949936
vt 0.095290 0.950610
vt 0.095671 0.949730
vt 0.095671 0.950508
vt 0.096440 0.949936
vt 0.096051 0.950610
vt 0.097004 0.950499
vt 0.096329 0.950889
vt 0.097210 0.951269
vt 0.096431 0.951269
vt 0.109937 0.762229
vt 0.108959 0.761883
vt 0.108959 0.762229
vt 0.109937 0.761883
vt 0.110283 0.762229
vt 0.109937 0.770238
vt 0.108959 0.770238
vt 0.110283 0.770238
vt 0.109937 0.770584
vt 0.108613 0.770238
vt 0.108959 0.770584
vt 0.108677 0.770520
vt 0.108613 0.762229
vt 0.108677 0.761947
vt 0.110220 0.770520
vt 0.110220 0.761947
vt 0.790924 0.775693
vt 0.790579 0.776039
vt 0.790861 0.775976
vt 0.789600 0.775693
vt 0.789600 0.776039
vt 0.790579 0.775693
vt 0.790924 0.576434
vt 0.790579 0.576434
vt 0.790579 0.576089
vt 0.790861 0.576152
vt 0.789600 0.576434
vt 0.789600 0.576089
vt 0.789254 0.576434
vt 0.789254 0.775693
vt 0.789318 0.775976
vt 0.789318 0.576152
vt 0.217572 0.738628
vt 0.225581 0.738974
vt 0.225581 0.738628
vt 0.217572 0.738974
vt 0.225581 0.539369
vt 0.217572 0.539369
vt 0.217226 0.738628
vt 0.217572 0.539024
vt 0.225581 0.539024
vt 0.225927 0.539369
vt 0.225863 0.539087
vt 0.217226 0.539369
vt 0.217290 0.539087
vt 0.225927 0.738628
vt 0.225863 0.738911
vt 0.217290 0.738911
vt 0.796841 0.775693
vt 0.797819 0.576434
vt 0.796841 0.576434
vt 0.797819 0.775693
vt 0.796841 0.776039
vt 0.796495 0.775693
vt 0.797819 0.776039
vt 0.796495 0.576434
vt 0.796841 0.576089
vt 0.796559 0.576152
vt 0.797819 0.576089
vt 0.798165 0.576434
vt 0.798102 0.576152
vt 0.798165 0.775693
vt 0.798102 0.775976
vt 0.796559 0.775976
vt 0.166540 0.763387
vt 0.166886 0.763387
vt 0.166886 0.763041
vt 0.167864 0.763387
vt 0.167864 0.763041
vt 0.166604 0.763105
vt 0.166540 0.771396
vt 0.166886 0.771742
vt 0.166886 0.771396
vt 0.166604 0.771679
vt 0.167864 0.771742
vt 0.167864 0.771396
vt 0.168210 0.771396
vt 0.168147 0.771679
vt 0.168210 0.763387
vt 0.168147 0.763105
vt 0.203090 0.738974
vt 0.203090 0.738628
vt 0.202744 0.738628
vt 0.203090 0.539369
vt 0.202808 0.738911
vt 0.202744 0.539369
vt 0.203090 0.539024
vt 0.202808 0.539087
vt 0.211099 0.539369
vt 0.211099 0.539024
vt 0.211099 0.738628
vt 0.211445 0.539369
vt 0.211445 0.738628
vt 0.211382 0.539087
vt 0.211099 0.738974
vt 0.211382 0.738911
vt 0.160350 0.807719
vt 0.160350 0.787856
vt 0.159299 0.787856
vt 0.159299 0.807719
vt 0.021723 0.765979
vt 0.022633 0.785842
vt 0.022633 0.765979
vt 0.021723 0.785842
vt 0.023543 0.785842
vt 0.023543 0.765979
vt 0.152058 0.775598
vt 0.153109 0.795460
vt 0.153109 0.775598
vt 0.152058 0.795460
vt 0.043445 0.765979
vt 0.043445 0.785842
vt 0.044356 0.785842
vt 0.044356 0.765979
vt 0.045266 0.785842
vt 0.045266 0.765979
vt 0.137576 0.951679
vt 0.137777 0.950744
vt 0.137576 0.950628
vt 0.137777 0.951563
vt 0.138487 0.950334
vt 0.138487 0.950102
vt 0.139196 0.950744
vt 0.139397 0.950628
vt 0.139196 0.951563
vt 0.139397 0.951679
vt 0.138487 0.951972
vt 0.138487 0.952205
vt 0.153287 0.815094
vt 0.152468 0.797270
vt 0.152468 0.815094
vt 0.153287 0.797270
vt 0.152058 0.797270
vt 0.152058 0.815094
vt 0.086890 0.768018
vt 0.086890 0.785842
vt 0.087300 0.785842
vt 0.087300 0.768018
vt 0.088119 0.785842
vt 0.088119 0.768018
vt 0.072409 0.768018
vt 0.072409 0.785842
vt 0.073118 0.785842
vt 0.073118 0.768018
vt 0.073827 0.785842
vt 0.073827 0.768018
vt 0.167591 0.815087
vt 0.166540 0.795225
vt 0.166540 0.815087
vt 0.167591 0.795225
vt 0.036204 0.765979
vt 0.037115 0.785842
vt 0.037115 0.765979
vt 0.036204 0.785842
vt 0.038025 0.785842
vt 0.038025 0.765979
vt 0.166540 0.773552
vt 0.167591 0.793415
vt 0.167591 0.773552
vt 0.166540 0.793415
vt 0.028963 0.765979
vt 0.028963 0.785842
vt 0.029874 0.785842
vt 0.029874 0.765979
vt 0.030784 0.785842
vt 0.030784 0.765979
vt 0.130336 0.951011
vt 0.130537 0.950895
vt 0.130537 0.950076
vt 0.130336 0.949960
vt 0.131246 0.949666
vt 0.131246 0.949434
vt 0.131955 0.950076
vt 0.132156 0.949960
vt 0.131955 0.950895
vt 0.132156 0.951011
vt 0.131246 0.951304
vt 0.131246 0.951536
vt 0.080878 0.785842
vt 0.080878 0.768018
vt 0.080059 0.768018
vt 0.080059 0.785842
vt 0.079650 0.768018
vt 0.079650 0.785842
vt 0.159299 0.809529
vt 0.159299 0.827353
vt 0.159709 0.827353
vt 0.159709 0.809529
vt 0.160528 0.827353
vt 0.160528 0.809529
vt 0.065168 0.768018
vt 0.065877 0.785842
vt 0.065877 0.768018
vt 0.065168 0.785842
vt 0.066586 0.785842
vt 0.066586 0.768018
vt 0.023004 0.755069
vt 0.021723 0.764169
vt 0.023004 0.764169
vt 0.021723 0.755069
vt 0.044727 0.755069
vt 0.043445 0.755069
vt 0.043445 0.764169
vt 0.044727 0.764169
vt 0.123095 0.785013
vt 0.124376 0.785013
vt 0.124376 0.773223
vt 0.123095 0.773223
vt 0.108613 0.785013
vt 0.109895 0.785013
vt 0.109895 0.773223
vt 0.108613 0.773223
vt 0.173781 0.977037
vt 0.174610 0.977866
vt 0.183710 0.977866
vt 0.184539 0.977037
vt 0.184539 0.965247
vt 0.173781 0.965247
vt 0.183710 0.964418
vt 0.174610 0.964418
vt 0.108613 0.772394
vt 0.109895 0.772394
vt 0.123095 0.772394
vt 0.124376 0.772394
vt 0.109895 0.785842
vt 0.108613 0.785842
vt 0.123095 0.785842
vt 0.124376 0.785842
vt 0.037486 0.755069
vt 0.036204 0.755069
vt 0.036204 0.764169
vt 0.037486 0.764169
vt 0.030245 0.755069
vt 0.028963 0.764169
vt 0.030245 0.764169
vt 0.028963 0.755069
vt 0.115854 0.785013
vt 0.117135 0.785013
vt 0.117135 0.773223
vt 0.115854 0.773223
vt 0.130336 0.785013
vt 0.131617 0.785013
vt 0.131617 0.773223
vt 0.130336 0.773223
vt 0.188263 0.969404
vt 0.189091 0.970233
vt 0.198191 0.970233
vt 0.199020 0.969404
vt 0.199020 0.957614
vt 0.188263 0.957614
vt 0.198191 0.956785
vt 0.189091 0.956785
vt 0.014482 0.993462
vt 0.024411 0.994291
vt 0.025240 0.993462
vt 0.015311 0.994291
vt 0.025240 0.981672
vt 0.014482 0.981672
vt 0.024411 0.980843
vt 0.015311 0.980843
vt 0.130336 0.772394
vt 0.131617 0.772394
vt 0.115854 0.772394
vt 0.117135 0.772394
vt 0.131617 0.785842
vt 0.130336 0.785842
vt 0.115854 0.785842
vt 0.117135 0.785842
s 1
usemtl M_Incubator_door_NakedSingularity_glass_0_1
f 1/1/1 2/2/1 3/3/1
f 1/1/1 3/3/1 4/4/1
f 5/5/2 6/6/2 7/7/2
f 5/5/2 7/7/2 8/8/2
f 9/9/3 10/10/3 11/11/3
f 9/9/3 11/11/3 12/12/3
f 13/13/4 14/14/4 15/15/4
f 13/13/4 15/15/4 16/16/4
f 17/17/5 18/18/5 19/19/5
f 17/17/5 19/19/5 20/20/5
f 21/21/6 22/22/6 23/23/6
f 21/21/6 23/23/6 24/24/6
usemtl M_Incubator_door_NakedSingularity_glass_0_2
f 25/25/3 26/26/3 27/27/3
f 25/25/3 27/27/3 28/28/3
f 25/25/3 28/28/3 30/29/3
f 25/25/3 30/29/3 29/30/3
f 29/30/3 30/29/3 31/31/3
f 29/30/3 31/31/3 32/32/3
f 33/33/7 34/34/8 35/35/1
f 34/34/8 36/36/9 35/35/1
f 36/36/9 37/37/10 35/35/1
f 37/37/10 38/38/11 35/35/1
f 38/38/11 39/39/12 35/35/1
f 39/39/12 40/40/13 35/35/1
f 40/40/13 41/41/14 35/35/1
f 41/41/14 42/42/15 35/35/1
f 42/42/15 43/43/16 35/35/1
f 43/43/16 44/44/17 35/35/1
f 44/44/17 45/45/18 35/35/1
f 45/45/18 33/33/7 35/35/1
f 33/33/7 46/46/19 47/47/20
f 33/33/7 47/47/20 34/34/8
f 37/37/10 48/48/21 49/49/22
f 37/37/10 49/49/22 38/38/11
f 40/40/13 50/50/23 51/51/24
f 40/40/13 51/51/24 41/41/14
f 43/43/16 52/52/25 53/53/26
f 43/43/16 53/53/26 44/44/17
f 54/54/27 55/55/19 56/56/20
f 54/54/27 56/56/20 57/57/28
f 54/54/27 57/57/28 58/58/1
f 59/59/18 54/54/27 58/58/1
f 60/60/29 59/59/18 58/58/1
f 61/61/30 62/62/26 60/60/29
f 61/61/30 60/60/29 58/58/1
f 61/61/30 63/63/25 62/62/26
f 64/64/15 61/61/30 58/58/1
f 65/65/31 64/64/15 58/58/1
f 66/66/32 67/67/24 65/65/31
f 66/66/32 65/65/31 58/58/1
f 66/66/32 68/68/23 67/67/24
f 69/69/12 66/66/32 58/58/1
f 70/70/33 69/69/12 58/58/1
f 71/71/34 72/72/22 70/70/33
f 71/71/34 70/70/33 58/58/1
f 71/71/34 73/73/35 72/72/22
f 74/74/9 71/71/34 58/58/1
f 57/57/28 74/74/9 58/58/1
f 78/75/2 76/76/2 75/77/2
f 75/77/2 76/76/2 77/78/2
f 79/79/2 76/76/2 78/75/2
f 80/80/2 76/76/2 79/79/2
f 81/81/2 76/76/2 80/80/2
f 77/78/2 76/76/2 81/81/2
f 85/82/4 83/83/4 82/84/4
f 82/84/4 83/83/4 84/85/4
f 86/86/4 83/83/4 85/82/4
f 87/87/4 83/83/4 86/86/4
f 88/88/4 83/83/4 87/87/4
f 84/85/4 83/83/4 88/88/4
f 92/89/2 90/90/2 89/91/2
f 89/91/2 90/90/2 91/92/2
f 93/93/2 90/90/2 92/89/2
f 94/94/2 90/90/2 93/93/2
f 95/95/2 90/90/2 94/94/2
f 91/92/2 90/90/2 95/95/2
f 99/96/4 97/97/4 96/98/4
f 96/98/4 97/97/4 98/99/4
f 100/100/4 97/97/4 99/96/4
f 101/101/4 97/97/4 100/100/4
f 102/102/4 97/97/4 101/101/4
f 98/99/4 97/97/4 102/102/4
f 103/103/36 104/104/37 108/105/38
f 107/106/39 103/103/36 105/107/40
f 103/103/36 108/105/38 105/107/40
f 107/106/39 106/108/41 103/103/36
f 106/108/41 109/109/42 103/103/36
f 106/108/41 110/110/43 109/109/42
f 111/111/44 105/107/40 108/105/38
f 111/111/44 112/112/45 105/107/40
f 113/113/46 112/112/45 115/114/47
f 113/113/46 114/115/48 112/112/45
f 114/115/48 105/107/40 112/112/45
f 114/115/48 107/106/39 105/107/40
f 116/116/49 117/117/50 118/118/51
f 116/116/49 119/119/52 117/117/50
f 120/120/53 117/117/50 119/119/52
f 120/120/53 121/121/54 117/117/50
f 121/121/54 122/122/55 117/117/50
f 121/121/54 123/123/56 122/122/55
f 118/118/51 122/122/55 124/124/57
f 118/118/51 117/117/50 122/122/55
f 125/125/58 126/126/59 128/127/60
f 125/125/58 127/128/61 126/126/59
f 128/127/60 129/129/62 130/130/63
f 128/127/60 126/126/59 129/129/62
f 131/131/64 129/129/62 126/126/59
f 131/131/64 132/132/65 129/129/62
f 132/132/65 133/133/66 129/129/62
f 132/132/65 134/134/67 133/133/66
f 135/135/68 131/131/64 126/126/59
f 135/135/68 126/126/59 127/128/61
f 136/136/69 135/135/68 127/128/61
f 136/136/69 127/128/61 137/137/70
f 138/138/71 139/139/72 141/140/73
f 138/138/71 140/141/74 139/139/72
f 141/140/73 142/142/75 143/143/76
f 141/140/73 139/139/72 142/142/75
f 144/144/77 142/142/75 139/139/72
f 144/144/77 145/145/78 142/142/75
f 146/146/79 144/144/77 139/139/72
f 146/146/79 139/139/72 140/141/74
f 147/147/80 148/148/81 150/149/82
f 147/147/80 149/150/81 148/148/81
f 149/150/81 151/151/5 152/152/5
f 149/150/81 152/152/5 148/148/81
f 151/151/5 153/153/83 152/152/5
f 151/151/5 154/154/83 153/153/83
f 154/154/83 155/155/84 153/153/83
f 154/154/83 156/156/85 155/155/84
f 157/157/2 158/158/86 160/159/2
f 157/157/2 159/160/86 158/158/86
f 161/161/87 157/157/2 160/159/2
f 161/161/87 160/159/2 162/162/88
f 163/163/89 164/164/90 165/165/89
f 163/163/89 167/166/91 164/164/90
f 166/167/6 163/163/89 165/165/89
f 166/167/6 165/165/89 169/168/6
f 168/169/92 166/167/6 169/168/6
f 168/169/92 169/168/6 170/170/93
f 172/171/94 170/170/93 171/172/95
f 172/171/94 168/169/92 170/170/93
f 173/173/4 174/174/96 175/175/96
f 173/173/4 175/175/96 176/176/4
f 177/177/97 173/173/4 176/176/4
f 177/177/97 176/176/4 178/178/98
f 179/179/3 180/180/3 181/181/3
f 179/179/3 181/181/3 182/182/3
f 183/183/3 179/179/3 182/182/3
f 184/184/3 183/183/3 185/185/3
f 183/183/3 182/182/3 185/185/3
f 184/184/3 185/185/3 186/186/3
f 187/187/3 186/186/3 188/188/3
f 187/187/3 184/184/3 186/186/3
f 189/189/3 187/187/3 188/188/3
f 189/189/3 188/188/3 190/190/3
f 191/191/3 190/190/3 192/192/3
f 191/191/3 189/189/3 190/190/3
f 193/193/3 192/192/3 194/194/3
f 193/193/3 191/191/3 192/192/3
f 196/195/3 194/194/3 195/196/3
f 196/195/3 193/193/3 194/194/3
f 197/197/3 196/195/3 195/196/3
f 197/197/3 195/196/3 198/198/3
f 199/199/3 197/197/3 198/198/3
f 200/200/3 199/199/3 201/201/3
f 199/199/3 198/198/3 201/201/3
f 200/200/3 201/201/3 202/202/3
f 180/180/3 200/200/3 202/202/3
f 180/180/3 202/202/3 181/181/3
f 203/203/36 204/204/37 205/205/38
f 203/203/36 205/205/38 206/206/99
f 209/207/39 203/203/36 206/206/99
f 209/207/39 207/208/41 203/203/36
f 207/208/41 208/209/42 203/203/36
f 210/210/48 209/207/39 206/206/99
f 210/210/48 206/206/99 211/211/45
f 212/212/46 210/210/48 211/211/45
f 212/212/46 211/211/45 213/213/100
f 214/214/44 211/211/45 206/206/99
f 214/214/44 206/206/99 205/205/38
f 207/208/41 215/215/101 208/209/42
f 216/216/102 217/217/52 218/218/50
f 216/216/102 218/218/50 219/219/103
f 219/219/103 220/220/55 221/221/57
f 219/219/103 218/218/50 220/220/55
f 222/222/104 220/220/55 218/218/50
f 222/222/104 223/223/105 220/220/55
f 224/224/53 222/222/104 218/218/50
f 224/224/53 218/218/50 217/217/52
f 225/225/58 226/226/61 227/227/106
f 225/225/58 227/227/106 228/228/60
f 228/228/60 229/229/62 230/230/107
f 228/228/60 227/227/106 229/229/62
f 231/231/64 229/229/62 227/227/106
f 231/231/64 232/232/65 229/229/62
f 232/232/65 233/233/66 229/229/62
f 232/232/65 234/234/67 233/233/66
f 235/235/108 231/231/64 227/227/106
f 235/235/108 227/227/106 226/226/61
f 236/236/109 235/235/108 226/226/61
f 236/236/109 226/226/61 237/237/70
f 238/238/71 239/239/74 241/240/110
f 238/238/71 241/240/110 240/241/111
f 242/242/79 241/240/110 239/239/74
f 240/241/111 241/240/110 244/243/75
f 242/242/79 243/244/112 241/240/110
f 243/244/112 244/243/75 241/240/110
f 240/241/111 244/243/75 245/245/76
f 243/244/112 246/246/78 244/243/75
f 247/247/113 248/248/81 250/249/82
f 247/247/113 249/250/81 248/248/81
f 249/250/81 251/251/5 252/252/5
f 249/250/81 252/252/5 248/248/81
f 251/251/5 253/253/83 252/252/5
f 251/251/5 254/254/83 253/253/83
f 254/254/83 255/255/97 253/253/83
f 254/254/83 256/256/85 255/255/97
f 257/257/2 258/258/114 261/259/2
f 257/257/2 260/260/86 258/258/114
f 259/261/88 257/257/2 261/259/2
f 259/261/88 261/259/2 262/262/88
f 263/263/89 264/264/91 267/265/115
f 266/266/6 263/263/89 265/267/89
f 263/263/89 267/265/115 265/267/89
f 266/266/6 265/267/89 269/268/6
f 268/269/93 266/266/6 269/268/6
f 268/269/93 269/268/6 270/270/93
f 271/271/94 268/269/93 270/270/93
f 271/271/94 270/270/93 272/272/94
f 273/273/4 274/274/96 275/275/96
f 273/273/4 275/275/96 276/276/4
f 277/277/97 273/273/4 276/276/4
f 277/277/97 276/276/4 278/278/98
f 279/279/3 280/280/3 281/281/3
f 279/279/3 281/281/3 282/282/3
f 283/283/3 279/279/3 282/282/3
f 283/283/3 282/282/3 284/284/3
f 285/285/3 283/283/3 284/284/3
f 286/286/3 285/285/3 287/287/3
f 285/285/3 284/284/3 287/287/3
f 286/286/3 287/287/3 288/288/3
f 289/289/3 288/288/3 290/290/3
f 289/289/3 286/286/3 288/288/3
f 291/291/3 290/290/3 292/292/3
f 291/291/3 289/289/3 290/290/3
f 293/293/3 291/291/3 292/292/3
f 293/293/3 292/292/3 294/294/3
f 295/295/3 294/294/3 296/296/3
f 295/295/3 293/293/3 294/294/3
f 297/297/3 295/295/3 296/296/3
f 297/297/3 296/296/3 298/298/3
f 300/299/3 298/298/3 299/300/3
f 300/299/3 297/297/3 298/298/3
f 301/301/3 300/299/3 299/300/3
f 280/280/3 301/301/3 302/302/3
f 301/301/3 299/300/3 302/302/3
f 280/280/3 302/302/3 281/281/3
f 303/303/116 304/304/117 306/305/118
f 303/303/116 305/306/119 304/304/117
f 305/306/119 303/303/116 307/307/120
f 306/305/118 308/308/121 303/303/116
f 307/307/120 303/303/116 308/308/121
f 306/305/118 311/309/122 308/308/121
f 310/310/123 308/308/121 309/311/124
f 309/311/124 308/308/121 311/309/122
f 307/307/120 308/308/121 310/310/123
f 306/305/118 312/312/125 311/309/122
f 313/313/126 311/309/122 312/312/125
f 309/311/124 311/309/122 313/313/126
f 313/313/126 312/312/125 314/314/127
f 306/305/118 315/315/128 312/312/125
f 315/315/128 304/304/117 316/316/129
f 315/315/128 306/305/118 304/304/117
f 310/310/123 309/311/124 317/317/130
f 305/306/119 307/307/120 318/318/131
f 324/319/132 319/320/133 320/321/131
f 319/320/133 323/322/134 321/323/135
f 324/319/132 322/324/136 319/320/133
f 319/320/133 322/324/136 323/322/134
f 322/324/136 324/319/132 325/325/137
f 322/324/136 325/325/137 328/326/138
f 326/327/139 325/325/137 327/328/140
f 326/327/139 328/326/138 325/325/137
f 323/322/134 322/324/136 328/326/138
f 323/322/134 328/326/138 330/329/141
f 328/326/138 326/327/139 329/330/142
f 328/326/138 329/330/142 330/329/141
f 331/331/143 330/329/141 329/330/142
f 330/329/141 331/331/143 332/332/144
f 330/329/141 332/332/144 323/322/134
f 321/323/135 332/332/144 333/333/145
f 321/323/135 323/322/134 332/332/144
f 331/331/143 329/330/142 334/334/146
f 335/335/147 336/336/123 339/337/148
f 335/335/147 338/338/149 336/336/123
f 335/335/147 341/339/150 337/340/151
f 340/341/132 335/335/147 337/340/151
f 338/338/149 335/335/147 340/341/132
f 335/335/147 339/337/148 341/339/150
f 343/342/152 337/340/151 341/339/150
f 344/343/153 341/339/150 342/344/154
f 339/337/148 342/344/154 341/339/150
f 343/342/152 341/339/150 344/343/153
f 344/343/153 342/344/154 345/345/155
f 346/346/137 343/342/152 347/347/140
f 346/346/137 337/340/151 343/342/152
f 340/341/132 337/340/151 346/346/137
f 339/337/148 348/348/156 342/344/154
f 348/348/156 339/337/148 336/336/123
f 348/348/156 336/336/123 349/349/130
f 338/338/149 340/341/132 350/350/131
f 351/351/157 352/352/158 357/353/159
f 351/351/157 355/354/160 352/352/158
f 353/355/161 351/351/157 356/356/156
f 351/351/157 353/355/161 354/357/162
f 351/351/157 354/357/162 355/354/160
f 356/356/156 351/351/157 357/353/159
f 356/356/156 357/353/159 359/358/154
f 358/359/163 357/353/159 352/352/158
f 359/358/154 357/353/159 358/359/163
f 359/358/154 358/359/163 360/360/164
f 358/359/163 352/352/158 361/361/165
f 361/361/165 352/352/158 362/362/166
f 361/361/165 362/362/166 363/363/167
f 362/362/166 352/352/158 355/354/160
f 362/362/166 355/354/160 364/364/168
f 364/364/168 354/357/162 365/365/169
f 364/364/168 355/354/160 354/357/162
f 353/355/161 356/356/156 366/366/130
f 371/367/170 368/368/171 367/369/172
f 367/369/172 368/368/171 369/370/173
f 367/369/172 369/370/173 370/371/174
f 371/367/170 367/369/172 372/372/175
f 368/368/171 371/367/170 373/373/176
f 375/374/177 374/375/178 373/373/176
f 368/368/171 373/373/176 374/375/178
f 375/374/177 373/373/176 376/376/155
f 374/375/178 375/374/177 377/377/179
f 374/375/178 377/377/179 378/378/180
f 379/379/181 378/378/180 377/377/179
f 379/379/181 377/377/179 380/380/182
f 381/381/183 378/378/180 379/379/181
f 370/371/174 381/381/183 382/382/184
f 370/371/174 369/370/173 381/381/183
f 381/381/183 369/370/173 378/378/180
f 368/368/171 378/378/180 369/370/173
f 368/368/171 374/375/178 378/378/180
f 386/383/185 384/384/186 383/385/143
f 383/385/143 384/384/186 387/386/187
f 386/383/185 383/385/143 385/387/146
f 383/385/143 387/386/187 388/388/144
f 388/388/144 387/386/187 389/389/188
f 388/388/144 389/389/188 390/390/129
f 389/389/188 387/386/187 392/391/189
f 389/389/188 392/391/189 391/392/190
f 384/384/186 392/391/189 387/386/187
f 384/384/186 393/393/191 392/391/189
f 393/393/191 394/394/168 392/391/189
f 391/392/190 392/391/189 394/394/168
f 393/393/191 396/395/166 394/394/168
f 391/392/190 394/394/168 395/396/127
f 396/395/166 393/393/191 397/397/192
f 396/395/166 397/397/192 398/398/167
f 384/384/186 397/397/192 393/393/191
f 384/384/186 386/383/185 397/397/192
f 399/399/193 400/400/193 401/401/194
f 399/399/193 401/401/194 402/402/194
f 403/403/194 405/404/6 404/405/6
f 403/403/194 406/406/194 405/404/6
f 404/405/6 405/404/6 407/407/195
f 404/405/6 407/407/195 408/408/195
f 409/409/195 412/410/196 410/411/196
f 409/409/195 411/412/195 412/410/196
f 413/413/196 414/414/196 415/415/5
f 413/413/196 415/415/5 416/416/5
f 416/416/5 418/417/193 417/418/193
f 416/416/5 415/415/5 418/417/193
f 419/419/4 420/420/4 421/421/4
f 419/419/4 422/422/4 420/420/4
f 423/421/4 424/420/4 425/423/4
f 423/421/4 425/423/4 426/424/4
f 427/424/4 428/425/4 429/426/4
f 427/424/4 430/423/4 428/425/4
f 431/426/4 432/425/4 433/427/4
f 431/426/4 433/427/4 434/428/4
f 435/428/4 436/429/4 437/430/4
f 435/428/4 438/427/4 436/429/4
f 439/430/4 440/422/4 441/419/4
f 439/430/4 442/429/4 440/422/4
f 443/431/193 444/432/194 445/433/194
f 443/431/193 446/434/193 444/432/194
f 445/433/194 448/435/6 447/436/6
f 445/433/194 444/432/194 448/435/6
f 449/437/6 450/438/6 451/439/195
f 449/437/6 451/439/195 452/440/195
f 452/440/195 451/439/195 453/441/196
f 452/440/195 453/441/196 454/442/196
f 455/443/196 456/444/196 458/445/5
f 455/443/196 458/445/5 457/446/5
f 457/446/5 458/445/5 459/447/193
f 457/446/5 459/447/193 460/448/193
f 461/449/193 462/450/194 464/451/194
f 461/449/193 463/452/193 462/450/194
f 465/453/194 466/454/6 467/455/6
f 465/453/194 468/456/194 466/454/6
f 467/455/6 466/454/6 469/457/195
f 467/455/6 469/457/195 470/458/195
f 471/459/195 472/460/196 474/461/196
f 471/459/195 473/462/195 472/460/196
f 475/463/196 476/464/196 477/465/5
f 475/463/196 477/465/5 478/466/5
f 478/466/5 480/467/193 479/468/193
f 478/466/5 477/465/5 480/467/193
f 481/469/197 482/470/197 483/471/4
f 481/469/197 483/471/4 484/472/4
f 485/472/4 488/473/4 486/474/4
f 485/472/4 487/471/4 488/473/4
f 489/474/4 490/473/4 492/475/4
f 489/474/4 492/475/4 491/476/4
f 493/476/198 496/477/4 494/478/4
f 493/476/198 495/475/198 496/477/4
f 497/478/4 498/477/4 499/479/4
f 497/478/4 499/479/4 500/480/4
f 501/480/4 502/479/4 503/470/4
f 501/480/4 503/470/4 504/469/4
f 505/481/193 506/482/193 507/483/194
f 505/481/193 507/483/194 508/484/194
f 508/484/194 507/483/194 509/485/6
f 508/484/194 509/485/6 510/486/6
f 511/487/6 512/488/199 513/489/195
f 511/487/6 513/489/195 514/490/195
f 514/490/195 513/489/195 515/491/196
f 514/490/195 515/491/196 516/492/196
f 517/493/196 518/494/5 519/495/5
f 517/493/196 520/496/196 518/494/5
f 519/495/5 521/497/193 522/498/193
f 519/495/5 518/494/5 521/497/193
f 523/499/2 525/500/2 524/501/2
f 523/499/2 526/502/2 525/500/2
f 527/503/4 528/504/4 530/505/4
f 527/503/4 530/505/4 529/506/4
f 531/507/5 532/508/5 533/509/5
f 531/507/5 533/509/5 534/510/5
f 535/511/6 536/512/6 537/513/6
f 535/511/6 537/513/6 538/514/6
f 539/515/1 540/516/1 541/517/1
f 539/515/1 541/517/1 542/518/1
f 539/515/1 542/518/1 544/519/1
f 539/515/1 544/519/1 543/520/1
f 543/520/1 544/519/1 545/521/1
f 543/520/1 545/521/1 546/522/1
f 547/513/200 548/523/200 549/514/200
f 547/513/200 550/524/200 548/523/200
f 551/525/201 552/509/201 554/526/201
f 551/525/201 553/510/201 552/509/201
f 555/527/202 556/511/202 558/528/202
f 555/527/202 557/512/202 556/511/202
f 559/507/203 560/529/203 561/530/203
f 559/507/203 561/530/203 562/508/203
f 563/531/2 564/532/2 565/533/2
f 563/531/2 565/533/2 566/534/2
f 567/535/4 568/536/4 570/537/4
f 567/535/4 569/538/4 568/536/4
f 571/539/5 572/540/5 573/541/5
f 571/539/5 573/541/5 574/542/5
f 575/543/6 576/544/6 577/545/6
f 575/543/6 577/545/6 578/546/6
f 579/547/3 580/548/3 581/549/3
f 579/547/3 581/549/3 582/550/3
f 579/547/3 582/550/3 584/551/3
f 579/547/3 584/551/3 583/552/3
f 583/552/3 584/551/3 585/553/3
f 583/552/3 585/553/3 586/554/3
f 587/555/1 588/556/1 592/557/1
f 587/555/1 589/558/1 588/556/1
f 587/555/1 591/559/1 590/560/1
f 587/555/1 592/557/1 591/559/1
f 590/560/1 591/559/1 593/561/1
f 590/560/1 593/561/1 594/562/1
f 595/545/200 596/563/200 598/546/200
f 595/545/200 597/564/200 596/563/200
f 599/565/201 600/541/201 602/566/201
f 599/565/201 601/542/201 600/541/201
f 603/567/202 604/544/202 605/543/202
f 603/567/202 605/543/202 606/568/202
f 607/539/203 608/569/203 610/570/203
f 607/539/203 610/570/203 609/540/203
