# Blender 4.4.1
# www.blender.org
mtllib SM_polySurface653_lambert1_0_0.mtl
o SM_polySurface653_lambert1_0_0
v 17.841068 15.612963 -0.252261
v 17.841068 13.182220 -0.252261
v 17.841068 13.182220 4.930406
v 17.841068 15.612963 4.930406
v 17.841068 11.287227 -0.252261
v 17.841068 11.287227 4.930406
v 17.841068 9.392231 -0.252261
v 17.841068 9.392231 4.930406
v 17.841068 7.497234 -0.252261
v 17.841068 7.497234 4.930406
v 17.841068 5.602239 -0.252261
v 17.841068 5.602239 4.930406
v 17.841068 3.707242 -0.252261
v 17.841068 3.707242 4.930406
v 17.841068 1.812246 -0.252261
v 17.841068 1.812246 4.930406
v 17.841068 -0.082748 -0.252261
v 17.841068 -0.082748 4.930406
v 17.841068 14.504162 8.675097
v 17.841068 15.612963 9.215875
v 17.841068 11.287227 8.675097
v 17.841068 9.392231 8.675097
v 17.841068 7.497234 8.675097
v 17.841068 5.901803 8.675097
v 17.841068 3.707242 9.215875
v 17.841068 1.812246 9.215875
v 17.841068 -0.082748 9.215875
v 17.841068 14.504162 17.983778
v 17.841068 15.612963 17.443003
v 17.841068 3.707242 17.443003
v 17.841068 5.901803 17.983778
v 17.841068 1.812246 17.443003
v 17.841068 -0.082748 17.443003
v 17.841068 13.182220 19.721617
v 17.841068 15.612963 19.721617
v 17.841068 11.287227 17.983778
v 17.841068 11.287227 19.721617
v 17.841068 9.392231 17.983778
v 17.841068 9.392231 19.721617
v 17.841068 7.497234 17.983778
v 17.841068 7.497234 19.721617
v 17.841068 5.602239 19.721617
v 17.841068 3.707242 19.721617
v 17.841068 1.812246 19.721617
v 17.841068 -0.082748 19.721617
v 17.841068 13.182220 23.592888
v 17.841068 15.612963 23.592888
v 17.841068 11.287227 23.592888
v 17.841068 9.392231 23.592888
v 17.841068 7.497234 23.592888
v 17.841068 5.602239 23.592888
v 17.841068 3.707242 23.592888
v 17.841068 1.812246 23.592888
v 17.841068 -0.082748 23.592888
v 19.270620 11.287227 9.215875
v 19.270620 14.504162 9.215875
v 17.841068 14.504162 8.675097
v 17.841068 11.287227 8.675097
v 19.270620 9.392231 9.215875
v 19.270620 11.287227 9.215875
v 17.841068 11.287227 8.675097
v 17.841068 9.392231 8.675097
v 19.270620 7.497234 9.215875
v 19.270620 9.392231 9.215875
v 17.841068 9.392231 8.675097
v 17.841068 7.497234 8.675097
v 19.270620 5.901803 9.215875
v 19.270620 7.497234 9.215875
v 17.841068 7.497234 8.675097
v 17.841068 5.901803 8.675097
v 19.270620 14.504162 9.215875
v 19.270620 14.504162 17.443003
v 17.841068 14.504162 17.983778
v 17.841068 14.504162 8.675097
v 19.270620 5.901803 17.443003
v 19.270620 5.901803 9.215875
v 17.841068 5.901803 8.675097
v 17.841068 5.901803 17.983778
v 19.270620 14.504162 17.443003
v 19.270620 11.287227 17.443003
v 17.841068 11.287227 17.983778
v 17.841068 14.504162 17.983778
v 19.270620 11.287227 17.443003
v 19.270620 9.392231 17.443003
v 17.841068 9.392231 17.983778
v 17.841068 11.287227 17.983778
v 19.270620 9.392231 17.443003
v 19.270620 7.497234 17.443003
v 17.841068 7.497234 17.983778
v 17.841068 9.392231 17.983778
v 19.270620 7.497234 17.443003
v 19.270620 5.901803 17.443003
v 17.841068 5.901803 17.983778
v 17.841068 7.497234 17.983778
v 17.841068 15.612963 -24.183340
v 17.841068 13.182220 -24.183340
v 17.841068 13.182220 -20.226135
v 17.841068 15.612963 -20.226135
v 17.841068 11.287227 -24.183340
v 17.841068 11.287227 -20.226135
v 17.841068 9.392231 -24.183340
v 17.841068 9.392231 -20.226135
v 17.841068 7.497234 -24.183340
v 17.841068 7.497234 -20.226135
v 17.841068 5.602239 -24.183340
v 17.841068 5.602239 -20.226135
v 17.841068 3.707242 -24.183340
v 17.841068 3.707242 -20.226135
v 17.841068 1.812246 -24.183340
v 17.841068 1.812246 -20.226135
v 17.841068 -0.082748 -24.183340
v 17.841068 -0.082748 -20.226135
v 17.841068 14.504162 -16.481445
v 17.841068 15.612963 -15.940667
v 17.841068 11.287227 -16.481445
v 17.841068 9.392231 -16.481445
v 17.841068 7.497234 -16.481445
v 17.841068 5.901803 -16.481445
v 17.841068 3.707242 -15.940667
v 17.841068 1.812246 -15.940667
v 17.841068 -0.082748 -15.940667
v 17.841068 14.504162 -7.172764
v 17.841068 15.612963 -7.713539
v 17.841068 3.707242 -7.713539
v 17.841068 5.901803 -7.172764
v 17.841068 1.812246 -7.713539
v 17.841068 -0.082748 -7.713539
v 17.841068 13.182220 -5.434925
v 17.841068 15.612963 -5.434925
v 17.841068 11.287227 -7.172764
v 17.841068 11.287227 -5.434925
v 17.841068 9.392231 -7.172764
v 17.841068 9.392231 -5.434925
v 17.841068 7.497234 -7.172764
v 17.841068 7.497234 -5.434925
v 17.841068 5.602239 -5.434925
v 17.841068 3.707242 -5.434925
v 17.841068 1.812246 -5.434925
v 17.841068 -0.082748 -5.434925
v 17.841068 13.182220 -0.252261
v 17.841068 15.612963 -0.252261
v 17.841068 11.287227 -0.252261
v 17.841068 9.392231 -0.252261
v 17.841068 7.497234 -0.252261
v 17.841068 5.602239 -0.252261
v 17.841068 3.707242 -0.252261
v 17.841068 1.812246 -0.252261
v 17.841068 -0.082748 -0.252261
v 19.270620 11.287227 -15.940667
v 19.270620 14.504162 -15.940667
v 17.841068 14.504162 -16.481445
v 17.841068 11.287227 -16.481445
v 19.270620 9.392231 -15.940667
v 19.270620 11.287227 -15.940667
v 17.841068 11.287227 -16.481445
v 17.841068 9.392231 -16.481445
v 19.270620 7.497234 -15.940667
v 19.270620 9.392231 -15.940667
v 17.841068 9.392231 -16.481445
v 17.841068 7.497234 -16.481445
v 19.270620 5.901803 -15.940667
v 19.270620 7.497234 -15.940667
v 17.841068 7.497234 -16.481445
v 17.841068 5.901803 -16.481445
v 19.270620 14.504162 -15.940667
v 19.270620 14.504162 -7.713539
v 17.841068 14.504162 -7.172764
v 17.841068 14.504162 -16.481445
v 19.270620 5.901803 -7.713539
v 19.270620 5.901803 -15.940667
v 17.841068 5.901803 -16.481445
v 17.841068 5.901803 -7.172764
v 19.270620 14.504162 -7.713539
v 19.270620 11.287227 -7.713539
v 17.841068 11.287227 -7.172764
v 17.841068 14.504162 -7.172764
v 19.270620 11.287227 -7.713539
v 19.270620 9.392231 -7.713539
v 17.841068 9.392231 -7.172764
v 17.841068 11.287227 -7.172764
v 19.270620 9.392231 -7.713539
v 19.270620 7.497234 -7.713539
v 17.841068 7.497234 -7.172764
v 17.841068 9.392231 -7.172764
v 19.270620 7.497234 -7.713539
v 19.270620 5.901803 -7.713539
v 17.841068 5.901803 -7.172764
v 17.841068 7.497234 -7.172764
vn -1.0000 -0.0000 -0.0000
vn -0.3538 -0.0000 0.9353
vn -0.0000 1.0000 -0.0000
vn 0.3538 -0.0000 0.9353
vn 0.3538 -0.0000 -0.9353
vn -0.3538 -0.0000 -0.9353
s 1
usemtl M_polySurface653_lambert1_0_0
f 1//1 2//1 3//1
f 1//1 3//1 4//1
f 2//1 5//1 6//1
f 2//1 6//1 3//1
f 5//1 7//1 8//1
f 5//1 8//1 6//1
f 7//1 9//1 10//1
f 7//1 10//1 8//1
f 9//1 11//1 12//1
f 9//1 12//1 10//1
f 11//1 13//1 14//1
f 11//1 14//1 12//1
f 13//1 15//1 16//1
f 13//1 16//1 14//1
f 15//1 17//1 18//1
f 15//1 18//1 16//1
f 4//1 3//1 19//1
f 4//1 19//1 20//1
f 3//1 6//1 21//1
f 3//1 21//1 19//1
f 6//1 8//1 22//1
f 6//1 22//1 21//1
f 8//1 10//1 23//1
f 8//1 23//1 22//1
f 10//1 12//1 24//1
f 10//1 24//1 23//1
f 12//1 14//1 25//1
f 12//1 25//1 24//1
f 14//1 16//1 26//1
f 14//1 26//1 25//1
f 16//1 18//1 27//1
f 16//1 27//1 26//1
f 20//1 19//1 28//1
f 20//1 28//1 29//1
f 24//1 25//1 30//1
f 24//1 30//1 31//1
f 25//1 26//1 32//1
f 25//1 32//1 30//1
f 26//1 27//1 33//1
f 26//1 33//1 32//1
f 29//1 28//1 34//1
f 29//1 34//1 35//1
f 28//1 36//1 37//1
f 28//1 37//1 34//1
f 36//1 38//1 39//1
f 36//1 39//1 37//1
f 38//1 40//1 41//1
f 38//1 41//1 39//1
f 40//1 31//1 42//1
f 40//1 42//1 41//1
f 31//1 30//1 43//1
f 31//1 43//1 42//1
f 30//1 32//1 44//1
f 30//1 44//1 43//1
f 32//1 33//1 45//1
f 32//1 45//1 44//1
f 35//1 34//1 46//1
f 35//1 46//1 47//1
f 34//1 37//1 48//1
f 34//1 48//1 46//1
f 37//1 39//1 49//1
f 37//1 49//1 48//1
f 39//1 41//1 50//1
f 39//1 50//1 49//1
f 41//1 42//1 51//1
f 41//1 51//1 50//1
f 42//1 43//1 52//1
f 42//1 52//1 51//1
f 43//1 44//1 53//1
f 43//1 53//1 52//1
f 44//1 45//1 54//1
f 44//1 54//1 53//1
f 55//2 56//2 57//2
f 55//2 57//2 58//2
f 59//2 60//2 61//2
f 59//2 61//2 62//2
f 63//2 64//2 65//2
f 63//2 65//2 66//2
f 67//2 68//2 69//2
f 67//2 69//2 70//2
f 71//3 73//3 72//3
f 71//3 74//3 73//3
f 75//3 76//3 77//3
f 75//3 77//3 78//3
f 79//4 81//4 80//4
f 79//4 82//4 81//4
f 83//4 85//4 84//4
f 83//4 86//4 85//4
f 87//4 89//4 88//4
f 87//4 90//4 89//4
f 91//4 93//4 92//4
f 91//4 94//4 93//4
f 95//1 96//1 97//1
f 95//1 97//1 98//1
f 96//1 99//1 100//1
f 96//1 100//1 97//1
f 99//1 101//1 102//1
f 99//1 102//1 100//1
f 101//1 103//1 104//1
f 101//1 104//1 102//1
f 103//1 105//1 106//1
f 103//1 106//1 104//1
f 105//1 107//1 108//1
f 105//1 108//1 106//1
f 107//1 109//1 110//1
f 107//1 110//1 108//1
f 109//1 111//1 112//1
f 109//1 112//1 110//1
f 98//1 97//1 113//1
f 98//1 113//1 114//1
f 97//1 100//1 115//1
f 97//1 115//1 113//1
f 100//1 102//1 116//1
f 100//1 116//1 115//1
f 102//1 104//1 117//1
f 102//1 117//1 116//1
f 104//1 106//1 118//1
f 104//1 118//1 117//1
f 106//1 108//1 119//1
f 106//1 119//1 118//1
f 108//1 110//1 120//1
f 108//1 120//1 119//1
f 110//1 112//1 121//1
f 110//1 121//1 120//1
f 114//1 113//1 122//1
f 114//1 122//1 123//1
f 118//1 119//1 124//1
f 118//1 124//1 125//1
f 119//1 120//1 126//1
f 119//1 126//1 124//1
f 120//1 121//1 127//1
f 120//1 127//1 126//1
f 123//1 122//1 128//1
f 123//1 128//1 129//1
f 122//1 130//1 131//1
f 122//1 131//1 128//1
f 130//1 132//1 133//1
f 130//1 133//1 131//1
f 132//1 134//1 135//1
f 132//1 135//1 133//1
f 134//1 125//1 136//1
f 134//1 136//1 135//1
f 125//1 124//1 137//1
f 125//1 137//1 136//1
f 124//1 126//1 138//1
f 124//1 138//1 137//1
f 126//1 127//1 139//1
f 126//1 139//1 138//1
f 129//1 128//1 140//1
f 129//1 140//1 141//1
f 128//1 131//1 142//1
f 128//1 142//1 140//1
f 131//1 133//1 143//1
f 131//1 143//1 142//1
f 133//1 135//1 144//1
f 133//1 144//1 143//1
f 135//1 136//1 145//1
f 135//1 145//1 144//1
f 136//1 137//1 146//1
f 136//1 146//1 145//1
f 137//1 138//1 147//1
f 137//1 147//1 146//1
f 138//1 139//1 148//1
f 138//1 148//1 147//1
f 149//5 151//5 150//5
f 149//5 152//5 151//5
f 153//5 155//5 154//5
f 153//5 156//5 155//5
f 157//5 159//5 158//5
f 157//5 160//5 159//5
f 161//5 163//5 162//5
f 161//5 164//5 163//5
f 165//3 167//3 166//3
f 165//3 168//3 167//3
f 169//3 170//3 171//3
f 169//3 171//3 172//3
f 173//6 174//6 175//6
f 173//6 175//6 176//6
f 177//6 178//6 179//6
f 177//6 179//6 180//6
f 181//6 182//6 183//6
f 181//6 183//6 184//6
f 185//6 186//6 187//6
f 185//6 187//6 188//6
