# Blender 4.4.1
# www.blender.org
mtllib SM_polySurface780_lambert1_0_001_0.mtl
o SM_polySurface780_lambert1_0_001_0
v 17.215096 4.374332 16.283880
v 17.215096 1.116436 16.283880
v 17.734642 1.116436 16.283880
v 17.734642 4.374332 16.283880
v 17.215096 4.374333 10.658633
v 17.215096 4.374332 16.283880
v 17.734642 4.374332 16.283880
v 17.734642 4.374333 10.658633
v 17.734642 1.116436 10.658633
v 17.734642 1.116436 16.283880
v 17.215096 1.116436 16.283880
v 17.215096 1.116436 10.658633
v 17.215096 1.116436 10.658633
v 17.215096 4.374333 10.658633
v 17.734642 4.374333 10.658633
v 17.734642 1.116436 10.658633
v 17.215096 4.345290 16.254837
v 17.734642 4.345290 16.254837
v 17.734642 1.145478 16.254837
v 17.215096 1.145478 16.254837
v 17.215096 4.345290 10.687676
v 17.734642 4.345290 10.687676
v 17.734642 4.345290 16.254837
v 17.215096 4.345290 16.254837
v 17.734642 1.145478 10.687676
v 17.215096 1.145478 10.687676
v 17.215096 1.145478 16.254837
v 17.734642 1.145478 16.254837
v 17.215096 1.145478 10.687676
v 17.734642 1.145478 10.687676
v 17.734642 4.345290 10.687676
v 17.215096 4.345290 10.687676
v 17.215096 4.345290 16.254837
v 17.215096 1.145478 16.254837
v 17.215096 1.116436 16.283880
v 17.215096 4.374332 16.283880
v 17.734642 1.145478 16.254837
v 17.734642 4.345290 16.254837
v 17.734642 4.374332 16.283880
v 17.734642 1.116436 16.283880
v 17.215096 4.345290 10.687676
v 17.215096 4.374333 10.658633
v 17.734642 4.345290 10.687676
v 17.734642 4.374333 10.658633
v 17.734642 1.145478 10.687676
v 17.734642 1.145478 16.254837
v 17.734642 1.116436 16.283880
v 17.734642 1.116436 10.658633
v 17.215096 1.145478 16.254837
v 17.215096 1.145478 10.687676
v 17.215096 1.116436 10.658633
v 17.215096 1.116436 16.283880
vn -0.0000 -0.0000 1.0000
vn -0.0000 1.0000 -0.0000
vn 1.0000 -0.0000 -0.0000
vn 1.0000 0.0001 -0.0000
s 1
usemtl M_polySurface780_lambert1_0_001_0
f 1//1 2//1 3//1
f 1//1 3//1 4//1
f 5//2 6//2 7//2
f 5//2 7//2 8//2
f 9//2 11//2 10//2
f 9//2 12//2 11//2
f 13//1 15//1 14//1
f 13//1 16//1 15//1
f 17//1 19//1 18//1
f 17//1 20//1 19//1
f 21//2 23//2 22//2
f 21//2 24//2 23//2
f 25//2 26//2 27//2
f 25//2 27//2 28//2
f 29//1 30//1 31//1
f 29//1 31//1 32//1
f 33//3 35//3 34//3
f 33//3 36//3 35//3
f 37//3 38//3 39//3
f 37//3 39//3 40//3
f 41//3 36//3 33//3
f 41//3 42//3 36//3
f 38//3 43//3 44//3
f 38//3 44//3 39//3
f 45//3 46//4 47//4
f 45//3 47//4 48//3
f 49//3 51//3 50//3
f 49//3 52//3 51//3
f 50//3 42//3 41//3
f 50//3 51//3 42//3
f 43//3 45//3 48//3
f 43//3 48//3 44//3
