# Blender 4.4.1
# www.blender.org
mtllib SM_polySurface282_lambert1_0_0.mtl
o SM_polySurface282_lambert1_0_0
v 4.638511 8.184645 0.876063
v 4.643933 8.184645 0.876063
v 4.643933 8.184645 0.795381
v 4.638511 8.184645 0.795381
v 4.617394 8.079760 0.827247
v 4.622816 8.079760 0.827247
v 4.622816 8.079760 0.844197
v 4.617394 8.079760 0.844197
v 4.617394 8.111626 0.876063
v 4.617394 8.095693 0.871794
v 4.622816 8.095693 0.871794
v 4.622816 8.111626 0.876063
v 4.617394 8.095693 0.871794
v 4.617394 8.084029 0.860130
v 4.622816 8.084029 0.860130
v 4.622816 8.095693 0.871794
v 4.617394 8.084029 0.860130
v 4.622816 8.084029 0.860130
v 4.617394 8.084029 0.811314
v 4.622816 8.084029 0.811314
v 4.617394 8.095693 0.799650
v 4.622816 8.095693 0.799650
v 4.617394 8.095693 0.799650
v 4.617394 8.111626 0.795381
v 4.622816 8.111626 0.795381
v 4.622816 8.095693 0.799650
v 4.619792 8.156003 0.876063
v 4.615181 8.145168 0.876063
v 4.620603 8.145168 0.876063
v 4.625213 8.156003 0.876063
v 4.614603 8.133411 0.876063
v 4.620026 8.133411 0.876063
v 4.614603 8.133411 0.795381
v 4.615181 8.145168 0.795381
v 4.620603 8.145168 0.795381
v 4.620026 8.133411 0.795381
v 4.619792 8.156003 0.795381
v 4.625213 8.156003 0.795381
v 4.617394 8.111626 0.876063
v 4.638511 8.184645 0.795381
v 4.643933 8.184645 0.795381
v 4.643933 8.184645 0.795381
v 4.643933 8.184645 0.876063
v 4.625213 8.156003 0.876063
v 4.625213 8.156003 0.795381
v 4.643933 8.184645 0.876063
v 4.638511 8.184645 0.876063
v 4.617394 8.111626 0.795381
v 4.619792 8.156003 0.795381
v 4.619792 8.156003 0.876063
v 4.638511 8.184645 0.876063
v 4.638511 8.184645 0.795381
v 4.614603 8.133411 0.876063
v 4.615181 8.145168 0.876063
v 4.615181 8.145168 0.795381
v 4.614603 8.133411 0.795381
v 4.620603 8.145168 0.876063
v 4.620603 8.145168 0.795381
v 4.620026 8.133411 0.876063
v 4.620026 8.133411 0.795381
v 4.617394 8.079760 0.827247
v 4.617394 8.079760 0.844197
v 4.617394 8.084029 0.860130
v 4.617394 8.095693 0.871794
v 4.617394 8.111626 0.876063
v 4.617394 8.111626 0.795381
v 4.617394 8.095693 0.799650
v 4.617394 8.084029 0.811314
v 4.622816 8.111626 0.876063
v 4.622816 8.095693 0.871794
v 4.622816 8.084029 0.860130
v 4.622816 8.079760 0.844197
v 4.622816 8.079760 0.827247
v 4.622816 8.084029 0.811314
v 4.622816 8.095693 0.799650
v 4.622816 8.111626 0.795381
vn -0.0000 1.0000 -0.0000
vn -0.0000 0.9916 0.1290
vn -0.0000 0.9916 -0.1290
vn -0.0000 0.9916 0.1291
vn -0.0000 0.9917 -0.1290
vn -0.1534 0.2557 -0.9545
vn -0.0000 0.2588 -0.9659
vn 0.1430 0.2561 -0.9560
vn -0.0000 0.7071 -0.7071
vn 0.2587 0.6831 -0.6830
vn -0.2586 0.6831 -0.6830
vn -0.2586 0.9331 -0.2501
vn 0.2585 0.9331 -0.2501
vn -0.0000 0.8660 0.5000
vn -0.0000 0.7071 0.7071
vn -0.0000 0.2588 0.9659
vn 0.1430 0.2561 0.9560
vn -0.1533 0.2557 0.9545
vn -0.0000 -0.0000 1.0000
vn -0.0000 -0.1074 0.9942
vn -0.0000 -0.1178 0.9930
vn -0.8371 0.5471 -0.0000
vn -0.8596 0.5109 -0.0000
vn -0.8592 0.5117 -0.0000
vn 0.1168 0.0150 0.9930
vn -0.1065 -0.0136 0.9942
vn -0.8609 0.5088 -0.0000
vn -0.9993 -0.0375 -0.0000
vn -0.9746 0.2238 -0.0000
vn -0.9993 -0.0374 -0.0000
vn -0.9746 0.2237 -0.0000
vn -0.9983 -0.0588 -0.0000
vn -0.9983 -0.0589 -0.0000
vn -0.9983 0.0293 0.0509
vn -0.9983 0.0564 0.0152
vn -0.9983 0.0568 -0.0152
vn -0.9983 0.0295 -0.0510
vn -0.9983 -0.0294 0.0509
vn -0.9983 -0.0294 -0.0509
vn -0.9982 -0.0596 -0.0026
vn -0.9982 -0.0596 0.0026
s 1
usemtl M_polySurface282_lambert1_0_0
f 1//1 2//1 3//1
f 1//1 3//1 4//1
f 5//2 7//3 6//4
f 5//2 8//5 7//3
f 9//6 11//7 10//7
f 9//6 12//8 11//7
f 13//9 15//10 14//11
f 13//9 16//9 15//10
f 17//12 7//3 8//5
f 17//12 18//13 7//3
f 5//2 20//14 19//14
f 5//2 6//4 20//14
f 19//14 22//15 21//15
f 19//14 20//14 22//15
f 23//16 25//17 24//18
f 23//16 26//16 25//17
f 27//19 28//19 29//19
f 27//19 29//19 30//19
f 28//19 31//19 32//19
f 28//19 32//19 29//19
f 33//19 35//19 34//19
f 33//19 36//19 35//19
f 34//19 38//19 37//19
f 34//19 35//19 38//19
f 39//20 12//21 32//19
f 39//20 32//19 31//19
f 40//19 38//19 41//19
f 40//19 37//19 38//19
f 42//22 44//23 43//22
f 42//22 45//24 44//23
f 27//19 30//19 46//19
f 27//19 46//19 47//19
f 33//19 25//25 36//19
f 33//19 48//26 25//25
f 49//27 50//27 51//22
f 49//27 51//22 52//22
f 53//28 54//29 55//29
f 53//28 55//29 56//30
f 54//29 50//27 49//27
f 54//29 49//27 55//29
f 44//23 58//29 57//31
f 44//23 45//24 58//29
f 57//31 60//28 59//30
f 57//31 58//29 60//28
f 63//32 61//32 62//32
f 61//32 63//32 68//32
f 68//32 63//32 64//32
f 68//32 64//32 67//32
f 67//32 64//32 65//32
f 67//32 65//32 66//33
f 66//33 65//32 53//28
f 66//33 53//28 56//30
f 74//34 73//35 72//36
f 72//36 71//37 74//34
f 71//37 75//38 74//34
f 71//37 70//39 75//38
f 70//39 76//40 75//38
f 70//39 69//41 76//40
f 69//41 60//28 76//40
f 69//41 59//30 60//28
