# Blender 4.4.1
# www.blender.org
mtllib SM_polySurface179_lambert1_0_0.mtl
o SM_polySurface179_lambert1_0_0
v 3.015867 10.652015 -4.752644
v 4.618848 10.652015 -4.752644
v 4.618848 10.652015 2.483424
v 3.015867 10.652015 2.483424
v 3.015867 10.652015 2.483424
v 4.618848 10.652015 2.483424
v 4.618848 10.792692 2.483424
v 3.015867 10.792692 2.483424
v 3.015867 10.792692 -4.752644
v 4.618848 10.792692 -4.752644
v 4.618848 10.652015 -4.752644
v 3.015867 10.652015 -4.752644
v 4.618848 10.652015 -4.752644
v 4.618848 10.792692 -4.752644
v 4.618848 10.792692 2.483424
v 4.618848 10.652015 2.483424
v 3.015867 10.792692 -4.752644
v 3.015867 10.652015 -4.752644
v 3.015867 10.652015 2.483424
v 3.015867 10.792692 2.483424
vn -0.0000 1.0000 -0.0000
vn -0.0000 -0.0000 1.0000
vn -0.0000 -0.0000 -1.0000
vn 1.0000 -0.0000 -0.0000
s 1
usemtl M_polySurface179_lambert1_0_0
f 1//1 3//1 2//1
f 1//1 4//1 3//1
f 5//2 6//2 7//2
f 5//2 7//2 8//2
f 9//3 10//3 11//3
f 9//3 11//3 12//3
f 13//4 14//4 15//4
f 13//4 15//4 16//4
f 17//4 19//4 18//4
f 17//4 20//4 19//4
