# Blender 4.4.1
# www.blender.org
mtllib SM_pasted__polySurface17_pasted__blinn1_0_0.mtl
o SM_pasted__polySurface17_pasted__blinn1_0_0
v 3.686639 -3.737617 0.127462
v -3.686639 -3.737617 -0.127462
v 3.686639 -3.737617 -0.127462
v -3.944209 -3.139889 0.111212
v -3.944209 -3.448557 -0.127462
v -3.944209 -3.563599 0.127462
v 3.944209 -3.218734 0.185912
v 3.944209 -3.563599 0.127462
v 3.944209 -3.139889 0.111212
v 3.944209 -3.448557 -0.127462
v 3.944209 -3.054405 0.060629
v -3.944209 -3.054405 0.060629
v -3.944209 -2.964068 0.044368
v 3.944209 -2.964068 0.044368
v 3.944209 -3.265366 0.274877
v -3.944209 -3.218734 0.185912
v -3.944209 -3.265366 0.274877
v 3.686639 -2.947519 0.127462
v 3.686639 -2.974630 0.127462
v 3.688914 -2.965639 0.127462
v 3.695130 -2.959058 0.127462
v 3.703622 -2.956649 0.127462
v -3.686639 -2.947519 0.127462
v -3.703622 -2.956649 0.127462
v -3.695130 -2.959058 0.127462
v -3.688915 -2.965639 0.127462
v -3.686639 -2.974630 0.127462
v 3.686639 -3.448557 -0.127462
v -3.686639 -3.281724 -0.127462
v -3.686639 3.737617 -0.127462
v 3.686639 3.737617 -0.127462
v 3.944209 3.654521 -0.127462
v 3.944209 3.654521 0.044368
v 0.000000 -3.619641 1.265941
v 0.000000 -3.737617 1.265941
v 3.686639 -3.737617 1.265941
v 3.686639 -3.619641 1.265941
v 3.944209 -3.737617 0.127462
v 3.944209 -3.737617 -0.127462
v -3.944209 -3.737617 -0.127462
v -3.944209 -3.737617 0.127462
v -3.944209 -3.448557 -0.127462
v -3.944209 -3.737617 -0.127462
v 3.944209 -3.448557 -0.127462
v 3.944209 -3.737617 -0.127462
v 3.944209 -3.737617 0.127462
v 3.944209 -3.619641 0.972578
v 3.944209 -3.737617 0.972578
v -3.944209 -3.737617 0.972578
v -3.944209 -3.619641 0.972578
v 3.735600 -3.737617 1.265941
v 3.839903 -3.737617 1.236349
v 3.839903 -3.619641 1.236349
v 3.735600 -3.619641 1.265941
v 3.916262 -3.737617 1.155509
v 3.916262 -3.619641 1.155509
v 3.944209 -3.737617 1.045075
v 3.944209 -3.619641 1.045075
v -3.944209 -3.737617 1.045075
v -3.916262 -3.737617 1.155509
v -3.916262 -3.619641 1.155509
v -3.944209 -3.619641 1.045075
v -3.839903 -3.737617 1.236349
v -3.839903 -3.619641 1.236349
v -3.735600 -3.737617 1.265941
v -3.735600 -3.619641 1.265941
v -3.686639 -3.737617 1.265941
v -3.686639 -3.619641 1.265941
v 0.000000 -3.356824 0.127462
v 0.000000 -3.625995 0.332456
v 3.686639 -3.547986 0.332456
v 3.686639 -3.356824 0.127462
v -3.865724 3.654521 0.127462
v -3.921222 3.654521 0.103124
v -3.921222 -2.958822 0.103124
v -3.865724 -2.956649 0.127462
v -3.944209 3.654521 0.044368
v -3.865724 3.737617 0.044368
v -3.865724 3.713279 0.103124
v -3.686639 3.713279 0.103124
v -3.686639 3.737617 0.044368
v -3.686639 3.654521 0.127462
v -3.921222 3.713279 0.044368
v -3.921222 3.713279 -0.127462
v -3.944209 3.654521 -0.127462
v -3.921222 3.713279 0.044368
v -3.865724 3.737617 -0.127462
v -3.921222 3.713279 -0.127462
v 3.921222 3.654521 0.103124
v 3.921222 -2.958822 0.103124
v 3.944209 -2.964068 0.044368
v 3.865724 3.654521 0.127462
v 3.865724 -2.956649 0.127462
v 3.865724 3.737617 0.044368
v 3.921222 3.713279 0.044368
v 3.921222 3.713279 -0.127462
v 3.865724 3.737617 -0.127462
v 3.921222 3.713279 0.044368
v 3.921222 3.713279 -0.127462
v 3.686639 -3.525394 1.265941
v 3.686639 -3.466638 1.242646
v 0.000000 -3.466638 1.242646
v 0.000000 -3.525394 1.265941
v 3.686639 -3.439802 1.185419
v 0.000000 -3.439802 1.185419
v -3.865724 -3.426800 0.972578
v -3.921222 -3.451016 0.969879
v -3.921439 -3.455326 1.041913
v -3.866337 -3.430604 1.034261
v -3.944209 -3.509483 0.963365
v -3.944209 -3.514190 1.045075
v 3.944209 -3.509483 0.963365
v 3.921222 -3.451016 0.969879
v 3.921439 -3.455326 1.041913
v 3.944209 -3.514190 1.045075
v 3.865724 -3.426800 0.972578
v 3.866337 -3.430604 1.034261
v 3.686639 3.737617 0.044368
v 3.686639 -3.427612 0.985878
v 0.000000 -3.427612 0.985878
v -3.686639 -3.525394 1.265941
v -3.735600 -3.525438 1.265941
v 3.735600 -3.525438 1.265941
v 3.916262 -3.519858 1.155509
v 3.839903 -3.523951 1.236349
v -3.839903 -3.523951 1.236349
v -3.916262 -3.519858 1.155509
v 3.686639 3.713279 0.103124
v 3.686639 3.654521 0.127462
v 3.865724 3.713279 0.103124
v 3.732688 -3.466649 1.242619
v 3.725538 -3.439798 1.185332
v -3.686639 -3.466638 1.242646
v -3.732688 -3.466649 1.242619
v -3.686639 -3.439802 1.185419
v -3.725538 -3.439798 1.185332
v -3.921222 -3.208132 0.289012
v -3.944209 -3.265366 0.274877
v -3.865724 -3.184426 0.294867
v -3.896197 -3.460990 1.143285
v -3.847332 -3.435325 1.113518
v 3.828355 -3.465073 1.215246
v 3.800050 -3.438426 1.163524
v 3.921222 -3.208132 0.289012
v 3.865724 -3.184426 0.294867
v 3.895924 -3.460980 1.143118
v 3.846394 -3.435291 1.112946
v -3.828448 -3.465083 1.215415
v -3.800370 -3.438462 1.164108
v 3.921222 -3.166404 0.214648
v 3.865724 -3.144727 0.226550
v -3.921222 -3.033586 0.116583
v -3.865724 -3.024963 0.139759
v 3.921222 -2.958822 0.103124
v 3.921222 -3.033586 0.116583
v 3.865724 -3.024963 0.139759
v 3.921222 -3.033586 0.116583
v 3.921222 -3.100865 0.156393
v 3.865724 -3.084700 0.175107
v 3.921222 -3.100865 0.156393
v 3.865724 -3.084700 0.175107
v -3.921222 -3.208132 0.289012
v -3.921222 -3.166404 0.214648
v -3.865724 -3.144727 0.226550
v -3.921222 -3.166404 0.214648
v -3.921222 -3.100865 0.156393
v -3.865724 -3.084700 0.175107
v -3.921222 -3.100865 0.156393
v -3.865724 -3.084700 0.175107
v -3.911022 3.702479 0.092325
v 3.911022 3.702479 0.092325
v -0.000000 -3.581239 0.972578
v 0.000195 -3.439917 0.972578
v 3.674443 -3.439711 0.972578
v 3.674443 -3.503230 0.972578
v 3.686639 -3.504133 0.959665
v 3.685005 -3.503682 0.966122
v 3.685005 -3.438782 0.966117
v 3.686639 -3.437792 0.959665
v 3.680541 -3.503350 0.970848
v 3.680541 -3.439483 0.970843
v 3.688293 -3.432059 0.961421
v 3.688273 -3.190713 0.293314
v 3.686639 -3.197002 0.291761
v 3.692775 -3.428003 0.966165
v 3.692737 -3.186110 0.294451
v 3.698835 -3.426800 0.972578
v 3.698835 -3.184426 0.294867
v 3.680551 -3.428960 0.979301
v 0.000092 -3.428986 0.979285
v 3.676069 -3.433423 0.974413
v 0.000164 -3.433526 0.974396
v -3.674443 -3.503230 0.972578
v -3.680541 -3.503350 0.970848
v -3.680346 -3.439768 0.970855
v -3.674053 -3.440124 0.972578
v -3.685005 -3.503682 0.966122
v -3.684953 -3.438915 0.966129
v -3.686639 -3.504133 0.959665
v -3.686639 -3.437792 0.959665
v -3.698835 -3.024963 0.139759
v -3.692737 -3.025575 0.138112
v -3.688273 -3.027250 0.133611
v -3.686639 -3.029538 0.127463
v -3.698835 -3.426800 0.972578
v -3.698835 -3.184426 0.294867
v 3.698835 -3.024963 0.139759
v 3.698835 -3.084700 0.175107
v 3.698835 -3.084700 0.175107
v 3.698835 -3.144727 0.226550
v -3.698835 -3.144727 0.226550
v -3.698835 -3.084700 0.175107
v -3.698835 -3.084700 0.175107
v 3.692737 -3.146268 0.225704
v 3.688273 -3.150477 0.223393
v 3.686639 -3.156227 0.220235
v -3.692775 -3.428003 0.966165
v -3.692737 -3.186110 0.294451
v -3.688294 -3.432059 0.961421
v -3.688273 -3.190713 0.293314
v -3.686639 -3.197002 0.291761
v 3.692737 -3.025575 0.138112
v 3.688273 -3.027250 0.133611
v 3.686639 -3.029538 0.127463
v 3.692737 -3.085849 0.173777
v 3.688273 -3.088987 0.170143
v 3.686639 -3.093276 0.165179
v 3.692737 -3.085849 0.173777
v -3.692737 -3.146268 0.225704
v -3.688273 -3.150477 0.223393
v -3.686639 -3.156227 0.220235
v -3.692737 -3.085849 0.173777
v -3.688273 -3.088987 0.170143
v -3.686639 -3.093276 0.165179
v -3.692737 -3.085849 0.173777
v 3.697211 -3.427443 0.979199
v 3.691140 -3.428689 0.972710
v 3.686655 -3.432873 0.967902
v 3.682180 -3.433372 0.972658
v 3.686665 -3.429041 0.977519
v 3.692746 -3.427740 0.984069
v -3.697212 -3.427443 0.979199
v -3.691116 -3.428708 0.972703
v -3.692746 -3.427740 0.984069
v -3.686574 -3.429077 0.977500
v -3.686639 -3.427612 0.985878
v -3.680367 -3.429012 0.979269
v -3.675740 -3.433630 0.974378
v -3.682015 -3.433516 0.972642
v -3.686610 -3.432941 0.967899
v -3.686639 -3.356824 0.127462
v -3.686639 -3.547986 0.332456
v -0.168438 -3.599828 0.619734
v -0.148757 -3.599094 0.703882
v -0.148757 -3.728148 0.703882
v -0.168438 -3.728881 0.619734
v -0.006935 -3.600243 0.791966
v 0.077205 -3.601817 0.772300
v 0.077205 -3.730870 0.772300
v -0.006935 -3.729296 0.791966
v 0.165257 -3.604969 0.630488
v 0.145576 -3.605702 0.546341
v 0.145576 -3.734756 0.546341
v 0.165257 -3.734022 0.630488
v 0.003753 -3.604554 0.458257
v -0.080386 -3.602980 0.477923
v -0.080386 -3.732033 0.477923
v 0.003753 -3.733608 0.458257
v -0.148757 -3.599094 0.703882
v -0.089642 -3.599246 0.766923
v -0.089642 -3.728299 0.766923
v -0.148757 -3.728148 0.703882
v -0.089642 -3.599246 0.766923
v -0.006935 -3.600243 0.791966
v -0.006935 -3.729296 0.791966
v -0.089642 -3.728299 0.766923
v 0.077205 -3.601817 0.772300
v 0.140232 -3.603547 0.713195
v 0.140232 -3.732600 0.713195
v 0.077205 -3.730870 0.772300
v 0.140232 -3.603547 0.713195
v 0.165257 -3.604969 0.630488
v 0.165257 -3.734022 0.630488
v 0.140232 -3.732600 0.713195
v 0.145576 -3.605702 0.546341
v 0.086461 -3.605551 0.483300
v 0.086461 -3.734604 0.483300
v 0.145576 -3.734756 0.546341
v 0.086461 -3.605551 0.483300
v 0.003753 -3.604554 0.458257
v 0.003753 -3.733608 0.458257
v 0.086461 -3.734604 0.483300
v -0.080386 -3.602980 0.477923
v -0.143413 -3.601250 0.537027
v -0.143413 -3.730303 0.537027
v -0.080386 -3.732033 0.477923
v -0.143413 -3.601250 0.537027
v -0.168438 -3.599828 0.619734
v -0.168438 -3.728881 0.619734
v -0.143413 -3.730303 0.537027
v -3.944209 -3.737617 0.127462
v -3.944209 3.654521 -0.127462
v 3.944209 3.654521 -0.127462
v 3.686639 -3.737617 0.127462
v -3.686639 -3.737617 0.127462
v -3.686639 -3.526060 0.646061
v 3.686639 -3.526060 0.646061
v -0.148757 -3.599094 0.703882
v -0.168438 -3.599828 0.619734
v -0.089642 -3.599246 0.766923
v -0.006935 -3.600243 0.791966
v 0.140232 -3.603547 0.713195
v 0.165257 -3.604969 0.630488
v 0.077205 -3.601817 0.772300
v 0.003753 -3.604554 0.458257
v 0.086461 -3.605551 0.483300
v 0.145576 -3.605702 0.546341
v -0.080386 -3.602980 0.477923
v -0.143413 -3.601250 0.537027
v -3.686639 -3.526060 0.646061
v -3.686639 -3.547986 0.332456
v -3.686639 -3.547986 0.332456
v 3.686639 -3.029538 0.127463
v -3.686639 -2.974630 0.127462
v 3.686639 -3.737617 -0.127462
v 3.865724 3.737617 -0.127462
v -3.865724 3.713279 0.103124
v 3.686639 -3.356824 0.127462
v 3.686639 -3.356824 0.127462
v 0.000000 -3.625995 0.332456
v -3.686639 3.713279 0.103124
v -3.839903 -3.737617 1.236349
v -3.916262 -3.737617 1.155509
v 3.686639 -3.547986 0.332456
v 3.686639 -3.547986 0.332456
v 3.916262 -3.737617 1.155509
v 3.688914 -2.965639 0.127462
v 3.686639 -2.974630 0.127462
v -3.921222 3.713279 -0.127462
v 3.839903 -3.737617 1.236349
v 3.674443 -3.503230 0.972578
v 3.911022 3.702479 0.092325
v 3.911022 3.702479 0.092325
v -3.686639 -3.737617 -0.127462
v -3.674443 -3.503230 0.972578
v 3.921222 3.713279 -0.127462
v 3.686639 3.737617 -0.127462
v 3.686639 -3.504133 0.959665
v -3.865724 3.737617 -0.127462
v -3.944209 -3.737617 1.045075
v -3.944209 -3.737617 -0.127462
v -3.944209 -3.737617 0.127462
v -3.944209 -3.737617 0.972578
v -3.686639 3.737617 -0.127462
v -3.686639 -3.504133 0.959665
v 3.944209 -3.737617 1.045075
v 3.944209 -3.737617 0.127462
v 3.944209 -3.737617 -0.127462
v 3.944209 -3.737617 0.972578
v 3.735600 -3.737617 1.265941
v 3.686639 -3.526060 0.646061
v 3.686639 3.713279 0.103124
v 3.865724 3.713279 0.103124
v 3.921222 -3.166404 0.214648
v -3.685005 -3.503682 0.966122
v 3.685005 -3.503682 0.966122
v 3.921222 -3.208132 0.289012
v -0.000000 -3.581239 0.972578
v 3.680541 -3.503350 0.970848
v -3.686639 -3.356824 0.127462
v -3.680541 -3.503350 0.970848
v -3.911022 3.702479 0.092325
v -3.911022 3.702479 0.092325
v -3.735600 -3.737617 1.265941
vn -0.0000 -1.0000 -0.0000
vn -0.9994 0.0201 0.0282
vn -1.0000 -0.0000 -0.0000
vn 0.9966 0.0675 0.0474
vn 1.0000 -0.0000 -0.0000
vn 0.9994 0.0223 0.0280
vn 0.9967 0.0325 0.0741
vn -0.9968 0.0245 0.0765
vn -0.9878 0.0002 0.1557
vn 0.9984 0.0003 0.0560
vn 0.9969 0.0737 0.0257
vn -0.9966 0.0626 0.0539
vn -0.9980 0.0595 0.0232
vn -0.0000 -0.0000 1.0000
vn -0.0001 -0.0000 1.0000
vn -0.0582 0.0550 0.9968
vn -0.2493 0.1216 0.9608
vn -0.0001 0.0018 1.0000
vn -0.0000 0.0009 1.0000
vn 0.1308 0.1452 0.9807
vn 0.3811 0.1020 0.9189
vn 0.0002 -0.0000 1.0000
vn -0.0000 -0.0000 -1.0000
vn 1.0000 0.0035 -0.0000
vn 0.9877 0.0029 0.1565
vn 0.1896 -0.0000 0.9819
vn 0.5970 -0.0000 0.8022
vn 0.5149 -0.0000 0.8572
vn 0.2096 -0.0000 0.9778
vn 0.9159 -0.0000 0.4015
vn 0.8756 -0.0000 0.4831
vn 0.9885 -0.0000 0.1510
vn 0.9912 -0.0000 0.1324
vn -0.9885 -0.0000 0.1510
vn -0.8331 -0.0000 0.5531
vn -0.8822 -0.0000 0.4709
vn -0.9852 -0.0000 0.1715
vn -0.4410 -0.0000 0.8975
vn -0.5303 -0.0000 0.8478
vn -0.1895 -0.0000 0.9819
vn -0.1742 -0.0000 0.9847
vn -0.0001 0.0215 0.9998
vn -0.0000 0.6445 0.7646
vn -0.0070 0.6651 0.7467
vn -0.0000 0.7314 0.6820
vn -0.1071 0.0020 0.9942
vn -0.8126 0.0035 0.5828
vn -0.6285 0.0013 0.7778
vn -0.1113 0.0038 0.9938
vn -0.9985 0.0034 0.0554
vn -0.0586 0.9928 0.1049
vn -0.1202 0.9223 0.3672
vn -0.0000 0.9239 0.3827
vn -0.0000 0.9863 0.1648
vn -0.0724 0.3740 0.9246
vn -0.0000 0.0026 1.0000
vn -0.0000 0.3827 0.9239
vn -0.6505 0.7533 0.0970
vn -0.8134 0.5817 -0.0000
vn -1.0000 0.0034 -0.0000
vn -0.6504 0.7534 0.0970
vn -0.1655 0.9862 -0.0000
vn -0.8133 0.5818 -0.0000
vn 0.6267 0.0035 0.7793
vn 0.8117 0.0016 0.5841
vn 0.9984 0.0003 0.0562
vn 0.0613 0.0039 0.9981
vn 0.1750 0.0015 0.9846
vn 0.1031 0.9928 0.0602
vn 0.7885 0.6075 0.0959
vn 0.6255 0.7802 0.0001
vn 0.1032 0.9947 -0.0000
vn 0.7886 0.6073 0.0959
vn 0.6256 0.7802 -0.0000
vn 0.0001 0.2142 0.9768
vn -0.0000 0.7725 0.6350
vn -0.0000 0.6852 0.7284
vn -0.0000 0.1254 0.9921
vn -0.0000 0.9938 0.1111
vn -0.0000 0.9886 0.1504
vn -0.0683 0.9449 0.3202
vn -0.6412 0.7279 0.2432
vn -0.7392 0.6543 0.1597
vn -0.0785 0.9941 0.0742
vn -0.9967 0.0771 0.0261
vn -0.9843 0.1377 0.1105
vn 0.9899 0.1358 0.0407
vn 0.7978 0.5740 0.1845
vn 0.7168 0.6855 0.1274
vn 0.9730 0.1373 0.1855
vn 0.1660 0.9348 0.3138
vn 0.0724 0.9952 0.0664
vn -0.0000 1.0000 -0.0000
vn -0.0000 0.9981 0.0623
vn -0.0000 0.9990 0.0450
vn -0.0000 0.9986 0.0522
vn -0.0000 0.1505 0.9886
vn -0.2194 0.1475 0.9644
vn 0.1429 0.1505 0.9782
vn 0.8232 0.1454 0.5488
vn 0.4354 0.1511 0.8875
vn -0.5865 0.1470 0.7965
vn -0.9042 0.1418 0.4029
vn -0.0000 0.0047 1.0000
vn 0.1202 0.3672 0.9223
vn 0.0724 0.9246 0.3740
vn 0.1530 0.6404 0.7527
vn 0.0801 0.9153 0.3947
vn -0.0000 0.5863 0.8101
vn -0.1107 0.7071 0.6984
vn -0.0000 0.9799 0.1997
vn -0.0450 0.9178 0.3944
vn -0.7947 0.5670 0.2168
vn -0.9979 0.0597 0.0233
vn -0.1654 0.9237 0.3456
vn -0.6150 0.6753 0.4071
vn -0.1560 0.9744 0.1616
vn 0.3957 0.6797 0.6176
vn 0.1665 0.9472 0.2739
vn 0.3969 0.8615 0.3168
vn 0.0680 0.9324 0.3550
vn 0.9312 0.3394 0.1332
vn 0.6541 0.6717 0.3478
vn 0.1796 0.9752 0.1294
vn -0.3344 0.6729 0.6598
vn -0.1125 0.9457 0.3050
vn 0.3985 0.7403 0.5414
vn 0.1126 0.7270 0.6774
vn 0.9322 0.2693 0.2417
vn -0.7497 0.2222 0.6233
vn -0.1138 0.4027 0.9082
vn 0.8118 0.0015 0.5839
vn 0.7457 0.2442 0.6199
vn 0.1138 0.2900 0.9502
vn 0.7455 0.2443 0.6201
vn 0.7400 0.4019 0.5393
vn 0.1131 0.5584 0.8218
vn 0.7399 0.4019 0.5394
vn 0.7398 0.4020 0.5394
vn 0.1131 0.5585 0.8218
vn -0.7949 0.5668 0.2166
vn -0.7387 0.5167 0.4328
vn -0.1099 0.7997 0.5903
vn -0.7386 0.5169 0.4329
vn -0.7488 0.3913 0.5350
vn -0.1111 0.6076 0.7865
vn -0.7487 0.3914 0.5350
vn -0.1111 0.6074 0.7866
vn -0.9322 0.2559 0.2559
vn -0.2834 0.2676 0.9209
vn -0.2834 0.9209 0.2677
vn 0.2834 0.2676 0.9209
vn 0.9322 0.2559 0.2559
vn 0.2834 0.9209 0.2677
vn -0.0000 0.0151 -0.9999
vn -0.0004 0.0088 -1.0000
vn -0.0006 -0.0000 -1.0000
vn -1.0000 -0.0000 -0.0019
vn -0.8337 -0.0000 -0.5522
vn -0.9174 0.0313 -0.3967
vn -0.9999 0.0106 0.0031
vn -0.4416 -0.0000 -0.8972
vn -0.5909 0.0441 -0.8055
vn -0.8357 0.5179 0.1825
vn -0.9042 0.3981 0.1545
vn -1.0000 0.0079 0.0032
vn -0.5300 0.7992 0.2835
vn -0.6028 0.7452 0.2853
vn -0.0098 0.9420 0.3355
vn -0.0263 0.9352 0.3532
vn -0.0003 0.8454 -0.5342
vn -0.0000 0.8884 -0.4590
vn -0.0005 0.4462 -0.8949
vn -0.0000 0.5225 -0.8527
vn 0.0004 -0.0000 -1.0000
vn 0.5941 -0.0011 -0.8044
vn 0.4353 0.0325 -0.8997
vn 0.0005 0.0476 -0.9989
vn 0.9155 -0.0004 -0.4023
vn 0.8363 0.0418 -0.5467
vn 1.0000 -0.0000 -0.0010
vn 1.0000 0.0055 0.0008
vn 0.0076 0.2926 0.9562
vn 0.4278 0.3098 0.8491
vn 0.8297 0.1950 0.5231
vn 0.9997 0.0089 0.0217
vn 0.9665 -0.0000 0.2566
vn 0.0260 0.9487 0.3151
vn 0.0057 0.9352 0.3540
vn -0.0103 0.4044 0.9145
vn -0.0100 0.6094 0.7928
vn -0.0101 0.6096 0.7927
vn -0.0100 0.8033 0.5955
vn 0.0102 0.7311 0.6821
vn 0.0102 0.5626 0.8267
vn 0.0102 0.5625 0.8268
vn -0.5207 0.6523 0.5508
vn -0.8784 0.3606 0.3137
vn -0.9999 0.0081 0.0075
vn 0.6648 0.7042 0.2492
vn 0.5145 0.8021 0.3031
vn 0.9167 0.3767 0.1329
vn 0.8511 0.4915 0.1848
vn 0.9999 0.0134 0.0050
vn -0.4771 0.2934 0.8284
vn -0.8400 0.1633 0.5175
vn -0.9690 0.0345 0.2447
vn -0.9999 0.0057 0.0154
vn -0.5267 0.4968 0.6897
vn -0.8816 0.2730 0.3850
vn -0.9999 0.0070 0.0101
vn -0.5265 0.4969 0.6898
vn 0.5241 0.6596 0.5388
vn 0.8792 0.3747 0.2942
vn 0.9999 0.0089 0.0065
vn 0.5197 0.5045 0.6895
vn 0.8769 0.2878 0.3851
vn 0.9999 0.0078 0.0101
vn 0.5194 0.5045 0.6897
vn -0.0044 0.9980 0.0632
vn -0.4217 0.8957 -0.1411
vn -0.7161 0.5885 -0.3753
vn -0.3819 0.7239 -0.5746
vn -0.1849 0.9549 -0.2322
vn -0.0006 0.9998 0.0206
vn 0.0198 0.9971 0.0730
vn 0.3384 0.9303 -0.1414
vn 0.0052 0.9998 0.0178
vn 0.1976 0.9175 -0.3451
vn -0.0000 0.9984 0.0565
vn 0.0002 0.9258 -0.3780
vn 0.0007 0.5948 -0.8039
vn 0.4764 0.6520 -0.5898
vn 0.6961 0.6672 -0.2653
vn 0.0046 0.4375 0.8992
vn 0.0155 0.7313 0.6819
vn -0.9593 -0.1717 0.2244
vn -0.9593 0.1717 0.2244
vn -0.9138 -0.3435 0.2167
vn -0.9151 0.3436 0.2110
vn 0.2212 -0.1717 0.9600
vn 0.2273 0.1717 0.9586
vn 0.2076 -0.3436 0.9159
vn 0.2198 0.3436 0.9130
vn 0.9593 -0.1717 -0.2244
vn 0.9593 0.1717 -0.2244
vn 0.9151 -0.3435 -0.2110
vn 0.9138 0.3436 -0.2167
vn 0.0570 -0.0000 0.9984
vn 0.5484 -0.0000 0.8362
vn 0.3915 -0.0000 0.9202
vn -0.1209 -0.0000 0.9927
vn -0.7186 -0.1717 0.6739
vn -0.7186 0.1717 0.6739
vn -0.6855 -0.3435 0.6420
vn -0.6847 0.3435 0.6428
vn -0.2855 -0.1717 0.9429
vn -0.2855 0.1717 0.9429
vn -0.2759 -0.3436 0.8977
vn -0.2684 0.3435 0.9000
vn 0.6714 -0.1717 0.7210
vn 0.6764 0.1717 0.7162
vn 0.6374 -0.3436 0.6897
vn 0.6474 0.3436 0.6803
vn 0.9421 -0.1717 0.2880
vn 0.9437 0.1717 0.2826
vn 0.8972 -0.3436 0.2774
vn 0.9005 0.3436 0.2666
vn -0.8361 0.0003 0.5486
vn -0.4501 -0.0000 0.8930
vn -0.6012 -0.0003 0.7991
vn -0.9200 -0.0000 0.3918
vn -0.4498 0.0020 0.8931
vn 0.0567 -0.0000 0.9984
vn -0.1211 -0.0020 0.9926
vn -0.6010 -0.0000 0.7993
vn 0.5486 -0.0000 0.8361
vn 0.8931 -0.0000 0.4499
vn 0.7992 -0.0000 0.6011
vn 0.3917 -0.0000 0.9201
vn 0.8932 -0.0000 0.4497
vn 0.9984 -0.0000 -0.0569
vn 0.9927 -0.0000 0.1209
vn 0.7993 -0.0000 0.6009
vn -0.0224 -0.9974 0.0686
vn -0.0209 -0.9997 0.0122
vn 0.0031 -0.9992 0.0392
vn -0.0205 -0.9971 0.0739
vn -0.0325 -0.9987 0.0392
vn -0.0007 -0.9947 0.1024
vn 0.0001 -0.9944 0.1054
vn -0.0197 -0.9966 0.0805
vn -0.0133 -0.9957 0.0914
vn -0.0210 -0.9896 0.1426
vn 0.0102 -0.9986 0.0517
vn 0.0224 -0.9997 0.0134
vn 0.0199 -0.9987 0.0479
vn 0.0195 -0.9964 0.0823
vn 0.0657 -0.9845 0.1624
vn 0.0197 -0.9966 0.0805
vn 0.0134 -0.9957 0.0915
vn 0.0209 -0.9896 0.1422
vn 0.0092 -0.9850 0.1720
vn -0.0100 -0.9761 0.2171
vn 0.0439 -0.9964 0.0727
vn 0.0777 -0.9876 -0.1365
vn 0.0280 -0.9995 -0.0110
vn -0.0211 -0.9973 0.0697
vn -0.0317 -0.9993 -0.0172
vn -0.0217 -0.9997 0.0086
s 1
usemtl M_pasted__polySurface17_pasted__blinn1_0_0
f 1//1 2//1 3//1
f 4//2 5//3 6//3
f 7//4 8//5 9//6
f 9//6 10//5 11//7
f 12//8 13//9 5//3
f 11//7 10//5 14//10
f 8//5 10//5 9//6
f 12//8 5//3 4//2
f 15//11 8//5 7//4
f 6//3 16//12 4//2
f 6//3 17//13 16//12
f 18//14 19//15 20//16
f 18//14 20//16 21//17
f 18//14 21//17 22//18
f 23//14 24//19 25//20
f 23//14 25//20 26//21
f 23//14 26//21 27//22
f 28//23 29//23 30//23
f 28//23 30//23 31//23
f 14//10 10//5 32//24
f 14//10 32//24 33//25
f 34//14 35//14 36//14
f 34//14 36//14 37//14
f 38//5 39//5 10//5
f 38//5 10//5 8//5
f 344//23 29//23 28//23
f 344//23 28//23 325//23
f 40//3 41//3 6//3
f 40//3 6//3 5//3
f 42//23 29//23 344//23
f 42//23 344//23 43//23
f 325//23 28//23 44//23
f 325//23 44//23 45//23
f 1//1 3//1 358//1
f 1//1 358//1 46//1
f 38//5 8//5 47//5
f 38//5 47//5 48//5
f 6//3 41//3 49//3
f 6//3 49//3 50//3
f 51//26 52//27 53//28
f 51//26 53//28 54//29
f 52//27 55//30 56//31
f 52//27 56//31 53//28
f 55//30 57//32 58//33
f 55//30 58//33 56//31
f 59//34 60//35 61//36
f 59//34 61//36 62//37
f 60//35 63//38 64//39
f 60//35 64//39 61//36
f 63//38 65//40 66//41
f 63//38 66//41 64//39
f 48//5 47//5 58//33
f 48//5 58//33 57//32
f 50//3 49//3 59//34
f 50//3 59//34 62//37
f 66//41 65//40 67//14
f 66//41 67//14 68//14
f 37//14 36//14 51//26
f 37//14 51//26 54//29
f 69//42 70//43 71//44
f 69//42 71//44 72//45
f 73//46 74//47 75//48
f 73//46 75//48 76//49
f 74//47 77//50 13//9
f 74//47 13//9 75//48
f 78//51 79//52 80//53
f 78//51 80//53 81//54
f 327//55 73//46 82//56
f 327//55 82//56 331//57
f 77//50 83//58 84//59
f 77//50 84//59 85//60
f 86//61 78//51 87//62
f 86//61 87//62 88//63
f 33//25 89//64 90//65
f 33//25 90//65 91//66
f 89//64 92//67 93//68
f 89//64 93//68 90//65
f 94//69 95//70 96//71
f 94//69 96//71 97//72
f 98//73 33//25 32//24
f 98//73 32//24 99//74
f 100//75 101//76 102//77
f 100//75 102//77 103//78
f 101//76 104//79 105//80
f 101//76 105//80 102//77
f 106//81 107//82 108//83
f 106//81 108//83 109//84
f 107//82 110//85 111//86
f 107//82 111//86 108//83
f 112//87 113//88 114//89
f 112//87 114//89 115//90
f 113//88 116//91 117//92
f 113//88 117//92 114//89
f 354//93 81//54 118//94
f 354//93 118//94 347//93
f 104//79 119//95 120//96
f 104//79 120//96 105//80
f 78//51 81//54 354//93
f 78//51 354//93 87//62
f 347//93 118//94 94//69
f 347//93 94//69 97//72
f 103//78 34//14 37//14
f 103//78 37//14 100//75
f 6//3 50//3 110//85
f 6//3 110//85 17//13
f 50//3 62//37 111//86
f 50//3 111//86 110//85
f 66//41 68//14 121//97
f 66//41 121//97 122//98
f 37//14 54//29 123//99
f 37//14 123//99 100//75
f 58//33 47//5 112//87
f 58//33 112//87 115//90
f 56//31 58//33 115//90
f 56//31 115//90 124//100
f 54//29 53//28 125//101
f 54//29 125//101 123//99
f 53//28 56//31 124//100
f 53//28 124//100 125//101
f 64//39 66//41 122//98
f 64//39 122//98 126//102
f 62//37 61//36 127//103
f 62//37 127//103 111//86
f 61//36 64//39 126//102
f 61//36 126//102 127//103
f 81//54 80//53 128//53
f 81//54 128//53 118//94
f 331//57 82//56 129//104
f 331//57 129//104 362//57
f 92//67 130//105 362//57
f 92//67 362//57 129//104
f 363//106 94//69 118//94
f 363//106 118//94 128//53
f 104//79 101//76 131//107
f 104//79 131//107 132//108
f 101//76 100//75 123//99
f 101//76 123//99 131//107
f 121//97 133//109 134//110
f 121//97 134//110 122//98
f 133//109 135//111 136//112
f 133//109 136//112 134//110
f 110//85 107//82 137//113
f 110//85 137//113 138//114
f 107//82 106//81 139//115
f 107//82 139//115 137//113
f 109//84 108//83 140//116
f 109//84 140//116 141//117
f 108//83 111//86 127//103
f 108//83 127//103 140//116
f 132//108 131//107 142//118
f 132//108 142//118 143//119
f 131//107 123//99 125//101
f 131//107 125//101 142//118
f 116//91 113//88 144//120
f 116//91 144//120 145//121
f 113//88 112//87 15//11
f 113//88 15//11 367//122
f 143//119 142//118 146//123
f 143//119 146//123 147//124
f 142//118 125//101 124//100
f 142//118 124//100 146//123
f 115//90 114//89 146//123
f 115//90 146//123 124//100
f 114//89 117//92 147//124
f 114//89 147//124 146//123
f 141//117 140//116 148//125
f 141//117 148//125 149//126
f 140//116 127//103 126//102
f 140//116 126//102 148//125
f 122//98 134//110 148//125
f 122//98 148//125 126//102
f 134//110 136//112 149//126
f 134//110 149//126 148//125
f 145//121 144//120 150//127
f 145//121 150//127 151//128
f 367//122 15//11 7//4
f 367//122 7//4 364//129
f 76//49 75//48 152//130
f 76//49 152//130 153//131
f 75//48 13//9 12//8
f 75//48 12//8 152//130
f 14//10 154//132 155//133
f 14//10 155//133 11//7
f 90//65 93//68 156//134
f 90//65 156//134 157//135
f 11//7 155//133 158//136
f 11//7 158//136 9//6
f 157//135 156//134 159//137
f 157//135 159//137 160//138
f 9//6 158//136 364//129
f 9//6 364//129 7//4
f 158//139 161//140 151//128
f 158//139 151//128 150//127
f 17//13 162//141 163//142
f 17//13 163//142 16//12
f 137//113 139//115 164//143
f 137//113 164//143 165//144
f 16//12 163//142 166//145
f 16//12 166//145 4//2
f 165//144 164//143 167//146
f 165//144 167//146 168//147
f 4//2 166//145 152//130
f 4//2 152//130 12//8
f 166//145 169//148 153//131
f 166//145 153//131 152//130
f 83//58 77//50 74//47
f 83//58 74//47 170//149
f 74//47 73//46 327//55
f 74//47 327//55 372//150
f 79//52 78//51 86//61
f 79//52 86//61 373//151
f 130//105 92//67 89//64
f 130//105 89//64 171//152
f 89//64 33//25 98//73
f 89//64 98//73 342//153
f 95//70 94//69 363//106
f 95//70 363//106 343//154
f 5//3 13//9 77//50
f 5//3 77//50 85//60
f 15//11 112//87 47//5
f 15//11 47//5 8//5
f 172//23 173//155 174//156
f 172//23 174//156 175//157
f 176//158 177//159 178//160
f 176//158 178//160 179//161
f 177//159 180//162 181//163
f 177//159 181//163 178//160
f 180//162 175//157 174//156
f 180//162 174//156 181//163
f 179//161 182//164 183//165
f 179//161 183//165 184//166
f 182//164 185//167 186//168
f 182//164 186//168 183//165
f 185//167 187//169 188//170
f 185//167 188//170 186//168
f 119//95 189//171 190//172
f 119//95 190//172 120//96
f 189//171 191//173 192//174
f 189//171 192//174 190//172
f 191//173 174//156 173//155
f 191//173 173//155 192//174
f 193//175 194//176 195//177
f 193//175 195//177 196//178
f 194//176 197//179 198//180
f 194//176 198//180 195//177
f 197//179 199//181 200//182
f 197//179 200//182 198//180
f 201//183 202//184 25//20
f 201//183 25//20 24//19
f 202//184 203//185 26//21
f 202//184 26//21 25//20
f 203//185 204//186 324//187
f 203//185 27//22 26//21
f 145//121 188//170 187//169
f 145//121 187//169 116//91
f 106//81 205//188 206//189
f 106//81 206//189 139//115
f 22//18 207//190 156//134
f 22//18 156//134 93//68
f 207//190 208//191 159//137
f 207//190 159//137 156//134
f 209//192 210//193 151//128
f 209//192 151//128 161//140
f 210//193 188//170 145//121
f 210//193 145//121 151//128
f 206//189 211//194 164//143
f 206//189 164//143 139//115
f 211//194 212//195 167//146
f 211//194 167//146 164//143
f 213//196 201//183 153//131
f 213//196 153//131 169//148
f 201//183 24//19 76//49
f 201//183 76//49 153//131
f 186//168 188//170 210//193
f 186//168 210//193 214//197
f 184//166 183//165 215//198
f 184//166 215//198 216//199
f 183//165 186//168 214//197
f 183//165 214//197 215//198
f 205//188 217//200 218//201
f 205//188 218//201 206//189
f 217//200 219//202 220//203
f 217//200 220//203 218//201
f 219//202 200//182 221//204
f 219//202 221//204 220//203
f 22//18 21//17 222//205
f 22//18 222//205 207//190
f 21//17 20//16 223//206
f 21//17 223//206 222//205
f 20//16 19//15 224//15
f 337//207 323//208 223//206
f 207//190 222//205 225//209
f 207//190 225//209 208//191
f 222//205 223//206 226//210
f 222//205 226//210 225//209
f 223//206 323//208 227//211
f 223//206 227//211 226//210
f 209//192 228//212 214//197
f 209//192 214//197 210//193
f 225//209 226//210 215//198
f 225//209 215//198 214//197
f 226//210 227//211 216//199
f 226//210 216//199 215//198
f 206//189 218//201 229//213
f 206//189 229//213 211//194
f 218//201 220//203 230//214
f 218//201 230//214 229//213
f 220//203 221//204 231//215
f 220//203 231//215 230//214
f 211//194 229//213 232//216
f 211//194 232//216 212//195
f 229//213 230//214 233//217
f 229//213 233//217 232//216
f 230//214 231//215 234//218
f 230//214 234//218 233//217
f 213//196 235//219 202//184
f 213//196 202//184 201//183
f 232//216 233//217 203//185
f 232//216 203//185 202//184
f 233//217 234//218 204//186
f 233//217 204//186 203//185
f 236//220 187//169 185//167
f 236//220 185//167 237//221
f 237//221 185//167 182//164
f 237//221 182//164 238//222
f 182//164 179//161 178//160
f 182//164 178//160 238//222
f 238//222 178//160 181//163
f 238//222 181//163 239//223
f 181//163 174//156 191//173
f 181//163 191//173 239//223
f 239//223 191//173 189//171
f 239//223 189//171 240//224
f 189//171 119//95 241//225
f 189//171 241//225 240//224
f 240//224 241//225 236//220
f 240//224 236//220 237//221
f 237//221 238//222 239//223
f 237//221 239//223 240//224
f 217//200 205//188 242//226
f 217//200 242//226 243//227
f 243//227 242//226 244//228
f 243//227 244//228 245//229
f 244//228 246//230 247//231
f 244//228 247//231 245//229
f 245//229 247//231 248//232
f 245//229 248//232 249//233
f 248//232 196//178 195//177
f 248//232 195//177 249//233
f 249//233 195//177 198//180
f 249//233 198//180 250//234
f 198//180 200//182 219//202
f 198//180 219//202 250//234
f 250//234 219//202 217//200
f 250//234 217//200 243//227
f 243//227 245//229 249//233
f 243//227 249//233 250//234
f 251//235 252//236 70//43
f 251//235 70//43 69//42
f 193//175 196//178 173//155
f 193//175 173//155 172//23
f 192//174 173//155 196//178
f 192//174 196//178 248//232
f 190//172 192//174 248//232
f 190//172 248//232 247//231
f 120//96 190//172 247//231
f 120//96 247//231 246//230
f 105//80 120//96 246//230
f 105//80 246//230 135//111
f 102//77 105//80 135//111
f 102//77 135//111 133//109
f 103//78 102//77 133//109
f 103//78 133//109 121//97
f 68//14 34//14 103//78
f 68//14 103//78 121//97
f 68//14 67//14 35//14
f 68//14 35//14 34//14
f 253//237 255//238 254//239
f 253//237 256//240 255//238
f 257//241 259//242 258//243
f 257//241 260//244 259//242
f 261//245 263//246 262//247
f 261//245 264//248 263//246
f 265//249 266//250 267//251
f 265//249 267//251 268//252
f 269//253 271//254 270//255
f 269//253 272//256 271//254
f 273//257 275//258 274//259
f 273//257 276//260 275//258
f 277//261 279//262 278//263
f 277//261 280//264 279//262
f 281//265 283//266 282//267
f 281//265 284//268 283//266
f 285//269 286//270 287//271
f 285//269 287//271 288//272
f 289//273 290//274 291//275
f 289//273 291//275 292//276
f 293//277 294//278 295//279
f 293//277 295//279 296//280
f 297//281 298//282 299//283
f 297//281 299//283 300//284
f 1//1 351//1 2//1
f 351//1 1//1 301//1
f 339//23 42//23 302//23
f 42//23 339//23 29//23
f 29//23 339//23 349//23
f 29//23 349//23 30//23
f 326//23 28//23 31//23
f 28//23 326//23 44//23
f 44//23 326//23 346//23
f 44//23 346//23 303//23
f 359//1 304//1 357//1
f 304//1 359//1 305//1
f 305//1 359//1 352//1
f 352//1 359//1 353//1
f 356//1 353//1 359//1
f 353//1 356//1 350//1
f 350//1 356//1 336//1
f 350//1 336//1 333//1
f 333//1 336//1 340//1
f 333//1 340//1 332//1
f 332//1 340//1 360//1
f 332//1 360//1 374//1
f 22//18 129//104 18//14
f 129//104 22//18 92//67
f 92//67 22//18 93//68
f 24//19 73//46 76//49
f 73//46 24//19 82//56
f 82//56 24//19 23//14
f 109//84 205//188 106//81
f 205//188 109//84 242//226
f 242//226 109//84 244//228
f 244//228 109//84 246//230
f 246//230 109//84 135//111
f 135//111 109//84 141//117
f 135//111 141//117 149//126
f 135//111 149//126 136//112
f 236//220 116//91 187//169
f 116//91 236//220 117//92
f 117//92 236//220 241//225
f 117//92 241//225 119//95
f 117//92 119//95 104//79
f 117//92 104//79 147//124
f 147//124 104//79 143//119
f 143//119 104//79 132//108
f 69//42 27//22 251//235
f 27//22 69//42 23//14
f 23//14 69//42 82//56
f 82//56 69//42 129//104
f 129//104 69//42 328//14
f 370//5 306//5 321//5
f 306//5 370//5 199//181
f 199//181 370//5 200//182
f 200//182 370//5 221//204
f 221//204 370//5 231//215
f 231//215 370//5 234//218
f 234//218 370//5 204//186
f 204//186 370//5 324//187
f 307//3 329//3 334//3
f 329//3 307//3 176//158
f 329//3 176//158 179//161
f 329//3 179//161 184//166
f 329//3 184//166 216//199
f 329//3 216//199 227//211
f 329//3 227//211 323//208
f 329//3 323//208 338//3
f 320//285 309//286 308//287
f 308//287 355//288 320//285
f 308//287 310//289 355//288
f 310//289 311//290 355//288
f 311//290 368//291 355//288
f 368//291 365//292 355//288
f 368//291 371//293 365//292
f 368//291 345//294 371//293
f 312//295 313//296 361//297
f 361//297 348//298 312//295
f 348//298 314//299 312//295
f 348//298 311//290 314//299
f 348//298 368//291 311//290
f 348//298 366//300 368//291
f 366//300 369//301 368//291
f 369//301 341//302 368//291
f 315//303 330//304 335//305
f 335//305 361//297 315//303
f 361//297 316//306 315//303
f 361//297 317//307 316//306
f 361//297 313//296 317//307
f 320//285 322//308 330//304
f 330//304 315//303 320//285
f 315//303 318//309 320//285
f 318//309 319//310 320//285
f 319//310 309//286 320//285
