# Blender 4.4.1
# www.blender.org
mtllib SM_pCylinder177_lambert1_0_0.mtl
o SM_pCylinder177_lambert1_0_0
v 17.539928 4.205280 16.411085
v 17.529068 4.183966 16.411085
v 17.467213 4.228907 16.411085
v 17.512154 4.167051 16.411085
v 17.490839 4.156190 16.411085
v 17.467213 4.152449 16.411085
v 17.443586 4.156190 16.411085
v 17.422272 4.167051 16.411085
v 17.405357 4.183966 16.411085
v 17.394497 4.205280 16.411085
v 17.390755 4.228907 16.411085
v 17.394497 4.252533 16.411085
v 17.405357 4.273848 16.411085
v 17.422272 4.290762 16.411085
v 17.443586 4.301623 16.411085
v 17.467213 4.305365 16.411085
v 17.490839 4.301623 16.411085
v 17.512154 4.290762 16.411085
v 17.529068 4.273848 16.411085
v 17.539928 4.252533 16.411085
v 17.543671 4.228907 16.411085
v 17.524111 4.210419 16.629700
v 17.525806 4.206240 16.629700
v 17.527941 4.212803 16.629700
v 17.527040 4.228907 16.629700
v 17.529943 4.225456 16.629700
v 17.529943 4.232357 16.629700
v 17.515614 4.193741 16.629700
v 17.515936 4.189243 16.629700
v 17.519993 4.194826 16.629700
v 17.502378 4.180506 16.629700
v 17.501293 4.176128 16.629700
v 17.506876 4.180184 16.629700
v 17.485699 4.172008 16.629700
v 17.483315 4.168180 16.629700
v 17.489878 4.170312 16.629700
v 17.467213 4.169080 16.629700
v 17.463762 4.166176 16.629700
v 17.470663 4.166176 16.629700
v 17.448727 4.172008 16.629700
v 17.444548 4.170312 16.629700
v 17.451111 4.168180 16.629700
v 17.432047 4.180506 16.629700
v 17.427549 4.180185 16.629700
v 17.433132 4.176128 16.629700
v 17.418814 4.193741 16.629700
v 17.414434 4.194826 16.629700
v 17.418491 4.189242 16.629700
v 17.410315 4.210419 16.629700
v 17.406485 4.212803 16.629700
v 17.408619 4.206240 16.629700
v 17.407385 4.228907 16.629700
v 17.404482 4.232357 16.629700
v 17.404482 4.225456 16.629700
v 17.410315 4.247394 16.629700
v 17.408619 4.251573 16.629700
v 17.406485 4.245010 16.629700
v 17.418814 4.264072 16.629700
v 17.418491 4.268571 16.629700
v 17.414434 4.262988 16.629700
v 17.432047 4.277308 16.629700
v 17.433132 4.281685 16.629700
v 17.427549 4.277628 16.629700
v 17.448727 4.285805 16.629700
v 17.451111 4.289633 16.629700
v 17.444548 4.287501 16.629700
v 17.467213 4.288733 16.629700
v 17.470663 4.291637 16.629700
v 17.463762 4.291637 16.629700
v 17.485699 4.285805 16.629700
v 17.489878 4.287501 16.629700
v 17.483315 4.289633 16.629700
v 17.502378 4.277308 16.629700
v 17.506876 4.277629 16.629700
v 17.501293 4.281685 16.629700
v 17.515614 4.264072 16.629700
v 17.519993 4.262988 16.629700
v 17.515936 4.268570 16.629700
v 17.524111 4.247394 16.629700
v 17.527941 4.245010 16.629700
v 17.525806 4.251573 16.629700
v 17.533396 4.203774 16.522192
v 17.534981 4.206887 16.518742
v 17.535528 4.210338 16.522192
v 17.522390 4.184553 16.522192
v 17.524860 4.187023 16.518742
v 17.526447 4.190136 16.522192
v 17.505983 4.169673 16.522192
v 17.509096 4.171259 16.518742
v 17.511566 4.173730 16.522192
v 17.485781 4.160592 16.522192
v 17.489231 4.161138 16.518742
v 17.492344 4.162724 16.522192
v 17.463762 4.158197 16.522192
v 17.467213 4.157651 16.518742
v 17.470663 4.158197 16.522192
v 17.442081 4.162724 16.522192
v 17.445194 4.161138 16.518742
v 17.448645 4.160592 16.522192
v 17.422859 4.173730 16.522192
v 17.425329 4.171259 16.518742
v 17.428442 4.169673 16.522192
v 17.407980 4.190136 16.522192
v 17.409567 4.187023 16.518742
v 17.412037 4.184553 16.522192
v 17.398897 4.210338 16.522192
v 17.399445 4.206887 16.518742
v 17.401031 4.203774 16.522192
v 17.396503 4.232357 16.522192
v 17.395956 4.228907 16.518742
v 17.396503 4.225456 16.522192
v 17.401031 4.254039 16.522192
v 17.399445 4.250926 16.518742
v 17.398897 4.247476 16.522192
v 17.412037 4.273261 16.522192
v 17.409567 4.270790 16.518742
v 17.407980 4.267677 16.522192
v 17.428442 4.288140 16.522192
v 17.425329 4.286554 16.518742
v 17.422859 4.284083 16.522192
v 17.448645 4.297222 16.522192
v 17.445194 4.296675 16.518742
v 17.442081 4.295089 16.522192
v 17.470663 4.299616 16.522192
v 17.467213 4.300162 16.518742
v 17.463762 4.299616 16.522192
v 17.492344 4.295089 16.522192
v 17.489231 4.296675 16.518742
v 17.485781 4.297222 16.522192
v 17.511566 4.284083 16.522192
v 17.509096 4.286554 16.518742
v 17.505983 4.288140 16.522192
v 17.526447 4.267677 16.522192
v 17.524860 4.270790 16.518742
v 17.522390 4.273261 16.522192
v 17.535528 4.247476 16.522192
v 17.534981 4.250926 16.518742
v 17.533396 4.254039 16.522192
v 17.537922 4.225456 16.522192
v 17.538469 4.228907 16.518742
v 17.537922 4.232357 16.522192
v 17.539928 4.205280 16.494495
v 17.529068 4.183966 16.494495
v 17.529068 4.183966 16.411085
v 17.539928 4.205280 16.411085
v 17.512154 4.167051 16.494495
v 17.512154 4.167051 16.411085
v 17.490839 4.156190 16.494495
v 17.490839 4.156190 16.411085
v 17.467213 4.152449 16.494495
v 17.467213 4.152449 16.411085
v 17.443586 4.156190 16.494495
v 17.443586 4.156190 16.411085
v 17.422272 4.167051 16.494495
v 17.422272 4.167051 16.411085
v 17.405357 4.183966 16.494495
v 17.405357 4.183966 16.411085
v 17.394497 4.205280 16.494495
v 17.394497 4.205280 16.411085
v 17.390755 4.228907 16.494495
v 17.390755 4.228907 16.411085
v 17.394497 4.252533 16.494495
v 17.394497 4.252533 16.411085
v 17.405357 4.273848 16.494495
v 17.405357 4.273848 16.411085
v 17.422272 4.290762 16.494495
v 17.422272 4.290762 16.411085
v 17.443586 4.301623 16.494495
v 17.443586 4.301623 16.411085
v 17.467213 4.305365 16.494495
v 17.467213 4.305365 16.411085
v 17.490839 4.301623 16.494495
v 17.490839 4.301623 16.411085
v 17.512154 4.290762 16.494495
v 17.512154 4.290762 16.411085
v 17.529068 4.273848 16.494495
v 17.529068 4.273848 16.411085
v 17.539928 4.252533 16.494495
v 17.539928 4.252533 16.411085
v 17.543671 4.228907 16.494495
v 17.543671 4.228907 16.411085
v 17.539928 4.205280 16.494495
v 17.539928 4.205280 16.411085
v 17.529068 4.183966 16.494495
v 17.539928 4.205280 16.494495
v 17.534981 4.206887 16.501980
v 17.524860 4.187023 16.501980
v 17.512154 4.167051 16.494495
v 17.509096 4.171259 16.501980
v 17.490839 4.156190 16.494495
v 17.489231 4.161138 16.501980
v 17.467213 4.152449 16.494495
v 17.467213 4.157651 16.501980
v 17.443586 4.156190 16.494495
v 17.445194 4.161138 16.501980
v 17.422272 4.167051 16.494495
v 17.425329 4.171259 16.501980
v 17.405357 4.183966 16.494495
v 17.409567 4.187023 16.501980
v 17.394497 4.205280 16.494495
v 17.399445 4.206887 16.501980
v 17.390755 4.228907 16.494495
v 17.395956 4.228907 16.501980
v 17.394497 4.252533 16.494495
v 17.399445 4.250926 16.501980
v 17.405357 4.273848 16.494495
v 17.409567 4.270790 16.501980
v 17.422272 4.290762 16.494495
v 17.425329 4.286554 16.501980
v 17.443586 4.301623 16.494495
v 17.445194 4.296675 16.501980
v 17.467213 4.305365 16.494495
v 17.467213 4.300162 16.501980
v 17.490839 4.301623 16.494495
v 17.489231 4.296675 16.501980
v 17.512154 4.290762 16.494495
v 17.509096 4.286554 16.501980
v 17.529068 4.273848 16.494495
v 17.524860 4.270790 16.501980
v 17.539928 4.252533 16.494495
v 17.534981 4.250926 16.501980
v 17.543671 4.228907 16.494495
v 17.538469 4.228907 16.501980
v 17.527941 4.212803 16.629700
v 17.535528 4.210338 16.621811
v 17.537922 4.225456 16.621811
v 17.529943 4.225456 16.629700
v 17.533396 4.203774 16.621811
v 17.525806 4.206240 16.629700
v 17.519993 4.194826 16.629700
v 17.526447 4.190136 16.621811
v 17.522390 4.184553 16.621811
v 17.515936 4.189243 16.629700
v 17.506876 4.180184 16.629700
v 17.511566 4.173730 16.621811
v 17.505983 4.169673 16.621811
v 17.501293 4.176128 16.629700
v 17.489878 4.170312 16.629700
v 17.492344 4.162724 16.621811
v 17.485781 4.160592 16.621811
v 17.483315 4.168180 16.629700
v 17.470663 4.166176 16.629700
v 17.470663 4.158197 16.621811
v 17.463762 4.158197 16.621811
v 17.463762 4.166176 16.629700
v 17.451111 4.168180 16.629700
v 17.448645 4.160592 16.621811
v 17.442081 4.162724 16.621811
v 17.444548 4.170312 16.629700
v 17.433132 4.176128 16.629700
v 17.428442 4.169673 16.621811
v 17.422859 4.173730 16.621811
v 17.427549 4.180185 16.629700
v 17.418491 4.189242 16.629700
v 17.412037 4.184553 16.621811
v 17.407980 4.190136 16.621811
v 17.414434 4.194826 16.629700
v 17.408619 4.206240 16.629700
v 17.401031 4.203774 16.621811
v 17.398897 4.210338 16.621811
v 17.406485 4.212803 16.629700
v 17.404482 4.225456 16.629700
v 17.396503 4.225456 16.621811
v 17.396503 4.232357 16.621811
v 17.404482 4.232357 16.629700
v 17.406485 4.245010 16.629700
v 17.398897 4.247476 16.621811
v 17.401031 4.254039 16.621811
v 17.408619 4.251573 16.629700
v 17.414434 4.262988 16.629700
v 17.407980 4.267677 16.621811
v 17.412037 4.273261 16.621811
v 17.418491 4.268571 16.629700
v 17.427549 4.277628 16.629700
v 17.422859 4.284083 16.621811
v 17.428442 4.288140 16.621811
v 17.433132 4.281685 16.629700
v 17.444548 4.287501 16.629700
v 17.442081 4.295089 16.621811
v 17.448645 4.297222 16.621811
v 17.451111 4.289633 16.629700
v 17.463762 4.291637 16.629700
v 17.463762 4.299616 16.621811
v 17.470663 4.299616 16.621811
v 17.470663 4.291637 16.629700
v 17.483315 4.289633 16.629700
v 17.485781 4.297222 16.621811
v 17.492344 4.295089 16.621811
v 17.489878 4.287501 16.629700
v 17.501293 4.281685 16.629700
v 17.505983 4.288140 16.621811
v 17.511566 4.284083 16.621811
v 17.506876 4.277629 16.629700
v 17.515936 4.268570 16.629700
v 17.522390 4.273261 16.621811
v 17.526447 4.267677 16.621811
v 17.519993 4.262988 16.629700
v 17.525806 4.251573 16.629700
v 17.533396 4.254039 16.621811
v 17.535528 4.247476 16.621811
v 17.527941 4.245010 16.629700
v 17.529943 4.232357 16.629700
v 17.537922 4.232357 16.621811
v 17.526447 4.190136 16.621811
v 17.533396 4.203774 16.621811
v 17.511566 4.173730 16.621811
v 17.522390 4.184553 16.621811
v 17.492344 4.162724 16.621811
v 17.505983 4.169673 16.621811
v 17.470663 4.158197 16.621811
v 17.485781 4.160592 16.621811
v 17.448645 4.160592 16.621811
v 17.463762 4.158197 16.621811
v 17.428442 4.169673 16.621811
v 17.442081 4.162724 16.621811
v 17.412037 4.184553 16.621811
v 17.422859 4.173730 16.621811
v 17.401031 4.203774 16.621811
v 17.407980 4.190136 16.621811
v 17.396503 4.225456 16.621811
v 17.398897 4.210338 16.621811
v 17.398897 4.247476 16.621811
v 17.396503 4.232357 16.621811
v 17.407980 4.267677 16.621811
v 17.401031 4.254039 16.621811
v 17.422859 4.284083 16.621811
v 17.412037 4.273261 16.621811
v 17.442081 4.295089 16.621811
v 17.428442 4.288140 16.621811
v 17.463762 4.299616 16.621811
v 17.448645 4.297222 16.621811
v 17.485781 4.297222 16.621811
v 17.470663 4.299616 16.621811
v 17.505983 4.288140 16.621811
v 17.492344 4.295089 16.621811
v 17.522390 4.273261 16.621811
v 17.511566 4.284083 16.621811
v 17.533396 4.254039 16.621811
v 17.526447 4.267677 16.621811
v 17.537922 4.232357 16.621811
v 17.535528 4.247476 16.621811
v 17.535528 4.210338 16.621811
v 17.537922 4.225456 16.621811
v 17.527941 4.212803 16.629700
v 17.525806 4.206240 16.629700
v 17.519789 4.208194 16.623299
v 17.521923 4.214757 16.623299
v 17.525806 4.206240 16.629700
v 17.533396 4.203774 16.621811
v 17.524834 4.206555 16.618052
v 17.519789 4.208194 16.623299
v 17.535528 4.210338 16.621811
v 17.527941 4.212803 16.629700
v 17.521923 4.214757 16.623299
v 17.526966 4.213119 16.618052
v 17.533396 4.203774 16.522192
v 17.524836 4.206556 16.522192
v 17.533396 4.203774 16.522192
v 17.535528 4.210338 16.522192
v 17.526968 4.213119 16.522192
v 17.524836 4.206556 16.522192
v 17.535528 4.210338 16.522192
v 17.526968 4.213119 16.522192
v 17.529943 4.232357 16.629700
v 17.529943 4.225456 16.629700
v 17.523615 4.225456 16.623299
v 17.523615 4.232357 16.623299
v 17.529943 4.225456 16.629700
v 17.537922 4.225456 16.621811
v 17.528923 4.225456 16.618053
v 17.523615 4.225456 16.623299
v 17.537922 4.232357 16.621811
v 17.529943 4.232357 16.629700
v 17.523615 4.232357 16.623299
v 17.528923 4.232357 16.618053
v 17.537922 4.225456 16.522192
v 17.528921 4.225456 16.522192
v 17.537922 4.225456 16.522192
v 17.537922 4.232357 16.522192
v 17.528921 4.232357 16.522192
v 17.528921 4.225456 16.522192
v 17.537922 4.232357 16.522192
v 17.528921 4.232357 16.522192
v 17.519993 4.194826 16.629700
v 17.515936 4.189243 16.629700
v 17.510817 4.192963 16.623301
v 17.514874 4.198546 16.623299
v 17.515936 4.189243 16.629700
v 17.522390 4.184553 16.621811
v 17.515110 4.189843 16.618053
v 17.510817 4.192963 16.623301
v 17.526447 4.190136 16.621811
v 17.519993 4.194826 16.629700
v 17.514874 4.198546 16.623299
v 17.519167 4.195426 16.618053
v 17.522390 4.184553 16.522192
v 17.515110 4.189842 16.522192
v 17.522390 4.184553 16.522192
v 17.526447 4.190136 16.522192
v 17.519167 4.195426 16.522192
v 17.515110 4.189842 16.522192
v 17.526447 4.190136 16.522192
v 17.519167 4.195426 16.522192
v 17.506876 4.180184 16.629700
v 17.501293 4.176128 16.629700
v 17.497572 4.181245 16.623299
v 17.503155 4.185301 16.623299
v 17.501293 4.176128 16.629700
v 17.505983 4.169673 16.621811
v 17.500690 4.176954 16.618052
v 17.497572 4.181245 16.623299
v 17.511566 4.173730 16.621811
v 17.506876 4.180184 16.629700
v 17.503155 4.185301 16.623299
v 17.506275 4.181010 16.618052
v 17.505983 4.169673 16.522192
v 17.500692 4.176954 16.522192
v 17.505983 4.169673 16.522192
v 17.511566 4.173730 16.522192
v 17.506275 4.181011 16.522192
v 17.500692 4.176954 16.522192
v 17.511566 4.173730 16.522192
v 17.506275 4.181011 16.522192
v 17.489878 4.170312 16.629700
v 17.483315 4.168180 16.629700
v 17.481359 4.174198 16.623301
v 17.487923 4.176330 16.623301
v 17.483315 4.168180 16.629700
v 17.485781 4.160592 16.621811
v 17.483000 4.169151 16.618053
v 17.481359 4.174198 16.623301
v 17.492344 4.162724 16.621811
v 17.489878 4.170312 16.629700
v 17.487923 4.176330 16.623301
v 17.489563 4.171284 16.618053
v 17.485781 4.160592 16.522192
v 17.483000 4.169151 16.522192
v 17.485781 4.160592 16.522192
v 17.492344 4.162724 16.522192
v 17.489563 4.171284 16.522192
v 17.483000 4.169151 16.522192
v 17.492344 4.162724 16.522192
v 17.489563 4.171284 16.522192
v 17.470663 4.166176 16.629700
v 17.463762 4.166176 16.629700
v 17.463762 4.172504 16.623301
v 17.470663 4.172504 16.623301
v 17.463762 4.166176 16.629700
v 17.463762 4.158197 16.621811
v 17.463762 4.167197 16.618053
v 17.463762 4.172504 16.623301
v 17.470663 4.158197 16.621811
v 17.470663 4.166176 16.629700
v 17.470663 4.172504 16.623301
v 17.470663 4.167197 16.618053
v 17.463762 4.158197 16.522192
v 17.463762 4.167197 16.522192
v 17.463762 4.158197 16.522192
v 17.470663 4.158197 16.522192
v 17.470663 4.167197 16.522192
v 17.463762 4.167197 16.522192
v 17.470663 4.158197 16.522192
v 17.470663 4.167197 16.522192
v 17.451111 4.168180 16.629700
v 17.444548 4.170312 16.629700
v 17.446503 4.176331 16.623301
v 17.453066 4.174198 16.623301
v 17.444548 4.170312 16.629700
v 17.442081 4.162724 16.621811
v 17.444862 4.171283 16.618053
v 17.446503 4.176331 16.623301
v 17.448645 4.160592 16.621811
v 17.451111 4.168180 16.629700
v 17.453066 4.174198 16.623301
v 17.451426 4.169150 16.618053
v 17.442081 4.162724 16.522192
v 17.444862 4.171283 16.522192
v 17.442081 4.162724 16.522192
v 17.448645 4.160592 16.522192
v 17.451426 4.169151 16.522192
v 17.444862 4.171283 16.522192
v 17.448645 4.160592 16.522192
v 17.451426 4.169151 16.522192
v 17.433132 4.176128 16.629700
v 17.427549 4.180185 16.629700
v 17.431271 4.185303 16.623301
v 17.436853 4.181247 16.623301
v 17.427549 4.180185 16.629700
v 17.422859 4.173730 16.621811
v 17.428150 4.181010 16.618053
v 17.431271 4.185303 16.623301
v 17.428442 4.169673 16.621811
v 17.433132 4.176128 16.629700
v 17.436853 4.181247 16.623301
v 17.433733 4.176954 16.618053
v 17.422859 4.173730 16.522192
v 17.428148 4.181011 16.522192
v 17.422859 4.173730 16.522192
v 17.428442 4.169673 16.522192
v 17.433731 4.176954 16.522192
v 17.428148 4.181011 16.522192
v 17.428442 4.169673 16.522192
v 17.433731 4.176954 16.522192
v 17.418491 4.189242 16.629700
v 17.414434 4.194826 16.629700
v 17.419554 4.198546 16.623299
v 17.423611 4.192963 16.623299
v 17.414434 4.194826 16.629700
v 17.407980 4.190136 16.621811
v 17.415260 4.195427 16.618053
v 17.419554 4.198546 16.623299
v 17.412037 4.184553 16.621811
v 17.418491 4.189242 16.629700
v 17.423611 4.192963 16.623299
v 17.419319 4.189843 16.618053
v 17.407980 4.190136 16.522192
v 17.415260 4.195426 16.522192
v 17.407980 4.190136 16.522192
v 17.412037 4.184553 16.522192
v 17.419317 4.189842 16.522192
v 17.415260 4.195426 16.522192
v 17.412037 4.184553 16.522192
v 17.419317 4.189842 16.522192
v 17.408619 4.206240 16.629700
v 17.406485 4.212803 16.629700
v 17.412502 4.214760 16.623301
v 17.414637 4.208197 16.623301
v 17.406485 4.212803 16.629700
v 17.398897 4.210338 16.621811
v 17.407455 4.213121 16.618053
v 17.412502 4.214760 16.623301
v 17.401031 4.203774 16.621811
v 17.408619 4.206240 16.629700
v 17.414637 4.208197 16.623301
v 17.409590 4.206558 16.618053
v 17.398897 4.210338 16.522192
v 17.407455 4.213121 16.522192
v 17.398897 4.210338 16.522192
v 17.401031 4.203774 16.522192
v 17.409590 4.206558 16.522192
v 17.407455 4.213121 16.522192
v 17.401031 4.203774 16.522192
v 17.409590 4.206558 16.522192
v 17.404482 4.225456 16.629700
v 17.404482 4.232357 16.629700
v 17.410809 4.232357 16.623301
v 17.410809 4.225456 16.623301
v 17.404482 4.232357 16.629700
v 17.396503 4.232357 16.621811
v 17.405502 4.232357 16.618053
v 17.410809 4.232357 16.623301
v 17.396503 4.225456 16.621811
v 17.404482 4.225456 16.629700
v 17.410809 4.225456 16.623301
v 17.405502 4.225456 16.618053
v 17.396503 4.232357 16.522192
v 17.405504 4.232357 16.522192
v 17.396503 4.232357 16.522192
v 17.396503 4.225456 16.522192
v 17.405504 4.225456 16.522192
v 17.405504 4.232357 16.522192
v 17.396503 4.225456 16.522192
v 17.405504 4.225456 16.522192
v 17.406485 4.245010 16.629700
v 17.408619 4.251573 16.629700
v 17.414637 4.249616 16.623301
v 17.412502 4.243052 16.623299
v 17.408619 4.251573 16.629700
v 17.401031 4.254039 16.621811
v 17.409590 4.251255 16.618053
v 17.414637 4.249616 16.623301
v 17.398897 4.247476 16.621811
v 17.406485 4.245010 16.629700
v 17.412502 4.243052 16.623299
v 17.407455 4.244692 16.618053
v 17.401031 4.254039 16.522192
v 17.409590 4.251255 16.522192
v 17.401031 4.254039 16.522192
v 17.398897 4.247476 16.522192
v 17.407455 4.244692 16.522192
v 17.409590 4.251255 16.522192
v 17.398897 4.247476 16.522192
v 17.407455 4.244692 16.522192
v 17.414434 4.262988 16.629700
v 17.418491 4.268571 16.629700
v 17.423609 4.264851 16.623301
v 17.419552 4.259268 16.623301
v 17.418491 4.268571 16.629700
v 17.412037 4.273261 16.621811
v 17.419317 4.267970 16.618053
v 17.423609 4.264851 16.623301
v 17.407980 4.267677 16.621811
v 17.414434 4.262988 16.629700
v 17.419552 4.259268 16.623301
v 17.415260 4.262387 16.618053
v 17.412037 4.273261 16.522192
v 17.419317 4.267971 16.522192
v 17.412037 4.273261 16.522192
v 17.407980 4.267677 16.522192
v 17.415260 4.262387 16.522192
v 17.419317 4.267971 16.522192
v 17.407980 4.267677 16.522192
v 17.415260 4.262387 16.522192
v 17.427549 4.277628 16.629700
v 17.433132 4.281685 16.629700
v 17.436852 4.276567 16.623299
v 17.431269 4.272510 16.623299
v 17.433132 4.281685 16.629700
v 17.428442 4.288140 16.621811
v 17.433733 4.280859 16.618053
v 17.436852 4.276567 16.623299
v 17.422859 4.284083 16.621811
v 17.427549 4.277628 16.629700
v 17.431269 4.272510 16.623299
v 17.428150 4.276803 16.618053
v 17.428442 4.288140 16.522192
v 17.433731 4.280859 16.522192
v 17.428442 4.288140 16.522192
v 17.422859 4.284083 16.522192
v 17.428148 4.276803 16.522192
v 17.433731 4.280859 16.522192
v 17.422859 4.284083 16.522192
v 17.428148 4.276803 16.522192
v 17.444548 4.287501 16.629700
v 17.451111 4.289633 16.629700
v 17.453066 4.283615 16.623301
v 17.446503 4.281483 16.623301
v 17.451111 4.289633 16.629700
v 17.448645 4.297222 16.621811
v 17.451426 4.288663 16.618053
v 17.453066 4.283615 16.623301
v 17.442081 4.295089 16.621811
v 17.444548 4.287501 16.629700
v 17.446503 4.281483 16.623301
v 17.444862 4.286530 16.618053
v 17.448645 4.297222 16.522192
v 17.451426 4.288662 16.522192
v 17.448645 4.297222 16.522192
v 17.442081 4.295089 16.522192
v 17.444862 4.286530 16.522192
v 17.451426 4.288662 16.522192
v 17.442081 4.295089 16.522192
v 17.444862 4.286530 16.522192
v 17.463762 4.291637 16.629700
v 17.470663 4.291637 16.629700
v 17.470663 4.285309 16.623301
v 17.463762 4.285309 16.623301
v 17.470663 4.291637 16.629700
v 17.470663 4.299616 16.621811
v 17.470663 4.290616 16.618053
v 17.470663 4.285309 16.623301
v 17.463762 4.299616 16.621811
v 17.463762 4.291637 16.629700
v 17.463762 4.285309 16.623301
v 17.463762 4.290616 16.618053
v 17.470663 4.299616 16.522192
v 17.470663 4.290616 16.522192
v 17.470663 4.299616 16.522192
v 17.463762 4.299616 16.522192
v 17.463762 4.290616 16.522192
v 17.470663 4.290616 16.522192
v 17.463762 4.299616 16.522192
v 17.463762 4.290616 16.522192
v 17.483315 4.289633 16.629700
v 17.489878 4.287501 16.629700
v 17.487923 4.281483 16.623301
v 17.481359 4.283616 16.623301
v 17.489878 4.287501 16.629700
v 17.492344 4.295089 16.621811
v 17.489563 4.286530 16.618053
v 17.487923 4.281483 16.623301
v 17.485781 4.297222 16.621811
v 17.483315 4.289633 16.629700
v 17.481359 4.283616 16.623301
v 17.483000 4.288662 16.618053
v 17.492344 4.295089 16.522192
v 17.489563 4.286529 16.522192
v 17.492344 4.295089 16.522192
v 17.485781 4.297222 16.522192
v 17.483000 4.288661 16.522192
v 17.489563 4.286529 16.522192
v 17.485781 4.297222 16.522192
v 17.483000 4.288661 16.522192
v 17.501293 4.281685 16.629700
v 17.506876 4.277629 16.629700
v 17.503155 4.272511 16.623297
v 17.497572 4.276567 16.623299
v 17.506876 4.277629 16.629700
v 17.511566 4.284083 16.621811
v 17.506275 4.276803 16.618052
v 17.503155 4.272511 16.623297
v 17.505983 4.288140 16.621811
v 17.501293 4.281685 16.629700
v 17.497572 4.276567 16.623299
v 17.500690 4.280859 16.618052
v 17.511566 4.284083 16.522192
v 17.506275 4.276803 16.522192
v 17.511566 4.284083 16.522192
v 17.505983 4.288140 16.522192
v 17.500692 4.280859 16.522192
v 17.506275 4.276803 16.522192
v 17.505983 4.288140 16.522192
v 17.500692 4.280859 16.522192
v 17.515936 4.268570 16.629700
v 17.519993 4.262988 16.629700
v 17.514875 4.259268 16.623301
v 17.510817 4.264850 16.623301
v 17.519993 4.262988 16.629700
v 17.526447 4.267677 16.621811
v 17.519167 4.262387 16.618053
v 17.514875 4.259268 16.623301
v 17.522390 4.273261 16.621811
v 17.515936 4.268570 16.629700
v 17.510817 4.264850 16.623301
v 17.515110 4.267970 16.618053
v 17.526447 4.267677 16.522192
v 17.519167 4.262387 16.522192
v 17.526447 4.267677 16.522192
v 17.522390 4.273261 16.522192
v 17.515110 4.267971 16.522192
v 17.519167 4.262387 16.522192
v 17.522390 4.273261 16.522192
v 17.515110 4.267971 16.522192
v 17.525806 4.251573 16.629700
v 17.527941 4.245010 16.629700
v 17.521921 4.243056 16.623299
v 17.519789 4.249619 16.623299
v 17.527941 4.245010 16.629700
v 17.535528 4.247476 16.621811
v 17.526968 4.244696 16.618052
v 17.521921 4.243056 16.623299
v 17.533396 4.254039 16.621811
v 17.525806 4.251573 16.629700
v 17.519789 4.249619 16.623299
v 17.524836 4.251259 16.618052
v 17.535528 4.247476 16.522192
v 17.526968 4.244694 16.522192
v 17.535528 4.247476 16.522192
v 17.533396 4.254039 16.522192
v 17.524836 4.251258 16.522192
v 17.526968 4.244694 16.522192
v 17.533396 4.254039 16.522192
v 17.524836 4.251258 16.522192
v 17.534981 4.206887 16.501980
v 17.538469 4.228907 16.501980
v 17.534981 4.250926 16.501980
v 17.524860 4.270790 16.501980
v 17.509096 4.286554 16.501980
v 17.489231 4.296675 16.501980
v 17.467213 4.300162 16.501980
v 17.445194 4.296675 16.501980
v 17.425329 4.286554 16.501980
v 17.409567 4.270790 16.501980
v 17.399445 4.250926 16.501980
v 17.395956 4.228907 16.501980
v 17.399445 4.206887 16.501980
v 17.409567 4.187023 16.501980
v 17.425329 4.171259 16.501980
v 17.445194 4.161138 16.501980
v 17.467213 4.157651 16.501980
v 17.489231 4.161138 16.501980
v 17.509096 4.171259 16.501980
v 17.524860 4.187023 16.501980
v 17.467213 4.228907 16.629700
vn -0.0000 -0.0000 1.0000
vn -0.0001 -0.0000 1.0000
vn 0.0001 -0.0000 1.0000
vn -0.0002 -0.0000 1.0000
vn 0.0002 -0.0000 1.0000
vn -0.0003 -0.0000 1.0000
vn 0.8912 -0.4536 0.0004
vn 0.9511 -0.3090 0.0014
vn 0.9876 -0.1568 0.0004
vn 0.7074 -0.7068 0.0004
vn 0.8090 -0.5878 0.0014
vn 0.8908 -0.4544 0.0004
vn 0.4544 -0.8908 0.0004
vn 0.5878 -0.8090 0.0014
vn 0.7068 -0.7075 0.0004
vn 0.1568 -0.9876 0.0004
vn 0.3090 -0.9511 0.0015
vn 0.4536 -0.8912 0.0005
vn -0.1560 -0.9878 0.0004
vn -0.0000 -1.0000 0.0014
vn 0.1560 -0.9878 0.0004
vn -0.4536 -0.8912 0.0005
vn -0.3090 -0.9511 0.0015
vn -0.1568 -0.9876 0.0004
vn -0.7068 -0.7074 0.0004
vn -0.5878 -0.8090 0.0014
vn -0.4544 -0.8908 0.0004
vn -0.8908 -0.4543 0.0004
vn -0.8090 -0.5878 0.0014
vn -0.7074 -0.7068 0.0004
vn -0.9876 -0.1568 0.0005
vn -0.9510 -0.3091 0.0014
vn -0.8912 -0.4536 0.0004
vn -0.9878 0.1560 0.0004
vn -1.0000 -0.0000 0.0015
vn -0.9878 -0.1560 0.0004
vn -0.8912 0.4536 0.0005
vn -0.9510 0.3091 0.0014
vn -0.9876 0.1568 0.0005
vn -0.7074 0.7068 0.0004
vn -0.8090 0.5878 0.0014
vn -0.8908 0.4544 0.0004
vn -0.4544 0.8908 0.0004
vn -0.5878 0.8090 0.0015
vn -0.7068 0.7074 0.0005
vn -0.1568 0.9876 0.0004
vn -0.3090 0.9511 0.0014
vn -0.4536 0.8912 0.0004
vn 0.1560 0.9878 0.0004
vn -0.0000 1.0000 0.0015
vn -0.1560 0.9878 0.0005
vn 0.4536 0.8912 0.0004
vn 0.3090 0.9511 0.0014
vn 0.1568 0.9876 0.0004
vn 0.7068 0.7075 0.0004
vn 0.5878 0.8090 0.0014
vn 0.4544 0.8908 0.0005
vn 0.8908 0.4544 0.0004
vn 0.8090 0.5878 0.0014
vn 0.7074 0.7068 0.0004
vn 0.9876 0.1568 0.0004
vn 0.9511 0.3090 0.0014
vn 0.8912 0.4536 0.0004
vn 0.9878 -0.1560 0.0004
vn 1.0000 -0.0000 0.0015
vn 0.9878 0.1560 0.0004
vn 0.9510 -0.3092 -0.0001
vn 0.8090 -0.5877 -0.0000
vn 0.8090 -0.5878 -0.0000
vn 0.9510 -0.3091 -0.0000
vn 0.5878 -0.8090 -0.0000
vn 0.5877 -0.8090 -0.0000
vn 0.3090 -0.9510 -0.0000
vn 0.3090 -0.9511 -0.0000
vn -0.0000 -1.0000 -0.0000
vn -0.3090 -0.9511 -0.0000
vn -0.5878 -0.8090 -0.0000
vn -0.8090 -0.5878 -0.0000
vn -0.9511 -0.3090 -0.0000
vn -1.0000 -0.0000 -0.0000
vn -0.9511 0.3090 -0.0000
vn -0.8090 0.5878 -0.0000
vn -0.5878 0.8090 -0.0000
vn -0.3090 0.9511 -0.0000
vn -0.0000 1.0000 -0.0000
vn 0.3090 0.9511 -0.0000
vn 0.5878 0.8090 -0.0000
vn 0.8090 0.5878 -0.0000
vn 0.9510 0.3090 -0.0000
vn 0.9511 0.3090 -0.0000
vn 1.0000 -0.0000 -0.0000
vn 0.9511 -0.3089 -0.0000
vn 0.6643 -0.4827 0.5707
vn 0.7810 -0.2537 0.5707
vn 0.7810 -0.2538 0.5707
vn 0.4826 -0.6643 0.5707
vn 0.4826 -0.6644 0.5707
vn 0.2537 -0.7810 0.5707
vn -0.0000 -0.8212 0.5707
vn -0.2537 -0.7809 0.5708
vn -0.4827 -0.6643 0.5707
vn -0.6642 -0.4827 0.5708
vn -0.7810 -0.2537 0.5707
vn -0.8212 -0.0000 0.5707
vn -0.7810 0.2538 0.5707
vn -0.6643 0.4827 0.5708
vn -0.6642 0.4827 0.5708
vn -0.4827 0.6643 0.5707
vn -0.2537 0.7809 0.5708
vn -0.0000 0.8212 0.5707
vn 0.2537 0.7809 0.5707
vn 0.2537 0.7809 0.5708
vn 0.4827 0.6643 0.5707
vn 0.6643 0.4827 0.5707
vn 0.7810 0.2537 0.5707
vn 0.8212 0.0001 0.5707
vn 0.8212 -0.0000 0.5707
vn 0.6988 -0.1107 0.7067
vn 0.6988 -0.1109 0.7066
vn 0.6988 -0.1106 0.7067
vn 0.6988 -0.1110 0.7066
vn 0.6303 -0.3212 0.7068
vn 0.6303 -0.3211 0.7069
vn 0.6304 -0.3212 0.7067
vn 0.6304 -0.3213 0.7066
vn 0.5002 -0.5003 0.7067
vn 0.5003 -0.5003 0.7067
vn 0.5002 -0.5004 0.7067
vn 0.3212 -0.6304 0.7067
vn 0.3212 -0.6305 0.7066
vn 0.3212 -0.6303 0.7068
vn 0.1106 -0.6987 0.7068
vn 0.1106 -0.6988 0.7067
vn 0.1107 -0.6987 0.7068
vn -0.1106 -0.6987 0.7068
vn -0.1106 -0.6988 0.7067
vn -0.1105 -0.6987 0.7068
vn -0.3213 -0.6303 0.7067
vn -0.3214 -0.6302 0.7068
vn -0.3212 -0.6303 0.7067
vn -0.3211 -0.6304 0.7067
vn -0.5003 -0.5003 0.7067
vn -0.5002 -0.5003 0.7067
vn 0.6304 0.3211 -0.7067
vn 0.6304 0.3213 -0.7066
vn 0.6304 0.3210 -0.7068
vn 0.6989 0.1106 -0.7067
vn 0.6988 0.1105 -0.7067
vn 0.6989 0.1106 -0.7066
vn -0.6988 0.1105 0.7067
vn -0.6989 0.1104 0.7067
vn -0.6988 0.1106 0.7067
vn -0.6988 0.1107 0.7067
vn -0.6304 0.3211 0.7067
vn -0.6303 0.3213 0.7068
vn -0.6305 0.3210 0.7067
vn -0.5003 0.5003 0.7067
vn -0.5004 0.5002 0.7067
vn -0.5002 0.5003 0.7067
vn -0.5002 0.5004 0.7067
vn -0.3212 0.6303 0.7068
vn -0.3212 0.6303 0.7067
vn -0.3213 0.6303 0.7068
vn -0.1106 0.6987 0.7068
vn -0.1106 0.6988 0.7067
vn -0.1107 0.6987 0.7068
vn 0.1106 0.6987 0.7068
vn 0.1106 0.6988 0.7067
vn 0.1105 0.6987 0.7068
vn 0.3212 0.6304 0.7067
vn 0.3213 0.6303 0.7067
vn 0.3211 0.6304 0.7067
vn 0.5002 0.5004 0.7067
vn 0.5002 0.5003 0.7067
vn 0.5002 0.5003 0.7068
vn 0.6304 0.3212 0.7067
vn 0.6305 0.3211 0.7066
vn 0.6303 0.3213 0.7068
vn 0.6988 0.1107 0.7067
vn 0.6987 0.1102 0.7069
vn 0.6988 0.1106 0.7067
vn 0.6989 0.1109 0.7065
vn 0.8910 -0.4539 -0.0000
vn 0.7071 -0.7071 -0.0000
vn 0.4540 -0.8910 -0.0000
vn 0.1564 -0.9877 -0.0000
vn -0.1564 -0.9877 -0.0000
vn -0.4539 -0.8910 -0.0000
vn -0.7071 -0.7071 -0.0000
vn -0.8911 -0.4538 -0.0000
vn -0.9877 -0.1562 -0.0000
vn -0.9877 0.1565 -0.0000
vn -0.8910 0.4540 -0.0000
vn -0.7071 0.7071 -0.0000
vn -0.4540 0.8910 -0.0000
vn -0.1564 0.9877 -0.0000
vn 0.1564 0.9877 -0.0000
vn 0.4539 0.8910 -0.0000
vn 0.7070 0.7072 -0.0000
vn 0.7070 0.7073 -0.0000
vn 0.8910 0.4540 -0.0000
vn 0.9877 0.1562 -0.0000
vn 0.9877 -0.1565 -0.0000
vn -0.6763 0.2202 0.7029
vn -0.6763 0.2202 0.7030
vn -0.6764 0.2202 0.7029
vn 0.3089 0.9511 -0.0001
vn 0.3088 0.9511 -0.0001
vn 0.3087 0.9512 -0.0001
vn 0.3091 0.9510 -0.0002
vn 0.3090 0.9511 -0.0003
vn 0.7111 -0.0000 -0.7031
vn 0.7112 -0.0000 -0.7030
vn -0.5753 0.4179 0.7031
vn -0.5753 0.4180 0.7031
vn -0.5753 0.4173 0.7035
vn -0.5752 0.4182 0.7030
vn 0.5879 0.8089 -0.0000
vn 0.5878 0.8090 0.0001
vn 0.5877 0.8091 -0.0000
vn -0.4179 0.5756 0.7029
vn -0.4179 0.5755 0.7029
vn -0.4180 0.5756 0.7028
vn -0.4179 0.5755 0.7030
vn 0.8088 0.5882 -0.0002
vn 0.8090 0.5878 0.0001
vn 0.8087 0.5882 -0.0001
vn 0.8088 0.5881 -0.0002
vn 0.8091 0.5877 -0.0002
vn 0.8090 0.5879 0.0001
vn 0.8089 0.5879 -0.0000
vn 0.8086 0.5884 -0.0000
vn -0.2198 0.6762 0.7032
vn -0.2197 0.6762 0.7032
vn 0.9511 0.3090 0.0001
vn 0.9511 0.3089 -0.0000
vn 0.9510 0.3091 -0.0000
vn 0.9509 0.3094 0.0001
vn 0.9510 0.3092 0.0001
vn 0.9510 0.3090 0.0001
vn 0.9510 0.3092 -0.0000
vn 0.9511 0.3088 -0.0000
vn -0.0000 0.7111 0.7031
vn -0.0000 0.7110 0.7032
vn 1.0000 -0.0002 -0.0000
vn 1.0000 -0.0001 -0.0000
vn 1.0000 0.0002 -0.0000
vn 1.0000 0.0001 -0.0000
vn 0.2197 0.6762 0.7032
vn 0.2200 0.6765 0.7029
vn 0.9511 -0.3090 -0.0000
vn 0.9511 -0.3090 -0.0001
vn 0.9511 -0.3088 -0.0000
vn 0.4180 0.5753 0.7031
vn 0.4179 0.5753 0.7031
vn 0.4181 0.5753 0.7030
vn 0.4177 0.5754 0.7032
vn 0.8089 -0.5879 -0.0000
vn 0.8090 -0.5879 -0.0000
vn 0.8088 -0.5881 -0.0000
vn 0.8088 -0.5881 0.0007
vn 0.8089 -0.5879 -0.0001
vn 0.8092 -0.5876 -0.0000
vn 0.8091 -0.5876 -0.0000
vn 0.5754 0.4179 0.7031
vn 0.5754 0.4180 0.7030
vn 0.5878 -0.8090 -0.0001
vn 0.5879 -0.8090 -0.0000
vn 0.5879 -0.8089 -0.0000
vn 0.5879 -0.8090 -0.0002
vn 0.5879 -0.8090 0.0001
vn 0.5879 -0.8089 -0.0004
vn 0.5878 -0.8090 0.0001
vn 0.5877 -0.8091 -0.0000
vn 0.6762 0.2201 0.7031
vn 0.6761 0.2201 0.7031
vn 0.6764 0.2199 0.7029
vn 0.6760 0.2203 0.7033
vn 0.3091 -0.9510 -0.0001
vn 0.3092 -0.9510 -0.0000
vn 0.3092 -0.9510 -0.0002
vn 0.3092 -0.9510 0.0002
vn 0.3093 -0.9510 -0.0001
vn 0.3094 -0.9509 -0.0000
vn 0.7111 -0.0000 0.7031
vn 0.7112 -0.0000 0.7030
vn -0.0000 1.0000 -0.0001
vn 0.6763 -0.2202 0.7030
vn 0.6763 -0.2202 0.7029
vn 0.6762 -0.2202 0.7030
vn 0.6764 -0.2201 0.7029
vn 0.3092 0.9510 -0.0001
vn 0.3093 0.9510 -0.0001
vn 0.3094 0.9509 -0.0001
vn 0.3092 0.9510 -0.0002
vn 0.3093 0.9510 -0.0000
vn 0.3092 0.9510 -0.0000
vn 0.5753 -0.4181 0.7030
vn 0.5753 -0.4182 0.7030
vn 0.5877 0.8090 -0.0000
vn 0.5875 0.8092 -0.0000
vn 0.5880 0.8089 -0.0000
vn 0.4181 -0.5753 0.7030
vn 0.4180 -0.5754 0.7030
vn 0.4183 -0.5752 0.7030
vn 0.4179 -0.5755 0.7030
vn 0.8091 0.5877 -0.0000
vn 0.8090 0.5879 -0.0000
vn 0.8095 0.5871 0.0001
vn 0.2197 -0.6762 0.7032
vn 0.2198 -0.6762 0.7032
vn 0.9511 0.3090 -0.0001
vn 0.9509 0.3094 -0.0000
vn 0.9510 0.3090 -0.0001
vn 0.9510 0.3091 -0.0001
vn -0.0000 -0.7110 0.7032
vn -0.0000 -0.7110 0.7031
vn -0.0000 -0.7111 0.7031
vn -0.2197 -0.6762 0.7032
vn -0.2198 -0.6762 0.7032
vn 0.9510 -0.3091 0.0001
vn 0.9511 -0.3089 0.0001
vn 0.9511 -0.3088 0.0001
vn 0.9511 -0.3090 0.0001
vn -0.0004 -0.0000 1.0000
vn 0.9510 -0.3092 -0.0000
vn -0.4179 -0.5756 0.7029
vn -0.4178 -0.5757 0.7029
vn -0.4179 -0.5755 0.7030
vn 0.8089 -0.5880 -0.0001
vn 0.8087 -0.5882 -0.0001
vn 0.8088 -0.5881 -0.0002
vn 0.8091 -0.5877 -0.0000
vn 0.8087 -0.5882 -0.0000
vn 0.5753 0.4179 -0.7031
vn 0.5751 0.4180 -0.7032
vn 0.5752 0.4180 -0.7031
vn 0.5751 0.4182 -0.7032
vn 0.5875 -0.8092 -0.0001
vn 0.5880 -0.8089 -0.0000
vn 0.6763 0.2199 -0.7030
vn 0.6763 0.2202 -0.7030
vn 0.6764 0.2200 -0.7030
vn 0.6764 0.2202 -0.7028
vn 0.3089 -0.9511 -0.0001
vn 0.3088 -0.9511 -0.0001
vn 0.3087 -0.9512 -0.0001
vn 0.3089 -0.9511 -0.0000
vn -0.9510 0.3091 -0.0000
vn -0.9510 -0.3090 -0.0000
s 1
usemtl M_pCylinder177_lambert1_0_0
f 1//1 3//1 2//2
f 2//2 3//1 4//1
f 4//1 3//1 5//3
f 5//3 3//1 6//1
f 6//1 3//1 7//2
f 7//2 3//1 8//1
f 8//1 3//1 9//3
f 9//3 3//1 10//1
f 10//1 3//1 11//1
f 11//1 3//1 12//1
f 12//1 3//1 13//3
f 13//3 3//1 14//1
f 14//1 3//1 15//2
f 15//2 3//1 16//1
f 16//1 3//1 17//3
f 17//3 3//1 18//1
f 18//1 3//1 19//2
f 19//2 3//1 20//1
f 20//1 3//1 21//1
f 21//1 3//1 1//1
f 22//1 23//1 24//1
f 25//4 26//3 27//2
f 28//4 29//1 30//4
f 31//2 32//1 33//4
f 34//3 35//3 36//1
f 37//1 38//5 39//2
f 40//3 41//2 42//4
f 43//3 44//3 45//1
f 46//2 47//2 48//1
f 49//1 50//3 51//1
f 52//5 53//2 54//3
f 55//1 56//1 57//1
f 58//1 59//1 60//1
f 61//2 62//1 63//5
f 64//1 65//6 66//2
f 67//5 68//1 69//5
f 70//3 71//3 72//3
f 73//2 74//1 75//1
f 76//4 77//4 78//3
f 79//1 80//2 81//1
f 82//7 83//8 84//9
f 85//10 86//11 87//12
f 88//13 89//14 90//15
f 91//16 92//17 93//18
f 94//19 95//20 96//21
f 97//22 98//23 99//24
f 100//25 101//26 102//27
f 103//28 104//29 105//30
f 106//31 107//32 108//33
f 109//34 110//35 111//36
f 112//37 113//38 114//39
f 115//40 116//41 117//42
f 118//43 119//44 120//45
f 121//46 122//47 123//48
f 124//49 125//50 126//51
f 127//52 128//53 129//54
f 130//55 131//56 132//57
f 133//58 134//59 135//60
f 136//61 137//62 138//63
f 139//64 140//65 141//66
f 142//67 143//68 144//69
f 142//67 144//69 145//70
f 143//68 146//71 147//72
f 143//68 147//72 144//69
f 146//71 148//73 149//74
f 146//71 149//74 147//72
f 148//73 150//75 151//75
f 148//73 151//75 149//74
f 150//75 152//76 153//76
f 150//75 153//76 151//75
f 152//76 154//77 155//77
f 152//76 155//77 153//76
f 154//77 156//78 157//78
f 154//77 157//78 155//77
f 156//78 158//79 159//79
f 156//78 159//79 157//78
f 158//79 160//80 161//80
f 158//79 161//80 159//79
f 160//80 162//81 163//81
f 160//80 163//81 161//80
f 162//81 164//82 165//82
f 162//81 165//82 163//81
f 164//82 166//83 167//83
f 164//82 167//83 165//82
f 166//83 168//84 169//84
f 166//83 169//84 167//83
f 168//84 170//85 171//85
f 168//84 171//85 169//84
f 170//85 172//86 173//86
f 170//85 173//86 171//85
f 172//86 174//87 175//87
f 172//86 175//87 173//86
f 174//87 176//88 177//88
f 174//87 177//88 175//87
f 176//88 178//89 179//90
f 176//88 179//90 177//88
f 178//89 180//91 181//91
f 178//89 181//91 179//90
f 180//91 182//92 183//92
f 180//91 183//92 181//91
f 184//93 185//94 186//95
f 184//93 186//95 187//93
f 188//96 184//93 187//93
f 188//96 187//93 189//97
f 190//98 188//96 189//97
f 190//98 189//97 191//98
f 192//99 190//98 191//98
f 192//99 191//98 193//99
f 194//100 192//99 193//99
f 194//100 193//99 195//100
f 196//101 194//100 195//100
f 196//101 195//100 197//101
f 198//102 196//101 197//101
f 198//102 197//101 199//102
f 200//103 198//102 199//102
f 200//103 199//102 201//103
f 202//104 200//103 201//103
f 202//104 201//103 203//104
f 204//105 202//104 203//104
f 204//105 203//104 205//105
f 206//106 204//105 205//105
f 206//106 205//105 207//107
f 208//108 206//106 207//107
f 208//108 207//107 209//108
f 210//109 208//108 209//108
f 210//109 209//108 211//109
f 212//110 210//109 211//109
f 212//110 211//109 213//110
f 214//111 212//110 213//110
f 214//111 213//110 215//112
f 216//113 214//111 215//112
f 216//113 215//112 217//113
f 218//114 216//113 217//113
f 218//114 217//113 219//114
f 220//115 218//114 219//114
f 220//115 219//114 221//115
f 222//116 220//115 221//115
f 222//116 221//115 223//117
f 185//94 222//116 223//117
f 185//94 223//117 186//95
f 224//118 225//119 226//120
f 224//118 226//120 227//121
f 228//122 229//123 230//124
f 228//122 230//124 231//125
f 232//126 233//127 234//128
f 232//126 234//128 235//128
f 236//129 237//130 238//129
f 236//129 238//129 239//131
f 240//132 241//133 242//134
f 240//132 242//134 243//134
f 244//135 245//136 246//135
f 244//135 246//135 247//137
f 248//138 249//139 250//140
f 248//138 250//140 251//141
f 252//142 253//142 254//142
f 252//142 254//142 255//143
f 256//144 258//144 257//145
f 256//144 259//146 258//144
f 260//147 262//148 261//149
f 260//147 263//148 262//148
f 264//150 265//151 266//152
f 264//150 266//152 267//153
f 268//154 269//155 270//154
f 268//154 270//154 271//156
f 272//157 273//158 274//159
f 272//157 274//159 275//160
f 276//161 277//162 278//161
f 276//161 278//161 279//163
f 280//164 281//165 282//166
f 280//164 282//166 283//166
f 284//167 285//168 286//167
f 284//167 286//167 287//169
f 288//170 289//171 290//170
f 288//170 290//170 291//172
f 292//173 293//173 294//174
f 292//173 294//174 295//175
f 296//176 297//177 298//176
f 296//176 298//176 299//178
f 300//179 301//180 302//181
f 300//179 302//181 303//182
f 304//183 87//12 82//7
f 304//183 82//7 305//183
f 306//184 90//15 85//10
f 306//184 85//10 307//184
f 308//185 93//18 88//13
f 308//185 88//13 309//185
f 310//186 96//21 91//16
f 310//186 91//16 311//186
f 312//187 99//24 94//19
f 312//187 94//19 313//187
f 314//188 102//27 97//22
f 314//188 97//22 315//188
f 316//189 105//30 100//25
f 316//189 100//25 317//189
f 318//190 108//33 103//28
f 318//190 103//28 319//190
f 320//191 111//36 106//31
f 320//191 106//31 321//191
f 322//192 114//39 109//34
f 322//192 109//34 323//192
f 324//193 117//42 112//37
f 324//193 112//37 325//193
f 326//194 120//45 115//40
f 326//194 115//40 327//194
f 328//195 123//48 118//43
f 328//195 118//43 329//195
f 330//196 126//51 121//46
f 330//196 121//46 331//196
f 332//197 129//54 124//49
f 332//197 124//49 333//197
f 334//198 132//57 127//52
f 334//198 127//52 335//198
f 336//199 135//60 130//55
f 336//199 130//55 337//200
f 338//201 138//63 133//58
f 338//201 133//58 339//201
f 340//202 141//66 136//61
f 340//202 136//61 341//202
f 342//203 84//9 139//64
f 342//203 139//64 343//203
f 344//204 346//204 345//205
f 344//204 347//206 346//204
f 348//207 349//207 350//208
f 348//207 350//208 351//209
f 352//207 354//210 353//211
f 352//207 355//86 354//210
f 349//207 356//86 357//86
f 349//207 357//86 350//208
f 358//1 359//3 360//2
f 358//1 360//2 361//4
f 362//86 355//86 352//207
f 362//86 363//86 355//86
f 364//212 365//212 366//212
f 364//212 366//212 367//213
f 368//85 369//85 370//85
f 368//85 370//85 371//85
f 372//85 374//85 373//85
f 372//85 375//85 374//85
f 369//85 376//85 377//85
f 369//85 377//85 370//85
f 378//1 379//1 380//1
f 378//1 380//1 381//1
f 382//85 375//85 372//85
f 382//85 383//85 375//85
f 384//214 386//215 385//216
f 384//214 387//217 386//215
f 388//87 389//218 390//218
f 388//87 390//218 391//219
f 392//218 394//87 393//219
f 392//218 395//218 394//87
f 389//218 396//218 397//220
f 389//218 397//220 390//218
f 398//1 399//5 400//1
f 398//1 400//1 401//4
f 402//220 395//218 392//218
f 402//220 403//220 395//218
f 404//221 406//222 405//223
f 404//221 407//224 406//222
f 408//225 409//226 410//227
f 408//225 410//227 411//228
f 412//88 414//88 413//229
f 412//88 415//230 414//88
f 409//226 416//231 417//232
f 409//226 417//232 410//227
f 418//1 419//1 420//1
f 418//1 420//1 421//1
f 422//88 415//230 412//88
f 422//88 423//88 415//230
f 424//233 426//234 425//233
f 424//233 427//234 426//234
f 428//235 429//236 430//237
f 428//235 430//237 431//238
f 432//237 434//239 433//240
f 432//237 435//241 434//239
f 429//236 436//242 437//242
f 429//236 437//242 430//237
f 438//1 439//1 440//2
f 438//1 440//2 441//2
f 442//90 435//241 432//237
f 442//90 443//90 435//241
f 444//243 446//244 445//243
f 444//243 447//244 446//244
f 448//91 449//245 450//246
f 448//91 450//246 451//247
f 452//91 454//247 453//248
f 452//91 455//248 454//247
f 449//245 456//91 457//91
f 449//245 457//91 450//246
f 458//1 459//1 460//1
f 458//1 460//1 461//1
f 462//91 455//248 452//91
f 462//91 463//91 455//248
f 464//249 466//249 465//250
f 464//249 467//249 466//249
f 468//70 469//251 470//92
f 468//70 470//92 471//251
f 472//251 474//252 473//253
f 472//251 475//70 474//252
f 469//251 476//251 477//251
f 469//251 477//251 470//92
f 478//1 479//1 480//2
f 478//1 480//2 481//2
f 482//251 475//70 472//251
f 482//251 483//251 475//70
f 484//254 486//255 485//256
f 484//254 487//257 486//255
f 488//258 489//259 490//260
f 488//258 490//260 491//258
f 492//258 494//260 493//261
f 492//258 495//262 494//260
f 489//259 496//263 497//263
f 489//259 497//263 490//260
f 498//1 499//1 500//1
f 498//1 500//1 501//1
f 502//264 495//262 492//258
f 502//264 503//264 495//262
f 504//265 506//266 505//265
f 504//265 507//266 506//266
f 508//267 509//268 510//269
f 508//267 510//269 511//270
f 512//71 514//271 513//272
f 512//71 515//273 514//271
f 509//268 516//274 517//274
f 509//268 517//274 510//269
f 518//1 519//1 520//1
f 518//1 520//1 521//1
f 522//274 515//273 512//71
f 522//274 523//274 515//273
f 524//275 526//276 525//277
f 524//275 527//278 526//276
f 528//279 529//280 530//280
f 528//279 530//280 531//281
f 532//282 534//281 533//281
f 532//282 535//283 534//281
f 529//280 536//284 537//284
f 529//280 537//284 530//280
f 538//1 539//3 540//2
f 538//1 540//2 541//4
f 542//284 535//283 532//282
f 542//284 543//284 535//283
f 544//285 546//285 545//286
f 544//285 547//285 546//285
f 548//85 550//85 549//85
f 548//85 551//287 550//85
f 552//85 553//85 554//85
f 552//85 554//85 555//85
f 549//85 557//85 556//85
f 549//85 550//85 557//85
f 558//1 559//1 560//1
f 558//1 560//1 561//1
f 562//85 552//85 555//85
f 562//85 555//85 563//85
f 564//288 566//289 565//290
f 564//288 567//291 566//289
f 568//292 570//293 569//294
f 568//292 571//207 570//293
f 572//293 573//293 574//295
f 572//293 574//295 575//292
f 569//294 577//296 576//296
f 569//294 570//293 577//296
f 578//1 579//3 580//2
f 578//1 580//2 581//4
f 582//297 572//293 575//292
f 582//297 575//292 583//297
f 584//298 586//298 585//298
f 584//298 587//299 586//298
f 588//300 590//87 589//218
f 588//300 591//301 590//87
f 592//87 593//302 594//218
f 592//87 594//218 595//87
f 589//218 597//87 596//87
f 589//218 590//87 597//87
f 598//1 599//5 600//1
f 598//1 600//1 601//4
f 602//302 592//87 595//87
f 602//302 595//87 603//302
f 604//303 606//304 605//305
f 604//303 607//306 606//304
f 608//226 610//307 609//308
f 608//226 611//309 610//307
f 612//308 613//88 614//226
f 612//308 614//226 615//230
f 609//308 617//307 616//307
f 609//308 610//307 617//307
f 618//2 619//4 620//2
f 618//2 620//2 621//1
f 622//88 612//308 615//230
f 622//88 615//230 623//88
f 624//310 626//310 625//311
f 624//310 627//310 626//310
f 628//312 630//90 629//242
f 628//312 631//313 630//90
f 632//90 633//314 634//315
f 632//90 634//315 635//89
f 629//242 637//90 636//90
f 629//242 630//90 637//90
f 638//1 639//1 640//1
f 638//1 640//1 641//1
f 642//90 632//90 635//89
f 642//90 635//89 643//90
f 644//316 646//317 645//316
f 644//316 647//318 646//317
f 648//246 650//91 649//246
f 648//246 651//91 650//91
f 652//248 653//248 654//91
f 652//248 654//91 655//91
f 649//246 657//91 656//91
f 649//246 650//91 657//91
f 658//1 659//1 660//1
f 658//1 660//1 661//1
f 662//91 652//248 655//91
f 662//91 655//91 663//91
f 664//319 666//319 665//320
f 664//319 667//319 666//319
f 668//321 670//251 669//70
f 668//321 671//322 670//251
f 672//92 673//323 674//324
f 672//92 674//324 675//324
f 669//70 677//251 676//251
f 669//70 670//251 677//251
f 678//3 679//1 680//1
f 678//3 680//1 681//325
f 682//326 672//92 675//324
f 682//326 675//324 683//326
f 684//327 686//327 685//328
f 684//327 687//329 686//327
f 688//69 690//258 689//69
f 688//69 691//260 690//258
f 692//330 693//331 694//332
f 692//330 694//332 695//330
f 689//69 697//68 696//333
f 689//69 690//258 697//68
f 698//1 699//1 700//1
f 698//1 700//1 701//1
f 702//258 692//330 695//330
f 702//258 695//330 703//334
f 704//335 705//336 706//337
f 704//335 706//337 707//338
f 708//274 710//274 709//71
f 708//274 711//339 710//274
f 712//71 713//269 714//71
f 712//71 714//71 715//274
f 709//71 717//269 716//340
f 709//71 710//274 717//269
f 718//1 719//1 720//1
f 718//1 720//1 721//1
f 722//269 712//71 715//274
f 722//269 715//274 723//269
f 724//341 725//342 726//343
f 724//341 726//343 727//344
f 728//345 730//345 729//345
f 728//345 731//345 730//345
f 732//346 733//347 734//346
f 732//346 734//346 735//345
f 729//345 737//74 736//74
f 729//345 730//345 737//74
f 738//2 739//2 740//1
f 738//2 740//1 741//1
f 742//348 732//346 735//345
f 742//348 735//345 743//74
f 745//91 83//8 744//251
f 83//8 745//91 84//9
f 84//9 745//91 139//64
f 139//64 745//91 140//65
f 746//90 140//65 745//91
f 140//65 746//90 141//66
f 141//66 746//90 136//61
f 136//61 746//90 137//62
f 747//88 137//62 746//90
f 137//62 747//88 138//63
f 138//63 747//88 133//58
f 133//58 747//88 134//59
f 131//56 747//88 748//220
f 747//88 131//56 134//59
f 134//59 131//56 130//55
f 134//59 130//55 135//60
f 128//53 748//220 749//86
f 748//220 128//53 131//56
f 131//56 128//53 127//52
f 131//56 127//52 132//57
f 125//50 749//86 750//85
f 749//86 125//50 128//53
f 128//53 125//50 124//49
f 128//53 124//49 129//54
f 122//47 750//85 751//84
f 750//85 122//47 125//50
f 125//50 122//47 121//46
f 125//50 121//46 126//51
f 119//44 751//84 752//83
f 751//84 119//44 122//47
f 122//47 119//44 118//43
f 122//47 118//43 123//48
f 115//40 753//82 116//41
f 753//82 115//40 752//83
f 752//83 115//40 120//45
f 752//83 120//45 119//44
f 112//37 754//349 113//38
f 754//349 112//37 753//82
f 753//82 112//37 117//42
f 753//82 117//42 116//41
f 109//34 755//80 110//35
f 755//80 109//34 754//349
f 754//349 109//34 114//39
f 754//349 114//39 113//38
f 106//31 756//350 107//32
f 756//350 106//31 755//80
f 755//80 106//31 111//36
f 755//80 111//36 110//35
f 103//28 757//78 104//29
f 757//78 103//28 756//350
f 756//350 103//28 108//33
f 756//350 108//33 107//32
f 100//25 758//77 101//26
f 758//77 100//25 757//78
f 757//78 100//25 105//30
f 757//78 105//30 104//29
f 98//23 758//77 759//76
f 758//77 98//23 101//26
f 101//26 98//23 97//22
f 101//26 97//22 102//27
f 95//20 759//76 760//75
f 759//76 95//20 98//23
f 98//23 95//20 94//19
f 98//23 94//19 99//24
f 92//17 760//75 761//74
f 760//75 92//17 95//20
f 95//20 92//17 91//16
f 95//20 91//16 96//21
f 89//14 761//74 762//71
f 761//74 89//14 92//17
f 92//17 89//14 88//13
f 92//17 88//13 93//18
f 86//11 762//71 763//333
f 762//71 86//11 89//14
f 89//14 86//11 85//10
f 89//14 85//10 90//15
f 744//251 86//11 763//333
f 86//11 744//251 87//12
f 87//12 744//251 82//7
f 82//7 744//251 83//8
f 22//1 25//4 764//1
f 25//4 22//1 24//1
f 25//4 24//1 26//3
f 25//4 79//1 764//1
f 79//1 25//4 80//2
f 80//2 25//4 27//2
f 28//4 22//1 764//1
f 22//1 28//4 30//4
f 22//1 30//4 23//1
f 31//2 28//4 764//1
f 28//4 31//2 33//4
f 28//4 33//4 29//1
f 34//3 31//2 764//1
f 31//2 34//3 36//1
f 31//2 36//1 32//1
f 39//2 764//1 37//1
f 764//1 39//2 34//3
f 34//3 39//2 35//3
f 42//4 764//1 40//3
f 764//1 42//4 38//5
f 764//1 38//5 37//1
f 45//1 764//1 43//3
f 764//1 45//1 41//2
f 764//1 41//2 40//3
f 44//3 46//2 48//1
f 46//2 44//3 764//1
f 764//1 44//3 43//3
f 47//2 49//1 51//1
f 49//1 47//2 764//1
f 764//1 47//2 46//2
f 50//3 52//5 54//3
f 52//5 50//3 49//1
f 52//5 49//1 764//1
f 52//5 57//1 53//2
f 57//1 52//5 55//1
f 55//1 52//5 764//1
f 55//1 60//1 56//1
f 60//1 55//1 764//1
f 60//1 764//1 58//1
f 58//1 63//5 59//1
f 63//5 58//1 764//1
f 63//5 764//1 61//2
f 764//1 62//1 61//2
f 62//1 764//1 66//2
f 66//2 764//1 64//1
f 764//1 65//6 64//1
f 65//6 764//1 69//5
f 69//5 764//1 67//5
f 70//3 67//5 764//1
f 67//5 70//3 68//1
f 68//1 70//3 72//3
f 73//2 70//3 764//1
f 70//3 73//2 71//3
f 71//3 73//2 75//1
f 76//4 73//2 764//1
f 73//2 76//4 74//1
f 74//1 76//4 78//3
f 79//1 76//4 764//1
f 76//4 79//1 77//4
f 77//4 79//1 81//1
