# Blender 4.4.1
# www.blender.org
mtllib SM_polySurface165_lambert1_0_0.mtl
o SM_polySurface165_lambert1_0_0
v 2.989957 8.335592 2.473425
v 2.999957 8.487127 2.473424
v 4.634757 8.487127 2.473424
v 4.644758 8.335592 2.473425
v 4.644758 8.335592 2.473425
v 4.644758 8.335592 -4.732600
v 2.989957 8.335592 -4.732600
v 2.989957 8.335592 2.473425
v 2.989957 8.335592 -4.732600
v 4.644758 8.335592 -4.732600
v 4.634757 8.487127 -4.732600
v 2.999957 8.487127 -4.732600
v 4.644757 8.184914 2.483424
v 4.644757 8.184914 -4.742600
v 4.644758 8.335592 -4.732600
v 4.644758 8.335592 2.473425
v 2.989957 8.335592 2.473425
v 2.989957 8.335592 -4.732600
v 2.989957 8.184914 -4.742600
v 2.989957 8.184914 2.483424
v 2.999957 8.325591 2.483424
v 4.634757 8.325591 2.483424
v 4.634757 8.487127 2.483424
v 2.999957 8.487127 2.483424
v 4.634757 8.325591 2.483424
v 2.999957 8.325591 2.483424
v 2.999957 8.325591 -4.742600
v 4.634757 8.325591 -4.742600
v 2.999957 8.325591 -4.742600
v 2.999957 8.487127 -4.742600
v 4.634757 8.487127 -4.742600
v 4.634757 8.325591 -4.742600
v 4.634757 8.184914 2.483424
v 4.634757 8.325591 2.483424
v 4.634757 8.325591 -4.742600
v 4.634757 8.184914 -4.742600
v 2.999957 8.325591 2.483424
v 2.999957 8.184914 2.483424
v 2.999957 8.184914 -4.742600
v 2.999957 8.325591 -4.742600
v 2.999957 8.325591 2.483424
v 2.999957 8.487127 2.483424
v 2.999957 8.487127 2.473424
v 2.989957 8.335592 2.473425
v 2.999957 8.487127 2.483424
v 4.634757 8.487127 2.483424
v 4.634757 8.487127 2.473424
v 2.999957 8.487127 2.473424
v 4.634757 8.487127 2.483424
v 4.634757 8.325591 2.483424
v 4.644758 8.335592 2.473425
v 4.634757 8.487127 2.473424
v 4.634757 8.325591 -4.742600
v 4.634757 8.487127 -4.742600
v 4.634757 8.487127 -4.732600
v 4.644758 8.335592 -4.732600
v 4.634757 8.487127 -4.742600
v 2.999957 8.487127 -4.742600
v 2.999957 8.487127 -4.732600
v 4.634757 8.487127 -4.732600
v 2.999957 8.487127 -4.742600
v 2.999957 8.325591 -4.742600
v 2.989957 8.335592 -4.732600
v 2.999957 8.487127 -4.732600
v 4.634757 8.184914 2.483424
v 4.634757 8.184914 -4.742600
v 4.644757 8.184914 -4.742600
v 4.644757 8.184914 2.483424
v 4.634757 8.184914 -4.742600
v 4.634757 8.325591 -4.742600
v 4.644758 8.335592 -4.732600
v 4.644757 8.184914 -4.742600
v 4.634757 8.325591 2.483424
v 4.634757 8.184914 2.483424
v 4.644757 8.184914 2.483424
v 4.644758 8.335592 2.473425
v 2.999957 8.325591 -4.742600
v 2.999957 8.184914 -4.742600
v 2.989957 8.184914 -4.742600
v 2.989957 8.335592 -4.732600
v 2.999957 8.184914 -4.742600
v 2.999957 8.184914 2.483424
v 2.989957 8.184914 2.483424
v 2.989957 8.184914 -4.742600
v 2.999957 8.184914 2.483424
v 2.999957 8.325591 2.483424
v 2.989957 8.335592 2.473425
v 2.989957 8.184914 2.483424
vn -0.0000 -0.0000 1.0000
vn -0.0000 1.0000 -0.0000
vn -0.0000 -0.0000 -1.0000
vn 1.0000 -0.0000 -0.0000
vn 0.8192 0.1954 -0.5392
vn 0.8951 -0.4409 -0.0659
vn 0.8883 0.4584 0.0284
vn 0.4778 -0.2967 -0.8269
vn 0.8883 0.0284 0.4584
vn 0.8882 0.0284 0.4585
vn 0.8882 0.0284 -0.4585
vn 0.8883 0.0284 -0.4584
vn 0.8883 0.0283 -0.4584
vn 0.9363 0.3450 0.0659
vn 0.5906 -0.2354 0.7719
vn 0.7811 0.2645 0.5657
vn 0.8562 -0.5158 -0.0302
vn 0.4345 0.0309 -0.9001
vn 0.4347 0.0309 -0.9001
vn 0.4347 0.0309 -0.9000
vn 0.4346 0.0309 -0.9001
vn 0.4347 0.0309 0.9001
vn 0.4345 0.0309 0.9001
vn 0.4344 0.0309 0.9002
vn 0.4346 0.0309 0.9001
vn -0.4347 0.0309 -0.9000
vn -0.4346 0.0309 -0.9001
vn -0.4345 0.0309 -0.9002
vn 0.0667 0.3548 -0.9326
vn 0.5066 -0.2337 -0.8299
vn 0.8195 0.2508 -0.5153
vn -0.0288 -0.4932 -0.8694
s 1
usemtl M_polySurface165_lambert1_0_0
f 1//1 3//1 2//1
f 1//1 4//1 3//1
f 5//2 6//2 7//2
f 5//2 7//2 8//2
f 9//3 11//3 10//3
f 9//3 12//3 11//3
f 13//4 14//4 15//4
f 13//4 15//4 16//4
f 17//4 19//4 18//4
f 17//4 20//4 19//4
f 21//1 22//1 23//1
f 21//1 23//1 24//1
f 25//2 27//2 26//2
f 25//2 28//2 27//2
f 29//3 30//3 31//3
f 29//3 31//3 32//3
f 33//4 35//4 34//4
f 33//4 36//4 35//4
f 37//4 38//4 39//4
f 37//4 39//4 40//4
f 41//5 43//6 42//7
f 41//5 44//8 43//6
f 45//2 46//2 47//2
f 45//2 47//2 48//2
f 49//9 50//10 51//10
f 49//9 51//10 52//9
f 53//11 54//12 55//13
f 53//11 55//13 56//11
f 57//2 58//2 59//2
f 57//2 59//2 60//2
f 61//14 63//15 62//16
f 61//14 64//17 63//15
f 65//2 67//2 66//2
f 65//2 68//2 67//2
f 69//18 70//19 71//20
f 69//18 71//20 72//21
f 73//22 74//23 75//24
f 73//22 75//24 76//25
f 77//26 78//27 79//28
f 77//26 79//28 80//26
f 81//2 83//2 82//2
f 81//2 84//2 83//2
f 85//29 87//30 86//31
f 85//29 88//32 87//30
