# Blender 4.4.1
# www.blender.org
mtllib SM_polySurface227_lambert1_0_0.mtl
o SM_polySurface227_lambert1_0_0
v 7.696617 4.457252 -2.533460
v 7.788938 4.527798 -2.585465
v 7.788938 5.373481 -2.585465
v 7.696617 5.444028 -2.533460
v 7.696617 5.444028 -2.533460
v 7.788938 5.373481 -2.585465
v 7.788938 5.373481 -5.384526
v 7.696617 5.444028 -5.436531
v 7.696617 5.444028 -5.436531
v 7.788938 5.373481 -5.384526
v 7.788938 4.527798 -5.384526
v 7.696617 4.457252 -5.436531
v 7.696617 4.457252 -5.436531
v 7.788938 4.527798 -5.384526
v 7.788938 4.527798 -2.585465
v 7.696617 4.457252 -2.533460
v 7.788938 4.527798 -2.585465
v 7.788938 4.527798 -5.384526
v 7.788938 5.373481 -5.384526
v 7.788938 5.373481 -2.585465
v 7.696617 4.457252 -5.436531
v 7.696617 4.457252 -2.533460
v 7.696617 5.444028 -2.533460
v 7.696617 5.444028 -5.436531
vn 0.4908 -0.0000 0.8713
vn 0.6072 0.7946 -0.0000
vn 0.4908 -0.0000 -0.8713
vn 0.6072 -0.7946 -0.0000
vn 1.0000 -0.0000 -0.0000
s 1
usemtl M_polySurface227_lambert1_0_0
f 1//1 2//1 3//1
f 1//1 3//1 4//1
f 5//2 6//2 7//2
f 5//2 7//2 8//2
f 9//3 10//3 11//3
f 9//3 11//3 12//3
f 13//4 14//4 15//4
f 13//4 15//4 16//4
f 17//5 18//5 19//5
f 17//5 19//5 20//5
f 21//5 23//5 22//5
f 21//5 24//5 23//5
