# Blender 4.4.1
# www.blender.org
mtllib SM_pCylinder144_lambert1_0_0.mtl
o SM_pCylinder144_lambert1_0_0
v 0.951035 1.000000 -0.309036
v 0.808990 1.000000 -0.587807
v -0.000031 1.000000 -0.000015
v 0.587753 1.000000 -0.809036
v 0.308990 1.000000 -0.951073
v -0.000031 1.000000 -1.000015
v -0.309052 1.000000 -0.951073
v -0.587784 1.000000 -0.809036
v -0.809021 1.000000 -0.587807
v -0.951065 1.000000 -0.309036
v -1.000000 1.000000 -0.000015
v -0.951065 1.000000 0.309006
v -0.809021 1.000000 0.587761
v -0.587784 1.000000 0.808990
v -0.309052 1.000000 0.951027
v -0.000031 1.000000 0.999985
v 0.308990 1.000000 0.951027
v 0.587753 1.000000 0.808990
v 0.808990 1.000000 0.587761
v 0.951035 1.000000 0.309006
v 0.999969 1.000000 -0.000015
v 0.589432 -1.000000 -0.428276
v 0.692917 -1.000000 -0.225166
v -0.000031 -1.000000 -0.000015
v 0.428253 -1.000000 -0.589478
v 0.225128 -1.000000 -0.692955
v -0.000031 -1.000000 -0.728615
v -0.225159 -1.000000 -0.692955
v -0.428284 -1.000000 -0.589478
v -0.589462 -1.000000 -0.428276
v -0.692978 -1.000000 -0.225166
v -0.728622 -1.000000 -0.000015
v -0.692978 -1.000000 0.225136
v -0.589462 -1.000000 0.428246
v -0.428284 -1.000000 0.589432
v -0.225159 -1.000000 0.692924
v -0.000031 -1.000000 0.728584
v 0.225128 -1.000000 0.692924
v 0.428253 -1.000000 0.589432
v 0.589432 -1.000000 0.428246
v 0.692917 -1.000000 0.225136
v 0.728592 -1.000000 -0.000015
v 0.951035 -0.000122 -0.309036
v 0.808990 -0.000122 -0.587807
v 0.808990 1.000000 -0.587807
v 0.951035 1.000000 -0.309036
v 0.587753 -0.000122 -0.809036
v 0.587753 1.000000 -0.809036
v 0.308990 -0.000122 -0.951073
v 0.308990 1.000000 -0.951073
v -0.000031 -0.000122 -1.000015
v -0.000031 1.000000 -1.000015
v -0.309052 -0.000122 -0.951073
v -0.309052 1.000000 -0.951073
v -0.587784 -0.000122 -0.809036
v -0.587784 1.000000 -0.809036
v -0.809021 -0.000122 -0.587807
v -0.809021 1.000000 -0.587807
v -0.951065 -0.000122 -0.309036
v -0.951065 1.000000 -0.309036
v -1.000000 -0.000122 -0.000015
v -1.000000 1.000000 -0.000015
v -0.951065 -0.000122 0.309006
v -0.951065 1.000000 0.309006
v -0.809021 -0.000122 0.587761
v -0.809021 1.000000 0.587761
v -0.587784 -0.000122 0.808990
v -0.587784 1.000000 0.808990
v -0.309052 -0.000122 0.951027
v -0.309052 1.000000 0.951027
v -0.000031 -0.000122 0.999985
v -0.000031 1.000000 0.999985
v 0.308990 -0.000122 0.951027
v 0.308990 1.000000 0.951027
v 0.587753 -0.000122 0.808990
v 0.587753 1.000000 0.808990
v 0.808990 -0.000122 0.587761
v 0.808990 1.000000 0.587761
v 0.951035 -0.000122 0.309006
v 0.951035 1.000000 0.309006
v 0.999969 -0.000122 -0.000015
v 0.999969 1.000000 -0.000015
v 0.951035 -0.000122 -0.309036
v 0.951035 1.000000 -0.309036
v 0.875427 -0.707153 -0.284470
v 0.744675 -0.707153 -0.541077
v 0.875427 -0.707153 -0.284470
v 0.744675 -0.707153 -0.541077
v 0.541031 -0.707153 -0.744720
v 0.541031 -0.707153 -0.744720
v 0.284454 -0.707153 -0.875473
v 0.284454 -0.707153 -0.875473
v -0.000031 -0.707153 -0.920525
v -0.000031 -0.707153 -0.920525
v -0.284485 -0.707153 -0.875473
v -0.284485 -0.707153 -0.875473
v -0.541061 -0.707153 -0.744720
v -0.541061 -0.707153 -0.744720
v -0.744736 -0.707153 -0.541077
v -0.744736 -0.707153 -0.541077
v -0.875488 -0.707153 -0.284470
v -0.875488 -0.707153 -0.284470
v -0.920532 -0.707153 -0.000015
v -0.920532 -0.707153 -0.000015
v -0.875488 -0.707153 0.284439
v -0.875488 -0.707153 0.284439
v -0.744736 -0.707153 0.541046
v -0.744736 -0.707153 0.541046
v -0.541061 -0.707153 0.744690
v -0.541061 -0.707153 0.744690
v -0.284485 -0.707153 0.875443
v -0.284485 -0.707153 0.875443
v -0.000031 -0.707153 0.920479
v -0.000031 -0.707153 0.920479
v 0.284454 -0.707153 0.875443
v 0.284454 -0.707153 0.875443
v 0.541031 -0.707153 0.744690
v 0.541031 -0.707153 0.744690
v 0.744675 -0.707153 0.541046
v 0.744675 -0.707153 0.541046
v 0.875427 -0.707153 0.284439
v 0.875427 -0.707153 0.284439
v 0.920502 -0.707153 -0.000015
v 0.920502 -0.707153 -0.000015
v 0.875427 -0.707153 -0.284470
vn -0.0000 1.0000 -0.0000
vn 0.4301 -0.8470 -0.3124
vn 0.5056 -0.8470 -0.1643
vn -0.0000 -1.0000 -0.0000
vn 0.3125 -0.8470 -0.4300
vn 0.1643 -0.8470 -0.5056
vn -0.0000 -0.8470 -0.5316
vn -0.1643 -0.8470 -0.5055
vn -0.3125 -0.8470 -0.4301
vn -0.4300 -0.8470 -0.3125
vn -0.5056 -0.8470 -0.1643
vn -0.5316 -0.8470 -0.0000
vn -0.5056 -0.8470 0.1643
vn -0.4300 -0.8470 0.3125
vn -0.3125 -0.8470 0.4301
vn -0.1643 -0.8470 0.5056
vn -0.0000 -0.8470 0.5316
vn 0.1643 -0.8470 0.5056
vn 0.3125 -0.8470 0.4301
vn 0.4301 -0.8470 0.3125
vn 0.5056 -0.8470 0.1643
vn 0.5316 -0.8470 -0.0000
vn 0.9500 -0.0451 -0.3089
vn 0.8082 -0.0451 -0.5872
vn 0.8090 -0.0000 -0.5878
vn 0.9510 -0.0000 -0.3091
vn 0.5872 -0.0451 -0.8082
vn 0.5878 -0.0000 -0.8090
vn 0.3087 -0.0451 -0.9501
vn 0.3090 -0.0000 -0.9511
vn -0.0000 -0.0451 -0.9990
vn -0.0000 -0.0000 -1.0000
vn -0.3087 -0.0451 -0.9501
vn -0.3090 -0.0000 -0.9510
vn -0.5872 -0.0451 -0.8082
vn -0.5878 -0.0000 -0.8090
vn -0.8082 -0.0451 -0.5872
vn -0.8090 -0.0000 -0.5878
vn -0.9501 -0.0451 -0.3087
vn -0.9511 -0.0000 -0.3090
vn -0.9990 -0.0451 -0.0000
vn -1.0000 -0.0000 -0.0000
vn -0.9501 -0.0451 0.3087
vn -0.9511 -0.0000 0.3090
vn -0.8082 -0.0451 0.5872
vn -0.8090 -0.0000 0.5878
vn -0.5872 -0.0451 0.8082
vn -0.5878 -0.0000 0.8090
vn -0.3087 -0.0451 0.9501
vn -0.3091 -0.0000 0.9510
vn -0.0000 -0.0451 0.9990
vn -0.0000 -0.0000 1.0000
vn 0.3087 -0.0451 0.9501
vn 0.3090 -0.0000 0.9510
vn 0.5872 -0.0451 0.8082
vn 0.5878 -0.0000 0.8090
vn 0.8082 -0.0451 0.5872
vn 0.8090 -0.0000 0.5878
vn 0.9501 -0.0451 0.3087
vn 0.9511 -0.0000 0.3090
vn 0.9990 -0.0451 -0.0000
vn 1.0000 -0.0000 -0.0000
vn 0.9501 -0.0451 -0.3086
vn 0.9511 -0.0000 -0.3089
vn 0.9451 -0.1117 -0.3072
vn 0.8039 -0.1117 -0.5841
vn 0.7955 -0.5481 -0.2585
vn 0.6767 -0.5481 -0.4916
vn 0.5841 -0.1117 -0.8039
vn 0.4916 -0.5481 -0.6767
vn 0.3071 -0.1117 -0.9451
vn 0.2585 -0.5481 -0.7955
vn -0.0000 -0.1117 -0.9937
vn -0.0000 -0.5481 -0.8364
vn -0.3071 -0.1117 -0.9451
vn -0.2585 -0.5481 -0.7955
vn -0.5841 -0.1117 -0.8040
vn -0.4916 -0.5481 -0.6767
vn -0.8039 -0.1117 -0.5841
vn -0.6766 -0.5481 -0.4917
vn -0.9451 -0.1117 -0.3071
vn -0.7955 -0.5481 -0.2585
vn -0.9937 -0.1117 -0.0000
vn -0.8364 -0.5481 -0.0000
vn -0.9451 -0.1117 0.3071
vn -0.7955 -0.5481 0.2585
vn -0.8039 -0.1117 0.5841
vn -0.6766 -0.5481 0.4916
vn -0.5841 -0.1117 0.8040
vn -0.4916 -0.5481 0.6767
vn -0.3071 -0.1117 0.9451
vn -0.2585 -0.5481 0.7955
vn -0.0000 -0.1117 0.9937
vn -0.0000 -0.5481 0.8364
vn 0.3071 -0.1117 0.9451
vn 0.2585 -0.5481 0.7955
vn 0.5841 -0.1117 0.8039
vn 0.4917 -0.5481 0.6767
vn 0.8039 -0.1117 0.5841
vn 0.6767 -0.5481 0.4916
vn 0.9451 -0.1117 0.3071
vn 0.7955 -0.5481 0.2585
vn 0.9937 -0.1117 -0.0000
vn 0.8364 -0.5481 -0.0000
vn 0.9451 -0.1117 -0.3070
s 1
usemtl M_pCylinder144_lambert1_0_0
f 1//1 2//1 3//1
f 2//1 4//1 3//1
f 4//1 5//1 3//1
f 5//1 6//1 3//1
f 6//1 7//1 3//1
f 7//1 8//1 3//1
f 8//1 9//1 3//1
f 9//1 10//1 3//1
f 10//1 11//1 3//1
f 11//1 12//1 3//1
f 12//1 13//1 3//1
f 13//1 14//1 3//1
f 14//1 15//1 3//1
f 15//1 16//1 3//1
f 16//1 17//1 3//1
f 17//1 18//1 3//1
f 18//1 19//1 3//1
f 19//1 20//1 3//1
f 20//1 21//1 3//1
f 21//1 1//1 3//1
f 22//2 23//3 24//4
f 25//5 22//2 24//4
f 26//6 25//5 24//4
f 27//7 26//6 24//4
f 28//8 27//7 24//4
f 29//9 28//8 24//4
f 30//10 29//9 24//4
f 31//11 30//10 24//4
f 32//12 31//11 24//4
f 33//13 32//12 24//4
f 34//14 33//13 24//4
f 35//15 34//14 24//4
f 36//16 35//15 24//4
f 37//17 36//16 24//4
f 38//18 37//17 24//4
f 39//19 38//18 24//4
f 40//20 39//19 24//4
f 41//21 40//20 24//4
f 42//22 41//21 24//4
f 23//3 42//22 24//4
f 43//23 44//24 45//25
f 43//23 45//25 46//26
f 44//24 47//27 48//28
f 44//24 48//28 45//25
f 47//27 49//29 50//30
f 47//27 50//30 48//28
f 49//29 51//31 52//32
f 49//29 52//32 50//30
f 51//31 53//33 54//34
f 51//31 54//34 52//32
f 53//33 55//35 56//36
f 53//33 56//36 54//34
f 55//35 57//37 58//38
f 55//35 58//38 56//36
f 57//37 59//39 60//40
f 57//37 60//40 58//38
f 59//39 61//41 62//42
f 59//39 62//42 60//40
f 61//41 63//43 64//44
f 61//41 64//44 62//42
f 63//43 65//45 66//46
f 63//43 66//46 64//44
f 65//45 67//47 68//48
f 65//45 68//48 66//46
f 67//47 69//49 70//50
f 67//47 70//50 68//48
f 69//49 71//51 72//52
f 69//49 72//52 70//50
f 71//51 73//53 74//54
f 71//51 74//54 72//52
f 73//53 75//55 76//56
f 73//53 76//56 74//54
f 75//55 77//57 78//58
f 75//55 78//58 76//56
f 77//57 79//59 80//60
f 77//57 80//60 78//58
f 79//59 81//61 82//62
f 79//59 82//62 80//60
f 81//61 83//63 84//64
f 81//61 84//64 82//62
f 43//23 85//65 86//66
f 43//23 86//66 44//24
f 87//67 23//3 22//2
f 87//67 22//2 88//68
f 44//24 86//66 89//69
f 44//24 89//69 47//27
f 88//68 22//2 25//5
f 88//68 25//5 90//70
f 47//27 89//69 91//71
f 47//27 91//71 49//29
f 90//70 25//5 26//6
f 90//70 26//6 92//72
f 49//29 91//71 93//73
f 49//29 93//73 51//31
f 92//72 26//6 27//7
f 92//72 27//7 94//74
f 51//31 93//73 95//75
f 51//31 95//75 53//33
f 94//74 27//7 28//8
f 94//74 28//8 96//76
f 53//33 95//75 97//77
f 53//33 97//77 55//35
f 96//76 28//8 29//9
f 96//76 29//9 98//78
f 55//35 97//77 99//79
f 55//35 99//79 57//37
f 98//78 29//9 30//10
f 98//78 30//10 100//80
f 57//37 99//79 101//81
f 57//37 101//81 59//39
f 100//80 30//10 31//11
f 100//80 31//11 102//82
f 59//39 101//81 103//83
f 59//39 103//83 61//41
f 102//82 31//11 32//12
f 102//82 32//12 104//84
f 61//41 103//83 105//85
f 61//41 105//85 63//43
f 104//84 32//12 33//13
f 104//84 33//13 106//86
f 63//43 105//85 107//87
f 63//43 107//87 65//45
f 106//86 33//13 34//14
f 106//86 34//14 108//88
f 65//45 107//87 109//89
f 65//45 109//89 67//47
f 108//88 34//14 35//15
f 108//88 35//15 110//90
f 67//47 109//89 111//91
f 67//47 111//91 69//49
f 110//90 35//15 36//16
f 110//90 36//16 112//92
f 69//49 111//91 113//93
f 69//49 113//93 71//51
f 112//92 36//16 37//17
f 112//92 37//17 114//94
f 71//51 113//93 115//95
f 71//51 115//95 73//53
f 114//94 37//17 38//18
f 114//94 38//18 116//96
f 73//53 115//95 117//97
f 73//53 117//97 75//55
f 116//96 38//18 39//19
f 116//96 39//19 118//98
f 75//55 117//97 119//99
f 75//55 119//99 77//57
f 118//98 39//19 40//20
f 118//98 40//20 120//100
f 77//57 119//99 121//101
f 77//57 121//101 79//59
f 120//100 40//20 41//21
f 120//100 41//21 122//102
f 79//59 121//101 123//103
f 79//59 123//103 81//61
f 122//102 41//21 42//22
f 122//102 42//22 124//104
f 23//3 87//67 124//104
f 23//3 124//104 42//22
f 125//105 83//63 81//61
f 125//105 81//61 123//103
