# Blender 4.4.1
# www.blender.org
mtllib SM_polySurface768_lambert1_0_0.mtl
o SM_polySurface768_lambert1_0_0
v -2.731340 -4.075360 1.235508
v 2.731340 -4.075360 1.235508
v 2.731338 6.992364 1.235508
v -2.731338 6.992364 1.235508
v -2.731338 6.992364 1.235508
v 2.731338 6.992364 1.235508
v 2.720838 6.981864 -1.256508
v -2.720838 6.981864 -1.256508
v -2.720840 -4.064860 -1.256508
v 2.720840 -4.064860 -1.256508
v 2.731340 -4.075360 1.235508
v -2.731340 -4.075360 1.235508
v 2.731340 -4.075360 1.235508
v 2.720840 -4.064860 -1.256508
v 2.720838 6.981864 -1.256508
v 2.731338 6.992364 1.235508
v -2.720840 -4.064860 -1.256508
v -2.731340 -4.075360 1.235508
v -2.731338 6.992364 1.235508
v -2.720838 6.981864 -1.256508
v -2.720838 6.981864 -1.256508
v 2.720838 6.981864 -1.256508
v 2.509205 6.507416 -1.235508
v -2.509205 6.507416 -1.235508
v 2.720838 6.981864 -1.256508
v 2.720840 -4.064860 -1.256508
v 2.509207 -3.590412 -1.235508
v 2.509205 6.507416 -1.235508
v 2.720840 -4.064860 -1.256508
v -2.720840 -4.064860 -1.256508
v -2.509207 -3.590412 -1.235508
v 2.509207 -3.590412 -1.235508
v -2.720840 -4.064860 -1.256508
v -2.720838 6.981864 -1.256508
v -2.509205 6.507416 -1.235508
v -2.509207 -3.590412 -1.235508
v -2.689340 -4.033360 1.193508
v -2.689338 6.950364 1.193508
v 2.689338 6.950364 1.193508
v 2.689340 -4.033360 1.193508
v -2.689338 6.950364 1.193508
v -2.689338 6.950364 -1.193508
v 2.689338 6.950364 -1.193508
v 2.689338 6.950364 1.193508
v -2.689340 -4.033360 -1.193508
v -2.689340 -4.033360 1.193508
v 2.689340 -4.033360 1.193508
v 2.689340 -4.033360 -1.193508
v 2.689340 -4.033360 1.193508
v 2.689338 6.950364 1.193508
v 2.689338 6.950364 -1.193508
v 2.689340 -4.033360 -1.193508
v -2.689340 -4.033360 -1.193508
v -2.689338 6.950364 -1.193508
v -2.689338 6.950364 1.193508
v -2.689340 -4.033360 1.193508
v -2.689338 6.950364 -1.193508
v -2.509205 6.507416 -1.193508
v 2.509205 6.507416 -1.193508
v 2.689338 6.950364 -1.193508
v 2.509207 -3.590412 -1.193508
v 2.689340 -4.033360 -1.193508
v -2.509207 -3.590412 -1.193508
v -2.689340 -4.033360 -1.193508
v 2.509205 6.507416 -1.193508
v -2.509205 6.507416 -1.193508
v -2.509205 6.507416 -1.235508
v 2.509205 6.507416 -1.235508
v 2.509207 -3.590412 -1.193508
v 2.509205 6.507416 -1.193508
v 2.509205 6.507416 -1.235508
v 2.509207 -3.590412 -1.235508
v -2.509207 -3.590412 -1.193508
v 2.509207 -3.590412 -1.193508
v 2.509207 -3.590412 -1.235508
v -2.509207 -3.590412 -1.235508
v -2.509205 6.507416 -1.193508
v -2.509207 -3.590412 -1.193508
v -2.509207 -3.590412 -1.235508
v -2.509205 6.507416 -1.235508
vn -0.0000 -0.0000 1.0000
vn -0.0000 1.0000 -0.0042
vn -0.0000 -1.0000 -0.0042
vn 1.0000 -0.0000 -0.0042
vn -1.0000 -0.0000 -0.0042
vn -0.0000 -0.0442 -0.9990
vn -0.0987 -0.0000 -0.9951
vn -0.0000 0.0442 -0.9990
vn 0.0987 -0.0000 -0.9951
vn -0.0000 1.0000 -0.0000
vn -0.0000 -1.0000 -0.0000
vn 1.0000 -0.0000 -0.0000
vn -1.0000 -0.0000 -0.0000
vn -0.0000 -0.0000 -1.0000
s 1
usemtl M_polySurface768_lambert1_0_0
f 1//1 2//1 3//1
f 1//1 3//1 4//1
f 5//2 6//2 7//2
f 5//2 7//2 8//2
f 9//3 10//3 11//3
f 9//3 11//3 12//3
f 13//4 14//4 15//4
f 13//4 15//4 16//4
f 17//5 18//5 19//5
f 17//5 19//5 20//5
f 21//6 22//6 23//6
f 21//6 23//6 24//6
f 25//7 26//7 27//7
f 25//7 27//7 28//7
f 29//8 30//8 31//8
f 29//8 31//8 32//8
f 33//9 34//9 35//9
f 33//9 35//9 36//9
f 37//1 39//1 38//1
f 37//1 40//1 39//1
f 41//10 43//10 42//10
f 41//10 44//10 43//10
f 45//11 47//11 46//11
f 45//11 48//11 47//11
f 49//12 51//12 50//12
f 49//12 52//12 51//12
f 53//13 55//13 54//13
f 53//13 56//13 55//13
f 57//14 59//14 58//14
f 57//14 60//14 59//14
f 60//14 61//14 59//14
f 60//14 62//14 61//14
f 62//14 63//14 61//14
f 62//14 64//14 63//14
f 64//14 58//14 63//14
f 64//14 57//14 58//14
f 65//10 67//10 66//10
f 65//10 68//10 67//10
f 69//12 71//12 70//12
f 69//12 72//12 71//12
f 73//11 75//11 74//11
f 73//11 76//11 75//11
f 77//13 79//13 78//13
f 77//13 80//13 79//13
