# Blender 4.4.1
# www.blender.org
mtllib SM_polySurface176_lambert1_0_0.mtl
o SM_polySurface176_lambert1_0_0
v 2.989957 10.806034 2.473425
v 2.999957 10.965099 2.473424
v 4.634757 10.965099 2.473424
v 4.644758 10.806034 2.473425
v 4.644758 10.806034 2.473425
v 4.644758 10.806034 -4.732600
v 2.989957 10.806034 -4.732600
v 2.989957 10.806034 2.473425
v 2.989957 10.806034 -4.732600
v 4.644758 10.806034 -4.732600
v 4.634757 10.965099 -4.732600
v 2.999957 10.965099 -4.732600
v 4.644757 10.655355 2.483424
v 4.644757 10.655355 -4.742600
v 4.644758 10.806034 -4.732600
v 4.644758 10.806034 2.473425
v 2.989957 10.806034 2.473425
v 2.989957 10.806034 -4.732600
v 2.989957 10.655355 -4.742600
v 2.989957 10.655355 2.483424
v 2.999957 10.796034 2.483424
v 4.634757 10.796034 2.483424
v 4.634757 10.965099 2.483424
v 2.999957 10.965099 2.483424
v 4.634757 10.796034 2.483424
v 2.999957 10.796034 2.483424
v 2.999957 10.796034 -4.742600
v 4.634757 10.796034 -4.742600
v 2.999957 10.796034 -4.742600
v 2.999957 10.965099 -4.742600
v 4.634757 10.965099 -4.742600
v 4.634757 10.796034 -4.742600
v 4.634757 10.655355 2.483424
v 4.634757 10.796034 2.483424
v 4.634757 10.796034 -4.742600
v 4.634757 10.655355 -4.742600
v 2.999957 10.796034 2.483424
v 2.999957 10.655355 2.483424
v 2.999957 10.655355 -4.742600
v 2.999957 10.796034 -4.742600
v 2.999957 10.796034 2.483424
v 2.999957 10.965099 2.483424
v 2.999957 10.965099 2.473424
v 2.989957 10.806034 2.473425
v 2.999957 10.965099 2.483424
v 4.634757 10.965099 2.483424
v 4.634757 10.965099 2.473424
v 2.999957 10.965099 2.473424
v 4.634757 10.965099 2.483424
v 4.634757 10.796034 2.483424
v 4.644758 10.806034 2.473425
v 4.634757 10.965099 2.473424
v 4.634757 10.796034 -4.742600
v 4.634757 10.965099 -4.742600
v 4.634757 10.965099 -4.732600
v 4.644758 10.806034 -4.732600
v 4.634757 10.965099 -4.742600
v 2.999957 10.965099 -4.742600
v 2.999957 10.965099 -4.732600
v 4.634757 10.965099 -4.732600
v 2.999957 10.965099 -4.742600
v 2.999957 10.796034 -4.742600
v 2.989957 10.806034 -4.732600
v 2.999957 10.965099 -4.732600
v 4.634757 10.655355 2.483424
v 4.634757 10.655355 -4.742600
v 4.644757 10.655355 -4.742600
v 4.644757 10.655355 2.483424
v 4.634757 10.655355 -4.742600
v 4.634757 10.796034 -4.742600
v 4.644758 10.806034 -4.732600
v 4.644757 10.655355 -4.742600
v 4.634757 10.796034 2.483424
v 4.634757 10.655355 2.483424
v 4.644757 10.655355 2.483424
v 4.644758 10.806034 2.473425
v 2.999957 10.796034 -4.742600
v 2.999957 10.655355 -4.742600
v 2.989957 10.655355 -4.742600
v 2.989957 10.806034 -4.732600
v 2.999957 10.655355 -4.742600
v 2.999957 10.655355 2.483424
v 2.989957 10.655355 2.483424
v 2.989957 10.655355 -4.742600
v 2.999957 10.655355 2.483424
v 2.999957 10.796034 2.483424
v 2.989957 10.806034 2.473425
v 2.989957 10.655355 2.483424
vn -0.0000 -0.0000 1.0000
vn -0.0000 1.0000 -0.0000
vn -0.0000 -0.0000 -1.0000
vn 1.0000 -0.0000 -0.0000
vn 0.8184 0.1982 -0.5394
vn 0.8952 -0.4412 -0.0628
vn 0.8886 0.4579 0.0271
vn 0.4808 -0.2950 -0.8257
vn 0.8886 0.0271 0.4579
vn 0.8885 0.0271 0.4580
vn 0.8885 0.0271 -0.4580
vn 0.8886 0.0271 -0.4579
vn 0.9347 0.3497 0.0628
vn 0.5885 -0.2363 0.7732
vn 0.7819 0.2642 0.5646
vn 0.8581 -0.5127 -0.0287
vn 0.4345 0.0309 -0.9001
vn 0.4347 0.0309 -0.9000
vn 0.4346 0.0309 -0.9001
vn 0.4347 0.0309 0.9000
vn 0.4345 0.0309 0.9001
vn 0.4344 0.0309 0.9002
vn 0.4347 0.0309 0.9001
vn -0.4347 0.0309 -0.9000
vn -0.4346 0.0309 -0.9001
vn -0.4345 0.0309 -0.9002
vn -0.4348 0.0309 -0.9000
vn 0.0667 0.3548 -0.9326
vn 0.5066 -0.2337 -0.8299
vn 0.8195 0.2508 -0.5152
vn -0.0288 -0.4932 -0.8694
s 1
usemtl M_polySurface176_lambert1_0_0
f 1//1 3//1 2//1
f 1//1 4//1 3//1
f 5//2 6//2 7//2
f 5//2 7//2 8//2
f 9//3 11//3 10//3
f 9//3 12//3 11//3
f 13//4 14//4 15//4
f 13//4 15//4 16//4
f 17//4 19//4 18//4
f 17//4 20//4 19//4
f 21//1 22//1 23//1
f 21//1 23//1 24//1
f 25//2 27//2 26//2
f 25//2 28//2 27//2
f 29//3 30//3 31//3
f 29//3 31//3 32//3
f 33//4 35//4 34//4
f 33//4 36//4 35//4
f 37//4 38//4 39//4
f 37//4 39//4 40//4
f 41//5 43//6 42//7
f 41//5 44//8 43//6
f 45//2 46//2 47//2
f 45//2 47//2 48//2
f 49//9 50//10 51//10
f 49//9 51//10 52//9
f 53//11 54//12 55//12
f 53//11 55//12 56//11
f 57//2 58//2 59//2
f 57//2 59//2 60//2
f 61//13 63//14 62//15
f 61//13 64//16 63//14
f 65//2 67//2 66//2
f 65//2 68//2 67//2
f 69//17 70//18 71//18
f 69//17 71//18 72//19
f 73//20 74//21 75//22
f 73//20 75//22 76//23
f 77//24 78//25 79//26
f 77//24 79//26 80//27
f 81//2 83//2 82//2
f 81//2 84//2 83//2
f 85//28 87//29 86//30
f 85//28 88//31 87//29
