# Blender 4.4.1
# www.blender.org
mtllib SM_polySurface792_lambert1_0_0.mtl
o SM_polySurface792_lambert1_0_0
v -15.102859 8.674895 -3.707951
v -15.103985 8.674895 -3.709476
v -15.108238 8.674895 -3.705159
v -15.102261 8.674895 -3.706152
v -15.102245 8.674895 -3.704256
v -15.102818 8.674895 -3.702448
v -15.103922 8.674895 -3.700906
v -15.105448 8.674895 -3.699780
v -15.107246 8.674895 -3.699182
v -15.109142 8.674895 -3.699167
v -15.110949 8.674895 -3.699740
v -15.112492 8.674895 -3.700843
v -15.113617 8.674895 -3.702369
v -15.114216 8.674895 -3.704167
v -15.114231 8.674895 -3.706062
v -15.113657 8.674895 -3.707870
v -15.112555 8.674895 -3.709413
v -15.111029 8.674895 -3.710539
v -15.109230 8.674895 -3.711138
v -15.107334 8.674895 -3.711151
v -15.105528 8.674895 -3.710579
v -15.103985 8.671618 -3.709476
v -15.102859 8.671618 -3.707951
v -15.108238 8.671618 -3.705159
v -15.102261 8.671618 -3.706152
v -15.102245 8.671618 -3.704256
v -15.102818 8.671618 -3.702448
v -15.103922 8.671618 -3.700906
v -15.105448 8.671618 -3.699780
v -15.107246 8.671618 -3.699182
v -15.109142 8.671618 -3.699167
v -15.110949 8.671618 -3.699740
v -15.112492 8.671618 -3.700843
v -15.113617 8.671618 -3.702369
v -15.114216 8.671618 -3.704167
v -15.114231 8.671618 -3.706062
v -15.113657 8.671618 -3.707870
v -15.112555 8.671618 -3.709413
v -15.111029 8.671618 -3.710539
v -15.109230 8.671618 -3.711138
v -15.107334 8.671618 -3.711151
v -15.105528 8.671618 -3.710579
v -15.103985 8.674895 -3.709476
v -15.102859 8.674895 -3.707951
v -15.102859 8.671618 -3.707951
v -15.103985 8.671618 -3.709476
v -15.102261 8.674895 -3.706152
v -15.102261 8.671618 -3.706152
v -15.102245 8.674895 -3.704256
v -15.102245 8.671618 -3.704256
v -15.102818 8.674895 -3.702448
v -15.102818 8.671618 -3.702448
v -15.103922 8.674895 -3.700906
v -15.103922 8.671618 -3.700906
v -15.105448 8.674895 -3.699780
v -15.105448 8.671618 -3.699780
v -15.107246 8.674895 -3.699182
v -15.107246 8.671618 -3.699182
v -15.109142 8.674895 -3.699167
v -15.109142 8.671618 -3.699167
v -15.110949 8.674895 -3.699740
v -15.110949 8.671618 -3.699740
v -15.112492 8.674895 -3.700843
v -15.112492 8.671618 -3.700843
v -15.113617 8.674895 -3.702369
v -15.113617 8.671618 -3.702369
v -15.114216 8.674895 -3.704167
v -15.114216 8.671618 -3.704167
v -15.114231 8.674895 -3.706062
v -15.114231 8.671618 -3.706062
v -15.113657 8.674895 -3.707870
v -15.113657 8.671618 -3.707870
v -15.112555 8.674895 -3.709413
v -15.112555 8.671618 -3.709413
v -15.111029 8.674895 -3.710539
v -15.111029 8.671618 -3.710539
v -15.109230 8.674895 -3.711138
v -15.109230 8.671618 -3.711138
v -15.107334 8.674895 -3.711151
v -15.107334 8.671618 -3.711151
v -15.105528 8.674895 -3.710579
v -15.105528 8.671618 -3.710579
v -15.103985 8.674895 -3.709476
v -15.103985 8.671618 -3.709476
vn -0.0000 1.0000 -0.0000
vn -0.0000 1.0000 -0.0002
vn -0.0000 1.0000 -0.0003
vn -0.0000 1.0000 0.0003
vn -0.0000 1.0000 0.0002
vn 0.7018 -0.0000 -0.7124
vn 0.8877 -0.0000 -0.4604
vn 0.7018 -0.0000 -0.7123
vn 0.9865 -0.0000 -0.1641
vn 0.9865 -0.0000 -0.1640
vn 0.9889 -0.0000 0.1486
vn 0.8943 -0.0000 0.4474
vn 0.8943 -0.0000 0.4475
vn 0.7122 -0.0000 0.7020
vn 0.7121 -0.0000 0.7021
vn 0.4605 -0.0000 0.8877
vn 0.4604 -0.0000 0.8877
vn 0.1638 -0.0000 0.9865
vn 0.1637 -0.0000 0.9865
vn -0.1493 -0.0000 0.9888
vn -0.4473 -0.0000 0.8944
vn -0.7018 -0.0000 0.7124
vn -0.8877 -0.0000 0.4604
vn -0.9865 -0.0000 0.1640
vn -0.9888 -0.0000 -0.1491
vn -0.8943 -0.0000 -0.4476
vn -0.8942 -0.0000 -0.4476
vn -0.7125 -0.0000 -0.7017
vn -0.7124 -0.0000 -0.7017
vn -0.4606 -0.0000 -0.8876
vn -0.1636 -0.0000 -0.9865
vn -0.1635 -0.0000 -0.9865
vn 0.1493 -0.0000 -0.9888
vn 0.1494 -0.0000 -0.9888
vn 0.4472 -0.0000 -0.8944
vn 0.4471 -0.0000 -0.8945
vn 0.7016 -0.0000 -0.7125
s 1
usemtl M_polySurface792_lambert1_0_0
f 1//1 2//2 3//1
f 4//1 1//1 3//1
f 5//3 4//1 3//1
f 6//4 5//3 3//1
f 7//1 6//4 3//1
f 8//2 7//1 3//1
f 9//5 8//2 3//1
f 10//1 9//5 3//1
f 11//2 10//1 3//1
f 12//5 11//2 3//1
f 13//1 12//5 3//1
f 14//1 13//1 3//1
f 15//1 14//1 3//1
f 16//3 15//1 3//1
f 17//4 16//3 3//1
f 18//5 17//4 3//1
f 19//2 18//5 3//1
f 20//1 19//2 3//1
f 21//5 20//1 3//1
f 2//2 21//5 3//1
f 22//1 24//1 23//4
f 23//4 24//1 25//4
f 25//4 24//1 26//3
f 26//3 24//1 27//3
f 27//3 24//1 28//1
f 28//1 24//1 29//1
f 29//1 24//1 30//1
f 30//1 24//1 31//5
f 31//5 24//1 32//5
f 32//5 24//1 33//1
f 33//1 24//1 34//3
f 34//3 24//1 35//3
f 35//3 24//1 36//4
f 36//4 24//1 37//4
f 37//4 24//1 38//1
f 38//1 24//1 39//1
f 39//1 24//1 40//1
f 40//1 24//1 41//2
f 41//2 24//1 42//2
f 42//2 24//1 22//1
f 43//6 44//7 45//7
f 43//6 45//7 46//8
f 44//7 47//9 48//10
f 44//7 48//10 45//7
f 47//9 49//11 50//11
f 47//9 50//11 48//10
f 49//11 51//12 52//13
f 49//11 52//13 50//11
f 51//12 53//14 54//15
f 51//12 54//15 52//13
f 53//14 55//16 56//17
f 53//14 56//17 54//15
f 55//16 57//18 58//19
f 55//16 58//19 56//17
f 57//18 59//20 60//20
f 57//18 60//20 58//19
f 59//20 61//21 62//21
f 59//20 62//21 60//20
f 61//21 63//22 64//22
f 61//21 64//22 62//21
f 63//22 65//23 66//23
f 63//22 66//23 64//22
f 65//23 67//24 68//24
f 65//23 68//24 66//23
f 67//24 69//25 70//25
f 67//24 70//25 68//24
f 69//25 71//26 72//27
f 69//25 72//27 70//25
f 71//26 73//28 74//29
f 71//26 74//29 72//27
f 73//28 75//30 76//30
f 73//28 76//30 74//29
f 75//30 77//31 78//32
f 75//30 78//32 76//30
f 77//31 79//33 80//34
f 77//31 80//34 78//32
f 79//33 81//35 82//36
f 79//33 82//36 80//34
f 81//35 83//37 84//37
f 81//35 84//37 82//36
