# Blender 4.4.1
# www.blender.org
mtllib SM_pCylinder225_blinn3_0_0.mtl
o SM_pCylinder225_blinn3_0_0
v 0.018769 -2.018585 -0.006098
v -0.000000 -2.022465 0.000006
v 0.015966 -2.018585 -0.011595
v 0.011599 -2.018585 -0.015963
v 0.006097 -2.018585 -0.018764
v 0.000000 -2.018585 -0.019732
v -0.006099 -2.018585 -0.018764
v -0.011599 -2.018585 -0.015965
v -0.015966 -2.018585 -0.011597
v -0.018769 -2.018585 -0.006098
v -0.019735 -2.018585 0.000000
v -0.018769 -2.018585 0.006102
v -0.015966 -2.018585 0.011599
v -0.011599 -2.018585 0.015966
v -0.006097 -2.018585 0.018768
v 0.000000 -2.018585 0.019735
v 0.006099 -2.018585 0.018768
v 0.011599 -2.018585 0.015968
v 0.015966 -2.018585 0.011602
v 0.018769 -2.018585 0.006102
v 0.019735 -2.018585 0.000000
v 0.018769 2.018589 -0.006098
v -0.000000 2.022461 0.000006
v 0.019735 2.018589 0.000000
v 0.015966 2.018589 -0.011595
v 0.011599 2.018589 -0.015963
v 0.006097 2.018589 -0.018764
v 0.000000 2.018589 -0.019732
v -0.006099 2.018589 -0.018764
v -0.011599 2.018589 -0.015965
v -0.015966 2.018589 -0.011597
v -0.018769 2.018589 -0.006098
v -0.019735 2.018589 0.000000
v -0.018769 2.018589 0.006102
v -0.015966 2.018589 0.011599
v -0.011599 2.018589 0.015966
v -0.006097 2.018589 0.018768
v 0.000000 2.018589 0.019735
v 0.006099 2.018589 0.018768
v 0.011599 2.018589 0.015968
v 0.015966 2.018589 0.011602
v 0.018769 2.018589 0.006102
v 0.049026 -1.971556 -0.015928
v 0.041704 -1.971556 -0.030298
v 0.041704 1.971560 -0.030298
v 0.049026 1.971560 -0.015928
v 0.030300 -1.971556 -0.041700
v 0.030300 1.971560 -0.041700
v 0.015929 -1.971556 -0.049023
v 0.015929 1.971560 -0.049023
v 0.000000 -1.971556 -0.051546
v 0.000000 1.971560 -0.051546
v -0.015929 -1.971556 -0.049023
v -0.015929 1.971560 -0.049023
v -0.030300 -1.971556 -0.041704
v -0.030300 1.971560 -0.041704
v -0.041704 -1.971556 -0.030298
v -0.041704 1.971560 -0.030298
v -0.049026 -1.971556 -0.015928
v -0.049026 1.971560 -0.015928
v -0.051549 -1.971556 0.000000
v -0.051549 1.971560 0.000000
v -0.049026 -1.971556 0.015930
v -0.049026 1.971560 0.015930
v -0.041704 -1.971556 0.030302
v -0.041704 1.971560 0.030302
v -0.030300 -1.971556 0.041706
v -0.030300 1.971560 0.041706
v -0.015929 -1.971556 0.049026
v -0.015929 1.971560 0.049026
v 0.000000 -1.971556 0.051550
v 0.000000 1.971560 0.051550
v 0.015929 -1.971556 0.049026
v 0.015929 1.971560 0.049026
v 0.030300 -1.971556 0.041708
v 0.030300 1.971560 0.041708
v 0.041704 -1.971556 0.030302
v 0.041704 1.971560 0.030302
v 0.049026 -1.971556 0.015930
v 0.049026 1.971560 0.015930
v 0.051549 -1.971556 0.000000
v 0.051549 1.971560 0.000000
v 0.049026 -1.971556 -0.015928
v 0.049026 1.971560 -0.015928
v 0.034670 -2.007547 -0.011263
v 0.029493 -2.007547 -0.021423
v 0.045295 -1.991035 -0.014717
v 0.038531 -1.991035 -0.027990
v 0.034670 -2.007547 -0.011263
v 0.029493 -2.007547 -0.021423
v 0.021427 -2.007547 -0.029491
v 0.027994 -1.991035 -0.038528
v 0.021427 -2.007547 -0.029491
v 0.011264 -2.007547 -0.034670
v 0.014717 -1.991035 -0.045294
v 0.011264 -2.007547 -0.034670
v 0.000000 -2.007547 -0.036451
v 0.000000 -1.991035 -0.047623
v 0.000000 -2.007547 -0.036451
v -0.011265 -2.007547 -0.034670
v -0.014717 -1.991035 -0.045294
v -0.011265 -2.007547 -0.034670
v -0.021427 -2.007547 -0.029491
v -0.027994 -1.991035 -0.038528
v -0.021427 -2.007547 -0.029491
v -0.029492 -2.007547 -0.021423
v -0.038530 -1.991035 -0.027990
v -0.029492 -2.007547 -0.021423
v -0.034670 -2.007547 -0.011263
v -0.045295 -1.991035 -0.014717
v -0.034670 -2.007547 -0.011263
v -0.036454 -2.007547 0.000000
v -0.047626 -1.991035 0.000000
v -0.036454 -2.007547 0.000000
v -0.034670 -2.007547 0.011269
v -0.045295 -1.991035 0.014719
v -0.034670 -2.007547 0.011269
v -0.029493 -2.007547 0.021429
v -0.038531 -1.991035 0.027994
v -0.029493 -2.007547 0.021429
v -0.021427 -2.007547 0.029491
v -0.027994 -1.991035 0.038530
v -0.021427 -2.007547 0.029491
v -0.011264 -2.007547 0.034672
v -0.014717 -1.991035 0.045298
v -0.011264 -2.007547 0.034672
v 0.000000 -2.007547 0.036455
v 0.000000 -1.991035 0.047626
v 0.000000 -2.007547 0.036455
v 0.011265 -2.007547 0.034672
v 0.014717 -1.991035 0.045298
v 0.011265 -2.007547 0.034672
v 0.021427 -2.007547 0.029493
v 0.027994 -1.991035 0.038532
v 0.021427 -2.007547 0.029493
v 0.029492 -2.007547 0.021429
v 0.038530 -1.991035 0.027994
v 0.029492 -2.007547 0.021429
v 0.034670 -2.007547 0.011269
v 0.045295 -1.991035 0.014719
v 0.034670 -2.007547 0.011269
v 0.036454 -2.007547 0.000000
v 0.047626 -1.991035 0.000000
v 0.036454 -2.007547 0.000000
v 0.034670 -2.007547 -0.011263
v 0.045295 -1.991035 -0.014717
v 0.034670 2.007555 -0.011263
v 0.036454 2.007555 0.000000
v 0.045295 1.991041 -0.014717
v 0.047626 1.991041 0.000000
v 0.034670 2.007555 -0.011263
v 0.036454 2.007555 0.000000
v 0.029493 2.007555 -0.021423
v 0.034670 2.007555 -0.011263
v 0.045295 1.991041 -0.014717
v 0.038531 1.991041 -0.027990
v 0.029493 2.007555 -0.021423
v 0.021427 2.007555 -0.029491
v 0.027994 1.991041 -0.038528
v 0.021427 2.007555 -0.029491
v 0.011264 2.007555 -0.034670
v 0.014717 1.991041 -0.045294
v 0.011264 2.007555 -0.034670
v 0.000000 2.007555 -0.036451
v 0.000000 1.991041 -0.047623
v 0.000000 2.007555 -0.036451
v -0.011265 2.007555 -0.034670
v -0.014717 1.991041 -0.045294
v -0.011265 2.007555 -0.034670
v -0.021427 2.007555 -0.029491
v -0.027994 1.991041 -0.038528
v -0.021427 2.007555 -0.029491
v -0.029492 2.007555 -0.021423
v -0.038530 1.991041 -0.027990
v -0.029492 2.007555 -0.021423
v -0.034670 2.007555 -0.011263
v -0.045295 1.991041 -0.014717
v -0.034670 2.007555 -0.011263
v -0.036454 2.007555 0.000000
v -0.047626 1.991041 0.000000
v -0.036454 2.007555 0.000000
v -0.034670 2.007555 0.011269
v -0.045295 1.991041 0.014719
v -0.034670 2.007555 0.011269
v -0.029493 2.007555 0.021429
v -0.038531 1.991041 0.027994
v -0.029493 2.007555 0.021429
v -0.021427 2.007555 0.029491
v -0.027994 1.991041 0.038530
v -0.021427 2.007555 0.029491
v -0.011264 2.007555 0.034672
v -0.014717 1.991041 0.045298
v -0.011264 2.007555 0.034672
v 0.000000 2.007555 0.036455
v 0.000000 1.991041 0.047626
v 0.000000 2.007555 0.036455
v 0.011265 2.007555 0.034672
v 0.014717 1.991041 0.045298
v 0.011265 2.007555 0.034672
v 0.021427 2.007555 0.029493
v 0.027994 1.991041 0.038532
v 0.021427 2.007555 0.029493
v 0.029492 2.007555 0.021429
v 0.038530 1.991041 0.027994
v 0.029492 2.007555 0.021429
v 0.034670 2.007555 0.011269
v 0.045295 1.991041 0.014719
v 0.034670 2.007555 0.011269
vn 0.4527 -0.8795 -0.1471
vn -0.0000 -1.0000 -0.0000
vn 0.3850 -0.8795 -0.2798
vn 0.2798 -0.8795 -0.3850
vn 0.1470 -0.8795 -0.4526
vn -0.0000 -0.8795 -0.4759
vn -0.1470 -0.8795 -0.4526
vn -0.2798 -0.8795 -0.3851
vn -0.3851 -0.8795 -0.2798
vn -0.4527 -0.8794 -0.1471
vn -0.4760 -0.8795 -0.0000
vn -0.4527 -0.8795 0.1471
vn -0.3850 -0.8795 0.2798
vn -0.2797 -0.8795 0.3851
vn -0.1471 -0.8795 0.4527
vn -0.0000 -0.8794 0.4760
vn 0.1471 -0.8795 0.4527
vn 0.2797 -0.8795 0.3851
vn 0.3851 -0.8794 0.2798
vn 0.4527 -0.8795 0.1471
vn 0.4760 -0.8795 -0.0000
vn 0.4525 0.8795 -0.1471
vn -0.0000 1.0000 -0.0000
vn 0.4758 0.8796 -0.0000
vn 0.3849 0.8796 -0.2797
vn 0.2796 0.8796 -0.3849
vn 0.1469 0.8796 -0.4524
vn -0.0000 0.8796 -0.4757
vn -0.1469 0.8796 -0.4525
vn -0.2797 0.8796 -0.3849
vn -0.3849 0.8796 -0.2796
vn -0.4525 0.8796 -0.1470
vn -0.4758 0.8796 -0.0000
vn -0.4525 0.8795 0.1471
vn -0.3849 0.8796 0.2797
vn -0.2797 0.8796 0.3849
vn -0.1471 0.8796 0.4525
vn -0.0000 0.8796 0.4758
vn 0.1470 0.8796 0.4525
vn 0.2796 0.8796 0.3849
vn 0.3849 0.8795 0.2797
vn 0.4525 0.8796 0.1470
vn 0.9510 -0.0010 -0.3091
vn 0.8090 -0.0010 -0.5878
vn 0.8092 0.0010 -0.5875
vn 0.9510 0.0010 -0.3091
vn 0.5878 -0.0010 -0.8090
vn 0.5881 0.0010 -0.8088
vn 0.3090 -0.0010 -0.9511
vn 0.3094 0.0010 -0.9509
vn -0.0000 -0.0009 -1.0000
vn 0.0004 0.0009 -1.0000
vn -0.3090 -0.0010 -0.9511
vn -0.3085 0.0011 -0.9512
vn -0.5877 -0.0009 -0.8091
vn -0.5874 0.0010 -0.8093
vn -0.8090 -0.0010 -0.5878
vn -0.8088 0.0010 -0.5881
vn -0.9511 -0.0009 -0.3090
vn -0.9509 0.0009 -0.3094
vn -1.0000 -0.0010 -0.0000
vn -1.0000 0.0009 -0.0004
vn -0.9511 -0.0010 0.3090
vn -0.9512 0.0009 0.3086
vn -0.8090 -0.0010 0.5878
vn -0.8092 0.0010 0.5875
vn -0.5878 -0.0010 0.8090
vn -0.5881 0.0010 0.8088
vn -0.3090 -0.0010 0.9511
vn -0.3094 0.0010 0.9509
vn -0.0000 -0.0009 1.0000
vn -0.0004 0.0009 1.0000
vn 0.3090 -0.0010 0.9511
vn 0.3085 0.0010 0.9512
vn 0.5877 -0.0009 0.8091
vn 0.5874 0.0010 0.8093
vn 0.8090 -0.0010 0.5878
vn 0.8088 0.0010 0.5881
vn 0.9511 -0.0009 0.3090
vn 0.9509 0.0010 0.3094
vn 1.0000 -0.0010 -0.0000
vn 1.0000 0.0009 0.0004
vn 0.9511 -0.0010 -0.3089
vn 0.9511 0.0010 -0.3089
vn 0.7030 -0.6735 -0.2284
vn 0.5980 -0.6735 -0.4345
vn 0.8856 -0.3644 -0.2879
vn 0.7534 -0.3644 -0.5474
vn 0.7032 -0.6733 -0.2286
vn 0.5982 -0.6733 -0.4346
vn 0.4345 -0.6735 -0.5980
vn 0.5474 -0.3643 -0.7534
vn 0.4347 -0.6733 -0.5982
vn 0.2284 -0.6735 -0.7031
vn 0.2877 -0.3643 -0.8857
vn 0.2284 -0.6733 -0.7032
vn -0.0000 -0.6735 -0.7392
vn -0.0000 -0.3643 -0.9313
vn -0.0000 -0.6733 -0.7394
vn -0.2284 -0.6735 -0.7031
vn -0.2877 -0.3643 -0.8857
vn -0.2284 -0.6733 -0.7032
vn -0.4345 -0.6735 -0.5980
vn -0.5474 -0.3644 -0.7534
vn -0.4346 -0.6733 -0.5981
vn -0.5980 -0.6735 -0.4345
vn -0.7534 -0.3644 -0.5474
vn -0.5982 -0.6733 -0.4346
vn -0.7030 -0.6735 -0.2285
vn -0.8857 -0.3644 -0.2878
vn -0.7032 -0.6733 -0.2285
vn -0.7392 -0.6735 -0.0000
vn -0.9313 -0.3644 -0.0000
vn -0.7394 -0.6733 -0.0000
vn -0.7031 -0.6735 0.2284
vn -0.8857 -0.3644 0.2878
vn -0.7032 -0.6733 0.2285
vn -0.5980 -0.6735 0.4346
vn -0.7534 -0.3644 0.5474
vn -0.5982 -0.6732 0.4347
vn -0.4345 -0.6735 0.5980
vn -0.5474 -0.3644 0.7534
vn -0.4346 -0.6733 0.5982
vn -0.2285 -0.6735 0.7030
vn -0.2878 -0.3644 0.8857
vn -0.2285 -0.6733 0.7032
vn -0.0000 -0.6735 0.7392
vn -0.0000 -0.3644 0.9313
vn -0.0000 -0.6733 0.7394
vn 0.2284 -0.6735 0.7030
vn 0.2877 -0.3644 0.8857
vn 0.2285 -0.6733 0.7032
vn 0.4345 -0.6735 0.5980
vn 0.5474 -0.3644 0.7534
vn 0.4346 -0.6733 0.5982
vn 0.5980 -0.6735 0.4345
vn 0.7534 -0.3644 0.5474
vn 0.5982 -0.6733 0.4346
vn 0.7030 -0.6735 0.2284
vn 0.8857 -0.3644 0.2878
vn 0.7032 -0.6733 0.2285
vn 0.7392 -0.6735 -0.0000
vn 0.9313 -0.3644 -0.0000
vn 0.7394 -0.6733 -0.0000
vn 0.7032 -0.6733 -0.2284
vn 0.8857 -0.3644 -0.2876
vn 0.7030 0.6735 -0.2285
vn 0.7392 0.6735 -0.0000
vn 0.8857 0.3643 -0.2877
vn 0.9313 0.3643 -0.0000
vn 0.7032 0.6733 -0.2284
vn 0.7394 0.6733 -0.0000
vn 0.5980 0.6735 -0.4345
vn 0.7031 0.6733 -0.2286
vn 0.8856 0.3643 -0.2879
vn 0.7534 0.3644 -0.5474
vn 0.5982 0.6733 -0.4346
vn 0.4345 0.6735 -0.5980
vn 0.5474 0.3643 -0.7534
vn 0.4346 0.6733 -0.5981
vn 0.2284 0.6735 -0.7030
vn 0.2878 0.3643 -0.8857
vn 0.2284 0.6733 -0.7032
vn -0.0000 0.6735 -0.7392
vn -0.0000 0.3643 -0.9313
vn -0.0000 0.6733 -0.7394
vn -0.2284 0.6735 -0.7031
vn -0.2877 0.3643 -0.8857
vn -0.2284 0.6733 -0.7032
vn -0.4346 0.6735 -0.5980
vn -0.5474 0.3644 -0.7534
vn -0.4347 0.6733 -0.5981
vn -0.5980 0.6735 -0.4345
vn -0.7534 0.3644 -0.5474
vn -0.5982 0.6733 -0.4346
vn -0.7030 0.6735 -0.2284
vn -0.8857 0.3643 -0.2878
vn -0.7032 0.6733 -0.2285
vn -0.7392 0.6735 -0.0000
vn -0.9313 0.3643 -0.0000
vn -0.7394 0.6733 -0.0000
vn -0.7031 0.6735 0.2284
vn -0.8857 0.3643 0.2878
vn -0.7032 0.6733 0.2285
vn -0.5980 0.6735 0.4346
vn -0.7534 0.3643 0.5474
vn -0.5981 0.6733 0.4347
vn -0.4345 0.6735 0.5980
vn -0.5474 0.3644 0.7534
vn -0.4346 0.6733 0.5982
vn -0.2284 0.6735 0.7030
vn -0.2878 0.3643 0.8857
vn -0.2285 0.6733 0.7032
vn -0.0000 0.6735 0.7392
vn -0.0000 0.3643 0.9313
vn -0.0000 0.6733 0.7394
vn 0.2284 0.6735 0.7030
vn 0.2877 0.3643 0.8857
vn 0.2285 0.6733 0.7032
vn 0.4345 0.6735 0.5980
vn 0.5474 0.3643 0.7534
vn 0.4346 0.6733 0.5982
vn 0.5980 0.6735 0.4345
vn 0.7534 0.3643 0.5474
vn 0.5982 0.6733 0.4346
vn 0.7030 0.6735 0.2284
vn 0.8857 0.3643 0.2878
vn 0.7032 0.6733 0.2285
s 1
usemtl M_pCylinder225_blinn3_0_0
f 1//1 2//2 3//3
f 3//3 2//2 4//4
f 4//4 2//2 5//5
f 5//5 2//2 6//6
f 6//6 2//2 7//7
f 7//7 2//2 8//8
f 8//8 2//2 9//9
f 9//9 2//2 10//10
f 10//10 2//2 11//11
f 11//11 2//2 12//12
f 12//12 2//2 13//13
f 13//13 2//2 14//14
f 14//14 2//2 15//15
f 15//15 2//2 16//16
f 16//16 2//2 17//17
f 17//17 2//2 18//18
f 18//18 2//2 19//19
f 19//19 2//2 20//20
f 20//20 2//2 21//21
f 2//2 1//1 21//21
f 22//22 23//23 24//24
f 23//23 22//22 25//25
f 23//23 25//25 26//26
f 23//23 26//26 27//27
f 23//23 27//27 28//28
f 23//23 28//28 29//29
f 23//23 29//29 30//30
f 23//23 30//30 31//31
f 23//23 31//31 32//32
f 23//23 32//32 33//33
f 23//23 33//33 34//34
f 23//23 34//34 35//35
f 23//23 35//35 36//36
f 23//23 36//36 37//37
f 23//23 37//37 38//38
f 23//23 38//38 39//39
f 23//23 39//39 40//40
f 23//23 40//40 41//41
f 23//23 41//41 42//42
f 23//23 42//42 24//24
f 43//43 44//44 45//45
f 43//43 45//45 46//46
f 44//44 47//47 48//48
f 44//44 48//48 45//45
f 47//47 49//49 50//50
f 47//47 50//50 48//48
f 49//49 51//51 52//52
f 49//49 52//52 50//50
f 51//51 53//53 54//54
f 51//51 54//54 52//52
f 53//53 55//55 56//56
f 53//53 56//56 54//54
f 55//55 57//57 58//58
f 55//55 58//58 56//56
f 57//57 59//59 60//60
f 57//57 60//60 58//58
f 59//59 61//61 62//62
f 59//59 62//62 60//60
f 61//61 63//63 64//64
f 61//61 64//64 62//62
f 63//63 65//65 66//66
f 63//63 66//66 64//64
f 65//65 67//67 68//68
f 65//65 68//68 66//66
f 67//67 69//69 70//70
f 67//67 70//70 68//68
f 69//69 71//71 72//72
f 69//69 72//72 70//70
f 71//71 73//73 74//74
f 71//71 74//74 72//72
f 73//73 75//75 76//76
f 73//73 76//76 74//74
f 75//75 77//77 78//78
f 75//75 78//78 76//76
f 77//77 79//79 80//80
f 77//77 80//80 78//78
f 79//79 81//81 82//82
f 79//79 82//82 80//80
f 81//81 83//83 84//84
f 81//81 84//84 82//82
f 85//85 1//1 3//3
f 85//85 3//3 86//86
f 43//43 87//87 88//88
f 43//43 88//88 44//44
f 87//87 89//89 90//90
f 87//87 90//90 88//88
f 86//86 3//3 4//4
f 86//86 4//4 91//91
f 44//44 88//88 92//92
f 44//44 92//92 47//47
f 88//88 90//90 93//93
f 88//88 93//93 92//92
f 91//91 4//4 5//5
f 91//91 5//5 94//94
f 47//47 92//92 95//95
f 47//47 95//95 49//49
f 92//92 93//93 96//96
f 92//92 96//96 95//95
f 94//94 5//5 6//6
f 94//94 6//6 97//97
f 49//49 95//95 98//98
f 49//49 98//98 51//51
f 95//95 96//96 99//99
f 95//95 99//99 98//98
f 97//97 6//6 7//7
f 97//97 7//7 100//100
f 51//51 98//98 101//101
f 51//51 101//101 53//53
f 98//98 99//99 102//102
f 98//98 102//102 101//101
f 100//100 7//7 8//8
f 100//100 8//8 103//103
f 53//53 101//101 104//104
f 53//53 104//104 55//55
f 101//101 102//102 105//105
f 101//101 105//105 104//104
f 103//103 8//8 9//9
f 103//103 9//9 106//106
f 55//55 104//104 107//107
f 55//55 107//107 57//57
f 104//104 105//105 108//108
f 104//104 108//108 107//107
f 106//106 9//9 10//10
f 106//106 10//10 109//109
f 57//57 107//107 110//110
f 57//57 110//110 59//59
f 107//107 108//108 111//111
f 107//107 111//111 110//110
f 109//109 10//10 11//11
f 109//109 11//11 112//112
f 59//59 110//110 113//113
f 59//59 113//113 61//61
f 110//110 111//111 114//114
f 110//110 114//114 113//113
f 112//112 11//11 12//12
f 112//112 12//12 115//115
f 61//61 113//113 116//116
f 61//61 116//116 63//63
f 113//113 114//114 117//117
f 113//113 117//117 116//116
f 115//115 12//12 13//13
f 115//115 13//13 118//118
f 63//63 116//116 119//119
f 63//63 119//119 65//65
f 116//116 117//117 120//120
f 116//116 120//120 119//119
f 118//118 13//13 14//14
f 118//118 14//14 121//121
f 65//65 119//119 122//122
f 65//65 122//122 67//67
f 119//119 120//120 123//123
f 119//119 123//123 122//122
f 121//121 14//14 15//15
f 121//121 15//15 124//124
f 67//67 122//122 125//125
f 67//67 125//125 69//69
f 122//122 123//123 126//126
f 122//122 126//126 125//125
f 124//124 15//15 16//16
f 124//124 16//16 127//127
f 69//69 125//125 128//128
f 69//69 128//128 71//71
f 125//125 126//126 129//129
f 125//125 129//129 128//128
f 127//127 16//16 17//17
f 127//127 17//17 130//130
f 71//71 128//128 131//131
f 71//71 131//131 73//73
f 128//128 129//129 132//132
f 128//128 132//132 131//131
f 130//130 17//17 18//18
f 130//130 18//18 133//133
f 73//73 131//131 134//134
f 73//73 134//134 75//75
f 131//131 132//132 135//135
f 131//131 135//135 134//134
f 133//133 18//18 19//19
f 133//133 19//19 136//136
f 75//75 134//134 137//137
f 75//75 137//137 77//77
f 134//134 135//135 138//138
f 134//134 138//138 137//137
f 136//136 19//19 20//20
f 136//136 20//20 139//139
f 77//77 137//137 140//140
f 77//77 140//140 79//79
f 137//137 138//138 141//141
f 137//137 141//141 140//140
f 139//139 20//20 21//21
f 139//139 21//21 142//142
f 79//79 140//140 143//143
f 79//79 143//143 81//81
f 140//140 141//141 144//144
f 140//140 144//144 143//143
f 1//1 85//85 142//142
f 1//1 142//142 21//21
f 145//145 146//146 143//143
f 145//145 143//143 144//144
f 146//146 83//83 81//81
f 146//146 81//81 143//143
f 147//147 22//22 24//24
f 147//147 24//24 148//148
f 84//84 149//149 150//150
f 84//84 150//150 82//82
f 149//149 151//151 152//152
f 149//149 152//152 150//150
f 22//22 147//147 153//153
f 22//22 153//153 25//25
f 154//154 155//155 156//156
f 154//154 156//156 157//157
f 155//155 46//46 45//45
f 155//155 45//45 156//156
f 25//25 153//153 158//158
f 25//25 158//158 26//26
f 157//157 156//156 159//159
f 157//157 159//159 160//160
f 156//156 45//45 48//48
f 156//156 48//48 159//159
f 26//26 158//158 161//161
f 26//26 161//161 27//27
f 160//160 159//159 162//162
f 160//160 162//162 163//163
f 159//159 48//48 50//50
f 159//159 50//50 162//162
f 27//27 161//161 164//164
f 27//27 164//164 28//28
f 163//163 162//162 165//165
f 163//163 165//165 166//166
f 162//162 50//50 52//52
f 162//162 52//52 165//165
f 28//28 164//164 167//167
f 28//28 167//167 29//29
f 166//166 165//165 168//168
f 166//166 168//168 169//169
f 165//165 52//52 54//54
f 165//165 54//54 168//168
f 29//29 167//167 170//170
f 29//29 170//170 30//30
f 169//169 168//168 171//171
f 169//169 171//171 172//172
f 168//168 54//54 56//56
f 168//168 56//56 171//171
f 30//30 170//170 173//173
f 30//30 173//173 31//31
f 172//172 171//171 174//174
f 172//172 174//174 175//175
f 171//171 56//56 58//58
f 171//171 58//58 174//174
f 31//31 173//173 176//176
f 31//31 176//176 32//32
f 175//175 174//174 177//177
f 175//175 177//177 178//178
f 174//174 58//58 60//60
f 174//174 60//60 177//177
f 32//32 176//176 179//179
f 32//32 179//179 33//33
f 178//178 177//177 180//180
f 178//178 180//180 181//181
f 177//177 60//60 62//62
f 177//177 62//62 180//180
f 33//33 179//179 182//182
f 33//33 182//182 34//34
f 181//181 180//180 183//183
f 181//181 183//183 184//184
f 180//180 62//62 64//64
f 180//180 64//64 183//183
f 34//34 182//182 185//185
f 34//34 185//185 35//35
f 184//184 183//183 186//186
f 184//184 186//186 187//187
f 183//183 64//64 66//66
f 183//183 66//66 186//186
f 35//35 185//185 188//188
f 35//35 188//188 36//36
f 187//187 186//186 189//189
f 187//187 189//189 190//190
f 186//186 66//66 68//68
f 186//186 68//68 189//189
f 36//36 188//188 191//191
f 36//36 191//191 37//37
f 190//190 189//189 192//192
f 190//190 192//192 193//193
f 189//189 68//68 70//70
f 189//189 70//70 192//192
f 37//37 191//191 194//194
f 37//37 194//194 38//38
f 193//193 192//192 195//195
f 193//193 195//195 196//196
f 192//192 70//70 72//72
f 192//192 72//72 195//195
f 38//38 194//194 197//197
f 38//38 197//197 39//39
f 196//196 195//195 198//198
f 196//196 198//198 199//199
f 195//195 72//72 74//74
f 195//195 74//74 198//198
f 39//39 197//197 200//200
f 39//39 200//200 40//40
f 199//199 198//198 201//201
f 199//199 201//201 202//202
f 198//198 74//74 76//76
f 198//198 76//76 201//201
f 40//40 200//200 203//203
f 40//40 203//203 41//41
f 202//202 201//201 204//204
f 202//202 204//204 205//205
f 201//201 76//76 78//78
f 201//201 78//78 204//204
f 41//41 203//203 206//206
f 41//41 206//206 42//42
f 205//205 204//204 207//207
f 205//205 207//207 208//208
f 204//204 78//78 80//80
f 204//204 80//80 207//207
f 42//42 206//206 148//148
f 42//42 148//148 24//24
f 208//208 207//207 150//150
f 208//208 150//150 152//152
f 207//207 80//80 82//82
f 207//207 82//82 150//150
