# Blender 4.4.1
# www.blender.org
mtllib SM_polySurface243_lambert1_0_0.mtl
o SM_polySurface243_lambert1_0_0
v -0.190705 1.372725 -5.357625
v -0.190705 1.372725 2.158218
v -0.190705 2.276501 2.158218
v -0.190705 2.276501 -5.357625
v -0.088922 1.300473 -5.439229
v -0.088922 1.300473 2.239822
v -0.088922 2.348753 2.239822
v -0.088922 2.348753 -5.439229
v -0.088922 1.300473 -5.439229
v -0.088922 1.300473 2.239822
v -0.190705 1.372725 2.158218
v -0.190705 1.372725 -5.357625
v -0.088922 1.300473 2.239822
v -0.088922 2.348753 2.239822
v -0.190705 2.276501 2.158218
v -0.190705 1.372725 2.158218
v -0.088922 2.348753 2.239822
v -0.088922 2.348753 -5.439229
v -0.190705 2.276501 -5.357625
v -0.190705 2.276501 2.158218
v -0.088922 2.348753 -5.439229
v -0.088922 1.300473 -5.439229
v -0.190705 1.372725 -5.357625
v -0.190705 2.276501 -5.357625
vn -1.0000 -0.0000 -0.0000
vn 0.5788 0.8154 -0.0000
vn -0.6255 -0.0000 0.7802
vn -0.5788 0.8154 -0.0000
vn -0.6255 -0.0000 -0.7802
s 1
usemtl M_polySurface243_lambert1_0_0
f 1//1 2//1 3//1
f 1//1 3//1 4//1
f 5//1 6//1 7//1
f 5//1 7//1 8//1
f 9//2 11//2 10//2
f 9//2 12//2 11//2
f 13//3 14//3 15//3
f 13//3 15//3 16//3
f 17//4 18//4 19//4
f 17//4 19//4 20//4
f 21//5 22//5 23//5
f 21//5 23//5 24//5
