# Blender 4.4.1
# www.blender.org
mtllib SM_pCylinder177_lambert1_0_001_0.mtl
o SM_pCylinder177_lambert1_0_001_0
v 17.539928 4.205280 16.411085
v 17.529068 4.183966 16.411085
v 17.467213 4.228907 16.411085
v 17.512154 4.167051 16.411085
v 17.490839 4.156190 16.411085
v 17.467213 4.152449 16.411085
v 17.443586 4.156190 16.411085
v 17.422272 4.167051 16.411085
v 17.405357 4.183966 16.411085
v 17.394497 4.205280 16.411085
v 17.390755 4.228907 16.411085
v 17.394497 4.252533 16.411085
v 17.405357 4.273848 16.411085
v 17.422272 4.290762 16.411085
v 17.443586 4.301623 16.411085
v 17.467213 4.305365 16.411085
v 17.490839 4.301623 16.411085
v 17.512154 4.290762 16.411085
v 17.529068 4.273848 16.411085
v 17.539928 4.252533 16.411085
v 17.543671 4.228907 16.411085
v 17.524111 4.210419 16.629700
v 17.525806 4.206240 16.629700
v 17.527941 4.212803 16.629700
v 17.527040 4.228907 16.629700
v 17.529943 4.225456 16.629700
v 17.529943 4.232357 16.629700
v 17.515614 4.193741 16.629700
v 17.515936 4.189243 16.629700
v 17.519993 4.194826 16.629700
v 17.502378 4.180506 16.629700
v 17.501293 4.176128 16.629700
v 17.506876 4.180184 16.629700
v 17.485699 4.172008 16.629700
v 17.483315 4.168180 16.629700
v 17.489878 4.170312 16.629700
v 17.467213 4.169080 16.629700
v 17.463762 4.166176 16.629700
v 17.470663 4.166176 16.629700
v 17.448727 4.172008 16.629700
v 17.444548 4.170312 16.629700
v 17.451111 4.168180 16.629700
v 17.432047 4.180506 16.629700
v 17.427549 4.180185 16.629700
v 17.433132 4.176128 16.629700
v 17.418814 4.193741 16.629700
v 17.414434 4.194826 16.629700
v 17.418491 4.189242 16.629700
v 17.410315 4.210419 16.629700
v 17.406485 4.212803 16.629700
v 17.408619 4.206240 16.629700
v 17.407385 4.228907 16.629700
v 17.404482 4.232357 16.629700
v 17.404482 4.225456 16.629700
v 17.410315 4.247394 16.629700
v 17.408619 4.251573 16.629700
v 17.406485 4.245010 16.629700
v 17.418814 4.264072 16.629700
v 17.418491 4.268571 16.629700
v 17.414434 4.262988 16.629700
v 17.432047 4.277308 16.629700
v 17.433132 4.281685 16.629700
v 17.427549 4.277628 16.629700
v 17.448727 4.285805 16.629700
v 17.451111 4.289633 16.629700
v 17.444548 4.287501 16.629700
v 17.467213 4.288733 16.629700
v 17.470663 4.291637 16.629700
v 17.463762 4.291637 16.629700
v 17.485699 4.285805 16.629700
v 17.489878 4.287501 16.629700
v 17.483315 4.289633 16.629700
v 17.502378 4.277308 16.629700
v 17.506876 4.277629 16.629700
v 17.501293 4.281685 16.629700
v 17.515614 4.264072 16.629700
v 17.519993 4.262988 16.629700
v 17.515936 4.268570 16.629700
v 17.524111 4.247394 16.629700
v 17.527941 4.245010 16.629700
v 17.525806 4.251573 16.629700
v 17.533396 4.203774 16.522192
v 17.534981 4.206887 16.518742
v 17.535528 4.210338 16.522192
v 17.522390 4.184553 16.522192
v 17.524860 4.187023 16.518742
v 17.526447 4.190136 16.522192
v 17.505983 4.169673 16.522192
v 17.509096 4.171259 16.518742
v 17.511566 4.173730 16.522192
v 17.485781 4.160592 16.522192
v 17.489231 4.161138 16.518742
v 17.492344 4.162724 16.522192
v 17.463762 4.158197 16.522192
v 17.467213 4.157651 16.518742
v 17.470663 4.158197 16.522192
v 17.442081 4.162724 16.522192
v 17.445194 4.161138 16.518742
v 17.448645 4.160592 16.522192
v 17.422859 4.173730 16.522192
v 17.425329 4.171259 16.518742
v 17.428442 4.169673 16.522192
v 17.407980 4.190136 16.522192
v 17.409567 4.187023 16.518742
v 17.412037 4.184553 16.522192
v 17.398897 4.210338 16.522192
v 17.399445 4.206887 16.518742
v 17.401031 4.203774 16.522192
v 17.396503 4.232357 16.522192
v 17.395956 4.228907 16.518742
v 17.396503 4.225456 16.522192
v 17.401031 4.254039 16.522192
v 17.399445 4.250926 16.518742
v 17.398897 4.247476 16.522192
v 17.412037 4.273261 16.522192
v 17.409567 4.270790 16.518742
v 17.407980 4.267677 16.522192
v 17.428442 4.288140 16.522192
v 17.425329 4.286554 16.518742
v 17.422859 4.284083 16.522192
v 17.448645 4.297222 16.522192
v 17.445194 4.296675 16.518742
v 17.442081 4.295089 16.522192
v 17.470663 4.299616 16.522192
v 17.467213 4.300162 16.518742
v 17.463762 4.299616 16.522192
v 17.492344 4.295089 16.522192
v 17.489231 4.296675 16.518742
v 17.485781 4.297222 16.522192
v 17.511566 4.284083 16.522192
v 17.509096 4.286554 16.518742
v 17.505983 4.288140 16.522192
v 17.526447 4.267677 16.522192
v 17.524860 4.270790 16.518742
v 17.522390 4.273261 16.522192
v 17.535528 4.247476 16.522192
v 17.534981 4.250926 16.518742
v 17.533396 4.254039 16.522192
v 17.537922 4.225456 16.522192
v 17.538469 4.228907 16.518742
v 17.537922 4.232357 16.522192
v 17.539928 4.205280 16.494495
v 17.529068 4.183966 16.494495
v 17.529068 4.183966 16.411085
v 17.539928 4.205280 16.411085
v 17.512154 4.167051 16.494495
v 17.512154 4.167051 16.411085
v 17.490839 4.156190 16.494495
v 17.490839 4.156190 16.411085
v 17.467213 4.152449 16.494495
v 17.467213 4.152449 16.411085
v 17.443586 4.156190 16.494495
v 17.443586 4.156190 16.411085
v 17.422272 4.167051 16.494495
v 17.422272 4.167051 16.411085
v 17.405357 4.183966 16.494495
v 17.405357 4.183966 16.411085
v 17.394497 4.205280 16.494495
v 17.394497 4.205280 16.411085
v 17.390755 4.228907 16.494495
v 17.390755 4.228907 16.411085
v 17.394497 4.252533 16.494495
v 17.394497 4.252533 16.411085
v 17.405357 4.273848 16.494495
v 17.405357 4.273848 16.411085
v 17.422272 4.290762 16.494495
v 17.422272 4.290762 16.411085
v 17.443586 4.301623 16.494495
v 17.443586 4.301623 16.411085
v 17.467213 4.305365 16.494495
v 17.467213 4.305365 16.411085
v 17.490839 4.301623 16.494495
v 17.490839 4.301623 16.411085
v 17.512154 4.290762 16.494495
v 17.512154 4.290762 16.411085
v 17.529068 4.273848 16.494495
v 17.529068 4.273848 16.411085
v 17.539928 4.252533 16.494495
v 17.539928 4.252533 16.411085
v 17.543671 4.228907 16.494495
v 17.543671 4.228907 16.411085
v 17.539928 4.205280 16.494495
v 17.539928 4.205280 16.411085
v 17.529068 4.183966 16.494495
v 17.539928 4.205280 16.494495
v 17.534981 4.206887 16.501980
v 17.524860 4.187023 16.501980
v 17.512154 4.167051 16.494495
v 17.509096 4.171259 16.501980
v 17.490839 4.156190 16.494495
v 17.489231 4.161138 16.501980
v 17.467213 4.152449 16.494495
v 17.467213 4.157651 16.501980
v 17.443586 4.156190 16.494495
v 17.445194 4.161138 16.501980
v 17.422272 4.167051 16.494495
v 17.425329 4.171259 16.501980
v 17.405357 4.183966 16.494495
v 17.409567 4.187023 16.501980
v 17.394497 4.205280 16.494495
v 17.399445 4.206887 16.501980
v 17.390755 4.228907 16.494495
v 17.395956 4.228907 16.501980
v 17.394497 4.252533 16.494495
v 17.399445 4.250926 16.501980
v 17.405357 4.273848 16.494495
v 17.409567 4.270790 16.501980
v 17.422272 4.290762 16.494495
v 17.425329 4.286554 16.501980
v 17.443586 4.301623 16.494495
v 17.445194 4.296675 16.501980
v 17.467213 4.305365 16.494495
v 17.467213 4.300162 16.501980
v 17.490839 4.301623 16.494495
v 17.489231 4.296675 16.501980
v 17.512154 4.290762 16.494495
v 17.509096 4.286554 16.501980
v 17.529068 4.273848 16.494495
v 17.524860 4.270790 16.501980
v 17.539928 4.252533 16.494495
v 17.534981 4.250926 16.501980
v 17.543671 4.228907 16.494495
v 17.538469 4.228907 16.501980
v 17.527941 4.212803 16.629700
v 17.535528 4.210338 16.621811
v 17.537922 4.225456 16.621811
v 17.529943 4.225456 16.629700
v 17.533396 4.203774 16.621811
v 17.525806 4.206240 16.629700
v 17.519993 4.194826 16.629700
v 17.526447 4.190136 16.621811
v 17.522390 4.184553 16.621811
v 17.515936 4.189243 16.629700
v 17.506876 4.180184 16.629700
v 17.511566 4.173730 16.621811
v 17.505983 4.169673 16.621811
v 17.501293 4.176128 16.629700
v 17.489878 4.170312 16.629700
v 17.492344 4.162724 16.621811
v 17.485781 4.160592 16.621811
v 17.483315 4.168180 16.629700
v 17.470663 4.166176 16.629700
v 17.470663 4.158197 16.621811
v 17.463762 4.158197 16.621811
v 17.463762 4.166176 16.629700
v 17.451111 4.168180 16.629700
v 17.448645 4.160592 16.621811
v 17.442081 4.162724 16.621811
v 17.444548 4.170312 16.629700
v 17.433132 4.176128 16.629700
v 17.428442 4.169673 16.621811
v 17.422859 4.173730 16.621811
v 17.427549 4.180185 16.629700
v 17.418491 4.189242 16.629700
v 17.412037 4.184553 16.621811
v 17.407980 4.190136 16.621811
v 17.414434 4.194826 16.629700
v 17.408619 4.206240 16.629700
v 17.401031 4.203774 16.621811
v 17.398897 4.210338 16.621811
v 17.406485 4.212803 16.629700
v 17.404482 4.225456 16.629700
v 17.396503 4.225456 16.621811
v 17.396503 4.232357 16.621811
v 17.404482 4.232357 16.629700
v 17.406485 4.245010 16.629700
v 17.398897 4.247476 16.621811
v 17.401031 4.254039 16.621811
v 17.408619 4.251573 16.629700
v 17.414434 4.262988 16.629700
v 17.407980 4.267677 16.621811
v 17.412037 4.273261 16.621811
v 17.418491 4.268571 16.629700
v 17.427549 4.277628 16.629700
v 17.422859 4.284083 16.621811
v 17.428442 4.288140 16.621811
v 17.433132 4.281685 16.629700
v 17.444548 4.287501 16.629700
v 17.442081 4.295089 16.621811
v 17.448645 4.297222 16.621811
v 17.451111 4.289633 16.629700
v 17.463762 4.291637 16.629700
v 17.463762 4.299616 16.621811
v 17.470663 4.299616 16.621811
v 17.470663 4.291637 16.629700
v 17.483315 4.289633 16.629700
v 17.485781 4.297222 16.621811
v 17.492344 4.295089 16.621811
v 17.489878 4.287501 16.629700
v 17.501293 4.281685 16.629700
v 17.505983 4.288140 16.621811
v 17.511566 4.284083 16.621811
v 17.506876 4.277629 16.629700
v 17.515936 4.268570 16.629700
v 17.522390 4.273261 16.621811
v 17.526447 4.267677 16.621811
v 17.519993 4.262988 16.629700
v 17.525806 4.251573 16.629700
v 17.533396 4.254039 16.621811
v 17.535528 4.247476 16.621811
v 17.527941 4.245010 16.629700
v 17.529943 4.232357 16.629700
v 17.537922 4.232357 16.621811
v 17.526447 4.190136 16.621811
v 17.533396 4.203774 16.621811
v 17.511566 4.173730 16.621811
v 17.522390 4.184553 16.621811
v 17.492344 4.162724 16.621811
v 17.505983 4.169673 16.621811
v 17.470663 4.158197 16.621811
v 17.485781 4.160592 16.621811
v 17.448645 4.160592 16.621811
v 17.463762 4.158197 16.621811
v 17.428442 4.169673 16.621811
v 17.442081 4.162724 16.621811
v 17.412037 4.184553 16.621811
v 17.422859 4.173730 16.621811
v 17.401031 4.203774 16.621811
v 17.407980 4.190136 16.621811
v 17.396503 4.225456 16.621811
v 17.398897 4.210338 16.621811
v 17.398897 4.247476 16.621811
v 17.396503 4.232357 16.621811
v 17.407980 4.267677 16.621811
v 17.401031 4.254039 16.621811
v 17.422859 4.284083 16.621811
v 17.412037 4.273261 16.621811
v 17.442081 4.295089 16.621811
v 17.428442 4.288140 16.621811
v 17.463762 4.299616 16.621811
v 17.448645 4.297222 16.621811
v 17.485781 4.297222 16.621811
v 17.470663 4.299616 16.621811
v 17.505983 4.288140 16.621811
v 17.492344 4.295089 16.621811
v 17.522390 4.273261 16.621811
v 17.511566 4.284083 16.621811
v 17.533396 4.254039 16.621811
v 17.526447 4.267677 16.621811
v 17.537922 4.232357 16.621811
v 17.535528 4.247476 16.621811
v 17.535528 4.210338 16.621811
v 17.537922 4.225456 16.621811
v 17.527941 4.212803 16.629700
v 17.525806 4.206240 16.629700
v 17.519789 4.208194 16.623299
v 17.521923 4.214757 16.623299
v 17.525806 4.206240 16.629700
v 17.533396 4.203774 16.621811
v 17.524834 4.206555 16.618052
v 17.519789 4.208194 16.623299
v 17.535528 4.210338 16.621811
v 17.527941 4.212803 16.629700
v 17.521923 4.214757 16.623299
v 17.526966 4.213119 16.618052
v 17.533396 4.203774 16.522192
v 17.524836 4.206556 16.522192
v 17.533396 4.203774 16.522192
v 17.535528 4.210338 16.522192
v 17.526968 4.213119 16.522192
v 17.524836 4.206556 16.522192
v 17.535528 4.210338 16.522192
v 17.526968 4.213119 16.522192
v 17.529943 4.232357 16.629700
v 17.529943 4.225456 16.629700
v 17.523615 4.225456 16.623299
v 17.523615 4.232357 16.623299
v 17.529943 4.225456 16.629700
v 17.537922 4.225456 16.621811
v 17.528923 4.225456 16.618053
v 17.523615 4.225456 16.623299
v 17.537922 4.232357 16.621811
v 17.529943 4.232357 16.629700
v 17.523615 4.232357 16.623299
v 17.528923 4.232357 16.618053
v 17.537922 4.225456 16.522192
v 17.528921 4.225456 16.522192
v 17.537922 4.225456 16.522192
v 17.537922 4.232357 16.522192
v 17.528921 4.232357 16.522192
v 17.528921 4.225456 16.522192
v 17.537922 4.232357 16.522192
v 17.528921 4.232357 16.522192
v 17.519993 4.194826 16.629700
v 17.515936 4.189243 16.629700
v 17.510817 4.192963 16.623301
v 17.514874 4.198546 16.623299
v 17.515936 4.189243 16.629700
v 17.522390 4.184553 16.621811
v 17.515110 4.189843 16.618053
v 17.510817 4.192963 16.623301
v 17.526447 4.190136 16.621811
v 17.519993 4.194826 16.629700
v 17.514874 4.198546 16.623299
v 17.519167 4.195426 16.618053
v 17.522390 4.184553 16.522192
v 17.515110 4.189842 16.522192
v 17.522390 4.184553 16.522192
v 17.526447 4.190136 16.522192
v 17.519167 4.195426 16.522192
v 17.515110 4.189842 16.522192
v 17.526447 4.190136 16.522192
v 17.519167 4.195426 16.522192
v 17.506876 4.180184 16.629700
v 17.501293 4.176128 16.629700
v 17.497572 4.181245 16.623299
v 17.503155 4.185301 16.623299
v 17.501293 4.176128 16.629700
v 17.505983 4.169673 16.621811
v 17.500690 4.176954 16.618052
v 17.497572 4.181245 16.623299
v 17.511566 4.173730 16.621811
v 17.506876 4.180184 16.629700
v 17.503155 4.185301 16.623299
v 17.506275 4.181010 16.618052
v 17.505983 4.169673 16.522192
v 17.500692 4.176954 16.522192
v 17.505983 4.169673 16.522192
v 17.511566 4.173730 16.522192
v 17.506275 4.181011 16.522192
v 17.500692 4.176954 16.522192
v 17.511566 4.173730 16.522192
v 17.506275 4.181011 16.522192
v 17.489878 4.170312 16.629700
v 17.483315 4.168180 16.629700
v 17.481359 4.174198 16.623301
v 17.487923 4.176330 16.623301
v 17.483315 4.168180 16.629700
v 17.485781 4.160592 16.621811
v 17.483000 4.169151 16.618053
v 17.481359 4.174198 16.623301
v 17.492344 4.162724 16.621811
v 17.489878 4.170312 16.629700
v 17.487923 4.176330 16.623301
v 17.489563 4.171284 16.618053
v 17.485781 4.160592 16.522192
v 17.483000 4.169151 16.522192
v 17.485781 4.160592 16.522192
v 17.492344 4.162724 16.522192
v 17.489563 4.171284 16.522192
v 17.483000 4.169151 16.522192
v 17.492344 4.162724 16.522192
v 17.489563 4.171284 16.522192
v 17.470663 4.166176 16.629700
v 17.463762 4.166176 16.629700
v 17.463762 4.172504 16.623301
v 17.470663 4.172504 16.623301
v 17.463762 4.166176 16.629700
v 17.463762 4.158197 16.621811
v 17.463762 4.167197 16.618053
v 17.463762 4.172504 16.623301
v 17.470663 4.158197 16.621811
v 17.470663 4.166176 16.629700
v 17.470663 4.172504 16.623301
v 17.470663 4.167197 16.618053
v 17.463762 4.158197 16.522192
v 17.463762 4.167197 16.522192
v 17.463762 4.158197 16.522192
v 17.470663 4.158197 16.522192
v 17.470663 4.167197 16.522192
v 17.463762 4.167197 16.522192
v 17.470663 4.158197 16.522192
v 17.470663 4.167197 16.522192
v 17.451111 4.168180 16.629700
v 17.444548 4.170312 16.629700
v 17.446503 4.176331 16.623301
v 17.453066 4.174198 16.623301
v 17.444548 4.170312 16.629700
v 17.442081 4.162724 16.621811
v 17.444862 4.171283 16.618053
v 17.446503 4.176331 16.623301
v 17.448645 4.160592 16.621811
v 17.451111 4.168180 16.629700
v 17.453066 4.174198 16.623301
v 17.451426 4.169150 16.618053
v 17.442081 4.162724 16.522192
v 17.444862 4.171283 16.522192
v 17.442081 4.162724 16.522192
v 17.448645 4.160592 16.522192
v 17.451426 4.169151 16.522192
v 17.444862 4.171283 16.522192
v 17.448645 4.160592 16.522192
v 17.451426 4.169151 16.522192
v 17.433132 4.176128 16.629700
v 17.427549 4.180185 16.629700
v 17.431271 4.185303 16.623301
v 17.436853 4.181247 16.623301
v 17.427549 4.180185 16.629700
v 17.422859 4.173730 16.621811
v 17.428150 4.181010 16.618053
v 17.431271 4.185303 16.623301
v 17.428442 4.169673 16.621811
v 17.433132 4.176128 16.629700
v 17.436853 4.181247 16.623301
v 17.433733 4.176954 16.618053
v 17.422859 4.173730 16.522192
v 17.428148 4.181011 16.522192
v 17.422859 4.173730 16.522192
v 17.428442 4.169673 16.522192
v 17.433731 4.176954 16.522192
v 17.428148 4.181011 16.522192
v 17.428442 4.169673 16.522192
v 17.433731 4.176954 16.522192
v 17.418491 4.189242 16.629700
v 17.414434 4.194826 16.629700
v 17.419554 4.198546 16.623299
v 17.423611 4.192963 16.623299
v 17.414434 4.194826 16.629700
v 17.407980 4.190136 16.621811
v 17.415260 4.195427 16.618053
v 17.419554 4.198546 16.623299
v 17.412037 4.184553 16.621811
v 17.418491 4.189242 16.629700
v 17.423611 4.192963 16.623299
v 17.419319 4.189843 16.618053
v 17.407980 4.190136 16.522192
v 17.415260 4.195426 16.522192
v 17.407980 4.190136 16.522192
v 17.412037 4.184553 16.522192
v 17.419317 4.189842 16.522192
v 17.415260 4.195426 16.522192
v 17.412037 4.184553 16.522192
v 17.419317 4.189842 16.522192
v 17.408619 4.206240 16.629700
v 17.406485 4.212803 16.629700
v 17.412502 4.214760 16.623301
v 17.414637 4.208197 16.623301
v 17.406485 4.212803 16.629700
v 17.398897 4.210338 16.621811
v 17.407455 4.213121 16.618053
v 17.412502 4.214760 16.623301
v 17.401031 4.203774 16.621811
v 17.408619 4.206240 16.629700
v 17.414637 4.208197 16.623301
v 17.409590 4.206558 16.618053
v 17.398897 4.210338 16.522192
v 17.407455 4.213121 16.522192
v 17.398897 4.210338 16.522192
v 17.401031 4.203774 16.522192
v 17.409590 4.206558 16.522192
v 17.407455 4.213121 16.522192
v 17.401031 4.203774 16.522192
v 17.409590 4.206558 16.522192
v 17.404482 4.225456 16.629700
v 17.404482 4.232357 16.629700
v 17.410809 4.232357 16.623301
v 17.410809 4.225456 16.623301
v 17.404482 4.232357 16.629700
v 17.396503 4.232357 16.621811
v 17.405502 4.232357 16.618053
v 17.410809 4.232357 16.623301
v 17.396503 4.225456 16.621811
v 17.404482 4.225456 16.629700
v 17.410809 4.225456 16.623301
v 17.405502 4.225456 16.618053
v 17.396503 4.232357 16.522192
v 17.405504 4.232357 16.522192
v 17.396503 4.232357 16.522192
v 17.396503 4.225456 16.522192
v 17.405504 4.225456 16.522192
v 17.405504 4.232357 16.522192
v 17.396503 4.225456 16.522192
v 17.405504 4.225456 16.522192
v 17.406485 4.245010 16.629700
v 17.408619 4.251573 16.629700
v 17.414637 4.249616 16.623301
v 17.412502 4.243052 16.623299
v 17.408619 4.251573 16.629700
v 17.401031 4.254039 16.621811
v 17.409590 4.251255 16.618053
v 17.414637 4.249616 16.623301
v 17.398897 4.247476 16.621811
v 17.406485 4.245010 16.629700
v 17.412502 4.243052 16.623299
v 17.407455 4.244692 16.618053
v 17.401031 4.254039 16.522192
v 17.409590 4.251255 16.522192
v 17.401031 4.254039 16.522192
v 17.398897 4.247476 16.522192
v 17.407455 4.244692 16.522192
v 17.409590 4.251255 16.522192
v 17.398897 4.247476 16.522192
v 17.407455 4.244692 16.522192
v 17.414434 4.262988 16.629700
v 17.418491 4.268571 16.629700
v 17.423609 4.264851 16.623301
v 17.419552 4.259268 16.623301
v 17.418491 4.268571 16.629700
v 17.412037 4.273261 16.621811
v 17.419317 4.267970 16.618053
v 17.423609 4.264851 16.623301
v 17.407980 4.267677 16.621811
v 17.414434 4.262988 16.629700
v 17.419552 4.259268 16.623301
v 17.415260 4.262387 16.618053
v 17.412037 4.273261 16.522192
v 17.419317 4.267971 16.522192
v 17.412037 4.273261 16.522192
v 17.407980 4.267677 16.522192
v 17.415260 4.262387 16.522192
v 17.419317 4.267971 16.522192
v 17.407980 4.267677 16.522192
v 17.415260 4.262387 16.522192
v 17.427549 4.277628 16.629700
v 17.433132 4.281685 16.629700
v 17.436852 4.276567 16.623299
v 17.431269 4.272510 16.623299
v 17.433132 4.281685 16.629700
v 17.428442 4.288140 16.621811
v 17.433733 4.280859 16.618053
v 17.436852 4.276567 16.623299
v 17.422859 4.284083 16.621811
v 17.427549 4.277628 16.629700
v 17.431269 4.272510 16.623299
v 17.428150 4.276803 16.618053
v 17.428442 4.288140 16.522192
v 17.433731 4.280859 16.522192
v 17.428442 4.288140 16.522192
v 17.422859 4.284083 16.522192
v 17.428148 4.276803 16.522192
v 17.433731 4.280859 16.522192
v 17.422859 4.284083 16.522192
v 17.428148 4.276803 16.522192
v 17.444548 4.287501 16.629700
v 17.451111 4.289633 16.629700
v 17.453066 4.283615 16.623301
v 17.446503 4.281483 16.623301
v 17.451111 4.289633 16.629700
v 17.448645 4.297222 16.621811
v 17.451426 4.288663 16.618053
v 17.453066 4.283615 16.623301
v 17.442081 4.295089 16.621811
v 17.444548 4.287501 16.629700
v 17.446503 4.281483 16.623301
v 17.444862 4.286530 16.618053
v 17.448645 4.297222 16.522192
v 17.451426 4.288662 16.522192
v 17.448645 4.297222 16.522192
v 17.442081 4.295089 16.522192
v 17.444862 4.286530 16.522192
v 17.451426 4.288662 16.522192
v 17.442081 4.295089 16.522192
v 17.444862 4.286530 16.522192
v 17.463762 4.291637 16.629700
v 17.470663 4.291637 16.629700
v 17.470663 4.285309 16.623301
v 17.463762 4.285309 16.623301
v 17.470663 4.291637 16.629700
v 17.470663 4.299616 16.621811
v 17.470663 4.290616 16.618053
v 17.470663 4.285309 16.623301
v 17.463762 4.299616 16.621811
v 17.463762 4.291637 16.629700
v 17.463762 4.285309 16.623301
v 17.463762 4.290616 16.618053
v 17.470663 4.299616 16.522192
v 17.470663 4.290616 16.522192
v 17.470663 4.299616 16.522192
v 17.463762 4.299616 16.522192
v 17.463762 4.290616 16.522192
v 17.470663 4.290616 16.522192
v 17.463762 4.299616 16.522192
v 17.463762 4.290616 16.522192
v 17.483315 4.289633 16.629700
v 17.489878 4.287501 16.629700
v 17.487923 4.281483 16.623301
v 17.481359 4.283616 16.623301
v 17.489878 4.287501 16.629700
v 17.492344 4.295089 16.621811
v 17.489563 4.286530 16.618053
v 17.487923 4.281483 16.623301
v 17.485781 4.297222 16.621811
v 17.483315 4.289633 16.629700
v 17.481359 4.283616 16.623301
v 17.483000 4.288662 16.618053
v 17.492344 4.295089 16.522192
v 17.489563 4.286529 16.522192
v 17.492344 4.295089 16.522192
v 17.485781 4.297222 16.522192
v 17.483000 4.288661 16.522192
v 17.489563 4.286529 16.522192
v 17.485781 4.297222 16.522192
v 17.483000 4.288661 16.522192
v 17.501293 4.281685 16.629700
v 17.506876 4.277629 16.629700
v 17.503155 4.272511 16.623297
v 17.497572 4.276567 16.623299
v 17.506876 4.277629 16.629700
v 17.511566 4.284083 16.621811
v 17.506275 4.276803 16.618052
v 17.503155 4.272511 16.623297
v 17.505983 4.288140 16.621811
v 17.501293 4.281685 16.629700
v 17.497572 4.276567 16.623299
v 17.500690 4.280859 16.618052
v 17.511566 4.284083 16.522192
v 17.506275 4.276803 16.522192
v 17.511566 4.284083 16.522192
v 17.505983 4.288140 16.522192
v 17.500692 4.280859 16.522192
v 17.506275 4.276803 16.522192
v 17.505983 4.288140 16.522192
v 17.500692 4.280859 16.522192
v 17.515936 4.268570 16.629700
v 17.519993 4.262988 16.629700
v 17.514875 4.259268 16.623301
v 17.510817 4.264850 16.623301
v 17.519993 4.262988 16.629700
v 17.526447 4.267677 16.621811
v 17.519167 4.262387 16.618053
v 17.514875 4.259268 16.623301
v 17.522390 4.273261 16.621811
v 17.515936 4.268570 16.629700
v 17.510817 4.264850 16.623301
v 17.515110 4.267970 16.618053
v 17.526447 4.267677 16.522192
v 17.519167 4.262387 16.522192
v 17.526447 4.267677 16.522192
v 17.522390 4.273261 16.522192
v 17.515110 4.267971 16.522192
v 17.519167 4.262387 16.522192
v 17.522390 4.273261 16.522192
v 17.515110 4.267971 16.522192
v 17.525806 4.251573 16.629700
v 17.527941 4.245010 16.629700
v 17.521921 4.243056 16.623299
v 17.519789 4.249619 16.623299
v 17.527941 4.245010 16.629700
v 17.535528 4.247476 16.621811
v 17.526968 4.244696 16.618052
v 17.521921 4.243056 16.623299
v 17.533396 4.254039 16.621811
v 17.525806 4.251573 16.629700
v 17.519789 4.249619 16.623299
v 17.524836 4.251259 16.618052
v 17.535528 4.247476 16.522192
v 17.526968 4.244694 16.522192
v 17.535528 4.247476 16.522192
v 17.533396 4.254039 16.522192
v 17.524836 4.251258 16.522192
v 17.526968 4.244694 16.522192
v 17.533396 4.254039 16.522192
v 17.524836 4.251258 16.522192
v 17.534981 4.206887 16.501980
v 17.538469 4.228907 16.501980
v 17.534981 4.250926 16.501980
v 17.524860 4.270790 16.501980
v 17.509096 4.286554 16.501980
v 17.489231 4.296675 16.501980
v 17.467213 4.300162 16.501980
v 17.445194 4.296675 16.501980
v 17.425329 4.286554 16.501980
v 17.409567 4.270790 16.501980
v 17.399445 4.250926 16.501980
v 17.395956 4.228907 16.501980
v 17.399445 4.206887 16.501980
v 17.409567 4.187023 16.501980
v 17.425329 4.171259 16.501980
v 17.445194 4.161138 16.501980
v 17.467213 4.157651 16.501980
v 17.489231 4.161138 16.501980
v 17.509096 4.171259 16.501980
v 17.524860 4.187023 16.501980
v 17.467213 4.228907 16.629700
vn -0.0000 -0.0000 -1.0000
vn -0.0001 -0.0000 -1.0000
vn 0.0001 -0.0000 -1.0000
vn 0.0002 -0.0000 -1.0000
vn 0.0012 -0.0001 -1.0000
vn 0.0015 0.0001 -1.0000
vn 0.0002 -0.0001 -1.0000
vn -0.0004 0.0003 -1.0000
vn 0.0001 -0.0001 -1.0000
vn -0.0000 0.0002 -1.0000
vn -0.0001 -0.0001 -1.0000
vn -0.0002 -0.0000 -1.0000
vn -0.0012 0.0001 -1.0000
vn -0.0015 -0.0001 -1.0000
vn -0.0001 0.0003 -1.0000
vn -0.0001 0.0001 -1.0000
vn 0.0001 -0.0002 -1.0000
vn -0.0000 0.0001 -1.0000
vn 0.0002 0.0004 -1.0000
vn 0.0002 0.0001 -1.0000
vn -0.9043 0.4258 -0.0313
vn -0.9502 0.3091 0.0405
vn -0.9842 0.1760 -0.0201
vn -0.7274 0.6855 -0.0299
vn -0.8068 0.5868 0.0681
vn -0.8816 0.4716 -0.0201
vn -0.4800 0.8768 -0.0299
vn -0.5861 0.8066 0.0762
vn -0.6920 0.7216 -0.0211
vn -0.1857 0.9821 -0.0302
vn -0.3083 0.9482 0.0760
vn -0.4352 0.9001 -0.0212
vn 0.1268 0.9915 -0.0302
vn -0.0001 0.9971 0.0760
vn -0.1360 0.9905 -0.0208
vn 0.4271 0.9037 -0.0299
vn 0.3083 0.9482 0.0761
vn 0.1770 0.9840 -0.0209
vn 0.6860 0.7270 -0.0293
vn 0.5875 0.8071 0.0576
vn 0.4724 0.8811 -0.0212
vn 0.8771 0.4795 -0.0293
vn 0.8092 0.5873 0.0142
vn 0.7230 0.6904 -0.0232
vn 0.9823 0.1852 -0.0294
vn 0.9505 0.3103 0.0142
vn 0.9007 0.4338 -0.0230
vn 0.9914 -0.1276 -0.0294
vn 0.9999 0.0002 0.0142
vn 0.9907 0.1339 -0.0232
vn 0.9034 -0.4278 -0.0294
vn 0.9505 -0.3105 0.0142
vn 0.9836 -0.1788 -0.0230
vn 0.7272 -0.6858 -0.0294
vn 0.8092 -0.5873 0.0142
vn 0.8803 -0.4739 -0.0230
vn 0.4800 -0.8768 -0.0299
vn 0.5874 -0.8072 0.0582
vn 0.6906 -0.7229 -0.0232
vn 0.1857 -0.9821 -0.0302
vn 0.3084 -0.9482 0.0760
vn 0.4353 -0.9000 -0.0211
vn -0.1268 -0.9915 -0.0302
vn 0.0001 -0.9971 0.0760
vn 0.1360 -0.9905 -0.0209
vn -0.4271 -0.9037 -0.0300
vn -0.3083 -0.9482 0.0762
vn -0.1770 -0.9840 -0.0209
vn -0.6854 -0.7275 -0.0302
vn -0.5863 -0.8065 0.0760
vn -0.4724 -0.8811 -0.0212
vn -0.8759 -0.4814 -0.0314
vn -0.8069 -0.5878 0.0573
vn -0.7214 -0.6922 -0.0208
vn -0.9818 -0.1872 -0.0314
vn -0.9499 -0.3100 0.0404
vn -0.8998 -0.4357 -0.0202
vn -0.9916 0.1253 -0.0316
vn -0.9992 -0.0007 0.0402
vn -0.9904 -0.1365 -0.0204
vn -0.8801 0.4484 0.1563
vn -0.8721 0.4894 -0.0000
vn -0.7349 0.6782 -0.0000
vn -0.8800 0.4485 -0.1565
vn -0.6782 0.7349 -0.0000
vn -0.4894 0.8721 -0.0000
vn -0.4174 0.9087 -0.0000
vn -0.1960 0.9806 -0.0000
vn 0.1166 0.9932 -0.0000
vn -0.1166 0.9932 -0.0000
vn 0.3069 0.9446 0.1166
vn 0.1960 0.9806 -0.0000
vn 0.6781 0.7349 -0.0000
vn 0.4894 0.8720 -0.0000
vn 0.8721 0.4894 -0.0000
vn 0.7349 0.6782 -0.0000
vn 0.9805 0.1964 -0.0000
vn 0.9085 0.4178 -0.0000
vn 0.9932 0.1166 -0.0000
vn 0.9932 -0.1166 -0.0000
vn 0.9085 -0.4178 -0.0001
vn 0.9805 -0.1965 -0.0000
vn 0.7349 -0.6781 -0.0001
vn 0.8721 -0.4894 -0.0000
vn 0.4895 -0.8720 0.0036
vn 0.6781 -0.7350 -0.0021
vn 0.4175 -0.9086 0.0090
vn 0.1964 -0.9805 -0.0000
vn -0.1166 -0.9932 -0.0000
vn 0.1166 -0.9932 -0.0000
vn -0.1960 -0.9806 -0.0000
vn -0.4178 -0.9085 -0.0000
vn -0.4894 -0.8721 -0.0000
vn -0.6781 -0.7349 -0.0000
vn -0.7349 -0.6781 -0.0000
vn -0.8721 -0.4894 -0.0000
vn -0.9085 -0.4178 -0.0000
vn -0.9806 -0.1960 -0.0000
vn -0.9932 -0.1166 -0.0000
vn -0.9932 0.1166 -0.0000
vn -0.9755 0.1545 0.1565
vn -0.9755 0.1545 -0.1565
vn -0.7331 0.4910 -0.4706
vn -0.8032 0.3410 -0.4885
vn -0.7616 0.3705 -0.5318
vn -0.6193 0.5876 -0.5208
vn -0.3864 0.7371 -0.5544
vn -0.3713 0.7171 -0.5898
vn -0.1364 0.7855 -0.6036
vn -0.1367 0.7778 -0.6135
vn -0.0988 0.7746 -0.6247
vn -0.1241 0.8200 -0.5587
vn 0.2092 0.8510 -0.4817
vn 0.2706 0.8434 -0.4642
vn 0.5068 0.5712 -0.6456
vn 0.5375 0.5663 -0.6248
vn 0.6595 0.5719 -0.4880
vn 0.6785 0.5606 -0.4746
vn 0.7043 0.2488 -0.6649
vn 0.7464 0.1605 -0.6458
vn 0.7466 0.0196 -0.6650
vn 0.7559 -0.0693 -0.6510
vn 0.7015 -0.2634 -0.6622
vn 0.7365 -0.3701 -0.5662
vn 0.6788 -0.5585 -0.4767
vn 0.6773 -0.5616 -0.4752
vn 0.4146 -0.6233 -0.6630
vn 0.3980 -0.6387 -0.6585
vn 0.1995 -0.8504 -0.4868
vn 0.2250 -0.8521 -0.4726
vn 0.0330 -0.7482 -0.6627
vn 0.0862 -0.7636 -0.6399
vn -0.1352 -0.8085 -0.5727
vn -0.2436 -0.8498 -0.4674
vn -0.5831 -0.5991 -0.5486
vn -0.5851 -0.5983 -0.5474
vn -0.6046 -0.5846 -0.5410
vn -0.6049 -0.5872 -0.5378
vn -0.8080 -0.1348 -0.5735
vn -0.7904 -0.1327 -0.5980
vn -0.7771 -0.1018 -0.6210
vn -0.7664 -0.0909 -0.6360
vn -0.6988 0.1107 -0.7067
vn -0.6988 0.1109 -0.7067
vn -0.6988 0.1106 -0.7067
vn -0.6989 0.1104 -0.7067
vn -0.6304 0.3212 -0.7067
vn -0.6303 0.3211 -0.7069
vn -0.6304 0.3213 -0.7066
vn -0.5003 0.5003 -0.7067
vn -0.5002 0.5003 -0.7068
vn -0.5002 0.5003 -0.7067
vn -0.5002 0.5004 -0.7067
vn -0.3212 0.6304 -0.7067
vn -0.3212 0.6305 -0.7066
vn -0.3213 0.6302 -0.7068
vn -0.1107 0.6988 -0.7067
vn -0.1105 0.6988 -0.7067
vn -0.1107 0.6987 -0.7068
vn 0.1103 0.6990 -0.7065
vn 0.1106 0.6988 -0.7067
vn 0.1106 0.6990 -0.7066
vn 0.1105 0.6987 -0.7068
vn 0.3213 0.6303 -0.7067
vn 0.3214 0.6302 -0.7068
vn 0.3212 0.6303 -0.7068
vn 0.3211 0.6304 -0.7067
vn 0.5003 0.5003 -0.7067
vn 0.5002 0.5003 -0.7067
vn 0.5002 0.5004 -0.7067
vn -0.6304 -0.3211 0.7067
vn -0.6304 -0.3210 0.7067
vn -0.6304 -0.3213 0.7066
vn -0.6304 -0.3209 0.7068
vn -0.6988 -0.1105 0.7067
vn -0.6989 -0.1106 0.7066
vn -0.6991 -0.1107 0.7064
vn 0.6988 -0.1105 -0.7067
vn 0.6989 -0.1104 -0.7067
vn 0.6985 -0.1104 -0.7070
vn 0.6988 -0.1107 -0.7067
vn 0.6304 -0.3211 -0.7068
vn 0.6303 -0.3213 -0.7067
vn 0.6305 -0.3211 -0.7067
vn 0.6301 -0.3209 -0.7071
vn 0.5006 -0.5004 -0.7064
vn 0.5004 -0.5002 -0.7067
vn 0.5003 -0.5003 -0.7067
vn 0.5002 -0.5004 -0.7067
vn 0.3213 -0.6303 -0.7067
vn 0.3213 -0.6306 -0.7064
vn 0.3212 -0.6303 -0.7068
vn 0.3213 -0.6303 -0.7068
vn 0.1107 -0.6988 -0.7067
vn 0.1105 -0.6988 -0.7067
vn 0.1107 -0.6987 -0.7068
vn -0.1106 -0.6988 -0.7068
vn -0.1106 -0.6988 -0.7067
vn -0.1105 -0.6987 -0.7069
vn -0.3216 -0.6305 -0.7064
vn -0.3212 -0.6307 -0.7064
vn -0.3213 -0.6304 -0.7067
vn -0.3211 -0.6304 -0.7067
vn -0.5002 -0.5004 -0.7067
vn -0.5000 -0.5002 -0.7070
vn -0.5002 -0.5003 -0.7067
vn -0.6304 -0.3212 -0.7067
vn -0.6306 -0.3211 -0.7066
vn -0.6301 -0.3212 -0.7070
vn -0.6303 -0.3213 -0.7068
vn -0.6988 -0.1107 -0.7067
vn -0.6987 -0.1104 -0.7068
vn -0.6988 -0.1106 -0.7067
vn -0.6990 -0.1108 -0.7065
vn -0.8910 0.4539 0.0001
vn -0.8910 0.4539 -0.0000
vn -0.7071 0.7071 0.0005
vn -0.7071 0.7071 -0.0000
vn -0.4540 0.8910 0.0001
vn -0.4540 0.8910 -0.0000
vn -0.1564 0.9877 0.0001
vn -0.1564 0.9877 -0.0005
vn 0.1564 0.9877 -0.0000
vn 0.1564 0.9877 0.0005
vn 0.4539 0.8910 0.0001
vn 0.4539 0.8910 0.0005
vn 0.7071 0.7071 0.0001
vn 0.7071 0.7071 -0.0000
vn 0.8911 0.4538 -0.0000
vn 0.9877 0.1562 -0.0000
vn 0.9877 -0.1565 -0.0000
vn 0.9877 -0.1565 0.0001
vn 0.8910 -0.4540 -0.0000
vn 0.8910 -0.4540 0.0001
vn 0.7071 -0.7071 -0.0000
vn 0.7071 -0.7071 0.0001
vn 0.4540 -0.8910 0.0001
vn 0.4540 -0.8910 -0.0000
vn 0.1564 -0.9877 -0.0000
vn 0.1564 -0.9877 0.0001
vn -0.1564 -0.9877 0.0001
vn -0.1564 -0.9877 -0.0000
vn -0.4539 -0.8910 0.0001
vn -0.4539 -0.8910 0.0005
vn -0.7070 -0.7072 0.0001
vn -0.7070 -0.7073 -0.0000
vn -0.8910 -0.4540 0.0001
vn -0.8910 -0.4540 -0.0000
vn -0.9877 -0.1562 -0.0000
vn -0.9877 0.1565 -0.0000
vn -0.9877 0.1565 0.0001
vn 0.6763 -0.2202 -0.7029
vn 0.6763 -0.2202 -0.7030
vn 0.6759 -0.2205 -0.7032
vn -0.3089 -0.9511 0.0002
vn -0.3089 -0.9511 -0.0000
vn -0.3085 -0.9512 0.0001
vn -0.3087 -0.9512 0.0001
vn -0.3091 -0.9510 0.0002
vn -0.3089 -0.9511 0.0003
vn -0.3090 -0.9511 0.0001
vn -0.3090 -0.9511 -0.0000
vn -0.7111 -0.0000 0.7031
vn -0.7111 -0.0006 0.7031
vn -0.7111 -0.0008 0.7031
vn -0.7112 0.0001 0.7030
vn -0.0000 -1.0000 -0.0000
vn -0.0000 -1.0000 0.0001
vn -0.0002 -1.0000 0.0006
vn 0.5753 -0.4179 -0.7031
vn 0.5753 -0.4180 -0.7031
vn -0.5878 -0.8090 -0.0000
vn -0.5879 -0.8089 -0.0000
vn -0.5878 -0.8090 -0.0001
vn -0.5879 -0.8090 -0.0000
vn -0.5875 -0.8092 -0.0001
vn -0.5879 -0.8089 0.0002
vn -0.5877 -0.8091 -0.0000
vn -0.5877 -0.8091 0.0003
vn 0.4179 -0.5755 -0.7029
vn 0.4179 -0.5756 -0.7029
vn 0.4178 -0.5753 -0.7032
vn 0.4181 -0.5758 -0.7026
vn -0.8087 -0.5882 0.0002
vn -0.8083 -0.5887 0.0004
vn -0.8087 -0.5882 0.0001
vn -0.8088 -0.5881 0.0002
vn -0.8090 -0.5878 -0.0000
vn -0.8091 -0.5877 0.0004
vn -0.8091 -0.5877 0.0002
vn -0.8090 -0.5879 -0.0001
vn -0.8089 -0.5879 0.0003
vn -0.8089 -0.5880 -0.0007
vn -0.8087 -0.5882 -0.0000
vn 0.2197 -0.6762 -0.7032
vn 0.2198 -0.6762 -0.7031
vn 0.2197 -0.6763 -0.7031
vn -0.9511 -0.3090 -0.0001
vn -0.9511 -0.3089 -0.0000
vn -0.9510 -0.3091 -0.0000
vn -0.9509 -0.3094 -0.0001
vn -0.9511 -0.3090 -0.0000
vn -0.9510 -0.3092 -0.0001
vn -0.9509 -0.3096 -0.0001
vn -0.9511 -0.3088 -0.0000
vn -0.9511 -0.3088 0.0004
vn -0.0000 -0.7110 -0.7032
vn -0.0000 -0.7111 -0.7031
vn -0.0000 -0.7112 -0.7030
vn -0.0000 -0.7109 -0.7033
vn -1.0000 -0.0001 -0.0000
vn -1.0000 0.0002 -0.0000
vn -1.0000 -0.0002 -0.0000
vn -1.0000 -0.0000 -0.0000
vn -1.0000 -0.0000 0.0001
vn -0.2193 -0.6762 -0.7033
vn -0.2202 -0.6763 -0.7030
vn -0.2193 -0.6763 -0.7032
vn -0.2197 -0.6763 -0.7031
vn -0.9509 0.3094 -0.0000
vn -0.9511 0.3090 -0.0000
vn -0.9511 0.3089 -0.0000
vn -0.9511 0.3088 -0.0002
vn -0.9511 0.3090 0.0001
vn -0.9511 0.3088 -0.0000
vn 0.0001 0.0001 -1.0000
vn -0.4180 -0.5753 -0.7031
vn -0.4179 -0.5753 -0.7031
vn -0.4181 -0.5753 -0.7030
vn -0.4177 -0.5754 -0.7032
vn -0.8089 0.5879 -0.0000
vn -0.8088 0.5881 -0.0000
vn -0.8082 0.5889 -0.0001
vn -0.8090 0.5878 -0.0000
vn -0.8089 0.5880 -0.0002
vn -0.8089 0.5880 0.0001
vn -0.8092 0.5876 -0.0000
vn -0.8091 0.5876 -0.0000
vn -0.5753 -0.4179 -0.7031
vn -0.5753 -0.4180 -0.7031
vn -0.5754 -0.4178 -0.7031
vn -0.5754 -0.4180 -0.7030
vn -0.5877 0.8090 0.0001
vn -0.5879 0.8089 -0.0000
vn -0.5880 0.8089 0.0001
vn -0.5879 0.8089 0.0001
vn -0.5878 0.8090 -0.0000
vn -0.5879 0.8090 -0.0001
vn -0.5878 0.8090 0.0001
vn -0.5878 0.8090 -0.0002
vn -0.5877 0.8091 -0.0000
vn -0.5877 0.8091 -0.0001
vn -0.5881 0.8088 -0.0001
vn -0.6762 -0.2201 -0.7031
vn -0.6761 -0.2202 -0.7031
vn -0.6764 -0.2199 -0.7029
vn -0.6759 -0.2203 -0.7033
vn -0.3092 0.9510 0.0001
vn -0.3091 0.9510 -0.0000
vn -0.3092 0.9510 -0.0000
vn -0.3092 0.9510 0.0002
vn -0.3095 0.9509 -0.0001
vn -0.3094 0.9509 -0.0001
vn -0.3094 0.9509 -0.0000
vn -0.3093 0.9510 -0.0000
vn -0.7111 -0.0000 -0.7031
vn -0.7111 -0.0000 -0.7030
vn -0.7106 -0.0000 -0.7036
vn -0.7110 -0.0000 -0.7032
vn -0.0006 -1.0000 -0.0000
vn -0.6763 0.2202 -0.7030
vn -0.6763 0.2202 -0.7029
vn -0.6764 0.2201 -0.7029
vn -0.3092 -0.9510 0.0001
vn -0.3093 -0.9510 0.0001
vn -0.3094 -0.9509 0.0001
vn -0.3089 -0.9511 0.0001
vn -0.3094 -0.9509 -0.0000
vn -0.0000 -0.0001 -1.0000
vn -0.3092 -0.9510 -0.0000
vn -0.3092 -0.9510 -0.0001
vn -0.5756 0.4180 -0.7028
vn -0.5753 0.4181 -0.7030
vn -0.5754 0.4181 -0.7030
vn -0.5753 0.4182 -0.7029
vn -0.5882 -0.8087 -0.0001
vn -0.5880 -0.8089 -0.0000
vn -0.5875 -0.8092 -0.0000
vn -0.5877 -0.8090 -0.0000
vn -0.0003 -0.0000 -1.0000
vn 0.0003 -0.0000 -1.0000
vn -0.5880 -0.8089 -0.0001
vn -0.4177 0.5756 -0.7030
vn -0.4180 0.5754 -0.7030
vn -0.4183 0.5752 -0.7030
vn -0.4178 0.5755 -0.7030
vn -0.8090 -0.5878 -0.0001
vn -0.8091 -0.5877 -0.0000
vn -0.8093 -0.5874 -0.0001
vn -0.8090 -0.5879 -0.0000
vn -0.8090 -0.5878 0.0001
vn -0.2197 0.6762 -0.7032
vn -0.2198 0.6762 -0.7032
vn -0.9511 -0.3089 0.0001
vn -0.9509 -0.3094 -0.0000
vn -0.9510 -0.3093 -0.0005
vn -0.9509 -0.3095 0.0001
vn -0.9510 -0.3090 -0.0000
vn -0.9511 -0.3090 0.0001
vn -0.0000 0.7111 -0.7031
vn -0.0000 0.7110 -0.7032
vn -0.0000 0.7113 -0.7029
vn -1.0000 0.0001 -0.0000
vn 0.2198 0.6762 -0.7032
vn 0.2197 0.6762 -0.7032
vn 0.2197 0.6763 -0.7031
vn -0.9510 0.3091 -0.0001
vn -0.9510 0.3090 -0.0000
vn -0.9511 0.3089 -0.0001
vn -0.9511 0.3088 -0.0001
vn -0.9510 0.3091 -0.0000
vn -0.0001 0.0006 -1.0000
vn -0.9510 0.3092 -0.0000
vn 0.4179 0.5752 -0.7032
vn 0.4179 0.5756 -0.7029
vn 0.4178 0.5757 -0.7028
vn 0.4179 0.5755 -0.7030
vn -0.8089 0.5880 -0.0000
vn -0.8088 0.5881 0.0002
vn -0.8089 0.5879 0.0001
vn -0.8091 0.5877 -0.0000
vn -0.8087 0.5882 -0.0007
vn -0.8087 0.5882 -0.0001
vn -0.5753 -0.4179 0.7031
vn -0.5756 -0.4178 0.7030
vn -0.5752 -0.4180 0.7031
vn -0.5750 -0.4181 0.7032
vn -0.5876 0.8091 -0.0000
vn -0.5876 0.8092 -0.0000
vn -0.5877 0.8090 -0.0000
vn -0.5879 0.8090 -0.0000
vn -0.5880 0.8089 -0.0000
vn -0.5879 0.8089 0.0004
vn -0.6763 -0.2199 0.7030
vn -0.6764 -0.2200 0.7029
vn -0.6762 -0.2203 0.7030
vn -0.6764 -0.2202 0.7028
vn -0.3089 0.9511 0.0001
vn -0.3089 0.9511 -0.0000
vn -0.3088 0.9511 0.0001
vn -0.3090 0.9511 0.0002
vn -0.3090 0.9511 -0.0000
vn -0.3087 0.9512 -0.0000
vn -0.3090 0.9511 -0.0003
vn -0.9922 -0.1243 0.0069
vn -0.9176 0.3870 0.0912
vn -0.9075 -0.4181 0.0416
vn -0.7258 -0.6879 -0.0000
vn -0.4663 -0.8846 -0.0000
vn -0.1705 -0.9853 0.0109
vn 0.1321 -0.9898 -0.0539
vn 0.4414 -0.8973 0.0065
vn 0.4907 -0.8711 0.0206
vn 0.8583 -0.5109 -0.0486
vn 0.9144 -0.4043 0.0182
vn 0.9946 -0.0906 0.0499
vn 0.9692 0.2357 -0.0708
vn 0.8499 0.5224 -0.0689
vn 0.6775 0.7347 0.0348
vn 0.1812 0.9818 -0.0562
vn -0.0745 0.9898 -0.1216
vn -0.4375 0.8986 -0.0343
vn -0.6971 0.7169 -0.0000
vn -0.8767 0.4788 0.0466
s 1
usemtl M_pCylinder177_lambert1_0_001_0
f 1//1 3//1 2//1
f 2//1 3//1 4//1
f 4//1 3//1 5//2
f 5//2 3//1 6//1
f 6//1 3//1 7//3
f 7//3 3//1 8//1
f 8//1 3//1 9//1
f 9//1 3//1 10//1
f 10//1 3//1 11//1
f 11//1 3//1 12//1
f 12//1 3//1 13//1
f 13//1 3//1 14//1
f 14//1 3//1 15//3
f 15//3 3//1 16//1
f 16//1 3//1 17//2
f 17//2 3//1 18//1
f 18//1 3//1 19//1
f 19//1 3//1 20//1
f 20//1 3//1 21//1
f 21//1 3//1 1//1
f 22//1 23//1 24//1
f 25//4 26//5 27//6
f 28//7 29//8 30//7
f 31//9 32//1 33//9
f 34//2 35//1 36//1
f 37//1 38//2 39//3
f 40//10 41//1 42//4
f 43//2 44//11 45//1
f 46//3 47//3 48//1
f 49//1 50//2 51//1
f 52//12 53//13 54//14
f 55//1 56//1 57//1
f 58//1 59//1 60//1
f 61//15 62//1 63//16
f 64//17 65//4 66//3
f 67//2 68//1 69//2
f 70//2 71//2 72//1
f 73//18 74//19 75//1
f 76//20 77//20 78//2
f 79//2 80//3 81//1
f 82//21 83//22 84//23
f 85//24 86//25 87//26
f 88//27 89//28 90//29
f 91//30 92//31 93//32
f 94//33 95//34 96//35
f 97//36 98//37 99//38
f 100//39 101//40 102//41
f 103//42 104//43 105//44
f 106//45 107//46 108//47
f 109//48 110//49 111//50
f 112//51 113//52 114//53
f 115//54 116//55 117//56
f 118//57 119//58 120//59
f 121//60 122//61 123//62
f 124//63 125//64 126//65
f 127//66 128//67 129//68
f 130//69 131//70 132//71
f 133//72 134//73 135//74
f 136//75 137//76 138//77
f 139//78 140//79 141//80
f 142//81 143//82 144//83
f 142//81 144//83 145//84
f 143//82 146//85 147//86
f 143//82 147//86 144//83
f 146//85 148//87 149//88
f 146//85 149//88 147//86
f 148//87 150//89 151//90
f 148//87 151//90 149//88
f 150//89 152//91 153//92
f 150//89 153//92 151//90
f 152//91 154//93 155//94
f 152//91 155//94 153//92
f 154//93 156//95 157//96
f 154//93 157//96 155//94
f 156//95 158//97 159//98
f 156//95 159//98 157//96
f 158//97 160//99 161//100
f 158//97 161//100 159//98
f 160//99 162//101 163//102
f 160//99 163//102 161//100
f 162//101 164//103 165//104
f 162//101 165//104 163//102
f 164//103 166//105 167//106
f 164//103 167//106 165//104
f 166//105 168//107 169//108
f 166//105 169//108 167//106
f 168//107 170//109 171//110
f 168//107 171//110 169//108
f 170//109 172//111 173//112
f 170//109 173//112 171//110
f 172//111 174//113 175//114
f 172//111 175//114 173//112
f 174//113 176//115 177//116
f 174//113 177//116 175//114
f 176//115 178//117 179//118
f 176//115 179//118 177//116
f 178//117 180//119 181//120
f 178//117 181//120 179//118
f 180//119 182//121 183//122
f 180//119 183//122 181//120
f 184//123 185//124 186//125
f 184//123 186//125 187//126
f 188//127 184//123 187//126
f 188//127 187//126 189//128
f 190//129 188//127 189//128
f 190//129 189//128 191//130
f 192//131 190//129 191//130
f 192//131 191//130 193//132
f 194//133 192//131 193//132
f 194//133 193//132 195//134
f 196//135 194//133 195//134
f 196//135 195//134 197//136
f 198//137 196//135 197//136
f 198//137 197//136 199//138
f 200//139 198//137 199//138
f 200//139 199//138 201//140
f 202//141 200//139 201//140
f 202//141 201//140 203//142
f 204//143 202//141 203//142
f 204//143 203//142 205//144
f 206//145 204//143 205//144
f 206//145 205//144 207//146
f 208//147 206//145 207//146
f 208//147 207//146 209//148
f 210//149 208//147 209//148
f 210//149 209//148 211//150
f 212//151 210//149 211//150
f 212//151 211//150 213//152
f 214//153 212//151 213//152
f 214//153 213//152 215//154
f 216//155 214//153 215//154
f 216//155 215//154 217//156
f 218//157 216//155 217//156
f 218//157 217//156 219//158
f 220//159 218//157 219//158
f 220//159 219//158 221//160
f 222//161 220//159 221//160
f 222//161 221//160 223//162
f 185//124 222//161 223//162
f 185//124 223//162 186//125
f 224//163 225//164 226//165
f 224//163 226//165 227//166
f 228//167 229//168 230//167
f 228//167 230//167 231//169
f 232//170 233//171 234//172
f 232//170 234//172 235//173
f 236//174 237//175 238//174
f 236//174 238//174 239//176
f 240//177 241//178 242//179
f 240//177 242//179 243//179
f 244//180 245//181 246//182
f 244//180 246//182 247//183
f 248//184 249//185 250//186
f 248//184 250//186 251//187
f 252//188 253//188 254//189
f 252//188 254//189 255//190
f 256//191 258//192 257//193
f 256//191 259//194 258//192
f 260//195 262//196 261//196
f 260//195 263//197 262//196
f 264//198 265//199 266//200
f 264//198 266//200 267//201
f 268//202 269//203 270//204
f 268//202 270//204 271//205
f 272//206 273//207 274//208
f 272//206 274//208 275//209
f 276//210 277//211 278//212
f 276//210 278//212 279//213
f 280//214 281//215 282//216
f 280//214 282//216 283//216
f 284//217 285//218 286//217
f 284//217 286//217 287//219
f 288//220 289//221 290//222
f 288//220 290//222 291//223
f 292//224 293//224 294//225
f 292//224 294//225 295//226
f 296//227 297//228 298//229
f 296//227 298//229 299//230
f 300//231 301//232 302//233
f 300//231 302//233 303//234
f 304//235 87//26 82//21
f 304//235 82//21 305//236
f 306//237 90//29 85//24
f 306//237 85//24 307//238
f 308//239 93//32 88//27
f 308//239 88//27 309//240
f 310//241 96//35 91//30
f 310//241 91//30 311//242
f 312//243 99//38 94//33
f 312//243 94//33 313//244
f 314//245 102//41 97//36
f 314//245 97//36 315//246
f 316//247 105//44 100//39
f 316//247 100//39 317//248
f 318//249 108//47 103//42
f 318//249 103//42 319//249
f 320//250 111//50 106//45
f 320//250 106//45 321//250
f 322//251 114//53 109//48
f 322//251 109//48 323//252
f 324//253 117//56 112//51
f 324//253 112//51 325//254
f 326//255 120//59 115//54
f 326//255 115//54 327//256
f 328//257 123//62 118//57
f 328//257 118//57 329//258
f 330//259 126//65 121//60
f 330//259 121//60 331//260
f 332//261 129//68 124//63
f 332//261 124//63 333//262
f 334//263 132//71 127//66
f 334//263 127//66 335//264
f 336//265 135//74 130//69
f 336//265 130//69 337//266
f 338//267 138//77 133//72
f 338//267 133//72 339//268
f 340//269 141//80 136//75
f 340//269 136//75 341//269
f 342//270 84//23 139//78
f 342//270 139//78 343//271
f 344//272 346//272 345//273
f 344//272 347//274 346//272
f 348//275 349//276 350//277
f 348//275 350//277 351//278
f 352//276 354//279 353//280
f 352//276 355//276 354//279
f 349//276 356//281 357//282
f 349//276 357//282 350//277
f 358//3 359//2 360//3
f 358//3 360//3 361//4
f 362//276 355//276 352//276
f 362//276 363//282 355//276
f 364//283 365//284 366//285
f 364//283 366//285 367//286
f 368//287 369//287 370//287
f 368//287 370//287 371//287
f 372//287 374//288 373//287
f 372//287 375//287 374//288
f 369//287 376//287 377//287
f 369//287 377//287 370//287
f 378//1 379//1 380//1
f 378//1 380//1 381//1
f 382//287 375//287 372//287
f 382//287 383//289 375//287
f 384//290 386//291 385//291
f 384//290 387//291 386//291
f 388//292 389//293 390//293
f 388//292 390//293 391//294
f 392//295 394//296 393//297
f 392//295 395//295 394//296
f 389//293 396//298 397//299
f 389//293 397//299 390//293
f 398//2 399//12 400//1
f 398//2 400//1 401//4
f 402//292 395//295 392//295
f 402//292 403//298 395//295
f 404//300 406//301 405//302
f 404//300 407//303 406//301
f 408//304 409//305 410//306
f 408//304 410//306 411//307
f 412//308 414//309 413//310
f 412//308 415//311 414//309
f 409//305 416//312 417//313
f 409//305 417//313 410//306
f 418//1 419//1 420//1
f 418//1 420//1 421//1
f 422//308 415//311 412//308
f 422//308 423//314 415//311
f 424//315 426//315 425//316
f 424//315 427//317 426//315
f 428//318 429//319 430//320
f 428//318 430//320 431//321
f 432//322 434//323 433//324
f 432//322 435//320 434//323
f 429//319 436//325 437//326
f 429//319 437//326 430//320
f 438//1 439//1 440//18
f 438//1 440//18 441//3
f 442//322 435//320 432//322
f 442//322 443//322 435//320
f 444//327 446//328 445//329
f 444//327 447//330 446//328
f 448//331 449//332 450//332
f 448//331 450//332 451//333
f 452//334 454//333 453//331
f 452//334 455//334 454//333
f 449//332 456//334 457//335
f 449//332 457//335 450//332
f 458//1 459//1 460//1
f 458//1 460//1 461//1
f 462//334 455//334 452//334
f 462//334 463//334 455//334
f 464//336 466//337 465//338
f 464//336 467//339 466//337
f 468//340 469//341 470//342
f 468//340 470//342 471//342
f 472//343 474//344 473//345
f 472//343 475//345 474//344
f 469//341 476//341 477//341
f 469//341 477//341 470//342
f 478//3 479//1 480//346
f 478//3 480//346 481//3
f 482//341 475//345 472//343
f 482//341 483//340 475//345
f 484//347 486//348 485//349
f 484//347 487//350 486//348
f 488//351 489//351 490//352
f 488//351 490//352 491//353
f 492//354 494//352 493//355
f 492//354 495//356 494//352
f 489//351 496//357 497//357
f 489//351 497//357 490//352
f 498//1 499//1 500//1
f 498//1 500//1 501//1
f 502//351 495//356 492//354
f 502//351 503//358 495//356
f 504//359 506//360 505//361
f 504//359 507//362 506//360
f 508//363 509//364 510//365
f 508//363 510//365 511//366
f 512//367 514//368 513//369
f 512//367 515//370 514//368
f 509//364 516//371 517//372
f 509//364 517//372 510//365
f 518//1 519//1 520//1
f 518//1 520//1 521//1
f 522//371 515//370 512//367
f 522//371 523//373 515//370
f 524//374 526//375 525//376
f 524//374 527//377 526//375
f 528//378 529//379 530//380
f 528//378 530//380 531//381
f 532//382 534//381 533//378
f 532//382 535//378 534//381
f 529//379 536//383 537//384
f 529//379 537//384 530//380
f 538//1 539//11 540//3
f 538//1 540//3 541//4
f 542//385 535//378 532//382
f 542//385 543//384 535//378
f 544//386 546//387 545//388
f 544//386 547//389 546//387
f 548//287 550//287 549//287
f 548//287 551//287 550//287
f 552//287 553//287 554//287
f 552//287 554//287 555//287
f 549//287 557//287 556//287
f 549//287 550//287 557//287
f 558//1 559//1 560//1
f 558//1 560//1 561//1
f 562//287 552//287 555//287
f 562//287 555//287 563//390
f 564//391 566//392 565//391
f 564//391 567//393 566//392
f 568//394 570//395 569//396
f 568//394 571//397 570//395
f 572//395 573//395 574//394
f 572//395 574//394 575//394
f 569//396 577//398 576//398
f 569//396 570//395 577//398
f 578//3 579//2 580//399
f 578//3 580//399 581//4
f 582//400 572//395 575//394
f 582//400 575//394 583//401
f 584//402 586//403 585//404
f 584//402 587//405 586//403
f 588//292 590//406 589//407
f 588//292 591//408 590//406
f 592//292 593//407 594//293
f 592//292 594//293 595//409
f 589//407 597//295 596//295
f 589//407 590//406 597//295
f 598//2 599//410 600//1
f 598//2 600//1 601//411
f 602//412 592//292 595//409
f 602//412 595//409 603//407
f 604//413 606//414 605//415
f 604//413 607//416 606//414
f 608//417 610//418 609//308
f 608//417 611//419 610//418
f 612//420 613//308 614//308
f 612//420 614//308 615//311
f 609//308 617//418 616//418
f 609//308 610//418 617//418
f 618//3 619//4 620//3
f 618//3 620//3 621//1
f 622//308 612//420 615//311
f 622//308 615//311 623//421
f 624//422 626//422 625//423
f 624//422 627//422 626//422
f 628//424 630//322 629//325
f 628//424 631//425 630//322
f 632//426 633//427 634//320
f 632//426 634//320 635//320
f 629//325 637//428 636//428
f 629//325 630//322 637//428
f 638//1 639//1 640//1
f 638//1 640//1 641//1
f 642//429 632//426 635//320
f 642//429 635//320 643//322
f 644//430 646//431 645//432
f 644//430 647//430 646//431
f 648//433 650//334 649//334
f 648//433 651//334 650//334
f 652//331 653//331 654//433
f 652//331 654//433 655//334
f 649//334 657//334 656//334
f 649//334 650//334 657//334
f 658//1 659//1 660//1
f 658//1 660//1 661//1
f 662//334 652//331 655//334
f 662//334 655//334 663//334
f 664//434 666//434 665//435
f 664//434 667//436 666//434
f 668//437 670//341 669//438
f 668//437 671//439 670//341
f 672//342 673//440 674//441
f 672//342 674//441 675//341
f 669//438 677//341 676//341
f 669//438 670//341 677//341
f 678//2 679//442 680//1
f 678//2 680//1 681//411
f 682//443 672//342 675//341
f 682//443 675//341 683//443
f 684//444 686//445 685//446
f 684//444 687//447 686//445
f 688//354 690//351 689//354
f 688//354 691//352 690//351
f 692//448 693//354 694//449
f 692//448 694//449 695//450
f 689//354 697//354 696//451
f 689//354 690//351 697//354
f 698//1 699//1 700//1
f 698//1 700//1 701//1
f 702//452 692//448 695//450
f 702//452 695//450 703//453
f 704//454 705//455 706//456
f 704//454 706//456 707//457
f 708//458 710//371 709//367
f 708//458 711//459 710//371
f 712//460 713//461 714//367
f 712//460 714//367 715//371
f 709//367 717//462 716//462
f 709//367 710//371 717//462
f 718//1 719//1 720//1
f 718//1 720//1 721//1
f 722//463 712//460 715//371
f 722//463 715//371 723//364
f 724//464 725//465 726//466
f 724//464 726//466 727//467
f 728//468 730//469 729//468
f 728//468 731//468 730//469
f 732//470 733//471 734//470
f 732//470 734//470 735//469
f 729//468 737//472 736//473
f 729//468 730//469 737//472
f 738//3 739//346 740//3
f 738//3 740//3 741//1
f 742//469 732//470 735//469
f 742//469 735//469 743//474
f 745//475 83//22 744//476
f 83//22 745//475 84//23
f 84//23 745//475 139//78
f 139//78 745//475 140//79
f 746//477 140//79 745//475
f 140//79 746//477 141//80
f 141//80 746//477 136//75
f 136//75 746//477 137//76
f 747//478 137//76 746//477
f 137//76 747//478 138//77
f 138//77 747//478 133//72
f 133//72 747//478 134//73
f 131//70 747//478 748//479
f 747//478 131//70 134//73
f 134//73 131//70 130//69
f 134//73 130//69 135//74
f 128//67 748//479 749//480
f 748//479 128//67 131//70
f 131//70 128//67 127//66
f 131//70 127//66 132//71
f 125//64 749//480 750//481
f 749//480 125//64 128//67
f 128//67 125//64 124//63
f 128//67 124//63 129//68
f 122//61 750//481 751//482
f 750//481 122//61 125//64
f 125//64 122//61 121//60
f 125//64 121//60 126//65
f 119//58 751//482 752//483
f 751//482 119//58 122//61
f 122//61 119//58 118//57
f 122//61 118//57 123//62
f 115//54 753//484 116//55
f 753//484 115//54 752//483
f 752//483 115//54 120//59
f 752//483 120//59 119//58
f 112//51 754//485 113//52
f 754//485 112//51 753//484
f 753//484 112//51 117//56
f 753//484 117//56 116//55
f 109//48 755//486 110//49
f 755//486 109//48 754//485
f 754//485 109//48 114//53
f 754//485 114//53 113//52
f 106//45 756//487 107//46
f 756//487 106//45 755//486
f 755//486 106//45 111//50
f 755//486 111//50 110//49
f 103//42 757//488 104//43
f 757//488 103//42 756//487
f 756//487 103//42 108//47
f 756//487 108//47 107//46
f 100//39 758//489 101//40
f 758//489 100//39 757//488
f 757//488 100//39 105//44
f 757//488 105//44 104//43
f 98//37 758//489 759//490
f 758//489 98//37 101//40
f 101//40 98//37 97//36
f 101//40 97//36 102//41
f 95//34 759//490 760//491
f 759//490 95//34 98//37
f 98//37 95//34 94//33
f 98//37 94//33 99//38
f 92//31 760//491 761//492
f 760//491 92//31 95//34
f 95//34 92//31 91//30
f 95//34 91//30 96//35
f 89//28 761//492 762//493
f 761//492 89//28 92//31
f 92//31 89//28 88//27
f 92//31 88//27 93//32
f 86//25 762//493 763//494
f 762//493 86//25 89//28
f 89//28 86//25 85//24
f 89//28 85//24 90//29
f 744//476 86//25 763//494
f 86//25 744//476 87//26
f 87//26 744//476 82//21
f 82//21 744//476 83//22
f 22//1 25//4 764//1
f 25//4 22//1 24//1
f 25//4 24//1 26//5
f 25//4 79//2 764//1
f 79//2 25//4 80//3
f 80//3 25//4 27//6
f 28//7 22//1 764//1
f 22//1 28//7 30//7
f 22//1 30//7 23//1
f 31//9 28//7 764//1
f 28//7 31//9 33//9
f 28//7 33//9 29//8
f 34//2 31//9 764//1
f 31//9 34//2 36//1
f 31//9 36//1 32//1
f 39//3 764//1 37//1
f 764//1 39//3 34//2
f 34//2 39//3 35//1
f 42//4 764//1 40//10
f 764//1 42//4 38//2
f 764//1 38//2 37//1
f 45//1 764//1 43//2
f 764//1 45//1 41//1
f 764//1 41//1 40//10
f 44//11 46//3 48//1
f 46//3 44//11 764//1
f 764//1 44//11 43//2
f 47//3 49//1 51//1
f 49//1 47//3 764//1
f 764//1 47//3 46//3
f 50//2 52//12 54//14
f 52//12 50//2 49//1
f 52//12 49//1 764//1
f 52//12 57//1 53//13
f 57//1 52//12 55//1
f 55//1 52//12 764//1
f 55//1 60//1 56//1
f 60//1 55//1 764//1
f 60//1 764//1 58//1
f 58//1 63//16 59//1
f 63//16 58//1 764//1
f 63//16 764//1 61//15
f 764//1 62//1 61//15
f 62//1 764//1 66//3
f 66//3 764//1 64//17
f 764//1 65//4 64//17
f 65//4 764//1 69//2
f 69//2 764//1 67//2
f 70//2 67//2 764//1
f 67//2 70//2 68//1
f 68//1 70//2 72//1
f 73//18 70//2 764//1
f 70//2 73//18 71//2
f 71//2 73//18 75//1
f 76//20 73//18 764//1
f 73//18 76//20 74//19
f 74//19 76//20 78//2
f 79//2 76//20 764//1
f 76//20 79//2 77//20
f 77//20 79//2 81//1
