# Blender 4.4.1
# www.blender.org
mtllib SM_polySurface230_lambert1_0_0.mtl
o SM_polySurface230_lambert1_0_0
v 7.228298 0.084493 2.114395
v 7.234716 0.084493 2.126992
v 7.191741 0.084493 2.140956
v 7.218302 0.084493 2.104398
v 7.205705 0.084493 2.097980
v 7.191741 0.084493 2.095769
v 7.177777 0.084493 2.097980
v 7.165180 0.084493 2.104399
v 7.155184 0.084493 2.114395
v 7.148766 0.084493 2.126992
v 7.146554 0.084493 2.140956
v 7.148766 0.084493 2.154920
v 7.155184 0.084493 2.167516
v 7.165180 0.084493 2.177513
v 7.177777 0.084493 2.183932
v 7.191741 0.084493 2.186143
v 7.205705 0.084493 2.183932
v 7.218302 0.084493 2.177513
v 7.228298 0.084493 2.167516
v 7.234716 0.084493 2.154920
v 7.236928 0.084493 2.140956
v 7.234716 0.146901 2.126992
v 7.228298 0.146901 2.114395
v 7.191741 0.146901 2.140956
v 7.218302 0.146901 2.104398
v 7.205705 0.146901 2.097980
v 7.191741 0.146901 2.095769
v 7.177777 0.146901 2.097980
v 7.165180 0.146901 2.104399
v 7.155184 0.146901 2.114395
v 7.148766 0.146901 2.126992
v 7.146554 0.146901 2.140956
v 7.148766 0.146901 2.154920
v 7.155184 0.146901 2.167516
v 7.165180 0.146901 2.177513
v 7.177777 0.146901 2.183932
v 7.191741 0.146901 2.186143
v 7.205705 0.146901 2.183932
v 7.218302 0.146901 2.177513
v 7.228298 0.146901 2.167516
v 7.234716 0.146901 2.154920
v 7.236928 0.146901 2.140956
v 7.234716 0.084493 2.126992
v 7.228298 0.084493 2.114395
v 7.228298 0.146901 2.114395
v 7.234716 0.146901 2.126992
v 7.218302 0.084493 2.104398
v 7.218302 0.146901 2.104398
v 7.205705 0.084493 2.097980
v 7.205705 0.146901 2.097980
v 7.191741 0.084493 2.095769
v 7.191741 0.146901 2.095769
v 7.177777 0.084493 2.097980
v 7.177777 0.146901 2.097980
v 7.165180 0.084493 2.104399
v 7.165180 0.146901 2.104399
v 7.155184 0.084493 2.114395
v 7.155184 0.146901 2.114395
v 7.148766 0.084493 2.126992
v 7.148766 0.146901 2.126992
v 7.146554 0.084493 2.140956
v 7.146554 0.146901 2.140956
v 7.148766 0.084493 2.154920
v 7.148766 0.146901 2.154920
v 7.155184 0.084493 2.167516
v 7.155184 0.146901 2.167516
v 7.165180 0.084493 2.177513
v 7.165180 0.146901 2.177513
v 7.177777 0.084493 2.183932
v 7.177777 0.146901 2.183932
v 7.191741 0.084493 2.186143
v 7.191741 0.146901 2.186143
v 7.205705 0.084493 2.183932
v 7.205705 0.146901 2.183932
v 7.218302 0.084493 2.177513
v 7.218302 0.146901 2.177513
v 7.228298 0.084493 2.167516
v 7.228298 0.146901 2.167516
v 7.234716 0.084493 2.154920
v 7.234716 0.146901 2.154920
v 7.236928 0.084493 2.140956
v 7.236928 0.146901 2.140956
v 7.234716 0.084493 2.126992
v 7.234716 0.146901 2.126992
vn -0.0000 1.0000 -0.0000
vn 0.9510 -0.0000 -0.3091
vn 0.8090 -0.0000 -0.5878
vn 0.5878 -0.0000 -0.8090
vn 0.3090 -0.0000 -0.9511
vn -0.0000 -0.0000 -1.0000
vn -0.3090 -0.0000 -0.9511
vn -0.5878 -0.0000 -0.8090
vn -0.8090 -0.0000 -0.5878
vn -0.9511 -0.0000 -0.3090
vn -1.0000 -0.0000 -0.0000
vn -0.9511 -0.0000 0.3090
vn -0.8090 -0.0000 0.5878
vn -0.5878 -0.0000 0.8090
vn -0.3090 -0.0000 0.9511
vn -0.0000 -0.0000 1.0000
vn 0.3090 -0.0000 0.9511
vn 0.5878 -0.0000 0.8090
vn 0.8090 -0.0000 0.5878
vn 0.9511 -0.0000 0.3090
vn 1.0000 -0.0000 -0.0000
vn 0.9511 -0.0000 -0.3089
vn 0.9511 -0.0001 -0.3089
s 1
usemtl M_polySurface230_lambert1_0_0
f 1//1 3//1 2//1
f 4//1 3//1 1//1
f 5//1 3//1 4//1
f 6//1 3//1 5//1
f 7//1 3//1 6//1
f 8//1 3//1 7//1
f 9//1 3//1 8//1
f 10//1 3//1 9//1
f 11//1 3//1 10//1
f 12//1 3//1 11//1
f 13//1 3//1 12//1
f 14//1 3//1 13//1
f 15//1 3//1 14//1
f 16//1 3//1 15//1
f 17//1 3//1 16//1
f 18//1 3//1 17//1
f 19//1 3//1 18//1
f 20//1 3//1 19//1
f 21//1 3//1 20//1
f 2//1 3//1 21//1
f 22//1 23//1 24//1
f 23//1 25//1 24//1
f 25//1 26//1 24//1
f 26//1 27//1 24//1
f 27//1 28//1 24//1
f 28//1 29//1 24//1
f 29//1 30//1 24//1
f 30//1 31//1 24//1
f 31//1 32//1 24//1
f 32//1 33//1 24//1
f 33//1 34//1 24//1
f 34//1 35//1 24//1
f 35//1 36//1 24//1
f 36//1 37//1 24//1
f 37//1 38//1 24//1
f 38//1 39//1 24//1
f 39//1 40//1 24//1
f 40//1 41//1 24//1
f 41//1 42//1 24//1
f 42//1 22//1 24//1
f 43//2 44//3 45//3
f 43//2 45//3 46//2
f 44//3 47//4 48//4
f 44//3 48//4 45//3
f 47//4 49//5 50//5
f 47//4 50//5 48//4
f 49//5 51//6 52//6
f 49//5 52//6 50//5
f 51//6 53//7 54//7
f 51//6 54//7 52//6
f 53//7 55//8 56//8
f 53//7 56//8 54//7
f 55//8 57//9 58//9
f 55//8 58//9 56//8
f 57//9 59//10 60//10
f 57//9 60//10 58//9
f 59//10 61//11 62//11
f 59//10 62//11 60//10
f 61//11 63//12 64//12
f 61//11 64//12 62//11
f 63//12 65//13 66//13
f 63//12 66//13 64//12
f 65//13 67//14 68//14
f 65//13 68//14 66//13
f 67//14 69//15 70//15
f 67//14 70//15 68//14
f 69//15 71//16 72//16
f 69//15 72//16 70//15
f 71//16 73//17 74//17
f 71//16 74//17 72//16
f 73//17 75//18 76//18
f 73//17 76//18 74//17
f 75//18 77//19 78//19
f 75//18 78//19 76//18
f 77//19 79//20 80//20
f 77//19 80//20 78//19
f 79//20 81//21 82//21
f 79//20 82//21 80//20
f 81//21 83//22 84//23
f 81//21 84//23 82//21
