# Blender 4.4.1
# www.blender.org
mtllib SM_polySurface166_lambert1_0_0.mtl
o SM_polySurface166_lambert1_0_0
v 3.695738 6.551540 -4.687164
v 3.998992 6.551540 -4.687164
v 3.998992 6.854794 -4.687164
v 3.695738 6.854794 -4.687164
v 3.695738 6.551540 -4.692163
v 3.695738 6.854794 -4.692163
v 3.998992 6.854794 -4.692163
v 3.998992 6.551540 -4.692163
v 3.695738 6.551540 -4.692163
v 3.998992 6.551540 -4.692163
v 3.998992 6.551540 -4.687164
v 3.695738 6.551540 -4.687164
v 3.998992 6.551540 -4.692163
v 3.998992 6.854794 -4.692163
v 3.998992 6.854794 -4.687164
v 3.998992 6.551540 -4.687164
v 3.998992 6.854794 -4.692163
v 3.695738 6.854794 -4.692163
v 3.695738 6.854794 -4.687164
v 3.998992 6.854794 -4.687164
v 3.695738 6.854794 -4.692163
v 3.695738 6.551540 -4.692163
v 3.695738 6.551540 -4.687164
v 3.695738 6.854794 -4.687164
vn -0.0000 -0.0000 -1.0000
vn -0.0000 1.0000 -0.0000
vn 1.0000 -0.0000 -0.0000
s 1
usemtl M_polySurface166_lambert1_0_0
f 1//1 3//1 2//1
f 1//1 4//1 3//1
f 5//1 6//1 7//1
f 5//1 7//1 8//1
f 9//2 11//2 10//2
f 9//2 12//2 11//2
f 13//3 14//3 15//3
f 13//3 15//3 16//3
f 17//2 18//2 19//2
f 17//2 19//2 20//2
f 21//3 23//3 22//3
f 21//3 24//3 23//3
