# Blender 4.4.1
# www.blender.org
mtllib SM_pCube98_blinn2_0_0.mtl
o SM_pCube98_blinn2_0_0
v 19.832783 6.513004 12.652045
v 19.862003 6.513004 12.652045
v 19.862003 13.794961 12.652045
v 19.832783 13.794961 12.652045
v 19.832783 13.794961 12.652045
v 19.862003 13.794961 12.652045
v 19.862003 13.794961 9.530828
v 19.832783 13.794961 9.530828
v 19.832783 13.794961 9.530828
v 19.862003 13.794961 9.530828
v 19.862003 6.513004 9.530828
v 19.832783 6.513004 9.530828
v 19.832783 6.513004 9.530828
v 19.862003 6.513004 9.530828
v 19.862003 6.513004 12.652045
v 19.832783 6.513004 12.652045
v 19.862003 6.513004 12.652045
v 19.862003 6.513004 9.530828
v 19.862003 13.794961 9.530828
v 19.862003 13.794961 12.652045
v 19.832783 6.513004 9.530828
v 19.832783 6.513004 12.652045
v 19.832783 13.794961 12.652045
v 19.832783 13.794961 9.530828
v 19.707664 6.772469 16.047932
v 19.736885 6.772469 16.047932
v 19.736885 13.588876 16.047932
v 19.707664 13.588876 16.047932
v 19.707664 13.588876 16.047932
v 19.736885 13.588876 16.047932
v 19.736885 13.588876 13.454777
v 19.707664 13.588876 13.454777
v 19.707664 13.588876 13.454777
v 19.736885 13.588876 13.454777
v 19.736885 6.772469 13.454777
v 19.707664 6.772469 13.454777
v 19.707664 6.772469 13.454777
v 19.736885 6.772469 13.454777
v 19.736885 6.772469 16.047932
v 19.707664 6.772469 16.047932
v 19.736885 6.772469 16.047932
v 19.736885 6.772469 13.454777
v 19.736885 13.588876 13.454777
v 19.736885 13.588876 16.047932
v 19.707664 6.772469 13.454777
v 19.707664 6.772469 16.047932
v 19.707664 13.588876 16.047932
v 19.707664 13.588876 13.454777
vn -0.0000 -0.0000 1.0000
vn -0.0000 1.0000 -0.0000
vn 1.0000 -0.0000 -0.0000
s 1
usemtl M_pCube98_blinn2_0_0
f 1//1 2//1 3//1
f 1//1 3//1 4//1
f 5//2 6//2 7//2
f 5//2 7//2 8//2
f 9//1 11//1 10//1
f 9//1 12//1 11//1
f 13//2 15//2 14//2
f 13//2 16//2 15//2
f 17//3 18//3 19//3
f 17//3 19//3 20//3
f 21//3 23//3 22//3
f 21//3 24//3 23//3
f 25//1 26//1 27//1
f 25//1 27//1 28//1
f 29//2 30//2 31//2
f 29//2 31//2 32//2
f 33//1 35//1 34//1
f 33//1 36//1 35//1
f 37//2 39//2 38//2
f 37//2 40//2 39//2
f 41//3 42//3 43//3
f 41//3 43//3 44//3
f 45//3 47//3 46//3
f 45//3 48//3 47//3
