# Blender 4.4.1
# www.blender.org
mtllib SM_pCylinder166_lambert1_0_001_0.mtl
o SM_pCylinder166_lambert1_0_001_0
v 17.533041 1.021062 15.971595
v 17.544600 1.021062 15.994278
v 17.467213 1.021062 16.019423
v 17.515039 1.021062 15.953594
v 17.492357 1.021062 15.942037
v 17.467213 1.021062 15.938054
v 17.442068 1.021062 15.942037
v 17.419386 1.021062 15.953594
v 17.401384 1.021062 15.971595
v 17.389826 1.021062 15.994278
v 17.385843 1.021062 16.019423
v 17.389826 1.021062 16.044567
v 17.401384 1.021062 16.067249
v 17.419386 1.021062 16.085251
v 17.442068 1.021062 16.096809
v 17.467213 1.021062 16.100792
v 17.492357 1.021062 16.096809
v 17.515039 1.021062 16.085251
v 17.533041 1.021062 16.067249
v 17.544600 1.021062 16.044567
v 17.548582 1.021062 16.019423
v 17.544600 1.117519 15.994278
v 17.533041 1.117519 15.971595
v 17.467213 1.117519 16.019423
v 17.515039 1.117519 15.953594
v 17.492357 1.117519 15.942037
v 17.467213 1.117519 15.938054
v 17.442068 1.117519 15.942037
v 17.419386 1.117519 15.953594
v 17.401384 1.117519 15.971595
v 17.389826 1.117519 15.994278
v 17.385843 1.117519 16.019423
v 17.389826 1.117519 16.044567
v 17.401384 1.117519 16.067249
v 17.419386 1.117519 16.085251
v 17.442068 1.117519 16.096809
v 17.467213 1.117519 16.100792
v 17.492357 1.117519 16.096809
v 17.515039 1.117519 16.085251
v 17.533041 1.117519 16.067249
v 17.544600 1.117519 16.044567
v 17.548582 1.117519 16.019423
v 17.544600 1.021062 15.994278
v 17.533041 1.021062 15.971595
v 17.533041 1.117519 15.971595
v 17.544600 1.117519 15.994278
v 17.515039 1.021062 15.953594
v 17.515039 1.117519 15.953594
v 17.492357 1.021062 15.942037
v 17.492357 1.117519 15.942037
v 17.467213 1.021062 15.938054
v 17.467213 1.117519 15.938054
v 17.442068 1.021062 15.942037
v 17.442068 1.117519 15.942037
v 17.419386 1.021062 15.953594
v 17.419386 1.117519 15.953594
v 17.401384 1.021062 15.971595
v 17.401384 1.117519 15.971595
v 17.389826 1.021062 15.994278
v 17.389826 1.117519 15.994278
v 17.385843 1.021062 16.019423
v 17.385843 1.117519 16.019423
v 17.389826 1.021062 16.044567
v 17.389826 1.117519 16.044567
v 17.401384 1.021062 16.067249
v 17.401384 1.117519 16.067249
v 17.419386 1.021062 16.085251
v 17.419386 1.117519 16.085251
v 17.442068 1.021062 16.096809
v 17.442068 1.117519 16.096809
v 17.467213 1.021062 16.100792
v 17.467213 1.117519 16.100792
v 17.492357 1.021062 16.096809
v 17.492357 1.117519 16.096809
v 17.515039 1.021062 16.085251
v 17.515039 1.117519 16.085251
v 17.533041 1.021062 16.067249
v 17.533041 1.117519 16.067249
v 17.544600 1.021062 16.044567
v 17.544600 1.117519 16.044567
v 17.548582 1.021062 16.019423
v 17.548582 1.117519 16.019423
v 17.544600 1.021062 15.994278
v 17.544600 1.117519 15.994278
vn -0.0000 1.0000 -0.0000
vn 0.9510 0.0001 -0.3091
vn 0.8090 -0.0000 -0.5878
vn 0.9510 -0.0000 -0.3092
vn 0.5878 -0.0000 -0.8090
vn 0.3090 -0.0000 -0.9511
vn 0.3091 -0.0000 -0.9510
vn -0.0000 -0.0000 -1.0000
vn -0.3091 -0.0000 -0.9510
vn -0.3090 -0.0000 -0.9511
vn -0.5878 -0.0000 -0.8090
vn -0.8090 -0.0000 -0.5878
vn -0.9510 -0.0000 -0.3091
vn -0.9511 -0.0000 -0.3090
vn -1.0000 -0.0000 -0.0000
vn -0.9511 -0.0000 0.3090
vn -0.9510 -0.0000 0.3091
vn -0.8090 -0.0000 0.5878
vn -0.5878 -0.0000 0.8090
vn -0.3091 -0.0000 0.9510
vn -0.3090 -0.0000 0.9511
vn -0.0000 -0.0000 1.0000
vn 0.3090 -0.0000 0.9511
vn 0.3091 -0.0000 0.9510
vn 0.5878 -0.0000 0.8090
vn 0.8090 -0.0000 0.5878
vn 0.9510 -0.0000 0.3091
vn 0.9511 -0.0000 0.3090
vn 1.0000 -0.0000 -0.0000
vn 0.9511 -0.0000 -0.3089
s 1
usemtl M_pCylinder166_lambert1_0_001_0
f 1//1 3//1 2//1
f 4//1 3//1 1//1
f 5//1 3//1 4//1
f 6//1 3//1 5//1
f 7//1 3//1 6//1
f 8//1 3//1 7//1
f 9//1 3//1 8//1
f 10//1 3//1 9//1
f 11//1 3//1 10//1
f 12//1 3//1 11//1
f 13//1 3//1 12//1
f 14//1 3//1 13//1
f 15//1 3//1 14//1
f 16//1 3//1 15//1
f 17//1 3//1 16//1
f 18//1 3//1 17//1
f 19//1 3//1 18//1
f 20//1 3//1 19//1
f 21//1 3//1 20//1
f 2//1 3//1 21//1
f 22//1 23//1 24//1
f 23//1 25//1 24//1
f 25//1 26//1 24//1
f 26//1 27//1 24//1
f 27//1 28//1 24//1
f 28//1 29//1 24//1
f 29//1 30//1 24//1
f 30//1 31//1 24//1
f 31//1 32//1 24//1
f 32//1 33//1 24//1
f 33//1 34//1 24//1
f 34//1 35//1 24//1
f 35//1 36//1 24//1
f 36//1 37//1 24//1
f 37//1 38//1 24//1
f 38//1 39//1 24//1
f 39//1 40//1 24//1
f 40//1 41//1 24//1
f 41//1 42//1 24//1
f 42//1 22//1 24//1
f 43//2 44//3 45//3
f 43//2 45//3 46//4
f 44//3 47//5 48//5
f 44//3 48//5 45//3
f 47//5 49//6 50//7
f 47//5 50//7 48//5
f 49//6 51//8 52//8
f 49//6 52//8 50//7
f 51//8 53//9 54//10
f 51//8 54//10 52//8
f 53//9 55//11 56//11
f 53//9 56//11 54//10
f 55//11 57//12 58//12
f 55//11 58//12 56//11
f 57//12 59//13 60//14
f 57//12 60//14 58//12
f 59//13 61//15 62//15
f 59//13 62//15 60//14
f 61//15 63//16 64//17
f 61//15 64//17 62//15
f 63//16 65//18 66//18
f 63//16 66//18 64//17
f 65//18 67//19 68//19
f 65//18 68//19 66//18
f 67//19 69//20 70//21
f 67//19 70//21 68//19
f 69//20 71//22 72//22
f 69//20 72//22 70//21
f 71//22 73//23 74//24
f 71//22 74//24 72//22
f 73//23 75//25 76//25
f 73//23 76//25 74//24
f 75//25 77//26 78//26
f 75//25 78//26 76//25
f 77//26 79//27 80//28
f 77//26 80//28 78//26
f 79//27 81//29 82//29
f 79//27 82//29 80//28
f 81//29 83//30 84//30
f 81//29 84//30 82//29
