# Blender 4.4.1
# www.blender.org
mtllib SM_polySurface158_lambert1_0_0.mtl
o SM_polySurface158_lambert1_0_0
v 4.360481 7.801723 2.482988
v 4.360481 8.180013 2.123096
v 4.360481 8.180013 2.476798
v 4.360481 8.178013 2.482988
v 4.360481 8.180013 2.476798
v 4.360481 8.180013 2.123096
v 4.271193 8.180013 2.123096
v 4.271193 8.180013 2.476798
v 4.360481 7.801723 2.482988
v 4.360481 8.178013 2.482988
v 4.271193 8.178013 2.482988
v 4.271193 7.801723 2.482988
v 4.358481 7.801723 2.480988
v 4.358481 8.178013 2.480988
v 4.358481 8.178013 2.476798
v 4.358481 8.178013 2.123096
v 4.358481 8.178013 2.476798
v 4.271193 8.178013 2.476798
v 4.271193 8.178013 2.123096
v 4.358481 8.178013 2.123096
v 4.358481 7.801723 2.480988
v 4.271193 7.801723 2.480988
v 4.271193 8.178013 2.480988
v 4.358481 8.178013 2.480988
v 4.358481 8.178013 2.480988
v 4.360481 8.178013 2.482988
v 4.360481 8.180013 2.476798
v 4.358481 8.178013 2.476798
v 4.358481 8.178013 2.123096
v 4.360481 8.180013 2.123096
v 4.360481 7.801723 2.482988
v 4.358481 7.801723 2.480988
v 4.358481 8.178013 2.476798
v 4.360481 8.180013 2.476798
v 4.271193 8.180013 2.476798
v 4.271193 8.178013 2.476798
v 4.271193 8.178013 2.476798
v 4.271193 8.180013 2.476798
v 4.271193 8.180013 2.123096
v 4.271193 8.178013 2.123096
v 4.271193 8.178013 2.123096
v 4.271193 8.180013 2.123096
v 4.360481 8.180013 2.123096
v 4.358481 8.178013 2.123096
v 4.358481 7.801723 2.480988
v 4.360481 7.801723 2.482988
v 4.271193 7.801723 2.482988
v 4.271193 7.801723 2.480988
v 4.271193 7.801723 2.480988
v 4.271193 7.801723 2.482988
v 4.271193 8.178013 2.482988
v 4.271193 8.178013 2.480988
v 4.271193 8.178013 2.480988
v 4.271193 8.178013 2.482988
v 4.360481 8.178013 2.482988
v 4.358481 8.178013 2.480988
vn 1.0000 -0.0000 -0.0000
vn -0.0000 1.0000 -0.0000
vn -0.0000 -0.0000 1.0000
vn -0.5052 0.8474 0.1632
vn -0.5052 0.8474 0.1633
vn -0.5054 0.8473 0.1631
vn -0.5626 0.5624 0.6060
vn -0.5820 0.5677 0.5823
vn -0.5724 0.5724 0.5871
vn -0.5912 0.5484 0.5914
vn -0.0000 1.0000 -0.0002
s 1
usemtl M_polySurface158_lambert1_0_0
f 1//1 2//1 3//1
f 1//1 3//1 4//1
f 5//2 6//2 7//2
f 5//2 7//2 8//2
f 9//3 10//3 11//3
f 9//3 11//3 12//3
f 13//1 15//1 14//1
f 13//1 16//1 15//1
f 17//2 19//2 18//2
f 17//2 20//2 19//2
f 21//3 23//3 22//3
f 21//3 24//3 23//3
f 25//4 26//5 27//6
f 25//4 27//6 28//6
f 29//7 31//8 30//9
f 29//7 32//10 31//8
f 33//3 34//3 35//3
f 33//3 35//3 36//3
f 37//1 39//1 38//1
f 37//1 40//1 39//1
f 41//3 43//3 42//3
f 41//3 44//3 43//3
f 45//2 47//2 46//2
f 45//2 48//2 47//2
f 49//1 51//1 50//1
f 49//1 52//1 51//1
f 53//2 54//2 55//11
f 53//2 55//11 56//11
