# Blender 4.4.1
# www.blender.org
mtllib SM_pCube145_lambert1_0_0.mtl
o SM_pCube145_lambert1_0_0
v 17.454588 0.923974 15.987428
v 17.479837 0.923974 15.987428
v 17.479837 1.007503 15.987428
v 17.454588 1.007503 15.987428
v 17.454588 1.007503 15.987428
v 17.479837 1.007503 15.987428
v 17.479837 1.007503 15.690518
v 17.454588 1.007503 15.690518
v 17.454588 1.007503 15.690518
v 17.479837 1.007503 15.690518
v 17.479837 0.923974 15.690518
v 17.454588 0.923974 15.690518
v 17.454588 0.923974 15.690518
v 17.479837 0.923974 15.690518
v 17.479837 0.923974 15.987428
v 17.454588 0.923974 15.987428
v 17.479837 0.923974 15.987428
v 17.479837 0.923974 15.690518
v 17.479837 1.007503 15.690518
v 17.479837 1.007503 15.987428
v 17.454588 0.923974 15.690518
v 17.454588 0.923974 15.987428
v 17.454588 1.007503 15.987428
v 17.454588 1.007503 15.690518
vn -0.0000 -0.0000 1.0000
vn -0.0000 1.0000 -0.0000
vn 1.0000 -0.0000 -0.0000
s 1
usemtl M_pCube145_lambert1_0_0
f 1//1 2//1 3//1
f 1//1 3//1 4//1
f 5//2 6//2 7//2
f 5//2 7//2 8//2
f 9//1 11//1 10//1
f 9//1 12//1 11//1
f 13//2 15//2 14//2
f 13//2 16//2 15//2
f 17//3 18//3 19//3
f 17//3 19//3 20//3
f 21//3 23//3 22//3
f 21//3 24//3 23//3
