# Blender 4.4.1
# www.blender.org
mtllib SM_polySurface209_lambert1_0_0.mtl
o SM_polySurface209_lambert1_0_0
v 7.228298 0.084493 -5.570891
v 7.234716 0.084493 -5.558295
v 7.191741 0.084493 -5.544331
v 7.218302 0.084493 -5.580889
v 7.205705 0.084493 -5.587307
v 7.191741 0.084493 -5.589519
v 7.177777 0.084493 -5.587307
v 7.165180 0.084493 -5.580888
v 7.155184 0.084493 -5.570891
v 7.148766 0.084493 -5.558295
v 7.146554 0.084493 -5.544331
v 7.148766 0.084493 -5.530367
v 7.155184 0.084493 -5.517771
v 7.165180 0.084493 -5.507774
v 7.177777 0.084493 -5.501355
v 7.191741 0.084493 -5.499144
v 7.205705 0.084493 -5.501355
v 7.218302 0.084493 -5.507774
v 7.228298 0.084493 -5.517771
v 7.234716 0.084493 -5.530367
v 7.236928 0.084493 -5.544331
v 7.234716 0.146901 -5.558295
v 7.228298 0.146901 -5.570891
v 7.191741 0.146901 -5.544331
v 7.218302 0.146901 -5.580889
v 7.205705 0.146901 -5.587307
v 7.191741 0.146901 -5.589519
v 7.177777 0.146901 -5.587307
v 7.165180 0.146901 -5.580888
v 7.155184 0.146901 -5.570891
v 7.148766 0.146901 -5.558295
v 7.146554 0.146901 -5.544331
v 7.148766 0.146901 -5.530367
v 7.155184 0.146901 -5.517771
v 7.165180 0.146901 -5.507774
v 7.177777 0.146901 -5.501355
v 7.191741 0.146901 -5.499144
v 7.205705 0.146901 -5.501355
v 7.218302 0.146901 -5.507774
v 7.228298 0.146901 -5.517771
v 7.234716 0.146901 -5.530367
v 7.236928 0.146901 -5.544331
v 7.234716 0.084493 -5.558295
v 7.228298 0.084493 -5.570891
v 7.228298 0.146901 -5.570891
v 7.234716 0.146901 -5.558295
v 7.218302 0.084493 -5.580889
v 7.218302 0.146901 -5.580889
v 7.205705 0.084493 -5.587307
v 7.205705 0.146901 -5.587307
v 7.191741 0.084493 -5.589519
v 7.191741 0.146901 -5.589519
v 7.177777 0.084493 -5.587307
v 7.177777 0.146901 -5.587307
v 7.165180 0.084493 -5.580888
v 7.165180 0.146901 -5.580888
v 7.155184 0.084493 -5.570891
v 7.155184 0.146901 -5.570891
v 7.148766 0.084493 -5.558295
v 7.148766 0.146901 -5.558295
v 7.146554 0.084493 -5.544331
v 7.146554 0.146901 -5.544331
v 7.148766 0.084493 -5.530367
v 7.148766 0.146901 -5.530367
v 7.155184 0.084493 -5.517771
v 7.155184 0.146901 -5.517771
v 7.165180 0.084493 -5.507774
v 7.165180 0.146901 -5.507774
v 7.177777 0.084493 -5.501355
v 7.177777 0.146901 -5.501355
v 7.191741 0.084493 -5.499144
v 7.191741 0.146901 -5.499144
v 7.205705 0.084493 -5.501355
v 7.205705 0.146901 -5.501355
v 7.218302 0.084493 -5.507774
v 7.218302 0.146901 -5.507774
v 7.228298 0.084493 -5.517771
v 7.228298 0.146901 -5.517771
v 7.234716 0.084493 -5.530367
v 7.234716 0.146901 -5.530367
v 7.236928 0.084493 -5.544331
v 7.236928 0.146901 -5.544331
v 7.234716 0.084493 -5.558295
v 7.234716 0.146901 -5.558295
vn -0.0000 1.0000 -0.0000
vn 0.9510 -0.0000 -0.3091
vn 0.8090 -0.0000 -0.5878
vn 0.5878 -0.0000 -0.8090
vn 0.3090 -0.0000 -0.9510
vn 0.3090 -0.0000 -0.9511
vn -0.0000 -0.0000 -1.0000
vn -0.3090 -0.0000 -0.9511
vn -0.3090 -0.0000 -0.9510
vn -0.5878 -0.0000 -0.8090
vn -0.8090 -0.0000 -0.5878
vn -0.9511 -0.0000 -0.3090
vn -1.0000 -0.0000 -0.0000
vn -0.9511 -0.0000 0.3090
vn -0.8090 -0.0000 0.5878
vn -0.5878 -0.0000 0.8090
vn -0.3090 -0.0000 0.9511
vn -0.0000 -0.0000 1.0000
vn 0.3090 -0.0000 0.9511
vn 0.5878 -0.0000 0.8090
vn 0.8090 -0.0000 0.5878
vn 0.9511 -0.0000 0.3090
vn 1.0000 -0.0000 -0.0000
vn 0.9511 -0.0000 -0.3089
s 1
usemtl M_polySurface209_lambert1_0_0
f 1//1 3//1 2//1
f 4//1 3//1 1//1
f 5//1 3//1 4//1
f 6//1 3//1 5//1
f 7//1 3//1 6//1
f 8//1 3//1 7//1
f 9//1 3//1 8//1
f 10//1 3//1 9//1
f 11//1 3//1 10//1
f 12//1 3//1 11//1
f 13//1 3//1 12//1
f 14//1 3//1 13//1
f 15//1 3//1 14//1
f 16//1 3//1 15//1
f 17//1 3//1 16//1
f 18//1 3//1 17//1
f 19//1 3//1 18//1
f 20//1 3//1 19//1
f 21//1 3//1 20//1
f 2//1 3//1 21//1
f 22//1 23//1 24//1
f 23//1 25//1 24//1
f 25//1 26//1 24//1
f 26//1 27//1 24//1
f 27//1 28//1 24//1
f 28//1 29//1 24//1
f 29//1 30//1 24//1
f 30//1 31//1 24//1
f 31//1 32//1 24//1
f 32//1 33//1 24//1
f 33//1 34//1 24//1
f 34//1 35//1 24//1
f 35//1 36//1 24//1
f 36//1 37//1 24//1
f 37//1 38//1 24//1
f 38//1 39//1 24//1
f 39//1 40//1 24//1
f 40//1 41//1 24//1
f 41//1 42//1 24//1
f 42//1 22//1 24//1
f 43//2 44//3 45//3
f 43//2 45//3 46//2
f 44//3 47//4 48//4
f 44//3 48//4 45//3
f 47//4 49//5 50//6
f 47//4 50//6 48//4
f 49//5 51//7 52//7
f 49//5 52//7 50//6
f 51//7 53//8 54//9
f 51//7 54//9 52//7
f 53//8 55//10 56//10
f 53//8 56//10 54//9
f 55//10 57//11 58//11
f 55//10 58//11 56//10
f 57//11 59//12 60//12
f 57//11 60//12 58//11
f 59//12 61//13 62//13
f 59//12 62//13 60//12
f 61//13 63//14 64//14
f 61//13 64//14 62//13
f 63//14 65//15 66//15
f 63//14 66//15 64//14
f 65//15 67//16 68//16
f 65//15 68//16 66//15
f 67//16 69//17 70//17
f 67//16 70//17 68//16
f 69//17 71//18 72//18
f 69//17 72//18 70//17
f 71//18 73//19 74//19
f 71//18 74//19 72//18
f 73//19 75//20 76//20
f 73//19 76//20 74//19
f 75//20 77//21 78//21
f 75//20 78//21 76//20
f 77//21 79//22 80//22
f 77//21 80//22 78//21
f 79//22 81//23 82//23
f 79//22 82//23 80//22
f 81//23 83//24 84//24
f 81//23 84//24 82//23
