# Blender 4.4.1
# www.blender.org
mtllib SM_polySurface271_lambert1_0_0.mtl
o SM_polySurface271_lambert1_0_0
v 2.521934 5.147280 5.038112
v 2.521934 5.147280 3.523353
v 2.521934 6.009898 3.523353
v 2.521934 6.009898 5.038112
v 5.089328 6.009898 3.523353
v 2.521934 6.009898 3.523353
v 2.521934 5.147280 3.523353
v 5.089328 5.147280 3.523353
v 5.089328 5.147280 5.038112
v 2.521934 5.147280 5.038112
v 2.521934 6.009898 5.038112
v 5.089328 6.009898 5.038112
v 5.089328 5.147280 3.523353
v 5.089328 5.147280 5.038112
v 5.089328 6.009898 5.038112
v 5.089328 6.009898 3.523353
v 2.521934 6.009898 5.038112
v 2.521934 6.009898 3.523353
v 2.372720 6.009898 3.435317
v 2.372720 6.009898 5.126148
v 2.521934 6.009898 3.523353
v 5.089328 6.009898 3.523353
v 5.238542 6.009898 3.435317
v 2.372720 6.009898 3.435317
v 5.089328 6.009898 5.038112
v 2.521934 6.009898 5.038112
v 2.372720 6.009898 5.126148
v 5.238542 6.009898 5.126148
v 5.089328 6.009898 3.523353
v 5.089328 6.009898 5.038112
v 5.238542 6.009898 5.126148
v 5.238542 6.009898 3.435317
v 2.372720 6.009898 5.126148
v 2.372720 6.009898 3.435317
v 2.372720 5.959178 3.435317
v 2.372720 5.959178 5.126148
v 2.372720 6.009898 3.435317
v 5.238542 6.009898 3.435317
v 5.238542 5.959178 3.435317
v 2.372720 5.959178 3.435317
v 5.238542 6.009898 5.126148
v 2.372720 6.009898 5.126148
v 2.372720 5.959178 5.126148
v 5.238542 5.959178 5.126148
v 5.238542 6.009898 3.435317
v 5.238542 6.009898 5.126148
v 5.238542 5.959178 5.126148
v 5.238542 5.959178 3.435317
v 2.521934 5.147280 3.523353
v 3.638992 5.147280 4.234958
v 3.646443 5.147280 4.187905
v 3.668069 5.147280 4.145459
v 3.701755 5.147280 4.111773
v 3.744201 5.147280 4.090145
v 3.791254 5.147280 4.082691
v 3.838306 5.147280 4.090145
v 3.880754 5.147280 4.111773
v 3.914439 5.147280 4.145459
v 3.936065 5.147280 4.187905
v 3.943517 5.147280 4.234958
v 5.089328 5.147280 5.038112
v 5.089328 5.147280 3.523353
v 3.936064 5.147280 4.282010
v 3.914439 5.147280 4.324453
v 3.880754 5.147280 4.358139
v 3.838306 5.147280 4.379768
v 3.791254 5.147280 4.387221
v 3.744201 5.147280 4.379768
v 3.701755 5.147280 4.358139
v 3.668069 5.147280 4.324453
v 3.646443 5.147280 4.282010
v 2.521934 5.147280 5.038112
vn 1.0000 -0.0000 -0.0000
vn -0.0000 -0.0000 1.0000
vn -0.0000 1.0000 -0.0000
s 1
usemtl M_polySurface271_lambert1_0_0
f 1//1 2//1 3//1
f 1//1 3//1 4//1
f 5//2 6//2 7//2
f 5//2 7//2 8//2
f 9//2 11//2 10//2
f 9//2 12//2 11//2
f 13//1 15//1 14//1
f 13//1 16//1 15//1
f 17//3 18//3 19//3
f 17//3 19//3 20//3
f 21//3 22//3 23//3
f 21//3 23//3 24//3
f 25//3 26//3 27//3
f 25//3 27//3 28//3
f 29//3 30//3 31//3
f 29//3 31//3 32//3
f 33//1 35//1 34//1
f 33//1 36//1 35//1
f 37//2 39//2 38//2
f 37//2 40//2 39//2
f 41//2 42//2 43//2
f 41//2 43//2 44//2
f 45//1 46//1 47//1
f 45//1 47//1 48//1
f 49//3 54//3 62//3
f 54//3 49//3 53//3
f 53//3 49//3 52//3
f 52//3 49//3 51//3
f 51//3 49//3 50//3
f 62//3 54//3 55//3
f 62//3 57//3 61//3
f 57//3 62//3 56//3
f 56//3 62//3 55//3
f 61//3 57//3 58//3
f 61//3 58//3 59//3
f 61//3 59//3 60//3
f 72//3 50//3 49//3
f 50//3 72//3 71//3
f 71//3 72//3 70//3
f 70//3 72//3 69//3
f 69//3 72//3 68//3
f 68//3 72//3 67//3
f 63//3 61//3 60//3
f 61//3 63//3 64//3
f 61//3 64//3 65//3
f 61//3 65//3 66//3
f 61//3 66//3 67//3
f 61//3 67//3 72//3
