# Blender 4.4.1
# www.blender.org
mtllib SM_polySurface767_lambert1_0_0.mtl
o SM_polySurface767_lambert1_0_0
v -0.248615 -0.451158 0.451291
v -0.248615 0.557210 0.451291
v 0.480914 0.557210 0.451291
v 0.480914 -0.451158 0.451291
v -0.248615 0.557210 0.451291
v -0.248615 0.557210 -0.451294
v 0.480914 0.557210 -0.451293
v 0.480914 0.557210 0.451291
v -0.248615 0.557210 -0.451294
v -0.248615 -0.451158 -0.451294
v 0.480914 -0.451158 -0.451293
v 0.480914 0.557210 -0.451293
v -0.248615 -0.451158 -0.451294
v -0.248615 -0.451158 0.451291
v 0.480914 -0.451158 0.451291
v 0.480914 -0.451158 -0.451293
v 0.480914 -0.451158 0.451291
v 0.480914 0.557210 0.451291
v 0.480914 0.557210 -0.451293
v 0.480914 -0.451158 -0.451293
v -0.248615 -0.470244 0.500000
v 0.500000 -0.470244 0.500000
v 0.500000 0.576296 0.500000
v -0.248615 0.576296 0.500000
v -0.248615 0.576296 0.500000
v 0.500000 0.576296 0.500000
v 0.500000 0.576296 -0.500002
v -0.248615 0.576296 -0.500002
v -0.248615 0.576296 -0.500002
v 0.500000 0.576296 -0.500002
v 0.500000 -0.470244 -0.500002
v -0.248615 -0.470244 -0.500002
v -0.248615 -0.470244 -0.500002
v 0.500000 -0.470244 -0.500002
v 0.500000 -0.470244 0.500000
v -0.248615 -0.470244 0.500000
v 0.500000 -0.470244 0.500000
v 0.500000 -0.470244 -0.500002
v 0.500000 0.576296 -0.500002
v 0.500000 0.576296 0.500000
v -0.248615 0.576296 0.500000
v -0.248615 0.557210 0.451291
v -0.248615 -0.451158 0.451291
v -0.248615 -0.470244 0.500000
v -0.248615 0.576296 -0.500002
v -0.248615 0.557210 -0.451294
v -0.248615 -0.470244 -0.500002
v -0.248615 -0.451158 -0.451294
v -0.248615 -0.470244 0.500000
v -0.248615 -0.451158 0.451291
vn -0.0000 -0.0000 1.0000
vn -0.0000 1.0000 -0.0000
vn -0.0000 -0.0000 -1.0000
vn -0.0000 -1.0000 -0.0000
vn 1.0000 -0.0000 -0.0000
vn -1.0000 -0.0000 -0.0000
s 1
usemtl M_polySurface767_lambert1_0_0
f 1//1 3//1 2//1
f 1//1 4//1 3//1
f 5//2 7//2 6//2
f 5//2 8//2 7//2
f 9//3 11//3 10//3
f 9//3 12//3 11//3
f 13//4 15//4 14//4
f 13//4 16//4 15//4
f 17//5 19//5 18//5
f 17//5 20//5 19//5
f 21//1 22//1 23//1
f 21//1 23//1 24//1
f 25//2 26//2 27//2
f 25//2 27//2 28//2
f 29//3 30//3 31//3
f 29//3 31//3 32//3
f 33//4 34//4 35//4
f 33//4 35//4 36//4
f 37//5 38//5 39//5
f 37//5 39//5 40//5
f 41//6 42//6 43//6
f 41//6 43//6 44//6
f 45//6 46//6 42//6
f 45//6 42//6 41//6
f 47//6 48//6 46//6
f 47//6 46//6 45//6
f 49//6 50//6 48//6
f 49//6 48//6 47//6
