# Blender 4.4.1
# www.blender.org
mtllib SM_polySurface177_lambert1_0_0.mtl
o SM_polySurface177_lambert1_0_0
v 4.638511 8.184645 -2.880966
v 4.643933 8.184645 -2.880966
v 4.643933 8.184645 -2.961649
v 4.638511 8.184645 -2.961649
v 4.617394 8.079760 -2.929783
v 4.622816 8.079760 -2.929783
v 4.622816 8.079760 -2.912832
v 4.617394 8.079760 -2.912832
v 4.617394 8.111626 -2.880966
v 4.617394 8.095693 -2.885235
v 4.622816 8.095693 -2.885235
v 4.622816 8.111626 -2.880966
v 4.617394 8.095693 -2.885235
v 4.617394 8.084029 -2.896899
v 4.622816 8.084029 -2.896899
v 4.622816 8.095693 -2.885235
v 4.617394 8.084029 -2.896899
v 4.622816 8.084029 -2.896899
v 4.617394 8.084029 -2.945716
v 4.622816 8.084029 -2.945716
v 4.617394 8.095693 -2.957380
v 4.622816 8.095693 -2.957380
v 4.617394 8.095693 -2.957380
v 4.617394 8.111626 -2.961649
v 4.622816 8.111626 -2.961649
v 4.622816 8.095693 -2.957380
v 4.619792 8.156003 -2.880966
v 4.615181 8.145168 -2.880966
v 4.620603 8.145168 -2.880966
v 4.625213 8.156003 -2.880966
v 4.614603 8.133411 -2.880966
v 4.620026 8.133411 -2.880966
v 4.614603 8.133411 -2.961649
v 4.615181 8.145168 -2.961649
v 4.620603 8.145168 -2.961649
v 4.620026 8.133411 -2.961649
v 4.619792 8.156003 -2.961649
v 4.625213 8.156003 -2.961649
v 4.617394 8.111626 -2.880966
v 4.638511 8.184645 -2.961649
v 4.643933 8.184645 -2.961649
v 4.643933 8.184645 -2.961649
v 4.643933 8.184645 -2.880966
v 4.625213 8.156003 -2.880966
v 4.625213 8.156003 -2.961649
v 4.643933 8.184645 -2.880966
v 4.638511 8.184645 -2.880966
v 4.617394 8.111626 -2.961649
v 4.619792 8.156003 -2.961649
v 4.619792 8.156003 -2.880966
v 4.638511 8.184645 -2.880966
v 4.638511 8.184645 -2.961649
v 4.614603 8.133411 -2.880966
v 4.615181 8.145168 -2.880966
v 4.615181 8.145168 -2.961649
v 4.614603 8.133411 -2.961649
v 4.620603 8.145168 -2.880966
v 4.620603 8.145168 -2.961649
v 4.620026 8.133411 -2.880966
v 4.620026 8.133411 -2.961649
v 4.617394 8.079760 -2.929783
v 4.617394 8.079760 -2.912832
v 4.617394 8.084029 -2.896899
v 4.617394 8.095693 -2.885235
v 4.617394 8.111626 -2.880966
v 4.617394 8.111626 -2.961649
v 4.617394 8.095693 -2.957380
v 4.617394 8.084029 -2.945716
v 4.622816 8.111626 -2.880966
v 4.622816 8.095693 -2.885235
v 4.622816 8.084029 -2.896899
v 4.622816 8.079760 -2.912832
v 4.622816 8.079760 -2.929783
v 4.622816 8.084029 -2.945716
v 4.622816 8.095693 -2.957380
v 4.622816 8.111626 -2.961649
vn -0.0000 1.0000 -0.0000
vn -0.0000 0.9916 0.1290
vn -0.0000 0.9916 -0.1290
vn -0.1534 0.2557 -0.9545
vn -0.0000 0.2588 -0.9659
vn 0.1430 0.2561 -0.9560
vn -0.0000 0.7071 -0.7071
vn 0.2586 0.6832 -0.6829
vn -0.2586 0.6831 -0.6830
vn -0.2586 0.9331 -0.2501
vn 0.2585 0.9331 -0.2501
vn -0.0000 0.8660 0.5000
vn -0.0000 0.7071 0.7071
vn -0.0000 -0.2588 -0.9659
vn -0.0000 -0.1076 -0.9942
vn -0.0000 -0.1180 -0.9930
vn -0.0000 -0.0000 -1.0000
vn -0.1065 -0.0136 -0.9942
vn 0.1168 0.0150 -0.9930
vn -0.8371 0.5471 -0.0000
vn -0.8596 0.5109 -0.0000
vn -0.8592 0.5117 -0.0000
vn -0.0000 -0.1178 -0.9930
vn -0.0000 -0.1074 -0.9942
vn -0.8609 0.5088 -0.0000
vn -0.9993 -0.0374 -0.0000
vn -0.9746 0.2238 -0.0000
vn -0.9993 -0.0375 -0.0000
vn -0.9746 0.2237 -0.0000
vn -0.9993 -0.0373 -0.0000
vn -0.9983 -0.0588 -0.0000
vn -0.9983 0.0294 0.0509
vn -0.9982 0.0572 0.0153
vn -0.9983 0.0568 -0.0152
vn -0.9983 0.0294 -0.0509
vn -0.9983 -0.0294 0.0509
vn -0.9983 -0.0294 -0.0509
vn -0.9982 -0.0596 -0.0026
vn -0.9982 -0.0596 0.0026
s 1
usemtl M_polySurface177_lambert1_0_0
f 1//1 2//1 3//1
f 1//1 3//1 4//1
f 5//2 7//3 6//2
f 5//2 8//3 7//3
f 9//4 11//5 10//5
f 9//4 12//6 11//5
f 13//7 15//8 14//9
f 13//7 16//7 15//8
f 17//10 7//3 8//3
f 17//10 18//11 7//3
f 5//2 20//12 19//12
f 5//2 6//2 20//12
f 19//12 22//13 21//13
f 19//12 20//12 22//13
f 23//14 24//15 25//16
f 23//14 25//16 26//14
f 27//17 29//17 28//17
f 27//17 30//17 29//17
f 28//17 32//17 31//17
f 28//17 29//17 32//17
f 33//17 34//17 35//17
f 33//17 35//17 36//17
f 34//17 37//17 38//17
f 34//17 38//17 35//17
f 39//18 32//17 12//19
f 39//18 31//17 32//17
f 40//17 41//17 38//17
f 40//17 38//17 37//17
f 42//20 44//21 43//20
f 42//20 45//22 44//21
f 27//17 46//17 30//17
f 27//17 47//17 46//17
f 33//17 36//17 25//23
f 33//17 25//23 48//24
f 49//25 50//25 51//20
f 49//25 51//20 52//20
f 53//26 54//27 55//27
f 53//26 55//27 56//28
f 54//27 50//25 49//25
f 54//27 49//25 55//27
f 44//21 58//29 57//27
f 44//21 45//22 58//29
f 57//27 60//30 59//30
f 57//27 58//29 60//30
f 63//31 61//31 62//31
f 61//31 63//31 68//31
f 68//31 63//31 64//31
f 68//31 64//31 67//31
f 67//31 64//31 65//31
f 67//31 65//31 66//31
f 66//31 65//31 53//26
f 66//31 53//26 56//28
f 74//32 73//33 72//34
f 72//34 71//35 74//32
f 71//35 75//36 74//32
f 71//35 70//37 75//36
f 70//37 76//38 75//36
f 70//37 69//39 76//38
f 69//39 60//30 76//38
f 69//39 59//30 60//30
