# Blender 4.4.1
# www.blender.org
mtllib SM_polySurface647_blinn3_0_0.mtl
o SM_polySurface647_blinn3_0_0
v -12.822094 6.216177 22.889885
v -12.831961 6.214959 22.894588
v -12.824030 6.216177 22.887066
v -12.826746 6.216177 22.884987
v -12.829969 6.216177 22.883846
v -12.833387 6.216177 22.883757
v -12.836664 6.216178 22.884727
v -12.839485 6.216177 22.886665
v -12.841562 6.216177 22.889376
v -12.842703 6.216177 22.892601
v -12.842796 6.216177 22.896015
v -12.841824 6.216177 22.899298
v -12.839886 6.216177 22.902117
v -12.837177 6.216177 22.904196
v -12.833950 6.216177 22.905338
v -12.830536 6.216177 22.905426
v -12.827257 6.216177 22.904457
v -12.824436 6.216177 22.902519
v -12.822353 6.216177 22.899805
v -12.821215 6.216177 22.896584
v -12.821125 6.216177 22.893166
v -12.822495 6.218142 22.890076
v -12.824352 6.218142 22.887371
v -12.831963 6.216971 22.894590
v -12.826958 6.218142 22.885376
v -12.830050 6.218142 22.884281
v -12.833330 6.218142 22.884195
v -12.836473 6.218142 22.885128
v -12.839180 6.218142 22.886986
v -12.841173 6.218142 22.889587
v -12.842268 6.218142 22.892681
v -12.842358 6.218142 22.895958
v -12.841423 6.218142 22.899107
v -12.839565 6.218142 22.901812
v -12.836966 6.218142 22.903807
v -12.833870 6.218142 22.904903
v -12.830593 6.218142 22.904987
v -12.827448 6.218142 22.904057
v -12.824741 6.218142 22.902199
v -12.822742 6.218142 22.899593
v -12.821650 6.218142 22.896502
v -12.821564 6.218142 22.893223
v -12.787621 6.263374 22.873444
v -12.796324 6.263374 22.860777
v -12.796326 6.798289 22.860779
v -12.787621 6.798289 22.873444
v -12.808521 6.263374 22.851419
v -12.808519 6.798289 22.851419
v -12.823008 6.263373 22.846289
v -12.823006 6.798289 22.846289
v -12.838373 6.263374 22.845886
v -12.838373 6.798289 22.845886
v -12.853107 6.263374 22.850250
v -12.853107 6.798289 22.850252
v -12.865776 6.263373 22.858955
v -12.865776 6.798289 22.858955
v -12.875132 6.263374 22.871151
v -12.875130 6.798289 22.871151
v -12.880262 6.263373 22.885639
v -12.880264 6.798289 22.885639
v -12.880665 6.263373 22.901001
v -12.880667 6.798289 22.901001
v -12.876299 6.263374 22.915739
v -12.876297 6.798289 22.915739
v -12.867594 6.263374 22.928406
v -12.867594 6.798289 22.928406
v -12.855400 6.263373 22.937765
v -12.855400 6.798289 22.937765
v -12.840910 6.263373 22.942894
v -12.840910 6.798289 22.942894
v -12.825550 6.263374 22.943295
v -12.825550 6.798289 22.943295
v -12.810810 6.263373 22.938931
v -12.810810 6.798289 22.938931
v -12.798145 6.263373 22.930225
v -12.798145 6.798289 22.930225
v -12.788788 6.263373 22.918030
v -12.788788 6.798289 22.918032
v -12.783657 6.263373 22.903545
v -12.783657 6.798289 22.903545
v -12.783253 6.263373 22.888180
v -12.783253 6.798289 22.888180
v -12.787621 6.263374 22.873444
v -12.787621 6.798289 22.873444
v -12.812729 6.219759 22.885418
v -12.816507 6.219760 22.879923
v -12.804321 6.225533 22.881409
v -12.809746 6.225533 22.873516
v -12.797297 6.233213 22.878056
v -12.804321 6.225533 22.881409
v -12.809746 6.225533 22.873516
v -12.804104 6.233213 22.868156
v -12.792007 6.242415 22.875534
v -12.799850 6.242415 22.864120
v -12.788723 6.252681 22.873968
v -12.797211 6.252681 22.861618
v -12.821796 6.219760 22.875866
v -12.817348 6.225533 22.867683
v -12.817348 6.225533 22.867683
v -12.813637 6.233213 22.860842
v -12.810839 6.242415 22.855690
v -12.809101 6.252681 22.852493
v -12.828079 6.219760 22.873640
v -12.826382 6.225533 22.864485
v -12.826382 6.225533 22.864485
v -12.824959 6.233214 22.856829
v -12.823893 6.242415 22.851067
v -12.823235 6.252681 22.847488
v -12.834742 6.219759 22.873466
v -12.835958 6.225533 22.864231
v -12.835958 6.225533 22.864231
v -12.836975 6.233213 22.856514
v -12.837740 6.242415 22.850706
v -12.838215 6.252681 22.847097
v -12.841133 6.219759 22.875362
v -12.845142 6.225533 22.866955
v -12.845142 6.225533 22.866955
v -12.848494 6.233214 22.859928
v -12.851017 6.242415 22.854639
v -12.852583 6.252681 22.851357
v -12.846626 6.219759 22.879135
v -12.853039 6.225534 22.872379
v -12.853039 6.225534 22.872379
v -12.858397 6.233214 22.866735
v -12.862431 6.242415 22.862480
v -12.864933 6.252681 22.859842
v -12.850685 6.219759 22.884426
v -12.858870 6.225534 22.879980
v -12.858870 6.225534 22.879980
v -12.865711 6.233213 22.876266
v -12.870861 6.242415 22.873472
v -12.874058 6.252681 22.871733
v -12.852909 6.219759 22.890711
v -12.862068 6.225533 22.889011
v -12.862068 6.225533 22.889011
v -12.869719 6.233213 22.887592
v -12.875481 6.242415 22.886524
v -12.879063 6.252681 22.885860
v -12.853086 6.219759 22.897373
v -12.862318 6.225533 22.898590
v -12.862318 6.225533 22.898590
v -12.870033 6.233214 22.899603
v -12.875845 6.242415 22.900368
v -12.879454 6.252681 22.900845
v -12.851192 6.219759 22.903763
v -12.859600 6.225533 22.907774
v -12.859600 6.225533 22.907774
v -12.866621 6.233214 22.911127
v -12.871910 6.242415 22.913649
v -12.875196 6.252681 22.915215
v -12.847416 6.219759 22.909260
v -12.854170 6.225533 22.915672
v -12.854170 6.225533 22.915672
v -12.859818 6.233213 22.921028
v -12.864067 6.242415 22.925060
v -12.866711 6.252681 22.927567
v -12.842129 6.219760 22.913319
v -12.846571 6.225533 22.921501
v -12.846571 6.225533 22.921501
v -12.850285 6.233214 22.928343
v -12.853085 6.242415 22.933493
v -12.854816 6.252681 22.936687
v -12.835844 6.219760 22.915545
v -12.837538 6.225533 22.924696
v -12.837538 6.225533 22.924696
v -12.838957 6.233213 22.932354
v -12.840025 6.242415 22.938114
v -12.840691 6.252681 22.941692
v -12.829180 6.219760 22.915716
v -12.827967 6.225534 22.924953
v -12.827967 6.225534 22.924953
v -12.826950 6.233213 22.932667
v -12.826183 6.242415 22.938477
v -12.825708 6.252681 22.942087
v -12.822788 6.219760 22.913824
v -12.818779 6.225533 22.922230
v -12.818779 6.225533 22.922230
v -12.815426 6.233214 22.929256
v -12.812901 6.242415 22.934544
v -12.811338 6.252681 22.937828
v -12.817299 6.219760 22.910048
v -12.810884 6.225533 22.916801
v -12.810884 6.225533 22.916801
v -12.805527 6.233214 22.922447
v -12.801493 6.242415 22.926701
v -12.798985 6.252681 22.929337
v -12.813236 6.219760 22.904757
v -12.805048 6.225533 22.909204
v -12.805048 6.225533 22.909204
v -12.798212 6.233213 22.912916
v -12.793060 6.242415 22.915714
v -12.789864 6.252681 22.917450
v -12.811012 6.219759 22.898474
v -12.801853 6.225533 22.900169
v -12.801853 6.225533 22.900169
v -12.794199 6.233214 22.901590
v -12.788437 6.242416 22.902658
v -12.784859 6.252681 22.903322
v -12.810837 6.219760 22.891808
v -12.801605 6.225533 22.890594
v -12.801605 6.225533 22.890594
v -12.793884 6.233213 22.889578
v -12.788074 6.242416 22.888815
v -12.784464 6.252681 22.888336
v -12.804321 6.225533 22.881409
v -12.797297 6.233213 22.878056
v -12.792007 6.242415 22.875534
v -12.788723 6.252681 22.873968
v -12.789450 6.263489 22.874315
v -12.789450 6.798289 22.874315
v -12.797794 6.798289 22.862171
v -12.797794 6.263489 22.862171
v -12.809486 6.798289 22.853199
v -12.809486 6.263489 22.853199
v -12.823376 6.798289 22.848280
v -12.823376 6.263489 22.848280
v -12.838108 6.798289 22.847893
v -12.838108 6.263489 22.847893
v -12.852236 6.798289 22.852079
v -12.852236 6.263489 22.852079
v -12.864382 6.798289 22.860424
v -12.864382 6.263489 22.860424
v -12.873352 6.798289 22.872116
v -12.873352 6.263489 22.872116
v -12.878273 6.798289 22.886009
v -12.878273 6.263489 22.886009
v -12.878658 6.798289 22.900738
v -12.878658 6.263489 22.900738
v -12.874472 6.798289 22.914867
v -12.874472 6.263489 22.914867
v -12.866125 6.798289 22.927013
v -12.866125 6.263489 22.927013
v -12.854435 6.798289 22.935986
v -12.854435 6.263489 22.935986
v -12.840542 6.798289 22.940903
v -12.840542 6.263489 22.940903
v -12.825815 6.798289 22.941288
v -12.825815 6.263489 22.941288
v -12.811682 6.798289 22.937103
v -12.811682 6.263489 22.937103
v -12.799540 6.798289 22.928757
v -12.799540 6.263489 22.928757
v -12.790567 6.798289 22.917065
v -12.790567 6.263489 22.917065
v -12.785648 6.798289 22.903175
v -12.785648 6.263489 22.903175
v -12.785259 6.798289 22.888443
v -12.785259 6.263489 22.888443
v -12.789450 6.798289 22.874315
v -12.789450 6.263489 22.874315
v -12.813511 6.221581 22.885792
v -12.817135 6.221581 22.880520
v -12.805450 6.227122 22.881948
v -12.810654 6.227122 22.874378
v -12.798721 6.234488 22.878735
v -12.805248 6.234488 22.869244
v -12.810654 6.227122 22.874378
v -12.805450 6.227122 22.881948
v -12.793657 6.243306 22.876322
v -12.801176 6.243306 22.865379
v -12.798651 6.253139 22.862984
v -12.790512 6.253139 22.874823
v -12.822208 6.221581 22.876627
v -12.817945 6.227122 22.868782
v -12.814388 6.234488 22.862228
v -12.817945 6.227122 22.868782
v -12.811710 6.243306 22.857296
v -12.810047 6.253139 22.854237
v -12.828238 6.221581 22.874493
v -12.826611 6.227122 22.865715
v -12.825247 6.234488 22.858379
v -12.826611 6.227122 22.865715
v -12.824224 6.243306 22.852863
v -12.823595 6.253139 22.849440
v -12.834629 6.221581 22.874327
v -12.835794 6.227122 22.865471
v -12.836769 6.234488 22.858078
v -12.835794 6.227122 22.865471
v -12.837502 6.243306 22.852518
v -12.837955 6.253139 22.849064
v -12.840761 6.221581 22.876144
v -12.844603 6.227122 22.868084
v -12.847813 6.234488 22.861353
v -12.844603 6.227122 22.868084
v -12.850229 6.243306 22.856289
v -12.851730 6.253139 22.853146
v -12.846031 6.221581 22.879765
v -12.852177 6.227122 22.873287
v -12.857309 6.234488 22.867880
v -12.852177 6.227122 22.873287
v -12.861172 6.243306 22.863808
v -12.863567 6.253139 22.861282
v -12.849924 6.221581 22.884840
v -12.857769 6.227122 22.880577
v -12.864323 6.234488 22.877020
v -12.857769 6.227122 22.880577
v -12.869255 6.243306 22.874344
v -12.872314 6.253139 22.872681
v -12.852057 6.221581 22.890869
v -12.860838 6.227122 22.889240
v -12.868168 6.234488 22.887880
v -12.860838 6.227122 22.889240
v -12.873686 6.243306 22.886858
v -12.877111 6.253139 22.886223
v -12.852226 6.221581 22.897261
v -12.861076 6.227122 22.898426
v -12.868471 6.234488 22.899397
v -12.861076 6.227122 22.898426
v -12.874033 6.243306 22.900129
v -12.877487 6.253139 22.900585
v -12.850409 6.221581 22.903389
v -12.858471 6.227122 22.907234
v -12.865196 6.234488 22.910448
v -12.858471 6.227122 22.907234
v -12.870262 6.243306 22.912861
v -12.873407 6.253139 22.914360
v -12.846788 6.221581 22.908663
v -12.853264 6.227122 22.914810
v -12.858673 6.234488 22.919941
v -12.853264 6.227122 22.914810
v -12.862743 6.243306 22.923801
v -12.865271 6.253139 22.926201
v -12.841715 6.221581 22.912556
v -12.845974 6.227122 22.920403
v -12.849533 6.234488 22.926956
v -12.845974 6.227122 22.920403
v -12.852211 6.243306 22.931887
v -12.853870 6.253139 22.934944
v -12.835686 6.221581 22.914692
v -12.837311 6.227122 22.923466
v -12.838669 6.234488 22.930801
v -12.837311 6.227122 22.923466
v -12.839691 6.243306 22.936317
v -12.840328 6.253139 22.939741
v -12.829292 6.221581 22.914856
v -12.828129 6.227122 22.923712
v -12.827156 6.234488 22.931103
v -12.828129 6.227122 22.923712
v -12.826422 6.243306 22.936665
v -12.825968 6.253139 22.940121
v -12.823162 6.221581 22.913042
v -12.819317 6.227122 22.921101
v -12.816105 6.234488 22.927834
v -12.819317 6.227122 22.921101
v -12.813688 6.243306 22.932896
v -12.812193 6.253139 22.936037
v -12.817894 6.221581 22.909418
v -12.811745 6.227122 22.915894
v -12.806612 6.234488 22.921303
v -12.811745 6.227122 22.915894
v -12.802750 6.243306 22.925375
v -12.800350 6.253139 22.927898
v -12.813999 6.221581 22.904343
v -12.806149 6.227122 22.908607
v -12.799599 6.234488 22.912163
v -12.806149 6.227122 22.908607
v -12.794666 6.243306 22.914841
v -12.791607 6.253139 22.916504
v -12.811863 6.221581 22.898315
v -12.803085 6.227122 22.899942
v -12.795750 6.234488 22.901302
v -12.803085 6.227122 22.899942
v -12.790234 6.243306 22.902325
v -12.786810 6.253139 22.902960
v -12.811695 6.221581 22.891922
v -12.802845 6.227122 22.890759
v -12.795448 6.234488 22.889784
v -12.802845 6.227122 22.890759
v -12.789886 6.243306 22.889053
v -12.786432 6.253139 22.888596
v -12.805450 6.227122 22.881948
v -12.798721 6.234488 22.878735
v -12.793657 6.243306 22.876322
v -12.790512 6.253139 22.874823
v -12.797794 6.798289 22.862171
v -12.789450 6.798289 22.874315
v -12.787621 6.798289 22.873444
v -12.796326 6.798289 22.860779
v -12.809486 6.798289 22.853199
v -12.808519 6.798289 22.851419
v -12.823376 6.798289 22.848280
v -12.823006 6.798289 22.846289
v -12.838108 6.798289 22.847893
v -12.838373 6.798289 22.845886
v -12.852236 6.798289 22.852079
v -12.853107 6.798289 22.850252
v -12.864382 6.798289 22.860424
v -12.865776 6.798289 22.858955
v -12.873352 6.798289 22.872116
v -12.875130 6.798289 22.871151
v -12.878273 6.798289 22.886009
v -12.880264 6.798289 22.885639
v -12.878658 6.798289 22.900738
v -12.880667 6.798289 22.901001
v -12.874472 6.798289 22.914867
v -12.876297 6.798289 22.915739
v -12.866125 6.798289 22.927013
v -12.867594 6.798289 22.928406
v -12.854435 6.798289 22.935986
v -12.855400 6.798289 22.937765
v -12.840542 6.798289 22.940903
v -12.840910 6.798289 22.942894
v -12.825815 6.798289 22.941288
v -12.825550 6.798289 22.943295
v -12.811682 6.798289 22.937103
v -12.810810 6.798289 22.938931
v -12.799540 6.798289 22.928757
v -12.798145 6.798289 22.930225
v -12.790567 6.798289 22.917065
v -12.788788 6.798289 22.918032
v -12.785648 6.798289 22.903175
v -12.783657 6.798289 22.903545
v -12.785259 6.798289 22.888443
v -12.783253 6.798289 22.888180
v -12.789450 6.798289 22.874315
v -12.787621 6.798289 22.873444
vn 0.2531 -0.9599 -0.1207
vn -0.0000 -1.0000 -0.0000
vn 0.2034 -0.9598 -0.1932
vn 0.1337 -0.9599 -0.2465
vn 0.0511 -0.9599 -0.2757
vn -0.0367 -0.9599 -0.2780
vn -0.1207 -0.9599 -0.2531
vn -0.1930 -0.9599 -0.2035
vn -0.2464 -0.9599 -0.1337
vn -0.2756 -0.9599 -0.0512
vn -0.2780 -0.9599 0.0365
vn -0.2530 -0.9599 0.1207
vn -0.2034 -0.9599 0.1930
vn -0.1338 -0.9599 0.2464
vn -0.0511 -0.9599 0.2758
vn 0.0366 -0.9599 0.2781
vn 0.1206 -0.9599 0.2531
vn 0.1931 -0.9599 0.2034
vn 0.2465 -0.9599 0.1339
vn 0.2757 -0.9599 0.0511
vn 0.2781 -0.9599 -0.0366
vn 0.1756 -0.9735 -0.1467
vn 0.1998 -0.9735 -0.1115
vn 0.1555 -0.9735 -0.1678
vn 0.0961 -0.9735 -0.2076
vn 0.0273 -0.9735 -0.2272
vn -0.0442 -0.9735 -0.2245
vn -0.1114 -0.9735 -0.1999
vn -0.1677 -0.9735 -0.1557
vn -0.2075 -0.9735 -0.0964
vn -0.2272 -0.9735 -0.0273
vn -0.2245 -0.9735 0.0443
vn -0.1998 -0.9735 0.1115
vn -0.1557 -0.9734 0.1678
vn -0.0962 -0.9735 0.2076
vn -0.0272 -0.9735 0.2272
vn 0.0443 -0.9735 0.2245
vn 0.1115 -0.9735 0.1999
vn 0.1679 -0.9734 0.1556
vn 0.2076 -0.9735 0.0963
vn 0.2270 -0.9735 0.0275
vn 0.9025 -0.0022 -0.4307
vn 0.7254 -0.0022 -0.6884
vn 0.7254 -0.0000 -0.6883
vn 0.9025 -0.0000 -0.4307
vn 0.4771 -0.0022 -0.8788
vn 0.4773 -0.0000 -0.8788
vn 0.1823 -0.0022 -0.9832
vn 0.1822 -0.0000 -0.9833
vn -0.1305 -0.0022 -0.9914
vn -0.1306 -0.0000 -0.9914
vn -0.4305 -0.0022 -0.9026
vn -0.4304 -0.0000 -0.9026
vn -0.6883 -0.0022 -0.7254
vn -0.6884 -0.0000 -0.7254
vn -0.8788 -0.0022 -0.4771
vn -0.8788 -0.0000 -0.4772
vn -0.9833 -0.0022 -0.1822
vn -0.9832 -0.0000 -0.1824
vn -0.9914 -0.0022 0.1305
vn -0.9914 -0.0000 0.1306
vn -0.9026 -0.0022 0.4305
vn -0.9026 -0.0000 0.4306
vn -0.7253 -0.0022 0.6884
vn -0.7255 -0.0000 0.6882
vn -0.4771 -0.0022 0.8788
vn -0.4773 -0.0000 0.8787
vn -0.1821 -0.0022 0.9833
vn -0.1823 -0.0000 0.9833
vn 0.1306 -0.0022 0.9914
vn 0.1303 -0.0000 0.9915
vn 0.4305 -0.0022 0.9026
vn 0.4304 -0.0000 0.9027
vn 0.6884 -0.0022 0.7253
vn 0.6883 -0.0000 0.7254
vn 0.8788 -0.0022 0.4772
vn 0.8788 -0.0000 0.4773
vn 0.9832 -0.0022 0.1824
vn 0.9832 -0.0000 0.1824
vn 0.9914 -0.0022 -0.1305
vn 0.9914 -0.0000 -0.1305
vn 0.9026 -0.0022 -0.4305
vn 0.9026 -0.0000 -0.4304
vn 0.4160 -0.8875 -0.1984
vn 0.3343 -0.8874 -0.3174
vn 0.5752 -0.7706 -0.2743
vn 0.4623 -0.7706 -0.4387
vn 0.7116 -0.6152 -0.3395
vn 0.5754 -0.7705 -0.2744
vn 0.4624 -0.7705 -0.4388
vn 0.5718 -0.6152 -0.5427
vn 0.8155 -0.4285 -0.3891
vn 0.6554 -0.4285 -0.6219
vn 0.8803 -0.2206 -0.4201
vn 0.7076 -0.2205 -0.6714
vn 0.2200 -0.8874 -0.4051
vn 0.3042 -0.7706 -0.5600
vn 0.3042 -0.7705 -0.5601
vn 0.3763 -0.6152 -0.6928
vn 0.4312 -0.4285 -0.7940
vn 0.4654 -0.2205 -0.8572
vn 0.0840 -0.8875 -0.4532
vn 0.1162 -0.7706 -0.6266
vn 0.1162 -0.7706 -0.6267
vn 0.1437 -0.6152 -0.7752
vn 0.1646 -0.4285 -0.8884
vn 0.1777 -0.2206 -0.9590
vn -0.0603 -0.8874 -0.4569
vn -0.0832 -0.7706 -0.6318
vn -0.0833 -0.7705 -0.6320
vn -0.1030 -0.6151 -0.7817
vn -0.1180 -0.4285 -0.8958
vn -0.1274 -0.2206 -0.9670
vn -0.1985 -0.8875 -0.4160
vn -0.2744 -0.7706 -0.5752
vn -0.2745 -0.7705 -0.5753
vn -0.3395 -0.6152 -0.7115
vn -0.3890 -0.4285 -0.8155
vn -0.4199 -0.2206 -0.8804
vn -0.3173 -0.8874 -0.3344
vn -0.4387 -0.7706 -0.4623
vn -0.4387 -0.7705 -0.4624
vn -0.5427 -0.6152 -0.5718
vn -0.6220 -0.4285 -0.6554
vn -0.6714 -0.2206 -0.7075
vn -0.4051 -0.8874 -0.2199
vn -0.5601 -0.7706 -0.3041
vn -0.5602 -0.7705 -0.3041
vn -0.6929 -0.6151 -0.3761
vn -0.7941 -0.4285 -0.4311
vn -0.8572 -0.2206 -0.4654
vn -0.4532 -0.8875 -0.0840
vn -0.6267 -0.7706 -0.1161
vn -0.6268 -0.7705 -0.1161
vn -0.7752 -0.6151 -0.1436
vn -0.8884 -0.4286 -0.1646
vn -0.9590 -0.2209 -0.1777
vn -0.4570 -0.8874 0.0601
vn -0.6319 -0.7705 0.0831
vn -0.6321 -0.7704 0.0832
vn -0.7817 -0.6151 0.1029
vn -0.8958 -0.4286 0.1179
vn -0.9670 -0.2206 0.1274
vn -0.4160 -0.8875 0.1984
vn -0.5753 -0.7705 0.2743
vn -0.5754 -0.7704 0.2744
vn -0.7117 -0.6151 0.3394
vn -0.8155 -0.4286 0.3889
vn -0.8804 -0.2205 0.4199
vn -0.3343 -0.8875 0.3172
vn -0.4623 -0.7706 0.4387
vn -0.4624 -0.7705 0.4388
vn -0.5720 -0.6151 0.5427
vn -0.6554 -0.4285 0.6219
vn -0.7075 -0.2205 0.6714
vn -0.2199 -0.8874 0.4051
vn -0.3040 -0.7706 0.5601
vn -0.3041 -0.7705 0.5602
vn -0.3762 -0.6152 0.6929
vn -0.4312 -0.4285 0.7941
vn -0.4654 -0.2205 0.8572
vn -0.0840 -0.8874 0.4533
vn -0.1162 -0.7706 0.6266
vn -0.1162 -0.7705 0.6267
vn -0.1437 -0.6151 0.7752
vn -0.1647 -0.4285 0.8884
vn -0.1779 -0.2205 0.9590
vn 0.0601 -0.8875 0.4569
vn 0.0831 -0.7706 0.6319
vn 0.0831 -0.7705 0.6320
vn 0.1029 -0.6151 0.7817
vn 0.1179 -0.4285 0.8958
vn 0.1273 -0.2206 0.9670
vn 0.1984 -0.8875 0.4160
vn 0.2744 -0.7706 0.5752
vn 0.2745 -0.7705 0.5753
vn 0.3395 -0.6152 0.7116
vn 0.3890 -0.4285 0.8155
vn 0.4199 -0.2206 0.8803
vn 0.3173 -0.8875 0.3343
vn 0.4387 -0.7706 0.4623
vn 0.4388 -0.7705 0.4624
vn 0.5427 -0.6151 0.5719
vn 0.6219 -0.4286 0.6554
vn 0.6715 -0.2205 0.7075
vn 0.4050 -0.8875 0.2200
vn 0.5601 -0.7706 0.3042
vn 0.5602 -0.7705 0.3042
vn 0.6929 -0.6151 0.3763
vn 0.7940 -0.4286 0.4312
vn 0.8571 -0.2207 0.4655
vn 0.4532 -0.8874 0.0839
vn 0.6266 -0.7707 0.1160
vn 0.6267 -0.7706 0.1160
vn 0.7752 -0.6152 0.1437
vn 0.8884 -0.4285 0.1647
vn 0.9590 -0.2206 0.1778
vn 0.4570 -0.8874 -0.0601
vn 0.6318 -0.7707 -0.0831
vn 0.6320 -0.7705 -0.0831
vn 0.7816 -0.6152 -0.1029
vn 0.8958 -0.4285 -0.1179
vn 0.9670 -0.2206 -0.1273
vn 0.5755 -0.7705 -0.2743
vn 0.7117 -0.6152 -0.3392
vn 0.8156 -0.4286 -0.3889
vn 0.8804 -0.2206 -0.4198
vn 0.7207 0.0036 -0.6932
vn 0.7254 -0.0000 -0.6884
vn 0.8141 -0.1561 -0.5594
vn 0.6800 -0.0557 -0.7311
vn 0.4772 -0.0000 -0.8788
vn 0.4208 -0.0558 -0.9055
vn 0.1823 -0.0000 -0.9832
vn 0.1204 -0.0558 -0.9912
vn -0.1307 -0.0000 -0.9914
vn -0.1918 -0.0557 -0.9799
vn -0.4305 -0.0000 -0.9026
vn -0.4853 -0.0558 -0.8726
vn -0.6882 -0.0000 -0.7255
vn -0.7312 -0.0559 -0.6799
vn -0.9055 -0.0558 -0.4207
vn -0.9833 -0.0000 -0.1822
vn -0.9912 -0.0558 -0.1203
vn -0.9798 -0.0558 0.1919
vn -0.9026 -0.0000 0.4305
vn -0.8726 -0.0557 0.4852
vn -0.7254 -0.0000 0.6883
vn -0.6800 -0.0558 0.7311
vn -0.4771 -0.0000 0.8788
vn -0.4205 -0.0558 0.9056
vn -0.1823 -0.0000 0.9832
vn -0.1203 -0.0558 0.9912
vn 0.1304 -0.0000 0.9915
vn 0.1917 -0.0557 0.9799
vn 0.4305 -0.0000 0.9026
vn 0.4854 -0.0559 0.8725
vn 0.7312 -0.0558 0.6799
vn 0.8788 -0.0000 0.4772
vn 0.9055 -0.0559 0.4207
vn 0.9832 -0.0000 0.1823
vn 0.9912 -0.0558 0.1204
vn 0.9914 -0.0000 -0.1306
vn 0.9798 -0.0558 -0.1919
vn 0.9470 -0.1561 -0.2808
vn 0.9922 0.0033 -0.1248
vn 0.3869 -0.8964 -0.2162
vn 0.3351 -0.9001 -0.2785
vn 0.3597 -0.9171 -0.1716
vn 0.2892 -0.9171 -0.2745
vn 0.5784 -0.5930 -0.5602
vn 0.5571 -0.6405 -0.5287
vn 0.5751 -0.6236 -0.5295
vn 0.5916 -0.6223 -0.5126
vn 0.6541 -0.4084 -0.6367
vn 0.6585 -0.4343 -0.6146
vn 0.7049 -0.2245 -0.6729
vn 0.6997 -0.2080 -0.6835
vn 0.2327 -0.9001 -0.3683
vn 0.1904 -0.9170 -0.3505
vn 0.3665 -0.6404 -0.6749
vn 0.3835 -0.6237 -0.6811
vn 0.4364 -0.4342 -0.7880
vn 0.4625 -0.2243 -0.8578
vn 0.1073 -0.9001 -0.4223
vn 0.0727 -0.9170 -0.3923
vn 0.1399 -0.6406 -0.7550
vn 0.1543 -0.6236 -0.7663
vn 0.1713 -0.4341 -0.8844
vn 0.1747 -0.2244 -0.9587
vn -0.0283 -0.9001 -0.4347
vn -0.0521 -0.9171 -0.3951
vn -0.1003 -0.6404 -0.7615
vn -0.0906 -0.6235 -0.7766
vn -0.1104 -0.4342 -0.8940
vn -0.1301 -0.2246 -0.9657
vn -0.1613 -0.9001 -0.4047
vn -0.1717 -0.9171 -0.3599
vn -0.3307 -0.6403 -0.6933
vn -0.3259 -0.6236 -0.7106
vn -0.3811 -0.4343 -0.8162
vn -0.4222 -0.2246 -0.8783
vn -0.2785 -0.9001 -0.3351
vn -0.2744 -0.9171 -0.2892
vn -0.5287 -0.6404 -0.5571
vn -0.5295 -0.6236 -0.5752
vn -0.6148 -0.4342 -0.6584
vn -0.6729 -0.2245 -0.7049
vn -0.3684 -0.9001 -0.2325
vn -0.3504 -0.9171 -0.1902
vn -0.6749 -0.6406 -0.3663
vn -0.6813 -0.6236 -0.3834
vn -0.7882 -0.4342 -0.4362
vn -0.8577 -0.2245 -0.4626
vn -0.4221 -0.9001 -0.1075
vn -0.3920 -0.9171 -0.0727
vn -0.7554 -0.6401 -0.1400
vn -0.7665 -0.6235 -0.1540
vn -0.8843 -0.4343 -0.1714
vn -0.9587 -0.2246 -0.1748
vn -0.4348 -0.9001 0.0284
vn -0.3955 -0.9170 0.0521
vn -0.7615 -0.6404 0.1003
vn -0.7765 -0.6236 0.0901
vn -0.8940 -0.4342 0.1103
vn -0.9657 -0.2246 0.1301
vn -0.4047 -0.9002 0.1611
vn -0.3597 -0.9172 0.1715
vn -0.6934 -0.6402 0.3306
vn -0.7106 -0.6235 0.3259
vn -0.8162 -0.4342 0.3811
vn -0.8783 -0.2245 0.4220
vn -0.3351 -0.9001 0.2783
vn -0.2894 -0.9170 0.2745
vn -0.5573 -0.6402 0.5287
vn -0.5752 -0.6235 0.5295
vn -0.6586 -0.4343 0.6146
vn -0.7049 -0.2246 0.6729
vn -0.2327 -0.9001 0.3683
vn -0.1903 -0.9170 0.3506
vn -0.3663 -0.6404 0.6750
vn -0.3834 -0.6236 0.6813
vn -0.4362 -0.4341 0.7882
vn -0.4624 -0.2245 0.8578
vn -0.1073 -0.9001 0.4224
vn -0.0727 -0.9169 0.3924
vn -0.1399 -0.6408 0.7549
vn -0.1541 -0.6236 0.7664
vn -0.1713 -0.4340 0.8845
vn -0.1748 -0.2246 0.9586
vn 0.0284 -0.9001 0.4348
vn 0.0520 -0.9172 0.3951
vn 0.1001 -0.6402 0.7616
vn 0.0902 -0.6235 0.7766
vn 0.1101 -0.4343 0.8940
vn 0.1301 -0.2244 0.9658
vn 0.1614 -0.9001 0.4047
vn 0.1717 -0.9171 0.3598
vn 0.3307 -0.6404 0.6932
vn 0.3258 -0.6236 0.7106
vn 0.3813 -0.4341 0.8162
vn 0.4221 -0.2244 0.8783
vn 0.2786 -0.9001 0.3350
vn 0.2743 -0.9172 0.2890
vn 0.5287 -0.6405 0.5570
vn 0.5296 -0.6236 0.5751
vn 0.6147 -0.4342 0.6585
vn 0.6730 -0.2246 0.7048
vn 0.3684 -0.9001 0.2326
vn 0.3500 -0.9172 0.1901
vn 0.6752 -0.6400 0.3667
vn 0.6813 -0.6235 0.3834
vn 0.7881 -0.4342 0.4364
vn 0.8578 -0.2246 0.4624
vn 0.4223 -0.9001 0.1075
vn 0.3922 -0.9170 0.0727
vn 0.7551 -0.6405 0.1399
vn 0.7663 -0.6237 0.1543
vn 0.8844 -0.4342 0.1714
vn 0.9587 -0.2246 0.1748
vn 0.4349 -0.9001 -0.0283
vn 0.3955 -0.9170 -0.0521
vn 0.7611 -0.6408 -0.1001
vn 0.7765 -0.6236 -0.0903
vn 0.8940 -0.4342 -0.1102
vn 0.9657 -0.2246 -0.1301
vn 0.7707 -0.6223 -0.1371
vn 0.7991 -0.5932 -0.0980
vn 0.9063 -0.4086 -0.1081
vn 0.9714 -0.2080 -0.1141
vn -0.0000 1.0000 0.0002
vn -0.0000 1.0000 -0.0001
vn -0.0000 1.0000 0.0001
vn -0.0000 1.0000 -0.0002
vn -0.0000 1.0000 -0.0000
vn -0.0000 1.0000 -0.0003
s 1
usemtl M_polySurface647_blinn3_0_0
f 1//1 2//2 3//3
f 3//3 2//2 4//4
f 4//4 2//2 5//5
f 5//5 2//2 6//6
f 6//6 2//2 7//7
f 7//7 2//2 8//8
f 8//8 2//2 9//9
f 9//9 2//2 10//10
f 10//10 2//2 11//11
f 11//11 2//2 12//12
f 12//12 2//2 13//13
f 13//13 2//2 14//14
f 14//14 2//2 15//15
f 15//15 2//2 16//16
f 16//16 2//2 17//17
f 17//17 2//2 18//18
f 18//18 2//2 19//19
f 19//19 2//2 20//20
f 20//20 2//2 21//21
f 2//2 1//1 21//21
f 22//22 24//2 23//23
f 23//23 24//2 25//24
f 25//24 24//2 26//25
f 26//25 24//2 27//26
f 27//26 24//2 28//27
f 28//27 24//2 29//28
f 29//28 24//2 30//29
f 30//29 24//2 31//30
f 31//30 24//2 32//31
f 32//31 24//2 33//32
f 33//32 24//2 34//33
f 34//33 24//2 35//34
f 35//34 24//2 36//35
f 36//35 24//2 37//36
f 37//36 24//2 38//37
f 38//37 24//2 39//38
f 39//38 24//2 40//39
f 40//39 24//2 41//40
f 41//40 24//2 42//41
f 24//2 22//22 42//41
f 43//42 44//43 45//44
f 43//42 45//44 46//45
f 44//43 47//46 48//47
f 44//43 48//47 45//44
f 47//46 49//48 50//49
f 47//46 50//49 48//47
f 49//48 51//50 52//51
f 49//48 52//51 50//49
f 51//50 53//52 54//53
f 51//50 54//53 52//51
f 53//52 55//54 56//55
f 53//52 56//55 54//53
f 55//54 57//56 58//57
f 55//54 58//57 56//55
f 57//56 59//58 60//59
f 57//56 60//59 58//57
f 59//58 61//60 62//61
f 59//58 62//61 60//59
f 61//60 63//62 64//63
f 61//60 64//63 62//61
f 63//62 65//64 66//65
f 63//62 66//65 64//63
f 65//64 67//66 68//67
f 65//64 68//67 66//65
f 67//66 69//68 70//69
f 67//66 70//69 68//67
f 69//68 71//70 72//71
f 69//68 72//71 70//69
f 71//70 73//72 74//73
f 71//70 74//73 72//71
f 73//72 75//74 76//75
f 73//72 76//75 74//73
f 75//74 77//76 78//77
f 75//74 78//77 76//75
f 77//76 79//78 80//79
f 77//76 80//79 78//77
f 79//78 81//80 82//81
f 79//78 82//81 80//79
f 81//80 83//82 84//83
f 81//80 84//83 82//81
f 85//84 1//1 3//3
f 85//84 3//3 86//85
f 87//86 85//84 86//85
f 87//86 86//85 88//87
f 89//88 90//89 91//90
f 89//88 91//90 92//91
f 93//92 89//88 92//91
f 93//92 92//91 94//93
f 43//42 95//94 96//95
f 43//42 96//95 44//43
f 95//94 93//92 94//93
f 95//94 94//93 96//95
f 86//85 3//3 4//4
f 86//85 4//4 97//96
f 88//87 86//85 97//96
f 88//87 97//96 98//97
f 92//91 91//90 99//98
f 92//91 99//98 100//99
f 94//93 92//91 100//99
f 94//93 100//99 101//100
f 44//43 96//95 102//101
f 44//43 102//101 47//46
f 96//95 94//93 101//100
f 96//95 101//100 102//101
f 97//96 4//4 5//5
f 97//96 5//5 103//102
f 98//97 97//96 103//102
f 98//97 103//102 104//103
f 100//99 99//98 105//104
f 100//99 105//104 106//105
f 101//100 100//99 106//105
f 101//100 106//105 107//106
f 47//46 102//101 108//107
f 47//46 108//107 49//48
f 102//101 101//100 107//106
f 102//101 107//106 108//107
f 103//102 5//5 6//6
f 103//102 6//6 109//108
f 104//103 103//102 109//108
f 104//103 109//108 110//109
f 106//105 105//104 111//110
f 106//105 111//110 112//111
f 107//106 106//105 112//111
f 107//106 112//111 113//112
f 49//48 108//107 114//113
f 49//48 114//113 51//50
f 108//107 107//106 113//112
f 108//107 113//112 114//113
f 109//108 6//6 7//7
f 109//108 7//7 115//114
f 110//109 109//108 115//114
f 110//109 115//114 116//115
f 112//111 111//110 117//116
f 112//111 117//116 118//117
f 113//112 112//111 118//117
f 113//112 118//117 119//118
f 51//50 114//113 120//119
f 51//50 120//119 53//52
f 114//113 113//112 119//118
f 114//113 119//118 120//119
f 115//114 7//7 8//8
f 115//114 8//8 121//120
f 116//115 115//114 121//120
f 116//115 121//120 122//121
f 118//117 117//116 123//122
f 118//117 123//122 124//123
f 119//118 118//117 124//123
f 119//118 124//123 125//124
f 53//52 120//119 126//125
f 53//52 126//125 55//54
f 120//119 119//118 125//124
f 120//119 125//124 126//125
f 121//120 8//8 9//9
f 121//120 9//9 127//126
f 122//121 121//120 127//126
f 122//121 127//126 128//127
f 124//123 123//122 129//128
f 124//123 129//128 130//129
f 125//124 124//123 130//129
f 125//124 130//129 131//130
f 55//54 126//125 132//131
f 55//54 132//131 57//56
f 126//125 125//124 131//130
f 126//125 131//130 132//131
f 127//126 9//9 10//10
f 127//126 10//10 133//132
f 128//127 127//126 133//132
f 128//127 133//132 134//133
f 130//129 129//128 135//134
f 130//129 135//134 136//135
f 131//130 130//129 136//135
f 131//130 136//135 137//136
f 57//56 132//131 138//137
f 57//56 138//137 59//58
f 132//131 131//130 137//136
f 132//131 137//136 138//137
f 133//132 10//10 11//11
f 133//132 11//11 139//138
f 134//133 133//132 139//138
f 134//133 139//138 140//139
f 136//135 135//134 141//140
f 136//135 141//140 142//141
f 137//136 136//135 142//141
f 137//136 142//141 143//142
f 59//58 138//137 144//143
f 59//58 144//143 61//60
f 138//137 137//136 143//142
f 138//137 143//142 144//143
f 139//138 11//11 12//12
f 139//138 12//12 145//144
f 140//139 139//138 145//144
f 140//139 145//144 146//145
f 142//141 141//140 147//146
f 142//141 147//146 148//147
f 143//142 142//141 148//147
f 143//142 148//147 149//148
f 61//60 144//143 150//149
f 61//60 150//149 63//62
f 144//143 143//142 149//148
f 144//143 149//148 150//149
f 145//144 12//12 13//13
f 145//144 13//13 151//150
f 146//145 145//144 151//150
f 146//145 151//150 152//151
f 148//147 147//146 153//152
f 148//147 153//152 154//153
f 149//148 148//147 154//153
f 149//148 154//153 155//154
f 63//62 150//149 156//155
f 63//62 156//155 65//64
f 150//149 149//148 155//154
f 150//149 155//154 156//155
f 151//150 13//13 14//14
f 151//150 14//14 157//156
f 152//151 151//150 157//156
f 152//151 157//156 158//157
f 154//153 153//152 159//158
f 154//153 159//158 160//159
f 155//154 154//153 160//159
f 155//154 160//159 161//160
f 65//64 156//155 162//161
f 65//64 162//161 67//66
f 156//155 155//154 161//160
f 156//155 161//160 162//161
f 157//156 14//14 15//15
f 157//156 15//15 163//162
f 158//157 157//156 163//162
f 158//157 163//162 164//163
f 160//159 159//158 165//164
f 160//159 165//164 166//165
f 161//160 160//159 166//165
f 161//160 166//165 167//166
f 67//66 162//161 168//167
f 67//66 168//167 69//68
f 162//161 161//160 167//166
f 162//161 167//166 168//167
f 163//162 15//15 16//16
f 163//162 16//16 169//168
f 164//163 163//162 169//168
f 164//163 169//168 170//169
f 166//165 165//164 171//170
f 166//165 171//170 172//171
f 167//166 166//165 172//171
f 167//166 172//171 173//172
f 69//68 168//167 174//173
f 69//68 174//173 71//70
f 168//167 167//166 173//172
f 168//167 173//172 174//173
f 169//168 16//16 17//17
f 169//168 17//17 175//174
f 170//169 169//168 175//174
f 170//169 175//174 176//175
f 172//171 171//170 177//176
f 172//171 177//176 178//177
f 173//172 172//171 178//177
f 173//172 178//177 179//178
f 71//70 174//173 180//179
f 71//70 180//179 73//72
f 174//173 173//172 179//178
f 174//173 179//178 180//179
f 175//174 17//17 18//18
f 175//174 18//18 181//180
f 176//175 175//174 181//180
f 176//175 181//180 182//181
f 178//177 177//176 183//182
f 178//177 183//182 184//183
f 179//178 178//177 184//183
f 179//178 184//183 185//184
f 73//72 180//179 186//185
f 73//72 186//185 75//74
f 180//179 179//178 185//184
f 180//179 185//184 186//185
f 181//180 18//18 19//19
f 181//180 19//19 187//186
f 182//181 181//180 187//186
f 182//181 187//186 188//187
f 184//183 183//182 189//188
f 184//183 189//188 190//189
f 185//184 184//183 190//189
f 185//184 190//189 191//190
f 75//74 186//185 192//191
f 75//74 192//191 77//76
f 186//185 185//184 191//190
f 186//185 191//190 192//191
f 187//186 19//19 20//20
f 187//186 20//20 193//192
f 188//187 187//186 193//192
f 188//187 193//192 194//193
f 190//189 189//188 195//194
f 190//189 195//194 196//195
f 191//190 190//189 196//195
f 191//190 196//195 197//196
f 77//76 192//191 198//197
f 77//76 198//197 79//78
f 192//191 191//190 197//196
f 192//191 197//196 198//197
f 193//192 20//20 21//21
f 193//192 21//21 199//198
f 194//193 193//192 199//198
f 194//193 199//198 200//199
f 196//195 195//194 201//200
f 196//195 201//200 202//201
f 197//196 196//195 202//201
f 197//196 202//201 203//202
f 79//78 198//197 204//203
f 79//78 204//203 81//80
f 198//197 197//196 203//202
f 198//197 203//202 204//203
f 1//1 85//84 199//198
f 1//1 199//198 21//21
f 85//84 87//86 200//199
f 85//84 200//199 199//198
f 205//204 206//205 202//201
f 205//204 202//201 201//200
f 206//205 207//206 203//202
f 206//205 203//202 202//201
f 207//206 208//207 204//203
f 207//206 204//203 203//202
f 208//207 83//82 81//80
f 208//207 81//80 204//203
f 209//208 211//209 210//210
f 209//208 212//211 211//209
f 212//211 213//212 211//209
f 212//211 214//213 213//212
f 214//213 215//214 213//212
f 214//213 216//215 215//214
f 216//215 217//216 215//214
f 216//215 218//217 217//216
f 218//217 219//218 217//216
f 218//217 220//219 219//218
f 220//219 221//220 219//218
f 220//219 222//221 221//220
f 222//221 223//57 221//220
f 222//221 224//222 223//57
f 224//222 225//223 223//57
f 224//222 226//224 225//223
f 226//224 227//61 225//223
f 226//224 228//225 227//61
f 228//225 229//226 227//61
f 228//225 230//227 229//226
f 230//227 231//228 229//226
f 230//227 232//229 231//228
f 232//229 233//230 231//228
f 232//229 234//231 233//230
f 234//231 235//232 233//230
f 234//231 236//233 235//232
f 236//233 237//234 235//232
f 236//233 238//235 237//234
f 238//235 239//236 237//234
f 238//235 240//237 239//236
f 240//237 241//75 239//236
f 240//237 242//238 241//75
f 242//238 243//239 241//75
f 242//238 244//240 243//239
f 244//240 245//241 243//239
f 244//240 246//242 245//241
f 246//242 247//243 245//241
f 246//242 248//244 247//243
f 248//244 249//245 247//243
f 248//244 250//246 249//245
f 251//247 23//23 252//248
f 251//247 22//22 23//23
f 253//249 252//248 254//250
f 253//249 251//247 252//248
f 255//251 257//252 256//253
f 255//251 258//254 257//252
f 259//255 256//253 260//256
f 259//255 255//251 256//253
f 209//208 261//257 212//211
f 209//208 262//258 261//257
f 262//258 260//256 261//257
f 262//258 259//255 260//256
f 252//248 25//24 263//259
f 252//248 23//23 25//24
f 254//250 263//259 264//260
f 254//250 252//248 263//259
f 256//253 266//261 265//262
f 256//253 257//252 266//261
f 260//256 265//262 267//263
f 260//256 256//253 265//262
f 212//211 268//264 214//213
f 212//211 261//257 268//264
f 261//257 267//263 268//264
f 261//257 260//256 267//263
f 263//259 26//25 269//265
f 263//259 25//24 26//25
f 264//260 269//265 270//266
f 264//260 263//259 269//265
f 265//262 272//267 271//268
f 265//262 266//261 272//267
f 267//263 271//268 273//269
f 267//263 265//262 271//268
f 214//213 274//270 216//215
f 214//213 268//264 274//270
f 268//264 273//269 274//270
f 268//264 267//263 273//269
f 269//265 27//26 275//271
f 269//265 26//25 27//26
f 270//266 275//271 276//272
f 270//266 269//265 275//271
f 271//268 278//273 277//274
f 271//268 272//267 278//273
f 273//269 277//274 279//275
f 273//269 271//268 277//274
f 216//215 280//276 218//217
f 216//215 274//270 280//276
f 274//270 279//275 280//276
f 274//270 273//269 279//275
f 275//271 28//27 281//277
f 275//271 27//26 28//27
f 276//272 281//277 282//278
f 276//272 275//271 281//277
f 277//274 284//279 283//280
f 277//274 278//273 284//279
f 279//275 283//280 285//281
f 279//275 277//274 283//280
f 218//217 286//282 220//219
f 218//217 280//276 286//282
f 280//276 285//281 286//282
f 280//276 279//275 285//281
f 281//277 29//28 287//283
f 281//277 28//27 29//28
f 282//278 287//283 288//284
f 282//278 281//277 287//283
f 283//280 290//285 289//286
f 283//280 284//279 290//285
f 285//281 289//286 291//287
f 285//281 283//280 289//286
f 220//219 292//288 222//221
f 220//219 286//282 292//288
f 286//282 291//287 292//288
f 286//282 285//281 291//287
f 287//283 30//29 293//289
f 287//283 29//28 30//29
f 288//284 293//289 294//290
f 288//284 287//283 293//289
f 289//286 296//291 295//292
f 289//286 290//285 296//291
f 291//287 295//292 297//293
f 291//287 289//286 295//292
f 222//221 298//294 224//222
f 222//221 292//288 298//294
f 292//288 297//293 298//294
f 292//288 291//287 297//293
f 293//289 31//30 299//295
f 293//289 30//29 31//30
f 294//290 299//295 300//296
f 294//290 293//289 299//295
f 295//292 302//297 301//298
f 295//292 296//291 302//297
f 297//293 301//298 303//299
f 297//293 295//292 301//298
f 224//222 304//300 226//224
f 224//222 298//294 304//300
f 298//294 303//299 304//300
f 298//294 297//293 303//299
f 299//295 32//31 305//301
f 299//295 31//30 32//31
f 300//296 305//301 306//302
f 300//296 299//295 305//301
f 301//298 308//303 307//304
f 301//298 302//297 308//303
f 303//299 307//304 309//305
f 303//299 301//298 307//304
f 226//224 310//306 228//225
f 226//224 304//300 310//306
f 304//300 309//305 310//306
f 304//300 303//299 309//305
f 305//301 33//32 311//307
f 305//301 32//31 33//32
f 306//302 311//307 312//308
f 306//302 305//301 311//307
f 307//304 314//309 313//310
f 307//304 308//303 314//309
f 309//305 313//310 315//311
f 309//305 307//304 313//310
f 228//225 316//312 230//227
f 228//225 310//306 316//312
f 310//306 315//311 316//312
f 310//306 309//305 315//311
f 311//307 34//33 317//313
f 311//307 33//32 34//33
f 312//308 317//313 318//314
f 312//308 311//307 317//313
f 313//310 320//315 319//316
f 313//310 314//309 320//315
f 315//311 319//316 321//317
f 315//311 313//310 319//316
f 230//227 322//318 232//229
f 230//227 316//312 322//318
f 316//312 321//317 322//318
f 316//312 315//311 321//317
f 317//313 35//34 323//319
f 317//313 34//33 35//34
f 318//314 323//319 324//320
f 318//314 317//313 323//319
f 319//316 326//321 325//322
f 319//316 320//315 326//321
f 321//317 325//322 327//323
f 321//317 319//316 325//322
f 232//229 328//324 234//231
f 232//229 322//318 328//324
f 322//318 327//323 328//324
f 322//318 321//317 327//323
f 323//319 36//35 329//325
f 323//319 35//34 36//35
f 324//320 329//325 330//326
f 324//320 323//319 329//325
f 325//322 332//327 331//328
f 325//322 326//321 332//327
f 327//323 331//328 333//329
f 327//323 325//322 331//328
f 234//231 334//330 236//233
f 234//231 328//324 334//330
f 328//324 333//329 334//330
f 328//324 327//323 333//329
f 329//325 37//36 335//331
f 329//325 36//35 37//36
f 330//326 335//331 336//332
f 330//326 329//325 335//331
f 331//328 338//333 337//334
f 331//328 332//327 338//333
f 333//329 337//334 339//335
f 333//329 331//328 337//334
f 236//233 340//336 238//235
f 236//233 334//330 340//336
f 334//330 339//335 340//336
f 334//330 333//329 339//335
f 335//331 38//37 341//337
f 335//331 37//36 38//37
f 336//332 341//337 342//338
f 336//332 335//331 341//337
f 337//334 344//339 343//340
f 337//334 338//333 344//339
f 339//335 343//340 345//341
f 339//335 337//334 343//340
f 238//235 346//342 240//237
f 238//235 340//336 346//342
f 340//336 345//341 346//342
f 340//336 339//335 345//341
f 341//337 39//38 347//343
f 341//337 38//37 39//38
f 342//338 347//343 348//344
f 342//338 341//337 347//343
f 343//340 350//345 349//346
f 343//340 344//339 350//345
f 345//341 349//346 351//347
f 345//341 343//340 349//346
f 240//237 352//348 242//238
f 240//237 346//342 352//348
f 346//342 351//347 352//348
f 346//342 345//341 351//347
f 347//343 40//39 353//349
f 347//343 39//38 40//39
f 348//344 353//349 354//350
f 348//344 347//343 353//349
f 349//346 356//351 355//352
f 349//346 350//345 356//351
f 351//347 355//352 357//353
f 351//347 349//346 355//352
f 242//238 358//354 244//240
f 242//238 352//348 358//354
f 352//348 357//353 358//354
f 352//348 351//347 357//353
f 353//349 41//40 359//355
f 353//349 40//39 41//40
f 354//350 359//355 360//356
f 354//350 353//349 359//355
f 355//352 362//357 361//358
f 355//352 356//351 362//357
f 357//353 361//358 363//359
f 357//353 355//352 361//358
f 244//240 364//360 246//242
f 244//240 358//354 364//360
f 358//354 363//359 364//360
f 358//354 357//353 363//359
f 359//355 42//41 365//361
f 359//355 41//40 42//41
f 360//356 365//361 366//362
f 360//356 359//355 365//361
f 361//358 368//363 367//364
f 361//358 362//357 368//363
f 363//359 367//364 369//365
f 363//359 361//358 367//364
f 246//242 370//366 248//244
f 246//242 364//360 370//366
f 364//360 369//365 370//366
f 364//360 363//359 369//365
f 22//22 365//361 42//41
f 22//22 251//247 365//361
f 251//247 366//362 365//361
f 251//247 253//249 366//362
f 371//367 367//364 368//363
f 371//367 372//368 367//364
f 372//368 369//365 367//364
f 372//368 373//369 369//365
f 373//369 370//366 369//365
f 373//369 374//370 370//366
f 374//370 248//244 370//366
f 374//370 250//246 248//244
f 375//371 376//371 377//372
f 375//371 377//372 378//371
f 379//373 375//371 378//371
f 379//373 378//371 380//373
f 381//372 379//373 380//373
f 381//372 380//373 382//372
f 383//374 381//372 382//372
f 383//374 382//372 384//372
f 385//373 383//374 384//372
f 385//373 384//372 386//373
f 387//372 385//373 386//373
f 387//372 386//373 388//372
f 389//373 387//372 388//372
f 389//373 388//372 390//375
f 391//372 389//373 390//375
f 391//372 390//375 392//372
f 393//375 391//372 392//372
f 393//375 392//372 394//375
f 395//375 393//375 394//375
f 395//375 394//375 396//375
f 397//372 395//375 396//375
f 397//372 396//375 398//372
f 399//375 397//372 398//372
f 399//375 398//372 400//375
f 401//376 399//375 400//375
f 401//376 400//375 402//376
f 403//375 401//376 402//376
f 403//375 402//376 404//375
f 405//373 403//375 404//375
f 405//373 404//375 406//373
f 407//375 405//373 406//373
f 407//375 406//373 408//375
f 409//373 407//375 408//375
f 409//373 408//375 410//373
f 411//375 409//373 410//373
f 411//375 410//373 412//375
f 413//375 411//375 412//375
f 413//375 412//375 414//375
f 415//372 413//375 414//375
f 415//372 414//375 416//372
