# Blender 4.4.1
# www.blender.org
mtllib SM_pCylinder167_lambert1_0_001_0.mtl
o SM_pCylinder167_lambert1_0_001_0
v 17.507376 0.906572 15.990242
v 17.514427 0.906572 16.004082
v 17.467213 0.906572 16.019423
v 17.496393 0.906572 15.979261
v 17.482553 0.906572 15.972208
v 17.467213 0.906572 15.969780
v 17.451872 0.906572 15.972208
v 17.438034 0.906572 15.979259
v 17.427052 0.906572 15.990242
v 17.420000 0.906572 16.004082
v 17.417570 0.906572 16.019423
v 17.420000 0.906572 16.034763
v 17.427052 0.906572 16.048601
v 17.438034 0.906572 16.059584
v 17.451872 0.906572 16.066635
v 17.467213 0.906572 16.069065
v 17.482553 0.906572 16.066635
v 17.496393 0.906572 16.059584
v 17.507376 0.906572 16.048601
v 17.514427 0.906572 16.034763
v 17.516855 0.906572 16.019423
v 17.514427 1.024122 16.004082
v 17.507376 1.024122 15.990242
v 17.467213 1.024122 16.019423
v 17.496393 1.024122 15.979261
v 17.482553 1.024122 15.972208
v 17.467213 1.024122 15.969780
v 17.451872 1.024122 15.972208
v 17.438034 1.024122 15.979259
v 17.427052 1.024122 15.990242
v 17.420000 1.024122 16.004082
v 17.417570 1.024122 16.019423
v 17.420000 1.024122 16.034763
v 17.427052 1.024122 16.048601
v 17.438034 1.024122 16.059584
v 17.451872 1.024122 16.066635
v 17.467213 1.024122 16.069065
v 17.482553 1.024122 16.066635
v 17.496393 1.024122 16.059584
v 17.507376 1.024122 16.048601
v 17.514427 1.024122 16.034763
v 17.516855 1.024122 16.019423
v 17.514427 0.906572 16.004082
v 17.507376 0.906572 15.990242
v 17.507376 1.024122 15.990242
v 17.514427 1.024122 16.004082
v 17.496393 0.906572 15.979261
v 17.496393 1.024122 15.979261
v 17.482553 0.906572 15.972208
v 17.482553 1.024122 15.972208
v 17.467213 0.906572 15.969780
v 17.467213 1.024122 15.969780
v 17.451872 0.906572 15.972208
v 17.451872 1.024122 15.972208
v 17.438034 0.906572 15.979259
v 17.438034 1.024122 15.979259
v 17.427052 0.906572 15.990242
v 17.427052 1.024122 15.990242
v 17.420000 0.906572 16.004082
v 17.420000 1.024122 16.004082
v 17.417570 0.906572 16.019423
v 17.417570 1.024122 16.019423
v 17.420000 0.906572 16.034763
v 17.420000 1.024122 16.034763
v 17.427052 0.906572 16.048601
v 17.427052 1.024122 16.048601
v 17.438034 0.906572 16.059584
v 17.438034 1.024122 16.059584
v 17.451872 0.906572 16.066635
v 17.451872 1.024122 16.066635
v 17.467213 0.906572 16.069065
v 17.467213 1.024122 16.069065
v 17.482553 0.906572 16.066635
v 17.482553 1.024122 16.066635
v 17.496393 0.906572 16.059584
v 17.496393 1.024122 16.059584
v 17.507376 0.906572 16.048601
v 17.507376 1.024122 16.048601
v 17.514427 0.906572 16.034763
v 17.514427 1.024122 16.034763
v 17.516855 0.906572 16.019423
v 17.516855 1.024122 16.019423
v 17.514427 0.906572 16.004082
v 17.514427 1.024122 16.004082
vn -0.0000 1.0000 -0.0000
vn 0.9510 0.0001 -0.3091
vn 0.8090 -0.0000 -0.5878
vn 0.9510 -0.0000 -0.3091
vn 0.5878 -0.0000 -0.8090
vn 0.3090 -0.0000 -0.9511
vn -0.0000 -0.0000 -1.0000
vn -0.3089 -0.0000 -0.9511
vn -0.3090 -0.0000 -0.9511
vn -0.5878 -0.0000 -0.8090
vn -0.8090 -0.0000 -0.5878
vn -0.9511 -0.0000 -0.3090
vn -1.0000 -0.0000 -0.0000
vn -0.9510 -0.0000 0.3091
vn -0.9511 -0.0000 0.3090
vn -0.8090 -0.0000 0.5878
vn -0.5878 -0.0000 0.8090
vn -0.3090 -0.0000 0.9511
vn -0.3091 -0.0000 0.9510
vn -0.0000 -0.0000 1.0000
vn 0.3091 -0.0000 0.9510
vn 0.3090 -0.0000 0.9511
vn 0.5878 -0.0000 0.8090
vn 0.8090 -0.0000 0.5878
vn 0.9511 -0.0000 0.3090
vn 1.0000 -0.0000 -0.0000
vn 0.9511 -0.0000 -0.3088
s 1
usemtl M_pCylinder167_lambert1_0_001_0
f 1//1 3//1 2//1
f 4//1 3//1 1//1
f 5//1 3//1 4//1
f 6//1 3//1 5//1
f 7//1 3//1 6//1
f 8//1 3//1 7//1
f 9//1 3//1 8//1
f 10//1 3//1 9//1
f 11//1 3//1 10//1
f 12//1 3//1 11//1
f 13//1 3//1 12//1
f 14//1 3//1 13//1
f 15//1 3//1 14//1
f 16//1 3//1 15//1
f 17//1 3//1 16//1
f 18//1 3//1 17//1
f 19//1 3//1 18//1
f 20//1 3//1 19//1
f 21//1 3//1 20//1
f 2//1 3//1 21//1
f 22//1 23//1 24//1
f 23//1 25//1 24//1
f 25//1 26//1 24//1
f 26//1 27//1 24//1
f 27//1 28//1 24//1
f 28//1 29//1 24//1
f 29//1 30//1 24//1
f 30//1 31//1 24//1
f 31//1 32//1 24//1
f 32//1 33//1 24//1
f 33//1 34//1 24//1
f 34//1 35//1 24//1
f 35//1 36//1 24//1
f 36//1 37//1 24//1
f 37//1 38//1 24//1
f 38//1 39//1 24//1
f 39//1 40//1 24//1
f 40//1 41//1 24//1
f 41//1 42//1 24//1
f 42//1 22//1 24//1
f 43//2 44//3 45//3
f 43//2 45//3 46//4
f 44//3 47//5 48//5
f 44//3 48//5 45//3
f 47//5 49//6 50//6
f 47//5 50//6 48//5
f 49//6 51//7 52//7
f 49//6 52//7 50//6
f 51//7 53//8 54//9
f 51//7 54//9 52//7
f 53//8 55//10 56//10
f 53//8 56//10 54//9
f 55//10 57//11 58//11
f 55//10 58//11 56//10
f 57//11 59//12 60//12
f 57//11 60//12 58//11
f 59//12 61//13 62//13
f 59//12 62//13 60//12
f 61//13 63//14 64//15
f 61//13 64//15 62//13
f 63//14 65//16 66//16
f 63//14 66//16 64//15
f 65//16 67//17 68//17
f 65//16 68//17 66//16
f 67//17 69//18 70//19
f 67//17 70//19 68//17
f 69//18 71//20 72//20
f 69//18 72//20 70//19
f 71//20 73//21 74//22
f 71//20 74//22 72//20
f 73//21 75//23 76//23
f 73//21 76//23 74//22
f 75//23 77//24 78//24
f 75//23 78//24 76//23
f 77//24 79//25 80//25
f 77//24 80//25 78//24
f 79//25 81//26 82//26
f 79//25 82//26 80//25
f 81//26 83//27 84//27
f 81//26 84//27 82//26
