# Blender 4.4.1
# www.blender.org
mtllib SM_pCylinder176_lambert1_0_001_0.mtl
o SM_pCylinder176_lambert1_0_001_0
v 17.467213 4.138716 16.338783
v 17.530987 4.165133 16.338783
v 17.467213 4.228907 16.338783
v 17.403439 4.165133 16.338783
v 17.377022 4.228907 16.338783
v 17.403439 4.292681 16.338785
v 17.467213 4.319097 16.338783
v 17.530987 4.292681 16.338785
v 17.557404 4.228907 16.338783
v 17.530987 4.165133 16.281332
v 17.467213 4.138716 16.281332
v 17.467213 4.228907 16.281332
v 17.403439 4.165133 16.281332
v 17.377022 4.228907 16.281332
v 17.403439 4.292681 16.281332
v 17.467213 4.319097 16.281332
v 17.530987 4.292681 16.281332
v 17.557404 4.228907 16.281332
v 17.530987 4.165133 16.338783
v 17.467213 4.138716 16.338783
v 17.467213 4.138716 16.281332
v 17.530987 4.165133 16.281332
v 17.467213 4.138716 16.338783
v 17.403439 4.165133 16.338783
v 17.403439 4.165133 16.281332
v 17.467213 4.138716 16.281332
v 17.403439 4.165133 16.338783
v 17.377022 4.228907 16.338783
v 17.377022 4.228907 16.281332
v 17.403439 4.165133 16.281332
v 17.377022 4.228907 16.338783
v 17.403439 4.292681 16.338785
v 17.403439 4.292681 16.281332
v 17.377022 4.228907 16.281332
v 17.403439 4.292681 16.338785
v 17.467213 4.319097 16.338783
v 17.467213 4.319097 16.281332
v 17.403439 4.292681 16.281332
v 17.467213 4.319097 16.338783
v 17.530987 4.292681 16.338785
v 17.530987 4.292681 16.281332
v 17.467213 4.319097 16.281332
v 17.530987 4.292681 16.338785
v 17.557404 4.228907 16.338783
v 17.557404 4.228907 16.281332
v 17.530987 4.292681 16.281332
v 17.557404 4.228907 16.338783
v 17.530987 4.165133 16.338783
v 17.530987 4.165133 16.281332
v 17.557404 4.228907 16.281332
vn -0.0000 -0.0000 1.0000
vn 0.3827 -0.9239 -0.0000
vn 0.3827 0.9239 -0.0000
vn 0.9239 0.3827 -0.0000
vn 0.9239 -0.3827 -0.0000
s 1
usemtl M_pCylinder176_lambert1_0_001_0
f 1//1 2//1 3//1
f 4//1 1//1 3//1
f 5//1 4//1 3//1
f 6//1 5//1 3//1
f 7//1 6//1 3//1
f 8//1 7//1 3//1
f 9//1 8//1 3//1
f 2//1 9//1 3//1
f 10//1 12//1 11//1
f 11//1 12//1 13//1
f 13//1 12//1 14//1
f 14//1 12//1 15//1
f 15//1 12//1 16//1
f 16//1 12//1 17//1
f 17//1 12//1 18//1
f 18//1 12//1 10//1
f 19//2 20//2 21//2
f 19//2 21//2 22//2
f 23//3 25//3 24//3
f 23//3 26//3 25//3
f 27//4 29//4 28//4
f 27//4 30//4 29//4
f 31//5 33//5 32//5
f 31//5 34//5 33//5
f 35//2 37//2 36//2
f 35//2 38//2 37//2
f 39//3 40//3 41//3
f 39//3 41//3 42//3
f 43//4 44//4 45//4
f 43//4 45//4 46//4
f 47//5 48//5 49//5
f 47//5 49//5 50//5
