# Blender 4.4.1
# www.blender.org
mtllib SM_pCylinder175_lambert1_0_001_0.mtl
o SM_pCylinder175_lambert1_0_001_0
v 17.517357 4.192475 16.410124
v 17.526161 4.209753 16.410124
v 17.467213 4.228907 16.410124
v 17.503645 4.178763 16.410124
v 17.486366 4.169959 16.410124
v 17.467213 4.166925 16.410124
v 17.448059 4.169959 16.410124
v 17.430780 4.178763 16.410124
v 17.417068 4.192475 16.410124
v 17.408264 4.209753 16.410124
v 17.405231 4.228907 16.410124
v 17.408264 4.248060 16.410124
v 17.417068 4.265338 16.410124
v 17.430780 4.279050 16.410122
v 17.448059 4.287854 16.410124
v 17.467213 4.290887 16.410124
v 17.486366 4.287854 16.410124
v 17.503645 4.279050 16.410124
v 17.517357 4.265338 16.410124
v 17.526161 4.248060 16.410124
v 17.529194 4.228907 16.410124
v 17.526161 4.209753 16.337992
v 17.517357 4.192475 16.337992
v 17.467213 4.228907 16.337992
v 17.503645 4.178763 16.337992
v 17.486366 4.169959 16.337990
v 17.467213 4.166925 16.337992
v 17.448059 4.169959 16.337990
v 17.430780 4.178763 16.337990
v 17.417068 4.192475 16.337992
v 17.408264 4.209753 16.337992
v 17.405231 4.228907 16.337992
v 17.408264 4.248060 16.337992
v 17.417068 4.265338 16.337990
v 17.430780 4.279050 16.337990
v 17.448059 4.287854 16.337992
v 17.467213 4.290888 16.337992
v 17.486366 4.287854 16.337992
v 17.503645 4.279050 16.337990
v 17.517357 4.265338 16.337992
v 17.526161 4.248060 16.337992
v 17.529194 4.228907 16.337992
v 17.526161 4.209753 16.410124
v 17.517357 4.192475 16.410124
v 17.517357 4.192475 16.337992
v 17.526161 4.209753 16.337992
v 17.503645 4.178763 16.410124
v 17.503645 4.178763 16.337992
v 17.486366 4.169959 16.410124
v 17.486366 4.169959 16.337990
v 17.467213 4.166925 16.410124
v 17.467213 4.166925 16.337992
v 17.448059 4.169959 16.410124
v 17.448059 4.169959 16.337990
v 17.430780 4.178763 16.410124
v 17.430780 4.178763 16.337990
v 17.417068 4.192475 16.410124
v 17.417068 4.192475 16.337992
v 17.408264 4.209753 16.410124
v 17.408264 4.209753 16.337992
v 17.405231 4.228907 16.410124
v 17.405231 4.228907 16.337992
v 17.408264 4.248060 16.410124
v 17.408264 4.248060 16.337992
v 17.417068 4.265338 16.410124
v 17.417068 4.265338 16.337990
v 17.430780 4.279050 16.410122
v 17.430780 4.279050 16.337990
v 17.448059 4.287854 16.410124
v 17.448059 4.287854 16.337992
v 17.467213 4.290887 16.410124
v 17.467213 4.290888 16.337992
v 17.486366 4.287854 16.410124
v 17.486366 4.287854 16.337992
v 17.503645 4.279050 16.410124
v 17.503645 4.279050 16.337990
v 17.517357 4.265338 16.410124
v 17.517357 4.265338 16.337992
v 17.526161 4.248060 16.410124
v 17.526161 4.248060 16.337992
v 17.529194 4.228907 16.410124
v 17.529194 4.228907 16.337992
v 17.526161 4.209753 16.410124
v 17.526161 4.209753 16.337992
vn -0.0000 -0.0000 1.0000
vn -0.0001 -0.0000 1.0000
vn 0.0001 -0.0000 1.0000
vn -0.0002 -0.0000 1.0000
vn 0.0001 -0.0001 1.0000
vn 0.0001 0.0001 1.0000
vn 0.0002 -0.0000 1.0000
vn 0.9510 -0.3091 -0.0000
vn 0.8090 -0.5878 -0.0000
vn 0.8090 -0.5877 -0.0000
vn 0.5878 -0.8090 -0.0000
vn 0.3090 -0.9511 -0.0000
vn -0.0000 -1.0000 -0.0000
vn -0.3090 -0.9511 -0.0000
vn -0.5878 -0.8090 -0.0000
vn -0.8090 -0.5877 -0.0000
vn -0.8090 -0.5878 -0.0000
vn -0.9511 -0.3089 -0.0000
vn -0.9510 -0.3091 -0.0000
vn -1.0000 0.0001 -0.0000
vn -1.0000 -0.0001 -0.0000
vn -0.9510 0.3091 -0.0000
vn -0.9511 0.3090 -0.0000
vn -0.8090 0.5878 -0.0000
vn -0.8090 0.5877 -0.0000
vn -0.5877 0.8090 -0.0000
vn -0.5878 0.8090 -0.0000
vn -0.3090 0.9511 -0.0000
vn -0.0000 1.0000 -0.0000
vn 0.3090 0.9511 -0.0000
vn 0.5878 0.8090 -0.0000
vn 0.8090 0.5877 -0.0000
vn 0.8090 0.5878 -0.0000
vn 0.9510 0.3091 -0.0000
vn 0.9511 0.3090 -0.0000
vn 1.0000 0.0001 -0.0000
vn 1.0000 -0.0001 -0.0000
vn 0.9511 -0.3089 -0.0000
s 1
usemtl M_pCylinder175_lambert1_0_001_0
f 1//1 2//1 3//1
f 4//1 1//1 3//1
f 5//2 4//1 3//1
f 6//2 5//2 3//1
f 7//1 6//2 3//1
f 8//1 7//1 3//1
f 9//1 8//1 3//1
f 10//1 9//1 3//1
f 11//1 10//1 3//1
f 12//1 11//1 3//1
f 13//3 12//1 3//1
f 14//2 13//3 3//1
f 15//4 14//2 3//1
f 16//2 15//4 3//1
f 17//1 16//2 3//1
f 18//1 17//1 3//1
f 19//1 18//1 3//1
f 20//1 19//1 3//1
f 21//1 20//1 3//1
f 2//1 21//1 3//1
f 22//1 24//1 23//1
f 23//1 24//1 25//2
f 25//2 24//1 26//1
f 26//1 24//1 27//1
f 27//1 24//1 28//4
f 28//4 24//1 29//5
f 29//5 24//1 30//3
f 30//3 24//1 31//1
f 31//1 24//1 32//1
f 32//1 24//1 33//3
f 33//3 24//1 34//6
f 34//6 24//1 35//2
f 35//2 24//1 36//2
f 36//2 24//1 37//1
f 37//1 24//1 38//7
f 38//7 24//1 39//3
f 39//3 24//1 40//2
f 40//2 24//1 41//1
f 41//1 24//1 42//1
f 42//1 24//1 22//1
f 43//8 44//9 45//10
f 43//8 45//10 46//8
f 44//9 47//11 48//11
f 44//9 48//11 45//10
f 47//11 49//12 50//12
f 47//11 50//12 48//11
f 49//12 51//13 52//13
f 49//12 52//13 50//12
f 51//13 53//14 54//14
f 51//13 54//14 52//13
f 53//14 55//15 56//15
f 53//14 56//15 54//14
f 55//15 57//16 58//17
f 55//15 58//17 56//15
f 57//16 59//18 60//19
f 57//16 60//19 58//17
f 59//18 61//20 62//21
f 59//18 62//21 60//19
f 61//20 63//22 64//23
f 61//20 64//23 62//21
f 63//22 65//24 66//25
f 63//22 66//25 64//23
f 65//24 67//26 68//27
f 65//24 68//27 66//25
f 67//26 69//28 70//28
f 67//26 70//28 68//27
f 69//28 71//29 72//29
f 69//28 72//29 70//28
f 71//29 73//30 74//30
f 71//29 74//30 72//29
f 73//30 75//31 76//31
f 73//30 76//31 74//30
f 75//31 77//32 78//33
f 75//31 78//33 76//31
f 77//32 79//34 80//35
f 77//32 80//35 78//33
f 79//34 81//36 82//37
f 79//34 82//37 80//35
f 81//36 83//38 84//38
f 81//36 84//38 82//37
