# Blender 4.4.1
# www.blender.org
mtllib SM_polySurface150_lambert1_0_0.mtl
o SM_polySurface150_lambert1_0_0
v 4.510544 7.986248 1.415897
v 4.510544 7.986248 -3.885752
v 4.552742 7.986248 -3.885752
v 4.552742 7.986248 1.415897
v 4.595038 8.073768 -3.885752
v 4.595038 8.073768 1.415897
v 4.601266 8.047780 1.415897
v 4.601266 8.047780 -3.885752
v 4.468249 8.073768 1.415897
v 4.468249 8.073768 -3.885752
v 4.462018 8.047780 -3.885752
v 4.462018 8.047780 1.415897
v 4.581001 7.995020 -3.885752
v 4.581001 7.995020 1.415897
v 4.581001 7.995020 -3.885752
v 4.599325 8.018254 -3.885752
v 4.599325 8.018254 1.415897
v 4.581001 7.995020 1.415897
v 4.599325 8.018254 -3.885752
v 4.599325 8.018254 1.415897
v 4.463960 8.018254 -3.885752
v 4.463960 8.018254 1.415897
v 4.463960 8.018254 -3.885752
v 4.482284 7.995020 -3.885752
v 4.482284 7.995020 1.415897
v 4.463960 8.018254 1.415897
v 4.482284 7.995020 -3.885752
v 4.482284 7.995020 1.415897
v 4.482284 7.995020 -3.885752
v 4.463960 8.018254 -3.885752
v 4.462018 8.047780 -3.885752
v 4.468249 8.073768 -3.885752
v 4.595038 8.073768 -3.885752
v 4.601266 8.047780 -3.885752
v 4.599325 8.018254 -3.885752
v 4.581001 7.995020 -3.885752
v 4.552742 7.986248 -3.885752
v 4.510544 7.986248 -3.885752
v 4.463960 8.018254 1.415897
v 4.482284 7.995020 1.415897
v 4.510544 7.986248 1.415897
v 4.552742 7.986248 1.415897
v 4.581001 7.995020 1.415897
v 4.599325 8.018254 1.415897
v 4.601266 8.047780 1.415897
v 4.595038 8.073768 1.415897
v 4.468249 8.073768 1.415897
v 4.462018 8.047780 1.415897
vn 0.1255 0.9921 -0.0000
vn -0.1255 0.9921 -0.0000
vn 0.1267 0.9919 -0.0000
vn -0.1267 0.9919 -0.0000
vn 0.9725 0.2331 -0.0000
vn 0.9725 0.2330 -0.0000
vn 0.9970 0.0770 -0.0000
vn 0.9724 -0.2331 -0.0000
vn 0.9970 -0.0776 -0.0000
vn 0.9724 -0.2332 -0.0000
vn 0.9970 -0.0780 -0.0000
vn -0.2965 0.9550 -0.0000
vn -0.7852 0.6193 -0.0000
vn -0.7852 0.6192 -0.0000
vn 0.9978 -0.0656 -0.0000
vn 0.9978 0.0656 -0.0000
vn 0.7852 0.6192 -0.0000
vn 0.2965 0.9550 -0.0000
vn -0.0000 -0.0000 -1.0000
vn 0.0001 -0.0000 -1.0000
vn -0.0000 -0.0000 1.0000
s 1
usemtl M_polySurface150_lambert1_0_0
f 1//1 3//2 2//3
f 1//1 4//4 3//2
f 5//5 6//6 7//7
f 5//5 7//7 8//7
f 9//8 11//9 10//10
f 9//8 12//11 11//9
f 3//2 14//12 13//12
f 3//2 4//4 14//12
f 15//13 17//14 16//13
f 15//13 18//14 17//14
f 19//15 8//7 7//7
f 19//15 7//7 20//15
f 11//9 22//16 21//16
f 11//9 12//11 22//16
f 23//17 25//17 24//17
f 23//17 26//17 25//17
f 27//18 1//1 2//3
f 27//18 28//18 1//1
f 32//19 30//20 31//19
f 30//20 32//19 29//19
f 29//19 32//19 33//19
f 29//19 33//19 38//19
f 38//19 33//19 37//19
f 37//19 33//19 36//19
f 36//19 33//19 35//19
f 35//19 33//19 34//19
f 39//21 47//21 48//21
f 47//21 39//21 40//21
f 47//21 40//21 46//21
f 46//21 40//21 41//21
f 46//21 41//21 42//21
f 46//21 42//21 43//21
f 46//21 43//21 44//21
f 46//21 44//21 45//21
