# Blender 4.4.1
# www.blender.org
mtllib SM_polySurface286_lambert1_0_001_0.mtl
o SM_polySurface286_lambert1_0_001_0
v -0.260497 0.565448 -0.500002
v -0.260497 0.349585 -0.500002
v -0.260497 0.349585 0.500000
v -0.260497 0.565448 0.500000
v -0.248615 0.565448 -0.500002
v -0.248615 0.349585 -0.500002
v -0.248615 0.349585 0.500000
v -0.248615 0.565448 0.500000
v -0.248615 0.565448 -0.500002
v -0.248615 0.349585 -0.500002
v -0.260497 0.349585 -0.500002
v -0.260497 0.565448 -0.500002
v -0.248615 0.349585 -0.500002
v -0.248615 0.349585 0.500000
v -0.260497 0.349585 0.500000
v -0.260497 0.349585 -0.500002
v -0.248615 0.349585 0.500000
v -0.248615 0.565448 0.500000
v -0.260497 0.565448 0.500000
v -0.260497 0.349585 0.500000
v -0.248615 0.565448 0.500000
v -0.248615 0.565448 -0.500002
v -0.260497 0.565448 -0.500002
v -0.260497 0.565448 0.500000
vn -1.0000 -0.0000 -0.0000
vn -0.0000 -0.0000 -1.0000
vn -0.0000 1.0000 -0.0000
vn -0.0000 -0.0000 1.0000
s 1
usemtl M_polySurface286_lambert1_0_001_0
f 1//1 2//1 3//1
f 1//1 3//1 4//1
f 5//1 6//1 7//1
f 5//1 7//1 8//1
f 9//2 10//2 11//2
f 9//2 11//2 12//2
f 13//3 15//3 14//3
f 13//3 16//3 15//3
f 17//4 18//4 19//4
f 17//4 19//4 20//4
f 21//3 22//3 23//3
f 21//3 23//3 24//3
