# Blender 4.4.1
# www.blender.org
mtllib SM_pPlane26_lambert1_0_0.mtl
o SM_pPlane26_lambert1_0_0
v -0.328272 -0.000000 0.530893
v -0.200000 0.000000 0.530893
v -0.200000 0.000000 0.400000
v -0.328272 -0.000000 0.400000
v -0.100000 0.000000 0.530893
v -0.100000 0.000000 0.400000
v 0.000000 0.000000 0.530893
v 0.000000 0.000000 0.400000
v 0.100000 0.000000 0.530893
v 0.100000 0.000000 0.400000
v 0.200000 0.000000 0.530893
v 0.200000 0.000000 0.400000
v 0.300000 0.000000 0.530893
v 0.300000 0.000000 0.400000
v 0.400000 0.000000 0.530893
v 0.400000 0.000000 0.400000
v 0.500000 0.000000 0.530893
v 0.500000 0.000000 0.400000
v -0.200000 0.000000 0.300000
v -0.328272 -0.000000 0.300000
v -0.100000 0.000000 0.300000
v 0.000000 0.000000 0.300000
v 0.100000 0.000000 0.300000
v 0.200000 0.000000 0.300000
v 0.300000 0.000000 0.300000
v 0.400000 0.000000 0.300000
v 0.500000 0.000000 0.300000
v -0.200000 0.000000 0.200000
v -0.328272 -0.000000 0.200000
v -0.100000 0.000000 0.200000
v 0.000000 0.000000 0.200000
v 0.100000 0.000000 0.200000
v 0.200000 0.000000 0.200000
v 0.300000 0.000000 0.200000
v 0.400000 0.000000 0.200000
v 0.500000 0.000000 0.200000
v -0.200000 0.000000 0.100000
v -0.328272 -0.000000 0.100000
v -0.100000 0.000000 0.100000
v 0.000000 0.000000 0.100000
v 0.100000 0.000000 0.100000
v 0.200000 0.000000 0.100000
v 0.300000 0.000000 0.100000
v 0.400000 0.000000 0.100000
v 0.500000 0.000000 0.100000
v -0.200000 0.000000 0.000000
v -0.328272 -0.000000 0.000000
v -0.100000 0.000000 0.000000
v 0.000000 0.000000 0.000000
v 0.100000 0.000000 0.000000
v 0.200000 0.000000 0.000000
v 0.300000 0.000000 0.000000
v 0.400000 0.000000 0.000000
v 0.500000 0.000000 0.000000
v -0.200000 0.000000 -0.100000
v -0.328272 -0.000000 -0.100000
v -0.100000 0.000000 -0.100000
v 0.000000 0.000000 -0.100000
v 0.100000 0.000000 -0.100000
v 0.200000 0.000000 -0.100000
v 0.300000 0.000000 -0.100000
v 0.400000 0.000000 -0.100000
v 0.500000 0.000000 -0.100000
v -0.200000 0.000000 -0.200000
v -0.328272 -0.000000 -0.200000
v -0.100000 0.000000 -0.200000
v 0.000000 0.000000 -0.200000
v 0.100000 0.000000 -0.200000
v 0.200000 0.000000 -0.200000
v 0.300000 0.000000 -0.200000
v 0.400000 0.000000 -0.200000
v 0.500000 0.000000 -0.200000
v -0.200000 0.000000 -0.300000
v -0.328272 -0.000000 -0.300000
v -0.100000 0.000000 -0.300000
v 0.000000 0.000000 -0.300000
v 0.100000 0.000000 -0.300000
v 0.200000 0.000000 -0.300000
v 0.300000 0.000000 -0.300000
v 0.400000 0.000000 -0.300000
v 0.500000 0.000000 -0.300000
v -0.200000 0.000000 -0.400000
v -0.328272 -0.000000 -0.400000
v -0.100000 0.000000 -0.400000
v 0.000000 0.000000 -0.400000
v 0.100000 0.000000 -0.400000
v 0.200000 0.000000 -0.400000
v 0.300000 0.000000 -0.400000
v 0.400000 0.000000 -0.400000
v 0.500000 0.000000 -0.400000
v -0.200000 0.000000 -0.500000
v -0.328272 -0.000000 -0.500000
v -0.100000 0.000000 -0.500000
v 0.000000 0.000000 -0.500000
v 0.100000 0.000000 -0.500000
v 0.200000 0.000000 -0.500000
v 0.300000 0.000000 -0.500000
v 0.400000 0.000000 -0.500000
v 0.500000 0.000000 -0.500000
vn -0.0000 1.0000 -0.0000
s 1
usemtl M_pPlane26_lambert1_0_0
f 1//1 2//1 3//1
f 1//1 3//1 4//1
f 2//1 5//1 6//1
f 2//1 6//1 3//1
f 5//1 7//1 8//1
f 5//1 8//1 6//1
f 7//1 9//1 10//1
f 7//1 10//1 8//1
f 9//1 11//1 12//1
f 9//1 12//1 10//1
f 11//1 13//1 14//1
f 11//1 14//1 12//1
f 13//1 15//1 16//1
f 13//1 16//1 14//1
f 15//1 17//1 18//1
f 15//1 18//1 16//1
f 4//1 3//1 19//1
f 4//1 19//1 20//1
f 3//1 6//1 21//1
f 3//1 21//1 19//1
f 6//1 8//1 22//1
f 6//1 22//1 21//1
f 8//1 10//1 23//1
f 8//1 23//1 22//1
f 10//1 12//1 24//1
f 10//1 24//1 23//1
f 12//1 14//1 25//1
f 12//1 25//1 24//1
f 14//1 16//1 26//1
f 14//1 26//1 25//1
f 16//1 18//1 27//1
f 16//1 27//1 26//1
f 20//1 19//1 28//1
f 20//1 28//1 29//1
f 19//1 21//1 30//1
f 19//1 30//1 28//1
f 21//1 22//1 31//1
f 21//1 31//1 30//1
f 22//1 23//1 32//1
f 22//1 32//1 31//1
f 23//1 24//1 33//1
f 23//1 33//1 32//1
f 24//1 25//1 34//1
f 24//1 34//1 33//1
f 25//1 26//1 35//1
f 25//1 35//1 34//1
f 26//1 27//1 36//1
f 26//1 36//1 35//1
f 29//1 28//1 37//1
f 29//1 37//1 38//1
f 28//1 30//1 39//1
f 28//1 39//1 37//1
f 30//1 31//1 40//1
f 30//1 40//1 39//1
f 31//1 32//1 41//1
f 31//1 41//1 40//1
f 32//1 33//1 42//1
f 32//1 42//1 41//1
f 33//1 34//1 43//1
f 33//1 43//1 42//1
f 34//1 35//1 44//1
f 34//1 44//1 43//1
f 35//1 36//1 45//1
f 35//1 45//1 44//1
f 38//1 37//1 46//1
f 38//1 46//1 47//1
f 37//1 39//1 48//1
f 37//1 48//1 46//1
f 39//1 40//1 49//1
f 39//1 49//1 48//1
f 40//1 41//1 50//1
f 40//1 50//1 49//1
f 41//1 42//1 51//1
f 41//1 51//1 50//1
f 42//1 43//1 52//1
f 42//1 52//1 51//1
f 43//1 44//1 53//1
f 43//1 53//1 52//1
f 44//1 45//1 54//1
f 44//1 54//1 53//1
f 47//1 46//1 55//1
f 47//1 55//1 56//1
f 46//1 48//1 57//1
f 46//1 57//1 55//1
f 48//1 49//1 58//1
f 48//1 58//1 57//1
f 49//1 50//1 59//1
f 49//1 59//1 58//1
f 50//1 51//1 60//1
f 50//1 60//1 59//1
f 51//1 52//1 61//1
f 51//1 61//1 60//1
f 52//1 53//1 62//1
f 52//1 62//1 61//1
f 53//1 54//1 63//1
f 53//1 63//1 62//1
f 56//1 55//1 64//1
f 56//1 64//1 65//1
f 55//1 57//1 66//1
f 55//1 66//1 64//1
f 57//1 58//1 67//1
f 57//1 67//1 66//1
f 58//1 59//1 68//1
f 58//1 68//1 67//1
f 59//1 60//1 69//1
f 59//1 69//1 68//1
f 60//1 61//1 70//1
f 60//1 70//1 69//1
f 61//1 62//1 71//1
f 61//1 71//1 70//1
f 62//1 63//1 72//1
f 62//1 72//1 71//1
f 65//1 64//1 73//1
f 65//1 73//1 74//1
f 64//1 66//1 75//1
f 64//1 75//1 73//1
f 66//1 67//1 76//1
f 66//1 76//1 75//1
f 67//1 68//1 77//1
f 67//1 77//1 76//1
f 68//1 69//1 78//1
f 68//1 78//1 77//1
f 69//1 70//1 79//1
f 69//1 79//1 78//1
f 70//1 71//1 80//1
f 70//1 80//1 79//1
f 71//1 72//1 81//1
f 71//1 81//1 80//1
f 74//1 73//1 82//1
f 74//1 82//1 83//1
f 73//1 75//1 84//1
f 73//1 84//1 82//1
f 75//1 76//1 85//1
f 75//1 85//1 84//1
f 76//1 77//1 86//1
f 76//1 86//1 85//1
f 77//1 78//1 87//1
f 77//1 87//1 86//1
f 78//1 79//1 88//1
f 78//1 88//1 87//1
f 79//1 80//1 89//1
f 79//1 89//1 88//1
f 80//1 81//1 90//1
f 80//1 90//1 89//1
f 83//1 82//1 91//1
f 83//1 91//1 92//1
f 82//1 84//1 93//1
f 82//1 93//1 91//1
f 84//1 85//1 94//1
f 84//1 94//1 93//1
f 85//1 86//1 95//1
f 85//1 95//1 94//1
f 86//1 87//1 96//1
f 86//1 96//1 95//1
f 87//1 88//1 97//1
f 87//1 97//1 96//1
f 88//1 89//1 98//1
f 88//1 98//1 97//1
f 89//1 90//1 99//1
f 89//1 99//1 98//1
