# Blender 4.4.1
# www.blender.org
mtllib SM_polySurface241_lambert1_0_0.mtl
o SM_polySurface241_lambert1_0_0
v -0.164395 5.961473 -5.644521
v -0.063678 5.961473 -5.711819
v -0.063678 5.872497 -5.711819
v -0.164395 5.872497 -5.644521
v -0.231693 5.961473 -5.543803
v -0.164395 5.961473 -5.644521
v -0.164395 5.872497 -5.644521
v -0.231693 5.872497 -5.543803
v 0.055127 5.961473 -5.735450
v 0.055127 5.872497 -5.735450
v -0.255324 5.961473 -5.424998
v -0.255324 5.872497 -5.424998
v 7.520543 5.961473 -5.735450
v 7.520543 5.872497 -5.735450
v -0.255324 5.872497 5.964433
v -0.255324 5.961473 5.964433
v 7.639348 5.961473 -5.711819
v 7.639348 5.872497 -5.711819
v 7.740066 5.961473 -5.644521
v 7.740066 5.872497 -5.644521
v 7.740066 5.961473 -5.644521
v 7.807363 5.961473 -5.543803
v 7.807363 5.872497 -5.543803
v 7.740066 5.872497 -5.644521
v 7.830995 5.961473 -5.424998
v 7.830995 5.872497 -5.424998
v -0.231693 5.872497 6.083238
v -0.231693 5.961473 6.083238
v -0.164395 5.872497 6.183955
v -0.164395 5.961473 6.183955
v -0.063678 5.872497 6.251252
v -0.063678 5.961473 6.251252
v 0.055127 5.872497 6.274884
v 0.055127 5.961473 6.274884
v 7.830995 5.961473 5.964433
v 7.830995 5.872497 5.964433
v 7.520543 5.872497 6.274884
v 7.520543 5.961473 6.274884
v 7.807363 5.872497 6.083238
v 7.807363 5.961473 6.083238
v 7.639348 5.872497 6.251252
v 7.639348 5.961473 6.251252
v 7.740066 5.872497 6.183955
v 7.740066 5.961473 6.183955
v 5.132832 5.872497 3.497684
v 2.478432 5.872497 3.497684
v -0.255324 5.872497 5.964433
v -0.255324 5.872497 -5.424998
v -0.231693 5.872497 -5.543803
v -0.164395 5.872497 -5.644521
v -0.063678 5.872497 -5.711819
v 0.055127 5.872497 -5.735450
v 7.520543 5.872497 -5.735450
v 7.639348 5.872497 -5.711819
v 7.740066 5.872497 -5.644521
v 7.807363 5.872497 -5.543803
v 7.830995 5.872497 -5.424998
v 7.830995 5.872497 5.964433
v 7.807363 5.961473 -5.543803
v 7.740066 5.961473 -5.644521
v 7.639348 5.961473 -5.711819
v 7.520543 5.961473 -5.735450
v 0.055127 5.961473 -5.735450
v -0.063678 5.961473 -5.711819
v -0.164395 5.961473 -5.644521
v -0.231693 5.961473 -5.543803
v -0.255324 5.961473 -5.424998
v -0.255324 5.961473 5.964433
v 2.478432 5.961473 3.497684
v 5.132832 5.961473 3.497684
v 7.830995 5.961473 5.964433
v 7.830995 5.961473 -5.424998
v 5.132832 5.961473 5.063778
v 2.478432 5.961473 5.063778
v -0.231693 5.961473 6.083238
v -0.164395 5.961473 6.183955
v -0.063678 5.961473 6.251252
v 0.055127 5.961473 6.274884
v 7.520543 5.961473 6.274884
v 7.639348 5.961473 6.251252
v 7.740066 5.961473 6.183955
v 7.807363 5.961473 6.083238
vn -0.7070 -0.0001 -0.7072
vn -0.3827 -0.0000 -0.9239
vn -0.7070 -0.0000 -0.7072
vn -0.9239 -0.0000 -0.3827
vn -0.7072 -0.0000 -0.7070
vn -0.0031 -0.0000 -1.0000
vn -0.0032 -0.0000 -1.0000
vn -1.0000 -0.0001 -0.0021
vn -1.0000 -0.0000 -0.0021
vn 0.0032 -0.0000 -1.0000
vn 0.0031 -0.0000 -1.0000
vn -1.0000 0.0001 0.0021
vn -1.0000 -0.0000 0.0021
vn 0.3827 -0.0000 -0.9239
vn 0.7070 -0.0000 -0.7072
vn 0.7070 0.0001 -0.7072
vn 0.7072 -0.0001 -0.7070
vn 0.9239 -0.0000 -0.3827
vn 0.7072 -0.0000 -0.7070
vn 1.0000 -0.0000 -0.0022
vn 1.0000 -0.0000 -0.0021
vn -0.9239 -0.0000 0.3827
vn -0.7071 -0.0000 0.7071
vn -0.3827 -0.0000 0.9239
vn -0.0031 -0.0000 1.0000
vn -0.0032 -0.0000 1.0000
vn 1.0000 -0.0000 0.0021
vn 1.0000 -0.0000 0.0022
vn 0.0032 -0.0000 1.0000
vn 0.0031 -0.0000 1.0000
vn 0.9239 -0.0000 0.3827
vn 0.3827 -0.0000 0.9239
vn 0.7071 -0.0000 0.7071
vn -0.0000 1.0000 -0.0000
s 1
usemtl M_polySurface241_lambert1_0_0
f 1//1 2//2 3//2
f 1//1 3//2 4//3
f 5//4 6//5 7//5
f 5//4 7//5 8//4
f 2//2 9//6 10//7
f 2//2 10//7 3//2
f 11//8 5//4 8//4
f 11//8 8//4 12//9
f 10//7 9//6 13//10
f 10//7 13//10 14//11
f 11//8 12//9 15//12
f 11//8 15//12 16//13
f 13//10 17//14 18//14
f 13//10 18//14 14//11
f 17//14 19//15 20//16
f 17//14 20//16 18//14
f 21//17 22//18 23//18
f 21//17 23//18 24//19
f 22//18 25//20 26//21
f 22//18 26//21 23//18
f 15//12 27//22 28//22
f 15//12 28//22 16//13
f 27//22 29//23 30//23
f 27//22 30//23 28//22
f 29//23 31//24 32//24
f 29//23 32//24 30//23
f 31//24 33//25 34//26
f 31//24 34//26 32//24
f 35//27 36//28 26//21
f 35//27 26//21 25//20
f 34//26 33//25 37//29
f 34//26 37//29 38//30
f 39//31 36//28 35//27
f 39//31 35//27 40//31
f 37//29 41//32 42//32
f 37//29 42//32 38//30
f 41//32 43//33 44//33
f 41//32 44//33 42//32
f 43//33 39//31 40//31
f 43//33 40//31 44//33
f 48//34 47//34 46//34
f 46//34 45//34 48//34
f 54//34 53//34 52//34
f 52//34 51//34 54//34
f 51//34 55//34 54//34
f 51//34 50//34 55//34
f 50//34 56//34 55//34
f 50//34 49//34 56//34
f 49//34 57//34 56//34
f 49//34 48//34 57//34
f 48//34 58//34 57//34
f 48//34 45//34 58//34
f 64//34 62//34 63//34
f 62//34 64//34 61//34
f 61//34 64//34 65//34
f 61//34 65//34 60//34
f 60//34 65//34 66//34
f 60//34 66//34 59//34
f 59//34 66//34 67//34
f 59//34 67//34 72//34
f 72//34 67//34 68//34
f 72//34 68//34 69//34
f 72//34 70//34 71//34
f 70//34 72//34 69//34
f 68//34 74//34 69//34
f 74//34 68//34 73//34
f 73//34 71//34 70//34
f 71//34 73//34 68//34
f 71//34 68//34 75//34
f 71//34 75//34 82//34
f 82//34 75//34 76//34
f 82//34 76//34 81//34
f 81//34 76//34 77//34
f 81//34 77//34 80//34
f 80//34 77//34 78//34
f 80//34 78//34 79//34
