# Blender 4.4.1
# www.blender.org
mtllib SM_pCylinder169_lambert1_0_0.mtl
o SM_pCylinder169_lambert1_0_0
v 17.467213 0.826336 15.929233
v 17.530987 0.826336 15.955648
v 17.467213 0.826336 16.019423
v 17.403439 0.826336 15.955648
v 17.377022 0.826336 16.019423
v 17.403439 0.826336 16.083197
v 17.467213 0.826336 16.109613
v 17.530987 0.826336 16.083197
v 17.557404 0.826336 16.019423
v 17.530987 0.906518 15.955648
v 17.467213 0.906518 15.929233
v 17.467213 0.906518 16.019423
v 17.403439 0.906518 15.955648
v 17.377022 0.906518 16.019423
v 17.403439 0.906518 16.083197
v 17.467213 0.906518 16.109613
v 17.530987 0.906518 16.083197
v 17.557404 0.906518 16.019423
v 17.530987 0.826336 15.955648
v 17.467213 0.826336 15.929233
v 17.467213 0.906518 15.929233
v 17.530987 0.906518 15.955648
v 17.467213 0.826336 15.929233
v 17.403439 0.826336 15.955648
v 17.403439 0.906518 15.955648
v 17.467213 0.906518 15.929233
v 17.403439 0.826336 15.955648
v 17.377022 0.826336 16.019423
v 17.377022 0.906518 16.019423
v 17.403439 0.906518 15.955648
v 17.377022 0.826336 16.019423
v 17.403439 0.826336 16.083197
v 17.403439 0.906518 16.083197
v 17.377022 0.906518 16.019423
v 17.403439 0.826336 16.083197
v 17.467213 0.826336 16.109613
v 17.467213 0.906518 16.109613
v 17.403439 0.906518 16.083197
v 17.467213 0.826336 16.109613
v 17.530987 0.826336 16.083197
v 17.530987 0.906518 16.083197
v 17.467213 0.906518 16.109613
v 17.530987 0.826336 16.083197
v 17.557404 0.826336 16.019423
v 17.557404 0.906518 16.019423
v 17.530987 0.906518 16.083197
v 17.557404 0.826336 16.019423
v 17.530987 0.826336 15.955648
v 17.530987 0.906518 15.955648
v 17.557404 0.906518 16.019423
vn -0.0000 1.0000 -0.0000
vn -0.3827 -0.0000 0.9239
vn -0.3826 -0.0000 0.9239
vn 0.3827 -0.0000 0.9239
vn 0.3826 -0.0000 0.9239
vn 0.9239 -0.0000 0.3827
vn 0.9239 -0.0000 -0.3827
s 1
usemtl M_pCylinder169_lambert1_0_0
f 1//1 3//1 2//1
f 4//1 3//1 1//1
f 5//1 3//1 4//1
f 6//1 3//1 5//1
f 7//1 3//1 6//1
f 8//1 3//1 7//1
f 9//1 3//1 8//1
f 2//1 3//1 9//1
f 10//1 11//1 12//1
f 11//1 13//1 12//1
f 13//1 14//1 12//1
f 14//1 15//1 12//1
f 15//1 16//1 12//1
f 16//1 17//1 12//1
f 17//1 18//1 12//1
f 18//1 10//1 12//1
f 19//2 21//2 20//3
f 19//2 22//2 21//2
f 23//4 25//4 24//4
f 23//4 26//5 25//4
f 27//6 29//6 28//6
f 27//6 30//6 29//6
f 31//7 33//7 32//7
f 31//7 34//7 33//7
f 35//2 36//2 37//2
f 35//2 37//2 38//2
f 39//4 40//4 41//4
f 39//4 41//4 42//4
f 43//6 44//6 45//6
f 43//6 45//6 46//6
f 47//7 48//7 49//7
f 47//7 49//7 50//7
