# Blender 4.4.1
# www.blender.org
mtllib SM_polySurface205_lambert1_0_0.mtl
o SM_polySurface205_lambert1_0_0
v -0.299164 2.873080 0.550038
v -0.334675 2.873080 0.559553
v -0.346259 2.870148 0.548811
v -0.311389 2.870148 0.539096
v -0.360672 2.873080 0.585551
v -0.371786 2.870148 0.575356
v -0.370187 2.873080 0.621064
v -0.381129 2.870148 0.611614
v -0.370187 2.873080 1.247034
v -0.360672 2.873080 1.282547
v -0.371786 2.870148 1.292743
v -0.381129 2.870148 1.256484
v -0.360672 2.873080 1.282547
v -0.334676 2.873080 1.308544
v -0.346258 2.870148 1.319285
v -0.371786 2.870148 1.292743
v -0.299164 2.873080 1.318061
v -0.311388 2.870148 1.329000
v -0.414222 2.913243 0.575237
v -0.404707 2.913243 0.539724
v -0.407639 2.902302 0.536792
v -0.417155 2.902302 0.572304
v -0.378710 2.913243 0.513727
v -0.381642 2.902302 0.510795
v -0.343198 2.913243 0.504211
v -0.346130 2.902302 0.501280
v -0.406213 2.921253 1.284851
v -0.396697 2.921253 1.320364
v -0.385928 2.924185 1.308677
v -0.395271 2.924185 1.272417
v -0.370700 2.921253 1.346361
v -0.360401 2.924185 1.335220
v -0.335188 2.921253 1.355877
v -0.325531 2.924185 1.344936
v -0.362178 2.913243 1.239025
v -0.352662 2.913243 1.274538
v -0.349730 2.902302 1.271605
v -0.359246 2.902302 1.236094
v -0.326665 2.913243 1.300534
v -0.323733 2.902302 1.297604
v -0.291152 2.913243 1.310049
v -0.288221 2.902302 1.307118
v -0.370187 2.921253 0.621064
v -0.360672 2.921253 0.585551
v -0.371786 2.924185 0.575356
v -0.381129 2.924185 0.611614
v -0.360672 2.921253 0.585551
v -0.334675 2.921253 0.559553
v -0.346259 2.924185 0.548811
v -0.371786 2.924185 0.575356
v -0.299164 2.921253 0.550038
v -0.311389 2.924185 0.539096
v -0.335188 2.873080 1.355877
v -0.370700 2.873080 1.346361
v -0.360401 2.870148 1.335220
v -0.325531 2.870148 1.344936
v -0.370700 2.873080 1.346361
v -0.396697 2.873080 1.320364
v -0.385928 2.870148 1.308677
v -0.360401 2.870148 1.335220
v -0.406213 2.873080 1.284851
v -0.395271 2.870148 1.272417
v -0.406213 2.873080 0.583244
v -0.396697 2.873080 0.547732
v -0.385928 2.870148 0.559422
v -0.395271 2.870148 0.595682
v -0.370700 2.873080 0.521736
v -0.360401 2.870148 0.532879
v -0.335186 2.873080 0.512220
v -0.325532 2.870148 0.523163
v -0.190122 2.873080 1.318061
v -0.190122 2.870148 1.329000
v -0.291152 2.881088 1.310049
v -0.190122 2.881088 1.310049
v -0.291152 2.881088 1.310049
v -0.288221 2.892031 1.307118
v -0.190122 2.892031 1.307118
v -0.190122 2.881088 1.310049
v -0.190122 2.921253 1.355877
v -0.190122 2.924185 1.344936
v -0.343198 2.913243 1.363886
v -0.190122 2.913243 1.363886
v -0.190122 2.921253 1.355877
v -0.346130 2.902302 1.366819
v -0.190122 2.902302 1.366819
v -0.190122 2.921253 0.550038
v -0.190122 2.924185 0.539096
v -0.291152 2.913243 0.558048
v -0.190122 2.913243 0.558048
v -0.190122 2.921253 0.550038
v -0.291152 2.913243 0.558048
v -0.288221 2.902302 0.560979
v -0.190122 2.902302 0.560979
v -0.190122 2.913243 0.558048
v -0.190122 2.873080 0.512220
v -0.190122 2.870148 0.523163
v -0.343198 2.881088 0.504211
v -0.190122 2.881088 0.504211
v -0.190122 2.873080 0.512220
v -0.343198 2.881088 0.504211
v -0.346130 2.892031 0.501280
v -0.190122 2.892031 0.501280
v -0.395271 2.924185 0.595682
v -0.381129 2.924185 1.256484
v -0.417155 2.892031 1.295794
v -0.417155 2.902302 1.295794
v -0.417155 2.892031 0.572304
v -0.359246 2.892031 1.236094
v -0.359246 2.892031 0.632005
v -0.359246 2.902302 0.632005
v -0.190122 2.870148 1.329000
v -0.190122 2.870148 1.344936
v -0.190122 2.902302 1.307118
v -0.190122 2.924185 1.329000
v -0.311388 2.924185 1.329000
v -0.346130 2.892031 1.366819
v -0.190122 2.892031 1.366819
v -0.288221 2.892031 0.560979
v -0.190122 2.892031 0.560979
v -0.190122 2.870148 0.539096
v -0.190122 2.902302 0.501280
v -0.190122 2.924185 0.539096
v -0.190122 2.924185 0.523163
v -0.325532 2.924185 0.523163
v -0.362178 2.881088 1.239025
v -0.362178 2.881088 0.629072
v -0.362178 2.881088 1.239025
v -0.362178 2.881088 0.629072
v -0.190122 2.873080 0.550038
v -0.291152 2.881088 0.558048
v -0.190122 2.881088 0.558048
v -0.291152 2.881088 0.558048
v -0.299164 2.873080 0.550038
v -0.190122 2.881088 0.558048
v -0.335186 2.921253 0.512220
v -0.190122 2.921253 0.512220
v -0.190122 2.913243 0.504211
v -0.190122 2.921253 0.512220
v -0.406213 2.921253 0.583244
v -0.414222 2.913243 0.575237
v -0.414222 2.913243 1.292861
v -0.414222 2.913243 1.292861
v -0.299164 2.921253 1.318061
v -0.190122 2.921253 1.318061
v -0.190122 2.913243 1.310049
v -0.299164 2.921253 1.318061
v -0.370187 2.921253 1.247034
v -0.362178 2.913243 1.239025
v -0.362178 2.913243 0.629072
v -0.362178 2.913243 0.629072
v -0.414222 2.881088 0.575237
v -0.414222 2.881088 1.292861
v -0.414222 2.881088 0.575237
v -0.414222 2.881088 1.292861
v -0.190122 2.873080 1.355877
v -0.343198 2.881088 1.363886
v -0.190122 2.881088 1.363886
v -0.343198 2.881088 1.363886
v -0.190122 2.881088 1.363886
v -0.323733 2.892031 0.570495
v -0.326665 2.881088 0.567563
v -0.349730 2.892031 0.596491
v -0.352662 2.881088 0.593561
v -0.326665 2.881088 0.567563
v -0.334675 2.873080 0.559553
v -0.326665 2.881088 0.567563
v -0.352662 2.881088 0.593561
v -0.352662 2.881088 1.274538
v -0.326665 2.881088 1.300534
v -0.352662 2.881088 1.274538
v -0.352662 2.881088 1.274538
v -0.349730 2.892031 1.271605
v -0.326665 2.881088 1.300534
v -0.323733 2.892031 1.297604
v -0.396697 2.921253 0.547732
v -0.385928 2.924185 0.559422
v -0.370700 2.921253 0.521736
v -0.360401 2.924185 0.532879
v -0.396697 2.921253 0.547732
v -0.385928 2.924185 0.559422
v -0.404707 2.913243 0.539724
v -0.378710 2.913243 0.513727
v -0.404707 2.913243 0.539724
v -0.404707 2.913243 1.328374
v -0.378710 2.913243 1.354371
v -0.404707 2.913243 1.328374
v -0.407639 2.902302 1.331306
v -0.378710 2.913243 1.354371
v -0.381642 2.902302 1.357304
v -0.404707 2.913243 1.328374
v -0.407639 2.902302 1.331306
v -0.360672 2.921253 1.282547
v -0.371786 2.924185 1.292743
v -0.334676 2.921253 1.308544
v -0.346258 2.924185 1.319285
v -0.352662 2.913243 1.274538
v -0.360672 2.921253 1.282547
v -0.334676 2.921253 1.308544
v -0.326665 2.913243 1.300534
v -0.352662 2.913243 1.274538
v -0.352662 2.913243 0.593561
v -0.326665 2.913243 0.567563
v -0.352662 2.913243 0.593561
v -0.360401 2.924185 0.532879
v -0.346259 2.924185 0.548811
v -0.352662 2.913243 0.593561
v -0.349730 2.902302 0.596491
v -0.326665 2.913243 0.567563
v -0.323733 2.902302 0.570495
v -0.381642 2.892031 1.357304
v -0.381642 2.902302 1.357304
v -0.407639 2.892031 1.331306
v -0.381642 2.892031 1.357304
v -0.378710 2.881088 1.354371
v -0.404707 2.881088 1.328374
v -0.378710 2.881088 1.354371
v -0.378710 2.881088 1.354371
v -0.404707 2.881088 1.328374
v -0.346258 2.870148 1.319285
v -0.404707 2.881088 0.539724
v -0.378710 2.881088 0.513727
v -0.404707 2.881088 0.539724
v -0.407639 2.892031 0.536792
v -0.378710 2.881088 0.513727
v -0.381642 2.892031 0.510795
v -0.190122 2.902302 1.366819
v -0.190122 2.892031 1.366819
v -0.190122 2.881088 1.363886
v -0.190122 2.873080 1.355877
v -0.190122 2.870148 1.344936
v -0.190122 2.870148 1.329000
v -0.190122 2.873080 1.318061
v -0.190122 2.881088 1.310049
v -0.190122 2.892031 1.307118
v -0.190122 2.902302 1.307118
v -0.190122 2.913243 1.310049
v -0.190122 2.921253 1.318061
v -0.190122 2.924185 1.329000
v -0.190122 2.924185 1.344936
v -0.190122 2.921253 1.355877
v -0.190122 2.913243 1.363886
v -0.190122 2.924185 0.523163
v -0.190122 2.924185 0.539096
v -0.190122 2.921253 0.550038
v -0.190122 2.913243 0.558048
v -0.190122 2.902302 0.560979
v -0.190122 2.892031 0.560979
v -0.190122 2.881088 0.558048
v -0.190122 2.873080 0.550038
v -0.190122 2.870148 0.539096
v -0.190122 2.870148 0.523163
v -0.190122 2.873080 0.512220
v -0.190122 2.881088 0.504211
v -0.190122 2.892031 0.501280
v -0.190122 2.902302 0.501280
v -0.190122 2.913243 0.504211
v -0.190122 2.921253 0.512220
vn 0.0140 0.9981 -0.0602
vn -0.0537 0.9966 -0.0622
vn -0.1593 0.9411 -0.2982
vn 0.0059 0.9922 -0.1249
vn -0.0814 0.9959 -0.0407
vn -0.3110 0.9313 -0.1898
vn -0.1432 0.9897 0.0057
vn -0.4388 0.8893 -0.1285
vn -0.3966 0.9116 0.1076
vn -0.0401 0.9985 0.0361
vn -0.4253 0.9041 0.0427
vn -0.1313 0.9912 -0.0193
vn -0.2020 0.9301 0.3067
vn -0.0797 0.9952 0.0570
vn -0.1862 0.9327 0.3088
vn -0.2104 0.9771 0.0306
vn -0.0290 0.9975 0.0640
vn -0.1002 0.8983 0.4279
vn -0.8991 0.4377 -0.0128
vn -0.8203 0.3426 -0.4580
vn -0.8477 0.1812 -0.4986
vn -0.9916 0.1283 -0.0144
vn -0.4580 0.3426 -0.8203
vn -0.4986 0.1812 -0.8477
vn -0.0490 0.4732 -0.8796
vn -0.0554 0.1365 -0.9891
vn -0.5960 0.8029 0.0061
vn -0.3645 0.9086 0.2038
vn -0.0876 0.9952 0.0445
vn -0.1817 0.9833 0.0010
vn -0.2051 0.9075 0.3666
vn -0.0472 0.9952 0.0859
vn -0.0227 0.8356 0.5488
vn -0.0044 0.9894 0.1452
vn 0.8304 0.5571 -0.0109
vn 0.8052 0.3450 -0.4822
vn 0.8540 0.1896 -0.4844
vn 0.9890 0.1476 -0.0130
vn 0.4823 0.3450 -0.8052
vn 0.4844 0.1895 -0.8540
vn 0.0523 0.5560 -0.8295
vn 0.0629 0.1508 -0.9866
vn 0.4050 0.9143 0.0077
vn 0.3106 0.9323 0.1853
vn 0.0582 0.9976 0.0366
vn 0.0607 0.9982 0.0018
vn 0.3105 0.9323 0.1854
vn 0.1848 0.9331 0.3084
vn 0.0368 0.9978 0.0550
vn 0.0583 0.9976 0.0367
vn 0.0325 0.9104 0.4125
vn 0.0080 0.9980 0.0631
vn 0.1156 0.8583 -0.4999
vn -0.0098 0.9902 -0.1396
vn 0.0165 0.8519 -0.5235
vn 0.0089 0.9893 -0.1454
vn 0.3575 0.9083 -0.2174
vn 0.0914 0.9941 -0.0593
vn 0.3920 0.8973 -0.2031
vn 0.0896 0.9948 -0.0479
vn 0.1708 0.9851 0.0198
vn 0.3675 0.9271 -0.0739
vn 0.5112 0.8436 0.1641
vn 0.1150 0.9924 0.0443
vn 0.3693 0.9045 0.2133
vn 0.1758 0.9844 -0.0075
vn 0.0648 0.9937 0.0910
vn 0.2033 0.8962 0.3944
vn 0.0044 0.9895 0.1443
vn 0.0743 0.8390 0.5390
vn -0.0000 0.8712 0.4910
vn 0.1592 0.9536 0.2556
vn -0.0000 0.7072 0.7070
vn -0.0222 0.7454 0.6663
vn 0.0824 -0.2784 -0.9569
vn 0.0629 -0.1508 -0.9866
vn -0.0000 -0.1378 -0.9905
vn -0.0000 -0.2587 -0.9660
vn -0.0000 0.9659 0.2588
vn -0.0000 0.9935 0.1141
vn -0.0490 0.4733 0.8795
vn -0.0000 0.4959 0.8684
vn -0.0000 0.7070 0.7072
vn -0.0554 0.1366 0.9891
vn -0.0000 0.1364 0.9907
vn -0.0000 0.9948 0.1017
vn 0.0280 0.7207 0.6927
vn -0.0000 0.7071 0.7071
vn 0.0824 0.2784 0.9569
vn 0.0629 0.1508 0.9866
vn -0.0000 0.1378 0.9905
vn -0.0000 0.2587 0.9659
vn -0.0000 0.9933 0.1158
vn 0.2634 0.6821 0.6821
vn -0.0115 0.9288 0.3704
vn -0.0490 -0.4731 -0.8797
vn -0.0554 -0.1365 -0.9891
vn -0.0000 -0.1363 -0.9907
vn -0.0000 -0.4957 -0.8685
vn -0.1817 0.9834 -0.0010
vn 0.0608 0.9982 -0.0018
vn -0.9916 -0.1282 0.0144
vn -0.9916 0.1283 0.0144
vn -0.9916 -0.1282 -0.0144
vn 0.9890 -0.1476 -0.0130
vn 0.9890 -0.1476 0.0130
vn 0.9890 0.1476 0.0130
vn -0.0000 0.9933 -0.1153
vn 0.1015 0.9948 -0.0000
vn -0.0000 0.1378 -0.9905
vn -0.0000 0.9948 -0.1016
vn 0.0080 0.9980 -0.0631
vn -0.0554 -0.1366 0.9891
vn -0.0000 -0.1364 0.9907
vn 0.0629 -0.1508 0.9866
vn -0.0000 -0.1378 0.9905
vn -0.0000 0.9946 -0.1037
vn -0.0000 0.1363 -0.9907
vn -0.0000 0.9948 0.1015
vn -0.0000 0.9935 -0.1141
vn -0.0044 0.9894 -0.1452
vn 0.9645 -0.2634 -0.0187
vn 0.9645 -0.2634 0.0187
vn -0.6572 0.7537 -0.0055
vn -0.6574 0.7535 0.0049
vn 0.2467 0.9361 -0.2508
vn 0.0824 -0.2784 0.9569
vn -0.0000 -0.2587 0.9660
vn -0.0218 0.7454 -0.6663
vn 0.2706 0.6808 -0.6807
vn -0.0863 0.5220 -0.8486
vn -0.0000 0.7072 -0.7071
vn -0.0227 0.8357 -0.5488
vn -0.0000 0.9659 -0.2588
vn -0.0000 0.4958 -0.8684
vn -0.0000 0.7070 -0.7072
vn -0.5960 0.8029 -0.0061
vn -0.8989 0.4379 -0.0128
vn -0.8989 0.4379 0.0128
vn -0.8991 0.4376 0.0128
vn 0.0325 0.9104 -0.4124
vn -0.0000 0.8722 -0.4892
vn -0.0000 0.5062 -0.8624
vn 0.0326 0.9103 -0.4127
vn -0.0000 0.8720 -0.4894
vn 0.4050 0.9143 -0.0077
vn 0.8302 0.5574 -0.0109
vn 0.8302 0.5574 0.0109
vn 0.8304 0.5571 0.0109
vn -0.9652 -0.2612 -0.0095
vn -0.9652 -0.2612 0.0095
vn 0.6157 0.7878 0.0154
vn 0.6151 0.7883 -0.0139
vn -0.0000 0.8626 -0.5059
vn -0.0385 -0.2684 0.9625
vn -0.0000 -0.2589 0.9659
vn 0.0587 0.7746 -0.6298
vn -0.0000 0.7071 -0.7071
vn 0.4844 -0.1895 0.8540
vn 0.4823 -0.3449 0.8052
vn 0.8540 -0.1895 0.4845
vn 0.8053 -0.3449 0.4822
vn -0.3548 0.8695 -0.3436
vn -0.1916 0.6723 -0.7151
vn -0.5013 0.7053 -0.5013
vn -0.5254 0.8024 -0.2829
vn -0.7151 0.6722 0.1916
vn -0.2829 0.8024 0.5254
vn -0.5013 0.7053 0.5013
vn 0.8052 -0.3450 -0.4823
vn 0.8540 -0.1896 -0.4844
vn 0.4823 -0.3449 -0.8053
vn 0.4844 -0.1895 -0.8540
vn -0.3646 0.9086 -0.2037
vn -0.0876 0.9952 -0.0445
vn -0.2051 0.9075 -0.3667
vn -0.0472 0.9952 -0.0860
vn -0.3644 0.9087 -0.2038
vn -0.0876 0.9952 -0.0446
vn -0.4957 0.8097 -0.3141
vn -0.3142 0.8097 -0.4956
vn -0.4956 0.8097 -0.3143
vn -0.4956 0.8097 0.3142
vn -0.3142 0.8097 0.4956
vn -0.8204 0.3426 0.4579
vn -0.8478 0.1811 0.4985
vn -0.4580 0.3426 0.8203
vn -0.4986 0.1812 0.8477
vn -0.8202 0.3426 0.4581
vn -0.8476 0.1813 0.4987
vn 0.3106 0.9323 -0.1854
vn 0.0582 0.9976 -0.0366
vn 0.1848 0.9332 -0.3083
vn 0.0368 0.9978 -0.0550
vn 0.5238 0.8043 -0.2806
vn 0.3106 0.9323 -0.1855
vn 0.1849 0.9331 -0.3085
vn 0.2807 0.8044 -0.5237
vn 0.5236 0.8044 -0.2808
vn 0.5238 0.8043 0.2806
vn 0.2807 0.8043 0.5237
vn 0.5236 0.8044 0.2808
vn -0.0471 0.9952 -0.0859
vn 0.8052 0.3450 0.4824
vn 0.8540 0.1895 0.4845
vn 0.4822 0.3449 0.8053
vn 0.4844 0.1895 0.8540
vn -0.4984 -0.1812 0.8478
vn -0.4987 0.1811 0.8476
vn -0.8477 -0.1812 0.4986
vn -0.4987 -0.1812 0.8476
vn -0.4579 -0.3425 0.8204
vn -0.8204 -0.3425 0.4578
vn -0.4581 -0.3426 0.8202
vn 0.1222 0.8815 -0.4561
vn 0.3308 0.8838 -0.3308
vn 0.4980 0.8081 -0.3145
vn 0.0389 0.9978 0.0534
vn 0.4980 0.8081 0.3145
vn 0.3145 0.8081 0.4980
vn -0.8203 -0.3426 -0.4580
vn -0.8477 -0.1812 -0.4986
vn -0.4579 -0.3426 -0.8203
vn -0.4986 -0.1812 -0.8477
vn -1.0000 -0.0000 -0.0000
s 1
usemtl M_polySurface205_lambert1_0_0
f 1//1 3//2 2//3
f 1//1 4//4 3//2
f 2//3 6//5 5//6
f 2//3 3//2 6//5
f 5//6 8//7 7//8
f 5//6 6//5 8//7
f 9//9 11//10 10//11
f 9//9 12//12 11//10
f 13//13 15//14 14//15
f 13//13 16//16 15//14
f 14//15 18//17 17//18
f 14//15 15//14 18//17
f 19//19 20//20 21//21
f 19//19 21//21 22//22
f 20//20 23//23 24//24
f 20//20 24//24 21//21
f 23//23 25//25 26//26
f 23//23 26//26 24//24
f 27//27 28//28 29//29
f 27//27 29//29 30//30
f 28//28 31//31 32//32
f 28//28 32//32 29//29
f 31//31 33//33 34//34
f 31//31 34//34 32//32
f 35//35 36//36 37//37
f 35//35 37//37 38//38
f 36//36 39//39 40//40
f 36//36 40//40 37//37
f 39//39 41//41 42//42
f 39//39 42//42 40//40
f 43//43 44//44 45//45
f 43//43 45//45 46//46
f 47//47 48//48 49//49
f 47//47 49//49 50//50
f 48//48 51//51 52//52
f 48//48 52//52 49//49
f 53//53 55//54 54//55
f 53//53 56//56 55//54
f 57//57 59//58 58//59
f 57//57 60//60 59//58
f 58//59 62//61 61//62
f 58//59 59//58 62//61
f 63//63 65//64 64//65
f 63//63 66//66 65//64
f 64//65 68//67 67//68
f 64//65 65//64 68//67
f 67//68 70//69 69//70
f 67//68 68//67 70//69
f 18//17 71//71 17//18
f 18//17 72//72 71//71
f 17//18 74//73 73//74
f 17//18 71//71 74//73
f 75//75 76//76 77//77
f 75//75 77//77 78//78
f 34//34 33//33 79//79
f 34//34 79//79 80//80
f 33//33 81//81 82//82
f 33//33 82//82 83//83
f 81//81 84//84 85//85
f 81//81 85//85 82//82
f 52//52 51//51 86//79
f 52//52 86//79 87//86
f 51//51 88//87 89//88
f 51//51 89//88 90//88
f 91//89 92//90 93//91
f 91//89 93//91 94//92
f 70//69 95//79 69//70
f 70//69 96//93 95//79
f 69//70 98//94 97//95
f 69//70 99//88 98//94
f 100//96 101//97 102//98
f 100//96 102//98 98//99
f 103//100 30//30 104//101
f 103//100 104//101 46//46
f 8//7 62//61 12//12
f 8//7 66//66 62//61
f 105//102 106//103 22//22
f 105//102 22//22 107//104
f 38//38 108//105 109//106
f 38//38 109//106 110//107
f 18//17 112//108 111//109
f 18//17 56//56 112//108
f 76//76 42//42 113//110
f 76//76 113//110 77//77
f 34//34 80//80 114//111
f 34//34 114//111 115//112
f 116//113 117//114 85//85
f 116//113 85//85 84//84
f 92//90 118//115 119//116
f 92//90 119//116 93//91
f 70//69 120//117 96//93
f 70//69 4//4 120//117
f 26//26 121//118 102//98
f 26//26 102//98 101//97
f 52//52 122//119 123//120
f 52//52 123//120 124//121
f 9//9 8//7 12//12
f 9//9 7//8 8//7
f 108//105 125//122 126//123
f 108//105 126//123 109//106
f 127//124 7//8 9//9
f 127//124 128//125 7//8
f 1//1 120//117 4//4
f 1//1 129//126 120//117
f 118//115 130//127 131//128
f 118//115 131//128 119//116
f 132//129 129//130 133//131
f 132//129 134//132 129//130
f 135//133 124//121 123//120
f 135//133 123//120 136//134
f 26//26 25//25 137//135
f 26//26 137//135 121//118
f 25//25 135//133 138//136
f 25//25 138//136 137//135
f 103//100 139//137 27//27
f 103//100 27//27 30//30
f 139//137 140//138 141//139
f 139//137 141//139 27//27
f 19//19 22//22 106//103
f 19//19 106//103 142//140
f 143//141 115//112 114//111
f 143//141 114//111 144//142
f 42//42 41//41 145//143
f 42//42 145//143 113//110
f 41//41 146//144 144//145
f 41//41 144//145 145//143
f 104//101 147//146 43//43
f 104//101 43//43 46//46
f 147//146 148//147 149//148
f 147//146 149//148 43//43
f 35//35 38//38 110//107
f 35//35 110//107 150//149
f 63//63 62//61 66//66
f 63//63 61//62 62//61
f 107//104 151//150 152//151
f 107//104 152//151 105//102
f 153//152 61//62 63//63
f 153//152 154//153 61//62
f 53//53 112//108 56//56
f 53//53 155//154 112//108
f 116//113 156//155 157//156
f 116//113 157//156 117//114
f 158//157 155//154 53//53
f 158//157 159//158 155//154
f 118//115 160//159 161//160
f 118//115 161//160 130//127
f 160//159 162//161 163//162
f 160//159 163//162 161//160
f 162//161 109//106 126//123
f 162//161 126//123 163//162
f 132//129 165//163 164//164
f 132//129 133//131 165//163
f 166//165 5//6 167//166
f 166//165 2//3 5//6
f 167//166 7//8 128//125
f 167//166 5//6 7//8
f 10//11 127//124 9//9
f 10//11 168//167 127//124
f 17//18 169//168 14//15
f 17//18 73//74 169//168
f 14//15 170//169 13//13
f 14//15 169//168 170//169
f 171//170 125//122 108//105
f 171//170 108//105 172//171
f 75//75 173//172 174//173
f 75//75 174//173 76//76
f 173//172 171//170 172//171
f 173//172 172//171 174//173
f 175//174 139//137 103//100
f 175//174 103//100 176//175
f 135//133 177//176 178//177
f 135//133 178//177 124//121
f 177//176 179//178 180//179
f 177//176 180//179 178//177
f 139//137 175//174 181//180
f 139//137 181//180 140//138
f 179//178 177//176 182//181
f 179//178 182//181 183//182
f 177//176 135//133 25//25
f 177//176 25//25 182//181
f 28//28 27//27 141//139
f 28//28 141//139 184//183
f 33//33 31//31 185//184
f 33//33 185//184 81//81
f 31//31 28//28 184//183
f 31//31 184//183 185//184
f 186//185 142//140 106//103
f 186//185 106//103 187//186
f 81//81 188//187 189//188
f 81//81 189//188 84//84
f 188//187 190//189 191//190
f 188//187 191//190 189//188
f 192//191 147//146 104//101
f 192//191 104//101 193//192
f 143//141 194//193 195//194
f 143//141 195//194 115//112
f 194//193 192//191 193//192
f 194//193 193//192 195//194
f 30//30 29//29 193//192
f 30//30 193//192 104//101
f 29//29 32//32 195//194
f 29//29 195//194 193//192
f 32//32 34//34 115//112
f 32//32 115//112 195//194
f 147//146 192//191 196//195
f 147//146 196//195 148//147
f 197//196 198//197 199//198
f 197//196 199//198 200//199
f 198//197 146//144 41//41
f 198//197 41//41 199//198
f 76//76 174//173 40//40
f 76//76 40//40 42//42
f 174//173 172//171 37//37
f 174//173 37//37 40//40
f 172//171 108//105 38//38
f 172//171 38//38 37//37
f 44//44 43//43 149//148
f 44//44 149//148 201//200
f 51//51 48//48 202//201
f 51//51 202//201 88//87
f 48//48 47//47 203//202
f 48//48 203//202 202//201
f 124//121 178//177 49//49
f 124//121 49//49 52//52
f 204//203 176//175 45//45
f 204//203 45//45 205//49
f 176//175 103//100 46//46
f 176//175 46//46 45//45
f 206//204 150//149 110//107
f 206//204 110//107 207//205
f 91//89 208//206 209//207
f 91//89 209//207 92//90
f 208//206 206//204 207//205
f 208//206 207//205 209//207
f 109//106 162//161 207//205
f 109//106 207//205 110//107
f 162//161 160//159 209//207
f 162//161 209//207 207//205
f 160//159 118//115 92//90
f 160//159 92//90 209//207
f 84//84 189//188 210//208
f 84//84 210//208 116//113
f 211//209 187//186 212//210
f 211//209 212//210 213//211
f 187//186 106//103 105//102
f 187//186 105//102 212//210
f 116//113 210//208 214//212
f 116//113 214//212 156//155
f 213//211 212//210 215//213
f 213//211 215//213 216//214
f 212//210 105//102 152//151
f 212//210 152//151 215//213
f 158//157 54//55 217//215
f 158//157 53//53 54//55
f 217//216 58//59 218//217
f 217//216 57//57 58//59
f 218//217 61//62 154//153
f 218//217 58//59 61//62
f 12//12 59//58 11//10
f 12//12 62//61 59//58
f 11//10 60//60 219//218
f 11//10 59//58 60//60
f 15//14 56//56 18//17
f 15//14 55//54 56//56
f 64//65 153//152 63//63
f 64//65 220//219 153//152
f 69//70 221//220 67//68
f 69//70 97//95 221//220
f 67//68 220//219 64//65
f 67//68 221//220 220//219
f 4//4 68//67 3//2
f 4//4 70//69 68//67
f 3//2 65//64 6//5
f 3//2 68//67 65//64
f 6//5 66//66 8//7
f 6//5 65//64 66//66
f 222//221 151//150 107//104
f 222//221 107//104 223//222
f 100//96 224//223 225//224
f 100//96 225//224 101//97
f 224//223 222//221 223//222
f 224//223 223//222 225//224
f 22//22 21//21 223//222
f 22//22 223//222 107//104
f 21//21 24//24 225//224
f 21//21 225//224 223//222
f 24//24 26//26 101//97
f 24//24 101//97 225//224
f 232//225 231//225 230//225
f 230//225 229//225 232//225
f 229//225 233//225 232//225
f 229//225 228//225 233//225
f 228//225 234//225 233//225
f 228//225 227//225 234//225
f 227//225 235//225 234//225
f 227//225 226//225 235//225
f 226//225 236//225 235//225
f 226//225 241//225 236//225
f 241//225 237//225 236//225
f 241//225 240//225 237//225
f 240//225 238//225 237//225
f 240//225 239//225 238//225
f 252//225 251//225 250//225
f 250//225 249//225 252//225
f 249//225 253//225 252//225
f 249//225 248//225 253//225
f 248//225 254//225 253//225
f 248//225 247//225 254//225
f 247//225 255//225 254//225
f 247//225 246//225 255//225
f 246//225 256//225 255//225
f 246//225 245//225 256//225
f 245//225 257//225 256//225
f 245//225 244//225 257//225
f 244//225 242//225 257//225
f 244//225 243//225 242//225
