# Blender 4.4.1
# www.blender.org
mtllib SM_polySurface258_lambert1_0_0.mtl
o SM_polySurface258_lambert1_0_0
v 3.494592 1.252989 2.042520
v 3.719136 1.252989 2.042520
v 3.719136 1.659125 2.042520
v 3.494592 1.659125 2.042520
v 3.494592 1.659125 2.042520
v 3.719136 1.659125 2.042520
v 3.719136 1.659125 -5.414098
v 3.494592 1.659125 -5.414098
v 3.494592 1.659125 -5.414098
v 3.719136 1.659125 -5.414098
v 3.719136 1.252989 -5.414098
v 3.494592 1.252989 -5.414098
v 3.494592 1.252989 -5.414098
v 3.719136 1.252989 -5.414098
v 3.719136 1.252989 2.042520
v 3.494592 1.252989 2.042520
v 3.719136 1.252989 2.042520
v 3.719136 1.252989 -5.414098
v 3.719136 1.659125 -5.414098
v 3.719136 1.659125 2.042520
v 3.494592 1.252989 -5.414098
v 3.494592 1.252989 2.042520
v 3.494592 1.659125 2.042520
v 3.494592 1.659125 -5.414098
vn -0.0000 -0.0000 1.0000
vn -0.0000 1.0000 -0.0000
vn -0.0000 -0.0000 -1.0000
vn 1.0000 -0.0000 -0.0000
s 1
usemtl M_polySurface258_lambert1_0_0
f 1//1 2//1 3//1
f 1//1 3//1 4//1
f 5//2 6//2 7//2
f 5//2 7//2 8//2
f 9//3 10//3 11//3
f 9//3 11//3 12//3
f 13//2 15//2 14//2
f 13//2 16//2 15//2
f 17//4 18//4 19//4
f 17//4 19//4 20//4
f 21//4 23//4 22//4
f 21//4 24//4 23//4
