# Blender 4.4.1
# www.blender.org
mtllib SM_polySurface277_lambert1_0_0.mtl
o SM_polySurface277_lambert1_0_0
v 4.246825 10.871725 -4.732309
v 4.242122 10.880956 -4.732309
v 4.273615 10.891189 -4.732309
v 4.254151 10.864399 -4.732309
v 4.263382 10.859695 -4.732309
v 4.273615 10.858075 -4.732309
v 4.283848 10.859695 -4.732309
v 4.293078 10.864399 -4.732309
v 4.300405 10.871725 -4.732309
v 4.305108 10.880956 -4.732309
v 4.306726 10.891189 -4.732309
v 4.305108 10.901422 -4.732309
v 4.300405 10.910652 -4.732309
v 4.293078 10.917978 -4.732309
v 4.283848 10.922682 -4.732309
v 4.273615 10.924300 -4.732309
v 4.263382 10.922682 -4.732309
v 4.254151 10.917978 -4.732309
v 4.246825 10.910652 -4.732309
v 4.242122 10.901422 -4.732309
v 4.240501 10.891189 -4.732309
v 4.262335 10.887524 -4.709487
v 4.264021 10.884219 -4.709487
v 4.273615 10.891189 -4.709487
v 4.266645 10.881595 -4.709487
v 4.269950 10.879909 -4.709487
v 4.273615 10.891189 -4.709487
v 4.273615 10.879331 -4.709487
v 4.273615 10.891189 -4.709487
v 4.277279 10.879909 -4.709487
v 4.273615 10.891189 -4.709487
v 4.280582 10.881595 -4.709487
v 4.273615 10.891189 -4.709487
v 4.283209 10.884219 -4.709487
v 4.273615 10.891189 -4.709487
v 4.284893 10.887524 -4.709487
v 4.285473 10.891189 -4.709487
v 4.284893 10.894852 -4.709487
v 4.283209 10.898156 -4.709487
v 4.280582 10.900783 -4.709487
v 4.273615 10.891189 -4.709487
v 4.277279 10.902467 -4.709487
v 4.273615 10.891189 -4.709487
v 4.273615 10.903047 -4.709487
v 4.273615 10.891189 -4.709487
v 4.269950 10.902467 -4.709487
v 4.273615 10.891189 -4.709487
v 4.266645 10.900783 -4.709487
v 4.273615 10.891189 -4.709487
v 4.264021 10.898156 -4.709487
v 4.262335 10.894852 -4.709487
v 4.261757 10.891189 -4.709487
v 4.242122 10.880956 -4.732309
v 4.246825 10.871725 -4.732309
v 4.246825 10.871725 -4.730482
v 4.242122 10.880956 -4.730482
v 4.254151 10.864399 -4.732309
v 4.254151 10.864399 -4.730482
v 4.263382 10.859695 -4.732309
v 4.263382 10.859695 -4.730482
v 4.273615 10.858075 -4.732309
v 4.273615 10.858075 -4.730482
v 4.283848 10.859695 -4.732309
v 4.283848 10.859695 -4.730482
v 4.293078 10.864399 -4.732309
v 4.293078 10.864399 -4.730482
v 4.300405 10.871725 -4.732309
v 4.300405 10.871725 -4.730482
v 4.305108 10.880956 -4.732309
v 4.305108 10.880956 -4.730482
v 4.306726 10.891189 -4.732309
v 4.306726 10.891189 -4.730482
v 4.305108 10.901422 -4.732309
v 4.305108 10.901422 -4.730482
v 4.300405 10.910652 -4.732309
v 4.300405 10.910652 -4.730482
v 4.293078 10.917978 -4.732309
v 4.293078 10.917978 -4.730482
v 4.283848 10.922682 -4.732309
v 4.283848 10.922682 -4.730482
v 4.273615 10.924300 -4.732309
v 4.273615 10.924300 -4.730482
v 4.263382 10.922682 -4.732309
v 4.263382 10.922682 -4.730482
v 4.254151 10.917978 -4.732309
v 4.254151 10.917978 -4.730482
v 4.246825 10.910652 -4.732309
v 4.246825 10.910652 -4.730482
v 4.242122 10.901422 -4.732309
v 4.242122 10.901422 -4.730482
v 4.240501 10.891189 -4.732309
v 4.240501 10.891189 -4.730482
v 4.242122 10.880956 -4.732309
v 4.242122 10.880956 -4.730482
v 4.254601 10.885008 -4.711087
v 4.253623 10.891189 -4.711087
v 4.248042 10.882879 -4.715637
v 4.246727 10.891189 -4.715637
v 4.243661 10.881455 -4.722447
v 4.242120 10.891189 -4.722447
v 4.248042 10.882879 -4.715637
v 4.246727 10.891189 -4.715637
v 4.257439 10.879436 -4.711087
v 4.251862 10.875384 -4.715637
v 4.248042 10.882879 -4.715637
v 4.243661 10.881455 -4.722447
v 4.248135 10.872674 -4.722447
v 4.251862 10.875384 -4.715637
v 4.261862 10.875012 -4.711087
v 4.257811 10.869435 -4.715637
v 4.255100 10.865708 -4.722447
v 4.257811 10.869435 -4.715637
v 4.267434 10.872174 -4.711087
v 4.265306 10.865616 -4.715637
v 4.263882 10.861235 -4.722447
v 4.265306 10.865616 -4.715637
v 4.273615 10.871197 -4.711087
v 4.273615 10.864301 -4.715637
v 4.273615 10.859694 -4.722447
v 4.273615 10.864301 -4.715637
v 4.279794 10.872174 -4.711087
v 4.281922 10.865616 -4.715637
v 4.283346 10.861235 -4.722447
v 4.281922 10.865616 -4.715637
v 4.285366 10.875012 -4.711087
v 4.289419 10.869435 -4.715637
v 4.292128 10.865708 -4.722447
v 4.289419 10.869435 -4.715637
v 4.289789 10.879436 -4.711087
v 4.295368 10.875384 -4.715637
v 4.299095 10.872674 -4.722447
v 4.295368 10.875384 -4.715637
v 4.292629 10.885008 -4.711087
v 4.299186 10.882879 -4.715637
v 4.303569 10.881455 -4.722447
v 4.299186 10.882879 -4.715637
v 4.293607 10.891189 -4.711087
v 4.300503 10.891189 -4.715637
v 4.305110 10.891189 -4.722447
v 4.300503 10.891189 -4.715637
v 4.292629 10.897367 -4.711087
v 4.299186 10.899496 -4.715637
v 4.303569 10.900920 -4.722447
v 4.299186 10.899496 -4.715637
v 4.289789 10.902940 -4.711087
v 4.295368 10.906993 -4.715637
v 4.299095 10.909701 -4.722447
v 4.295368 10.906993 -4.715637
v 4.285366 10.907363 -4.711087
v 4.289419 10.912942 -4.715637
v 4.292128 10.916669 -4.722447
v 4.289419 10.912942 -4.715637
v 4.279794 10.910203 -4.711087
v 4.281922 10.916759 -4.715637
v 4.283346 10.921143 -4.722447
v 4.281922 10.916759 -4.715637
v 4.273615 10.911180 -4.711087
v 4.273615 10.918077 -4.715637
v 4.273615 10.922684 -4.722447
v 4.273615 10.918077 -4.715637
v 4.267434 10.910203 -4.711087
v 4.265306 10.916759 -4.715637
v 4.263882 10.921143 -4.722447
v 4.265306 10.916759 -4.715637
v 4.261862 10.907363 -4.711087
v 4.257811 10.912942 -4.715637
v 4.255100 10.916669 -4.722447
v 4.257811 10.912942 -4.715637
v 4.257439 10.902940 -4.711087
v 4.251862 10.906993 -4.715637
v 4.248135 10.909701 -4.722447
v 4.251862 10.906993 -4.715637
v 4.254601 10.897367 -4.711087
v 4.248042 10.899496 -4.715637
v 4.243661 10.900920 -4.722447
v 4.248042 10.899496 -4.715637
vn -0.0000 -0.0000 -1.0000
vn -0.1283 -0.0416 0.9909
vn -0.1090 -0.0792 0.9909
vn -0.0000 -0.0000 1.0000
vn -0.0793 -0.1090 0.9909
vn -0.0417 -0.1283 0.9909
vn -0.0002 -0.0000 1.0000
vn -0.0000 -0.1348 0.9909
vn 0.0417 -0.1283 0.9909
vn 0.0792 -0.1090 0.9909
vn 0.0002 -0.0000 1.0000
vn 0.1090 -0.0792 0.9909
vn 0.1282 -0.0416 0.9909
vn 0.1349 -0.0000 0.9909
vn 0.1283 0.0416 0.9909
vn 0.1090 0.0793 0.9909
vn 0.0793 0.1090 0.9909
vn 0.0417 0.1282 0.9909
vn -0.0000 0.1349 0.9909
vn -0.0416 0.1282 0.9909
vn -0.0793 0.1090 0.9909
vn -0.1090 0.0792 0.9909
vn -0.1283 0.0417 0.9909
vn -0.1349 -0.0000 0.9909
vn -0.9510 -0.3091 -0.0000
vn -0.8090 -0.5878 -0.0000
vn -0.7985 -0.5802 0.1605
vn -0.9387 -0.3051 0.1605
vn -0.5878 -0.8090 -0.0000
vn -0.5801 -0.7985 0.1605
vn -0.3090 -0.9511 -0.0000
vn -0.3050 -0.9387 0.1606
vn -0.0000 -1.0000 -0.0000
vn -0.0000 -0.9870 0.1606
vn 0.3090 -0.9511 -0.0000
vn 0.3050 -0.9387 0.1607
vn 0.5878 -0.8090 -0.0000
vn 0.5801 -0.7985 0.1606
vn 0.8090 -0.5878 -0.0000
vn 0.7985 -0.5802 0.1605
vn 0.9511 -0.3090 -0.0000
vn 0.9388 -0.3049 0.1605
vn 1.0000 -0.0000 -0.0000
vn 0.9870 -0.0000 0.1605
vn 0.9511 0.3089 -0.0000
vn 0.9387 0.3050 0.1605
vn 0.8090 0.5878 -0.0000
vn 0.7985 0.5802 0.1606
vn 0.5878 0.8090 -0.0000
vn 0.5802 0.7985 0.1607
vn 0.3089 0.9511 -0.0000
vn 0.3050 0.9387 0.1606
vn -0.0000 1.0000 -0.0000
vn -0.0000 0.9870 0.1604
vn -0.3089 0.9511 -0.0000
vn -0.3049 0.9387 0.1605
vn -0.5878 0.8090 -0.0000
vn -0.5802 0.7985 0.1606
vn -0.8090 0.5878 -0.0000
vn -0.7985 0.5801 0.1605
vn -0.9510 0.3091 -0.0000
vn -0.9387 0.3050 0.1606
vn -1.0000 -0.0000 -0.0000
vn -0.9870 -0.0000 0.1606
vn -0.9511 -0.3089 -0.0000
vn -0.9388 -0.3049 0.1605
vn -0.4077 -0.1324 0.9035
vn -0.4287 -0.0000 0.9035
vn -0.6918 -0.2247 0.6862
vn -0.7274 -0.0000 0.6862
vn -0.8835 -0.2869 0.3702
vn -0.9290 -0.0000 0.3702
vn -0.6920 -0.2247 0.6860
vn -0.7276 -0.0000 0.6860
vn -0.3468 -0.2520 0.9035
vn -0.5885 -0.4275 0.6862
vn -0.6920 -0.2249 0.6860
vn -0.8834 -0.2872 0.3702
vn -0.7515 -0.5460 0.3702
vn -0.5886 -0.4276 0.6860
vn -0.2520 -0.3468 0.9034
vn -0.4276 -0.5885 0.6862
vn -0.5460 -0.7515 0.3702
vn -0.4277 -0.5887 0.6860
vn -0.1324 -0.4077 0.9035
vn -0.2247 -0.6919 0.6862
vn -0.2870 -0.8835 0.3702
vn -0.2248 -0.6920 0.6860
vn -0.0000 -0.4286 0.9035
vn -0.0000 -0.7274 0.6862
vn -0.0000 -0.9289 0.3702
vn -0.0000 -0.7276 0.6860
vn 0.1324 -0.4077 0.9035
vn 0.2247 -0.6918 0.6862
vn 0.2870 -0.8835 0.3702
vn 0.2248 -0.6920 0.6860
vn 0.2520 -0.3468 0.9035
vn 0.4276 -0.5885 0.6862
vn 0.5460 -0.7515 0.3703
vn 0.4277 -0.5887 0.6860
vn 0.3468 -0.2520 0.9035
vn 0.5885 -0.4275 0.6862
vn 0.7515 -0.5461 0.3702
vn 0.5887 -0.4277 0.6860
vn 0.4077 -0.1324 0.9035
vn 0.6918 -0.2247 0.6862
vn 0.8835 -0.2870 0.3702
vn 0.6920 -0.2248 0.6860
vn 0.4287 -0.0000 0.9035
vn 0.7274 -0.0000 0.6862
vn 0.9289 -0.0000 0.3702
vn 0.7276 -0.0000 0.6860
vn 0.4077 0.1325 0.9034
vn 0.6918 0.2248 0.6862
vn 0.8835 0.2870 0.3703
vn 0.6920 0.2248 0.6860
vn 0.3468 0.2520 0.9035
vn 0.5885 0.4275 0.6862
vn 0.7515 0.5460 0.3703
vn 0.5886 0.4276 0.6860
vn 0.2520 0.3468 0.9035
vn 0.4275 0.5885 0.6862
vn 0.5460 0.7515 0.3703
vn 0.4276 0.5887 0.6860
vn 0.1325 0.4077 0.9034
vn 0.2247 0.6918 0.6862
vn 0.2870 0.8835 0.3703
vn 0.2248 0.6920 0.6860
vn -0.0000 0.4287 0.9035
vn -0.0000 0.7274 0.6862
vn -0.0000 0.9289 0.3702
vn -0.0000 0.7276 0.6860
vn -0.1324 0.4078 0.9034
vn -0.2247 0.6918 0.6862
vn -0.2870 0.8835 0.3703
vn -0.2248 0.6920 0.6860
vn -0.2520 0.3468 0.9035
vn -0.4275 0.5885 0.6862
vn -0.5460 0.7515 0.3703
vn -0.4277 0.5886 0.6860
vn -0.3468 0.2520 0.9035
vn -0.5885 0.4275 0.6862
vn -0.7515 0.5460 0.3703
vn -0.5887 0.4276 0.6860
vn -0.4077 0.1324 0.9034
vn -0.6919 0.2247 0.6862
vn -0.8835 0.2870 0.3702
vn -0.6920 0.2248 0.6860
s 1
usemtl M_polySurface277_lambert1_0_0
f 1//1 2//1 3//1
f 4//1 1//1 3//1
f 5//1 4//1 3//1
f 6//1 5//1 3//1
f 7//1 6//1 3//1
f 8//1 7//1 3//1
f 9//1 8//1 3//1
f 10//1 9//1 3//1
f 11//1 10//1 3//1
f 12//1 11//1 3//1
f 13//1 12//1 3//1
f 14//1 13//1 3//1
f 15//1 14//1 3//1
f 16//1 15//1 3//1
f 17//1 16//1 3//1
f 18//1 17//1 3//1
f 19//1 18//1 3//1
f 20//1 19//1 3//1
f 21//1 20//1 3//1
f 2//1 21//1 3//1
f 22//2 23//3 24//4
f 23//3 25//5 24//4
f 25//5 26//6 27//7
f 26//6 28//8 29//4
f 28//8 30//9 31//4
f 30//9 32//10 33//11
f 32//10 34//12 35//7
f 34//12 36//13 24//4
f 36//13 37//14 24//4
f 37//14 38//15 24//4
f 38//15 39//16 24//4
f 39//16 40//17 41//4
f 40//17 42//18 43//4
f 42//18 44//19 45//4
f 44//19 46//20 47//4
f 46//20 48//21 49//4
f 48//21 50//22 24//4
f 50//22 51//23 24//4
f 51//23 52//24 24//4
f 52//24 22//2 24//4
f 53//25 54//26 55//27
f 53//25 55//27 56//28
f 54//26 57//29 58//30
f 54//26 58//30 55//27
f 57//29 59//31 60//32
f 57//29 60//32 58//30
f 59//31 61//33 62//34
f 59//31 62//34 60//32
f 61//33 63//35 64//36
f 61//33 64//36 62//34
f 63//35 65//37 66//38
f 63//35 66//38 64//36
f 65//37 67//39 68//40
f 65//37 68//40 66//38
f 67//39 69//41 70//42
f 67//39 70//42 68//40
f 69//41 71//43 72//44
f 69//41 72//44 70//42
f 71//43 73//45 74//46
f 71//43 74//46 72//44
f 73//45 75//47 76//48
f 73//45 76//48 74//46
f 75//47 77//49 78//50
f 75//47 78//50 76//48
f 77//49 79//51 80//52
f 77//49 80//52 78//50
f 79//51 81//53 82//54
f 79//51 82//54 80//52
f 81//53 83//55 84//56
f 81//53 84//56 82//54
f 83//55 85//57 86//58
f 83//55 86//58 84//56
f 85//57 87//59 88//60
f 85//57 88//60 86//58
f 87//59 89//61 90//62
f 87//59 90//62 88//60
f 89//61 91//63 92//64
f 89//61 92//64 90//62
f 91//63 93//65 94//66
f 91//63 94//66 92//64
f 95//67 22//2 52//24
f 95//67 52//24 96//68
f 97//69 95//67 96//68
f 97//69 96//68 98//70
f 94//66 99//71 100//72
f 94//66 100//72 92//64
f 99//71 101//73 102//74
f 99//71 102//74 100//72
f 22//2 95//67 103//75
f 22//2 103//75 23//3
f 95//67 97//69 104//76
f 95//67 104//76 103//75
f 105//77 106//78 107//79
f 105//77 107//79 108//80
f 106//78 56//28 55//27
f 106//78 55//27 107//79
f 23//3 103//75 109//81
f 23//3 109//81 25//5
f 103//75 104//76 110//82
f 103//75 110//82 109//81
f 108//80 107//79 111//83
f 108//80 111//83 112//84
f 107//79 55//27 58//30
f 107//79 58//30 111//83
f 25//5 109//81 113//85
f 25//5 113//85 26//6
f 109//81 110//82 114//86
f 109//81 114//86 113//85
f 112//84 111//83 115//87
f 112//84 115//87 116//88
f 111//83 58//30 60//32
f 111//83 60//32 115//87
f 26//6 113//85 117//89
f 26//6 117//89 28//8
f 113//85 114//86 118//90
f 113//85 118//90 117//89
f 116//88 115//87 119//91
f 116//88 119//91 120//92
f 115//87 60//32 62//34
f 115//87 62//34 119//91
f 28//8 117//89 121//93
f 28//8 121//93 30//9
f 117//89 118//90 122//94
f 117//89 122//94 121//93
f 120//92 119//91 123//95
f 120//92 123//95 124//96
f 119//91 62//34 64//36
f 119//91 64//36 123//95
f 30//9 121//93 125//97
f 30//9 125//97 32//10
f 121//93 122//94 126//98
f 121//93 126//98 125//97
f 124//96 123//95 127//99
f 124//96 127//99 128//100
f 123//95 64//36 66//38
f 123//95 66//38 127//99
f 32//10 125//97 129//101
f 32//10 129//101 34//12
f 125//97 126//98 130//102
f 125//97 130//102 129//101
f 128//100 127//99 131//103
f 128//100 131//103 132//104
f 127//99 66//38 68//40
f 127//99 68//40 131//103
f 34//12 129//101 133//105
f 34//12 133//105 36//13
f 129//101 130//102 134//106
f 129//101 134//106 133//105
f 132//104 131//103 135//107
f 132//104 135//107 136//108
f 131//103 68//40 70//42
f 131//103 70//42 135//107
f 36//13 133//105 137//109
f 36//13 137//109 37//14
f 133//105 134//106 138//110
f 133//105 138//110 137//109
f 136//108 135//107 139//111
f 136//108 139//111 140//112
f 135//107 70//42 72//44
f 135//107 72//44 139//111
f 37//14 137//109 141//113
f 37//14 141//113 38//15
f 137//109 138//110 142//114
f 137//109 142//114 141//113
f 140//112 139//111 143//115
f 140//112 143//115 144//116
f 139//111 72//44 74//46
f 139//111 74//46 143//115
f 38//15 141//113 145//117
f 38//15 145//117 39//16
f 141//113 142//114 146//118
f 141//113 146//118 145//117
f 144//116 143//115 147//119
f 144//116 147//119 148//120
f 143//115 74//46 76//48
f 143//115 76//48 147//119
f 39//16 145//117 149//121
f 39//16 149//121 40//17
f 145//117 146//118 150//122
f 145//117 150//122 149//121
f 148//120 147//119 151//123
f 148//120 151//123 152//124
f 147//119 76//48 78//50
f 147//119 78//50 151//123
f 40//17 149//121 153//125
f 40//17 153//125 42//18
f 149//121 150//122 154//126
f 149//121 154//126 153//125
f 152//124 151//123 155//127
f 152//124 155//127 156//128
f 151//123 78//50 80//52
f 151//123 80//52 155//127
f 42//18 153//125 157//129
f 42//18 157//129 44//19
f 153//125 154//126 158//130
f 153//125 158//130 157//129
f 156//128 155//127 159//131
f 156//128 159//131 160//132
f 155//127 80//52 82//54
f 155//127 82//54 159//131
f 44//19 157//129 161//133
f 44//19 161//133 46//20
f 157//129 158//130 162//134
f 157//129 162//134 161//133
f 160//132 159//131 163//135
f 160//132 163//135 164//136
f 159//131 82//54 84//56
f 159//131 84//56 163//135
f 46//20 161//133 165//137
f 46//20 165//137 48//21
f 161//133 162//134 166//138
f 161//133 166//138 165//137
f 164//136 163//135 167//139
f 164//136 167//139 168//140
f 163//135 84//56 86//58
f 163//135 86//58 167//139
f 48//21 165//137 169//141
f 48//21 169//141 50//22
f 165//137 166//138 170//142
f 165//137 170//142 169//141
f 168//140 167//139 171//143
f 168//140 171//143 172//144
f 167//139 86//58 88//60
f 167//139 88//60 171//143
f 50//22 169//141 173//145
f 50//22 173//145 51//23
f 169//141 170//142 174//146
f 169//141 174//146 173//145
f 172//144 171//143 175//147
f 172//144 175//147 176//148
f 171//143 88//60 90//62
f 171//143 90//62 175//147
f 51//23 173//145 96//68
f 51//23 96//68 52//24
f 173//145 174//146 98//70
f 173//145 98//70 96//68
f 176//148 175//147 100//72
f 176//148 100//72 102//74
f 175//147 90//62 92//64
f 175//147 92//64 100//72
