# Blender 4.4.1
# www.blender.org
mtllib SM_polySurface654_lambert1_0_0.mtl
o SM_polySurface654_lambert1_0_0
v 0.176804 0.000000 -0.353784
v 0.176804 0.000000 -0.186919
v 0.176804 0.075438 -0.175951
v 0.176804 0.075438 -0.364753
v 0.176804 0.075438 -0.364753
v 0.176804 0.075438 -0.175951
v 0.176804 0.090190 -0.175951
v 0.176804 0.090190 -0.364753
v 0.184192 0.000000 -0.353784
v 0.184192 0.075438 -0.364753
v 0.184192 0.075438 -0.175951
v 0.184192 0.000000 -0.186919
v 0.184192 0.075438 -0.364753
v 0.184192 0.090190 -0.364753
v 0.184192 0.090190 -0.175951
v 0.184192 0.075438 -0.175951
v 0.184192 0.000000 -0.353784
v 0.184192 0.000000 -0.186919
v 0.176804 0.000000 -0.186919
v 0.176804 0.000000 -0.353784
v 0.184192 0.000000 -0.186919
v 0.184192 0.075438 -0.175951
v 0.176804 0.075438 -0.175951
v 0.176804 0.000000 -0.186919
v 0.184192 0.075438 -0.364753
v 0.184192 0.000000 -0.353784
v 0.176804 0.000000 -0.353784
v 0.176804 0.075438 -0.364753
v 0.184192 0.075438 -0.175951
v 0.184192 0.090190 -0.175951
v 0.176804 0.090190 -0.175951
v 0.176804 0.075438 -0.175951
v 0.184192 0.090190 -0.175951
v 0.184192 0.090190 -0.364753
v 0.176804 0.090190 -0.364753
v 0.176804 0.090190 -0.175951
v 0.184192 0.090190 -0.364753
v 0.184192 0.075438 -0.364753
v 0.176804 0.075438 -0.364753
v 0.176804 0.090190 -0.364753
vn 1.0000 -0.0000 -0.0000
vn -0.0000 -1.0000 -0.0000
vn -0.0000 0.1439 -0.9896
vn -0.0233 0.1438 -0.9893
vn 0.0233 0.1438 -0.9893
vn -0.0000 -0.1207 -0.9927
vn -0.0000 -0.1439 -0.9896
vn 0.1206 -0.0000 -0.9927
vn -0.0000 -0.0000 -1.0000
vn -0.1206 -0.0000 -0.9927
vn -0.0000 1.0000 -0.0000
vn -0.0000 -0.1206 -0.9927
s 1
usemtl M_polySurface654_lambert1_0_0
f 1//1 3//1 2//1
f 1//1 4//1 3//1
f 5//1 7//1 6//1
f 5//1 8//1 7//1
f 9//1 10//1 11//1
f 9//1 11//1 12//1
f 13//1 14//1 15//1
f 13//1 15//1 16//1
f 17//2 18//2 19//2
f 17//2 19//2 20//2
f 21//3 23//4 22//5
f 21//3 24//3 23//4
f 25//6 26//7 27//7
f 25//6 27//7 28//6
f 29//8 31//9 30//9
f 29//8 32//10 31//9
f 33//11 34//11 35//11
f 33//11 35//11 36//11
f 37//9 38//12 39//12
f 37//9 39//12 40//9
