# Blender 4.4.1
# www.blender.org
mtllib SM_polySurface185_lambert1_0_0.mtl
o SM_polySurface185_lambert1_0_0
v -0.299164 1.835294 0.550038
v -0.334675 1.835294 0.559553
v -0.346259 1.832362 0.548811
v -0.311389 1.832362 0.539096
v -0.360672 1.835294 0.585551
v -0.371786 1.832362 0.575356
v -0.370187 1.835294 0.621064
v -0.381129 1.832362 0.611614
v -0.370187 1.835294 1.247034
v -0.360672 1.835294 1.282547
v -0.371786 1.832362 1.292743
v -0.381129 1.832362 1.256484
v -0.360672 1.835294 1.282547
v -0.334676 1.835294 1.308544
v -0.346258 1.832362 1.319285
v -0.371786 1.832362 1.292743
v -0.299164 1.835294 1.318061
v -0.311388 1.832362 1.329000
v -0.414222 1.875458 0.575237
v -0.404707 1.875458 0.539724
v -0.407639 1.864516 0.536792
v -0.417155 1.864516 0.572304
v -0.378710 1.875458 0.513727
v -0.381642 1.864516 0.510795
v -0.343198 1.875458 0.504211
v -0.346130 1.864516 0.501280
v -0.406213 1.883468 1.284851
v -0.396697 1.883468 1.320364
v -0.385928 1.886400 1.308677
v -0.395271 1.886400 1.272417
v -0.370700 1.883468 1.346361
v -0.360401 1.886400 1.335220
v -0.335188 1.883468 1.355877
v -0.325531 1.886400 1.344936
v -0.362178 1.875458 1.239025
v -0.352662 1.875458 1.274538
v -0.349730 1.864516 1.271605
v -0.359246 1.864516 1.236094
v -0.326665 1.875458 1.300534
v -0.323733 1.864516 1.297604
v -0.291152 1.875458 1.310049
v -0.288221 1.864516 1.307118
v -0.370187 1.883468 0.621064
v -0.360672 1.883468 0.585551
v -0.371786 1.886400 0.575356
v -0.381129 1.886400 0.611614
v -0.360672 1.883468 0.585551
v -0.334675 1.883468 0.559553
v -0.346259 1.886400 0.548811
v -0.371786 1.886400 0.575356
v -0.299164 1.883468 0.550038
v -0.311389 1.886400 0.539096
v -0.335188 1.835294 1.355877
v -0.370700 1.835294 1.346361
v -0.360401 1.832362 1.335220
v -0.325531 1.832362 1.344936
v -0.370700 1.835294 1.346361
v -0.396697 1.835294 1.320364
v -0.385928 1.832362 1.308677
v -0.360401 1.832362 1.335220
v -0.406213 1.835294 1.284851
v -0.395271 1.832362 1.272417
v -0.406213 1.835294 0.583244
v -0.396697 1.835294 0.547732
v -0.385928 1.832362 0.559422
v -0.395271 1.832362 0.595682
v -0.370700 1.835294 0.521736
v -0.360401 1.832362 0.532879
v -0.335186 1.835294 0.512220
v -0.325532 1.832362 0.523163
v -0.190122 1.835294 1.318061
v -0.190122 1.832362 1.329000
v -0.291152 1.843303 1.310049
v -0.190122 1.843303 1.310049
v -0.291152 1.843303 1.310049
v -0.288221 1.854245 1.307118
v -0.190122 1.854245 1.307118
v -0.190122 1.843303 1.310049
v -0.190122 1.883468 1.355877
v -0.190122 1.886400 1.344936
v -0.343198 1.875458 1.363886
v -0.190122 1.875458 1.363886
v -0.190122 1.883468 1.355877
v -0.346130 1.864516 1.366819
v -0.190122 1.864516 1.366819
v -0.190122 1.883468 0.550038
v -0.190122 1.886400 0.539096
v -0.291152 1.875458 0.558048
v -0.190122 1.875458 0.558048
v -0.190122 1.883468 0.550038
v -0.291152 1.875458 0.558048
v -0.288221 1.864516 0.560979
v -0.190122 1.864516 0.560979
v -0.190122 1.875458 0.558048
v -0.190122 1.835294 0.512220
v -0.190122 1.832362 0.523163
v -0.343198 1.843303 0.504211
v -0.190122 1.843303 0.504211
v -0.190122 1.835294 0.512220
v -0.343198 1.843303 0.504211
v -0.346130 1.854245 0.501280
v -0.190122 1.854245 0.501280
v -0.395271 1.886400 0.595682
v -0.381129 1.886400 1.256484
v -0.417155 1.854245 1.295794
v -0.417155 1.864516 1.295794
v -0.417155 1.854245 0.572304
v -0.359246 1.854245 1.236094
v -0.359246 1.854245 0.632005
v -0.359246 1.864516 0.632005
v -0.190122 1.832362 1.329000
v -0.190122 1.832362 1.344936
v -0.190122 1.864516 1.307118
v -0.190122 1.886400 1.329000
v -0.311388 1.886400 1.329000
v -0.346130 1.854245 1.366819
v -0.190122 1.854245 1.366819
v -0.288221 1.854245 0.560979
v -0.190122 1.854245 0.560979
v -0.190122 1.832362 0.539096
v -0.190122 1.864516 0.501280
v -0.190122 1.886400 0.539096
v -0.190122 1.886400 0.523163
v -0.325532 1.886400 0.523163
v -0.362178 1.843303 1.239025
v -0.362178 1.843303 0.629072
v -0.362178 1.843303 1.239025
v -0.362178 1.843303 0.629072
v -0.190122 1.835294 0.550038
v -0.291152 1.843303 0.558048
v -0.190122 1.843303 0.558048
v -0.291152 1.843303 0.558048
v -0.299164 1.835294 0.550038
v -0.190122 1.843303 0.558048
v -0.335186 1.883468 0.512220
v -0.190122 1.883468 0.512220
v -0.190122 1.875458 0.504211
v -0.190122 1.883468 0.512220
v -0.406213 1.883468 0.583244
v -0.414222 1.875458 0.575237
v -0.414222 1.875458 1.292861
v -0.414222 1.875458 1.292861
v -0.299164 1.883468 1.318061
v -0.190122 1.883468 1.318061
v -0.190122 1.875458 1.310049
v -0.299164 1.883468 1.318061
v -0.370187 1.883468 1.247034
v -0.362178 1.875458 1.239025
v -0.362178 1.875458 0.629072
v -0.362178 1.875458 0.629072
v -0.414222 1.843303 0.575237
v -0.414222 1.843303 1.292861
v -0.414222 1.843303 0.575237
v -0.414222 1.843303 1.292861
v -0.190122 1.835294 1.355877
v -0.343198 1.843303 1.363886
v -0.190122 1.843303 1.363886
v -0.343198 1.843303 1.363886
v -0.190122 1.843303 1.363886
v -0.323733 1.854245 0.570495
v -0.326665 1.843303 0.567563
v -0.349730 1.854245 0.596491
v -0.352662 1.843303 0.593561
v -0.326665 1.843303 0.567563
v -0.334675 1.835294 0.559553
v -0.326665 1.843303 0.567563
v -0.352662 1.843303 0.593561
v -0.352662 1.843303 1.274538
v -0.326665 1.843303 1.300534
v -0.352662 1.843303 1.274538
v -0.352662 1.843303 1.274538
v -0.349730 1.854245 1.271605
v -0.326665 1.843303 1.300534
v -0.323733 1.854245 1.297604
v -0.396697 1.883468 0.547732
v -0.385928 1.886400 0.559422
v -0.370700 1.883468 0.521736
v -0.360401 1.886400 0.532879
v -0.396697 1.883468 0.547732
v -0.385928 1.886400 0.559422
v -0.404707 1.875458 0.539724
v -0.378710 1.875458 0.513727
v -0.404707 1.875458 0.539724
v -0.404707 1.875458 1.328374
v -0.378710 1.875458 1.354371
v -0.404707 1.875458 1.328374
v -0.407639 1.864516 1.331306
v -0.378710 1.875458 1.354371
v -0.381642 1.864516 1.357304
v -0.404707 1.875458 1.328374
v -0.407639 1.864516 1.331306
v -0.360672 1.883468 1.282547
v -0.371786 1.886400 1.292743
v -0.334676 1.883468 1.308544
v -0.346258 1.886400 1.319285
v -0.352662 1.875458 1.274538
v -0.360672 1.883468 1.282547
v -0.334676 1.883468 1.308544
v -0.326665 1.875458 1.300534
v -0.352662 1.875458 1.274538
v -0.352662 1.875458 0.593561
v -0.326665 1.875458 0.567563
v -0.352662 1.875458 0.593561
v -0.360401 1.886400 0.532879
v -0.346259 1.886400 0.548811
v -0.352662 1.875458 0.593561
v -0.349730 1.864516 0.596491
v -0.326665 1.875458 0.567563
v -0.323733 1.864516 0.570495
v -0.381642 1.854245 1.357304
v -0.381642 1.864516 1.357304
v -0.407639 1.854245 1.331306
v -0.381642 1.854245 1.357304
v -0.378710 1.843303 1.354371
v -0.404707 1.843303 1.328374
v -0.378710 1.843303 1.354371
v -0.378710 1.843303 1.354371
v -0.404707 1.843303 1.328374
v -0.346258 1.832362 1.319285
v -0.404707 1.843303 0.539724
v -0.378710 1.843303 0.513727
v -0.404707 1.843303 0.539724
v -0.407639 1.854245 0.536792
v -0.378710 1.843303 0.513727
v -0.381642 1.854245 0.510795
v -0.190122 1.864516 1.366819
v -0.190122 1.854245 1.366819
v -0.190122 1.843303 1.363886
v -0.190122 1.835294 1.355877
v -0.190122 1.832362 1.344936
v -0.190122 1.832362 1.329000
v -0.190122 1.835294 1.318061
v -0.190122 1.843303 1.310049
v -0.190122 1.854245 1.307118
v -0.190122 1.864516 1.307118
v -0.190122 1.875458 1.310049
v -0.190122 1.883468 1.318061
v -0.190122 1.886400 1.329000
v -0.190122 1.886400 1.344936
v -0.190122 1.883468 1.355877
v -0.190122 1.875458 1.363886
v -0.190122 1.886400 0.523163
v -0.190122 1.886400 0.539096
v -0.190122 1.883468 0.550038
v -0.190122 1.875458 0.558048
v -0.190122 1.864516 0.560979
v -0.190122 1.854245 0.560979
v -0.190122 1.843303 0.558048
v -0.190122 1.835294 0.550038
v -0.190122 1.832362 0.539096
v -0.190122 1.832362 0.523163
v -0.190122 1.835294 0.512220
v -0.190122 1.843303 0.504211
v -0.190122 1.854245 0.501280
v -0.190122 1.864516 0.501280
v -0.190122 1.875458 0.504211
v -0.190122 1.883468 0.512220
vn 0.0140 0.9981 -0.0602
vn -0.0537 0.9966 -0.0622
vn -0.1593 0.9411 -0.2982
vn 0.0059 0.9922 -0.1249
vn -0.0814 0.9959 -0.0407
vn -0.3110 0.9313 -0.1898
vn -0.1432 0.9897 0.0057
vn -0.4388 0.8893 -0.1285
vn -0.3966 0.9116 0.1076
vn -0.0401 0.9985 0.0361
vn -0.4253 0.9041 0.0427
vn -0.1313 0.9912 -0.0193
vn -0.2020 0.9301 0.3067
vn -0.0796 0.9952 0.0570
vn -0.1862 0.9327 0.3088
vn -0.2104 0.9771 0.0306
vn -0.0290 0.9975 0.0640
vn -0.1002 0.8982 0.4279
vn -0.8991 0.4377 -0.0128
vn -0.8204 0.3426 -0.4579
vn -0.8477 0.1812 -0.4986
vn -0.9916 0.1283 -0.0144
vn -0.4580 0.3426 -0.8203
vn -0.4986 0.1812 -0.8477
vn -0.0490 0.4732 -0.8796
vn -0.0554 0.1365 -0.9891
vn -0.5960 0.8029 0.0061
vn -0.3645 0.9086 0.2038
vn -0.0876 0.9952 0.0445
vn -0.1817 0.9833 0.0010
vn -0.2051 0.9075 0.3666
vn -0.0472 0.9952 0.0859
vn -0.0227 0.8356 0.5488
vn -0.0044 0.9894 0.1452
vn 0.8304 0.5571 -0.0109
vn 0.8052 0.3450 -0.4823
vn 0.8540 0.1896 -0.4844
vn 0.9890 0.1476 -0.0130
vn 0.4823 0.3450 -0.8052
vn 0.4844 0.1895 -0.8540
vn 0.0523 0.5560 -0.8295
vn 0.0629 0.1508 -0.9866
vn 0.4050 0.9143 0.0077
vn 0.3106 0.9323 0.1853
vn 0.0582 0.9976 0.0366
vn 0.0607 0.9982 0.0018
vn 0.3105 0.9323 0.1854
vn 0.1848 0.9331 0.3084
vn 0.0368 0.9978 0.0550
vn 0.0583 0.9976 0.0367
vn 0.0326 0.9104 0.4125
vn 0.0080 0.9980 0.0631
vn 0.1156 0.8583 -0.4999
vn -0.0098 0.9902 -0.1396
vn 0.0165 0.8519 -0.5235
vn 0.0089 0.9893 -0.1454
vn 0.3575 0.9083 -0.2174
vn 0.0914 0.9941 -0.0593
vn 0.3920 0.8973 -0.2031
vn 0.0896 0.9948 -0.0479
vn 0.1708 0.9851 0.0198
vn 0.3675 0.9271 -0.0739
vn 0.5112 0.8436 0.1641
vn 0.1150 0.9924 0.0443
vn 0.3693 0.9045 0.2133
vn 0.1758 0.9844 -0.0076
vn 0.0648 0.9937 0.0910
vn 0.2033 0.8962 0.3944
vn 0.0044 0.9895 0.1443
vn 0.0743 0.8390 0.5390
vn -0.0000 0.8712 0.4910
vn 0.1592 0.9536 0.2555
vn -0.0000 0.7072 0.7070
vn -0.0221 0.7453 0.6663
vn 0.0824 -0.2784 -0.9569
vn 0.0629 -0.1508 -0.9866
vn -0.0000 -0.1378 -0.9905
vn -0.0000 -0.2587 -0.9660
vn -0.0000 0.9659 0.2588
vn -0.0000 0.9935 0.1141
vn -0.0490 0.4733 0.8795
vn -0.0000 0.4959 0.8684
vn -0.0000 0.7070 0.7072
vn -0.0554 0.1366 0.9891
vn -0.0000 0.1364 0.9907
vn -0.0000 0.9948 0.1018
vn 0.0280 0.7207 0.6927
vn -0.0000 0.7071 0.7071
vn 0.0824 0.2784 0.9569
vn 0.0629 0.1508 0.9866
vn -0.0000 0.1378 0.9905
vn -0.0000 0.2587 0.9659
vn -0.0000 0.9933 0.1159
vn 0.2634 0.6821 0.6821
vn -0.0116 0.9288 0.3703
vn -0.0490 -0.4731 -0.8796
vn -0.0554 -0.1365 -0.9891
vn -0.0000 -0.1363 -0.9907
vn -0.0000 -0.4956 -0.8685
vn -0.1817 0.9834 -0.0010
vn 0.0608 0.9982 -0.0018
vn -0.9916 -0.1282 0.0144
vn -0.9916 0.1283 0.0144
vn -0.9916 -0.1282 -0.0144
vn 0.9890 -0.1476 -0.0130
vn 0.9890 -0.1476 0.0130
vn 0.9890 0.1476 0.0130
vn -0.0000 0.9933 -0.1153
vn 0.1015 0.9948 -0.0000
vn -0.0000 0.1378 -0.9905
vn -0.0000 0.9948 -0.1016
vn 0.0080 0.9980 -0.0631
vn -0.0554 -0.1366 0.9891
vn -0.0000 -0.1364 0.9907
vn 0.0629 -0.1508 0.9866
vn -0.0000 -0.1378 0.9905
vn -0.0000 0.9946 -0.1037
vn -0.0000 0.1363 -0.9907
vn -0.0000 0.9948 0.1015
vn -0.0000 0.9935 -0.1141
vn -0.0044 0.9894 -0.1452
vn 0.9645 -0.2634 -0.0187
vn 0.9645 -0.2634 0.0187
vn -0.6572 0.7537 -0.0055
vn -0.6574 0.7535 0.0049
vn 0.2468 0.9361 -0.2508
vn 0.0824 -0.2784 0.9569
vn -0.0000 -0.2587 0.9660
vn -0.0218 0.7454 -0.6663
vn 0.2706 0.6808 -0.6807
vn -0.0863 0.5220 -0.8486
vn -0.0000 0.7071 -0.7071
vn -0.0227 0.8357 -0.5488
vn -0.0000 0.9659 -0.2588
vn -0.0000 0.4958 -0.8684
vn -0.0000 0.7070 -0.7072
vn -0.5960 0.8029 -0.0061
vn -0.8989 0.4379 -0.0128
vn -0.8989 0.4379 0.0128
vn -0.8991 0.4376 0.0128
vn 0.0325 0.9104 -0.4124
vn -0.0000 0.8722 -0.4892
vn -0.0000 0.5062 -0.8624
vn 0.0326 0.9103 -0.4127
vn -0.0000 0.8720 -0.4894
vn 0.4050 0.9143 -0.0077
vn 0.8302 0.5574 -0.0109
vn 0.8302 0.5574 0.0109
vn 0.8304 0.5571 0.0109
vn -0.9652 -0.2612 -0.0095
vn -0.9652 -0.2612 0.0094
vn 0.6157 0.7878 0.0154
vn 0.6151 0.7883 -0.0139
vn -0.0000 0.8626 -0.5059
vn -0.0385 -0.2684 0.9625
vn -0.0000 -0.2589 0.9659
vn 0.0586 0.7746 -0.6297
vn 0.4844 -0.1895 0.8540
vn 0.4822 -0.3449 0.8053
vn 0.8540 -0.1895 0.4845
vn 0.8052 -0.3449 0.4823
vn -0.3548 0.8695 -0.3436
vn -0.1916 0.6723 -0.7151
vn -0.5013 0.7053 -0.5013
vn -0.5254 0.8024 -0.2830
vn -0.7151 0.6722 0.1916
vn -0.2829 0.8024 0.5254
vn -0.5013 0.7053 0.5013
vn 0.8053 -0.3450 -0.4822
vn 0.8540 -0.1896 -0.4844
vn 0.4822 -0.3449 -0.8053
vn 0.4844 -0.1895 -0.8540
vn -0.3646 0.9086 -0.2037
vn -0.0876 0.9952 -0.0445
vn -0.2051 0.9075 -0.3667
vn -0.0472 0.9952 -0.0860
vn -0.3644 0.9087 -0.2038
vn -0.4957 0.8097 -0.3141
vn -0.3142 0.8097 -0.4956
vn -0.4955 0.8097 -0.3143
vn -0.4956 0.8097 0.3142
vn -0.3142 0.8097 0.4956
vn -0.8204 0.3426 0.4579
vn -0.8478 0.1811 0.4985
vn -0.4579 0.3426 0.8203
vn -0.4985 0.1813 0.8477
vn -0.8202 0.3426 0.4581
vn -0.8476 0.1813 0.4987
vn 0.3106 0.9323 -0.1854
vn 0.0582 0.9976 -0.0366
vn 0.1848 0.9332 -0.3083
vn 0.0368 0.9978 -0.0550
vn 0.5238 0.8043 -0.2806
vn 0.3106 0.9323 -0.1855
vn 0.1849 0.9331 -0.3085
vn 0.2807 0.8044 -0.5237
vn 0.5236 0.8044 -0.2808
vn 0.5238 0.8043 0.2806
vn 0.2807 0.8043 0.5237
vn 0.5236 0.8044 0.2808
vn -0.0471 0.9952 -0.0858
vn 0.0368 0.9978 0.0549
vn 0.8053 0.3449 0.4822
vn 0.8540 0.1895 0.4845
vn 0.4823 0.3449 0.8052
vn 0.4844 0.1895 0.8540
vn -0.4984 -0.1812 0.8478
vn -0.4987 0.1812 0.8476
vn -0.8477 -0.1812 0.4986
vn -0.4987 -0.1812 0.8476
vn -0.4579 -0.3425 0.8204
vn -0.8204 -0.3425 0.4578
vn -0.4581 -0.3426 0.8202
vn 0.1222 0.8815 -0.4561
vn 0.3308 0.8838 -0.3309
vn 0.4980 0.8081 -0.3145
vn 0.0389 0.9978 0.0534
vn 0.4980 0.8081 0.3145
vn 0.3145 0.8081 0.4980
vn -0.8203 -0.3425 -0.4580
vn -0.8477 -0.1812 -0.4986
vn -0.4579 -0.3425 -0.8203
vn -0.4986 -0.1812 -0.8477
vn -1.0000 -0.0000 -0.0000
s 1
usemtl M_polySurface185_lambert1_0_0
f 1//1 3//2 2//3
f 1//1 4//4 3//2
f 2//3 6//5 5//6
f 2//3 3//2 6//5
f 5//6 8//7 7//8
f 5//6 6//5 8//7
f 9//9 11//10 10//11
f 9//9 12//12 11//10
f 13//13 15//14 14//15
f 13//13 16//16 15//14
f 14//15 18//17 17//18
f 14//15 15//14 18//17
f 19//19 20//20 21//21
f 19//19 21//21 22//22
f 20//20 23//23 24//24
f 20//20 24//24 21//21
f 23//23 25//25 26//26
f 23//23 26//26 24//24
f 27//27 28//28 29//29
f 27//27 29//29 30//30
f 28//28 31//31 32//32
f 28//28 32//32 29//29
f 31//31 33//33 34//34
f 31//31 34//34 32//32
f 35//35 36//36 37//37
f 35//35 37//37 38//38
f 36//36 39//39 40//40
f 36//36 40//40 37//37
f 39//39 41//41 42//42
f 39//39 42//42 40//40
f 43//43 44//44 45//45
f 43//43 45//45 46//46
f 47//47 48//48 49//49
f 47//47 49//49 50//50
f 48//48 51//51 52//52
f 48//48 52//52 49//49
f 53//53 55//54 54//55
f 53//53 56//56 55//54
f 57//57 59//58 58//59
f 57//57 60//60 59//58
f 58//59 62//61 61//62
f 58//59 59//58 62//61
f 63//63 65//64 64//65
f 63//63 66//66 65//64
f 64//65 68//67 67//68
f 64//65 65//64 68//67
f 67//68 70//69 69//70
f 67//68 68//67 70//69
f 18//17 71//71 17//18
f 18//17 72//72 71//71
f 17//18 74//73 73//74
f 17//18 71//71 74//73
f 75//75 76//76 77//77
f 75//75 77//77 78//78
f 34//34 33//33 79//79
f 34//34 79//79 80//80
f 33//33 81//81 82//82
f 33//33 82//82 83//83
f 81//81 84//84 85//85
f 81//81 85//85 82//82
f 52//52 51//51 86//79
f 52//52 86//79 87//86
f 51//51 88//87 89//88
f 51//51 89//88 90//88
f 91//89 92//90 93//91
f 91//89 93//91 94//92
f 70//69 95//79 69//70
f 70//69 96//93 95//79
f 69//70 98//94 97//95
f 69//70 99//88 98//94
f 100//96 101//97 102//98
f 100//96 102//98 98//99
f 103//100 30//30 104//101
f 103//100 104//101 46//46
f 8//7 62//61 12//12
f 8//7 66//66 62//61
f 105//102 106//103 22//22
f 105//102 22//22 107//104
f 38//38 108//105 109//106
f 38//38 109//106 110//107
f 18//17 112//108 111//109
f 18//17 56//56 112//108
f 76//76 42//42 113//110
f 76//76 113//110 77//77
f 34//34 80//80 114//111
f 34//34 114//111 115//112
f 116//113 117//114 85//85
f 116//113 85//85 84//84
f 92//90 118//115 119//116
f 92//90 119//116 93//91
f 70//69 120//117 96//93
f 70//69 4//4 120//117
f 26//26 121//118 102//98
f 26//26 102//98 101//97
f 52//52 122//119 123//120
f 52//52 123//120 124//121
f 9//9 8//7 12//12
f 9//9 7//8 8//7
f 108//105 125//122 126//123
f 108//105 126//123 109//106
f 127//124 7//8 9//9
f 127//124 128//125 7//8
f 1//1 120//117 4//4
f 1//1 129//126 120//117
f 118//115 130//127 131//128
f 118//115 131//128 119//116
f 132//129 129//130 133//131
f 132//129 134//132 129//130
f 135//133 124//121 123//120
f 135//133 123//120 136//134
f 26//26 25//25 137//135
f 26//26 137//135 121//118
f 25//25 135//133 138//136
f 25//25 138//136 137//135
f 103//100 139//137 27//27
f 103//100 27//27 30//30
f 139//137 140//138 141//139
f 139//137 141//139 27//27
f 19//19 22//22 106//103
f 19//19 106//103 142//140
f 143//141 115//112 114//111
f 143//141 114//111 144//142
f 42//42 41//41 145//143
f 42//42 145//143 113//110
f 41//41 146//144 144//145
f 41//41 144//145 145//143
f 104//101 147//146 43//43
f 104//101 43//43 46//46
f 147//146 148//147 149//148
f 147//146 149//148 43//43
f 35//35 38//38 110//107
f 35//35 110//107 150//149
f 63//63 62//61 66//66
f 63//63 61//62 62//61
f 107//104 151//150 152//151
f 107//104 152//151 105//102
f 153//152 61//62 63//63
f 153//152 154//153 61//62
f 53//53 112//108 56//56
f 53//53 155//154 112//108
f 116//113 156//155 157//156
f 116//113 157//156 117//114
f 158//157 155//154 53//53
f 158//157 159//132 155//154
f 118//115 160//158 161//159
f 118//115 161//159 130//127
f 160//158 162//160 163//161
f 160//158 163//161 161//159
f 162//160 109//106 126//123
f 162//160 126//123 163//161
f 132//129 165//162 164//163
f 132//129 133//131 165//162
f 166//164 5//6 167//165
f 166//164 2//3 5//6
f 167//165 7//8 128//125
f 167//165 5//6 7//8
f 10//11 127//124 9//9
f 10//11 168//166 127//124
f 17//18 169//167 14//15
f 17//18 73//74 169//167
f 14//15 170//168 13//13
f 14//15 169//167 170//168
f 171//169 125//122 108//105
f 171//169 108//105 172//170
f 75//75 173//171 174//172
f 75//75 174//172 76//76
f 173//171 171//169 172//170
f 173//171 172//170 174//172
f 175//173 139//137 103//100
f 175//173 103//100 176//174
f 135//133 177//175 178//176
f 135//133 178//176 124//121
f 177//175 179//177 180//174
f 177//175 180//174 178//176
f 139//137 175//173 181//178
f 139//137 181//178 140//138
f 179//177 177//175 182//179
f 179//177 182//179 183//180
f 177//175 135//133 25//25
f 177//175 25//25 182//179
f 28//28 27//27 141//139
f 28//28 141//139 184//181
f 33//33 31//31 185//182
f 33//33 185//182 81//81
f 31//31 28//28 184//181
f 31//31 184//181 185//182
f 186//183 142//140 106//103
f 186//183 106//103 187//184
f 81//81 188//185 189//186
f 81//81 189//186 84//84
f 188//185 190//187 191//188
f 188//185 191//188 189//186
f 192//189 147//146 104//101
f 192//189 104//101 193//190
f 143//141 194//191 195//192
f 143//141 195//192 115//112
f 194//191 192//189 193//190
f 194//191 193//190 195//192
f 30//30 29//29 193//190
f 30//30 193//190 104//101
f 29//29 32//32 195//192
f 29//29 195//192 193//190
f 32//32 34//34 115//112
f 32//32 115//112 195//192
f 147//146 192//189 196//193
f 147//146 196//193 148//147
f 197//194 198//195 199//196
f 197//194 199//196 200//197
f 198//195 146//144 41//41
f 198//195 41//41 199//196
f 76//76 174//172 40//40
f 76//76 40//40 42//42
f 174//172 172//170 37//37
f 174//172 37//37 40//40
f 172//170 108//105 38//38
f 172//170 38//38 37//37
f 44//44 43//43 149//148
f 44//44 149//148 201//198
f 51//51 48//48 202//199
f 51//51 202//199 88//87
f 48//48 47//47 203//200
f 48//48 203//200 202//199
f 124//121 178//176 49//49
f 124//121 49//49 52//52
f 204//201 176//174 45//45
f 204//201 45//45 205//202
f 176//174 103//100 46//46
f 176//174 46//46 45//45
f 206//203 150//149 110//107
f 206//203 110//107 207//204
f 91//89 208//205 209//206
f 91//89 209//206 92//90
f 208//205 206//203 207//204
f 208//205 207//204 209//206
f 109//106 162//160 207//204
f 109//106 207//204 110//107
f 162//160 160//158 209//206
f 162//160 209//206 207//204
f 160//158 118//115 92//90
f 160//158 92//90 209//206
f 84//84 189//186 210//207
f 84//84 210//207 116//113
f 211//208 187//184 212//209
f 211//208 212//209 213//210
f 187//184 106//103 105//102
f 187//184 105//102 212//209
f 116//113 210//207 214//211
f 116//113 214//211 156//155
f 213//210 212//209 215//212
f 213//210 215//212 216//213
f 212//209 105//102 152//151
f 212//209 152//151 215//212
f 158//157 54//55 217//214
f 158//157 53//53 54//55
f 217//215 58//59 218//216
f 217//215 57//57 58//59
f 218//216 61//62 154//153
f 218//216 58//59 61//62
f 12//12 59//58 11//10
f 12//12 62//61 59//58
f 11//10 60//60 219//217
f 11//10 59//58 60//60
f 15//14 56//56 18//17
f 15//14 55//54 56//56
f 64//65 153//152 63//63
f 64//65 220//218 153//152
f 69//70 221//219 67//68
f 69//70 97//95 221//219
f 67//68 220//218 64//65
f 67//68 221//219 220//218
f 4//4 68//67 3//2
f 4//4 70//69 68//67
f 3//2 65//64 6//5
f 3//2 68//67 65//64
f 6//5 66//66 8//7
f 6//5 65//64 66//66
f 222//220 151//150 107//104
f 222//220 107//104 223//221
f 100//96 224//222 225//223
f 100//96 225//223 101//97
f 224//222 222//220 223//221
f 224//222 223//221 225//223
f 22//22 21//21 223//221
f 22//22 223//221 107//104
f 21//21 24//24 225//223
f 21//21 225//223 223//221
f 24//24 26//26 101//97
f 24//24 101//97 225//223
f 232//224 231//224 230//224
f 230//224 229//224 232//224
f 229//224 233//224 232//224
f 229//224 228//224 233//224
f 228//224 234//224 233//224
f 228//224 227//224 234//224
f 227//224 235//224 234//224
f 227//224 226//224 235//224
f 226//224 236//224 235//224
f 226//224 241//224 236//224
f 241//224 237//224 236//224
f 241//224 240//224 237//224
f 240//224 238//224 237//224
f 240//224 239//224 238//224
f 252//224 251//224 250//224
f 250//224 249//224 252//224
f 249//224 253//224 252//224
f 249//224 248//224 253//224
f 248//224 254//224 253//224
f 248//224 247//224 254//224
f 247//224 255//224 254//224
f 247//224 246//224 255//224
f 246//224 256//224 255//224
f 246//224 245//224 256//224
f 245//224 257//224 256//224
f 245//224 244//224 257//224
f 244//224 242//224 257//224
f 244//224 243//224 242//224
