# Blender 4.4.1
# www.blender.org
mtllib SM_polySurface878_pasted__blinn5_0_0.mtl
o SM_polySurface878_pasted__blinn5_0_0
v 2.709227 8.183465 8.762568
v 2.705474 8.182288 8.764571
v 2.713152 8.185515 8.775983
v 2.702497 8.181355 8.767692
v 2.713152 8.185515 8.775983
v 2.700585 8.180756 8.771624
v 2.713152 8.185515 8.775983
v 2.699926 8.180549 8.775983
v 2.713152 8.185515 8.775983
v 2.700585 8.180756 8.780342
v 2.713152 8.185515 8.775983
v 2.702497 8.181355 8.784274
v 2.713152 8.185515 8.775983
v 2.705474 8.182288 8.787395
v 2.713152 8.185515 8.775983
v 2.709227 8.183465 8.789398
v 2.713152 8.185515 8.775983
v 2.713386 8.184769 8.790089
v 2.713152 8.185515 8.775983
v 2.717546 8.186072 8.789398
v 2.713152 8.185515 8.775983
v 2.721298 8.187249 8.787395
v 2.713152 8.185515 8.775983
v 2.724275 8.188183 8.784274
v 2.713152 8.185515 8.775983
v 2.726187 8.188782 8.780342
v 2.713152 8.185515 8.775983
v 2.726846 8.188989 8.775983
v 2.713152 8.185515 8.775983
v 2.726187 8.188782 8.771624
v 2.713152 8.185515 8.775983
v 2.724275 8.188183 8.767692
v 2.713152 8.185515 8.775983
v 2.721298 8.187249 8.764571
v 2.713152 8.185515 8.775983
v 2.717546 8.186072 8.762568
v 2.713152 8.185515 8.775983
v 2.713386 8.184769 8.761877
v 2.713152 8.185515 8.775983
v 2.709227 8.183465 8.762568
v 2.713152 8.185515 8.775983
v 2.699922 8.161851 8.715343
v 2.682962 8.156533 8.724400
v 2.687058 8.164608 8.733104
v 2.701157 8.169028 8.725575
v 2.669502 8.152313 8.738505
v 2.675870 8.161100 8.744829
v 2.660860 8.149605 8.756280
v 2.668686 8.158848 8.759604
v 2.657882 8.148671 8.775983
v 2.666211 8.158072 8.775983
v 2.660860 8.149605 8.795686
v 2.668686 8.158848 8.792361
v 2.669502 8.152313 8.813460
v 2.675870 8.161100 8.807137
v 2.682962 8.156533 8.827566
v 2.687058 8.164608 8.818862
v 2.699922 8.161851 8.836622
v 2.701157 8.169028 8.826390
v 2.718723 8.167745 8.839744
v 2.716785 8.173927 8.828984
v 2.737524 8.173639 8.836622
v 2.732413 8.178827 8.826390
v 2.754484 8.178957 8.827566
v 2.746511 8.183248 8.818862
v 2.767944 8.183176 8.813460
v 2.757700 8.186755 8.807137
v 2.776586 8.185885 8.795686
v 2.764884 8.189007 8.792361
v 2.779564 8.186819 8.775983
v 2.767359 8.189783 8.775983
v 2.776586 8.185885 8.756280
v 2.764884 8.189007 8.759604
v 2.767944 8.183176 8.738505
v 2.757700 8.186755 8.744829
v 2.754484 8.178957 8.724400
v 2.746511 8.183248 8.733104
v 2.737524 8.173639 8.715343
v 2.732413 8.178827 8.725575
v 2.718723 8.167745 8.712222
v 2.716785 8.173927 8.722981
v 2.699922 8.161851 8.715343
v 2.701157 8.169028 8.725575
v 2.692265 8.171704 8.742865
v 2.703154 8.175118 8.737050
v 2.683623 8.168995 8.751921
v 2.678075 8.167255 8.763332
v 2.676163 8.166656 8.775983
v 2.678075 8.167255 8.788633
v 2.683623 8.168995 8.800045
v 2.692265 8.171704 8.809101
v 2.703154 8.175118 8.814916
v 2.715225 8.178903 8.816919
v 2.727296 8.182687 8.814916
v 2.738185 8.186101 8.809101
v 2.746827 8.188810 8.800045
v 2.752375 8.190550 8.788633
v 2.754287 8.191149 8.775983
v 2.752375 8.190550 8.763332
v 2.746827 8.188810 8.751921
v 2.738185 8.186101 8.742865
v 2.727296 8.182687 8.737050
v 2.715225 8.178903 8.735046
v 2.703154 8.175118 8.737050
v 2.698455 8.177647 8.753440
v 2.705867 8.179971 8.749482
v 2.692572 8.175802 8.759604
v 2.688796 8.174619 8.767372
v 2.687495 8.174211 8.775983
v 2.688796 8.174619 8.784594
v 2.692572 8.175802 8.792361
v 2.698455 8.177647 8.798526
v 2.705867 8.179971 8.802484
v 2.714083 8.182547 8.803847
v 2.722299 8.185122 8.802484
v 2.729711 8.187447 8.798526
v 2.735593 8.189290 8.792361
v 2.739370 8.190475 8.784594
v 2.740671 8.190882 8.775983
v 2.739370 8.190475 8.767372
v 2.735593 8.189290 8.759604
v 2.729711 8.187447 8.753440
v 2.722299 8.185122 8.749482
v 2.714083 8.182547 8.748118
v 2.705867 8.179971 8.749482
vn -0.3382 0.9312 -0.1357
vn -0.3762 0.9193 -0.1155
vn -0.2992 0.9542 -0.0000
vn -0.4063 0.9099 -0.0839
vn -0.4256 0.9038 -0.0441
vn -0.4323 0.9017 -0.0000
vn -0.4256 0.9038 0.0441
vn -0.4063 0.9099 0.0839
vn -0.2991 0.9542 -0.0000
vn -0.3762 0.9193 0.1155
vn -0.3382 0.9312 0.1358
vn -0.2961 0.9444 0.1428
vn -0.2540 0.9576 0.1358
vn -0.2161 0.9695 0.1155
vn -0.1859 0.9790 0.0839
vn -0.1666 0.9850 0.0441
vn -0.1599 0.9871 -0.0000
vn -0.1665 0.9850 -0.0442
vn -0.1859 0.9790 -0.0839
vn -0.2161 0.9695 -0.1154
vn -0.2540 0.9576 -0.1357
vn -0.2961 0.9444 -0.1427
vn -0.4084 0.7697 -0.4907
vn -0.5456 0.7267 -0.4174
vn -0.5267 0.7612 -0.3783
vn -0.4023 0.8002 -0.4448
vn -0.6545 0.6926 -0.3033
vn -0.6254 0.7303 -0.2749
vn -0.7244 0.6707 -0.1594
vn -0.6888 0.7104 -0.1445
vn -0.7485 0.6631 -0.0000
vn -0.7106 0.7036 -0.0000
vn -0.7244 0.6707 0.1594
vn -0.6888 0.7104 0.1445
vn -0.6545 0.6926 0.3033
vn -0.6254 0.7303 0.2749
vn -0.5456 0.7267 0.4174
vn -0.5267 0.7612 0.3783
vn -0.4084 0.7697 0.4907
vn -0.4023 0.8003 0.4446
vn -0.2563 0.8175 0.5158
vn -0.2644 0.8434 0.4677
vn -0.1041 0.8651 0.4906
vn -0.1265 0.8866 0.4448
vn 0.0331 0.9081 0.4174
vn -0.0021 0.9257 0.3783
vn 0.1420 0.9423 0.3033
vn 0.0966 0.9566 0.2749
vn 0.2119 0.9642 0.1595
vn 0.1599 0.9765 0.1445
vn 0.2360 0.9718 -0.0000
vn 0.1818 0.9833 -0.0000
vn 0.2119 0.9642 -0.1595
vn 0.1600 0.9765 -0.1445
vn 0.1420 0.9423 -0.3033
vn 0.0966 0.9566 -0.2749
vn 0.0331 0.9081 -0.4174
vn -0.0021 0.9257 -0.3783
vn -0.1042 0.8651 -0.4907
vn -0.1265 0.8867 -0.4448
vn -0.2562 0.8175 -0.5159
vn -0.2644 0.8434 -0.4677
vn -0.4776 0.8310 -0.2851
vn -0.3839 0.8604 -0.3352
vn -0.5521 0.8077 -0.2072
vn -0.5998 0.7927 -0.1089
vn -0.6163 0.7875 -0.0000
vn -0.5998 0.7927 0.1089
vn -0.5520 0.8077 0.2072
vn -0.4776 0.8310 0.2851
vn -0.3839 0.8604 0.3351
vn -0.2799 0.8930 0.3524
vn -0.1761 0.9256 0.3352
vn -0.0823 0.9550 0.2851
vn -0.0079 0.9783 0.2072
vn 0.0399 0.9933 0.1089
vn 0.0564 0.9984 -0.0000
vn 0.0399 0.9932 -0.1089
vn -0.0079 0.9783 -0.2071
vn -0.0823 0.9549 -0.2851
vn -0.1760 0.9256 -0.3352
vn -0.2800 0.8930 -0.3524
vn -0.4261 0.8832 -0.1960
vn -0.3617 0.9034 -0.2304
vn -0.4772 0.8672 -0.1423
vn -0.5101 0.8569 -0.0749
vn -0.5214 0.8533 -0.0000
vn -0.5100 0.8569 0.0748
vn -0.4772 0.8672 0.1424
vn -0.4261 0.8832 0.1959
vn -0.3617 0.9034 0.2304
vn -0.2902 0.9258 0.2422
vn -0.2188 0.9482 0.2304
vn -0.1544 0.9684 0.1960
vn -0.1033 0.9844 0.1424
vn -0.0704 0.9947 0.0748
vn -0.0591 0.9983 -0.0000
vn -0.0705 0.9947 -0.0749
vn -0.1033 0.9844 -0.1424
vn -0.1544 0.9684 -0.1959
vn -0.2188 0.9482 -0.2304
vn -0.2902 0.9258 -0.2422
s 1
usemtl M_polySurface878_pasted__blinn5_0_0
f 1//1 2//2 3//3
f 2//2 4//4 5//3
f 4//4 6//5 7//3
f 6//5 8//6 9//3
f 8//6 10//7 11//3
f 10//7 12//8 13//9
f 12//8 14//10 15//3
f 14//10 16//11 17//3
f 16//11 18//12 19//3
f 18//12 20//13 21//3
f 20//13 22//14 23//3
f 22//14 24//15 25//9
f 24//15 26//16 27//3
f 26//16 28//17 29//9
f 28//17 30//18 31//3
f 30//18 32//19 33//3
f 32//19 34//20 35//3
f 34//20 36//21 37//9
f 36//21 38//22 39//3
f 38//22 40//1 41//3
f 42//23 43//24 44//25
f 42//23 44//25 45//26
f 43//24 46//27 47//28
f 43//24 47//28 44//25
f 46//27 48//29 49//30
f 46//27 49//30 47//28
f 48//29 50//31 51//32
f 48//29 51//32 49//30
f 50//31 52//33 53//34
f 50//31 53//34 51//32
f 52//33 54//35 55//36
f 52//33 55//36 53//34
f 54//35 56//37 57//38
f 54//35 57//38 55//36
f 56//37 58//39 59//40
f 56//37 59//40 57//38
f 58//39 60//41 61//42
f 58//39 61//42 59//40
f 60//41 62//43 63//44
f 60//41 63//44 61//42
f 62//43 64//45 65//46
f 62//43 65//46 63//44
f 64//45 66//47 67//48
f 64//45 67//48 65//46
f 66//47 68//49 69//50
f 66//47 69//50 67//48
f 68//49 70//51 71//52
f 68//49 71//52 69//50
f 70//51 72//53 73//54
f 70//51 73//54 71//52
f 72//53 74//55 75//56
f 72//53 75//56 73//54
f 74//55 76//57 77//58
f 74//55 77//58 75//56
f 76//57 78//59 79//60
f 76//57 79//60 77//58
f 78//59 80//61 81//62
f 78//59 81//62 79//60
f 80//61 82//23 83//26
f 80//61 83//26 81//62
f 45//26 44//25 84//63
f 45//26 84//63 85//64
f 44//25 47//28 86//65
f 44//25 86//65 84//63
f 47//28 49//30 87//66
f 47//28 87//66 86//65
f 49//30 51//32 88//67
f 49//30 88//67 87//66
f 51//32 53//34 89//68
f 51//32 89//68 88//67
f 53//34 55//36 90//69
f 53//34 90//69 89//68
f 55//36 57//38 91//70
f 55//36 91//70 90//69
f 57//38 59//40 92//71
f 57//38 92//71 91//70
f 59//40 61//42 93//72
f 59//40 93//72 92//71
f 61//42 63//44 94//73
f 61//42 94//73 93//72
f 63//44 65//46 95//74
f 63//44 95//74 94//73
f 65//46 67//48 96//75
f 65//46 96//75 95//74
f 67//48 69//50 97//76
f 67//48 97//76 96//75
f 69//50 71//52 98//77
f 69//50 98//77 97//76
f 71//52 73//54 99//78
f 71//52 99//78 98//77
f 73//54 75//56 100//79
f 73//54 100//79 99//78
f 75//56 77//58 101//80
f 75//56 101//80 100//79
f 77//58 79//60 102//81
f 77//58 102//81 101//80
f 79//60 81//62 103//82
f 79//60 103//82 102//81
f 81//62 83//26 104//64
f 81//62 104//64 103//82
f 85//64 84//63 105//83
f 85//64 105//83 106//84
f 84//63 86//65 107//85
f 84//63 107//85 105//83
f 86//65 87//66 108//86
f 86//65 108//86 107//85
f 87//66 88//67 109//87
f 87//66 109//87 108//86
f 88//67 89//68 110//88
f 88//67 110//88 109//87
f 89//68 90//69 111//89
f 89//68 111//89 110//88
f 90//69 91//70 112//90
f 90//69 112//90 111//89
f 91//70 92//71 113//91
f 91//70 113//91 112//90
f 92//71 93//72 114//92
f 92//71 114//92 113//91
f 93//72 94//73 115//93
f 93//72 115//93 114//92
f 94//73 95//74 116//94
f 94//73 116//94 115//93
f 95//74 96//75 117//95
f 95//74 117//95 116//94
f 96//75 97//76 118//96
f 96//75 118//96 117//95
f 97//76 98//77 119//97
f 97//76 119//97 118//96
f 98//77 99//78 120//98
f 98//77 120//98 119//97
f 99//78 100//79 121//99
f 99//78 121//99 120//98
f 100//79 101//80 122//100
f 100//79 122//100 121//99
f 101//80 102//81 123//101
f 101//80 123//101 122//100
f 102//81 103//82 124//102
f 102//81 124//102 123//101
f 103//82 104//64 125//84
f 103//82 125//84 124//102
f 106//84 105//83 2//2
f 106//84 2//2 1//1
f 105//83 107//85 4//4
f 105//83 4//4 2//2
f 107//85 108//86 6//5
f 107//85 6//5 4//4
f 108//86 109//87 8//6
f 108//86 8//6 6//5
f 109//87 110//88 10//7
f 109//87 10//7 8//6
f 110//88 111//89 12//8
f 110//88 12//8 10//7
f 111//89 112//90 14//10
f 111//89 14//10 12//8
f 112//90 113//91 16//11
f 112//90 16//11 14//10
f 113//91 114//92 18//12
f 113//91 18//12 16//11
f 114//92 115//93 20//13
f 114//92 20//13 18//12
f 115//93 116//94 22//14
f 115//93 22//14 20//13
f 116//94 117//95 24//15
f 116//94 24//15 22//14
f 117//95 118//96 26//16
f 117//95 26//16 24//15
f 118//96 119//97 28//17
f 118//96 28//17 26//16
f 119//97 120//98 30//18
f 119//97 30//18 28//17
f 120//98 121//99 32//19
f 120//98 32//19 30//18
f 121//99 122//100 34//20
f 121//99 34//20 32//19
f 122//100 123//101 36//21
f 122//100 36//21 34//20
f 123//101 124//102 38//22
f 123//101 38//22 36//21
f 124//102 125//84 40//1
f 124//102 40//1 38//22
