# Blender 4.4.1
# www.blender.org
mtllib SM_pCylinder135_blinn3_0_0.mtl
o SM_pCylinder135_blinn3_0_0
v 0.356250 -0.870571 -0.258831
v 0.418797 -0.870572 -0.136072
v -0.000000 -0.870567 -0.000002
v 0.258831 -0.870571 -0.356249
v 0.136075 -0.870571 -0.418797
v 0.000000 -0.870572 -0.440346
v -0.136075 -0.870572 -0.418797
v -0.258832 -0.870571 -0.356249
v -0.356250 -0.870571 -0.258831
v -0.418797 -0.870571 -0.136072
v -0.440350 -0.870571 0.000000
v -0.418797 -0.870571 0.136080
v -0.356250 -0.870571 0.258833
v -0.258830 -0.870571 0.356253
v -0.136075 -0.870571 0.418798
v 0.000000 -0.870571 0.440353
v 0.136075 -0.870571 0.418798
v 0.258831 -0.870571 0.356253
v 0.356251 -0.870571 0.258833
v 0.418797 -0.870571 0.136080
v 0.440349 -0.870572 0.000000
v 0.355759 -0.865411 -0.258474
v 0.000000 -0.865411 0.000000
v 0.418220 -0.865411 -0.135885
v 0.258474 -0.865411 -0.355759
v 0.135888 -0.865411 -0.418219
v 0.000000 -0.865411 -0.439739
v -0.135888 -0.865411 -0.418219
v -0.258474 -0.865411 -0.355759
v -0.355759 -0.865411 -0.258474
v -0.418219 -0.865411 -0.135885
v -0.439742 -0.865411 0.000000
v -0.418219 -0.865411 0.135891
v -0.355759 -0.865411 0.258474
v -0.258473 -0.865411 0.355761
v -0.135887 -0.865411 0.418221
v 0.000000 -0.865411 0.439747
v 0.135887 -0.865411 0.418221
v 0.258473 -0.865411 0.355761
v 0.355759 -0.865411 0.258474
v 0.418219 -0.865411 0.135891
v 0.439742 -0.865411 0.000000
v 0.528401 -0.712110 -0.171686
v 0.449485 -0.712111 -0.326569
v 0.157003 0.347969 -0.114067
v 0.184568 0.347971 -0.059967
v 0.326570 -0.712111 -0.449480
v 0.114069 0.347969 -0.157001
v 0.171688 -0.712111 -0.528400
v 0.059970 0.347969 -0.184565
v 0.000000 -0.712111 -0.555592
v -0.000000 0.347969 -0.194063
v -0.171688 -0.712111 -0.528400
v -0.059970 0.347969 -0.184565
v -0.326570 -0.712111 -0.449482
v -0.114070 0.347969 -0.157001
v -0.449485 -0.712111 -0.326569
v -0.157003 0.347969 -0.114067
v -0.528401 -0.712111 -0.171686
v -0.184568 0.347969 -0.059969
v -0.555594 -0.712111 0.000000
v -0.194067 0.347969 0.000000
v -0.528401 -0.712111 0.171690
v -0.184568 0.347969 0.059973
v -0.449485 -0.712111 0.326571
v -0.157003 0.347969 0.114071
v -0.326569 -0.712111 0.449488
v -0.114070 0.347969 0.157005
v -0.171688 -0.712111 0.528402
v -0.059970 0.347969 0.184568
v 0.000000 -0.712111 0.555595
v -0.000000 0.347969 0.194069
v 0.171688 -0.712111 0.528402
v 0.059970 0.347969 0.184568
v 0.326570 -0.712111 0.449488
v 0.114069 0.347969 0.157003
v 0.449485 -0.712111 0.326571
v 0.157003 0.347969 0.114071
v 0.528401 -0.712111 0.171690
v 0.184568 0.347969 0.059973
v 0.555594 -0.712111 0.000000
v 0.194066 0.347969 0.000000
v 0.528401 -0.712110 -0.171686
v 0.184568 0.347971 -0.059967
v 0.471183 -0.857430 -0.153097
v 0.400812 -0.857430 -0.291206
v 0.512507 -0.820445 -0.166523
v 0.435964 -0.820445 -0.316742
v 0.533090 -0.767884 -0.173212
v 0.453473 -0.767883 -0.329466
v 0.512507 -0.820445 -0.166523
v 0.435964 -0.820445 -0.316742
v 0.291208 -0.857431 -0.400810
v 0.316746 -0.820445 -0.435959
v 0.329468 -0.767884 -0.453470
v 0.316746 -0.820445 -0.435959
v 0.153097 -0.857431 -0.471180
v 0.166523 -0.820445 -0.512505
v 0.173212 -0.767885 -0.533087
v 0.166523 -0.820445 -0.512505
v 0.000000 -0.857431 -0.495430
v 0.000000 -0.820445 -0.538881
v 0.000000 -0.767883 -0.560524
v 0.000000 -0.820445 -0.538881
v -0.153097 -0.857431 -0.471182
v -0.166523 -0.820445 -0.512505
v -0.173212 -0.767883 -0.533087
v -0.166523 -0.820445 -0.512505
v -0.291207 -0.857430 -0.400810
v -0.316746 -0.820445 -0.435959
v -0.329468 -0.767885 -0.453470
v -0.316746 -0.820445 -0.435959
v -0.400812 -0.857430 -0.291206
v -0.435964 -0.820445 -0.316744
v -0.453474 -0.767884 -0.329466
v -0.435964 -0.820445 -0.316744
v -0.471182 -0.857430 -0.153097
v -0.512507 -0.820445 -0.166525
v -0.533089 -0.767883 -0.173210
v -0.512507 -0.820445 -0.166525
v -0.495431 -0.857430 0.000000
v -0.538881 -0.820445 0.000000
v -0.560524 -0.767884 0.000000
v -0.538881 -0.820445 0.000000
v -0.471183 -0.857430 0.153097
v -0.512506 -0.820445 0.166525
v -0.533090 -0.767885 0.173214
v -0.512506 -0.820445 0.166525
v -0.400812 -0.857430 0.291206
v -0.435963 -0.820445 0.316746
v -0.453473 -0.767885 0.329466
v -0.435963 -0.820445 0.316746
v -0.291207 -0.857431 0.400814
v -0.316746 -0.820445 0.435963
v -0.329467 -0.767884 0.453474
v -0.316746 -0.820445 0.435963
v -0.153096 -0.857431 0.471184
v -0.166523 -0.820445 0.512508
v -0.173210 -0.767883 0.533091
v -0.166523 -0.820445 0.512508
v 0.000000 -0.857430 0.495436
v 0.000000 -0.820445 0.538885
v 0.000000 -0.767883 0.560524
v 0.000000 -0.820445 0.538885
v 0.153096 -0.857430 0.471184
v 0.166523 -0.820445 0.512508
v 0.173211 -0.767884 0.533094
v 0.166523 -0.820445 0.512508
v 0.291207 -0.857431 0.400814
v 0.316746 -0.820445 0.435965
v 0.329467 -0.767885 0.453474
v 0.316746 -0.820445 0.435965
v 0.400812 -0.857430 0.291206
v 0.435964 -0.820445 0.316746
v 0.453473 -0.767883 0.329466
v 0.435964 -0.820445 0.316746
v 0.471183 -0.857431 0.153097
v 0.512506 -0.820445 0.166527
v 0.533089 -0.767883 0.173214
v 0.512506 -0.820445 0.166527
v 0.495431 -0.857430 0.000000
v 0.538881 -0.820445 0.000000
v 0.560523 -0.767883 0.000000
v 0.538881 -0.820445 0.000000
v 0.512507 -0.820445 -0.166523
v 0.533090 -0.767884 -0.173212
v 0.184567 0.808147 -0.059967
v 0.189160 0.822088 -0.061459
v 0.198895 0.822086 0.000000
v 0.194066 0.808147 0.000000
v 0.189160 0.822088 -0.061459
v 0.184567 0.808147 -0.059967
v 0.157003 0.808147 -0.114067
v 0.160909 0.822088 -0.116903
v 0.114069 0.808147 -0.157001
v 0.116908 0.822088 -0.160906
v 0.059970 0.808147 -0.184566
v 0.061462 0.822088 -0.189157
v -0.000000 0.808147 -0.194065
v -0.000000 0.822088 -0.198893
v -0.059970 0.808147 -0.184566
v -0.061462 0.822086 -0.189157
v -0.114070 0.808147 -0.157001
v -0.116907 0.822088 -0.160906
v -0.157003 0.808147 -0.114065
v -0.160909 0.822086 -0.116903
v -0.184568 0.808147 -0.059967
v -0.189161 0.822086 -0.061459
v -0.194066 0.808147 0.000000
v -0.198896 0.822086 0.000000
v -0.184568 0.808147 0.059971
v -0.189160 0.822088 0.061468
v -0.157003 0.808147 0.114071
v -0.160909 0.822086 0.116909
v -0.114069 0.808147 0.157003
v -0.116907 0.822086 0.160913
v -0.059970 0.808147 0.184568
v -0.061462 0.822086 0.189161
v -0.000000 0.808147 0.194069
v -0.000000 0.822086 0.198898
v 0.059969 0.808147 0.184568
v 0.061462 0.822088 0.189161
v 0.114069 0.808147 0.157003
v 0.116907 0.822088 0.160913
v 0.157003 0.808147 0.114071
v 0.160910 0.822086 0.116909
v 0.184567 0.808147 0.059973
v 0.189160 0.822088 0.061468
v 0.189160 0.822088 -0.061459
v 0.160909 0.822088 -0.116903
v 0.168976 0.834763 -0.122765
v 0.198642 0.834764 -0.064537
v 0.160909 0.822088 -0.116903
v 0.116908 0.822088 -0.160906
v 0.122768 0.834764 -0.168972
v 0.168976 0.834763 -0.122765
v 0.116908 0.822088 -0.160906
v 0.061462 0.822088 -0.189157
v 0.064543 0.834764 -0.198639
v 0.122768 0.834764 -0.168972
v 0.061462 0.822088 -0.189157
v -0.000000 0.822088 -0.198893
v -0.000000 0.834764 -0.208860
v 0.064543 0.834764 -0.198639
v -0.000000 0.822088 -0.198893
v -0.061462 0.822086 -0.189157
v -0.064543 0.834764 -0.198637
v -0.000000 0.834764 -0.208860
v -0.061462 0.822086 -0.189157
v -0.116907 0.822088 -0.160906
v -0.122768 0.834764 -0.168972
v -0.064543 0.834764 -0.198637
v -0.116907 0.822088 -0.160906
v -0.160909 0.822086 -0.116903
v -0.168975 0.834764 -0.122765
v -0.122768 0.834764 -0.168972
v -0.160909 0.822086 -0.116903
v -0.189161 0.822086 -0.061459
v -0.198642 0.834764 -0.064537
v -0.168975 0.834764 -0.122765
v -0.189161 0.822086 -0.061459
v -0.198896 0.822086 0.000000
v -0.208866 0.834764 0.000000
v -0.198642 0.834764 -0.064537
v -0.198896 0.822086 0.000000
v -0.189160 0.822088 0.061468
v -0.198643 0.834764 0.064548
v -0.208866 0.834764 0.000000
v -0.189160 0.822088 0.061468
v -0.160909 0.822086 0.116909
v -0.168976 0.834764 0.122770
v -0.198643 0.834764 0.064548
v -0.160909 0.822086 0.116909
v -0.116907 0.822086 0.160913
v -0.122768 0.834764 0.168978
v -0.168976 0.834764 0.122770
v -0.116907 0.822086 0.160913
v -0.061462 0.822086 0.189161
v -0.064543 0.834764 0.198643
v -0.122768 0.834764 0.168978
v -0.061462 0.822086 0.189161
v -0.000000 0.822086 0.198898
v -0.000000 0.834764 0.208868
v -0.064543 0.834764 0.198643
v -0.000000 0.822086 0.198898
v 0.061462 0.822088 0.189161
v 0.064543 0.834764 0.198643
v -0.000000 0.834764 0.208868
v 0.061462 0.822088 0.189161
v 0.116907 0.822088 0.160913
v 0.122768 0.834764 0.168978
v 0.064543 0.834764 0.198643
v 0.116907 0.822088 0.160913
v 0.160910 0.822086 0.116909
v 0.168975 0.834764 0.122770
v 0.122768 0.834764 0.168978
v 0.160910 0.822086 0.116909
v 0.189160 0.822088 0.061468
v 0.198642 0.834764 0.064548
v 0.168975 0.834764 0.122770
v 0.189160 0.822088 0.061468
v 0.198895 0.822086 0.000000
v 0.208865 0.834764 0.000000
v 0.198642 0.834764 0.064548
v 0.198895 0.822086 0.000000
v 0.189160 0.822088 -0.061459
v 0.198642 0.834764 -0.064537
v 0.208865 0.834764 0.000000
v 0.523509 -0.713198 -0.170097
v 0.179603 0.347103 -0.058355
v 0.152780 0.347103 -0.110998
v 0.445323 -0.713198 -0.323545
v 0.111001 0.347103 -0.152779
v 0.323546 -0.713198 -0.445320
v 0.058357 0.347103 -0.179602
v 0.170098 -0.713198 -0.523508
v -0.000000 0.347103 -0.188845
v 0.000000 -0.713198 -0.550447
v -0.058357 0.347103 -0.179602
v -0.170099 -0.713198 -0.523508
v -0.111001 0.347103 -0.152779
v -0.323546 -0.713198 -0.445320
v -0.152780 0.347103 -0.110998
v -0.445323 -0.713198 -0.323545
v -0.179604 0.347103 -0.058355
v -0.523509 -0.713198 -0.170097
v -0.188846 0.347103 0.000000
v -0.550450 -0.713198 0.000000
v -0.179604 0.347103 0.058359
v -0.523509 -0.713198 0.170099
v -0.152780 0.347103 0.111002
v -0.445323 -0.713198 0.323547
v -0.111001 0.347103 0.152781
v -0.323546 -0.713198 0.445326
v -0.058357 0.347103 0.179604
v -0.170099 -0.713198 0.523512
v -0.000000 0.347103 0.188848
v 0.000000 -0.713198 0.550451
v 0.058357 0.347103 0.179604
v 0.170098 -0.713198 0.523512
v 0.111001 0.347103 0.152781
v 0.323546 -0.713198 0.445326
v 0.152780 0.347103 0.111002
v 0.445323 -0.713198 0.323547
v 0.179603 0.347103 0.058359
v 0.523509 -0.713198 0.170099
v 0.188846 0.347103 0.000000
v 0.550450 -0.713198 0.000000
v 0.179603 0.347103 -0.058355
v 0.523509 -0.713198 -0.170097
v 0.468893 -0.852685 -0.152353
v 0.398864 -0.852685 -0.289791
v 0.508390 -0.817300 -0.165186
v 0.432462 -0.817300 -0.314199
v 0.449177 -0.767075 -0.326344
v 0.528039 -0.767075 -0.171570
v 0.432462 -0.817300 -0.314199
v 0.508390 -0.817300 -0.165186
v 0.289792 -0.852685 -0.398863
v 0.314202 -0.817300 -0.432459
v 0.326346 -0.767075 -0.449175
v 0.314202 -0.817300 -0.432459
v 0.152353 -0.852685 -0.468891
v 0.165186 -0.817300 -0.508389
v 0.171570 -0.767075 -0.528036
v 0.165186 -0.817300 -0.508389
v 0.000000 -0.852685 -0.493023
v 0.000000 -0.817300 -0.534552
v 0.000000 -0.767075 -0.555214
v 0.000000 -0.817300 -0.534552
v -0.152352 -0.852685 -0.468891
v -0.165186 -0.817300 -0.508389
v -0.171571 -0.767075 -0.528036
v -0.165186 -0.817300 -0.508389
v -0.289792 -0.852685 -0.398863
v -0.314202 -0.817300 -0.432459
v -0.326346 -0.767075 -0.449175
v -0.314202 -0.817300 -0.432459
v -0.398865 -0.852685 -0.289791
v -0.432462 -0.817300 -0.314199
v -0.449177 -0.767075 -0.326344
v -0.432462 -0.817300 -0.314199
v -0.468893 -0.852685 -0.152353
v -0.508389 -0.817300 -0.165186
v -0.528039 -0.767075 -0.171570
v -0.508389 -0.817300 -0.165186
v -0.493024 -0.852685 0.000000
v -0.534553 -0.817300 0.000000
v -0.555213 -0.767075 0.000000
v -0.534553 -0.817300 0.000000
v -0.468893 -0.852685 0.152353
v -0.508389 -0.817300 0.165188
v -0.528039 -0.767075 0.171572
v -0.508389 -0.817300 0.165188
v -0.398864 -0.852685 0.289791
v -0.432462 -0.817300 0.314201
v -0.449177 -0.767075 0.326345
v -0.432462 -0.817300 0.314201
v -0.289792 -0.852685 0.398865
v -0.314202 -0.817300 0.432463
v -0.326346 -0.767075 0.449179
v -0.314202 -0.817300 0.432463
v -0.152352 -0.852685 0.468893
v -0.165186 -0.817300 0.508392
v -0.171570 -0.767075 0.528044
v -0.165186 -0.817300 0.508392
v 0.000000 -0.852685 0.493027
v 0.000000 -0.817300 0.534555
v 0.000000 -0.767075 0.555214
v 0.000000 -0.817300 0.534555
v 0.152352 -0.852685 0.468893
v 0.165185 -0.817300 0.508392
v 0.171570 -0.767075 0.528044
v 0.165185 -0.817300 0.508392
v 0.289792 -0.852685 0.398865
v 0.314202 -0.817300 0.432463
v 0.326346 -0.767075 0.449179
v 0.314202 -0.817300 0.432463
v 0.398864 -0.852685 0.289791
v 0.432462 -0.817300 0.314201
v 0.449177 -0.767075 0.326345
v 0.432462 -0.817300 0.314201
v 0.468893 -0.852685 0.152353
v 0.508389 -0.817300 0.165188
v 0.528039 -0.767075 0.171572
v 0.508389 -0.817300 0.165188
v 0.493023 -0.852685 0.000000
v 0.534552 -0.817300 0.000000
v 0.555213 -0.767075 0.000000
v 0.534552 -0.817300 0.000000
v 0.508390 -0.817300 -0.165186
v 0.528039 -0.767075 -0.171570
v 0.179603 0.809029 -0.058355
v 0.188846 0.809029 0.000000
v 0.194263 0.824623 0.000000
v 0.184755 0.824623 -0.060028
v 0.184755 0.824623 -0.060028
v 0.157162 0.824623 -0.114182
v 0.152780 0.809029 -0.110998
v 0.179603 0.809029 -0.058355
v 0.114185 0.824623 -0.157160
v 0.111001 0.809029 -0.152779
v 0.060030 0.824623 -0.184753
v 0.058357 0.809029 -0.179602
v -0.000000 0.824623 -0.194262
v -0.000000 0.809029 -0.188845
v -0.060031 0.824623 -0.184753
v -0.058357 0.809029 -0.179602
v -0.114185 0.824623 -0.157160
v -0.111001 0.809029 -0.152779
v -0.157162 0.824623 -0.114182
v -0.152780 0.809029 -0.110998
v -0.184755 0.824623 -0.060028
v -0.179604 0.809029 -0.058355
v -0.194263 0.824623 0.000000
v -0.188846 0.809029 0.000000
v -0.184755 0.824623 0.060036
v -0.179604 0.809029 0.058359
v -0.157162 0.824623 0.114185
v -0.152780 0.809029 0.111002
v -0.114185 0.824623 0.157166
v -0.111001 0.809029 0.152781
v -0.060030 0.824623 0.184755
v -0.058357 0.809029 0.179604
v -0.000000 0.824623 0.194265
v -0.000000 0.809029 0.188848
v 0.060030 0.824623 0.184755
v 0.058357 0.809029 0.179604
v 0.114185 0.824623 0.157166
v 0.111001 0.809029 0.152781
v 0.157162 0.824623 0.114185
v 0.152780 0.809029 0.111002
v 0.184755 0.824623 0.060036
v 0.179603 0.809029 0.058359
v 0.184755 0.824623 -0.060028
v 0.194757 0.837980 -0.063276
v 0.165670 0.837980 -0.120363
v 0.157162 0.824623 -0.114182
v 0.157162 0.824623 -0.114182
v 0.165670 0.837980 -0.120363
v 0.120367 0.837980 -0.165667
v 0.114185 0.824623 -0.157160
v 0.114185 0.824623 -0.157160
v 0.120367 0.837980 -0.165667
v 0.063280 0.837980 -0.194754
v 0.060030 0.824623 -0.184753
v 0.060030 0.824623 -0.184753
v 0.063280 0.837980 -0.194754
v -0.000000 0.837980 -0.204777
v -0.000000 0.824623 -0.194262
v -0.000000 0.824623 -0.194262
v -0.000000 0.837980 -0.204777
v -0.063280 0.837980 -0.194754
v -0.060031 0.824623 -0.184753
v -0.060031 0.824623 -0.184753
v -0.063280 0.837980 -0.194754
v -0.120367 0.837980 -0.165667
v -0.114185 0.824623 -0.157160
v -0.114185 0.824623 -0.157160
v -0.120367 0.837980 -0.165667
v -0.165671 0.837980 -0.120363
v -0.157162 0.824623 -0.114182
v -0.157162 0.824623 -0.114182
v -0.165671 0.837980 -0.120363
v -0.194757 0.837980 -0.063276
v -0.184755 0.824623 -0.060028
v -0.184755 0.824623 -0.060028
v -0.194757 0.837980 -0.063276
v -0.204780 0.837980 0.000000
v -0.194263 0.824623 0.000000
v -0.194263 0.824623 0.000000
v -0.204780 0.837980 0.000000
v -0.194757 0.837980 0.063286
v -0.184755 0.824623 0.060036
v -0.184755 0.824623 0.060036
v -0.194757 0.837980 0.063286
v -0.165671 0.837980 0.120369
v -0.157162 0.824623 0.114185
v -0.157162 0.824623 0.114185
v -0.165671 0.837980 0.120369
v -0.120367 0.837980 0.165672
v -0.114185 0.824623 0.157166
v -0.114185 0.824623 0.157166
v -0.120367 0.837980 0.165672
v -0.063280 0.837980 0.194757
v -0.060030 0.824623 0.184755
v -0.060030 0.824623 0.184755
v -0.063280 0.837980 0.194757
v -0.000000 0.837980 0.204782
v -0.000000 0.824623 0.194265
v -0.000000 0.824623 0.194265
v -0.000000 0.837980 0.204782
v 0.063280 0.837980 0.194757
v 0.060030 0.824623 0.184755
v 0.060030 0.824623 0.184755
v 0.063280 0.837980 0.194757
v 0.120367 0.837980 0.165672
v 0.114185 0.824623 0.157166
v 0.114185 0.824623 0.157166
v 0.120367 0.837980 0.165672
v 0.165670 0.837980 0.120369
v 0.157162 0.824623 0.114185
v 0.157162 0.824623 0.114185
v 0.165670 0.837980 0.120369
v 0.194757 0.837980 0.063286
v 0.184755 0.824623 0.060036
v 0.184755 0.824623 0.060036
v 0.194757 0.837980 0.063286
v 0.204780 0.837980 0.000000
v 0.194263 0.824623 0.000000
v 0.194263 0.824623 0.000000
v 0.204780 0.837980 0.000000
v 0.194757 0.837980 -0.063276
v 0.184755 0.824623 -0.060028
v 0.165670 0.837980 -0.120363
v 0.194757 0.837980 -0.063276
v 0.198642 0.834764 -0.064537
v 0.168976 0.834763 -0.122765
v 0.120367 0.837980 -0.165667
v 0.165670 0.837980 -0.120363
v 0.168976 0.834763 -0.122765
v 0.122768 0.834764 -0.168972
v 0.063280 0.837980 -0.194754
v 0.120367 0.837980 -0.165667
v 0.122768 0.834764 -0.168972
v 0.064543 0.834764 -0.198639
v -0.000000 0.837980 -0.204777
v 0.063280 0.837980 -0.194754
v 0.064543 0.834764 -0.198639
v -0.000000 0.834764 -0.208860
v -0.063280 0.837980 -0.194754
v -0.000000 0.837980 -0.204777
v -0.000000 0.834764 -0.208860
v -0.064543 0.834764 -0.198637
v -0.120367 0.837980 -0.165667
v -0.063280 0.837980 -0.194754
v -0.064543 0.834764 -0.198637
v -0.122768 0.834764 -0.168972
v -0.165671 0.837980 -0.120363
v -0.120367 0.837980 -0.165667
v -0.122768 0.834764 -0.168972
v -0.168975 0.834764 -0.122765
v -0.194757 0.837980 -0.063276
v -0.165671 0.837980 -0.120363
v -0.168975 0.834764 -0.122765
v -0.198642 0.834764 -0.064537
v -0.204780 0.837980 0.000000
v -0.194757 0.837980 -0.063276
v -0.198642 0.834764 -0.064537
v -0.208866 0.834764 0.000000
v -0.194757 0.837980 0.063286
v -0.204780 0.837980 0.000000
v -0.208866 0.834764 0.000000
v -0.198643 0.834764 0.064548
v -0.165671 0.837980 0.120369
v -0.194757 0.837980 0.063286
v -0.198643 0.834764 0.064548
v -0.168976 0.834764 0.122770
v -0.120367 0.837980 0.165672
v -0.165671 0.837980 0.120369
v -0.168976 0.834764 0.122770
v -0.122768 0.834764 0.168978
v -0.063280 0.837980 0.194757
v -0.120367 0.837980 0.165672
v -0.122768 0.834764 0.168978
v -0.064543 0.834764 0.198643
v -0.000000 0.837980 0.204782
v -0.063280 0.837980 0.194757
v -0.064543 0.834764 0.198643
v -0.000000 0.834764 0.208868
v 0.063280 0.837980 0.194757
v -0.000000 0.837980 0.204782
v -0.000000 0.834764 0.208868
v 0.064543 0.834764 0.198643
v 0.120367 0.837980 0.165672
v 0.063280 0.837980 0.194757
v 0.064543 0.834764 0.198643
v 0.122768 0.834764 0.168978
v 0.165670 0.837980 0.120369
v 0.120367 0.837980 0.165672
v 0.122768 0.834764 0.168978
v 0.168975 0.834764 0.122770
v 0.194757 0.837980 0.063286
v 0.165670 0.837980 0.120369
v 0.168975 0.834764 0.122770
v 0.198642 0.834764 0.064548
v 0.204780 0.837980 0.000000
v 0.194757 0.837980 0.063286
v 0.198642 0.834764 0.064548
v 0.208865 0.834764 0.000000
v 0.194757 0.837980 -0.063276
v 0.204780 0.837980 0.000000
v 0.208865 0.834764 0.000000
v 0.198642 0.834764 -0.064537
vn 0.0472 -0.9983 -0.0343
vn 0.0554 -0.9983 -0.0180
vn -0.0000 -1.0000 -0.0000
vn 0.0343 -0.9983 -0.0472
vn 0.0180 -0.9983 -0.0554
vn -0.0000 -0.9983 -0.0583
vn -0.0180 -0.9983 -0.0554
vn -0.0343 -0.9983 -0.0472
vn -0.0472 -0.9983 -0.0343
vn -0.0554 -0.9983 -0.0180
vn -0.0583 -0.9983 -0.0000
vn -0.0554 -0.9983 0.0180
vn -0.0472 -0.9983 0.0343
vn -0.0343 -0.9983 0.0471
vn -0.0180 -0.9983 0.0555
vn -0.0000 -0.9983 0.0583
vn 0.0180 -0.9983 0.0554
vn 0.0343 -0.9983 0.0472
vn 0.0472 -0.9983 0.0343
vn 0.0555 -0.9983 0.0180
vn 0.0583 -0.9983 -0.0000
vn 0.0680 -0.9871 -0.1448
vn 0.1571 -0.9871 0.0301
vn 0.0199 -0.9871 -0.1587
vn -0.0301 -0.9871 -0.1571
vn -0.0772 -0.9871 -0.1401
vn -0.1167 -0.9871 -0.1094
vn -0.1448 -0.9871 -0.0680
vn -0.1587 -0.9871 -0.0199
vn -0.1571 -0.9871 0.0301
vn -0.1401 -0.9871 0.0772
vn -0.1094 -0.9871 0.1167
vn -0.0680 -0.9871 0.1448
vn -0.0199 -0.9871 0.1587
vn 0.0301 -0.9871 0.1571
vn 0.0772 -0.9871 0.1401
vn 0.1167 -0.9871 0.1094
vn 0.1448 -0.9871 0.0680
vn 0.1587 -0.9871 0.0199
vn 0.1571 -0.9871 -0.0301
vn 0.1401 -0.9871 -0.0772
vn 0.9053 0.3064 -0.2943
vn 0.7701 0.3064 -0.5595
vn 0.7791 0.2695 -0.5660
vn 0.9158 0.2696 -0.2977
vn 0.5595 0.3064 -0.7701
vn 0.5660 0.2695 -0.7791
vn 0.2942 0.3063 -0.9053
vn 0.2976 0.2696 -0.9158
vn -0.0000 0.3064 -0.9519
vn -0.0000 0.2695 -0.9630
vn -0.2942 0.3063 -0.9053
vn -0.2976 0.2696 -0.9158
vn -0.5595 0.3064 -0.7701
vn -0.5660 0.2695 -0.7791
vn -0.7701 0.3064 -0.5595
vn -0.7791 0.2695 -0.5660
vn -0.9053 0.3064 -0.2942
vn -0.9159 0.2695 -0.2976
vn -0.9519 0.3064 -0.0000
vn -0.9630 0.2695 -0.0000
vn -0.9053 0.3064 0.2942
vn -0.9159 0.2695 0.2976
vn -0.7701 0.3063 0.5595
vn -0.7791 0.2695 0.5660
vn -0.5595 0.3063 0.7701
vn -0.5660 0.2695 0.7791
vn -0.2942 0.3064 0.9053
vn -0.2976 0.2695 0.9159
vn -0.0000 0.3063 0.9519
vn -0.0000 0.2695 0.9630
vn 0.2942 0.3063 0.9053
vn 0.2976 0.2695 0.9159
vn 0.5595 0.3063 0.7701
vn 0.5660 0.2695 0.7791
vn 0.7701 0.3063 0.5595
vn 0.7791 0.2695 0.5660
vn 0.9053 0.3064 0.2942
vn 0.9159 0.2695 0.2976
vn 0.9519 0.3064 -0.0000
vn 0.9630 0.2695 -0.0000
vn 0.9053 0.3064 -0.2941
vn 0.9159 0.2696 -0.2975
vn 0.4588 -0.8759 -0.1491
vn 0.3903 -0.8759 -0.2836
vn 0.7810 -0.5706 -0.2537
vn 0.6644 -0.5707 -0.4827
vn 0.9407 -0.1470 -0.3058
vn 0.8002 -0.1473 -0.5814
vn 0.7811 -0.5704 -0.2539
vn 0.6645 -0.5704 -0.4828
vn 0.2836 -0.8759 -0.3903
vn 0.4827 -0.5706 -0.6643
vn 0.5814 -0.1472 -0.8002
vn 0.4828 -0.5704 -0.6645
vn 0.1491 -0.8759 -0.4588
vn 0.2538 -0.5706 -0.7810
vn 0.3057 -0.1473 -0.9407
vn 0.2538 -0.5704 -0.7811
vn -0.0000 -0.8759 -0.4825
vn -0.0000 -0.5706 -0.8212
vn -0.0000 -0.1472 -0.9891
vn -0.0000 -0.5704 -0.8213
vn -0.1491 -0.8759 -0.4588
vn -0.2538 -0.5707 -0.7810
vn -0.3057 -0.1473 -0.9407
vn -0.2538 -0.5704 -0.7812
vn -0.2836 -0.8759 -0.3903
vn -0.4827 -0.5707 -0.6644
vn -0.5814 -0.1473 -0.8002
vn -0.4828 -0.5704 -0.6645
vn -0.3903 -0.8759 -0.2836
vn -0.6644 -0.5706 -0.4827
vn -0.8002 -0.1473 -0.5814
vn -0.6645 -0.5704 -0.4828
vn -0.4588 -0.8759 -0.1491
vn -0.7810 -0.5707 -0.2538
vn -0.9407 -0.1472 -0.3056
vn -0.7812 -0.5704 -0.2538
vn -0.4824 -0.8759 -0.0000
vn -0.8212 -0.5706 -0.0000
vn -0.9891 -0.1472 -0.0000
vn -0.8213 -0.5704 -0.0000
vn -0.4589 -0.8759 0.1491
vn -0.7810 -0.5706 0.2537
vn -0.9407 -0.1473 0.3057
vn -0.7811 -0.5704 0.2538
vn -0.3903 -0.8759 0.2836
vn -0.6644 -0.5706 0.4827
vn -0.8003 -0.1468 0.5814
vn -0.6645 -0.5704 0.4828
vn -0.2836 -0.8759 0.3903
vn -0.4827 -0.5706 0.6643
vn -0.5814 -0.1473 0.8002
vn -0.4828 -0.5704 0.6645
vn -0.1491 -0.8759 0.4588
vn -0.2538 -0.5706 0.7810
vn -0.3056 -0.1472 0.9407
vn -0.2538 -0.5704 0.7812
vn -0.0000 -0.8759 0.4824
vn -0.0000 -0.5706 0.8212
vn -0.0000 -0.1472 0.9891
vn -0.0000 -0.5704 0.8214
vn 0.1491 -0.8759 0.4588
vn 0.2538 -0.5706 0.7810
vn 0.3056 -0.1472 0.9407
vn 0.2538 -0.5704 0.7812
vn 0.2836 -0.8759 0.3903
vn 0.4827 -0.5707 0.6644
vn 0.5814 -0.1473 0.8002
vn 0.4828 -0.5704 0.6645
vn 0.3903 -0.8759 0.2836
vn 0.6644 -0.5706 0.4827
vn 0.8002 -0.1472 0.5814
vn 0.6645 -0.5704 0.4828
vn 0.4588 -0.8759 0.1491
vn 0.7810 -0.5706 0.2538
vn 0.9407 -0.1472 0.3057
vn 0.7811 -0.5704 0.2538
vn 0.4824 -0.8759 -0.0000
vn 0.8212 -0.5706 -0.0000
vn 0.9891 -0.1472 -0.0000
vn 0.8214 -0.5704 -0.0000
vn 0.7812 -0.5704 -0.2537
vn 0.9408 -0.1470 -0.3055
vn 0.9510 -0.0107 -0.3089
vn 0.8262 -0.4953 -0.2684
vn 0.8687 -0.4953 -0.0000
vn 0.9999 -0.0108 -0.0000
vn 0.8262 -0.4953 -0.2685
vn 0.9510 -0.0107 -0.3091
vn 0.8090 -0.0108 -0.5878
vn 0.7028 -0.4953 -0.5106
vn 0.5877 -0.0108 -0.8090
vn 0.5106 -0.4953 -0.7028
vn 0.3090 -0.0108 -0.9510
vn 0.2685 -0.4952 -0.8262
vn -0.0000 -0.0108 -0.9999
vn -0.0000 -0.4952 -0.8688
vn -0.3090 -0.0107 -0.9510
vn -0.2685 -0.4952 -0.8263
vn -0.5877 -0.0108 -0.8090
vn -0.5107 -0.4952 -0.7028
vn -0.8090 -0.0108 -0.5877
vn -0.7028 -0.4952 -0.5106
vn -0.9510 -0.0107 -0.3090
vn -0.8262 -0.4953 -0.2685
vn -0.9999 -0.0108 -0.0000
vn -0.8687 -0.4953 -0.0000
vn -0.9510 -0.0108 0.3090
vn -0.8262 -0.4953 0.2685
vn -0.8090 -0.0107 0.5877
vn -0.7028 -0.4953 0.5106
vn -0.5877 -0.0108 0.8090
vn -0.5106 -0.4953 0.7028
vn -0.3090 -0.0108 0.9510
vn -0.2684 -0.4953 0.8262
vn -0.0000 -0.0108 0.9999
vn -0.0000 -0.4952 0.8688
vn 0.3090 -0.0107 0.9510
vn 0.2685 -0.4953 0.8262
vn 0.5877 -0.0108 0.8090
vn 0.5106 -0.4953 0.7028
vn 0.8090 -0.0108 0.5878
vn 0.7028 -0.4953 0.5106
vn 0.9510 -0.0108 0.3090
vn 0.8262 -0.4953 0.2685
vn -0.8243 0.5057 0.2544
vn -0.6308 0.7063 0.3213
vn -0.6902 0.5058 0.5174
vn -0.6309 0.7062 0.3214
vn -0.7054 0.5058 0.4966
vn -0.5006 0.7063 0.5006
vn -0.4967 0.5057 0.7054
vn -0.5005 0.7063 0.5006
vn -0.5174 0.5057 0.6904
vn -0.3214 0.7062 0.6308
vn -0.2544 0.5057 0.8244
vn -0.3214 0.7063 0.6308
vn -0.2787 0.5057 0.8165
vn -0.1108 0.7062 0.6993
vn 0.0127 0.5056 0.8627
vn -0.1107 0.7062 0.6993
vn -0.0127 0.5056 0.8627
vn 0.1108 0.7062 0.6993
vn 0.2786 0.5055 0.8166
vn 0.2545 0.5056 0.8244
vn 0.3214 0.7062 0.6308
vn 0.5174 0.5057 0.6903
vn 0.3214 0.7061 0.6310
vn 0.4966 0.5057 0.7054
vn 0.5006 0.7062 0.5006
vn 0.7054 0.5056 0.4968
vn 0.5006 0.7063 0.5006
vn 0.6904 0.5057 0.5173
vn 0.6309 0.7062 0.3214
vn 0.8244 0.5056 0.2546
vn 0.6308 0.7062 0.3214
vn 0.8165 0.5056 0.2786
vn 0.6993 0.7062 0.1108
vn 0.8627 0.5056 -0.0126
vn 0.8626 0.5057 0.0127
vn 0.6992 0.7063 -0.1107
vn 0.8165 0.5057 -0.2787
vn 0.6993 0.7062 -0.1107
vn 0.8243 0.5057 -0.2545
vn 0.6308 0.7062 -0.3214
vn 0.6904 0.5057 -0.5173
vn 0.6308 0.7063 -0.3214
vn 0.7054 0.5057 -0.4968
vn 0.5006 0.7062 -0.5006
vn 0.4969 0.5056 -0.7053
vn 0.5173 0.5056 -0.6905
vn 0.3214 0.7061 -0.6309
vn 0.2545 0.5056 -0.8244
vn 0.3214 0.7062 -0.6309
vn 0.2786 0.5056 -0.8165
vn 0.1108 0.7062 -0.6993
vn -0.0126 0.5056 -0.8627
vn 0.0126 0.5056 -0.8627
vn -0.1108 0.7062 -0.6993
vn -0.2787 0.5057 -0.8165
vn -0.2544 0.5057 -0.8243
vn -0.3214 0.7062 -0.6308
vn -0.5172 0.5056 -0.6905
vn -0.4968 0.5056 -0.7054
vn -0.5006 0.7062 -0.5006
vn -0.7054 0.5056 -0.4968
vn -0.6904 0.5057 -0.5173
vn -0.6308 0.7062 -0.3214
vn -0.8243 0.5057 -0.2545
vn -0.6308 0.7062 -0.3215
vn -0.8165 0.5057 -0.2786
vn -0.6993 0.7062 -0.1107
vn -0.8627 0.5056 0.0127
vn -0.8627 0.5056 -0.0127
vn -0.6993 0.7062 0.1108
vn -0.8165 0.5057 0.2787
vn -0.6993 0.7062 0.1107
vn 0.7562 0.3067 -0.5781
vn 0.8490 0.1830 -0.4957
vn 0.7941 0.2486 -0.5546
vn 0.7117 0.1989 -0.6737
vn 0.6542 0.1830 -0.7338
vn 0.4687 0.1989 -0.8607
vn 0.3954 0.1830 -0.9001
vn 0.1798 0.1989 -0.9634
vn 0.0980 0.1830 -0.9782
vn -0.1267 0.1989 -0.9718
vn -0.2091 0.1830 -0.9606
vn -0.4209 0.1989 -0.8851
vn -0.4957 0.1830 -0.8490
vn -0.6737 0.1989 -0.7117
vn -0.7338 0.1830 -0.6542
vn -0.8607 0.1989 -0.4687
vn -0.9001 0.1830 -0.3955
vn -0.9634 0.1989 -0.1798
vn -0.9782 0.1830 -0.0980
vn -0.9718 0.1989 0.1267
vn -0.9606 0.1830 0.2091
vn -0.8851 0.1989 0.4208
vn -0.8490 0.1830 0.4957
vn -0.7117 0.1989 0.6737
vn -0.6542 0.1830 0.7338
vn -0.4687 0.1989 0.8607
vn -0.3955 0.1830 0.9001
vn -0.1798 0.1989 0.9634
vn -0.0980 0.1830 0.9782
vn 0.1267 0.1989 0.9718
vn 0.2091 0.1830 0.9606
vn 0.4208 0.1989 0.8851
vn 0.4957 0.1830 0.8490
vn 0.6737 0.1989 0.7117
vn 0.7338 0.1830 0.6542
vn 0.8607 0.1989 0.4687
vn 0.9001 0.1830 0.3955
vn 0.9634 0.1989 0.1798
vn 0.9782 0.1830 0.0980
vn 0.9718 0.1989 -0.1267
vn 0.9684 0.2488 -0.0179
vn 0.9515 0.3067 0.0234
vn 0.4550 -0.8767 -0.1564
vn 0.3879 -0.8829 -0.2646
vn 0.3899 -0.9121 -0.1267
vn 0.3317 -0.9121 -0.2410
vn 0.7991 -0.1476 -0.5828
vn 0.7840 -0.1367 -0.6055
vn 0.8009 -0.1411 -0.5819
vn 0.7475 -0.2326 -0.6222
vn 0.2871 -0.8829 -0.3716
vn 0.2410 -0.9121 -0.3317
vn 0.5799 -0.1476 -0.8012
vn 0.5819 -0.1411 -0.8009
vn 0.1583 -0.8829 -0.4421
vn 0.1267 -0.9121 -0.3898
vn 0.3040 -0.1476 -0.9412
vn 0.3059 -0.1410 -0.9415
vn 0.0139 -0.8829 -0.4693
vn -0.0000 -0.9121 -0.4100
vn -0.0018 -0.1476 -0.9890
vn -0.0000 -0.1411 -0.9900
vn -0.1319 -0.8829 -0.4507
vn -0.1267 -0.9121 -0.3899
vn -0.3073 -0.1476 -0.9401
vn -0.3059 -0.1411 -0.9415
vn -0.2646 -0.8829 -0.3879
vn -0.2410 -0.9121 -0.3317
vn -0.5828 -0.1476 -0.7991
vn -0.5819 -0.1411 -0.8009
vn -0.3716 -0.8829 -0.2871
vn -0.3317 -0.9121 -0.2410
vn -0.8011 -0.1475 -0.5800
vn -0.8009 -0.1411 -0.5819
vn -0.4421 -0.8829 -0.1583
vn -0.3899 -0.9121 -0.1267
vn -0.9412 -0.1476 -0.3039
vn -0.9415 -0.1411 -0.3059
vn -0.4693 -0.8829 -0.0139
vn -0.4099 -0.9121 -0.0000
vn -0.9891 -0.1475 0.0016
vn -0.9900 -0.1411 -0.0000
vn -0.4507 -0.8829 0.1319
vn -0.3899 -0.9121 0.1267
vn -0.9401 -0.1476 0.3073
vn -0.9415 -0.1411 0.3059
vn -0.3879 -0.8829 0.2647
vn -0.3316 -0.9121 0.2410
vn -0.7991 -0.1476 0.5828
vn -0.8009 -0.1411 0.5819
vn -0.2871 -0.8829 0.3716
vn -0.2409 -0.9121 0.3317
vn -0.5799 -0.1476 0.8012
vn -0.5819 -0.1411 0.8009
vn -0.1582 -0.8829 0.4421
vn -0.1267 -0.9121 0.3898
vn -0.3040 -0.1476 0.9412
vn -0.3059 -0.1412 0.9415
vn -0.0139 -0.8829 0.4694
vn -0.0000 -0.9121 0.4099
vn 0.0018 -0.1476 0.9891
vn -0.0000 -0.1410 0.9900
vn 0.1318 -0.8829 0.4507
vn 0.1267 -0.9121 0.3898
vn 0.3073 -0.1476 0.9401
vn 0.3059 -0.1412 0.9415
vn 0.2646 -0.8829 0.3879
vn 0.2410 -0.9121 0.3316
vn 0.5828 -0.1476 0.7991
vn 0.5819 -0.1411 0.8009
vn 0.3715 -0.8829 0.2871
vn 0.3317 -0.9121 0.2409
vn 0.8012 -0.1476 0.5799
vn 0.8009 -0.1411 0.5819
vn 0.4421 -0.8829 0.1583
vn 0.3899 -0.9121 0.1267
vn 0.9411 -0.1475 0.3043
vn 0.9415 -0.1411 0.3059
vn 0.4693 -0.8829 0.0139
vn 0.4099 -0.9121 -0.0000
vn 0.9890 -0.1476 -0.0018
vn 0.9900 -0.1411 -0.0000
vn 0.9704 -0.2327 0.0640
vn 0.9902 -0.1367 0.0289
vn 0.9993 -0.0253 -0.0273
vn 0.9919 -0.1272 -0.0000
vn 0.9744 -0.1629 0.1551
vn 0.8344 -0.4534 -0.3133
vn 0.8592 -0.4534 -0.2370
vn 0.6941 -0.2034 -0.6905
vn 0.8025 -0.1272 -0.5830
vn 0.8247 -0.0257 -0.5650
vn 0.4467 -0.2034 -0.8712
vn 0.5830 -0.1271 -0.8024
vn 0.1556 -0.2034 -0.9666
vn 0.3065 -0.1272 -0.9433
vn -0.1507 -0.2034 -0.9674
vn -0.0000 -0.1272 -0.9919
vn -0.4423 -0.2034 -0.8735
vn -0.3065 -0.1272 -0.9433
vn -0.6906 -0.2034 -0.6941
vn -0.5830 -0.1271 -0.8025
vn -0.8712 -0.2034 -0.4467
vn -0.8025 -0.1272 -0.5830
vn -0.9666 -0.2034 -0.1556
vn -0.9433 -0.1272 -0.3065
vn -0.9674 -0.2034 0.1507
vn -0.9919 -0.1272 -0.0000
vn -0.8735 -0.2035 0.4423
vn -0.9433 -0.1273 0.3065
vn -0.6940 -0.2034 0.6906
vn -0.8025 -0.1271 0.5830
vn -0.4466 -0.2035 0.8713
vn -0.5830 -0.1274 0.8024
vn -0.1556 -0.2035 0.9666
vn -0.3065 -0.1272 0.9433
vn 0.1507 -0.2034 0.9674
vn -0.0000 -0.1272 0.9919
vn 0.4423 -0.2034 0.8735
vn 0.3065 -0.1272 0.9433
vn 0.6906 -0.2035 0.6940
vn 0.5830 -0.1274 0.8024
vn 0.8712 -0.2035 0.4467
vn 0.8025 -0.1271 0.5830
vn 0.9666 -0.2034 0.1556
vn 0.9433 -0.1272 0.3065
vn -0.8280 0.4920 0.2691
vn -0.7472 0.6186 0.2429
vn -0.6357 0.6186 0.4617
vn -0.7044 0.4920 0.5116
vn -0.7043 0.4920 0.5118
vn -0.6356 0.6186 0.4619
vn -0.4619 0.6186 0.6356
vn -0.5118 0.4920 0.7043
vn -0.5117 0.4920 0.7044
vn -0.4617 0.6186 0.6357
vn -0.2429 0.6186 0.7472
vn -0.2691 0.4920 0.8280
vn -0.2689 0.4920 0.8280
vn -0.2427 0.6186 0.7473
vn -0.0001 0.6186 0.7857
vn -0.0001 0.4920 0.8706
vn 0.0001 0.4920 0.8706
vn 0.0001 0.6186 0.7857
vn 0.2427 0.6186 0.7473
vn 0.2689 0.4920 0.8280
vn 0.2691 0.4920 0.8280
vn 0.2429 0.6186 0.7472
vn 0.4617 0.6186 0.6357
vn 0.5117 0.4920 0.7044
vn 0.5118 0.4920 0.7043
vn 0.4619 0.6186 0.6356
vn 0.6356 0.6186 0.4619
vn 0.7043 0.4920 0.5118
vn 0.7044 0.4920 0.5116
vn 0.6357 0.6186 0.4617
vn 0.7472 0.6186 0.2429
vn 0.8279 0.4920 0.2691
vn 0.8280 0.4920 0.2690
vn 0.7473 0.6186 0.2427
vn 0.7857 0.6186 0.0001
vn 0.8706 0.4920 0.0001
vn 0.8706 0.4920 -0.0001
vn 0.7857 0.6186 -0.0001
vn 0.7473 0.6186 -0.2427
vn 0.8280 0.4920 -0.2689
vn 0.8279 0.4921 -0.2691
vn 0.7472 0.6186 -0.2429
vn 0.6357 0.6186 -0.4617
vn 0.7044 0.4920 -0.5116
vn 0.7042 0.4921 -0.5118
vn 0.6356 0.6186 -0.4619
vn 0.4619 0.6186 -0.6356
vn 0.5118 0.4921 -0.7042
vn 0.5116 0.4921 -0.7044
vn 0.4617 0.6186 -0.6357
vn 0.2429 0.6186 -0.7472
vn 0.2691 0.4920 -0.8279
vn 0.2690 0.4920 -0.8280
vn 0.2427 0.6186 -0.7473
vn 0.0001 0.6186 -0.7857
vn 0.0001 0.4920 -0.8706
vn -0.0001 0.4921 -0.8706
vn -0.0001 0.6186 -0.7857
vn -0.2427 0.6186 -0.7473
vn -0.2690 0.4920 -0.8280
vn -0.2691 0.4921 -0.8279
vn -0.2429 0.6186 -0.7472
vn -0.4617 0.6186 -0.6357
vn -0.5116 0.4921 -0.7044
vn -0.5118 0.4921 -0.7042
vn -0.4619 0.6186 -0.6356
vn -0.6356 0.6186 -0.4619
vn -0.7042 0.4921 -0.5118
vn -0.7043 0.4921 -0.5116
vn -0.6357 0.6186 -0.4617
vn -0.7472 0.6186 -0.2429
vn -0.8279 0.4921 -0.2691
vn -0.8280 0.4921 -0.2690
vn -0.7473 0.6186 -0.2427
vn -0.7857 0.6186 -0.0001
vn -0.8706 0.4920 -0.0001
vn -0.8706 0.4920 0.0001
vn -0.7857 0.6186 0.0001
vn -0.7473 0.6186 0.2427
vn -0.8280 0.4920 0.2689
vn 0.5006 0.7857 -0.3635
vn 0.5883 0.7857 -0.1913
vn 0.5883 0.7857 -0.1912
vn 0.5005 0.7857 -0.3635
vn 0.3637 0.7857 -0.5003
vn 0.5004 0.7857 -0.3637
vn 0.1912 0.7857 -0.5883
vn 0.3635 0.7857 -0.5005
vn -0.0000 0.7857 -0.6187
vn 0.1911 0.7857 -0.5883
vn 0.1910 0.7857 -0.5883
vn 0.0001 0.7857 -0.6186
vn -0.1911 0.7857 -0.5884
vn -0.0001 0.7857 -0.6187
vn -0.3635 0.7857 -0.5005
vn -0.1913 0.7857 -0.5883
vn -0.5004 0.7857 -0.3637
vn -0.3637 0.7857 -0.5004
vn -0.5882 0.7857 -0.1913
vn -0.5005 0.7857 -0.3635
vn -0.5882 0.7857 -0.1912
vn -0.6185 0.7858 -0.0001
vn -0.5883 0.7858 -0.1910
vn -0.5883 0.7857 -0.1910
vn -0.5883 0.7858 0.1910
vn -0.6185 0.7858 0.0001
vn -0.5005 0.7858 0.3634
vn -0.5882 0.7858 0.1912
vn -0.3636 0.7858 0.5003
vn -0.5003 0.7858 0.3637
vn -0.1912 0.7858 0.5882
vn -0.3635 0.7858 0.5004
vn -0.3634 0.7858 0.5005
vn -0.0001 0.7858 0.6185
vn -0.1910 0.7858 0.5883
vn 0.1910 0.7858 0.5883
vn 0.0001 0.7858 0.6185
vn 0.3635 0.7858 0.5005
vn 0.1913 0.7858 0.5882
vn 0.5004 0.7858 0.3637
vn 0.3636 0.7858 0.5003
vn 0.5003 0.7858 0.3637
vn 0.5882 0.7857 0.1912
vn 0.5005 0.7858 0.3635
vn 0.5882 0.7858 0.1912
vn 0.6186 0.7857 0.0001
vn 0.5883 0.7858 0.1910
vn 0.5883 0.7857 0.1910
vn 0.5884 0.7857 -0.1911
vn 0.6186 0.7857 -0.0001
s 1
usemtl M_pCylinder135_blinn3_0_0
f 1//1 2//2 3//3
f 4//4 1//1 3//3
f 5//5 4//4 3//3
f 6//6 5//5 3//3
f 7//7 6//6 3//3
f 8//8 7//7 3//3
f 9//9 8//8 3//3
f 10//10 9//9 3//3
f 11//11 10//10 3//3
f 12//12 11//11 3//3
f 13//13 12//12 3//3
f 14//14 13//13 3//3
f 15//15 14//14 3//3
f 16//16 15//15 3//3
f 17//17 16//16 3//3
f 18//18 17//17 3//3
f 19//19 18//18 3//3
f 20//20 19//19 3//3
f 21//21 20//20 3//3
f 2//2 21//21 3//3
f 22//22 24//23 23//3
f 25//24 22//22 23//3
f 26//25 25//24 23//3
f 27//26 26//25 23//3
f 28//27 27//26 23//3
f 29//28 28//27 23//3
f 30//29 29//28 23//3
f 31//30 30//29 23//3
f 32//31 31//30 23//3
f 33//32 32//31 23//3
f 34//33 33//32 23//3
f 35//34 34//33 23//3
f 36//35 35//34 23//3
f 37//36 36//35 23//3
f 38//37 37//36 23//3
f 39//38 38//37 23//3
f 40//39 39//38 23//3
f 41//40 40//39 23//3
f 42//41 41//40 23//3
f 24//23 42//41 23//3
f 43//42 44//43 45//44
f 43//42 45//44 46//45
f 44//43 47//46 48//47
f 44//43 48//47 45//44
f 47//46 49//48 50//49
f 47//46 50//49 48//47
f 49//48 51//50 52//51
f 49//48 52//51 50//49
f 51//50 53//52 54//53
f 51//50 54//53 52//51
f 53//52 55//54 56//55
f 53//52 56//55 54//53
f 55//54 57//56 58//57
f 55//54 58//57 56//55
f 57//56 59//58 60//59
f 57//56 60//59 58//57
f 59//58 61//60 62//61
f 59//58 62//61 60//59
f 61//60 63//62 64//63
f 61//60 64//63 62//61
f 63//62 65//64 66//65
f 63//62 66//65 64//63
f 65//64 67//66 68//67
f 65//64 68//67 66//65
f 67//66 69//68 70//69
f 67//66 70//69 68//67
f 69//68 71//70 72//71
f 69//68 72//71 70//69
f 71//70 73//72 74//73
f 71//70 74//73 72//71
f 73//72 75//74 76//75
f 73//72 76//75 74//73
f 75//74 77//76 78//77
f 75//74 78//77 76//75
f 77//76 79//78 80//79
f 77//76 80//79 78//77
f 79//78 81//80 82//81
f 79//78 82//81 80//79
f 81//80 83//82 84//83
f 81//80 84//83 82//81
f 85//84 2//2 1//1
f 85//84 1//1 86//85
f 87//86 85//84 86//85
f 87//86 86//85 88//87
f 43//42 89//88 90//89
f 43//42 90//89 44//43
f 89//88 91//90 92//91
f 89//88 92//91 90//89
f 86//85 1//1 4//4
f 86//85 4//4 93//92
f 88//87 86//85 93//92
f 88//87 93//92 94//93
f 44//43 90//89 95//94
f 44//43 95//94 47//46
f 90//89 92//91 96//95
f 90//89 96//95 95//94
f 93//92 4//4 5//5
f 93//92 5//5 97//96
f 94//93 93//92 97//96
f 94//93 97//96 98//97
f 47//46 95//94 99//98
f 47//46 99//98 49//48
f 95//94 96//95 100//99
f 95//94 100//99 99//98
f 97//96 5//5 6//6
f 97//96 6//6 101//100
f 98//97 97//96 101//100
f 98//97 101//100 102//101
f 49//48 99//98 103//102
f 49//48 103//102 51//50
f 99//98 100//99 104//103
f 99//98 104//103 103//102
f 101//100 6//6 7//7
f 101//100 7//7 105//104
f 102//101 101//100 105//104
f 102//101 105//104 106//105
f 51//50 103//102 107//106
f 51//50 107//106 53//52
f 103//102 104//103 108//107
f 103//102 108//107 107//106
f 105//104 7//7 8//8
f 105//104 8//8 109//108
f 106//105 105//104 109//108
f 106//105 109//108 110//109
f 53//52 107//106 111//110
f 53//52 111//110 55//54
f 107//106 108//107 112//111
f 107//106 112//111 111//110
f 109//108 8//8 9//9
f 109//108 9//9 113//112
f 110//109 109//108 113//112
f 110//109 113//112 114//113
f 55//54 111//110 115//114
f 55//54 115//114 57//56
f 111//110 112//111 116//115
f 111//110 116//115 115//114
f 113//112 9//9 10//10
f 113//112 10//10 117//116
f 114//113 113//112 117//116
f 114//113 117//116 118//117
f 57//56 115//114 119//118
f 57//56 119//118 59//58
f 115//114 116//115 120//119
f 115//114 120//119 119//118
f 117//116 10//10 11//11
f 117//116 11//11 121//120
f 118//117 117//116 121//120
f 118//117 121//120 122//121
f 59//58 119//118 123//122
f 59//58 123//122 61//60
f 119//118 120//119 124//123
f 119//118 124//123 123//122
f 121//120 11//11 12//12
f 121//120 12//12 125//124
f 122//121 121//120 125//124
f 122//121 125//124 126//125
f 61//60 123//122 127//126
f 61//60 127//126 63//62
f 123//122 124//123 128//127
f 123//122 128//127 127//126
f 125//124 12//12 13//13
f 125//124 13//13 129//128
f 126//125 125//124 129//128
f 126//125 129//128 130//129
f 63//62 127//126 131//130
f 63//62 131//130 65//64
f 127//126 128//127 132//131
f 127//126 132//131 131//130
f 129//128 13//13 14//14
f 129//128 14//14 133//132
f 130//129 129//128 133//132
f 130//129 133//132 134//133
f 65//64 131//130 135//134
f 65//64 135//134 67//66
f 131//130 132//131 136//135
f 131//130 136//135 135//134
f 133//132 14//14 15//15
f 133//132 15//15 137//136
f 134//133 133//132 137//136
f 134//133 137//136 138//137
f 67//66 135//134 139//138
f 67//66 139//138 69//68
f 135//134 136//135 140//139
f 135//134 140//139 139//138
f 137//136 15//15 16//16
f 137//136 16//16 141//140
f 138//137 137//136 141//140
f 138//137 141//140 142//141
f 69//68 139//138 143//142
f 69//68 143//142 71//70
f 139//138 140//139 144//143
f 139//138 144//143 143//142
f 141//140 16//16 17//17
f 141//140 17//17 145//144
f 142//141 141//140 145//144
f 142//141 145//144 146//145
f 71//70 143//142 147//146
f 71//70 147//146 73//72
f 143//142 144//143 148//147
f 143//142 148//147 147//146
f 145//144 17//17 18//18
f 145//144 18//18 149//148
f 146//145 145//144 149//148
f 146//145 149//148 150//149
f 73//72 147//146 151//150
f 73//72 151//150 75//74
f 147//146 148//147 152//151
f 147//146 152//151 151//150
f 149//148 18//18 19//19
f 149//148 19//19 153//152
f 150//149 149//148 153//152
f 150//149 153//152 154//153
f 75//74 151//150 155//154
f 75//74 155//154 77//76
f 151//150 152//151 156//155
f 151//150 156//155 155//154
f 153//152 19//19 20//20
f 153//152 20//20 157//156
f 154//153 153//152 157//156
f 154//153 157//156 158//157
f 77//76 155//154 159//158
f 77//76 159//158 79//78
f 155//154 156//155 160//159
f 155//154 160//159 159//158
f 157//156 20//20 21//21
f 157//156 21//21 161//160
f 158//157 157//156 161//160
f 158//157 161//160 162//161
f 79//78 159//158 163//162
f 79//78 163//162 81//80
f 159//158 160//159 164//163
f 159//158 164//163 163//162
f 2//2 85//84 161//160
f 2//2 161//160 21//21
f 85//84 87//86 162//161
f 85//84 162//161 161//160
f 165//164 166//165 163//162
f 165//164 163//162 164//163
f 166//165 83//82 81//80
f 166//165 81//80 163//162
f 167//166 168//167 169//168
f 167//166 169//168 170//169
f 171//170 172//171 173//172
f 171//170 173//172 174//173
f 174//173 173//172 175//174
f 174//173 175//174 176//175
f 176//175 175//174 177//176
f 176//175 177//176 178//177
f 178//177 177//176 179//178
f 178//177 179//178 180//179
f 180//179 179//178 181//180
f 180//179 181//180 182//181
f 182//181 181//180 183//182
f 182//181 183//182 184//183
f 184//183 183//182 185//184
f 184//183 185//184 186//185
f 186//185 185//184 187//186
f 186//185 187//186 188//187
f 188//187 187//186 189//188
f 188//187 189//188 190//189
f 190//189 189//188 191//190
f 190//189 191//190 192//191
f 192//191 191//190 193//192
f 192//191 193//192 194//193
f 194//193 193//192 195//194
f 194//193 195//194 196//195
f 196//195 195//194 197//196
f 196//195 197//196 198//197
f 198//197 197//196 199//198
f 198//197 199//198 200//199
f 200//199 199//198 201//200
f 200//199 201//200 202//201
f 202//201 201//200 203//202
f 202//201 203//202 204//203
f 204//203 203//202 205//204
f 204//203 205//204 206//205
f 206//205 205//204 207//206
f 206//205 207//206 208//207
f 208//207 207//206 170//169
f 208//207 170//169 169//168
f 46//45 45//44 173//172
f 46//45 173//172 172//171
f 45//44 48//47 175//174
f 45//44 175//174 173//172
f 48//47 50//49 177//176
f 48//47 177//176 175//174
f 50//49 52//51 179//178
f 50//49 179//178 177//176
f 52//51 54//53 181//180
f 52//51 181//180 179//178
f 54//53 56//55 183//182
f 54//53 183//182 181//180
f 56//55 58//57 185//184
f 56//55 185//184 183//182
f 58//57 60//59 187//186
f 58//57 187//186 185//184
f 60//59 62//61 189//188
f 60//59 189//188 187//186
f 62//61 64//63 191//190
f 62//61 191//190 189//188
f 64//63 66//65 193//192
f 64//63 193//192 191//190
f 66//65 68//67 195//194
f 66//65 195//194 193//192
f 68//67 70//69 197//196
f 68//67 197//196 195//194
f 70//69 72//71 199//198
f 70//69 199//198 197//196
f 72//71 74//73 201//200
f 72//71 201//200 199//198
f 74//73 76//75 203//202
f 74//73 203//202 201//200
f 76//75 78//77 205//204
f 76//75 205//204 203//202
f 78//77 80//79 207//206
f 78//77 207//206 205//204
f 80//79 82//81 170//169
f 80//79 170//169 207//206
f 82//81 84//83 167//166
f 82//81 167//166 170//169
f 209//208 211//209 210//210
f 209//208 212//211 211//209
f 213//212 215//213 214//214
f 213//212 216//215 215//213
f 217//216 219//217 218//218
f 217//216 220//219 219//217
f 221//220 223//221 222//222
f 221//220 224//223 223//221
f 225//224 227//225 226//226
f 225//224 228//225 227//225
f 229//227 231//228 230//229
f 229//227 232//230 231//228
f 233//231 235//232 234//233
f 233//231 236//234 235//232
f 237//235 239//236 238//237
f 237//235 240//238 239//236
f 241//239 243//240 242//241
f 241//239 244//240 243//240
f 245//242 247//243 246//244
f 245//242 248//245 247//243
f 249//246 251//247 250//248
f 249//246 252//249 251//247
f 253//250 255//251 254//252
f 253//250 256//251 255//251
f 257//253 259//254 258//255
f 257//253 260//256 259//254
f 261//257 263//258 262//259
f 261//257 264//258 263//258
f 265//260 267//261 266//262
f 265//260 268//261 267//261
f 269//263 271//264 270//265
f 269//263 272//264 271//264
f 273//266 275//267 274//268
f 273//266 276//267 275//267
f 277//269 279//270 278//271
f 277//269 280//272 279//270
f 281//273 283//274 282//275
f 281//273 284//274 283//274
f 285//276 287//277 286//278
f 285//276 288//279 287//277
f 289//280 291//281 290//282
f 289//280 292//283 291//281
f 292//283 293//284 291//281
f 292//283 294//285 293//284
f 294//285 295//286 293//284
f 294//285 296//287 295//286
f 296//287 297//288 295//286
f 296//287 298//289 297//288
f 298//289 299//290 297//288
f 298//289 300//291 299//290
f 300//291 301//292 299//290
f 300//291 302//293 301//292
f 302//293 303//294 301//292
f 302//293 304//295 303//294
f 304//295 305//296 303//294
f 304//295 306//297 305//296
f 306//297 307//298 305//296
f 306//297 308//299 307//298
f 308//299 309//300 307//298
f 308//299 310//301 309//300
f 310//301 311//302 309//300
f 310//301 312//303 311//302
f 312//303 313//304 311//302
f 312//303 314//305 313//304
f 314//305 315//306 313//304
f 314//305 316//307 315//306
f 316//307 317//308 315//306
f 316//307 318//309 317//308
f 318//309 319//310 317//308
f 318//309 320//311 319//310
f 320//311 321//312 319//310
f 320//311 322//313 321//312
f 322//313 323//314 321//312
f 322//313 324//315 323//314
f 324//315 325//316 323//314
f 324//315 326//317 325//316
f 326//317 327//318 325//316
f 326//317 328//319 327//318
f 328//319 329//320 327//318
f 328//319 330//321 329//320
f 331//322 22//22 332//323
f 331//322 24//23 22//22
f 333//324 332//323 334//325
f 333//324 331//322 332//323
f 289//280 335//326 292//283
f 289//280 336//327 335//326
f 336//327 337//328 335//326
f 336//327 338//329 337//328
f 332//323 25//24 339//330
f 332//323 22//22 25//24
f 334//325 339//330 340//331
f 334//325 332//323 339//330
f 292//283 341//332 294//285
f 292//283 335//326 341//332
f 335//326 342//333 341//332
f 335//326 337//328 342//333
f 339//330 26//25 343//334
f 339//330 25//24 26//25
f 340//331 343//334 344//335
f 340//331 339//330 343//334
f 294//285 345//336 296//287
f 294//285 341//332 345//336
f 341//332 346//337 345//336
f 341//332 342//333 346//337
f 343//334 27//26 347//338
f 343//334 26//25 27//26
f 344//335 347//338 348//339
f 344//335 343//334 347//338
f 296//287 349//340 298//289
f 296//287 345//336 349//340
f 345//336 350//341 349//340
f 345//336 346//337 350//341
f 347//338 28//27 351//342
f 347//338 27//26 28//27
f 348//339 351//342 352//343
f 348//339 347//338 351//342
f 298//289 353//344 300//291
f 298//289 349//340 353//344
f 349//340 354//345 353//344
f 349//340 350//341 354//345
f 351//342 29//28 355//346
f 351//342 28//27 29//28
f 352//343 355//346 356//347
f 352//343 351//342 355//346
f 300//291 357//348 302//293
f 300//291 353//344 357//348
f 353//344 358//349 357//348
f 353//344 354//345 358//349
f 355//346 30//29 359//350
f 355//346 29//28 30//29
f 356//347 359//350 360//351
f 356//347 355//346 359//350
f 302//293 361//352 304//295
f 302//293 357//348 361//352
f 357//348 362//353 361//352
f 357//348 358//349 362//353
f 359//350 31//30 363//354
f 359//350 30//29 31//30
f 360//351 363//354 364//355
f 360//351 359//350 363//354
f 304//295 365//356 306//297
f 304//295 361//352 365//356
f 361//352 366//357 365//356
f 361//352 362//353 366//357
f 363//354 32//31 367//358
f 363//354 31//30 32//31
f 364//355 367//358 368//359
f 364//355 363//354 367//358
f 306//297 369//360 308//299
f 306//297 365//356 369//360
f 365//356 370//361 369//360
f 365//356 366//357 370//361
f 367//358 33//32 371//362
f 367//358 32//31 33//32
f 368//359 371//362 372//363
f 368//359 367//358 371//362
f 308//299 373//364 310//301
f 308//299 369//360 373//364
f 369//360 374//365 373//364
f 369//360 370//361 374//365
f 371//362 34//33 375//366
f 371//362 33//32 34//33
f 372//363 375//366 376//367
f 372//363 371//362 375//366
f 310//301 377//368 312//303
f 310//301 373//364 377//368
f 373//364 378//369 377//368
f 373//364 374//365 378//369
f 375//366 35//34 379//370
f 375//366 34//33 35//34
f 376//367 379//370 380//371
f 376//367 375//366 379//370
f 312//303 381//372 314//305
f 312//303 377//368 381//372
f 377//368 382//373 381//372
f 377//368 378//369 382//373
f 379//370 36//35 383//374
f 379//370 35//34 36//35
f 380//371 383//374 384//375
f 380//371 379//370 383//374
f 314//305 385//376 316//307
f 314//305 381//372 385//376
f 381//372 386//377 385//376
f 381//372 382//373 386//377
f 383//374 37//36 387//378
f 383//374 36//35 37//36
f 384//375 387//378 388//379
f 384//375 383//374 387//378
f 316//307 389//380 318//309
f 316//307 385//376 389//380
f 385//376 390//381 389//380
f 385//376 386//377 390//381
f 387//378 38//37 391//382
f 387//378 37//36 38//37
f 388//379 391//382 392//383
f 388//379 387//378 391//382
f 318//309 393//384 320//311
f 318//309 389//380 393//384
f 389//380 394//385 393//384
f 389//380 390//381 394//385
f 391//382 39//38 395//386
f 391//382 38//37 39//38
f 392//383 395//386 396//387
f 392//383 391//382 395//386
f 320//311 397//388 322//313
f 320//311 393//384 397//388
f 393//384 398//389 397//388
f 393//384 394//385 398//389
f 395//386 40//39 399//390
f 395//386 39//38 40//39
f 396//387 399//390 400//391
f 396//387 395//386 399//390
f 322//313 401//392 324//315
f 322//313 397//388 401//392
f 397//388 402//393 401//392
f 397//388 398//389 402//393
f 399//390 41//40 403//394
f 399//390 40//39 41//40
f 400//391 403//394 404//395
f 400//391 399//390 403//394
f 324//315 405//396 326//317
f 324//315 401//392 405//396
f 401//392 406//397 405//396
f 401//392 402//393 406//397
f 403//394 42//41 407//398
f 403//394 41//40 42//41
f 404//395 407//398 408//399
f 404//395 403//394 407//398
f 326//317 409//400 328//319
f 326//317 405//396 409//400
f 405//396 410//401 409//400
f 405//396 406//397 410//401
f 24//23 407//398 42//41
f 24//23 331//322 407//398
f 331//322 408//399 407//398
f 331//322 333//324 408//399
f 411//402 409//400 410//401
f 411//402 412//403 409//400
f 412//403 328//319 409//400
f 412//403 330//321 328//319
f 413//404 415//405 414//406
f 413//404 416//407 415//405
f 417//408 419//409 418//410
f 417//408 420//411 419//409
f 418//410 422//412 421//413
f 418//410 419//409 422//412
f 421//413 424//414 423//415
f 421//413 422//412 424//414
f 423//415 426//416 425//417
f 423//415 424//414 426//416
f 425//417 428//418 427//419
f 425//417 426//416 428//418
f 427//419 430//420 429//421
f 427//419 428//418 430//420
f 429//421 432//422 431//423
f 429//421 430//420 432//422
f 431//423 434//424 433//425
f 431//423 432//422 434//424
f 433//425 436//426 435//427
f 433//425 434//424 436//426
f 435//427 438//428 437//429
f 435//427 436//426 438//428
f 437//429 440//430 439//431
f 437//429 438//428 440//430
f 439//431 442//432 441//433
f 439//431 440//430 442//432
f 441//433 444//434 443//435
f 441//433 442//432 444//434
f 443//435 446//436 445//437
f 443//435 444//434 446//436
f 445//437 448//438 447//439
f 445//437 446//436 448//438
f 447//439 450//440 449//441
f 447//439 448//438 450//440
f 449//441 452//442 451//443
f 449//441 450//440 452//442
f 451//443 454//444 453//445
f 451//443 452//442 454//444
f 453//445 414//406 415//405
f 453//445 454//444 414//406
f 290//282 419//409 420//411
f 290//282 291//281 419//409
f 291//281 422//412 419//409
f 291//281 293//284 422//412
f 293//284 424//414 422//412
f 293//284 295//286 424//414
f 295//286 426//416 424//414
f 295//286 297//288 426//416
f 297//288 428//418 426//416
f 297//288 299//290 428//418
f 299//290 430//420 428//418
f 299//290 301//292 430//420
f 301//292 432//422 430//420
f 301//292 303//294 432//422
f 303//294 434//424 432//422
f 303//294 305//296 434//424
f 305//296 436//426 434//424
f 305//296 307//298 436//426
f 307//298 438//428 436//426
f 307//298 309//300 438//428
f 309//300 440//430 438//428
f 309//300 311//302 440//430
f 311//302 442//432 440//430
f 311//302 313//304 442//432
f 313//304 444//434 442//432
f 313//304 315//306 444//434
f 315//306 446//436 444//434
f 315//306 317//308 446//436
f 317//308 448//438 446//436
f 317//308 319//310 448//438
f 319//310 450//440 448//438
f 319//310 321//312 450//440
f 321//312 452//442 450//440
f 321//312 323//314 452//442
f 323//314 454//444 452//442
f 323//314 325//316 454//444
f 325//316 414//406 454//444
f 325//316 327//318 414//406
f 327//318 413//404 414//406
f 327//318 329//320 413//404
f 455//446 456//447 457//448
f 455//446 457//448 458//449
f 459//450 460//451 461//452
f 459//450 461//452 462//453
f 463//454 464//455 465//456
f 463//454 465//456 466//457
f 467//458 468//459 469//460
f 467//458 469//460 470//461
f 471//462 472//463 473//464
f 471//462 473//464 474//465
f 475//466 476//467 477//468
f 475//466 477//468 478//469
f 479//470 480//471 481//472
f 479//470 481//472 482//473
f 483//474 484//475 485//476
f 483//474 485//476 486//477
f 487//478 488//479 489//480
f 487//478 489//480 490//481
f 491//482 492//483 493//484
f 491//482 493//484 494//485
f 495//486 496//487 497//488
f 495//486 497//488 498//489
f 499//490 500//491 501//492
f 499//490 501//492 502//493
f 503//494 504//495 505//496
f 503//494 505//496 506//497
f 507//498 508//499 509//500
f 507//498 509//500 510//501
f 511//502 512//503 513//504
f 511//502 513//504 514//505
f 515//506 516//507 517//508
f 515//506 517//508 518//509
f 519//510 520//511 521//512
f 519//510 521//512 522//513
f 523//514 524//515 525//516
f 523//514 525//516 526//517
f 527//518 528//519 529//520
f 527//518 529//520 530//521
f 531//522 532//523 533//524
f 531//522 533//524 534//525
f 535//526 536//527 537//528
f 535//526 537//528 538//529
f 539//530 540//531 541//531
f 539//530 541//531 542//530
f 543//532 544//533 545//533
f 543//532 545//533 546//532
f 547//534 548//535 549//536
f 547//534 549//536 550//537
f 551//538 552//539 553//539
f 551//538 553//539 554//538
f 555//540 556//541 557//541
f 555//540 557//541 558//540
f 559//542 560//543 561//543
f 559//542 561//543 562//542
f 563//544 564//545 565//545
f 563//544 565//545 566//546
f 567//547 568//548 569//549
f 567//547 569//549 570//547
f 571//550 572//551 573//551
f 571//550 573//551 574//550
f 575//552 576//553 577//553
f 575//552 577//553 578//552
f 579//554 580//555 581//555
f 579//554 581//555 582//554
f 583//556 584//557 585//558
f 583//556 585//558 586//556
f 587//559 588//560 589//560
f 587//559 589//560 590//559
f 591//561 592//562 593//562
f 591//561 593//562 594//561
f 595//563 596//564 597//564
f 595//563 597//564 598//563
f 599//565 600//566 601//566
f 599//565 601//566 602//567
f 603//568 604//569 605//569
f 603//568 605//569 606//570
f 607//571 608//572 609//573
f 607//571 609//573 610//571
f 611//574 612//575 613//575
f 611//574 613//575 614//574
