# Blender 4.4.1
# www.blender.org
mtllib SM_polySurface172_lambert1_0_0.mtl
o SM_polySurface172_lambert1_0_0
v 3.374271 10.871725 2.472801
v 3.378975 10.880956 2.472801
v 3.347482 10.891189 2.472801
v 3.366945 10.864399 2.472801
v 3.357715 10.859695 2.472801
v 3.347482 10.858075 2.472801
v 3.337249 10.859695 2.472801
v 3.328018 10.864399 2.472801
v 3.320692 10.871725 2.472801
v 3.315989 10.880956 2.472801
v 3.314370 10.891189 2.472801
v 3.315989 10.901422 2.472801
v 3.320692 10.910652 2.472801
v 3.328018 10.917978 2.472801
v 3.337249 10.922682 2.472801
v 3.347482 10.924300 2.472801
v 3.357715 10.922682 2.472801
v 3.366945 10.917978 2.472801
v 3.374271 10.910652 2.472801
v 3.378975 10.901422 2.472801
v 3.380595 10.891189 2.472801
v 3.358762 10.887524 2.449980
v 3.357076 10.884219 2.449980
v 3.347482 10.891189 2.449980
v 3.354451 10.881595 2.449980
v 3.351147 10.879909 2.449980
v 3.347482 10.891189 2.449980
v 3.347482 10.879331 2.449980
v 3.347482 10.891189 2.449980
v 3.343818 10.879909 2.449980
v 3.347482 10.891189 2.449980
v 3.340514 10.881595 2.449980
v 3.347482 10.891189 2.449980
v 3.337888 10.884219 2.449980
v 3.347482 10.891189 2.449980
v 3.336204 10.887524 2.449980
v 3.335624 10.891189 2.449980
v 3.336204 10.894852 2.449980
v 3.337888 10.898156 2.449980
v 3.340514 10.900783 2.449980
v 3.347482 10.891189 2.449980
v 3.343818 10.902467 2.449980
v 3.347482 10.891189 2.449980
v 3.347482 10.903047 2.449980
v 3.347482 10.891189 2.449980
v 3.351147 10.902467 2.449980
v 3.347482 10.891189 2.449980
v 3.354451 10.900783 2.449980
v 3.347482 10.891189 2.449980
v 3.357076 10.898156 2.449980
v 3.358762 10.894852 2.449980
v 3.359340 10.891189 2.449980
v 3.378975 10.880956 2.472801
v 3.374271 10.871725 2.472801
v 3.374271 10.871725 2.470974
v 3.378975 10.880956 2.470974
v 3.366945 10.864399 2.472801
v 3.366945 10.864399 2.470974
v 3.357715 10.859695 2.472801
v 3.357715 10.859695 2.470974
v 3.347482 10.858075 2.472801
v 3.347482 10.858075 2.470974
v 3.337249 10.859695 2.472801
v 3.337249 10.859695 2.470974
v 3.328018 10.864399 2.472801
v 3.328018 10.864399 2.470974
v 3.320692 10.871725 2.472801
v 3.320692 10.871725 2.470974
v 3.315989 10.880956 2.472801
v 3.315989 10.880956 2.470974
v 3.314370 10.891189 2.472801
v 3.314370 10.891189 2.470974
v 3.315989 10.901422 2.472801
v 3.315989 10.901422 2.470974
v 3.320692 10.910652 2.472801
v 3.320692 10.910652 2.470974
v 3.328018 10.917978 2.472801
v 3.328018 10.917978 2.470974
v 3.337249 10.922682 2.472801
v 3.337249 10.922682 2.470974
v 3.347482 10.924300 2.472801
v 3.347482 10.924300 2.470974
v 3.357715 10.922682 2.472801
v 3.357715 10.922682 2.470974
v 3.366945 10.917978 2.472801
v 3.366945 10.917978 2.470974
v 3.374271 10.910652 2.472801
v 3.374271 10.910652 2.470974
v 3.378975 10.901422 2.472801
v 3.378975 10.901422 2.470974
v 3.380595 10.891189 2.472801
v 3.380595 10.891189 2.470974
v 3.378975 10.880956 2.472801
v 3.378975 10.880956 2.470974
v 3.366496 10.885008 2.451579
v 3.367474 10.891189 2.451579
v 3.373055 10.882879 2.456129
v 3.374370 10.891189 2.456129
v 3.377436 10.881455 2.462939
v 3.378977 10.891189 2.462939
v 3.373055 10.882879 2.456129
v 3.374370 10.891189 2.456129
v 3.363658 10.879436 2.451579
v 3.369235 10.875384 2.456129
v 3.373055 10.882879 2.456129
v 3.377436 10.881455 2.462939
v 3.372962 10.872674 2.462939
v 3.369235 10.875384 2.456129
v 3.359235 10.875012 2.451579
v 3.363286 10.869435 2.456129
v 3.365996 10.865708 2.462939
v 3.363286 10.869435 2.456129
v 3.353662 10.872174 2.451579
v 3.355791 10.865616 2.456129
v 3.357215 10.861235 2.462939
v 3.355791 10.865616 2.456129
v 3.347482 10.871197 2.451579
v 3.347482 10.864301 2.456129
v 3.347482 10.859694 2.462939
v 3.347482 10.864301 2.456129
v 3.341303 10.872174 2.451579
v 3.339174 10.865616 2.456129
v 3.337750 10.861235 2.462939
v 3.339174 10.865616 2.456129
v 3.335731 10.875012 2.451579
v 3.331677 10.869435 2.456129
v 3.328969 10.865708 2.462939
v 3.331677 10.869435 2.456129
v 3.331307 10.879436 2.451579
v 3.325728 10.875384 2.456129
v 3.322001 10.872674 2.462939
v 3.325728 10.875384 2.456129
v 3.328467 10.885008 2.451579
v 3.321911 10.882879 2.456129
v 3.317528 10.881455 2.462939
v 3.321911 10.882879 2.456129
v 3.327490 10.891189 2.451579
v 3.320594 10.891189 2.456129
v 3.315987 10.891189 2.462939
v 3.320594 10.891189 2.456129
v 3.328467 10.897367 2.451579
v 3.321911 10.899496 2.456129
v 3.317528 10.900920 2.462939
v 3.321911 10.899496 2.456129
v 3.331307 10.902940 2.451579
v 3.325728 10.906993 2.456129
v 3.322001 10.909701 2.462939
v 3.325728 10.906993 2.456129
v 3.335731 10.907363 2.451579
v 3.331677 10.912942 2.456129
v 3.328969 10.916669 2.462939
v 3.331677 10.912942 2.456129
v 3.341303 10.910203 2.451579
v 3.339174 10.916759 2.456129
v 3.337750 10.921143 2.462939
v 3.339174 10.916759 2.456129
v 3.347482 10.911180 2.451579
v 3.347482 10.918077 2.456129
v 3.347482 10.922684 2.462939
v 3.347482 10.918077 2.456129
v 3.353662 10.910203 2.451579
v 3.355791 10.916759 2.456129
v 3.357215 10.921143 2.462939
v 3.355791 10.916759 2.456129
v 3.359235 10.907363 2.451579
v 3.363286 10.912942 2.456129
v 3.365996 10.916669 2.462939
v 3.363286 10.912942 2.456129
v 3.363658 10.902940 2.451579
v 3.369235 10.906993 2.456129
v 3.372962 10.909701 2.462939
v 3.369235 10.906993 2.456129
v 3.366496 10.897367 2.451579
v 3.373055 10.899496 2.456129
v 3.377436 10.900920 2.462939
v 3.373055 10.899496 2.456129
vn -0.0000 -0.0000 1.0000
vn 0.1283 -0.0416 -0.9909
vn 0.1090 -0.0792 -0.9909
vn -0.0000 -0.0000 -1.0000
vn 0.0792 -0.1090 -0.9909
vn 0.0417 -0.1283 -0.9909
vn -0.0000 -0.1348 -0.9909
vn -0.0417 -0.1283 -0.9909
vn -0.0792 -0.1090 -0.9909
vn -0.1090 -0.0792 -0.9909
vn -0.1282 -0.0416 -0.9909
vn -0.1349 -0.0000 -0.9909
vn -0.1283 0.0417 -0.9909
vn -0.1090 0.0793 -0.9909
vn -0.0792 0.1090 -0.9909
vn -0.0417 0.1283 -0.9909
vn -0.0000 0.1348 -0.9909
vn 0.0417 0.1282 -0.9909
vn 0.0793 0.1091 -0.9909
vn 0.1090 0.0792 -0.9909
vn 0.1283 0.0417 -0.9909
vn 0.1349 -0.0000 -0.9909
vn 0.9510 -0.3091 -0.0000
vn 0.8090 -0.5878 -0.0000
vn 0.7986 -0.5801 -0.1605
vn 0.9387 -0.3051 -0.1605
vn 0.5878 -0.8090 -0.0000
vn 0.5801 -0.7986 -0.1605
vn 0.3090 -0.9511 -0.0000
vn 0.3050 -0.9387 -0.1606
vn -0.0000 -1.0000 -0.0000
vn -0.0000 -0.9870 -0.1606
vn -0.3090 -0.9511 -0.0000
vn -0.3050 -0.9387 -0.1607
vn -0.5878 -0.8090 -0.0000
vn -0.5801 -0.7985 -0.1606
vn -0.8090 -0.5878 -0.0000
vn -0.7985 -0.5802 -0.1605
vn -0.9511 -0.3089 -0.0000
vn -0.9388 -0.3049 -0.1605
vn -1.0000 -0.0000 -0.0000
vn -0.9870 -0.0000 -0.1605
vn -0.9511 0.3089 -0.0000
vn -0.9387 0.3050 -0.1605
vn -0.8090 0.5878 -0.0000
vn -0.7985 0.5801 -0.1605
vn -0.5878 0.8090 -0.0000
vn -0.5801 0.7985 -0.1607
vn -0.3089 0.9511 -0.0000
vn -0.3049 0.9387 -0.1606
vn -0.0000 1.0000 -0.0000
vn -0.0000 0.9870 -0.1604
vn 0.3089 0.9511 -0.0000
vn 0.3049 0.9388 -0.1605
vn 0.5878 0.8090 -0.0000
vn 0.5801 0.7985 -0.1606
vn 0.8090 0.5878 -0.0000
vn 0.7985 0.5801 -0.1605
vn 0.9511 0.3090 -0.0000
vn 0.9387 0.3050 -0.1606
vn 1.0000 -0.0000 -0.0000
vn 0.9870 -0.0000 -0.1606
vn 0.9511 -0.3089 -0.0000
vn 0.9388 -0.3049 -0.1605
vn 0.4077 -0.1324 -0.9035
vn 0.4287 -0.0000 -0.9035
vn 0.6918 -0.2248 -0.6862
vn 0.7274 -0.0000 -0.6862
vn 0.8835 -0.2869 -0.3702
vn 0.9290 -0.0000 -0.3702
vn 0.6920 -0.2247 -0.6860
vn 0.7276 -0.0000 -0.6860
vn 0.3468 -0.2520 -0.9035
vn 0.5885 -0.4276 -0.6862
vn 0.6920 -0.2249 -0.6860
vn 0.8835 -0.2872 -0.3702
vn 0.7515 -0.5460 -0.3702
vn 0.5886 -0.4277 -0.6860
vn 0.2520 -0.3468 -0.9034
vn 0.4275 -0.5885 -0.6862
vn 0.5460 -0.7515 -0.3702
vn 0.4277 -0.5887 -0.6860
vn 0.1324 -0.4077 -0.9035
vn 0.2247 -0.6919 -0.6862
vn 0.2870 -0.8835 -0.3702
vn 0.2248 -0.6920 -0.6860
vn -0.0000 -0.4286 -0.9035
vn -0.0000 -0.7274 -0.6862
vn -0.0000 -0.9289 -0.3702
vn -0.0000 -0.7276 -0.6860
vn -0.1324 -0.4077 -0.9035
vn -0.2247 -0.6918 -0.6862
vn -0.2870 -0.8835 -0.3702
vn -0.2248 -0.6920 -0.6860
vn -0.2520 -0.3468 -0.9035
vn -0.4275 -0.5885 -0.6862
vn -0.5460 -0.7516 -0.3702
vn -0.4277 -0.5887 -0.6860
vn -0.3468 -0.2520 -0.9035
vn -0.5885 -0.4275 -0.6862
vn -0.7515 -0.5460 -0.3702
vn -0.5887 -0.4277 -0.6860
vn -0.4077 -0.1324 -0.9035
vn -0.6918 -0.2247 -0.6862
vn -0.8835 -0.2870 -0.3702
vn -0.6920 -0.2248 -0.6860
vn -0.4286 -0.0000 -0.9035
vn -0.7274 -0.0000 -0.6862
vn -0.9289 -0.0000 -0.3702
vn -0.7276 -0.0000 -0.6860
vn -0.4077 0.1325 -0.9035
vn -0.6918 0.2248 -0.6862
vn -0.8835 0.2870 -0.3703
vn -0.6920 0.2248 -0.6860
vn -0.3468 0.2519 -0.9035
vn -0.5885 0.4275 -0.6862
vn -0.7515 0.5460 -0.3702
vn -0.5887 0.4276 -0.6860
vn -0.2520 0.3468 -0.9035
vn -0.4275 0.5885 -0.6862
vn -0.5460 0.7515 -0.3703
vn -0.4276 0.5887 -0.6860
vn -0.1325 0.4077 -0.9035
vn -0.2247 0.6918 -0.6862
vn -0.2870 0.8835 -0.3702
vn -0.2248 0.6920 -0.6860
vn -0.0000 0.4287 -0.9035
vn -0.0000 0.7274 -0.6862
vn -0.0000 0.9289 -0.3702
vn -0.0000 0.7276 -0.6860
vn 0.1325 0.4077 -0.9034
vn 0.2248 0.6918 -0.6862
vn 0.2870 0.8835 -0.3702
vn 0.2248 0.6920 -0.6860
vn 0.2520 0.3468 -0.9035
vn 0.4276 0.5885 -0.6862
vn 0.5460 0.7515 -0.3703
vn 0.4277 0.5886 -0.6860
vn 0.3468 0.2519 -0.9035
vn 0.5885 0.4275 -0.6862
vn 0.7516 0.5460 -0.3702
vn 0.5887 0.4276 -0.6860
vn 0.4077 0.1324 -0.9035
vn 0.6918 0.2247 -0.6862
vn 0.8835 0.2870 -0.3702
vn 0.6920 0.2248 -0.6860
s 1
usemtl M_polySurface172_lambert1_0_0
f 1//1 2//1 3//1
f 4//1 1//1 3//1
f 5//1 4//1 3//1
f 6//1 5//1 3//1
f 7//1 6//1 3//1
f 8//1 7//1 3//1
f 9//1 8//1 3//1
f 10//1 9//1 3//1
f 11//1 10//1 3//1
f 12//1 11//1 3//1
f 13//1 12//1 3//1
f 14//1 13//1 3//1
f 15//1 14//1 3//1
f 16//1 15//1 3//1
f 17//1 16//1 3//1
f 18//1 17//1 3//1
f 19//1 18//1 3//1
f 20//1 19//1 3//1
f 21//1 20//1 3//1
f 2//1 21//1 3//1
f 22//2 23//3 24//4
f 23//3 25//5 24//4
f 25//5 26//6 27//4
f 26//6 28//7 29//4
f 28//7 30//8 31//4
f 30//8 32//9 33//4
f 32//9 34//10 35//4
f 34//10 36//11 24//4
f 36//11 37//12 24//4
f 37//12 38//13 24//4
f 38//13 39//14 24//4
f 39//14 40//15 41//4
f 40//15 42//16 43//4
f 42//16 44//17 45//4
f 44//17 46//18 47//4
f 46//18 48//19 49//4
f 48//19 50//20 24//4
f 50//20 51//21 24//4
f 51//21 52//22 24//4
f 52//22 22//2 24//4
f 53//23 54//24 55//25
f 53//23 55//25 56//26
f 54//24 57//27 58//28
f 54//24 58//28 55//25
f 57//27 59//29 60//30
f 57//27 60//30 58//28
f 59//29 61//31 62//32
f 59//29 62//32 60//30
f 61//31 63//33 64//34
f 61//31 64//34 62//32
f 63//33 65//35 66//36
f 63//33 66//36 64//34
f 65//35 67//37 68//38
f 65//35 68//38 66//36
f 67//37 69//39 70//40
f 67//37 70//40 68//38
f 69//39 71//41 72//42
f 69//39 72//42 70//40
f 71//41 73//43 74//44
f 71//41 74//44 72//42
f 73//43 75//45 76//46
f 73//43 76//46 74//44
f 75//45 77//47 78//48
f 75//45 78//48 76//46
f 77//47 79//49 80//50
f 77//47 80//50 78//48
f 79//49 81//51 82//52
f 79//49 82//52 80//50
f 81//51 83//53 84//54
f 81//51 84//54 82//52
f 83//53 85//55 86//56
f 83//53 86//56 84//54
f 85//55 87//57 88//58
f 85//55 88//58 86//56
f 87//57 89//59 90//60
f 87//57 90//60 88//58
f 89//59 91//61 92//62
f 89//59 92//62 90//60
f 91//61 93//63 94//64
f 91//61 94//64 92//62
f 95//65 22//2 52//22
f 95//65 52//22 96//66
f 97//67 95//65 96//66
f 97//67 96//66 98//68
f 94//64 99//69 100//70
f 94//64 100//70 92//62
f 99//69 101//71 102//72
f 99//69 102//72 100//70
f 22//2 95//65 103//73
f 22//2 103//73 23//3
f 95//65 97//67 104//74
f 95//65 104//74 103//73
f 105//75 106//76 107//77
f 105//75 107//77 108//78
f 106//76 56//26 55//25
f 106//76 55//25 107//77
f 23//3 103//73 109//79
f 23//3 109//79 25//5
f 103//73 104//74 110//80
f 103//73 110//80 109//79
f 108//78 107//77 111//81
f 108//78 111//81 112//82
f 107//77 55//25 58//28
f 107//77 58//28 111//81
f 25//5 109//79 113//83
f 25//5 113//83 26//6
f 109//79 110//80 114//84
f 109//79 114//84 113//83
f 112//82 111//81 115//85
f 112//82 115//85 116//86
f 111//81 58//28 60//30
f 111//81 60//30 115//85
f 26//6 113//83 117//87
f 26//6 117//87 28//7
f 113//83 114//84 118//88
f 113//83 118//88 117//87
f 116//86 115//85 119//89
f 116//86 119//89 120//90
f 115//85 60//30 62//32
f 115//85 62//32 119//89
f 28//7 117//87 121//91
f 28//7 121//91 30//8
f 117//87 118//88 122//92
f 117//87 122//92 121//91
f 120//90 119//89 123//93
f 120//90 123//93 124//94
f 119//89 62//32 64//34
f 119//89 64//34 123//93
f 30//8 121//91 125//95
f 30//8 125//95 32//9
f 121//91 122//92 126//96
f 121//91 126//96 125//95
f 124//94 123//93 127//97
f 124//94 127//97 128//98
f 123//93 64//34 66//36
f 123//93 66//36 127//97
f 32//9 125//95 129//99
f 32//9 129//99 34//10
f 125//95 126//96 130//100
f 125//95 130//100 129//99
f 128//98 127//97 131//101
f 128//98 131//101 132//102
f 127//97 66//36 68//38
f 127//97 68//38 131//101
f 34//10 129//99 133//103
f 34//10 133//103 36//11
f 129//99 130//100 134//104
f 129//99 134//104 133//103
f 132//102 131//101 135//105
f 132//102 135//105 136//106
f 131//101 68//38 70//40
f 131//101 70//40 135//105
f 36//11 133//103 137//107
f 36//11 137//107 37//12
f 133//103 134//104 138//108
f 133//103 138//108 137//107
f 136//106 135//105 139//109
f 136//106 139//109 140//110
f 135//105 70//40 72//42
f 135//105 72//42 139//109
f 37//12 137//107 141//111
f 37//12 141//111 38//13
f 137//107 138//108 142//112
f 137//107 142//112 141//111
f 140//110 139//109 143//113
f 140//110 143//113 144//114
f 139//109 72//42 74//44
f 139//109 74//44 143//113
f 38//13 141//111 145//115
f 38//13 145//115 39//14
f 141//111 142//112 146//116
f 141//111 146//116 145//115
f 144//114 143//113 147//117
f 144//114 147//117 148//118
f 143//113 74//44 76//46
f 143//113 76//46 147//117
f 39//14 145//115 149//119
f 39//14 149//119 40//15
f 145//115 146//116 150//120
f 145//115 150//120 149//119
f 148//118 147//117 151//121
f 148//118 151//121 152//122
f 147//117 76//46 78//48
f 147//117 78//48 151//121
f 40//15 149//119 153//123
f 40//15 153//123 42//16
f 149//119 150//120 154//124
f 149//119 154//124 153//123
f 152//122 151//121 155//125
f 152//122 155//125 156//126
f 151//121 78//48 80//50
f 151//121 80//50 155//125
f 42//16 153//123 157//127
f 42//16 157//127 44//17
f 153//123 154//124 158//128
f 153//123 158//128 157//127
f 156//126 155//125 159//129
f 156//126 159//129 160//130
f 155//125 80//50 82//52
f 155//125 82//52 159//129
f 44//17 157//127 161//131
f 44//17 161//131 46//18
f 157//127 158//128 162//132
f 157//127 162//132 161//131
f 160//130 159//129 163//133
f 160//130 163//133 164//134
f 159//129 82//52 84//54
f 159//129 84//54 163//133
f 46//18 161//131 165//135
f 46//18 165//135 48//19
f 161//131 162//132 166//136
f 161//131 166//136 165//135
f 164//134 163//133 167//137
f 164//134 167//137 168//138
f 163//133 84//54 86//56
f 163//133 86//56 167//137
f 48//19 165//135 169//139
f 48//19 169//139 50//20
f 165//135 166//136 170//140
f 165//135 170//140 169//139
f 168//138 167//137 171//141
f 168//138 171//141 172//142
f 167//137 86//56 88//58
f 167//137 88//58 171//141
f 50//20 169//139 173//143
f 50//20 173//143 51//21
f 169//139 170//140 174//144
f 169//139 174//144 173//143
f 172//142 171//141 175//145
f 172//142 175//145 176//146
f 171//141 88//58 90//60
f 171//141 90//60 175//145
f 51//21 173//143 96//66
f 51//21 96//66 52//22
f 173//143 174//144 98//68
f 173//143 98//68 96//66
f 176//146 175//145 100//70
f 176//146 100//70 102//72
f 175//145 90//60 92//62
f 175//145 92//62 100//70
