# Blender 4.4.1
# www.blender.org
mtllib SM_pCube98_lambert1_0_0.mtl
o SM_pCube98_lambert1_0_0
v 19.594070 10.542620 13.280139
v 19.594070 10.534718 13.264631
v 19.594070 10.587624 13.247442
v 19.594070 10.554926 13.292446
v 19.594070 10.570435 13.300347
v 19.594070 10.587624 13.303070
v 19.594070 10.604813 13.300347
v 19.594070 10.620321 13.292446
v 19.594070 10.632627 13.280139
v 19.594070 10.640530 13.264631
v 19.594070 10.643251 13.247442
v 19.594070 10.640530 13.230251
v 19.594070 10.632627 13.214745
v 19.594070 10.620321 13.202438
v 19.594070 10.604813 13.194536
v 19.594070 10.587624 13.191813
v 19.594070 10.570435 13.194536
v 19.594070 10.554926 13.202438
v 19.594070 10.542620 13.214745
v 19.594070 10.534718 13.230251
v 19.594070 10.531996 13.247442
v 19.412643 10.006191 13.264631
v 19.404739 10.006191 13.280139
v 19.359737 10.006191 13.247442
v 19.392433 10.006191 13.292446
v 19.376926 10.006191 13.300347
v 19.359737 10.006187 13.303070
v 19.342548 10.006191 13.300347
v 19.327038 10.006191 13.292446
v 19.314732 10.006191 13.280139
v 19.306831 10.006191 13.264631
v 19.304108 10.006191 13.247442
v 19.306831 10.006191 13.230251
v 19.314732 10.006191 13.214745
v 19.327038 10.006191 13.202437
v 19.342548 10.006187 13.194536
v 19.359737 10.006191 13.191813
v 19.376926 10.006187 13.194536
v 19.392433 10.006191 13.202437
v 19.404739 10.006187 13.214745
v 19.412643 10.006191 13.230251
v 19.415363 10.006191 13.247442
v 19.660015 10.456787 13.342500
v 19.660015 10.433817 13.297417
v 19.660015 10.587624 13.247442
v 19.660015 10.492565 13.378278
v 19.660015 10.537649 13.401249
v 19.660015 10.587624 13.409164
v 19.660015 10.637598 13.401249
v 19.660015 10.682682 13.378278
v 19.660015 10.718460 13.342500
v 19.660015 10.741430 13.297417
v 19.660015 10.749346 13.247442
v 19.660015 10.741430 13.197466
v 19.660015 10.718460 13.152384
v 19.660015 10.682682 13.116606
v 19.660015 10.637598 13.093636
v 19.660015 10.587624 13.085720
v 19.660015 10.537649 13.093636
v 19.660015 10.492565 13.116606
v 19.660015 10.456787 13.152384
v 19.660015 10.433817 13.197466
v 19.660015 10.425901 13.247442
v 19.600925 10.462265 13.288174
v 19.600925 10.480988 13.324918
v 19.600925 10.587624 13.247442
v 19.600925 10.510147 13.354078
v 19.600925 10.546892 13.372801
v 19.600925 10.587624 13.379251
v 19.600925 10.628355 13.372801
v 19.600925 10.665100 13.354078
v 19.600925 10.694260 13.324918
v 19.600925 10.712982 13.288174
v 19.600925 10.719433 13.247442
v 19.600925 10.712982 13.206711
v 19.600925 10.694260 13.169966
v 19.600925 10.665100 13.140805
v 19.600925 10.628355 13.122083
v 19.600925 10.587624 13.115631
v 19.600925 10.546892 13.122083
v 19.600925 10.510147 13.140805
v 19.600925 10.480988 13.169966
v 19.600925 10.462265 13.206711
v 19.600925 10.455814 13.247442
v 19.657852 14.021055 16.481821
v 19.657852 6.354970 16.481821
v 19.773617 6.354970 16.481821
v 19.773617 14.021055 16.481821
v 19.773617 6.354970 16.481821
v 19.773617 6.772469 16.047932
v 19.773617 13.588876 16.047932
v 19.773617 14.021055 16.481821
v 19.657852 14.021055 16.481821
v 19.657852 13.588876 16.047932
v 19.657852 6.772469 16.047932
v 19.657852 6.354970 16.481821
v 19.773617 6.772469 16.047932
v 19.657852 6.772469 16.047932
v 19.657852 13.588876 16.047932
v 19.773617 13.588876 16.047932
v 19.773617 6.354970 16.481821
v 19.657852 6.354970 16.481821
v 19.657852 6.354970 13.026409
v 19.773617 6.354970 13.026409
v 19.773617 6.354970 13.026409
v 19.773617 6.772469 13.454777
v 19.657852 6.772469 16.047932
v 19.773617 6.772469 16.047932
v 19.773617 6.772469 13.454777
v 19.657852 6.772469 13.454777
v 19.657852 6.772469 13.454777
v 19.657852 6.354970 13.026409
v 19.773617 14.021055 16.481821
v 19.773617 14.021055 13.026409
v 19.657852 14.021055 13.026409
v 19.657852 14.021055 16.481821
v 19.657852 14.021055 13.026409
v 19.773617 14.021055 13.026409
v 19.773617 6.354970 13.026409
v 19.657852 6.354970 13.026409
v 19.773617 14.021055 13.026409
v 19.773617 13.588876 13.454777
v 19.657852 14.021055 13.026409
v 19.657852 13.588876 13.454777
v 19.773617 6.772469 13.454777
v 19.773617 13.588876 13.454777
v 19.657852 13.588876 13.454777
v 19.657852 6.772469 13.454777
v 19.657852 13.588876 16.047932
v 19.657852 13.588876 13.454777
v 19.773617 13.588876 13.454777
v 19.773617 13.588876 16.047932
v 19.774153 14.333989 16.915970
v 19.774153 5.973976 16.915970
v 19.930460 5.973976 16.915970
v 19.930460 14.333989 16.915970
v 19.930460 5.973976 16.915970
v 19.930460 6.513004 16.316023
v 19.930460 13.794961 16.316023
v 19.930460 14.333989 16.915970
v 19.774153 14.333989 16.915970
v 19.774153 13.794961 16.316023
v 19.774153 6.513004 16.316023
v 19.774153 5.973976 16.915970
v 19.930460 6.513004 16.316023
v 19.774153 6.513004 16.316023
v 19.774153 13.794961 16.316023
v 19.930460 13.794961 16.316023
v 19.774153 14.333989 8.930881
v 19.930460 14.333989 8.930881
v 19.930460 5.973976 8.930881
v 19.774153 5.973976 8.930881
v 19.930460 5.973976 8.930881
v 19.930460 14.333989 8.930881
v 19.930460 13.794961 9.530828
v 19.930460 6.513004 9.530828
v 19.774153 14.333989 8.930881
v 19.774153 5.973976 8.930881
v 19.774153 6.513004 9.530828
v 19.774153 13.794961 9.530828
v 19.930460 6.513004 9.530828
v 19.930460 13.794961 9.530828
v 19.774153 13.794961 9.530828
v 19.774153 6.513004 9.530828
v 19.774153 14.333989 12.652045
v 19.774153 14.333989 13.194806
v 19.930460 14.333989 13.194806
v 19.930460 14.333989 12.652045
v 19.774153 14.333989 13.194806
v 19.774153 14.333989 12.652045
v 19.774153 13.794961 12.652045
v 19.774153 13.794961 13.194806
v 19.930460 13.794961 13.194806
v 19.930460 13.794961 12.652045
v 19.930460 14.333989 12.652045
v 19.930460 14.333989 13.194806
v 19.774153 5.973976 13.194806
v 19.774153 5.973976 12.652045
v 19.930460 5.973976 12.652045
v 19.930460 5.973976 13.194806
v 19.774153 5.973976 12.652045
v 19.774153 5.973976 13.194806
v 19.774153 6.513004 13.194806
v 19.774153 6.513004 12.652045
v 19.930460 6.513004 12.652045
v 19.930460 6.513004 13.194806
v 19.930460 5.973976 13.194806
v 19.930460 5.973976 12.652045
v 19.774153 5.973976 8.930881
v 19.930460 5.973976 8.930881
v 19.774153 6.513004 12.652045
v 19.930460 6.513004 12.652045
v 19.930460 6.513004 9.530828
v 19.774153 6.513004 9.530828
v 19.930460 14.333989 16.915970
v 19.774153 14.333989 16.915970
v 19.774153 13.794961 16.316023
v 19.774153 13.794961 13.194806
v 19.930460 13.794961 13.194806
v 19.930460 13.794961 16.316023
v 19.930460 13.794961 12.652045
v 19.774153 13.794961 12.652045
v 19.774153 13.794961 9.530828
v 19.930460 13.794961 9.530828
v 19.930460 14.333989 8.930881
v 19.774153 14.333989 8.930881
v 19.774153 6.513004 16.316023
v 19.930460 6.513004 16.316023
v 19.930460 6.513004 13.194806
v 19.774153 6.513004 13.194806
v 19.930460 5.973976 16.915970
v 19.774153 5.973976 16.915970
v 19.774153 13.794961 13.194806
v 19.774153 13.794961 12.652045
v 19.930460 13.794961 12.652045
v 19.930460 6.513004 12.652045
v 19.774153 6.513004 12.652045
v 19.930460 13.794961 13.194806
v 19.930460 6.513004 12.652045
v 19.930460 13.794961 13.194806
v 19.774153 13.794961 13.194806
v 19.774153 6.513004 13.194806
v 19.930460 6.513004 13.194806
v 19.594070 10.534718 13.264631
v 19.594070 10.542620 13.280139
v 19.548885 10.538361 13.280139
v 19.550579 10.530640 13.264631
v 19.594070 10.554926 13.292446
v 19.546249 10.550381 13.292446
v 19.594070 10.570435 13.300347
v 19.542927 10.565527 13.300347
v 19.594070 10.587624 13.303070
v 19.539242 10.582317 13.303070
v 19.594070 10.604813 13.300347
v 19.535561 10.599110 13.300347
v 19.594070 10.620321 13.292446
v 19.532238 10.614258 13.292446
v 19.594070 10.632627 13.280139
v 19.529602 10.626278 13.280139
v 19.594070 10.640530 13.264631
v 19.527908 10.633995 13.264631
v 19.594070 10.643251 13.247442
v 19.527325 10.636654 13.247442
v 19.594070 10.640530 13.230251
v 19.527908 10.633995 13.230251
v 19.594070 10.632627 13.214745
v 19.529602 10.626278 13.214745
v 19.594070 10.620321 13.202438
v 19.532238 10.614258 13.202438
v 19.594070 10.604813 13.194536
v 19.535557 10.599110 13.194536
v 19.594070 10.587624 13.191813
v 19.539246 10.582317 13.191814
v 19.594070 10.570435 13.194536
v 19.542927 10.565527 13.194536
v 19.594070 10.554926 13.202438
v 19.546249 10.550381 13.202438
v 19.594070 10.542620 13.214745
v 19.548885 10.538361 13.214745
v 19.594070 10.534718 13.230251
v 19.550579 10.530642 13.230251
v 19.594070 10.531996 13.247442
v 19.551163 10.527981 13.247442
v 19.594070 10.534718 13.264631
v 19.550579 10.530640 13.264631
v 19.412643 10.061398 13.264631
v 19.404739 10.061398 13.280139
v 19.404739 10.006191 13.280139
v 19.412643 10.006191 13.264631
v 19.415363 10.061398 13.247442
v 19.412643 10.061398 13.264631
v 19.412643 10.006191 13.264631
v 19.415363 10.006191 13.247442
v 19.412643 10.061398 13.230251
v 19.412643 10.006191 13.230251
v 19.404739 10.061398 13.214745
v 19.404739 10.006187 13.214745
v 19.392433 10.061398 13.202437
v 19.392433 10.006191 13.202437
v 19.376926 10.061398 13.194536
v 19.376926 10.006187 13.194536
v 19.359737 10.061398 13.191813
v 19.359737 10.006191 13.191813
v 19.342548 10.061398 13.194536
v 19.342548 10.006187 13.194536
v 19.327038 10.061398 13.202437
v 19.327038 10.006191 13.202437
v 19.314732 10.061398 13.214745
v 19.314732 10.006191 13.214745
v 19.306831 10.061398 13.230251
v 19.306831 10.006191 13.230251
v 19.304108 10.061398 13.247442
v 19.304108 10.006191 13.247442
v 19.306831 10.061398 13.264631
v 19.306831 10.006191 13.264631
v 19.314732 10.061398 13.280139
v 19.314732 10.006191 13.280139
v 19.327038 10.061398 13.292446
v 19.327038 10.006191 13.292446
v 19.342548 10.061398 13.300346
v 19.342548 10.006191 13.300347
v 19.359737 10.061398 13.303070
v 19.359737 10.006187 13.303070
v 19.376926 10.061398 13.300346
v 19.376926 10.006191 13.300347
v 19.392433 10.061398 13.292446
v 19.392433 10.006191 13.292446
v 19.412643 10.116608 13.264631
v 19.404739 10.116608 13.280139
v 19.415363 10.116608 13.247441
v 19.412643 10.116608 13.264631
v 19.412643 10.116608 13.230251
v 19.404739 10.116608 13.214745
v 19.392433 10.116608 13.202437
v 19.376926 10.116608 13.194536
v 19.359737 10.116608 13.191813
v 19.342548 10.116608 13.194536
v 19.327038 10.116608 13.202437
v 19.314732 10.116608 13.214745
v 19.306831 10.116608 13.230251
v 19.304108 10.116608 13.247441
v 19.306831 10.116608 13.264631
v 19.314732 10.116608 13.280139
v 19.327038 10.116608 13.292446
v 19.342548 10.116608 13.300347
v 19.359737 10.116608 13.303070
v 19.376926 10.116608 13.300347
v 19.392433 10.116608 13.292446
v 19.412643 10.171814 13.264631
v 19.404739 10.171818 13.280140
v 19.415363 10.171814 13.247442
v 19.412643 10.171814 13.264631
v 19.412643 10.171814 13.230251
v 19.404739 10.171814 13.214745
v 19.392433 10.171814 13.202438
v 19.376926 10.171814 13.194536
v 19.359737 10.171818 13.191814
v 19.342548 10.171814 13.194536
v 19.327038 10.171814 13.202438
v 19.314732 10.171814 13.214745
v 19.306831 10.171814 13.230251
v 19.304108 10.171814 13.247442
v 19.306831 10.171818 13.264631
v 19.314732 10.171818 13.280140
v 19.327038 10.171814 13.292446
v 19.342548 10.171818 13.300347
v 19.359737 10.171814 13.303070
v 19.376926 10.171818 13.300347
v 19.392433 10.171814 13.292446
v 19.412643 10.227024 13.264631
v 19.404739 10.227024 13.280139
v 19.415363 10.227024 13.247442
v 19.412643 10.227024 13.264631
v 19.412643 10.227024 13.230251
v 19.404739 10.227024 13.214745
v 19.392433 10.227024 13.202438
v 19.376926 10.227024 13.194536
v 19.359737 10.227024 13.191814
v 19.342548 10.227024 13.194536
v 19.327038 10.227024 13.202438
v 19.314732 10.227024 13.214745
v 19.306831 10.227024 13.230251
v 19.304108 10.227024 13.247442
v 19.306831 10.227024 13.264631
v 19.314732 10.227024 13.280139
v 19.327038 10.227024 13.292446
v 19.342548 10.227024 13.300347
v 19.359737 10.227024 13.303070
v 19.376926 10.227024 13.300347
v 19.392433 10.227024 13.292446
v 19.412643 10.282234 13.264631
v 19.404739 10.282234 13.280139
v 19.415363 10.282234 13.247442
v 19.412643 10.282234 13.264631
v 19.412643 10.282234 13.230251
v 19.404739 10.282234 13.214745
v 19.392433 10.282234 13.202438
v 19.376926 10.282234 13.194536
v 19.359737 10.282234 13.191813
v 19.342548 10.282234 13.194536
v 19.327038 10.282234 13.202438
v 19.314732 10.282234 13.214745
v 19.306831 10.282234 13.230251
v 19.304108 10.282234 13.247442
v 19.306831 10.282234 13.264631
v 19.314732 10.282234 13.280139
v 19.327038 10.282234 13.292446
v 19.342548 10.282234 13.300347
v 19.359737 10.282234 13.303070
v 19.376926 10.282234 13.300347
v 19.392433 10.282234 13.292446
v 19.412643 10.337440 13.264631
v 19.404739 10.337440 13.280139
v 19.415363 10.337440 13.247442
v 19.412643 10.337440 13.264631
v 19.412643 10.337440 13.230251
v 19.404739 10.337440 13.214745
v 19.392433 10.337440 13.202437
v 19.376926 10.337440 13.194536
v 19.359737 10.337440 13.191813
v 19.342548 10.337440 13.194536
v 19.327038 10.337440 13.202437
v 19.314732 10.337440 13.214745
v 19.306831 10.337440 13.230251
v 19.304108 10.337440 13.247442
v 19.306831 10.337440 13.264631
v 19.314732 10.337440 13.280139
v 19.327038 10.337440 13.292446
v 19.342548 10.337440 13.300346
v 19.359737 10.337440 13.303070
v 19.376926 10.337440 13.300346
v 19.392433 10.337440 13.292446
v 19.414524 10.384804 13.264631
v 19.406708 10.385960 13.280140
v 19.417217 10.384407 13.247442
v 19.414524 10.384804 13.264631
v 19.414524 10.384804 13.230251
v 19.406708 10.385958 13.214745
v 19.394531 10.387754 13.202438
v 19.379192 10.390018 13.194536
v 19.362186 10.392532 13.191814
v 19.345181 10.395039 13.194536
v 19.329838 10.397305 13.202438
v 19.317665 10.399101 13.214745
v 19.309849 10.400255 13.230251
v 19.307156 10.400654 13.247442
v 19.309849 10.400257 13.264631
v 19.317665 10.399105 13.280140
v 19.329838 10.397305 13.292446
v 19.345181 10.395042 13.300347
v 19.362186 10.392529 13.303070
v 19.379192 10.390022 13.300347
v 19.394531 10.387754 13.292446
v 19.425705 10.425621 13.264631
v 19.418392 10.428612 13.280139
v 19.428226 10.424591 13.247442
v 19.425705 10.425621 13.264631
v 19.425705 10.425621 13.230251
v 19.418392 10.428612 13.214745
v 19.407001 10.433270 13.202438
v 19.392647 10.439140 13.194536
v 19.376736 10.445648 13.191814
v 19.360825 10.452152 13.194536
v 19.346474 10.458027 13.202438
v 19.335083 10.462685 13.214745
v 19.327770 10.465675 13.230251
v 19.325249 10.466705 13.247442
v 19.327770 10.465675 13.264631
v 19.335083 10.462685 13.280139
v 19.346474 10.458027 13.292446
v 19.360828 10.452156 13.300347
v 19.376736 10.445646 13.303070
v 19.392647 10.439140 13.300347
v 19.407001 10.433270 13.292446
v 19.446331 10.462574 13.264631
v 19.439945 10.467230 13.280139
v 19.448532 10.460972 13.247442
v 19.446331 10.462574 13.264631
v 19.446331 10.462576 13.230251
v 19.439945 10.467230 13.214745
v 19.430000 10.474480 13.202438
v 19.417469 10.483614 13.194536
v 19.403576 10.493740 13.191813
v 19.389687 10.503864 13.194536
v 19.377155 10.513000 13.202438
v 19.367210 10.520248 13.214745
v 19.360825 10.524902 13.230251
v 19.358624 10.526506 13.247442
v 19.360825 10.524902 13.264631
v 19.367210 10.520248 13.280139
v 19.377155 10.513000 13.292446
v 19.389687 10.503864 13.300347
v 19.403576 10.493740 13.303070
v 19.417469 10.483614 13.300347
v 19.430000 10.474480 13.292446
v 19.475201 10.493519 13.264631
v 19.470112 10.499567 13.280139
v 19.476952 10.491436 13.247442
v 19.475201 10.493519 13.264631
v 19.475201 10.493521 13.230251
v 19.470112 10.499567 13.214745
v 19.462193 10.508986 13.202437
v 19.452209 10.520855 13.194536
v 19.441147 10.534010 13.191813
v 19.430084 10.547165 13.194536
v 19.420101 10.559034 13.202437
v 19.412182 10.568451 13.214745
v 19.407093 10.574499 13.230251
v 19.405342 10.576584 13.247442
v 19.407093 10.574499 13.264631
v 19.412182 10.568451 13.280139
v 19.420101 10.559034 13.292446
v 19.430084 10.547165 13.300346
v 19.441147 10.534010 13.303070
v 19.452209 10.520855 13.300346
v 19.462193 10.508986 13.292446
v 19.510635 10.516655 13.264631
v 19.507145 10.523746 13.280139
v 19.511837 10.514214 13.247441
v 19.510635 10.516655 13.264631
v 19.510635 10.516657 13.230251
v 19.507145 10.523746 13.214745
v 19.501709 10.534786 13.202437
v 19.494858 10.548698 13.194536
v 19.487263 10.564121 13.191813
v 19.479668 10.579540 13.194536
v 19.472816 10.593452 13.202437
v 19.467381 10.604492 13.214745
v 19.463890 10.611580 13.230251
v 19.462685 10.614025 13.247441
v 19.463890 10.611582 13.264631
v 19.467381 10.604494 13.280139
v 19.472816 10.593452 13.292446
v 19.479668 10.579540 13.300347
v 19.487263 10.564119 13.303070
v 19.494858 10.548698 13.300347
v 19.501709 10.534786 13.292446
v 19.630470 10.433817 13.297417
v 19.600925 10.462265 13.288174
v 19.600925 10.455814 13.247442
v 19.630470 10.425901 13.247442
v 19.600925 10.462265 13.288174
v 19.630470 10.433817 13.297417
v 19.630470 10.456787 13.342500
v 19.600925 10.480988 13.324918
v 19.600925 10.480988 13.324918
v 19.630470 10.492565 13.378278
v 19.600925 10.510147 13.354078
v 19.600925 10.510147 13.354078
v 19.630470 10.537649 13.401249
v 19.600925 10.546892 13.372801
v 19.600925 10.546892 13.372801
v 19.630470 10.587624 13.409164
v 19.600925 10.587624 13.379251
v 19.600925 10.587624 13.379251
v 19.630470 10.637598 13.401249
v 19.600925 10.628355 13.372801
v 19.600925 10.628355 13.372801
v 19.630470 10.682682 13.378278
v 19.600925 10.665100 13.354078
v 19.600925 10.665100 13.354078
v 19.630470 10.718460 13.342500
v 19.600925 10.694260 13.324918
v 19.600925 10.694260 13.324918
v 19.630470 10.741430 13.297417
v 19.600925 10.712982 13.288174
v 19.600925 10.712982 13.288174
v 19.630470 10.749346 13.247442
v 19.600925 10.719433 13.247442
v 19.600925 10.719433 13.247442
v 19.630470 10.741430 13.197466
v 19.600925 10.712982 13.206711
v 19.600925 10.712982 13.206711
v 19.630470 10.718460 13.152384
v 19.600925 10.694260 13.169966
v 19.600925 10.694260 13.169966
v 19.630470 10.682682 13.116606
v 19.600925 10.665100 13.140805
v 19.600925 10.665100 13.140805
v 19.630470 10.637598 13.093636
v 19.600925 10.628355 13.122083
v 19.600925 10.628355 13.122083
v 19.630470 10.587624 13.085720
v 19.600925 10.587624 13.115631
v 19.600925 10.587624 13.115631
v 19.630470 10.537649 13.093636
v 19.600925 10.546892 13.122083
v 19.600925 10.546892 13.122083
v 19.630470 10.492565 13.116606
v 19.600925 10.510147 13.140805
v 19.600925 10.510147 13.140805
v 19.630470 10.456787 13.152384
v 19.600925 10.480988 13.169966
v 19.600925 10.480988 13.169966
v 19.630470 10.433817 13.197466
v 19.600925 10.462265 13.206711
v 19.600925 10.462265 13.206711
v 19.600925 10.455814 13.247442
v 19.660015 10.433817 13.297417
v 19.660015 10.456787 13.342500
v 19.630470 10.456787 13.342500
v 19.630470 10.433817 13.297417
v 19.660015 10.492565 13.378278
v 19.630470 10.492565 13.378278
v 19.660015 10.537649 13.401249
v 19.630470 10.537649 13.401249
v 19.660015 10.587624 13.409164
v 19.630470 10.587624 13.409164
v 19.660015 10.637598 13.401249
v 19.630470 10.637598 13.401249
v 19.660015 10.682682 13.378278
v 19.630470 10.682682 13.378278
v 19.660015 10.718460 13.342500
v 19.630470 10.718460 13.342500
v 19.660015 10.741430 13.297417
v 19.630470 10.741430 13.297417
v 19.660015 10.749346 13.247442
v 19.630470 10.749346 13.247442
v 19.660015 10.741430 13.197466
v 19.630470 10.741430 13.197466
v 19.660015 10.718460 13.152384
v 19.630470 10.718460 13.152384
v 19.660015 10.682682 13.116606
v 19.630470 10.682682 13.116606
v 19.660015 10.637598 13.093636
v 19.630470 10.637598 13.093636
v 19.660015 10.587624 13.085720
v 19.630470 10.587624 13.085720
v 19.660015 10.537649 13.093636
v 19.630470 10.537649 13.093636
v 19.660015 10.492565 13.116606
v 19.630470 10.492565 13.116606
v 19.660015 10.456787 13.152384
v 19.630470 10.456787 13.152384
v 19.660015 10.433817 13.197466
v 19.630470 10.433817 13.197466
v 19.660015 10.425901 13.247442
v 19.630470 10.425901 13.247442
v 19.660015 10.433817 13.297417
v 19.630470 10.433817 13.297417
vn 1.0000 -0.0000 -0.0000
vn 1.0000 0.0001 -0.0000
vn 1.0000 -0.0001 -0.0000
vn -0.0000 1.0000 -0.0000
vn -0.0001 1.0000 -0.0000
vn -0.0000 1.0000 0.0001
vn 0.0001 1.0000 -0.0000
vn -0.0000 1.0000 -0.0001
vn 0.0001 1.0000 -0.0001
vn -0.0000 -0.0000 1.0000
vn 0.0888 -0.9459 0.3122
vn 0.0756 -0.8017 0.5930
vn 0.1703 -0.7840 0.5970
vn 0.2009 -0.9276 0.3151
vn 0.0549 -0.5774 0.8146
vn 0.1226 -0.5622 0.8178
vn 0.0283 -0.2955 0.9549
vn 0.0626 -0.2858 0.9563
vn -0.0015 0.0149 0.9999
vn -0.0038 0.0171 0.9998
vn -0.0315 0.3224 0.9461
vn -0.0700 0.3167 0.9459
vn -0.0585 0.5966 0.8004
vn -0.1295 0.5844 0.8011
vn -0.0799 0.8116 0.5788
vn -0.1765 0.7952 0.5801
vn -0.0936 0.9483 0.3032
vn -0.2067 0.9299 0.3042
vn -0.0983 0.9952 -0.0000
vn -0.2170 0.9762 -0.0000
vn -0.0936 0.9483 -0.3032
vn -0.2067 0.9299 -0.3043
vn -0.0799 0.8116 -0.5787
vn -0.1766 0.7953 -0.5800
vn -0.0585 0.5967 -0.8004
vn -0.1295 0.5844 -0.8011
vn -0.0315 0.3224 -0.9461
vn -0.0700 0.3167 -0.9459
vn -0.0015 0.0149 -0.9999
vn -0.0038 0.0171 -0.9998
vn 0.0283 -0.2955 -0.9549
vn 0.0626 -0.2858 -0.9563
vn 0.0549 -0.5773 -0.8147
vn 0.1226 -0.5622 -0.8179
vn 0.0756 -0.8017 -0.5929
vn 0.1703 -0.7839 -0.5970
vn 0.0887 -0.9459 -0.3120
vn 0.2009 -0.9276 -0.3149
vn 0.0932 -0.9956 -0.0001
vn 0.2114 -0.9774 -0.0000
vn 0.0888 -0.9460 0.3119
vn 0.2009 -0.9277 0.3148
vn 0.9510 -0.0000 0.3092
vn 0.8090 -0.0000 0.5878
vn 0.9511 -0.0000 0.3089
vn 0.9511 -0.0000 -0.3090
vn 0.8090 -0.0000 -0.5878
vn 0.5878 -0.0000 -0.8090
vn 0.3090 -0.0000 -0.9511
vn 0.3090 -0.0000 -0.9510
vn -0.0000 -0.0000 -1.0000
vn -0.3090 -0.0000 -0.9511
vn -0.5878 -0.0000 -0.8090
vn -0.8090 -0.0000 -0.5878
vn -0.9511 -0.0000 -0.3090
vn -1.0000 -0.0000 -0.0000
vn -0.9511 -0.0000 0.3090
vn -0.8091 -0.0000 0.5877
vn -0.8090 -0.0000 0.5877
vn -0.5877 -0.0000 0.8090
vn -0.5877 -0.0000 0.8091
vn -0.3090 -0.0000 0.9511
vn -0.3089 -0.0000 0.9511
vn 0.0001 -0.0000 1.0000
vn 0.3090 -0.0000 0.9511
vn 0.3090 -0.0000 0.9510
vn 0.5878 -0.0000 0.8090
vn 0.9510 -0.0000 0.3091
vn -0.8090 -0.0000 -0.5877
vn 0.3091 -0.0000 -0.9510
vn -0.8090 -0.0000 0.5878
vn 0.9506 -0.0176 0.3099
vn 0.8080 -0.0156 0.5890
vn 0.9998 -0.0186 -0.0000
vn 0.9507 -0.0176 0.3096
vn 0.9507 -0.0177 -0.3097
vn 0.8079 -0.0155 -0.5891
vn 0.5857 -0.0117 -0.8104
vn 0.3061 -0.0064 -0.9520
vn -0.0040 0.0002 -1.0000
vn -0.3129 0.0074 -0.9498
vn -0.5908 0.0144 -0.8067
vn -0.8106 0.0203 -0.5853
vn -0.9512 0.0241 -0.3075
vn -0.9997 0.0252 -0.0000
vn -0.9513 0.0242 0.3074
vn -0.8106 0.0203 0.5852
vn -0.5908 0.0144 0.8067
vn -0.3128 0.0074 0.9498
vn -0.0038 0.0002 1.0000
vn 0.3058 -0.0063 0.9521
vn 0.5856 -0.0116 0.8105
vn 0.9390 -0.1394 0.3145
vn 0.7940 -0.1191 0.5962
vn 0.9892 -0.1464 -0.0000
vn 0.9390 -0.1394 0.3143
vn 0.9390 -0.1394 -0.3144
vn 0.7939 -0.1190 -0.5963
vn 0.5700 -0.0866 -0.8171
vn 0.2907 -0.0447 -0.9558
vn -0.0155 0.0027 -0.9999
vn -0.3187 0.0510 -0.9465
vn -0.5898 0.0952 -0.8019
vn -0.8035 0.1305 -0.5808
vn -0.9400 0.1532 -0.3048
vn -0.9869 0.1611 -0.0000
vn -0.9400 0.1533 0.3048
vn -0.8035 0.1305 0.5808
vn -0.5898 0.0952 0.8019
vn -0.3187 0.0510 0.9465
vn -0.0156 0.0027 0.9999
vn 0.2907 -0.0447 0.9558
vn 0.5700 -0.0867 0.8171
vn 0.8785 -0.3593 0.3149
vn 0.7426 -0.3037 0.5969
vn 0.9256 -0.3786 -0.0000
vn 0.8786 -0.3593 0.3147
vn 0.8785 -0.3593 -0.3147
vn 0.7426 -0.3037 -0.5969
vn 0.5326 -0.2178 -0.8179
vn 0.2706 -0.1107 -0.9563
vn -0.0166 0.0068 -0.9998
vn -0.3007 0.1230 -0.9458
vn -0.5544 0.2267 -0.8008
vn -0.7542 0.3085 -0.5796
vn -0.8818 0.3606 -0.3041
vn -0.9256 0.3785 -0.0000
vn -0.8817 0.3606 0.3041
vn -0.7542 0.3085 0.5797
vn -0.5544 0.2268 0.8008
vn -0.3007 0.1230 0.9458
vn -0.0166 0.0068 0.9998
vn 0.2706 -0.1107 0.9563
vn 0.5326 -0.2178 0.8178
vn 0.7670 -0.5591 0.3149
vn 0.6483 -0.4726 0.5969
vn 0.8081 -0.5891 -0.0000
vn 0.7670 -0.5591 0.3147
vn 0.7670 -0.5591 -0.3147
vn 0.6484 -0.4726 -0.5968
vn 0.4650 -0.3389 -0.8179
vn 0.2362 -0.1722 -0.9563
vn -0.0145 0.0106 -0.9998
vn -0.2626 0.1914 -0.9458
vn -0.4841 0.3529 -0.8007
vn -0.6585 0.4800 -0.5797
vn -0.7698 0.5611 -0.3041
vn -0.8081 0.5890 -0.0000
vn -0.7698 0.5611 0.3043
vn -0.6585 0.4800 0.5797
vn -0.4841 0.3529 0.8007
vn -0.2625 0.1913 0.9458
vn -0.0145 0.0106 0.9998
vn 0.2363 -0.1722 0.9563
vn 0.4650 -0.3390 0.8178
vn 0.6109 -0.7264 0.3149
vn 0.5164 -0.6140 0.5969
vn 0.6436 -0.7653 -0.0001
vn 0.6109 -0.7265 0.3147
vn 0.6109 -0.7265 -0.3147
vn 0.5164 -0.6140 -0.5969
vn 0.3704 -0.4405 -0.8178
vn 0.1882 -0.2238 -0.9563
vn -0.0116 0.0137 -0.9998
vn -0.2091 0.2486 -0.9458
vn -0.3856 0.4585 -0.8007
vn -0.5245 0.6237 -0.5796
vn -0.6132 0.7291 -0.3041
vn -0.6437 0.7653 -0.0000
vn -0.6132 0.7291 0.3041
vn -0.5245 0.6237 0.5796
vn -0.3856 0.4585 0.8007
vn -0.2091 0.2486 0.9458
vn -0.0115 0.0137 0.9998
vn 0.1882 -0.2237 0.9563
vn 0.3703 -0.4403 0.8179
vn 0.4193 -0.8515 0.3149
vn 0.3545 -0.7198 0.5969
vn 0.4418 -0.8971 -0.0001
vn 0.4193 -0.8516 0.3147
vn 0.4193 -0.8515 -0.3148
vn 0.3545 -0.7198 -0.5969
vn 0.2542 -0.5162 -0.8179
vn 0.1292 -0.2623 -0.9563
vn -0.0079 0.0161 -0.9998
vn -0.1435 0.2914 -0.9458
vn -0.2647 0.5374 -0.8007
vn -0.3600 0.7310 -0.5797
vn -0.4208 0.8546 -0.3044
vn -0.4418 0.8971 -0.0001
vn -0.4209 0.8547 0.3040
vn -0.3600 0.7310 0.5796
vn -0.2647 0.5374 0.8007
vn -0.1435 0.2914 0.9458
vn -0.0079 0.0161 0.9998
vn 0.1292 -0.2623 0.9563
vn 0.2542 -0.5162 0.8179
vn 0.7809 0.6170 -0.0977
vn 0.6246 0.7713 -0.1222
vn 0.6246 0.7713 -0.1221
vn 0.6246 0.6958 -0.3545
vn 0.7809 0.5566 -0.2836
vn 0.7808 0.5567 -0.2836
vn 0.6246 0.5522 -0.5522
vn 0.7809 0.4417 -0.4417
vn 0.6247 0.5521 -0.5522
vn 0.6246 0.3545 -0.6958
vn 0.7809 0.2836 -0.5566
vn 0.6246 0.1221 -0.7713
vn 0.7809 0.0977 -0.6170
vn 0.6247 0.1221 -0.7713
vn 0.6247 -0.1221 -0.7713
vn 0.7809 -0.0977 -0.6170
vn 0.6246 -0.1221 -0.7714
vn 0.6246 -0.3545 -0.6958
vn 0.7809 -0.2836 -0.5566
vn 0.6247 -0.3545 -0.6958
vn 0.6246 -0.5522 -0.5522
vn 0.7809 -0.4417 -0.4417
vn 0.6247 -0.5522 -0.5521
vn 0.6246 -0.6958 -0.3545
vn 0.7809 -0.5566 -0.2836
vn 0.6246 -0.7713 -0.1222
vn 0.7809 -0.6170 -0.0977
vn 0.6247 -0.7713 -0.1221
vn 0.6247 -0.7713 0.1222
vn 0.7809 -0.6170 0.0977
vn 0.6246 -0.6958 0.3545
vn 0.7809 -0.5565 0.2836
vn 0.6247 -0.5522 0.5522
vn 0.7809 -0.4417 0.4417
vn 0.7809 -0.4418 0.4417
vn 0.6247 -0.5521 0.5522
vn 0.6246 -0.3545 0.6958
vn 0.7809 -0.2836 0.5566
vn 0.6246 -0.3546 0.6958
vn 0.6246 -0.1222 0.7713
vn 0.7809 -0.0977 0.6170
vn 0.6246 -0.1221 0.7713
vn 0.6246 0.1222 0.7713
vn 0.7809 0.0977 0.6170
vn 0.6246 0.1221 0.7714
vn 0.6246 0.3545 0.6958
vn 0.7809 0.2836 0.5566
vn 0.6247 0.3545 0.6958
vn 0.6246 0.5522 0.5522
vn 0.7809 0.4417 0.4417
vn 0.7809 0.4417 0.4416
vn 0.6246 0.6958 0.3545
vn 0.7809 0.5565 0.2836
vn 0.7809 0.5566 0.2836
vn 0.6246 0.7713 0.1221
vn 0.7809 0.6170 0.0977
vn 0.6247 0.7713 0.1221
vn -0.0000 -0.9510 0.3091
vn -0.0000 -0.8090 0.5878
vn -0.0000 -0.5878 0.8090
vn -0.0000 -0.3090 0.9511
vn -0.0000 0.3090 0.9511
vn -0.0000 0.5878 0.8090
vn -0.0000 0.8090 0.5878
vn -0.0000 0.9511 0.3090
vn -0.0000 0.9511 -0.3090
vn -0.0000 0.8090 -0.5878
vn -0.0000 0.5878 -0.8090
vn -0.0000 0.3090 -0.9511
vn -0.0000 -0.3090 -0.9511
vn -0.0000 -0.5878 -0.8090
vn -0.0000 -0.8090 -0.5878
vn -0.0000 -0.9511 -0.3090
vn -0.0000 -1.0000 -0.0000
vn -0.0000 -0.9511 0.3089
vn 0.0001 -0.9511 0.3089
s 1
usemtl M_pCube98_lambert1_0_0
f 1//1 2//1 3//1
f 4//2 1//1 3//1
f 5//2 4//2 3//1
f 6//1 5//2 3//1
f 7//1 6//1 3//1
f 8//1 7//1 3//1
f 9//3 8//1 3//1
f 10//3 9//3 3//1
f 11//1 10//3 3//1
f 12//1 11//1 3//1
f 13//1 12//1 3//1
f 14//3 13//1 3//1
f 15//3 14//3 3//1
f 16//1 15//3 3//1
f 17//1 16//1 3//1
f 18//1 17//1 3//1
f 19//1 18//1 3//1
f 20//1 19//1 3//1
f 21//1 20//1 3//1
f 2//1 21//1 3//1
f 22//4 24//4 23//4
f 23//4 24//4 25//4
f 25//4 24//4 26//5
f 26//5 24//4 27//6
f 27//6 24//4 28//7
f 28//7 24//4 29//4
f 29//4 24//4 30//8
f 30//8 24//4 31//8
f 31//8 24//4 32//4
f 32//4 24//4 33//4
f 33//4 24//4 34//4
f 34//4 24//4 35//9
f 35//9 24//4 36//8
f 36//8 24//4 37//4
f 37//4 24//4 38//8
f 38//8 24//4 39//4
f 39//4 24//4 40//7
f 40//7 24//4 41//8
f 41//8 24//4 42//4
f 42//4 24//4 22//4
f 43//1 44//1 45//1
f 46//1 43//1 45//1
f 47//1 46//1 45//1
f 48//1 47//1 45//1
f 49//1 48//1 45//1
f 50//1 49//1 45//1
f 51//1 50//1 45//1
f 52//1 51//1 45//1
f 53//1 52//1 45//1
f 54//1 53//1 45//1
f 55//1 54//1 45//1
f 56//1 55//1 45//1
f 57//1 56//1 45//1
f 58//1 57//1 45//1
f 59//1 58//1 45//1
f 60//1 59//1 45//1
f 61//1 60//1 45//1
f 62//1 61//1 45//1
f 63//1 62//1 45//1
f 44//1 63//1 45//1
f 64//1 66//1 65//1
f 65//1 66//1 67//1
f 67//1 66//1 68//1
f 68//1 66//1 69//1
f 69//1 66//1 70//1
f 70//1 66//1 71//1
f 71//1 66//1 72//1
f 72//1 66//1 73//1
f 73//1 66//1 74//1
f 74//1 66//1 75//1
f 75//1 66//1 76//1
f 76//1 66//1 77//1
f 77//1 66//1 78//1
f 78//1 66//1 79//1
f 79//1 66//1 80//1
f 80//1 66//1 81//1
f 81//1 66//1 82//1
f 82//1 66//1 83//1
f 83//1 66//1 84//1
f 84//1 66//1 64//1
f 85//10 86//10 87//10
f 85//10 87//10 88//10
f 89//1 90//1 91//1
f 89//1 91//1 92//1
f 93//1 95//1 94//1
f 93//1 96//1 95//1
f 97//10 99//10 98//10
f 97//10 100//10 99//10
f 101//4 103//4 102//4
f 101//4 104//4 103//4
f 90//1 89//1 105//1
f 90//1 105//1 106//1
f 107//4 108//4 109//4
f 107//4 109//4 110//4
f 96//1 111//1 95//1
f 96//1 112//1 111//1
f 113//4 114//4 115//4
f 113//4 115//4 116//4
f 117//10 119//10 118//10
f 117//10 120//10 119//10
f 105//1 121//1 122//1
f 105//1 122//1 106//1
f 91//1 122//1 121//1
f 91//1 121//1 92//1
f 93//1 124//1 123//1
f 93//1 94//1 124//1
f 123//1 111//1 112//1
f 123//1 124//1 111//1
f 125//10 126//10 127//10
f 125//10 127//10 128//10
f 129//4 131//4 130//4
f 129//4 132//4 131//4
f 133//10 134//10 135//10
f 133//10 135//10 136//10
f 137//1 138//1 139//1
f 137//1 139//1 140//1
f 141//1 143//1 142//1
f 141//1 144//1 143//1
f 145//10 147//10 146//10
f 145//10 148//10 147//10
f 149//10 151//10 150//10
f 149//10 152//10 151//10
f 153//1 154//1 155//1
f 153//1 155//1 156//1
f 157//1 159//1 158//1
f 157//1 160//1 159//1
f 161//10 162//10 163//10
f 161//10 163//10 164//10
f 165//4 166//4 167//4
f 165//4 167//4 168//4
f 169//1 171//1 170//1
f 169//1 172//1 171//1
f 173//1 174//1 175//1
f 173//1 175//1 176//1
f 177//4 179//4 178//4
f 177//4 180//4 179//4
f 181//1 183//1 182//1
f 181//1 184//1 183//1
f 185//1 186//1 187//1
f 185//1 187//1 188//1
f 179//4 189//4 178//4
f 179//4 190//4 189//4
f 185//1 188//1 153//1
f 185//1 153//1 156//1
f 191//4 192//4 193//4
f 191//4 193//4 194//4
f 181//1 159//1 184//1
f 181//1 158//1 159//1
f 195//4 167//4 166//4
f 195//4 166//4 196//4
f 139//1 173//1 176//1
f 139//1 176//1 140//1
f 141//1 172//1 169//1
f 141//1 142//1 172//1
f 197//4 199//4 198//4
f 197//4 200//4 199//4
f 171//1 157//1 170//1
f 171//1 160//1 157//1
f 201//4 203//4 202//4
f 201//4 204//4 203//4
f 175//1 174//1 155//1
f 175//1 155//1 154//1
f 165//4 168//4 205//4
f 165//4 205//4 206//4
f 144//1 183//1 143//1
f 144//1 182//1 183//1
f 207//4 208//4 209//4
f 207//4 209//4 210//4
f 138//1 137//1 187//1
f 138//1 187//1 186//1
f 211//4 177//4 212//4
f 211//4 180//4 177//4
f 213//1 184//1 171//1
f 213//1 183//1 184//1
f 214//10 216//10 215//10
f 214//10 217//10 216//10
f 174//1 218//1 186//1
f 174//1 186//1 219//1
f 220//10 221//10 222//10
f 220//10 222//10 223//10
f 224//11 225//12 226//13
f 224//11 226//13 227//14
f 225//12 228//15 229//16
f 225//12 229//16 226//13
f 228//15 230//17 231//18
f 228//15 231//18 229//16
f 230//17 232//19 233//20
f 230//17 233//20 231//18
f 232//19 234//21 235//22
f 232//19 235//22 233//20
f 234//21 236//23 237//24
f 234//21 237//24 235//22
f 236//23 238//25 239//26
f 236//23 239//26 237//24
f 238//25 240//27 241//28
f 238//25 241//28 239//26
f 240//27 242//29 243//30
f 240//27 243//30 241//28
f 242//29 244//31 245//32
f 242//29 245//32 243//30
f 244//31 246//33 247//34
f 244//31 247//34 245//32
f 246//33 248//35 249//36
f 246//33 249//36 247//34
f 248//35 250//37 251//38
f 248//35 251//38 249//36
f 250//37 252//39 253//40
f 250//37 253//40 251//38
f 252//39 254//41 255//42
f 252//39 255//42 253//40
f 254//41 256//43 257//44
f 254//41 257//44 255//42
f 256//43 258//45 259//46
f 256//43 259//46 257//44
f 258//45 260//47 261//48
f 258//45 261//48 259//46
f 260//47 262//49 263//50
f 260//47 263//50 261//48
f 262//49 264//51 265//52
f 262//49 265//52 263//50
f 266//53 267//54 268//54
f 266//53 268//54 269//53
f 270//1 271//55 272//55
f 270//1 272//55 273//1
f 274//56 270//1 273//1
f 274//56 273//1 275//56
f 276//57 274//56 275//56
f 276//57 275//56 277//57
f 278//58 276//57 277//57
f 278//58 277//57 279//58
f 280//59 278//58 279//58
f 280//59 279//58 281//60
f 282//61 280//59 281//60
f 282//61 281//60 283//61
f 284//62 282//61 283//61
f 284//62 283//61 285//62
f 286//63 284//62 285//62
f 286//63 285//62 287//63
f 288//64 286//63 287//63
f 288//64 287//63 289//64
f 290//65 288//64 289//64
f 290//65 289//64 291//65
f 292//66 290//65 291//65
f 292//66 291//65 293//66
f 294//67 292//66 293//66
f 294//67 293//66 295//67
f 296//68 294//67 295//67
f 296//68 295//67 297//69
f 298//70 296//68 297//69
f 298//70 297//69 299//71
f 300//72 298//70 299//71
f 300//72 299//71 301//73
f 302//10 300//72 301//73
f 302//10 301//73 303//74
f 304//75 302//10 303//74
f 304//75 303//74 305//76
f 306//77 304//75 305//76
f 306//77 305//76 307//77
f 267//54 306//77 307//77
f 267//54 307//77 268//54
f 308//78 309//54 267//54
f 308//78 267//54 266//53
f 310//1 311//55 271//55
f 310//1 271//55 270//1
f 312//56 310//1 270//1
f 312//56 270//1 274//56
f 313//57 312//56 274//56
f 313//57 274//56 276//57
f 314//58 313//57 276//57
f 314//58 276//57 278//58
f 315//59 314//58 278//58
f 315//59 278//58 280//59
f 316//61 315//59 280//59
f 316//61 280//59 282//61
f 317//62 316//61 282//61
f 317//62 282//61 284//62
f 318//63 317//62 284//62
f 318//63 284//62 286//63
f 319//79 318//63 286//63
f 319//79 286//63 288//64
f 320//65 319//79 288//64
f 320//65 288//64 290//65
f 321//66 320//65 290//65
f 321//66 290//65 292//66
f 322//67 321//66 292//66
f 322//67 292//66 294//67
f 323//69 322//67 294//67
f 323//69 294//67 296//68
f 324//70 323//69 296//68
f 324//70 296//68 298//70
f 325//72 324//70 298//70
f 325//72 298//70 300//72
f 326//10 325//72 300//72
f 326//10 300//72 302//10
f 327//75 326//10 302//10
f 327//75 302//10 304//75
f 328//77 327//75 304//75
f 328//77 304//75 306//77
f 309//54 328//77 306//77
f 309//54 306//77 267//54
f 329//78 330//54 309//54
f 329//78 309//54 308//78
f 331//1 332//55 311//55
f 331//1 311//55 310//1
f 333//56 331//1 310//1
f 333//56 310//1 312//56
f 334//57 333//56 312//56
f 334//57 312//56 313//57
f 335//58 334//57 313//57
f 335//58 313//57 314//58
f 336//59 335//58 314//58
f 336//59 314//58 315//59
f 337//61 336//59 315//59
f 337//61 315//59 316//61
f 338//62 337//61 316//61
f 338//62 316//61 317//62
f 339//63 338//62 317//62
f 339//63 317//62 318//63
f 340//64 339//63 318//63
f 340//64 318//63 319//79
f 341//65 340//64 319//79
f 341//65 319//79 320//65
f 342//66 341//65 320//65
f 342//66 320//65 321//66
f 343//67 342//66 321//66
f 343//67 321//66 322//67
f 344//69 343//67 322//67
f 344//69 322//67 323//69
f 345//71 344//69 323//69
f 345//71 323//69 324//70
f 346//72 345//71 324//70
f 346//72 324//70 325//72
f 347//10 346//72 325//72
f 347//10 325//72 326//10
f 348//75 347//10 326//10
f 348//75 326//10 327//75
f 349//77 348//75 327//75
f 349//77 327//75 328//77
f 330//54 349//77 328//77
f 330//54 328//77 309//54
f 350//53 351//54 330//54
f 350//53 330//54 329//78
f 352//1 353//55 332//55
f 352//1 332//55 331//1
f 354//56 352//1 331//1
f 354//56 331//1 333//56
f 355//57 354//56 333//56
f 355//57 333//56 334//57
f 356//58 355//57 334//57
f 356//58 334//57 335//58
f 357//59 356//58 335//58
f 357//59 335//58 336//59
f 358//61 357//59 336//59
f 358//61 336//59 337//61
f 359//62 358//61 337//61
f 359//62 337//61 338//62
f 360//63 359//62 338//62
f 360//63 338//62 339//63
f 361//64 360//63 339//63
f 361//64 339//63 340//64
f 362//65 361//64 340//64
f 362//65 340//64 341//65
f 363//66 362//65 341//65
f 363//66 341//65 342//66
f 364//67 363//66 342//66
f 364//67 342//66 343//67
f 365//69 364//67 343//67
f 365//69 343//67 344//69
f 366//70 365//69 344//69
f 366//70 344//69 345//71
f 367//72 366//70 345//71
f 367//72 345//71 346//72
f 368//10 367//72 346//72
f 368//10 346//72 347//10
f 369//75 368//10 347//10
f 369//75 347//10 348//75
f 370//77 369//75 348//75
f 370//77 348//75 349//77
f 351//54 370//77 349//77
f 351//54 349//77 330//54
f 371//78 372//54 351//54
f 371//78 351//54 350//53
f 373//1 374//55 353//55
f 373//1 353//55 352//1
f 375//56 373//1 352//1
f 375//56 352//1 354//56
f 376//57 375//56 354//56
f 376//57 354//56 355//57
f 377//58 376//57 355//57
f 377//58 355//57 356//58
f 378//80 377//58 356//58
f 378//80 356//58 357//59
f 379//61 378//80 357//59
f 379//61 357//59 358//61
f 380//62 379//61 358//61
f 380//62 358//61 359//62
f 381//63 380//62 359//62
f 381//63 359//62 360//63
f 382//64 381//63 360//63
f 382//64 360//63 361//64
f 383//65 382//64 361//64
f 383//65 361//64 362//65
f 384//66 383//65 362//65
f 384//66 362//65 363//66
f 385//67 384//66 363//66
f 385//67 363//66 364//67
f 386//81 385//67 364//67
f 386//81 364//67 365//69
f 387//71 386//81 365//69
f 387//71 365//69 366//70
f 388//72 387//71 366//70
f 388//72 366//70 367//72
f 389//10 388//72 367//72
f 389//10 367//72 368//10
f 390//76 389//10 368//10
f 390//76 368//10 369//75
f 391//77 390//76 369//75
f 391//77 369//75 370//77
f 372//54 391//77 370//77
f 372//54 370//77 351//54
f 392//82 393//83 372//54
f 392//82 372//54 371//78
f 394//84 395//85 374//55
f 394//84 374//55 373//1
f 396//86 394//84 373//1
f 396//86 373//1 375//56
f 397//87 396//86 375//56
f 397//87 375//56 376//57
f 398//88 397//87 376//57
f 398//88 376//57 377//58
f 399//89 398//88 377//58
f 399//89 377//58 378//80
f 400//90 399//89 378//80
f 400//90 378//80 379//61
f 401//91 400//90 379//61
f 401//91 379//61 380//62
f 402//92 401//91 380//62
f 402//92 380//62 381//63
f 403//93 402//92 381//63
f 403//93 381//63 382//64
f 404//94 403//93 382//64
f 404//94 382//64 383//65
f 405//95 404//94 383//65
f 405//95 383//65 384//66
f 406//96 405//95 384//66
f 406//96 384//66 385//67
f 407//97 406//96 385//67
f 407//97 385//67 386//81
f 408//98 407//97 386//81
f 408//98 386//81 387//71
f 409//99 408//98 387//71
f 409//99 387//71 388//72
f 410//100 409//99 388//72
f 410//100 388//72 389//10
f 411//101 410//100 389//10
f 411//101 389//10 390//76
f 412//102 411//101 390//76
f 412//102 390//76 391//77
f 393//83 412//102 391//77
f 393//83 391//77 372//54
f 413//103 414//104 393//83
f 413//103 393//83 392//82
f 415//105 416//106 395//85
f 415//105 395//85 394//84
f 417//107 415//105 394//84
f 417//107 394//84 396//86
f 418//108 417//107 396//86
f 418//108 396//86 397//87
f 419//109 418//108 397//87
f 419//109 397//87 398//88
f 420//110 419//109 398//88
f 420//110 398//88 399//89
f 421//111 420//110 399//89
f 421//111 399//89 400//90
f 422//112 421//111 400//90
f 422//112 400//90 401//91
f 423//113 422//112 401//91
f 423//113 401//91 402//92
f 424//114 423//113 402//92
f 424//114 402//92 403//93
f 425//115 424//114 403//93
f 425//115 403//93 404//94
f 426//116 425//115 404//94
f 426//116 404//94 405//95
f 427//117 426//116 405//95
f 427//117 405//95 406//96
f 428//118 427//117 406//96
f 428//118 406//96 407//97
f 429//119 428//118 407//97
f 429//119 407//97 408//98
f 430//120 429//119 408//98
f 430//120 408//98 409//99
f 431//121 430//120 409//99
f 431//121 409//99 410//100
f 432//122 431//121 410//100
f 432//122 410//100 411//101
f 433//123 432//122 411//101
f 433//123 411//101 412//102
f 414//104 433//123 412//102
f 414//104 412//102 393//83
f 434//124 435//125 414//104
f 434//124 414//104 413//103
f 436//126 437//127 416//106
f 436//126 416//106 415//105
f 438//128 436//126 415//105
f 438//128 415//105 417//107
f 439//129 438//128 417//107
f 439//129 417//107 418//108
f 440//130 439//129 418//108
f 440//130 418//108 419//109
f 441//131 440//130 419//109
f 441//131 419//109 420//110
f 442//132 441//131 420//110
f 442//132 420//110 421//111
f 443//133 442//132 421//111
f 443//133 421//111 422//112
f 444//134 443//133 422//112
f 444//134 422//112 423//113
f 445//135 444//134 423//113
f 445//135 423//113 424//114
f 446//136 445//135 424//114
f 446//136 424//114 425//115
f 447//137 446//136 425//115
f 447//137 425//115 426//116
f 448//138 447//137 426//116
f 448//138 426//116 427//117
f 449//139 448//138 427//117
f 449//139 427//117 428//118
f 450//140 449//139 428//118
f 450//140 428//118 429//119
f 451//141 450//140 429//119
f 451//141 429//119 430//120
f 452//142 451//141 430//120
f 452//142 430//120 431//121
f 453//143 452//142 431//121
f 453//143 431//121 432//122
f 454//144 453//143 432//122
f 454//144 432//122 433//123
f 435//125 454//144 433//123
f 435//125 433//123 414//104
f 455//145 456//146 435//125
f 455//145 435//125 434//124
f 457//147 458//148 437//127
f 457//147 437//127 436//126
f 459//149 457//147 436//126
f 459//149 436//126 438//128
f 460//150 459//149 438//128
f 460//150 438//128 439//129
f 461//151 460//150 439//129
f 461//151 439//129 440//130
f 462//152 461//151 440//130
f 462//152 440//130 441//131
f 463//153 462//152 441//131
f 463//153 441//131 442//132
f 464//154 463//153 442//132
f 464//154 442//132 443//133
f 465//155 464//154 443//133
f 465//155 443//133 444//134
f 466//156 465//155 444//134
f 466//156 444//134 445//135
f 467//157 466//156 445//135
f 467//157 445//135 446//136
f 468//158 467//157 446//136
f 468//158 446//136 447//137
f 469//159 468//158 447//137
f 469//159 447//137 448//138
f 470//160 469//159 448//138
f 470//160 448//138 449//139
f 471//161 470//160 449//139
f 471//161 449//139 450//140
f 472//162 471//161 450//140
f 472//162 450//140 451//141
f 473//163 472//162 451//141
f 473//163 451//141 452//142
f 474//164 473//163 452//142
f 474//164 452//142 453//143
f 475//165 474//164 453//143
f 475//165 453//143 454//144
f 456//146 475//165 454//144
f 456//146 454//144 435//125
f 476//166 477//167 456//146
f 476//166 456//146 455//145
f 478//168 479//169 458//148
f 478//168 458//148 457//147
f 480//170 478//168 457//147
f 480//170 457//147 459//149
f 481//171 480//170 459//149
f 481//171 459//149 460//150
f 482//172 481//171 460//150
f 482//172 460//150 461//151
f 483//173 482//172 461//151
f 483//173 461//151 462//152
f 484//174 483//173 462//152
f 484//174 462//152 463//153
f 485//175 484//174 463//153
f 485//175 463//153 464//154
f 486//176 485//175 464//154
f 486//176 464//154 465//155
f 487//177 486//176 465//155
f 487//177 465//155 466//156
f 488//178 487//177 466//156
f 488//178 466//156 467//157
f 489//179 488//178 467//157
f 489//179 467//157 468//158
f 490//180 489//179 468//158
f 490//180 468//158 469//159
f 491//181 490//180 469//159
f 491//181 469//159 470//160
f 492//182 491//181 470//160
f 492//182 470//160 471//161
f 493//183 492//182 471//161
f 493//183 471//161 472//162
f 494//184 493//183 472//162
f 494//184 472//162 473//163
f 495//185 494//184 473//163
f 495//185 473//163 474//164
f 496//186 495//185 474//164
f 496//186 474//164 475//165
f 477//167 496//186 475//165
f 477//167 475//165 456//146
f 497//187 498//188 477//167
f 497//187 477//167 476//166
f 499//189 500//190 479//169
f 499//189 479//169 478//168
f 501//191 499//189 478//168
f 501//191 478//168 480//170
f 502//192 501//191 480//170
f 502//192 480//170 481//171
f 503//193 502//192 481//171
f 503//193 481//171 482//172
f 504//194 503//193 482//172
f 504//194 482//172 483//173
f 505//195 504//194 483//173
f 505//195 483//173 484//174
f 506//196 505//195 484//174
f 506//196 484//174 485//175
f 507//197 506//196 485//175
f 507//197 485//175 486//176
f 508//198 507//197 486//176
f 508//198 486//176 487//177
f 509//199 508//198 487//177
f 509//199 487//177 488//178
f 510//200 509//199 488//178
f 510//200 488//178 489//179
f 511//201 510//200 489//179
f 511//201 489//179 490//180
f 512//202 511//201 490//180
f 512//202 490//180 491//181
f 513//203 512//202 491//181
f 513//203 491//181 492//182
f 514//204 513//203 492//182
f 514//204 492//182 493//183
f 515//205 514//204 493//183
f 515//205 493//183 494//184
f 516//206 515//205 494//184
f 516//206 494//184 495//185
f 517//207 516//206 495//185
f 517//207 495//185 496//186
f 498//188 517//207 496//186
f 498//188 496//186 477//167
f 227//14 226//13 498//188
f 227//14 498//188 497//187
f 263//50 265//52 500//190
f 263//50 500//190 499//189
f 261//48 263//50 499//189
f 261//48 499//189 501//191
f 259//46 261//48 501//191
f 259//46 501//191 502//192
f 257//44 259//46 502//192
f 257//44 502//192 503//193
f 255//42 257//44 503//193
f 255//42 503//193 504//194
f 253//40 255//42 504//194
f 253//40 504//194 505//195
f 251//38 253//40 505//195
f 251//38 505//195 506//196
f 249//36 251//38 506//196
f 249//36 506//196 507//197
f 247//34 249//36 507//197
f 247//34 507//197 508//198
f 245//32 247//34 508//198
f 245//32 508//198 509//199
f 243//30 245//32 509//199
f 243//30 509//199 510//200
f 241//28 243//30 510//200
f 241//28 510//200 511//201
f 239//26 241//28 511//201
f 239//26 511//201 512//202
f 237//24 239//26 512//202
f 237//24 512//202 513//203
f 235//22 237//24 513//203
f 235//22 513//203 514//204
f 233//20 235//22 514//204
f 233//20 514//204 515//205
f 231//18 233//20 515//205
f 231//18 515//205 516//206
f 229//16 231//18 516//206
f 229//16 516//206 517//207
f 226//13 229//16 517//207
f 226//13 517//207 498//188
f 518//208 520//209 519//210
f 518//208 521//208 520//209
f 522//211 524//212 523//213
f 522//211 525//211 524//212
f 526//214 527//215 524//215
f 526//214 528//216 527//215
f 529//217 530//218 527//218
f 529//217 531//217 530//218
f 532//219 533//220 530//220
f 532//219 534//221 533//220
f 535//222 536//223 533//223
f 535//222 537//224 536//223
f 538//225 539//226 536//226
f 538//225 540//227 539//226
f 541//228 542//229 539//229
f 541//228 543//230 542//229
f 544//231 545//232 542//232
f 544//231 546//231 545//232
f 547//233 548//234 545//234
f 547//233 549//235 548//234
f 550//236 551//237 548//237
f 550//236 552//236 551//237
f 553//238 554//239 551//239
f 553//238 555//238 554//239
f 556//240 557//241 554//242
f 556//240 558//243 557//241
f 559//244 560//245 557//245
f 559//244 561//246 560//245
f 562//247 563//248 560//248
f 562//247 564//249 563//248
f 565//250 566//251 563//251
f 565//250 567//252 566//251
f 568//253 569//254 566//254
f 568//253 570//255 569//254
f 571//256 572//257 569//258
f 571//256 573//256 572//257
f 574//259 575//260 572//261
f 574//259 576//259 575//260
f 577//262 521//263 575//263
f 577//262 578//264 521//263
f 579//265 580//266 581//266
f 579//265 581//266 582//265
f 580//266 583//267 584//267
f 580//266 584//267 581//266
f 583//267 585//268 586//268
f 583//267 586//268 584//267
f 585//268 587//10 588//10
f 585//268 588//10 586//268
f 587//10 589//269 590//269
f 587//10 590//269 588//10
f 589//269 591//270 592//270
f 589//269 592//270 590//269
f 591//270 593//271 594//271
f 591//270 594//271 592//270
f 593//271 595//272 596//272
f 593//271 596//272 594//271
f 595//272 597//4 598//4
f 595//272 598//4 596//272
f 597//4 599//273 600//273
f 597//4 600//273 598//4
f 599//273 601//274 602//274
f 599//273 602//274 600//273
f 601//274 603//275 604//275
f 601//274 604//275 602//274
f 603//275 605//276 606//276
f 603//275 606//276 604//275
f 605//276 607//61 608//61
f 605//276 608//61 606//276
f 607//61 609//277 610//277
f 607//61 610//277 608//61
f 609//277 611//278 612//278
f 609//277 612//278 610//277
f 611//278 613//279 614//279
f 611//278 614//279 612//278
f 613//279 615//280 616//280
f 613//279 616//280 614//279
f 615//280 617//281 618//281
f 615//280 618//281 616//280
f 617//281 619//282 620//283
f 617//281 620//283 618//281
