# Blender 4.4.1
# www.blender.org
mtllib SM_polySurface216_lambert1_0_0.mtl
o SM_polySurface216_lambert1_0_0
v -0.075405 5.529065 2.655306
v 7.686670 5.529065 2.655306
v 7.686670 1.253836 2.655306
v -0.075405 1.253836 2.655306
v -0.075405 1.253836 2.655306
v 7.686670 1.253836 2.655306
v 7.686670 1.253836 6.135737
v -0.075405 1.253836 6.135737
v 7.686670 1.253836 6.135737
v 7.686670 1.253836 2.655306
v 7.686670 5.529065 2.655306
v 7.686670 5.529065 6.135737
v -0.075405 1.253836 2.655306
v -0.075405 1.253836 6.135737
v -0.075405 5.529065 6.135737
v -0.075405 5.529065 2.655306
v -0.075405 1.253836 6.135737
v 7.686670 1.253836 6.135737
v 7.495913 1.359219 6.135737
v 0.115354 1.359219 6.135737
v 7.686670 5.529065 6.135737
v -0.075405 5.529065 6.135737
v 0.115354 5.423682 6.135737
v 7.495913 5.423682 6.135737
v -0.075405 5.529065 6.135737
v -0.075405 1.253836 6.135737
v 0.115354 1.359219 6.135737
v 0.115354 5.423682 6.135737
v 7.686670 1.253836 6.135737
v 7.686670 5.529065 6.135737
v 7.495913 5.423682 6.135737
v 7.495913 1.359219 6.135737
v -0.075405 5.529065 6.135737
v 7.686670 5.529065 6.135737
v 7.101479 5.529065 5.873343
v 0.509786 5.529065 5.873343
v 7.686670 5.529065 2.655306
v -0.075405 5.529065 2.655306
v 0.509786 5.529065 2.917700
v 7.101479 5.529065 2.917700
v -0.075405 5.529065 2.655306
v -0.075405 5.529065 6.135737
v 0.509786 5.529065 5.873343
v 0.509786 5.529065 2.917700
v 7.686670 5.529065 6.135737
v 7.686670 5.529065 2.655306
v 7.101479 5.529065 2.917700
v 7.101479 5.529065 5.873343
vn -0.0000 -0.0000 1.0000
vn -0.0000 1.0000 -0.0000
vn 1.0000 -0.0000 -0.0000
vn -1.0000 -0.0000 -0.0000
s 1
usemtl M_polySurface216_lambert1_0_0
f 1//1 3//1 2//1
f 1//1 4//1 3//1
f 5//2 7//2 6//2
f 5//2 8//2 7//2
f 9//3 10//3 11//3
f 9//3 11//3 12//3
f 13//4 14//4 15//4
f 13//4 15//4 16//4
f 17//1 18//1 19//1
f 17//1 19//1 20//1
f 21//1 22//1 23//1
f 21//1 23//1 24//1
f 25//1 26//1 27//1
f 25//1 27//1 28//1
f 29//1 30//1 31//1
f 29//1 31//1 32//1
f 33//2 34//2 35//2
f 33//2 35//2 36//2
f 37//2 38//2 39//2
f 37//2 39//2 40//2
f 41//2 42//2 43//2
f 41//2 43//2 44//2
f 45//2 46//2 47//2
f 45//2 47//2 48//2
