# Blender 4.4.1
# www.blender.org
mtllib SM_polySurface193_lambert1_0_0.mtl
o SM_polySurface193_lambert1_0_0
v 7.885295 3.724764 -2.924335
v 7.920807 3.724764 -2.933849
v 7.932391 3.721832 -2.923107
v 7.897521 3.721832 -2.913392
v 7.946804 3.724764 -2.959847
v 7.957918 3.721832 -2.949652
v 7.956319 3.724764 -2.995360
v 7.967261 3.721832 -2.985910
v 7.956319 3.724764 -3.621330
v 7.946804 3.724764 -3.656843
v 7.957918 3.721832 -3.667039
v 7.967261 3.721832 -3.630780
v 7.946804 3.724764 -3.656843
v 7.920808 3.724764 -3.682840
v 7.932390 3.721832 -3.693582
v 7.957918 3.721832 -3.667039
v 7.885296 3.724764 -3.692357
v 7.897520 3.721832 -3.703297
v 8.000355 3.764927 -2.949533
v 7.990839 3.764927 -2.914021
v 7.993771 3.753986 -2.911088
v 8.003286 3.753986 -2.946600
v 7.964842 3.764927 -2.888023
v 7.967774 3.753986 -2.885091
v 7.929330 3.764927 -2.878508
v 7.932261 3.753986 -2.875576
v 7.992345 3.772938 -3.659147
v 7.982829 3.772938 -3.694660
v 7.972060 3.775869 -3.682973
v 7.981403 3.775869 -3.646713
v 7.956832 3.772938 -3.720657
v 7.946533 3.775869 -3.709517
v 7.921320 3.772938 -3.730173
v 7.911663 3.775869 -3.719233
v 7.948309 3.764927 -3.613321
v 7.938794 3.764927 -3.648834
v 7.935862 3.753986 -3.645902
v 7.945378 3.753986 -3.610390
v 7.912797 3.764927 -3.674830
v 7.909865 3.753986 -3.671900
v 7.877285 3.764927 -3.684345
v 7.874352 3.753986 -3.681415
v 7.956319 3.772938 -2.995360
v 7.946804 3.772938 -2.959847
v 7.957918 3.775869 -2.949652
v 7.967261 3.775869 -2.985910
v 7.946804 3.772938 -2.959847
v 7.920807 3.772938 -2.933849
v 7.932391 3.775869 -2.923107
v 7.957918 3.775869 -2.949652
v 7.885295 3.772938 -2.924335
v 7.897521 3.775869 -2.913392
v 7.921320 3.724764 -3.730173
v 7.956832 3.724764 -3.720657
v 7.946533 3.721832 -3.709517
v 7.911663 3.721832 -3.719233
v 7.956832 3.724764 -3.720657
v 7.982829 3.724764 -3.694660
v 7.972060 3.721832 -3.682973
v 7.946533 3.721832 -3.709517
v 7.992345 3.724764 -3.659147
v 7.981403 3.721832 -3.646713
v 7.992345 3.724764 -2.957541
v 7.982829 3.724764 -2.922029
v 7.972060 3.721832 -2.933718
v 7.981403 3.721832 -2.969978
v 7.956831 3.724764 -2.896032
v 7.946533 3.721832 -2.907175
v 7.921318 3.724764 -2.886517
v 7.911664 3.721832 -2.897459
v 7.776254 3.724764 -3.692357
v 7.776254 3.721832 -3.703297
v 7.877285 3.732773 -3.684345
v 7.776254 3.732773 -3.684345
v 7.877285 3.732773 -3.684345
v 7.874352 3.743715 -3.681415
v 7.776254 3.743715 -3.681415
v 7.776254 3.732773 -3.684345
v 7.776254 3.772938 -3.730173
v 7.776254 3.775869 -3.719233
v 7.929330 3.764927 -3.738182
v 7.776254 3.764927 -3.738182
v 7.776254 3.772938 -3.730173
v 7.932261 3.753986 -3.741116
v 7.776254 3.753986 -3.741116
v 7.776254 3.772938 -2.924335
v 7.776254 3.775869 -2.913392
v 7.877284 3.764927 -2.932344
v 7.776254 3.764927 -2.932344
v 7.776254 3.772938 -2.924335
v 7.877284 3.764927 -2.932344
v 7.874352 3.753986 -2.935275
v 7.776254 3.753986 -2.935275
v 7.776254 3.764927 -2.932344
v 7.776254 3.724764 -2.886517
v 7.776254 3.721832 -2.897459
v 7.929330 3.732773 -2.878508
v 7.776254 3.732773 -2.878508
v 7.776254 3.724764 -2.886517
v 7.929330 3.732773 -2.878508
v 7.932261 3.743715 -2.875576
v 7.776254 3.743715 -2.875576
v 7.981403 3.775869 -2.969978
v 7.967261 3.775869 -3.630780
v 8.003286 3.743715 -3.670090
v 8.003286 3.753986 -3.670090
v 8.003286 3.743715 -2.946600
v 7.945378 3.743715 -3.610390
v 7.945378 3.743715 -3.006301
v 7.945378 3.753986 -3.006301
v 7.776254 3.721832 -3.703297
v 7.776254 3.721832 -3.719233
v 7.776254 3.753986 -3.681415
v 7.776254 3.775869 -3.703297
v 7.897520 3.775869 -3.703297
v 7.932261 3.743715 -3.741116
v 7.776254 3.743715 -3.741116
v 7.874352 3.743715 -2.935275
v 7.776254 3.743715 -2.935275
v 7.776254 3.721832 -2.913392
v 7.776254 3.753986 -2.875576
v 7.776254 3.775869 -2.913392
v 7.776254 3.775869 -2.897459
v 7.911664 3.775869 -2.897459
v 7.948309 3.732773 -3.613321
v 7.948309 3.732773 -3.003368
v 7.948309 3.732773 -3.613321
v 7.948309 3.732773 -3.003368
v 7.776254 3.724764 -2.924335
v 7.877284 3.732773 -2.932344
v 7.776254 3.732773 -2.932344
v 7.877284 3.732773 -2.932344
v 7.885295 3.724764 -2.924335
v 7.776254 3.732773 -2.932344
v 7.921318 3.772938 -2.886517
v 7.776254 3.772938 -2.886517
v 7.776254 3.764927 -2.878508
v 7.776254 3.772938 -2.886517
v 7.992345 3.772938 -2.957541
v 8.000355 3.764927 -2.949533
v 8.000355 3.764927 -3.667157
v 8.000355 3.764927 -3.667157
v 7.885296 3.772938 -3.692357
v 7.776254 3.772938 -3.692357
v 7.776254 3.764927 -3.684345
v 7.885296 3.772938 -3.692357
v 7.956319 3.772938 -3.621330
v 7.948309 3.764927 -3.613321
v 7.948309 3.764927 -3.003368
v 7.948309 3.764927 -3.003368
v 8.000355 3.732773 -2.949533
v 8.000355 3.732773 -3.667157
v 8.000355 3.732773 -2.949533
v 8.000355 3.732773 -3.667157
v 7.776254 3.724764 -3.730173
v 7.929330 3.732773 -3.738182
v 7.776254 3.732773 -3.738182
v 7.929330 3.732773 -3.738182
v 7.776254 3.732773 -3.738182
v 7.909865 3.743715 -2.944791
v 7.912797 3.732773 -2.941859
v 7.935862 3.743715 -2.970787
v 7.938794 3.732773 -2.967857
v 7.912797 3.732773 -2.941859
v 7.920807 3.724764 -2.933849
v 7.912797 3.732773 -2.941859
v 7.938794 3.732773 -2.967857
v 7.938794 3.732773 -3.648834
v 7.912797 3.732773 -3.674830
v 7.938794 3.732773 -3.648834
v 7.938794 3.732773 -3.648834
v 7.935862 3.743715 -3.645902
v 7.912797 3.732773 -3.674830
v 7.909865 3.743715 -3.671900
v 7.982829 3.772938 -2.922029
v 7.972060 3.775869 -2.933718
v 7.956831 3.772938 -2.896032
v 7.946533 3.775869 -2.907175
v 7.982829 3.772938 -2.922029
v 7.972060 3.775869 -2.933718
v 7.990839 3.764927 -2.914021
v 7.964842 3.764927 -2.888023
v 7.990839 3.764927 -2.914021
v 7.990839 3.764927 -3.702670
v 7.964842 3.764927 -3.728667
v 7.990839 3.764927 -3.702670
v 7.993771 3.753986 -3.705603
v 7.964842 3.764927 -3.728667
v 7.967774 3.753986 -3.731600
v 7.990839 3.764927 -3.702670
v 7.993771 3.753986 -3.705603
v 7.946804 3.772938 -3.656843
v 7.957918 3.775869 -3.667039
v 7.920808 3.772938 -3.682840
v 7.932390 3.775869 -3.693582
v 7.938794 3.764927 -3.648834
v 7.946804 3.772938 -3.656843
v 7.920808 3.772938 -3.682840
v 7.912797 3.764927 -3.674830
v 7.938794 3.764927 -3.648834
v 7.938794 3.764927 -2.967857
v 7.912797 3.764927 -2.941859
v 7.938794 3.764927 -2.967857
v 7.946533 3.775869 -2.907175
v 7.932391 3.775869 -2.923107
v 7.938794 3.764927 -2.967857
v 7.935862 3.753986 -2.970787
v 7.912797 3.764927 -2.941859
v 7.909865 3.753986 -2.944791
v 7.967774 3.743715 -3.731600
v 7.967774 3.753986 -3.731600
v 7.993771 3.743715 -3.705603
v 7.967774 3.743715 -3.731600
v 7.964842 3.732773 -3.728667
v 7.990839 3.732773 -3.702670
v 7.964842 3.732773 -3.728667
v 7.964842 3.732773 -3.728667
v 7.990839 3.732773 -3.702670
v 7.932390 3.721832 -3.693582
v 7.990839 3.732773 -2.914021
v 7.964842 3.732773 -2.888023
v 7.990839 3.732773 -2.914021
v 7.993771 3.743715 -2.911088
v 7.964842 3.732773 -2.888023
v 7.967774 3.743715 -2.885091
v 7.776254 3.753986 -3.741116
v 7.776254 3.743715 -3.741116
v 7.776254 3.732773 -3.738182
v 7.776254 3.724764 -3.730173
v 7.776254 3.721832 -3.719233
v 7.776254 3.721832 -3.703297
v 7.776254 3.724764 -3.692357
v 7.776254 3.732773 -3.684345
v 7.776254 3.743715 -3.681415
v 7.776254 3.753986 -3.681415
v 7.776254 3.764927 -3.684345
v 7.776254 3.772938 -3.692357
v 7.776254 3.775869 -3.703297
v 7.776254 3.775869 -3.719233
v 7.776254 3.772938 -3.730173
v 7.776254 3.764927 -3.738182
v 7.776254 3.775869 -2.897459
v 7.776254 3.775869 -2.913392
v 7.776254 3.772938 -2.924335
v 7.776254 3.764927 -2.932344
v 7.776254 3.753986 -2.935275
v 7.776254 3.743715 -2.935275
v 7.776254 3.732773 -2.932344
v 7.776254 3.724764 -2.924335
v 7.776254 3.721832 -2.913392
v 7.776254 3.721832 -2.897459
v 7.776254 3.724764 -2.886517
v 7.776254 3.732773 -2.878508
v 7.776254 3.743715 -2.875576
v 7.776254 3.753986 -2.875576
v 7.776254 3.764927 -2.878508
v 7.776254 3.772938 -2.886517
vn -0.0325 -0.9104 -0.4124
vn -0.1848 -0.9331 -0.3084
vn -0.0368 -0.9978 -0.0550
vn -0.0080 -0.9980 -0.0631
vn -0.3105 -0.9323 -0.1854
vn -0.0582 -0.9976 -0.0366
vn -0.4050 -0.9143 -0.0077
vn -0.0607 -0.9982 -0.0018
vn -0.4050 -0.9143 0.0077
vn -0.3106 -0.9323 0.1853
vn -0.0582 -0.9976 0.0366
vn -0.0608 -0.9981 0.0018
vn -0.3105 -0.9323 0.1854
vn -0.1848 -0.9331 0.3084
vn -0.0368 -0.9978 0.0550
vn -0.0583 -0.9976 0.0367
vn -0.0326 -0.9104 0.4125
vn -0.0080 -0.9980 0.0631
vn 0.8991 0.4376 0.0128
vn 0.8204 0.3426 0.4579
vn 0.8477 0.1812 0.4986
vn 0.9916 0.1282 0.0144
vn 0.4580 0.3426 0.8203
vn 0.4986 0.1812 0.8477
vn 0.0490 0.4732 0.8796
vn 0.0554 0.1365 0.9891
vn 0.5960 0.8030 -0.0061
vn 0.3645 0.9086 -0.2038
vn 0.0876 0.9952 -0.0445
vn 0.1817 0.9834 -0.0010
vn 0.2051 0.9075 -0.3667
vn 0.0472 0.9952 -0.0860
vn 0.0227 0.8356 -0.5488
vn 0.0044 0.9894 -0.1452
vn 0.9989 0.0434 -0.0179
vn 0.8622 -0.1740 -0.4757
vn 0.8050 -0.3448 -0.4828
vn 0.9878 -0.0382 -0.1510
vn 0.4956 -0.1776 -0.8502
vn 0.4828 -0.3445 -0.8051
vn 0.1245 -0.0861 -0.9885
vn 0.1422 -0.5618 -0.8150
vn -0.4050 0.9143 -0.0077
vn -0.3106 0.9323 -0.1854
vn -0.0582 0.9976 -0.0366
vn -0.0608 0.9981 -0.0018
vn -0.3105 0.9323 -0.1854
vn -0.1848 0.9331 -0.3084
vn -0.0368 0.9978 -0.0550
vn -0.0583 0.9976 -0.0367
vn -0.0326 0.9104 -0.4125
vn -0.0080 0.9980 -0.0631
vn 0.0227 -0.8357 -0.5488
vn 0.2050 -0.9075 -0.3667
vn 0.0472 -0.9952 -0.0860
vn 0.0044 -0.9894 -0.1452
vn 0.2051 -0.9075 -0.3665
vn 0.3644 -0.9087 -0.2037
vn 0.0876 -0.9952 -0.0445
vn 0.0472 -0.9952 -0.0859
vn 0.5959 -0.8030 -0.0061
vn 0.1817 -0.9833 -0.0010
vn 0.5960 -0.8030 0.0061
vn 0.3644 -0.9087 0.2037
vn 0.0875 -0.9952 0.0445
vn 0.1817 -0.9834 0.0010
vn 0.2050 -0.9075 0.3666
vn 0.0472 -0.9952 0.0860
vn 0.0227 -0.8357 0.5488
vn 0.0044 -0.9894 0.1452
vn -0.0000 -0.8721 0.4893
vn -0.0000 -0.9948 0.1018
vn -0.0280 -0.7208 0.6926
vn -0.0000 -0.7072 0.7070
vn 0.0733 0.3053 -0.9494
vn -0.0000 0.1372 -0.9905
vn 0.1009 0.2012 -0.9743
vn -0.0000 0.2587 -0.9660
vn -0.0000 0.9659 -0.2588
vn -0.0000 0.9935 -0.1141
vn 0.0489 0.4733 -0.8795
vn -0.0000 0.4958 -0.8684
vn -0.0000 0.7070 -0.7072
vn 0.0554 0.1366 -0.9891
vn -0.0000 0.1364 -0.9907
vn -0.0000 0.9948 -0.1017
vn -0.0281 0.7207 -0.6927
vn -0.0000 0.7071 -0.7071
vn 0.0733 -0.3053 0.9494
vn -0.0000 -0.1372 0.9905
vn 0.1009 -0.2013 0.9743
vn -0.0000 -0.2587 0.9659
vn -0.0000 -0.9659 0.2588
vn -0.0000 -0.9935 0.1141
vn 0.0490 -0.4733 0.8795
vn 0.0001 -0.4959 0.8684
vn -0.0000 -0.7071 0.7071
vn 0.0490 -0.4731 0.8796
vn 0.0554 -0.1365 0.9891
vn -0.0000 -0.1363 0.9907
vn -0.0000 -0.4956 0.8685
vn 0.1817 0.9833 0.0010
vn -0.0607 0.9982 0.0018
vn 0.9916 -0.1282 -0.0144
vn 0.9916 0.1282 -0.0144
vn 0.9916 -0.1282 0.0144
vn 0.9628 0.1419 0.2299
vn 0.9919 0.0343 -0.1226
vn 0.9919 -0.0343 0.1227
vn -0.0000 -0.9948 0.1015
vn -0.0000 -0.9935 -0.1141
vn -0.0000 -0.1372 -0.9905
vn -0.0000 0.9948 0.1016
vn -0.0080 0.9980 0.0631
vn 0.0554 -0.1366 -0.9891
vn -0.0000 -0.1364 -0.9907
vn -0.0000 0.1372 0.9905
vn 0.1259 0.0862 0.9883
vn -0.0000 -0.9948 -0.1016
vn -0.0000 0.1363 0.9907
vn -0.0000 0.9948 -0.1015
vn -0.0000 0.9935 0.1141
vn 0.0044 0.9894 0.1452
vn 0.9478 0.3187 -0.0004
vn 0.9480 0.3183 -0.0026
vn -0.7043 -0.7099 0.0056
vn -0.7043 -0.7099 -0.0056
vn -0.0000 -0.8722 -0.4891
vn -0.0000 0.2587 0.9660
vn 0.0746 0.3050 0.9494
vn 0.0218 0.7454 0.6663
vn -0.2706 0.6808 0.6807
vn 0.0863 0.5219 0.8486
vn -0.0000 0.7071 0.7071
vn 0.0227 0.8356 0.5488
vn -0.0000 0.9659 0.2588
vn -0.0000 0.4958 0.8684
vn -0.0000 0.7070 0.7072
vn 0.5960 0.8029 0.0061
vn 0.8990 0.4378 0.0128
vn 0.8990 0.4379 -0.0128
vn 0.8991 0.4376 -0.0128
vn -0.0325 0.9104 0.4124
vn -0.0000 0.8722 0.4892
vn -0.0000 -0.5052 -0.8630
vn -0.2705 -0.6808 -0.6807
vn 0.0862 -0.5220 -0.8485
vn -0.4050 0.9143 0.0077
vn -0.8302 0.5574 0.0109
vn -0.8302 0.5574 -0.0109
vn 0.9991 0.0363 0.0206
vn 0.9652 -0.2612 0.0095
vn 0.9653 -0.2611 -0.0094
vn 0.6980 -0.7159 0.0178
vn 0.6980 -0.7159 -0.0178
vn -0.0000 -0.8619 -0.5071
vn 0.0385 -0.2684 -0.9625
vn -0.0000 -0.2589 -0.9659
vn 0.0601 -0.7352 -0.6751
vn -0.0000 -0.7071 -0.7071
vn 0.4826 0.3446 0.8052
vn 0.4744 0.1776 0.8622
vn 0.8051 0.3446 0.4828
vn 0.8497 0.1813 0.4951
vn 0.3548 0.8695 0.3436
vn 0.1916 0.6723 0.7151
vn -0.2807 -0.8044 -0.5236
vn -0.5237 -0.8044 -0.2806
vn -0.5237 -0.8043 0.2806
vn -0.2806 -0.8044 0.5236
vn -0.5236 -0.8044 0.2807
vn 0.8050 0.3446 -0.4829
vn 0.8622 0.1777 -0.4744
vn 0.4756 0.1739 -0.8623
vn 0.4828 0.3446 -0.8051
vn 0.3646 0.9086 0.2037
vn 0.0876 0.9952 0.0444
vn 0.2051 0.9075 0.3667
vn 0.0472 0.9952 0.0859
vn 0.3644 0.9087 0.2038
vn 0.0876 0.9952 0.0446
vn 0.4957 0.8097 0.3141
vn 0.3142 0.8097 0.4956
vn 0.4956 0.8097 0.3143
vn 0.4956 0.8097 -0.3142
vn 0.3142 0.8097 -0.4956
vn 0.8204 0.3426 -0.4579
vn 0.8478 0.1811 -0.4985
vn 0.4581 0.3426 -0.8202
vn 0.4986 0.1812 -0.8477
vn 0.8202 0.3426 -0.4581
vn 0.8476 0.1813 -0.4987
vn -0.3106 0.9323 0.1854
vn -0.0582 0.9976 0.0366
vn -0.1848 0.9332 0.3083
vn -0.0368 0.9978 0.0550
vn -0.5238 0.8043 0.2806
vn 0.5204 -0.8379 -0.1643
vn 0.2830 -0.8024 -0.5255
vn 0.4035 -0.5993 -0.6914
vn 0.5014 -0.7052 -0.5013
vn -0.5238 0.8043 -0.2806
vn -0.2806 0.8043 -0.5238
vn -0.5237 0.8043 -0.2808
vn 0.0471 0.9952 0.0858
vn -0.0368 0.9978 -0.0549
vn 0.8051 -0.3446 0.4828
vn 0.8622 -0.1776 0.4744
vn 0.4757 -0.1739 0.8623
vn 0.4828 -0.3446 0.8051
vn 0.4985 -0.1812 -0.8478
vn 0.4987 0.1812 -0.8476
vn 0.8477 -0.1812 -0.4986
vn 0.4987 -0.1812 -0.8476
vn 0.4579 -0.3426 -0.8204
vn 0.8203 -0.3425 -0.4580
vn 0.4581 -0.3426 -0.8202
vn 0.3140 -0.8098 -0.4957
vn 0.3142 -0.8098 -0.4954
vn 0.4955 -0.8098 -0.3141
vn -0.0368 -0.9978 0.0549
vn 0.4956 -0.8098 0.3141
vn 0.3141 -0.8098 0.4956
vn 0.8203 -0.3425 0.4580
vn 0.8477 -0.1812 0.4986
vn 0.4579 -0.3425 0.8203
vn 0.4986 -0.1812 0.8477
vn 1.0000 -0.0000 -0.0000
vn 1.0000 -0.0001 -0.0000
vn 1.0000 0.0001 -0.0000
vn 1.0000 0.0002 -0.0000
vn 1.0000 -0.0009 0.0001
vn 1.0000 0.0009 -0.0001
s 1
usemtl M_polySurface193_lambert1_0_0
f 1//1 2//2 3//3
f 1//1 3//3 4//4
f 2//2 5//5 6//6
f 2//2 6//6 3//3
f 5//5 7//7 8//8
f 5//5 8//8 6//6
f 9//9 10//10 11//11
f 9//9 11//11 12//12
f 13//13 14//14 15//15
f 13//13 15//15 16//16
f 14//14 17//17 18//18
f 14//14 18//18 15//15
f 19//19 20//20 21//21
f 19//19 21//21 22//22
f 20//20 23//23 24//24
f 20//20 24//24 21//21
f 23//23 25//25 26//26
f 23//23 26//26 24//24
f 27//27 28//28 29//29
f 27//27 29//29 30//30
f 28//28 31//31 32//32
f 28//28 32//32 29//29
f 31//31 33//33 34//34
f 31//31 34//34 32//32
f 35//35 37//36 36//37
f 35//35 38//38 37//36
f 36//37 40//39 39//40
f 36//37 37//36 40//39
f 39//40 42//41 41//42
f 39//40 40//39 42//41
f 43//43 44//44 45//45
f 43//43 45//45 46//46
f 47//47 48//48 49//49
f 47//47 49//49 50//50
f 48//48 51//51 52//52
f 48//48 52//52 49//49
f 53//53 54//54 55//55
f 53//53 55//55 56//56
f 57//57 58//58 59//59
f 57//57 59//59 60//60
f 58//58 61//61 62//62
f 58//58 62//62 59//59
f 63//63 64//64 65//65
f 63//63 65//65 66//66
f 64//64 67//67 68//68
f 64//64 68//68 65//65
f 67//67 69//69 70//70
f 67//67 70//70 68//68
f 18//18 17//17 71//71
f 18//18 71//71 72//72
f 17//17 73//73 74//74
f 17//17 74//74 71//71
f 75//75 77//76 76//77
f 75//75 78//78 77//76
f 34//34 33//33 79//79
f 34//34 79//79 80//80
f 33//33 81//81 82//82
f 33//33 82//82 83//83
f 81//81 84//84 85//85
f 81//81 85//85 82//82
f 52//52 51//51 86//79
f 52//52 86//79 87//86
f 51//51 88//87 89//88
f 51//51 89//88 90//88
f 91//89 93//90 92//91
f 91//89 94//92 93//90
f 70//70 69//69 95//93
f 70//70 95//93 96//94
f 69//69 97//95 98//96
f 69//69 98//96 99//97
f 100//98 101//99 102//100
f 100//98 102//100 98//101
f 103//102 30//30 104//103
f 103//102 104//103 46//46
f 8//8 12//12 62//62
f 8//8 62//62 66//66
f 105//104 106//105 22//22
f 105//104 22//22 107//106
f 38//38 109//107 108//108
f 38//38 110//109 109//107
f 18//18 111//110 112//111
f 18//18 112//111 56//56
f 76//77 113//112 42//41
f 76//77 77//76 113//112
f 34//34 80//80 114//113
f 34//34 114//113 115//114
f 116//115 117//116 85//85
f 116//115 85//85 84//84
f 92//91 119//117 118//118
f 92//91 93//90 119//117
f 70//70 96//94 120//119
f 70//70 120//119 4//4
f 26//26 121//120 102//100
f 26//26 102//100 101//99
f 52//52 122//121 123//122
f 52//52 123//122 124//123
f 9//9 12//12 8//8
f 9//9 8//8 7//7
f 108//108 126//124 125//125
f 108//108 109//107 126//124
f 127//126 9//9 7//7
f 127//126 7//7 128//127
f 1//1 4//4 120//119
f 1//1 120//119 129//128
f 118//118 131//129 130//130
f 118//118 119//117 131//129
f 132//131 129//132 133//133
f 132//131 134//134 129//132
f 135//135 124//123 123//122
f 135//135 123//122 136//136
f 26//26 25//25 137//137
f 26//26 137//137 121//120
f 25//25 135//135 138//138
f 25//25 138//138 137//137
f 103//102 139//139 27//27
f 103//102 27//27 30//30
f 139//139 140//140 141//141
f 139//139 141//141 27//27
f 19//19 22//22 106//105
f 19//19 106//105 142//142
f 143//143 115//114 114//113
f 143//143 114//113 144//144
f 42//41 145//145 41//42
f 42//41 113//112 145//145
f 41//42 144//146 146//147
f 41//42 145//145 144//146
f 104//103 147//148 43//43
f 104//103 43//43 46//46
f 147//148 148//149 149//150
f 147//148 149//150 43//43
f 35//35 110//109 38//38
f 35//35 150//151 110//109
f 63//63 66//66 62//62
f 63//63 62//62 61//61
f 107//106 151//152 152//153
f 107//106 152//153 105//104
f 153//154 63//63 61//61
f 153//154 61//61 154//155
f 53//53 56//56 112//111
f 53//53 112//111 155//156
f 116//115 156//157 157//158
f 116//115 157//158 117//116
f 158//159 53//53 155//156
f 158//159 155//156 159//160
f 118//118 161//161 160//162
f 118//118 130//130 161//161
f 160//162 163//163 162//164
f 160//162 161//161 163//163
f 162//164 126//124 109//107
f 162//164 163//163 126//124
f 132//131 165//165 164//166
f 132//131 133//133 165//165
f 166//167 167//168 5//5
f 166//167 5//5 2//2
f 167//168 128//127 7//7
f 167//168 7//7 5//5
f 10//10 9//9 127//126
f 10//10 127//126 168//169
f 17//17 14//14 169//170
f 17//17 169//170 73//73
f 14//14 13//13 170//171
f 14//14 170//171 169//170
f 171//172 108//108 125//125
f 171//172 172//173 108//108
f 75//75 174//174 173//175
f 75//75 76//77 174//174
f 173//175 172//173 171//172
f 173//175 174//174 172//173
f 175//176 139//139 103//102
f 175//176 103//102 176//177
f 135//135 177//178 178//179
f 135//135 178//179 124//123
f 177//178 179//180 180//181
f 177//178 180//181 178//179
f 139//139 175//176 181//182
f 139//139 181//182 140//140
f 179//180 177//178 182//183
f 179//180 182//183 183//184
f 177//178 135//135 25//25
f 177//178 25//25 182//183
f 28//28 27//27 141//141
f 28//28 141//141 184//185
f 33//33 31//31 185//186
f 33//33 185//186 81//81
f 31//31 28//28 184//185
f 31//31 184//185 185//186
f 186//187 142//142 106//105
f 186//187 106//105 187//188
f 81//81 188//189 189//190
f 81//81 189//190 84//84
f 188//189 190//191 191//192
f 188//189 191//192 189//190
f 192//193 147//148 104//103
f 192//193 104//103 193//194
f 143//143 194//195 195//196
f 143//143 195//196 115//114
f 194//195 192//193 193//194
f 194//195 193//194 195//196
f 30//30 29//29 193//194
f 30//30 193//194 104//103
f 29//29 32//32 195//196
f 29//29 195//196 193//194
f 32//32 34//34 115//114
f 32//32 115//114 195//196
f 147//148 192//193 196//197
f 147//148 196//197 148//149
f 197//198 199//199 198//200
f 197//198 200//201 199//199
f 198//200 41//42 146//147
f 198//200 199//199 41//42
f 76//77 40//39 174//174
f 76//77 42//41 40//39
f 174//174 37//36 172//173
f 174//174 40//39 37//36
f 172//173 38//38 108//108
f 172//173 37//36 38//38
f 44//44 43//43 149//150
f 44//44 149//150 201//202
f 51//51 48//48 202//203
f 51//51 202//203 88//87
f 48//48 47//47 203//204
f 48//48 203//204 202//203
f 124//123 178//179 49//49
f 124//123 49//49 52//52
f 204//205 176//177 45//45
f 204//205 45//45 205//206
f 176//177 103//102 46//46
f 176//177 46//46 45//45
f 206//207 110//109 150//151
f 206//207 207//208 110//109
f 91//89 209//209 208//210
f 91//89 92//91 209//209
f 208//210 207//208 206//207
f 208//210 209//209 207//208
f 109//107 207//208 162//164
f 109//107 110//109 207//208
f 162//164 209//209 160//162
f 162//164 207//208 209//209
f 160//162 92//91 118//118
f 160//162 209//209 92//91
f 84//84 189//190 210//211
f 84//84 210//211 116//115
f 211//212 187//188 212//213
f 211//212 212//213 213//214
f 187//188 106//105 105//104
f 187//188 105//104 212//213
f 116//115 210//211 214//215
f 116//115 214//215 156//157
f 213//214 212//213 215//216
f 213//214 215//216 216//217
f 212//213 105//104 152//153
f 212//213 152//153 215//216
f 158//159 217//218 54//54
f 158//159 54//54 53//53
f 217//219 218//220 58//58
f 217//219 58//58 57//57
f 218//220 154//155 61//61
f 218//220 61//61 58//58
f 12//12 11//11 59//59
f 12//12 59//59 62//62
f 11//11 219//221 60//60
f 11//11 60//60 59//59
f 15//15 18//18 56//56
f 15//15 56//56 55//55
f 64//64 63//63 153//154
f 64//64 153//154 220//222
f 69//69 67//67 221//223
f 69//69 221//223 97//95
f 67//67 64//64 220//222
f 67//67 220//222 221//223
f 4//4 3//3 68//68
f 4//4 68//68 70//70
f 3//3 6//6 65//65
f 3//3 65//65 68//68
f 6//6 8//8 66//66
f 6//6 66//66 65//65
f 222//224 151//152 107//106
f 222//224 107//106 223//225
f 100//98 224//226 225//227
f 100//98 225//227 101//99
f 224//226 222//224 223//225
f 224//226 223//225 225//227
f 22//22 21//21 223//225
f 22//22 223//225 107//106
f 21//21 24//24 225//227
f 21//21 225//227 223//225
f 24//24 26//26 101//99
f 24//24 101//99 225//227
f 232//228 231//228 230//228
f 230//228 229//228 232//228
f 229//228 233//228 232//228
f 229//228 228//228 233//228
f 228//228 234//228 233//228
f 228//228 227//228 234//228
f 227//228 235//228 234//228
f 227//228 226//228 235//228
f 226//228 236//229 235//228
f 226//228 241//230 236//229
f 241//230 237//229 236//229
f 241//230 240//231 237//229
f 240//231 238//228 237//229
f 240//231 239//232 238//228
f 252//228 251//232 250//228
f 250//228 249//228 252//228
f 249//228 253//228 252//228
f 249//228 248//228 253//228
f 248//228 254//228 253//228
f 248//228 247//228 254//228
f 247//228 255//228 254//228
f 247//228 246//228 255//228
f 246//228 256//228 255//228
f 246//228 245//228 256//228
f 245//228 257//228 256//228
f 245//228 244//228 257//228
f 244//228 242//228 257//228
f 244//228 243//233 242//228
