# Blender 4.4.1
# www.blender.org
mtllib SM_polySurface160_lambert1_0_0.mtl
o SM_polySurface160_lambert1_0_0
v 3.269956 7.801723 -4.744747
v 3.269956 8.180013 -4.384855
v 3.269956 8.180013 -4.738557
v 3.269956 8.178013 -4.744747
v 3.269956 8.180013 -4.738557
v 3.269956 8.180013 -4.384855
v 3.359245 8.180013 -4.384855
v 3.359245 8.180013 -4.738557
v 3.269956 7.801723 -4.744747
v 3.269956 8.178013 -4.744747
v 3.359245 8.178013 -4.744747
v 3.359245 7.801723 -4.744747
v 3.271956 7.801723 -4.742747
v 3.271956 8.178013 -4.742747
v 3.271956 8.178013 -4.738557
v 3.271956 8.178013 -4.384855
v 3.271956 8.178013 -4.738557
v 3.359245 8.178013 -4.738557
v 3.359245 8.178013 -4.384855
v 3.271956 8.178013 -4.384855
v 3.271956 7.801723 -4.742747
v 3.359245 7.801723 -4.742747
v 3.359245 8.178013 -4.742747
v 3.271956 8.178013 -4.742747
v 3.271956 8.178013 -4.742747
v 3.269956 8.178013 -4.744747
v 3.269956 8.180013 -4.738557
v 3.271956 8.178013 -4.738557
v 3.271956 8.178013 -4.384855
v 3.269956 8.180013 -4.384855
v 3.269956 7.801723 -4.744747
v 3.271956 7.801723 -4.742747
v 3.271956 8.178013 -4.738557
v 3.269956 8.180013 -4.738557
v 3.359245 8.180013 -4.738557
v 3.359245 8.178013 -4.738557
v 3.359245 8.178013 -4.738557
v 3.359245 8.180013 -4.738557
v 3.359245 8.180013 -4.384855
v 3.359245 8.178013 -4.384855
v 3.359245 8.178013 -4.384855
v 3.359245 8.180013 -4.384855
v 3.269956 8.180013 -4.384855
v 3.271956 8.178013 -4.384855
v 3.271956 7.801723 -4.742747
v 3.269956 7.801723 -4.744747
v 3.359245 7.801723 -4.744747
v 3.359245 7.801723 -4.742747
v 3.359245 7.801723 -4.742747
v 3.359245 7.801723 -4.744747
v 3.359245 8.178013 -4.744747
v 3.359245 8.178013 -4.742747
v 3.359245 8.178013 -4.742747
v 3.359245 8.178013 -4.744747
v 3.269956 8.178013 -4.744747
v 3.271956 8.178013 -4.742747
vn 1.0000 -0.0000 -0.0000
vn -0.0000 1.0000 -0.0000
vn -0.0000 -0.0000 -1.0000
vn 0.5052 0.8474 -0.1632
vn 0.5051 0.8475 -0.1632
vn 0.5053 0.8474 -0.1631
vn 0.5054 0.8474 -0.1631
vn 0.5626 0.5625 -0.6059
vn 0.5820 0.5677 -0.5823
vn 0.5723 0.5727 -0.5869
vn 0.5916 0.5481 -0.5913
vn -0.0000 1.0000 0.0001
vn -0.0000 1.0000 -0.0003
s 1
usemtl M_polySurface160_lambert1_0_0
f 1//1 3//1 2//1
f 1//1 4//1 3//1
f 5//2 6//2 7//2
f 5//2 7//2 8//2
f 9//3 10//3 11//3
f 9//3 11//3 12//3
f 13//1 14//1 15//1
f 13//1 15//1 16//1
f 17//2 19//2 18//2
f 17//2 20//2 19//2
f 21//3 23//3 22//3
f 21//3 24//3 23//3
f 25//4 26//5 27//6
f 25//4 27//6 28//7
f 29//8 31//9 30//10
f 29//8 32//11 31//9
f 33//3 34//3 35//3
f 33//3 35//3 36//3
f 37//1 38//1 39//1
f 37//1 39//1 40//1
f 41//3 43//3 42//3
f 41//3 44//3 43//3
f 45//2 47//2 46//2
f 45//2 48//2 47//2
f 49//1 50//1 51//1
f 49//1 51//1 52//1
f 53//2 54//2 55//12
f 53//2 55//12 56//13
