# Blender 4.4.1
# www.blender.org
mtllib SM_polySurface168_lambert1_0_0.mtl
o SM_polySurface168_lambert1_0_0
v 3.269956 10.272256 2.481701
v 3.269956 10.648546 2.481701
v 3.269956 10.650546 2.475512
v 3.269956 10.650546 2.121809
v 3.269956 10.650546 2.475512
v 3.359245 10.650546 2.475512
v 3.359245 10.650546 2.121809
v 3.269956 10.650546 2.121809
v 3.269956 10.272256 2.481701
v 3.359245 10.272256 2.481701
v 3.359245 10.648546 2.481701
v 3.269956 10.648546 2.481701
v 3.271956 10.272256 2.479702
v 3.271956 10.648546 2.121809
v 3.271956 10.648546 2.475512
v 3.271956 10.648546 2.479702
v 3.271956 10.648546 2.475512
v 3.271956 10.648546 2.121809
v 3.359245 10.648546 2.121809
v 3.359245 10.648546 2.475512
v 3.271956 10.272256 2.479702
v 3.271956 10.648546 2.479702
v 3.359245 10.648546 2.479702
v 3.359245 10.272256 2.479702
v 3.271956 10.648546 2.479702
v 3.271956 10.648546 2.475512
v 3.269956 10.650546 2.475512
v 3.269956 10.648546 2.481701
v 3.271956 10.648546 2.121809
v 3.271956 10.272256 2.479702
v 3.269956 10.272256 2.481701
v 3.269956 10.650546 2.121809
v 3.271956 10.648546 2.475512
v 3.359245 10.648546 2.475512
v 3.359245 10.650546 2.475512
v 3.269956 10.650546 2.475512
v 3.359245 10.648546 2.475512
v 3.359245 10.648546 2.121809
v 3.359245 10.650546 2.121809
v 3.359245 10.650546 2.475512
v 3.359245 10.648546 2.121809
v 3.271956 10.648546 2.121809
v 3.269956 10.650546 2.121809
v 3.359245 10.650546 2.121809
v 3.271956 10.272256 2.479702
v 3.359245 10.272256 2.479702
v 3.359245 10.272256 2.481701
v 3.269956 10.272256 2.481701
v 3.359245 10.272256 2.479702
v 3.359245 10.648546 2.479702
v 3.359245 10.648546 2.481701
v 3.359245 10.272256 2.481701
v 3.359245 10.648546 2.479702
v 3.271956 10.648546 2.479702
v 3.269956 10.648546 2.481701
v 3.359245 10.648546 2.481701
vn 1.0000 -0.0000 -0.0000
vn -0.0000 1.0000 -0.0000
vn -0.0000 -0.0000 1.0000
vn 0.5051 0.8475 0.1632
vn 0.5053 0.8474 0.1631
vn 0.5626 0.5624 0.6059
vn 0.5820 0.5677 0.5823
vn 0.5913 0.5483 0.5913
vn 0.5724 0.5725 0.5870
vn -0.0000 1.0000 0.0001
s 1
usemtl M_polySurface168_lambert1_0_0
f 1//1 3//1 2//1
f 1//1 4//1 3//1
f 5//2 6//2 7//2
f 5//2 7//2 8//2
f 9//3 10//3 11//3
f 9//3 11//3 12//3
f 13//1 14//1 15//1
f 13//1 15//1 16//1
f 17//2 19//2 18//2
f 17//2 20//2 19//2
f 21//3 23//3 22//3
f 21//3 24//3 23//3
f 25//4 26//5 27//5
f 25//4 27//5 28//4
f 29//6 31//7 30//8
f 29//6 32//9 31//7
f 33//3 34//3 35//3
f 33//3 35//3 36//3
f 37//1 38//1 39//1
f 37//1 39//1 40//1
f 41//3 43//3 42//3
f 41//3 44//3 43//3
f 45//2 47//2 46//2
f 45//2 48//2 47//2
f 49//1 50//1 51//1
f 49//1 51//1 52//1
f 53//2 54//10 55//10
f 53//2 55//10 56//2
