# Blender 4.4.1
# www.blender.org
mtllib SM_pCylinder170_lambert1_0_001_0.mtl
o SM_pCylinder170_lambert1_0_001_0
v 17.504766 -0.032083 15.982337
v 17.511360 -0.032198 15.995276
v 17.467213 -0.032326 16.009621
v 17.494497 -0.031992 15.972069
v 17.481558 -0.031934 15.965475
v 17.467213 -0.031913 15.963203
v 17.452868 -0.031934 15.965475
v 17.439928 -0.031992 15.972069
v 17.429659 -0.032083 15.982337
v 17.423065 -0.032198 15.995276
v 17.420794 -0.032326 16.009621
v 17.423065 -0.032453 16.023964
v 17.429659 -0.032568 16.036903
v 17.439928 -0.032659 16.047173
v 17.452868 -0.032717 16.053766
v 17.467213 -0.032738 16.056038
v 17.481558 -0.032717 16.053766
v 17.494497 -0.032659 16.047173
v 17.504766 -0.032568 16.036903
v 17.511360 -0.032453 16.023964
v 17.513632 -0.032326 16.009621
v 17.511360 0.838420 16.003006
v 17.504766 0.838535 15.990066
v 17.467213 0.838292 16.017349
v 17.494497 0.838626 15.979797
v 17.481558 0.838684 15.973204
v 17.467213 0.838705 15.970932
v 17.452868 0.838684 15.973204
v 17.439928 0.838626 15.979797
v 17.429659 0.838535 15.990067
v 17.423065 0.838420 16.003006
v 17.420794 0.838292 16.017349
v 17.423065 0.838165 16.031693
v 17.429659 0.838050 16.044632
v 17.439928 0.837959 16.054901
v 17.452868 0.837901 16.061495
v 17.467213 0.837880 16.063766
v 17.481558 0.837901 16.061495
v 17.494497 0.837959 16.054901
v 17.504766 0.838050 16.044632
v 17.511360 0.838165 16.031693
v 17.513632 0.838292 16.017349
v 17.511360 0.511938 16.000107
v 17.504766 0.512053 15.987167
v 17.504766 0.620880 15.988133
v 17.511360 0.620765 16.001074
v 17.494497 0.512144 15.976899
v 17.494497 0.620971 15.977865
v 17.481558 0.512203 15.970305
v 17.481558 0.621030 15.971272
v 17.467213 0.512223 15.968034
v 17.467213 0.621050 15.969000
v 17.452868 0.512203 15.970305
v 17.452868 0.621030 15.971272
v 17.439928 0.512144 15.976899
v 17.439928 0.620971 15.977865
v 17.429659 0.512053 15.987167
v 17.429659 0.620880 15.988133
v 17.423065 0.511938 16.000107
v 17.423065 0.620765 16.001074
v 17.420794 0.511811 16.014452
v 17.420794 0.620638 16.015417
v 17.423065 0.511683 16.028795
v 17.423065 0.620511 16.029760
v 17.429659 0.511569 16.041735
v 17.429659 0.620396 16.042700
v 17.439928 0.511477 16.052004
v 17.439928 0.620305 16.052969
v 17.452868 0.511419 16.058596
v 17.452868 0.620246 16.059563
v 17.467213 0.511399 16.060867
v 17.467213 0.620226 16.061834
v 17.481558 0.511419 16.058596
v 17.481558 0.620246 16.059563
v 17.494497 0.511477 16.052004
v 17.494497 0.620305 16.052969
v 17.504766 0.511569 16.041735
v 17.504766 0.620396 16.042700
v 17.511360 0.511683 16.028795
v 17.511360 0.620511 16.029760
v 17.513632 0.511811 16.014452
v 17.513632 0.620638 16.015417
v 17.511360 0.511938 16.000107
v 17.511360 0.620765 16.001074
v 17.511360 0.185456 15.997210
v 17.504766 0.185571 15.984269
v 17.504766 0.294398 15.985235
v 17.511360 0.294284 15.998176
v 17.494497 0.185662 15.974001
v 17.494497 0.294490 15.974967
v 17.481558 0.185721 15.967407
v 17.481558 0.294548 15.968373
v 17.467213 0.185741 15.965136
v 17.467213 0.294568 15.966102
v 17.452868 0.185721 15.967407
v 17.452868 0.294548 15.968373
v 17.439928 0.185662 15.974001
v 17.439928 0.294490 15.974967
v 17.429659 0.185571 15.984269
v 17.429659 0.294398 15.985235
v 17.423065 0.185456 15.997210
v 17.423065 0.294284 15.998176
v 17.420794 0.185329 16.011553
v 17.420794 0.294156 16.012518
v 17.423065 0.185202 16.025896
v 17.423065 0.294029 16.026863
v 17.429659 0.185087 16.038836
v 17.429659 0.293914 16.039803
v 17.439928 0.184996 16.049105
v 17.439928 0.293823 16.050072
v 17.452868 0.184937 16.055698
v 17.452868 0.293764 16.056664
v 17.467213 0.184917 16.057970
v 17.467213 0.293744 16.058935
v 17.481558 0.184937 16.055698
v 17.481558 0.293764 16.056664
v 17.494497 0.184996 16.049105
v 17.494497 0.293823 16.050072
v 17.504766 0.185087 16.038836
v 17.504766 0.293914 16.039803
v 17.511360 0.185202 16.025896
v 17.511360 0.294029 16.026863
v 17.513632 0.185329 16.011553
v 17.513632 0.294156 16.012518
v 17.511360 0.185456 15.997210
v 17.511360 0.294284 15.998176
v 17.511360 0.729593 16.002039
v 17.513632 0.729465 16.016384
v 17.511360 0.729338 16.030727
v 17.504766 0.729223 16.043667
v 17.494497 0.729132 16.053936
v 17.481558 0.729073 16.060528
v 17.467213 0.729053 16.062799
v 17.452868 0.729073 16.060528
v 17.439928 0.729132 16.053936
v 17.429659 0.729223 16.043667
v 17.423065 0.729338 16.030727
v 17.420794 0.729465 16.016384
v 17.423065 0.729593 16.002039
v 17.429659 0.729707 15.989100
v 17.439928 0.729799 15.978831
v 17.452868 0.729857 15.972238
v 17.467213 0.729877 15.969966
v 17.481558 0.729857 15.972238
v 17.494497 0.729799 15.978831
v 17.504766 0.729707 15.989100
v 17.511360 0.729593 16.002039
v 17.511360 0.076629 15.996243
v 17.504766 0.076744 15.983303
v 17.494497 0.076835 15.973035
v 17.481558 0.076894 15.966441
v 17.467213 0.076914 15.964170
v 17.452868 0.076894 15.966441
v 17.439928 0.076835 15.973035
v 17.429659 0.076744 15.983303
v 17.423065 0.076629 15.996243
v 17.420794 0.076502 16.010586
v 17.423065 0.076374 16.024931
v 17.429659 0.076260 16.037870
v 17.439928 0.076168 16.048140
v 17.452868 0.076110 16.054731
v 17.467213 0.076090 16.057003
v 17.481558 0.076110 16.054731
v 17.494497 0.076168 16.048140
v 17.504766 0.076260 16.037870
v 17.511360 0.076374 16.024931
v 17.513632 0.076502 16.010586
v 17.511360 0.076629 15.996243
v 17.511360 0.403111 15.999142
v 17.504766 0.403226 15.986201
v 17.494497 0.403317 15.975933
v 17.481558 0.403375 15.969339
v 17.467213 0.403396 15.967068
v 17.452868 0.403375 15.969339
v 17.439928 0.403317 15.975933
v 17.429659 0.403226 15.986201
v 17.423065 0.403111 15.999142
v 17.420794 0.402983 16.013485
v 17.423065 0.402856 16.027828
v 17.429659 0.402741 16.040768
v 17.439928 0.402650 16.051037
v 17.452868 0.402592 16.057631
v 17.467213 0.402571 16.059902
v 17.481558 0.402592 16.057631
v 17.494497 0.402650 16.051037
v 17.504766 0.402741 16.040768
v 17.511360 0.402856 16.027828
v 17.513632 0.402983 16.013485
v 17.511360 0.403111 15.999142
v 17.511360 0.838420 16.003006
v 17.513632 0.838292 16.017349
v 17.511360 0.838165 16.031693
v 17.504766 0.838050 16.044632
v 17.494497 0.837959 16.054901
v 17.481558 0.837901 16.061495
v 17.467213 0.837880 16.063766
v 17.452868 0.837901 16.061495
v 17.439928 0.837959 16.054901
v 17.429659 0.838050 16.044632
v 17.423065 0.838165 16.031693
v 17.420794 0.838292 16.017349
v 17.423065 0.838420 16.003006
v 17.429659 0.838535 15.990067
v 17.439928 0.838626 15.979797
v 17.452868 0.838684 15.973204
v 17.467213 0.838705 15.970932
v 17.481558 0.838684 15.973204
v 17.494497 0.838626 15.979797
v 17.504766 0.838535 15.990066
v 17.511360 0.838420 16.003006
v 17.511360 -0.032198 15.995276
v 17.504766 -0.032083 15.982337
v 17.494497 -0.031992 15.972069
v 17.481558 -0.031934 15.965475
v 17.467213 -0.031913 15.963203
v 17.452868 -0.031934 15.965475
v 17.439928 -0.031992 15.972069
v 17.429659 -0.032083 15.982337
v 17.423065 -0.032198 15.995276
v 17.420794 -0.032326 16.009621
v 17.423065 -0.032453 16.023964
v 17.429659 -0.032568 16.036903
v 17.439928 -0.032659 16.047173
v 17.452868 -0.032717 16.053766
v 17.467213 -0.032738 16.056038
v 17.481558 -0.032717 16.053766
v 17.494497 -0.032659 16.047173
v 17.504766 -0.032568 16.036903
v 17.511360 -0.032453 16.023964
v 17.513632 -0.032326 16.009621
v 17.511360 -0.032198 15.995276
vn -0.0000 1.0000 0.0089
vn 0.9510 0.0027 -0.3091
vn 0.8090 0.0052 -0.5878
vn 0.5878 0.0072 -0.8090
vn 0.3092 0.0084 -0.9509
vn 0.3091 0.0084 -0.9510
vn -0.0001 0.0089 -1.0000
vn 0.0001 0.0089 -1.0000
vn -0.3091 0.0084 -0.9510
vn -0.3089 0.0084 -0.9511
vn -0.5878 0.0072 -0.8090
vn -0.5877 0.0072 -0.8090
vn -0.8090 0.0052 -0.5878
vn -0.9511 0.0027 -0.3090
vn -1.0000 -0.0000 -0.0000
vn -0.9511 -0.0027 0.3090
vn -0.8090 -0.0052 0.5878
vn -0.5878 -0.0072 0.8090
vn -0.3091 -0.0084 0.9510
vn -0.0001 -0.0089 1.0000
vn 0.3090 -0.0084 0.9510
vn 0.5878 -0.0072 0.8090
vn 0.8090 -0.0052 0.5878
vn 0.9511 -0.0027 0.3090
vn 1.0000 -0.0000 -0.0000
vn 0.9511 0.0027 -0.3089
vn 0.9510 0.0028 -0.3091
vn 0.5879 0.0072 -0.8089
vn 0.5877 0.0072 -0.8090
vn 0.3092 0.0084 -0.9510
vn 0.3089 0.0084 -0.9510
vn -0.3089 0.0084 -0.9510
vn -0.3092 0.0084 -0.9510
vn -0.5879 0.0072 -0.8089
vn -0.3089 -0.0084 0.9511
vn 0.0001 -0.0089 1.0000
vn 0.8090 -0.0052 0.5877
vn 0.9510 -0.0027 0.3090
vn -0.0000 -0.0089 1.0000
vn -0.3090 -0.0084 0.9510
vn 0.3089 0.0084 -0.9511
vn 0.3090 0.0084 -0.9510
vn -0.3087 0.0085 -0.9511
vn -0.5878 0.0072 -0.8089
vn -0.8090 -0.0052 0.5877
vn 0.9510 0.0027 -0.3092
vn -0.3090 0.0084 -0.9510
vn 0.5879 -0.0072 0.8089
vn 0.3091 -0.0085 0.9510
vn -0.3090 -0.0085 0.9510
vn -0.5879 -0.0072 0.8089
vn -0.8090 0.0052 -0.5877
vn -0.9511 -0.0028 0.3090
vn 0.5877 -0.0072 0.8090
s 1
usemtl M_pCylinder170_lambert1_0_001_0
f 1//1 3//1 2//1
f 4//1 3//1 1//1
f 5//1 3//1 4//1
f 6//1 3//1 5//1
f 7//1 3//1 6//1
f 8//1 3//1 7//1
f 9//1 3//1 8//1
f 10//1 3//1 9//1
f 11//1 3//1 10//1
f 12//1 3//1 11//1
f 13//1 3//1 12//1
f 14//1 3//1 13//1
f 15//1 3//1 14//1
f 16//1 3//1 15//1
f 17//1 3//1 16//1
f 18//1 3//1 17//1
f 19//1 3//1 18//1
f 20//1 3//1 19//1
f 21//1 3//1 20//1
f 2//1 3//1 21//1
f 22//1 23//1 24//1
f 23//1 25//1 24//1
f 25//1 26//1 24//1
f 26//1 27//1 24//1
f 27//1 28//1 24//1
f 28//1 29//1 24//1
f 29//1 30//1 24//1
f 30//1 31//1 24//1
f 31//1 32//1 24//1
f 32//1 33//1 24//1
f 33//1 34//1 24//1
f 34//1 35//1 24//1
f 35//1 36//1 24//1
f 36//1 37//1 24//1
f 37//1 38//1 24//1
f 38//1 39//1 24//1
f 39//1 40//1 24//1
f 40//1 41//1 24//1
f 41//1 42//1 24//1
f 42//1 22//1 24//1
f 43//2 44//3 45//3
f 43//2 45//3 46//2
f 44//3 47//4 48//4
f 44//3 48//4 45//3
f 47//4 49//5 50//6
f 47//4 50//6 48//4
f 49//5 51//7 52//8
f 49//5 52//8 50//6
f 51//7 53//9 54//10
f 51//7 54//10 52//8
f 53//9 55//11 56//12
f 53//9 56//12 54//10
f 55//11 57//13 58//13
f 55//11 58//13 56//12
f 57//13 59//14 60//14
f 57//13 60//14 58//13
f 59//14 61//15 62//15
f 59//14 62//15 60//14
f 61//15 63//16 64//16
f 61//15 64//16 62//15
f 63//16 65//17 66//17
f 63//16 66//17 64//16
f 65//17 67//18 68//18
f 65//17 68//18 66//17
f 67//18 69//19 70//19
f 67//18 70//19 68//18
f 69//19 71//20 72//20
f 69//19 72//20 70//19
f 71//20 73//21 74//21
f 71//20 74//21 72//20
f 73//21 75//22 76//22
f 73//21 76//22 74//21
f 75//22 77//23 78//23
f 75//22 78//23 76//22
f 77//23 79//24 80//24
f 77//23 80//24 78//23
f 79//24 81//25 82//25
f 79//24 82//25 80//24
f 81//25 83//26 84//26
f 81//25 84//26 82//25
f 85//27 86//3 87//3
f 85//27 87//3 88//2
f 86//3 89//28 90//29
f 86//3 90//29 87//3
f 89//28 91//30 92//31
f 89//28 92//31 90//29
f 91//30 93//8 94//7
f 91//30 94//7 92//31
f 93//8 95//32 96//33
f 93//8 96//33 94//7
f 95//32 97//11 98//34
f 95//32 98//34 96//33
f 97//11 99//13 100//13
f 97//11 100//13 98//34
f 99//13 101//14 102//14
f 99//13 102//14 100//13
f 101//14 103//15 104//15
f 101//14 104//15 102//14
f 103//15 105//16 106//16
f 103//15 106//16 104//15
f 105//16 107//17 108//17
f 105//16 108//17 106//16
f 107//17 109//18 110//18
f 107//17 110//18 108//17
f 109//18 111//19 112//35
f 109//18 112//35 110//18
f 111//19 113//20 114//36
f 111//19 114//36 112//35
f 113//20 115//21 116//21
f 113//20 116//21 114//36
f 115//21 117//22 118//22
f 115//21 118//22 116//21
f 117//22 119//23 120//37
f 117//22 120//37 118//22
f 119//23 121//24 122//24
f 119//23 122//24 120//37
f 121//24 123//25 124//25
f 121//24 124//25 122//24
f 123//25 125//26 126//26
f 123//25 126//26 124//25
f 82//25 84//26 127//26
f 82//25 127//26 128//25
f 80//24 82//25 128//25
f 80//24 128//25 129//38
f 78//23 80//24 129//38
f 78//23 129//38 130//23
f 76//22 78//23 130//23
f 76//22 130//23 131//22
f 74//21 76//22 131//22
f 74//21 131//22 132//21
f 72//20 74//21 132//21
f 72//20 132//21 133//39
f 70//19 72//20 133//39
f 70//19 133//39 134//40
f 68//18 70//19 134//40
f 68//18 134//40 135//18
f 66//17 68//18 135//18
f 66//17 135//18 136//17
f 64//16 66//17 136//17
f 64//16 136//17 137//16
f 62//15 64//16 137//16
f 62//15 137//16 138//15
f 60//14 62//15 138//15
f 60//14 138//15 139//14
f 58//13 60//14 139//14
f 58//13 139//14 140//13
f 56//12 58//13 140//13
f 56//12 140//13 141//34
f 54//10 56//12 141//34
f 54//10 141//34 142//33
f 52//8 54//10 142//33
f 52//8 142//33 143//7
f 50//6 52//8 143//7
f 50//6 143//7 144//41
f 48//4 50//6 144//41
f 48//4 144//41 145//4
f 45//3 48//4 145//4
f 45//3 145//4 146//3
f 46//2 45//3 146//3
f 46//2 146//3 147//2
f 148//2 149//3 86//3
f 148//2 86//3 85//27
f 149//3 150//4 89//28
f 149//3 89//28 86//3
f 150//4 151//42 91//30
f 150//4 91//30 89//28
f 151//42 152//7 93//8
f 151//42 93//8 91//30
f 152//7 153//43 95//32
f 152//7 95//32 93//8
f 153//43 154//44 97//11
f 153//43 97//11 95//32
f 154//44 155//13 99//13
f 154//44 99//13 97//11
f 155//13 156//14 101//14
f 155//13 101//14 99//13
f 156//14 157//15 103//15
f 156//14 103//15 101//14
f 157//15 158//16 105//16
f 157//15 105//16 103//15
f 158//16 159//45 107//17
f 158//16 107//17 105//16
f 159//45 160//18 109//18
f 159//45 109//18 107//17
f 160//18 161//40 111//19
f 160//18 111//19 109//18
f 161//40 162//39 113//20
f 161//40 113//20 111//19
f 162//39 163//21 115//21
f 162//39 115//21 113//20
f 163//21 164//22 117//22
f 163//21 117//22 115//21
f 164//22 165//23 119//23
f 164//22 119//23 117//22
f 165//23 166//24 121//24
f 165//23 121//24 119//23
f 166//24 167//25 123//25
f 166//24 123//25 121//24
f 167//25 168//26 125//26
f 167//25 125//26 123//25
f 169//46 170//3 44//3
f 169//46 44//3 43//2
f 170//3 171//28 47//4
f 170//3 47//4 44//3
f 171//28 172//30 49//5
f 171//28 49//5 47//4
f 172//30 173//8 51//7
f 172//30 51//7 49//5
f 173//8 174//47 53//9
f 173//8 53//9 51//7
f 174//47 175//12 55//11
f 174//47 55//11 53//9
f 175//12 176//13 57//13
f 175//12 57//13 55//11
f 176//13 177//14 59//14
f 176//13 59//14 57//13
f 177//14 178//15 61//15
f 177//14 61//15 59//14
f 178//15 179//16 63//16
f 178//15 63//16 61//15
f 179//16 180//17 65//17
f 179//16 65//17 63//16
f 180//17 181//18 67//18
f 180//17 67//18 65//17
f 181//18 182//40 69//19
f 181//18 69//19 67//18
f 182//40 183//36 71//20
f 182//40 71//20 69//19
f 183//36 184//21 73//21
f 183//36 73//21 71//20
f 184//21 185//22 75//22
f 184//21 75//22 73//21
f 185//22 186//23 77//23
f 185//22 77//23 75//22
f 186//23 187//24 79//24
f 186//23 79//24 77//23
f 187//24 188//25 81//25
f 187//24 81//25 79//24
f 188//25 189//26 83//26
f 188//25 83//26 81//25
f 128//25 127//26 190//26
f 128//25 190//26 191//25
f 129//38 128//25 191//25
f 129//38 191//25 192//24
f 130//23 129//38 192//24
f 130//23 192//24 193//23
f 131//22 130//23 193//23
f 131//22 193//23 194//48
f 132//21 131//22 194//48
f 132//21 194//48 195//49
f 133//39 132//21 195//49
f 133//39 195//49 196//36
f 134//40 133//39 196//36
f 134//40 196//36 197//50
f 135//18 134//40 197//50
f 135//18 197//50 198//51
f 136//17 135//18 198//51
f 136//17 198//51 199//17
f 137//16 136//17 199//17
f 137//16 199//17 200//16
f 138//15 137//16 200//16
f 138//15 200//16 201//15
f 139//14 138//15 201//15
f 139//14 201//15 202//14
f 140//13 139//14 202//14
f 140//13 202//14 203//52
f 141//34 140//13 203//52
f 141//34 203//52 204//11
f 142//33 141//34 204//11
f 142//33 204//11 205//10
f 143//7 142//33 205//10
f 143//7 205//10 206//8
f 144//41 143//7 206//8
f 144//41 206//8 207//30
f 145//4 144//41 207//30
f 145//4 207//30 208//4
f 146//3 145//4 208//4
f 146//3 208//4 209//3
f 147//2 146//3 209//3
f 147//2 209//3 210//2
f 124//25 126//26 189//26
f 124//25 189//26 188//25
f 122//24 124//25 188//25
f 122//24 188//25 187//24
f 120//37 122//24 187//24
f 120//37 187//24 186//23
f 118//22 120//37 186//23
f 118//22 186//23 185//22
f 116//21 118//22 185//22
f 116//21 185//22 184//21
f 114//36 116//21 184//21
f 114//36 184//21 183//36
f 112//35 114//36 183//36
f 112//35 183//36 182//40
f 110//18 112//35 182//40
f 110//18 182//40 181//18
f 108//17 110//18 181//18
f 108//17 181//18 180//17
f 106//16 108//17 180//17
f 106//16 180//17 179//16
f 104//15 106//16 179//16
f 104//15 179//16 178//15
f 102//14 104//15 178//15
f 102//14 178//15 177//14
f 100//13 102//14 177//14
f 100//13 177//14 176//13
f 98//34 100//13 176//13
f 98//34 176//13 175//12
f 96//33 98//34 175//12
f 96//33 175//12 174//47
f 94//7 96//33 174//47
f 94//7 174//47 173//8
f 92//31 94//7 173//8
f 92//31 173//8 172//30
f 90//29 92//31 172//30
f 90//29 172//30 171//28
f 87//3 90//29 171//28
f 87//3 171//28 170//3
f 88//2 87//3 170//3
f 88//2 170//3 169//46
f 211//27 212//3 149//3
f 211//27 149//3 148//2
f 212//3 213//4 150//4
f 212//3 150//4 149//3
f 213//4 214//6 151//42
f 213//4 151//42 150//4
f 214//6 215//8 152//7
f 214//6 152//7 151//42
f 215//8 216//10 153//43
f 215//8 153//43 152//7
f 216//10 217//11 154//44
f 216//10 154//44 153//43
f 217//11 218//13 155//13
f 217//11 155//13 154//44
f 218//13 219//14 156//14
f 218//13 156//14 155//13
f 219//14 220//15 157//15
f 219//14 157//15 156//14
f 220//15 221//53 158//16
f 220//15 158//16 157//15
f 221//53 222//45 159//45
f 221//53 159//45 158//16
f 222//45 223//18 160//18
f 222//45 160//18 159//45
f 223//18 224//35 161//40
f 223//18 161//40 160//18
f 224//35 225//36 162//39
f 224//35 162//39 161//40
f 225//36 226//21 163//21
f 225//36 163//21 162//39
f 226//21 227//54 164//22
f 226//21 164//22 163//21
f 227//54 228//37 165//23
f 227//54 165//23 164//22
f 228//37 229//24 166//24
f 228//37 166//24 165//23
f 229//24 230//25 167//25
f 229//24 167//25 166//24
f 230//25 231//26 168//26
f 230//25 168//26 167//25
