# Blender 4.4.1
# www.blender.org
mtllib SM_polySurface208_lambert1_0_0.mtl
o SM_polySurface208_lambert1_0_0
v 2.649344 4.826484 6.365877
v 2.658859 4.826484 6.401389
v 2.648117 4.823552 6.412972
v 2.638402 4.823552 6.378102
v 2.684857 4.826484 6.427385
v 2.674662 4.823552 6.438499
v 2.720370 4.826484 6.436901
v 2.710920 4.823552 6.447843
v 3.346340 4.826484 6.436901
v 3.381853 4.826484 6.427385
v 3.392049 4.823552 6.438499
v 3.355790 4.823552 6.447843
v 3.381853 4.826484 6.427385
v 3.407850 4.826484 6.401389
v 3.418591 4.823552 6.412971
v 3.392049 4.823552 6.438499
v 3.417367 4.826484 6.365877
v 3.428307 4.823552 6.378101
v 2.674543 4.866647 6.480936
v 2.639030 4.866647 6.471420
v 2.636098 4.855706 6.474352
v 2.671610 4.855706 6.483868
v 2.613033 4.866647 6.445423
v 2.610101 4.855706 6.448355
v 2.603518 4.866647 6.409911
v 2.600586 4.855706 6.412843
v 3.384157 4.874658 6.472926
v 3.419670 4.874658 6.463410
v 3.407983 4.877589 6.452641
v 3.371723 4.877589 6.461985
v 3.445667 4.874658 6.437414
v 3.434526 4.877589 6.427114
v 3.455183 4.874658 6.401901
v 3.444242 4.877589 6.392244
v 3.338331 4.866647 6.428891
v 3.373844 4.866647 6.419375
v 3.370912 4.855706 6.416443
v 3.335400 4.855706 6.425959
v 3.399840 4.866647 6.393378
v 3.396910 4.855706 6.390447
v 3.409355 4.866647 6.357866
v 3.406425 4.855706 6.354934
v 2.720370 4.874658 6.436901
v 2.684857 4.874658 6.427385
v 2.674662 4.877589 6.438499
v 2.710920 4.877589 6.447843
v 2.684857 4.874658 6.427385
v 2.658859 4.874658 6.401389
v 2.648117 4.877589 6.412972
v 2.674662 4.877589 6.438499
v 2.649344 4.874658 6.365877
v 2.638402 4.877589 6.378102
v 3.455183 4.826484 6.401901
v 3.445667 4.826484 6.437414
v 3.434526 4.823552 6.427114
v 3.444242 4.823552 6.392244
v 3.445667 4.826484 6.437414
v 3.419670 4.826484 6.463410
v 3.407983 4.823552 6.452641
v 3.434526 4.823552 6.427114
v 3.384157 4.826484 6.472926
v 3.371723 4.823552 6.461985
v 2.682550 4.826484 6.472926
v 2.647038 4.826484 6.463410
v 2.658728 4.823552 6.452641
v 2.694988 4.823552 6.461985
v 2.621042 4.826484 6.437413
v 2.632185 4.823552 6.427114
v 2.611526 4.826484 6.401899
v 2.622469 4.823552 6.392245
v 3.417367 4.826484 6.256835
v 3.428307 4.823552 6.256835
v 3.409355 4.834493 6.357866
v 3.409355 4.834493 6.256835
v 3.409355 4.834493 6.357866
v 3.406425 4.845435 6.354934
v 3.406425 4.845435 6.256835
v 3.409355 4.834493 6.256835
v 3.455183 4.874658 6.256835
v 3.444242 4.877589 6.256835
v 3.463192 4.866647 6.409911
v 3.463192 4.866647 6.256835
v 3.455183 4.874658 6.256835
v 3.466125 4.855706 6.412843
v 3.466125 4.855706 6.256835
v 2.649344 4.874658 6.256835
v 2.638402 4.877589 6.256835
v 2.657354 4.866647 6.357865
v 2.657354 4.866647 6.256835
v 2.649344 4.874658 6.256835
v 2.657354 4.866647 6.357865
v 2.660285 4.855706 6.354934
v 2.660285 4.855706 6.256835
v 2.657354 4.866647 6.256835
v 2.611526 4.826484 6.256835
v 2.622469 4.823552 6.256835
v 2.603518 4.834493 6.409911
v 2.603518 4.834493 6.256835
v 2.611526 4.826484 6.256835
v 2.603518 4.834493 6.409911
v 2.600586 4.845435 6.412843
v 2.600586 4.845435 6.256835
v 2.694988 4.877589 6.461985
v 3.355790 4.877589 6.447843
v 3.395100 4.845435 6.483868
v 3.395100 4.855706 6.483868
v 2.671610 4.845435 6.483868
v 3.335400 4.845435 6.425959
v 2.731311 4.845435 6.425959
v 2.731311 4.855706 6.425959
v 3.428307 4.823552 6.256835
v 3.444242 4.823552 6.256835
v 3.406425 4.855706 6.256835
v 3.428307 4.877589 6.256835
v 3.428307 4.877589 6.378101
v 3.466125 4.845435 6.412843
v 3.466125 4.845435 6.256835
v 2.660285 4.845435 6.354934
v 2.660285 4.845435 6.256835
v 2.638402 4.823552 6.256835
v 2.600586 4.855706 6.256835
v 2.638402 4.877589 6.256835
v 2.622469 4.877589 6.256835
v 2.622469 4.877589 6.392245
v 3.338331 4.834493 6.428891
v 2.728378 4.834493 6.428891
v 3.338331 4.834493 6.428891
v 2.728378 4.834493 6.428891
v 2.649344 4.826484 6.256835
v 2.657354 4.834493 6.357865
v 2.657354 4.834493 6.256835
v 2.657354 4.834493 6.357865
v 2.649344 4.826484 6.365877
v 2.657354 4.834493 6.256835
v 2.611526 4.874658 6.401899
v 2.611526 4.874658 6.256835
v 2.603518 4.866647 6.256835
v 2.611526 4.874658 6.256835
v 2.682550 4.874658 6.472926
v 2.674543 4.866647 6.480936
v 3.392167 4.866647 6.480936
v 3.392167 4.866647 6.480936
v 3.417367 4.874658 6.365877
v 3.417367 4.874658 6.256835
v 3.409355 4.866647 6.256835
v 3.417367 4.874658 6.365877
v 3.346340 4.874658 6.436901
v 3.338331 4.866647 6.428891
v 2.728378 4.866647 6.428891
v 2.728378 4.866647 6.428891
v 2.674543 4.834493 6.480936
v 3.392167 4.834493 6.480936
v 2.674543 4.834493 6.480936
v 3.392167 4.834493 6.480936
v 3.455183 4.826484 6.256835
v 3.463192 4.834493 6.409911
v 3.463192 4.834493 6.256835
v 3.463192 4.834493 6.409911
v 3.463192 4.834493 6.256835
v 2.669801 4.845435 6.390447
v 2.666869 4.834493 6.393378
v 2.695797 4.845435 6.416443
v 2.692867 4.834493 6.419375
v 2.666869 4.834493 6.393378
v 2.658859 4.826484 6.401389
v 2.666869 4.834493 6.393378
v 2.692867 4.834493 6.419375
v 3.373844 4.834493 6.419375
v 3.399840 4.834493 6.393378
v 3.373844 4.834493 6.419375
v 3.373844 4.834493 6.419375
v 3.370912 4.845435 6.416443
v 3.399840 4.834493 6.393378
v 3.396910 4.845435 6.390447
v 2.647038 4.874658 6.463410
v 2.658728 4.877589 6.452641
v 2.621042 4.874658 6.437413
v 2.632185 4.877589 6.427114
v 2.647038 4.874658 6.463410
v 2.658728 4.877589 6.452641
v 2.639030 4.866647 6.471420
v 2.613033 4.866647 6.445423
v 2.639030 4.866647 6.471420
v 3.427680 4.866647 6.471420
v 3.453677 4.866647 6.445423
v 3.427680 4.866647 6.471420
v 3.430613 4.855706 6.474352
v 3.453677 4.866647 6.445423
v 3.456610 4.855706 6.448355
v 3.427680 4.866647 6.471420
v 3.430613 4.855706 6.474352
v 3.381853 4.874658 6.427385
v 3.392049 4.877589 6.438499
v 3.407850 4.874658 6.401389
v 3.418591 4.877589 6.412971
v 3.373844 4.866647 6.419375
v 3.381853 4.874658 6.427385
v 3.407850 4.874658 6.401389
v 3.399840 4.866647 6.393378
v 3.373844 4.866647 6.419375
v 2.692867 4.866647 6.419375
v 2.666869 4.866647 6.393378
v 2.692867 4.866647 6.419375
v 2.632185 4.877589 6.427114
v 2.648117 4.877589 6.412972
v 2.692867 4.866647 6.419375
v 2.695797 4.855706 6.416443
v 2.666869 4.866647 6.393378
v 2.669801 4.855706 6.390447
v 3.456610 4.845435 6.448355
v 3.456610 4.855706 6.448355
v 3.430613 4.845435 6.474352
v 3.456610 4.845435 6.448355
v 3.453677 4.834493 6.445423
v 3.427680 4.834493 6.471420
v 3.453677 4.834493 6.445423
v 3.453677 4.834493 6.445423
v 3.427680 4.834493 6.471420
v 3.418591 4.823552 6.412971
v 2.639030 4.834493 6.471420
v 2.613033 4.834493 6.445423
v 2.639030 4.834493 6.471420
v 2.636098 4.845435 6.474352
v 2.613033 4.834493 6.445423
v 2.610101 4.845435 6.448355
v 3.466125 4.855706 6.256835
v 3.466125 4.845435 6.256835
v 3.463192 4.834493 6.256835
v 3.455183 4.826484 6.256835
v 3.444242 4.823552 6.256835
v 3.428307 4.823552 6.256835
v 3.417367 4.826484 6.256835
v 3.409355 4.834493 6.256835
v 3.406425 4.845435 6.256835
v 3.406425 4.855706 6.256835
v 3.409355 4.866647 6.256835
v 3.417367 4.874658 6.256835
v 3.428307 4.877589 6.256835
v 3.444242 4.877589 6.256835
v 3.455183 4.874658 6.256835
v 3.463192 4.866647 6.256835
v 2.622469 4.877589 6.256835
v 2.638402 4.877589 6.256835
v 2.649344 4.874658 6.256835
v 2.657354 4.866647 6.256835
v 2.660285 4.855706 6.256835
v 2.660285 4.845435 6.256835
v 2.657354 4.834493 6.256835
v 2.649344 4.826484 6.256835
v 2.638402 4.823552 6.256835
v 2.622469 4.823552 6.256835
v 2.611526 4.826484 6.256835
v 2.603518 4.834493 6.256835
v 2.600586 4.845435 6.256835
v 2.600586 4.855706 6.256835
v 2.603518 4.866647 6.256835
v 2.611526 4.874658 6.256835
vn 0.4124 -0.9104 -0.0325
vn 0.3084 -0.9331 -0.1848
vn 0.0550 -0.9978 -0.0368
vn 0.0631 -0.9980 -0.0080
vn 0.1854 -0.9323 -0.3105
vn 0.0366 -0.9976 -0.0582
vn 0.0077 -0.9143 -0.4049
vn 0.0018 -0.9982 -0.0607
vn -0.0077 -0.9143 -0.4049
vn -0.1853 -0.9323 -0.3106
vn -0.0366 -0.9976 -0.0582
vn -0.0018 -0.9982 -0.0607
vn 0.3067 0.9301 0.2020
vn 0.0570 0.9952 0.0796
vn 0.3088 0.9327 0.1862
vn 0.0305 0.9771 0.2104
vn 0.0640 0.9975 0.0290
vn 0.4279 0.8982 0.1002
vn -0.0128 0.4377 0.8990
vn -0.4579 0.3426 0.8203
vn -0.4986 0.1812 0.8477
vn -0.0144 0.1282 0.9916
vn -0.8203 0.3426 0.4580
vn -0.8477 0.1812 0.4986
vn -0.8796 0.4732 0.0490
vn -0.9891 0.1365 0.0554
vn 0.0061 0.8029 0.5960
vn 0.2037 0.9086 0.3645
vn 0.0445 0.9952 0.0876
vn 0.0010 0.9834 0.1817
vn 0.3666 0.9075 0.2051
vn 0.0859 0.9952 0.0472
vn 0.5488 0.8356 0.0227
vn 0.1452 0.9894 0.0044
vn 0.0179 0.0433 0.9989
vn 0.4757 -0.1739 0.8623
vn 0.4828 -0.3447 0.8050
vn 0.1510 -0.0382 0.9878
vn 0.8502 -0.1776 0.4955
vn 0.8051 -0.3445 0.4828
vn 0.9885 -0.0861 0.1245
vn 0.8150 -0.5618 0.1422
vn 0.0077 0.9143 -0.4050
vn 0.1854 0.9323 -0.3106
vn 0.0366 0.9976 -0.0582
vn 0.0018 0.9982 -0.0607
vn 0.1854 0.9323 -0.3105
vn 0.3084 0.9331 -0.1848
vn 0.0550 0.9978 -0.0368
vn 0.0367 0.9976 -0.0583
vn 0.4125 0.9104 -0.0325
vn 0.0631 0.9980 -0.0080
vn -0.4999 0.8583 -0.1157
vn -0.1396 0.9902 0.0098
vn -0.5235 0.8518 -0.0165
vn -0.1454 0.9893 -0.0089
vn 0.3665 -0.9075 0.2051
vn 0.2037 -0.9087 0.3645
vn 0.0445 -0.9952 0.0876
vn 0.0859 -0.9952 0.0472
vn 0.0061 -0.8030 0.5960
vn 0.0010 -0.9833 0.1817
vn -0.0061 -0.8030 0.5960
vn -0.2037 -0.9087 0.3644
vn -0.0445 -0.9952 0.0876
vn -0.0010 -0.9834 0.1817
vn -0.3666 -0.9075 0.2050
vn -0.0860 -0.9952 0.0472
vn -0.5488 -0.8357 0.0227
vn -0.1452 -0.9894 0.0044
vn 0.4910 0.8712 -0.0000
vn 0.2555 0.9536 -0.1592
vn 0.7070 0.7072 -0.0000
vn 0.6663 0.7453 0.0222
vn 0.9494 0.3053 0.0733
vn 0.9905 0.1372 -0.0000
vn 0.9743 0.2012 0.1009
vn 0.9660 0.2587 -0.0000
vn 0.2588 0.9659 -0.0000
vn 0.1141 0.9935 -0.0000
vn 0.8795 0.4733 0.0490
vn 0.8684 0.4958 -0.0000
vn 0.7072 0.7070 -0.0000
vn 0.9891 0.1366 0.0554
vn 0.9907 0.1364 -0.0000
vn 0.1018 0.9948 -0.0000
vn 0.6927 0.7207 -0.0281
vn 0.7071 0.7071 -0.0000
vn -0.9494 -0.3053 0.0733
vn -0.9905 -0.1372 -0.0000
vn -0.9743 -0.2013 0.1009
vn -0.9660 -0.2587 -0.0000
vn -0.2588 -0.9659 -0.0000
vn -0.1141 -0.9935 -0.0000
vn -0.8795 -0.4733 0.0490
vn -0.8684 -0.4959 -0.0000
vn -0.7071 -0.7071 -0.0000
vn -0.8796 -0.4731 0.0490
vn -0.9891 -0.1365 0.0554
vn -0.9907 -0.1363 -0.0000
vn -0.8685 -0.4956 -0.0000
vn -0.0010 0.9833 0.1817
vn -0.0018 0.9982 -0.0607
vn 0.0144 -0.1282 0.9916
vn 0.0144 0.1283 0.9916
vn -0.0144 -0.1282 0.9916
vn -0.2299 0.1419 0.9628
vn 0.1227 0.0343 0.9919
vn -0.1227 -0.0343 0.9919
vn -0.1153 0.9933 -0.0000
vn -0.0000 0.9948 -0.1015
vn 0.9905 -0.1372 -0.0000
vn -0.1016 0.9948 -0.0000
vn -0.0631 0.9980 -0.0080
vn 0.9891 -0.1366 0.0554
vn 0.9907 -0.1364 -0.0000
vn -0.9905 0.1372 -0.0000
vn -0.9883 0.0862 0.1259
vn 0.1016 -0.9948 -0.0000
vn -0.9907 0.1363 -0.0000
vn 0.1015 0.9948 -0.0000
vn -0.1141 0.9935 -0.0000
vn -0.1452 0.9894 0.0044
vn 0.0004 0.3188 0.9478
vn 0.0026 0.3182 0.9480
vn -0.0055 -0.7099 -0.7043
vn 0.0056 -0.7099 -0.7043
vn 0.4891 -0.8722 -0.0000
vn -0.9659 0.2587 -0.0000
vn -0.9494 0.3050 0.0747
vn -0.6663 0.7454 0.0218
vn -0.6807 0.6808 -0.2706
vn -0.8486 0.5220 0.0863
vn -0.7071 0.7072 -0.0000
vn -0.5488 0.8356 0.0227
vn -0.2588 0.9659 -0.0000
vn -0.8685 0.4958 -0.0000
vn -0.7072 0.7070 -0.0000
vn -0.0061 0.8029 0.5960
vn -0.0128 0.4379 0.8989
vn 0.0128 0.4379 0.8990
vn 0.0128 0.4376 0.8991
vn -0.4124 0.9104 -0.0325
vn -0.4892 0.8722 -0.0000
vn 0.8630 -0.5052 -0.0000
vn 0.6807 -0.6808 -0.2705
vn 0.8485 -0.5221 0.0863
vn -0.0077 0.9143 -0.4050
vn -0.0109 0.5574 -0.8302
vn 0.0109 0.5574 -0.8302
vn -0.0206 0.0362 0.9991
vn -0.0095 -0.2612 0.9652
vn 0.0095 -0.2612 0.9652
vn -0.0178 -0.7159 0.6980
vn 0.0178 -0.7159 0.6980
vn -0.5059 0.8626 -0.0000
vn 0.9625 -0.2684 0.0385
vn 0.9659 -0.2589 -0.0000
vn -0.6297 0.7746 -0.0586
vn -0.7071 0.7071 -0.0000
vn -0.8051 0.3446 0.4829
vn -0.8622 0.1776 0.4744
vn -0.4828 0.3445 0.8051
vn -0.4951 0.1813 0.8497
vn -0.3436 0.8695 0.3548
vn -0.7151 0.6722 0.1916
vn 0.5236 -0.8044 -0.2807
vn 0.2806 -0.8044 -0.5237
vn -0.2806 -0.8044 -0.5237
vn 0.5254 0.8024 0.2829
vn 0.5013 0.7053 0.5013
vn 0.4827 0.3447 0.8051
vn 0.4744 0.1777 0.8622
vn 0.8623 0.1738 0.4756
vn 0.8051 0.3445 0.4828
vn -0.2037 0.9086 0.3646
vn -0.0445 0.9952 0.0876
vn -0.3667 0.9075 0.2051
vn -0.0860 0.9952 0.0472
vn -0.2038 0.9087 0.3644
vn -0.0446 0.9952 0.0876
vn -0.3141 0.8097 0.4958
vn -0.4956 0.8097 0.3142
vn -0.3143 0.8097 0.4956
vn 0.3141 0.8097 0.4956
vn 0.4956 0.8097 0.3142
vn 0.4579 0.3426 0.8204
vn 0.4985 0.1811 0.8478
vn 0.8203 0.3426 0.4579
vn 0.8477 0.1812 0.4986
vn 0.4581 0.3426 0.8202
vn 0.4987 0.1813 0.8476
vn -0.1854 0.9323 -0.3106
vn -0.0366 0.9976 -0.0582
vn -0.3083 0.9332 -0.1848
vn -0.0550 0.9978 -0.0368
vn -0.2806 0.8043 -0.5238
vn 0.1643 -0.8380 0.5204
vn 0.5255 -0.8024 0.2830
vn 0.6914 -0.5993 0.4035
vn 0.5014 -0.7052 0.5014
vn 0.2806 0.8043 -0.5238
vn 0.5237 0.8043 -0.2807
vn 0.2808 0.8043 -0.5236
vn -0.0858 0.9952 0.0471
vn 0.0549 0.9978 -0.0368
vn -0.4829 -0.3445 0.8051
vn -0.4744 -0.1776 0.8622
vn -0.8623 -0.1739 0.4757
vn -0.8051 -0.3446 0.4827
vn 0.8478 -0.1812 0.4984
vn 0.8476 0.1812 0.4987
vn 0.4986 -0.1812 0.8477
vn 0.8476 -0.1812 0.4987
vn 0.8203 -0.3426 0.4579
vn 0.4580 -0.3425 0.8203
vn 0.8202 -0.3426 0.4581
vn -0.4560 0.8815 -0.1222
vn 0.4955 -0.8098 0.3142
vn 0.3141 -0.8098 0.4956
vn -0.0550 -0.9978 -0.0368
vn -0.3142 -0.8098 0.4956
vn -0.4956 -0.8098 0.3141
vn -0.4580 -0.3425 0.8203
vn -0.4986 -0.1812 0.8477
vn -0.8203 -0.3426 0.4579
vn -0.8477 -0.1812 0.4986
vn -0.0001 -0.0000 1.0000
vn -0.0005 -0.0000 1.0000
vn -0.0000 -0.0000 1.0000
vn 0.0001 -0.0000 1.0000
vn 0.0002 -0.0000 1.0000
vn -0.0010 0.0001 1.0000
s 1
usemtl M_polySurface208_lambert1_0_0
f 1//1 2//2 3//3
f 1//1 3//3 4//4
f 2//2 5//5 6//6
f 2//2 6//6 3//3
f 5//5 7//7 8//8
f 5//5 8//8 6//6
f 9//9 10//10 11//11
f 9//9 11//11 12//12
f 13//13 15//14 14//15
f 13//13 16//16 15//14
f 14//15 18//17 17//18
f 14//15 15//14 18//17
f 19//19 20//20 21//21
f 19//19 21//21 22//22
f 20//20 23//23 24//24
f 20//20 24//24 21//21
f 23//23 25//25 26//26
f 23//23 26//26 24//24
f 27//27 28//28 29//29
f 27//27 29//29 30//30
f 28//28 31//31 32//32
f 28//28 32//32 29//29
f 31//31 33//33 34//34
f 31//31 34//34 32//32
f 35//35 37//36 36//37
f 35//35 38//38 37//36
f 36//37 40//39 39//40
f 36//37 37//36 40//39
f 39//40 42//41 41//42
f 39//40 40//39 42//41
f 43//43 44//44 45//45
f 43//43 45//45 46//46
f 47//47 48//48 49//49
f 47//47 49//49 50//50
f 48//48 51//51 52//52
f 48//48 52//52 49//49
f 53//53 55//54 54//55
f 53//53 56//56 55//54
f 57//57 58//58 59//59
f 57//57 59//59 60//60
f 58//58 61//61 62//62
f 58//58 62//62 59//59
f 63//63 64//64 65//65
f 63//63 65//65 66//66
f 64//64 67//67 68//68
f 64//64 68//68 65//65
f 67//67 69//69 70//70
f 67//67 70//70 68//68
f 18//17 71//71 17//18
f 18//17 72//72 71//71
f 17//18 74//73 73//74
f 17//18 71//71 74//73
f 75//75 77//76 76//77
f 75//75 78//78 77//76
f 34//34 33//33 79//79
f 34//34 79//79 80//80
f 33//33 81//81 82//82
f 33//33 82//82 83//83
f 81//81 84//84 85//85
f 81//81 85//85 82//82
f 52//52 51//51 86//79
f 52//52 86//79 87//86
f 51//51 88//87 89//88
f 51//51 89//88 90//88
f 91//89 93//90 92//91
f 91//89 94//92 93//90
f 70//70 69//69 95//93
f 70//70 95//93 96//94
f 69//69 97//95 98//96
f 69//69 98//96 99//97
f 100//98 101//99 102//100
f 100//98 102//100 98//101
f 103//102 30//30 104//103
f 103//102 104//103 46//46
f 8//8 12//12 62//62
f 8//8 62//62 66//66
f 105//104 106//105 22//22
f 105//104 22//22 107//106
f 38//38 109//107 108//108
f 38//38 110//109 109//107
f 18//17 112//110 111//111
f 18//17 56//56 112//110
f 76//77 113//112 42//41
f 76//77 77//76 113//112
f 34//34 80//80 114//113
f 34//34 114//113 115//114
f 116//115 117//116 85//85
f 116//115 85//85 84//84
f 92//91 119//117 118//118
f 92//91 93//90 119//117
f 70//70 96//94 120//119
f 70//70 120//119 4//4
f 26//26 121//120 102//100
f 26//26 102//100 101//99
f 52//52 122//121 123//122
f 52//52 123//122 124//123
f 9//9 12//12 8//8
f 9//9 8//8 7//7
f 108//108 126//124 125//125
f 108//108 109//107 126//124
f 127//126 9//9 7//7
f 127//126 7//7 128//127
f 1//1 4//4 120//119
f 1//1 120//119 129//128
f 118//118 131//129 130//130
f 118//118 119//117 131//129
f 132//131 129//132 133//133
f 132//131 134//134 129//132
f 135//135 124//123 123//122
f 135//135 123//122 136//136
f 26//26 25//25 137//137
f 26//26 137//137 121//120
f 25//25 135//135 138//138
f 25//25 138//138 137//137
f 103//102 139//139 27//27
f 103//102 27//27 30//30
f 139//139 140//140 141//141
f 139//139 141//141 27//27
f 19//19 22//22 106//105
f 19//19 106//105 142//142
f 143//143 115//114 114//113
f 143//143 114//113 144//144
f 42//41 145//145 41//42
f 42//41 113//112 145//145
f 41//42 144//146 146//147
f 41//42 145//145 144//146
f 104//103 147//148 43//43
f 104//103 43//43 46//46
f 147//148 148//149 149//150
f 147//148 149//150 43//43
f 35//35 110//109 38//38
f 35//35 150//151 110//109
f 63//63 66//66 62//62
f 63//63 62//62 61//61
f 107//106 151//152 152//153
f 107//106 152//153 105//104
f 153//154 63//63 61//61
f 153//154 61//61 154//155
f 53//53 112//110 56//56
f 53//53 155//156 112//110
f 116//115 156//157 157//158
f 116//115 157//158 117//116
f 158//159 155//156 53//53
f 158//159 159//160 155//156
f 118//118 161//161 160//162
f 118//118 130//130 161//161
f 160//162 163//163 162//164
f 160//162 161//161 163//163
f 162//164 126//124 109//107
f 162//164 163//163 126//124
f 132//131 165//165 164//166
f 132//131 133//133 165//165
f 166//167 167//168 5//5
f 166//167 5//5 2//2
f 167//168 128//127 7//7
f 167//168 7//7 5//5
f 10//10 9//9 127//126
f 10//10 127//126 168//169
f 17//18 169//170 14//15
f 17//18 73//74 169//170
f 14//15 170//171 13//13
f 14//15 169//170 170//171
f 171//172 108//108 125//125
f 171//172 172//173 108//108
f 75//75 174//174 173//175
f 75//75 76//77 174//174
f 173//175 172//173 171//172
f 173//175 174//174 172//173
f 175//176 139//139 103//102
f 175//176 103//102 176//177
f 135//135 177//178 178//179
f 135//135 178//179 124//123
f 177//178 179//180 180//181
f 177//178 180//181 178//179
f 139//139 175//176 181//182
f 139//139 181//182 140//140
f 179//180 177//178 182//183
f 179//180 182//183 183//184
f 177//178 135//135 25//25
f 177//178 25//25 182//183
f 28//28 27//27 141//141
f 28//28 141//141 184//185
f 33//33 31//31 185//186
f 33//33 185//186 81//81
f 31//31 28//28 184//185
f 31//31 184//185 185//186
f 186//187 142//142 106//105
f 186//187 106//105 187//188
f 81//81 188//189 189//190
f 81//81 189//190 84//84
f 188//189 190//191 191//192
f 188//189 191//192 189//190
f 192//193 147//148 104//103
f 192//193 104//103 193//194
f 143//143 194//195 195//196
f 143//143 195//196 115//114
f 194//195 192//193 193//194
f 194//195 193//194 195//196
f 30//30 29//29 193//194
f 30//30 193//194 104//103
f 29//29 32//32 195//196
f 29//29 195//196 193//194
f 32//32 34//34 115//114
f 32//32 115//114 195//196
f 147//148 192//193 196//197
f 147//148 196//197 148//149
f 197//198 199//199 198//200
f 197//198 200//201 199//199
f 198//200 41//42 146//147
f 198//200 199//199 41//42
f 76//77 40//39 174//174
f 76//77 42//41 40//39
f 174//174 37//36 172//173
f 174//174 40//39 37//36
f 172//173 38//38 108//108
f 172//173 37//36 38//38
f 44//44 43//43 149//150
f 44//44 149//150 201//202
f 51//51 48//48 202//203
f 51//51 202//203 88//87
f 48//48 47//47 203//204
f 48//48 203//204 202//203
f 124//123 178//179 49//49
f 124//123 49//49 52//52
f 204//205 176//177 45//45
f 204//205 45//45 205//206
f 176//177 103//102 46//46
f 176//177 46//46 45//45
f 206//207 110//109 150//151
f 206//207 207//208 110//109
f 91//89 209//209 208//210
f 91//89 92//91 209//209
f 208//210 207//208 206//207
f 208//210 209//209 207//208
f 109//107 207//208 162//164
f 109//107 110//109 207//208
f 162//164 209//209 160//162
f 162//164 207//208 209//209
f 160//162 92//91 118//118
f 160//162 209//209 92//91
f 84//84 189//190 210//211
f 84//84 210//211 116//115
f 211//212 187//188 212//213
f 211//212 212//213 213//214
f 187//188 106//105 105//104
f 187//188 105//104 212//213
f 116//115 210//211 214//215
f 116//115 214//215 156//157
f 213//214 212//213 215//216
f 213//214 215//216 216//217
f 212//213 105//104 152//153
f 212//213 152//153 215//216
f 158//159 54//55 217//218
f 158//159 53//53 54//55
f 217//219 218//220 58//58
f 217//219 58//58 57//57
f 218//220 154//155 61//61
f 218//220 61//61 58//58
f 12//12 11//11 59//59
f 12//12 59//59 62//62
f 11//11 219//221 60//60
f 11//11 60//60 59//59
f 15//14 56//56 18//17
f 15//14 55//54 56//56
f 64//64 63//63 153//154
f 64//64 153//154 220//222
f 69//69 67//67 221//223
f 69//69 221//223 97//95
f 67//67 64//64 220//222
f 67//67 220//222 221//223
f 4//4 3//3 68//68
f 4//4 68//68 70//70
f 3//3 6//6 65//65
f 3//3 65//65 68//68
f 6//6 8//8 66//66
f 6//6 66//66 65//65
f 222//224 151//152 107//106
f 222//224 107//106 223//225
f 100//98 224//226 225//227
f 100//98 225//227 101//99
f 224//226 222//224 223//225
f 224//226 223//225 225//227
f 22//22 21//21 223//225
f 22//22 223//225 107//106
f 21//21 24//24 225//227
f 21//21 225//227 223//225
f 24//24 26//26 101//99
f 24//24 101//99 225//227
f 236//228 235//229 234//230
f 234//230 233//231 236//228
f 233//231 237//228 236//228
f 233//231 232//230 237//228
f 232//230 238//230 237//228
f 232//230 231//230 238//230
f 231//230 239//230 238//230
f 231//230 230//230 239//230
f 230//230 240//230 239//230
f 230//230 229//231 240//230
f 229//231 241//230 240//230
f 229//231 228//228 241//230
f 228//228 226//232 241//230
f 228//228 227//230 226//232
f 256//228 255//233 254//230
f 254//230 253//231 256//228
f 253//231 257//228 256//228
f 253//231 252//230 257//228
f 252//230 242//230 257//228
f 252//230 251//230 242//230
f 251//230 243//230 242//230
f 251//230 250//230 243//230
f 250//230 244//230 243//230
f 250//230 249//231 244//230
f 249//231 245//230 244//230
f 249//231 248//228 245//230
f 248//228 246//232 245//230
f 248//228 247//230 246//232
