# Blender 4.4.1
# www.blender.org
mtllib SM_polySurface163_lambert1_0_0.mtl
o SM_polySurface163_lambert1_0_0
v 3.258070 5.948735 -4.752644
v 4.376647 5.948735 -4.752644
v 4.376647 11.026888 -4.752644
v 3.258070 11.026888 -4.752644
v 3.258070 11.026888 -4.752644
v 4.376647 11.026888 -4.752644
v 4.376647 11.026888 -5.087727
v 3.258070 11.026888 -5.087727
v 3.258070 11.026888 -5.087727
v 4.376647 11.026888 -5.087727
v 4.376647 5.948735 -5.087727
v 3.258070 5.948735 -5.087727
v 3.258070 5.948735 -5.087727
v 4.376647 5.948735 -5.087727
v 4.376647 5.948735 -4.752644
v 3.258070 5.948735 -4.752644
v 4.376647 5.948735 -4.752644
v 4.376647 5.948735 -5.087727
v 4.376647 11.026888 -5.087727
v 4.376647 11.026888 -4.752644
v 3.258070 5.948735 -5.087727
v 3.258070 5.948735 -4.752644
v 3.258070 11.026888 -4.752644
v 3.258070 11.026888 -5.087727
vn -0.0000 -0.0000 -1.0000
vn -0.0000 1.0000 -0.0000
vn 1.0000 -0.0000 -0.0000
s 1
usemtl M_polySurface163_lambert1_0_0
f 1//1 3//1 2//1
f 1//1 4//1 3//1
f 5//2 6//2 7//2
f 5//2 7//2 8//2
f 9//1 10//1 11//1
f 9//1 11//1 12//1
f 13//2 15//2 14//2
f 13//2 16//2 15//2
f 17//3 18//3 19//3
f 17//3 19//3 20//3
f 21//3 23//3 22//3
f 21//3 24//3 23//3
