# Blender 4.4.1
# www.blender.org
mtllib SM_polySurface480_lambert1_0_0.mtl
o SM_polySurface480_lambert1_0_0
v 4.178891 4.826484 6.364867
v 4.188406 4.826484 6.408391
v 4.177664 4.823552 6.422587
v 4.167949 4.823552 6.379850
v 4.214404 4.826484 6.440252
v 4.204208 4.823552 6.453873
v 4.249917 4.826484 6.451914
v 4.240467 4.823552 6.465324
v 4.875887 4.826484 6.451914
v 4.911400 4.826484 6.440252
v 4.921596 4.823552 6.453873
v 4.885337 4.823552 6.465324
v 4.911400 4.826484 6.440252
v 4.937397 4.826484 6.408391
v 4.948138 4.823552 6.422586
v 4.921596 4.823552 6.453873
v 4.946914 4.826484 6.364868
v 4.957853 4.823552 6.379849
v 4.204090 4.866647 6.505883
v 4.168577 4.866647 6.494221
v 4.165645 4.855706 6.497815
v 4.201157 4.855706 6.509476
v 4.142580 4.866647 6.462359
v 4.139647 4.855706 6.465952
v 4.133064 4.866647 6.418836
v 4.130133 4.855706 6.422429
v 4.913704 4.874658 6.496067
v 4.949217 4.874658 6.484404
v 4.937530 4.877589 6.471205
v 4.901270 4.877589 6.482656
v 4.975214 4.874658 6.452543
v 4.964073 4.877589 6.439920
v 4.984730 4.874658 6.409019
v 4.973789 4.877589 6.397183
v 4.867878 4.866647 6.442097
v 4.903391 4.866647 6.430435
v 4.900458 4.855706 6.426841
v 4.864946 4.855706 6.438504
v 4.929387 4.866647 6.398573
v 4.926456 4.855706 6.394980
v 4.938902 4.866647 6.355049
v 4.935971 4.855706 6.351456
v 4.249917 4.874658 6.451914
v 4.214404 4.874658 6.440252
v 4.204208 4.877589 6.453873
v 4.240467 4.877589 6.465324
v 4.214404 4.874658 6.440252
v 4.188406 4.874658 6.408391
v 4.177664 4.877589 6.422587
v 4.204208 4.877589 6.453873
v 4.178891 4.874658 6.364867
v 4.167949 4.877589 6.379850
v 4.984730 4.826484 6.409019
v 4.975214 4.826484 6.452543
v 4.964073 4.823552 6.439920
v 4.973789 4.823552 6.397183
v 4.975214 4.826484 6.452543
v 4.949217 4.826484 6.484404
v 4.937530 4.823552 6.471205
v 4.964073 4.823552 6.439920
v 4.913704 4.826484 6.496067
v 4.901270 4.823552 6.482656
v 4.212097 4.826484 6.496067
v 4.176585 4.826484 6.484404
v 4.188274 4.823552 6.471205
v 4.224535 4.823552 6.482656
v 4.150589 4.826484 6.452541
v 4.161732 4.823552 6.439920
v 4.141073 4.826484 6.409017
v 4.152016 4.823552 6.397184
v 4.946914 4.826484 6.231226
v 4.957853 4.823552 6.231226
v 4.938902 4.834493 6.355049
v 4.938902 4.834493 6.231226
v 4.938902 4.834493 6.355049
v 4.935971 4.845435 6.351456
v 4.935971 4.845435 6.231226
v 4.938902 4.834493 6.231226
v 4.984730 4.874658 6.231226
v 4.973789 4.877589 6.231226
v 4.992739 4.866647 6.418836
v 4.992739 4.866647 6.231226
v 4.984730 4.874658 6.231226
v 4.995672 4.855706 6.422429
v 4.995672 4.855706 6.231226
v 4.178891 4.874658 6.231226
v 4.167949 4.877589 6.231226
v 4.186901 4.866647 6.355049
v 4.186901 4.866647 6.231226
v 4.178891 4.874658 6.231226
v 4.186901 4.866647 6.355049
v 4.189832 4.855706 6.351456
v 4.189832 4.855706 6.231226
v 4.186901 4.866647 6.231226
v 4.141073 4.826484 6.231226
v 4.152016 4.823552 6.231226
v 4.133064 4.834493 6.418836
v 4.133064 4.834493 6.231226
v 4.141073 4.826484 6.231226
v 4.133064 4.834493 6.418836
v 4.130133 4.845435 6.422429
v 4.130133 4.845435 6.231226
v 4.224535 4.877589 6.482656
v 4.885337 4.877589 6.465324
v 4.924646 4.845435 6.509476
v 4.924646 4.855706 6.509476
v 4.201157 4.845435 6.509476
v 4.864946 4.845435 6.438504
v 4.260858 4.845435 6.438504
v 4.260858 4.855706 6.438504
v 4.957853 4.823552 6.231226
v 4.973789 4.823552 6.231226
v 4.935971 4.855706 6.231226
v 4.957853 4.877589 6.231226
v 4.957853 4.877589 6.379849
v 4.995672 4.845435 6.422429
v 4.995672 4.845435 6.231226
v 4.189832 4.845435 6.351456
v 4.189832 4.845435 6.231226
v 4.167949 4.823552 6.231226
v 4.130133 4.855706 6.231226
v 4.167949 4.877589 6.231226
v 4.152016 4.877589 6.231226
v 4.152016 4.877589 6.397184
v 4.867878 4.834493 6.442097
v 4.257925 4.834493 6.442097
v 4.867878 4.834493 6.442097
v 4.257925 4.834493 6.442097
v 4.178891 4.826484 6.231226
v 4.186901 4.834493 6.355049
v 4.186901 4.834493 6.231226
v 4.186901 4.834493 6.355049
v 4.178891 4.826484 6.364867
v 4.186901 4.834493 6.231226
v 4.141073 4.874658 6.409017
v 4.141073 4.874658 6.231226
v 4.133064 4.866647 6.231226
v 4.141073 4.874658 6.231226
v 4.212097 4.874658 6.496067
v 4.204090 4.866647 6.505883
v 4.921714 4.866647 6.505883
v 4.921714 4.866647 6.505883
v 4.946914 4.874658 6.364868
v 4.946914 4.874658 6.231226
v 4.938902 4.866647 6.231226
v 4.946914 4.874658 6.364868
v 4.875887 4.874658 6.451914
v 4.867878 4.866647 6.442097
v 4.257925 4.866647 6.442097
v 4.257925 4.866647 6.442097
v 4.204090 4.834493 6.505883
v 4.921714 4.834493 6.505883
v 4.204090 4.834493 6.505883
v 4.921714 4.834493 6.505883
v 4.984730 4.826484 6.231226
v 4.992739 4.834493 6.418836
v 4.992739 4.834493 6.231226
v 4.992739 4.834493 6.418836
v 4.992739 4.834493 6.231226
v 4.199347 4.845435 6.394980
v 4.196416 4.834493 6.398573
v 4.225344 4.845435 6.426841
v 4.222414 4.834493 6.430435
v 4.196416 4.834493 6.398573
v 4.188406 4.826484 6.408391
v 4.196416 4.834493 6.398573
v 4.222414 4.834493 6.430435
v 4.903391 4.834493 6.430435
v 4.929387 4.834493 6.398573
v 4.903391 4.834493 6.430435
v 4.903391 4.834493 6.430435
v 4.900458 4.845435 6.426841
v 4.929387 4.834493 6.398573
v 4.926456 4.845435 6.394980
v 4.176585 4.874658 6.484404
v 4.188274 4.877589 6.471205
v 4.150589 4.874658 6.452541
v 4.161732 4.877589 6.439920
v 4.176585 4.874658 6.484404
v 4.188274 4.877589 6.471205
v 4.168577 4.866647 6.494221
v 4.142580 4.866647 6.462359
v 4.168577 4.866647 6.494221
v 4.957227 4.866647 6.494221
v 4.983224 4.866647 6.462359
v 4.957227 4.866647 6.494221
v 4.960159 4.855706 6.497815
v 4.983224 4.866647 6.462359
v 4.986156 4.855706 6.465952
v 4.957227 4.866647 6.494221
v 4.960159 4.855706 6.497815
v 4.911400 4.874658 6.440252
v 4.921596 4.877589 6.453873
v 4.937397 4.874658 6.408391
v 4.948138 4.877589 6.422586
v 4.903391 4.866647 6.430435
v 4.911400 4.874658 6.440252
v 4.937397 4.874658 6.408391
v 4.929387 4.866647 6.398573
v 4.903391 4.866647 6.430435
v 4.222414 4.866647 6.430435
v 4.196416 4.866647 6.398573
v 4.222414 4.866647 6.430435
v 4.161732 4.877589 6.439920
v 4.177664 4.877589 6.422587
v 4.222414 4.866647 6.430435
v 4.225344 4.855706 6.426841
v 4.196416 4.866647 6.398573
v 4.199347 4.855706 6.394980
v 4.986156 4.845435 6.465952
v 4.986156 4.855706 6.465952
v 4.960159 4.845435 6.497815
v 4.986156 4.845435 6.465952
v 4.983224 4.834493 6.462359
v 4.957227 4.834493 6.494221
v 4.983224 4.834493 6.462359
v 4.983224 4.834493 6.462359
v 4.957227 4.834493 6.494221
v 4.948138 4.823552 6.422586
v 4.168577 4.834493 6.494221
v 4.142580 4.834493 6.462359
v 4.168577 4.834493 6.494221
v 4.165645 4.845435 6.497815
v 4.142580 4.834493 6.462359
v 4.139647 4.845435 6.465952
v 4.995672 4.855706 6.231226
v 4.995672 4.845435 6.231226
v 4.992739 4.834493 6.231226
v 4.984730 4.826484 6.231226
v 4.973789 4.823552 6.231226
v 4.957853 4.823552 6.231226
v 4.946914 4.826484 6.231226
v 4.938902 4.834493 6.231226
v 4.935971 4.845435 6.231226
v 4.935971 4.855706 6.231226
v 4.938902 4.866647 6.231226
v 4.946914 4.874658 6.231226
v 4.957853 4.877589 6.231226
v 4.973789 4.877589 6.231226
v 4.984730 4.874658 6.231226
v 4.992739 4.866647 6.231226
v 4.152016 4.877589 6.231226
v 4.167949 4.877589 6.231226
v 4.178891 4.874658 6.231226
v 4.186901 4.866647 6.231226
v 4.189832 4.855706 6.231226
v 4.189832 4.845435 6.231226
v 4.186901 4.834493 6.231226
v 4.178891 4.826484 6.231226
v 4.167949 4.823552 6.231226
v 4.152016 4.823552 6.231226
v 4.141073 4.826484 6.231226
v 4.133064 4.834493 6.231226
v 4.130133 4.845435 6.231226
v 4.130133 4.855706 6.231226
v 4.133064 4.866647 6.231226
v 4.141073 4.874658 6.231226
vn 0.4072 -0.9129 -0.0274
vn 0.3109 -0.9375 -0.1560
vn 0.0551 -0.9980 -0.0323
vn 0.0602 -0.9982 -0.0070
vn 0.1831 -0.9491 -0.2561
vn 0.0338 -0.9983 -0.0474
vn 0.0078 -0.9379 -0.3469
vn 0.0017 -0.9985 -0.0543
vn -0.0078 -0.9379 -0.3469
vn -0.1831 -0.9491 -0.2562
vn -0.0338 -0.9983 -0.0474
vn -0.0017 -0.9985 -0.0543
vn -0.1831 -0.9491 -0.2561
vn -0.3110 -0.9375 -0.1560
vn -0.0552 -0.9980 -0.0324
vn -0.0339 -0.9983 -0.0475
vn -0.4073 -0.9129 -0.0274
vn -0.0602 -0.9982 -0.0070
vn -0.0145 0.5171 0.8558
vn -0.5279 0.3894 0.7547
vn -0.5677 0.2062 0.7970
vn -0.0173 0.1566 0.9875
vn -0.8552 0.3536 0.3789
vn -0.8826 0.1904 0.4299
vn -0.8831 0.4674 0.0407
vn -0.9897 0.1355 0.0466
vn 0.0066 0.8612 0.5083
vn 0.2139 0.9278 0.3056
vn 0.0476 0.9963 0.0718
vn 0.0011 0.9897 0.1428
vn 0.3679 0.9153 0.1638
vn 0.0858 0.9957 0.0360
vn 0.5557 0.8312 0.0177
vn 0.1492 0.9888 0.0031
vn 0.0286 0.0357 0.9990
vn 0.5448 -0.1863 0.8176
vn 0.5399 -0.3888 0.7466
vn 0.1843 -0.0456 0.9818
vn 0.8870 -0.1753 0.4272
vn 0.8330 -0.3628 0.4178
vn 0.9894 -0.0977 0.1074
vn 0.8187 -0.5624 0.1154
vn 0.0078 0.9378 -0.3470
vn 0.1830 0.9491 -0.2562
vn 0.0338 0.9983 -0.0474
vn 0.0017 0.9985 -0.0543
vn 0.1831 0.9491 -0.2561
vn 0.3109 0.9375 -0.1560
vn 0.0551 0.9980 -0.0324
vn 0.0339 0.9983 -0.0475
vn 0.4073 0.9129 -0.0274
vn 0.0602 0.9982 -0.0070
vn 0.5557 -0.8312 0.0177
vn 0.3680 -0.9153 0.1637
vn 0.0858 -0.9957 0.0360
vn 0.1492 -0.9888 0.0031
vn 0.3678 -0.9154 0.1639
vn 0.2139 -0.9279 0.3055
vn 0.0476 -0.9963 0.0718
vn 0.0857 -0.9957 0.0360
vn 0.0066 -0.8612 0.5082
vn 0.0012 -0.9898 0.1428
vn -0.0066 -0.8612 0.5082
vn -0.2139 -0.9279 0.3055
vn -0.0476 -0.9963 0.0718
vn -0.0011 -0.9897 0.1428
vn -0.3679 -0.9153 0.1638
vn -0.0858 -0.9957 0.0360
vn -0.5557 -0.8312 0.0177
vn -0.1491 -0.9888 0.0031
vn -0.4893 -0.8721 -0.0000
vn -0.1017 -0.9948 -0.0000
vn -0.6946 -0.7192 -0.0199
vn -0.7070 -0.7072 -0.0000
vn 0.9491 0.3084 0.0645
vn 0.9905 0.1372 -0.0000
vn 0.9791 0.1884 0.0766
vn 0.9660 0.2587 -0.0000
vn 0.2588 0.9659 -0.0000
vn 0.1141 0.9935 -0.0000
vn 0.8830 0.4675 0.0407
vn 0.8684 0.4958 -0.0000
vn 0.7072 0.7070 -0.0000
vn 0.9897 0.1356 0.0467
vn 0.9907 0.1363 -0.0000
vn 0.1017 0.9948 -0.0000
vn 0.6947 0.7190 -0.0199
vn 0.7071 0.7071 -0.0000
vn -0.9491 -0.3084 0.0645
vn -0.9905 -0.1372 -0.0000
vn -0.9791 -0.1884 0.0766
vn -0.9659 -0.2587 -0.0000
vn -0.2588 -0.9659 -0.0000
vn -0.1141 -0.9935 -0.0000
vn -0.8830 -0.4675 0.0407
vn -0.8684 -0.4959 0.0002
vn -0.7071 -0.7071 -0.0000
vn -0.8832 -0.4673 0.0407
vn -0.9897 -0.1355 0.0466
vn -0.9907 -0.1363 -0.0000
vn -0.8685 -0.4957 -0.0000
vn -0.0012 0.9897 0.1428
vn -0.0017 0.9985 -0.0543
vn 0.0173 -0.1566 0.9875
vn 0.0174 0.1566 0.9875
vn -0.0174 -0.1566 0.9875
vn -0.2786 0.1707 0.9451
vn 0.1500 0.0408 0.9878
vn -0.1500 -0.0408 0.9878
vn -0.1015 -0.9948 -0.0000
vn 0.1141 -0.9935 -0.0000
vn 0.9905 -0.1372 -0.0000
vn -0.1016 0.9948 -0.0000
vn -0.0602 0.9982 -0.0070
vn 0.9897 -0.1356 0.0466
vn 0.9907 -0.1364 -0.0000
vn -0.9905 0.1372 -0.0000
vn -0.9899 0.0971 0.1036
vn 0.1016 -0.9948 -0.0000
vn -0.9907 0.1363 -0.0000
vn 0.1015 0.9948 -0.0000
vn -0.1141 0.9935 -0.0000
vn -0.1492 0.9888 0.0031
vn 0.0052 0.3750 0.9270
vn -0.0010 0.3744 0.9273
vn -0.0068 -0.7776 -0.6288
vn 0.0068 -0.7776 -0.6288
vn 0.4891 -0.8722 -0.0000
vn -0.9660 0.2587 -0.0000
vn -0.9491 0.3081 0.0654
vn -0.6691 0.7430 0.0154
vn -0.6807 0.6808 -0.2706
vn -0.8442 0.5312 0.0719
vn -0.7071 0.7072 -0.0000
vn -0.5557 0.8312 0.0177
vn -0.2588 0.9659 -0.0000
vn -0.8684 0.4958 -0.0000
vn -0.7072 0.7070 -0.0000
vn -0.0066 0.8612 0.5083
vn -0.0145 0.5172 0.8557
vn 0.0145 0.5172 0.8558
vn 0.0146 0.5170 0.8558
vn -0.4072 0.9129 -0.0274
vn -0.4892 0.8722 -0.0000
vn 0.8630 -0.5052 -0.0000
vn 0.6807 -0.6808 -0.2704
vn 0.8441 -0.5314 0.0719
vn -0.0078 0.9378 -0.3470
vn -0.0128 0.6333 -0.7738
vn 0.0128 0.6333 -0.7738
vn -0.0321 0.0262 0.9991
vn -0.0118 -0.3148 0.9491
vn 0.0117 -0.3148 0.9491
vn -0.0176 -0.7817 0.6234
vn 0.0176 -0.7817 0.6234
vn 0.5071 -0.8619 -0.0000
vn 0.9630 -0.2678 0.0294
vn 0.9659 -0.2589 -0.0000
vn 0.6718 -0.7387 0.0546
vn 0.7071 -0.7071 -0.0000
vn -0.8329 0.3630 0.4177
vn -0.8949 0.1926 0.4025
vn -0.5399 0.3885 0.7467
vn -0.5614 0.2225 0.7971
vn -0.3418 0.8862 0.3127
vn -0.7006 0.6969 0.1531
vn 0.5391 -0.8123 -0.2228
vn 0.3044 -0.8445 -0.4406
vn -0.3044 -0.8445 -0.4407
vn -0.5392 -0.8122 -0.2226
vn -0.3046 -0.8445 -0.4405
vn 0.5399 0.3887 0.7466
vn 0.5395 0.1906 0.8201
vn 0.8963 0.1887 0.4013
vn 0.8330 0.3628 0.4178
vn -0.2138 0.9278 0.3057
vn -0.0476 0.9963 0.0718
vn -0.3679 0.9153 0.1638
vn -0.0857 0.9957 0.0360
vn -0.2140 0.9278 0.3055
vn -0.3154 0.8449 0.4321
vn -0.4933 0.8263 0.2718
vn -0.3157 0.8449 0.4319
vn 0.3155 0.8449 0.4320
vn 0.4933 0.8263 0.2717
vn 0.5278 0.3894 0.7548
vn 0.5676 0.2061 0.7971
vn 0.8552 0.3537 0.3789
vn 0.8826 0.1904 0.4299
vn 0.5281 0.3894 0.7547
vn 0.5678 0.2063 0.7969
vn -0.1831 0.9491 -0.2562
vn -0.0338 0.9983 -0.0474
vn -0.3108 0.9376 -0.1560
vn -0.0551 0.9980 -0.0323
vn -0.3044 0.8444 -0.4408
vn 0.1700 -0.8766 0.4503
vn 0.5417 -0.8100 0.2246
vn 0.6905 -0.6407 0.3358
vn 0.5136 -0.7487 0.4191
vn 0.3044 0.8445 -0.4407
vn 0.5393 0.8122 -0.2227
vn 0.3046 0.8445 -0.4406
vn 0.0551 0.9980 -0.0323
vn -0.5399 -0.3886 0.7466
vn -0.5395 -0.1906 0.8201
vn -0.8963 -0.1888 0.4014
vn -0.8329 -0.3630 0.4178
vn 0.8826 -0.1904 0.4298
vn 0.8825 0.1904 0.4300
vn 0.5677 -0.2062 0.7970
vn 0.8825 -0.1904 0.4301
vn 0.8553 -0.3536 0.3787
vn 0.5279 -0.3894 0.7548
vn 0.8552 -0.3537 0.3790
vn 0.4934 -0.8263 0.2716
vn 0.4932 -0.8264 0.2718
vn 0.3155 -0.8449 0.4319
vn -0.0551 -0.9980 -0.0323
vn -0.3155 -0.8449 0.4319
vn -0.4933 -0.8263 0.2717
vn -0.5280 -0.3894 0.7548
vn -0.5677 -0.2062 0.7970
vn -0.8552 -0.3536 0.3789
vn -0.8826 -0.1904 0.4299
vn -0.0001 -0.0000 1.0000
vn 0.0005 -0.0000 1.0000
vn -0.0000 -0.0000 1.0000
vn 0.0001 -0.0000 1.0000
vn -0.0002 -0.0000 1.0000
vn 0.0010 -0.0001 1.0000
s 1
usemtl M_polySurface480_lambert1_0_0
f 1//1 2//2 3//3
f 1//1 3//3 4//4
f 2//2 5//5 6//6
f 2//2 6//6 3//3
f 5//5 7//7 8//8
f 5//5 8//8 6//6
f 9//9 10//10 11//11
f 9//9 11//11 12//12
f 13//13 14//14 15//15
f 13//13 15//15 16//16
f 14//14 17//17 18//18
f 14//14 18//18 15//15
f 19//19 20//20 21//21
f 19//19 21//21 22//22
f 20//20 23//23 24//24
f 20//20 24//24 21//21
f 23//23 25//25 26//26
f 23//23 26//26 24//24
f 27//27 28//28 29//29
f 27//27 29//29 30//30
f 28//28 31//31 32//32
f 28//28 32//32 29//29
f 31//31 33//33 34//34
f 31//31 34//34 32//32
f 35//35 37//36 36//37
f 35//35 38//38 37//36
f 36//37 40//39 39//40
f 36//37 37//36 40//39
f 39//40 42//41 41//42
f 39//40 40//39 42//41
f 43//43 44//44 45//45
f 43//43 45//45 46//46
f 47//47 48//48 49//49
f 47//47 49//49 50//50
f 48//48 51//51 52//52
f 48//48 52//52 49//49
f 53//53 54//54 55//55
f 53//53 55//55 56//56
f 57//57 58//58 59//59
f 57//57 59//59 60//60
f 58//58 61//61 62//62
f 58//58 62//62 59//59
f 63//63 64//64 65//65
f 63//63 65//65 66//66
f 64//64 67//67 68//68
f 64//64 68//68 65//65
f 67//67 69//69 70//70
f 67//67 70//70 68//68
f 18//18 17//17 71//71
f 18//18 71//71 72//72
f 17//17 73//73 74//74
f 17//17 74//74 71//71
f 75//75 77//76 76//77
f 75//75 78//78 77//76
f 34//34 33//33 79//79
f 34//34 79//79 80//80
f 33//33 81//81 82//82
f 33//33 82//82 83//83
f 81//81 84//84 85//85
f 81//81 85//85 82//82
f 52//52 51//51 86//79
f 52//52 86//79 87//86
f 51//51 88//87 89//88
f 51//51 89//88 90//88
f 91//89 93//90 92//91
f 91//89 94//92 93//90
f 70//70 69//69 95//93
f 70//70 95//93 96//94
f 69//69 97//95 98//96
f 69//69 98//96 99//97
f 100//98 101//99 102//100
f 100//98 102//100 98//101
f 103//102 30//30 104//103
f 103//102 104//103 46//46
f 8//8 12//12 62//62
f 8//8 62//62 66//66
f 105//104 106//105 22//22
f 105//104 22//22 107//106
f 38//38 109//107 108//108
f 38//38 110//109 109//107
f 18//18 111//110 112//111
f 18//18 112//111 56//56
f 76//77 113//112 42//41
f 76//77 77//76 113//112
f 34//34 80//80 114//113
f 34//34 114//113 115//114
f 116//115 117//116 85//85
f 116//115 85//85 84//84
f 92//91 119//117 118//118
f 92//91 93//90 119//117
f 70//70 96//94 120//119
f 70//70 120//119 4//4
f 26//26 121//120 102//100
f 26//26 102//100 101//99
f 52//52 122//121 123//122
f 52//52 123//122 124//123
f 9//9 12//12 8//8
f 9//9 8//8 7//7
f 108//108 126//124 125//125
f 108//108 109//107 126//124
f 127//126 9//9 7//7
f 127//126 7//7 128//127
f 1//1 4//4 120//119
f 1//1 120//119 129//128
f 118//118 131//129 130//130
f 118//118 119//117 131//129
f 132//131 129//132 133//133
f 132//131 134//134 129//132
f 135//135 124//123 123//122
f 135//135 123//122 136//136
f 26//26 25//25 137//137
f 26//26 137//137 121//120
f 25//25 135//135 138//138
f 25//25 138//138 137//137
f 103//102 139//139 27//27
f 103//102 27//27 30//30
f 139//139 140//140 141//141
f 139//139 141//141 27//27
f 19//19 22//22 106//105
f 19//19 106//105 142//142
f 143//143 115//114 114//113
f 143//143 114//113 144//144
f 42//41 145//145 41//42
f 42//41 113//112 145//145
f 41//42 144//146 146//147
f 41//42 145//145 144//146
f 104//103 147//148 43//43
f 104//103 43//43 46//46
f 147//148 148//149 149//150
f 147//148 149//150 43//43
f 35//35 110//109 38//38
f 35//35 150//151 110//109
f 63//63 66//66 62//62
f 63//63 62//62 61//61
f 107//106 151//152 152//153
f 107//106 152//153 105//104
f 153//154 63//63 61//61
f 153//154 61//61 154//155
f 53//53 56//56 112//111
f 53//53 112//111 155//156
f 116//115 156//157 157//158
f 116//115 157//158 117//116
f 158//159 53//53 155//156
f 158//159 155//156 159//160
f 118//118 161//161 160//162
f 118//118 130//130 161//161
f 160//162 163//163 162//164
f 160//162 161//161 163//163
f 162//164 126//124 109//107
f 162//164 163//163 126//124
f 132//131 165//165 164//166
f 132//131 133//133 165//165
f 166//167 167//168 5//5
f 166//167 5//5 2//2
f 167//168 128//127 7//7
f 167//168 7//7 5//5
f 10//10 9//9 127//126
f 10//10 127//126 168//169
f 17//17 14//14 169//170
f 17//17 169//170 73//73
f 14//14 13//13 170//171
f 14//14 170//171 169//170
f 171//172 108//108 125//125
f 171//172 172//173 108//108
f 75//75 174//174 173//175
f 75//75 76//77 174//174
f 173//175 172//173 171//172
f 173//175 174//174 172//173
f 175//176 139//139 103//102
f 175//176 103//102 176//177
f 135//135 177//178 178//179
f 135//135 178//179 124//123
f 177//178 179//180 180//177
f 177//178 180//177 178//179
f 139//139 175//176 181//181
f 139//139 181//181 140//140
f 179//180 177//178 182//182
f 179//180 182//182 183//183
f 177//178 135//135 25//25
f 177//178 25//25 182//182
f 28//28 27//27 141//141
f 28//28 141//141 184//184
f 33//33 31//31 185//185
f 33//33 185//185 81//81
f 31//31 28//28 184//184
f 31//31 184//184 185//185
f 186//186 142//142 106//105
f 186//186 106//105 187//187
f 81//81 188//188 189//189
f 81//81 189//189 84//84
f 188//188 190//190 191//191
f 188//188 191//191 189//189
f 192//192 147//148 104//103
f 192//192 104//103 193//193
f 143//143 194//194 195//195
f 143//143 195//195 115//114
f 194//194 192//192 193//193
f 194//194 193//193 195//195
f 30//30 29//29 193//193
f 30//30 193//193 104//103
f 29//29 32//32 195//195
f 29//29 195//195 193//193
f 32//32 34//34 115//114
f 32//32 115//114 195//195
f 147//148 192//192 196//196
f 147//148 196//196 148//149
f 197//197 199//198 198//199
f 197//197 200//200 199//198
f 198//199 41//42 146//147
f 198//199 199//198 41//42
f 76//77 40//39 174//174
f 76//77 42//41 40//39
f 174//174 37//36 172//173
f 174//174 40//39 37//36
f 172//173 38//38 108//108
f 172//173 37//36 38//38
f 44//44 43//43 149//150
f 44//44 149//150 201//201
f 51//51 48//48 202//202
f 51//51 202//202 88//87
f 48//48 47//47 203//203
f 48//48 203//203 202//202
f 124//123 178//179 49//49
f 124//123 49//49 52//52
f 204//179 176//177 45//45
f 204//179 45//45 205//204
f 176//177 103//102 46//46
f 176//177 46//46 45//45
f 206//205 110//109 150//151
f 206//205 207//206 110//109
f 91//89 209//207 208//208
f 91//89 92//91 209//207
f 208//208 207//206 206//205
f 208//208 209//207 207//206
f 109//107 207//206 162//164
f 109//107 110//109 207//206
f 162//164 209//207 160//162
f 162//164 207//206 209//207
f 160//162 92//91 118//118
f 160//162 209//207 92//91
f 84//84 189//189 210//209
f 84//84 210//209 116//115
f 211//210 187//187 212//211
f 211//210 212//211 213//212
f 187//187 106//105 105//104
f 187//187 105//104 212//211
f 116//115 210//209 214//213
f 116//115 214//213 156//157
f 213//212 212//211 215//214
f 213//212 215//214 216//215
f 212//211 105//104 152//153
f 212//211 152//153 215//214
f 158//159 217//216 54//54
f 158//159 54//54 53//53
f 217//217 218//218 58//58
f 217//217 58//58 57//57
f 218//218 154//155 61//61
f 218//218 61//61 58//58
f 12//12 11//11 59//59
f 12//12 59//59 62//62
f 11//11 219//219 60//60
f 11//11 60//60 59//59
f 15//15 18//18 56//56
f 15//15 56//56 55//55
f 64//64 63//63 153//154
f 64//64 153//154 220//220
f 69//69 67//67 221//221
f 69//69 221//221 97//95
f 67//67 64//64 220//220
f 67//67 220//220 221//221
f 4//4 3//3 68//68
f 4//4 68//68 70//70
f 3//3 6//6 65//65
f 3//3 65//65 68//68
f 6//6 8//8 66//66
f 6//6 66//66 65//65
f 222//222 151//152 107//106
f 222//222 107//106 223//223
f 100//98 224//224 225//225
f 100//98 225//225 101//99
f 224//224 222//222 223//223
f 224//224 223//223 225//225
f 22//22 21//21 223//223
f 22//22 223//223 107//106
f 21//21 24//24 225//225
f 21//21 225//225 223//223
f 24//24 26//26 101//99
f 24//24 101//99 225//225
f 236//226 235//227 234//228
f 234//228 233//228 236//226
f 233//228 237//228 236//226
f 233//228 232//228 237//228
f 232//228 238//228 237//228
f 232//228 231//228 238//228
f 231//228 239//228 238//228
f 231//228 230//228 239//228
f 230//228 240//228 239//228
f 230//228 229//228 240//228
f 229//228 241//228 240//228
f 229//228 228//229 241//228
f 228//229 226//230 241//228
f 228//229 227//228 226//230
f 256//226 255//231 254//228
f 254//228 253//228 256//226
f 253//228 257//228 256//226
f 253//228 252//228 257//228
f 252//228 242//228 257//228
f 252//228 251//228 242//228
f 251//228 243//228 242//228
f 251//228 250//228 243//228
f 250//228 244//228 243//228
f 250//228 249//228 244//228
f 249//228 245//228 244//228
f 249//228 248//229 245//228
f 248//229 246//230 245//228
f 248//229 247//228 246//230
