# Blender 4.4.1
# www.blender.org
mtllib SM_polySurface238_lambert1_0_0.mtl
o SM_polySurface238_lambert1_0_0
v 0.139586 0.535082 2.263700
v 0.139586 0.535082 2.646124
v -0.075406 0.535082 2.646124
v -0.075406 0.535082 2.263700
v -0.075406 0.535082 2.263700
v -0.075406 0.535082 2.646124
v -0.075406 5.548722 2.646124
v -0.075406 5.548722 2.263700
v -0.075406 5.548722 2.263700
v -0.075406 5.548722 2.646124
v 0.139586 5.548722 2.646124
v 0.139586 5.548722 2.263700
v 0.139586 5.548722 2.263700
v 0.139586 5.548722 2.646124
v 0.139586 0.535082 2.646124
v 0.139586 0.535082 2.263700
v 0.139586 0.535082 2.646124
v 0.139586 5.548722 2.646124
v -0.075406 5.548722 2.646124
v -0.075406 0.535082 2.646124
v 0.139586 5.548722 2.263700
v 0.139586 0.535082 2.263700
v -0.075406 0.535082 2.263700
v -0.075406 5.548722 2.263700
vn -0.0000 1.0000 -0.0000
vn -1.0000 -0.0000 -0.0000
vn 1.0000 -0.0000 -0.0000
vn -0.0000 -0.0000 1.0000
s 1
usemtl M_polySurface238_lambert1_0_0
f 1//1 3//1 2//1
f 1//1 4//1 3//1
f 5//2 6//2 7//2
f 5//2 7//2 8//2
f 9//1 10//1 11//1
f 9//1 11//1 12//1
f 13//3 14//3 15//3
f 13//3 15//3 16//3
f 17//4 18//4 19//4
f 17//4 19//4 20//4
f 21//4 23//4 22//4
f 21//4 24//4 23//4
