# Blender 4.4.1
# www.blender.org
mtllib SM_polySurface638_lambert1_0_0.mtl
o SM_polySurface638_lambert1_0_0
v 16.499750 0.438637 -0.309017
v 16.365688 0.438637 -0.309017
v 16.365688 0.468205 -0.587776
v 16.499750 0.468205 -0.587776
v 16.365688 0.438637 -0.309017
v 16.499750 0.438637 -0.309017
v 16.499750 0.428448 0.000011
v 16.365688 0.428448 0.000011
v 16.499750 0.468205 -0.587776
v 16.365688 0.468205 -0.587776
v 16.365688 0.514258 -0.809017
v 16.499750 0.514258 -0.809017
v 16.499750 0.514258 -0.809017
v 16.365688 0.514258 -0.809017
v 16.365688 0.572289 -0.951050
v 16.499750 0.572289 -0.951050
v 16.499750 0.572289 -0.951050
v 16.365688 0.572289 -0.951050
v 16.365688 0.636620 -1.000000
v 16.499750 0.636620 -1.000000
v 16.499750 0.636620 -1.000000
v 16.365688 0.636620 -1.000000
v 16.365688 0.700947 -0.951050
v 16.499750 0.700947 -0.951050
v 16.499750 0.700947 -0.951050
v 16.365688 0.700947 -0.951050
v 16.365688 0.758976 -0.809017
v 16.499750 0.758976 -0.809017
v 16.499750 0.758976 -0.809017
v 16.365688 0.758976 -0.809017
v 16.365688 0.805029 -0.587776
v 16.499750 0.805029 -0.587776
v 16.499750 0.805029 -0.587776
v 16.365688 0.805029 -0.587776
v 16.365688 0.834597 -0.309017
v 16.499750 0.834597 -0.309017
v 16.499750 0.834597 -0.309017
v 16.365688 0.834597 -0.309017
v 16.365688 0.844788 0.000011
v 16.499750 0.844788 0.000011
v 16.499750 0.844788 0.000011
v 16.365688 0.844788 0.000011
v 16.365688 0.834597 0.309021
v 16.499750 0.834597 0.309021
v 16.499750 0.834597 0.309021
v 16.365688 0.834597 0.309021
v 16.365688 0.805029 0.587799
v 16.499750 0.805029 0.587799
v 16.499750 0.805029 0.587799
v 16.365688 0.805029 0.587799
v 16.365688 0.758976 0.809021
v 16.499750 0.758976 0.809021
v 16.499750 0.758976 0.809021
v 16.365688 0.758976 0.809021
v 16.365688 0.700947 0.951057
v 16.499750 0.700947 0.951057
v 16.499750 0.700947 0.951057
v 16.365688 0.700947 0.951057
v 16.365688 0.636620 1.000008
v 16.499750 0.636620 1.000008
v 16.499750 0.636620 1.000008
v 16.365688 0.636620 1.000008
v 16.365688 0.572289 0.951057
v 16.499750 0.572289 0.951057
v 16.499750 0.572289 0.951057
v 16.365688 0.572289 0.951057
v 16.365688 0.514258 0.809021
v 16.499750 0.514258 0.809021
v 16.499750 0.514258 0.809021
v 16.365688 0.514258 0.809021
v 16.365688 0.468205 0.587799
v 16.499750 0.468205 0.587799
v 16.499750 0.468205 0.587799
v 16.365688 0.468205 0.587799
v 16.365688 0.438637 0.309021
v 16.499750 0.438637 0.309021
v 16.499750 0.438637 0.309021
v 16.365688 0.438637 0.309021
v 16.365688 0.428448 0.000011
v 16.499750 0.428448 0.000011
v 16.365688 0.468205 -0.587776
v 16.365688 0.438637 -0.309017
v 16.368116 0.445811 -0.297819
v 16.368116 0.474308 -0.566477
v 16.499750 0.438637 -0.309017
v 16.499750 0.468205 -0.587776
v 16.497322 0.474308 -0.566477
v 16.497322 0.445811 -0.297819
v 16.499750 0.428448 0.000011
v 16.499750 0.438637 -0.309017
v 16.497322 0.445811 -0.297819
v 16.497322 0.435992 0.000011
v 16.365688 0.438637 -0.309017
v 16.365688 0.428448 0.000011
v 16.368116 0.435992 0.000011
v 16.368116 0.445811 -0.297819
v 16.365688 0.514258 -0.809017
v 16.365688 0.468205 -0.587776
v 16.368116 0.474308 -0.566477
v 16.368116 0.518692 -0.779701
v 16.499750 0.468205 -0.587776
v 16.499750 0.514258 -0.809017
v 16.497322 0.518692 -0.779701
v 16.497322 0.474308 -0.566477
v 16.365688 0.572289 -0.951050
v 16.365688 0.514258 -0.809017
v 16.368116 0.518692 -0.779701
v 16.368116 0.574621 -0.916586
v 16.499750 0.514258 -0.809017
v 16.499750 0.572289 -0.951050
v 16.497322 0.574621 -0.916586
v 16.497322 0.518692 -0.779701
v 16.365688 0.636620 -1.000000
v 16.365688 0.572289 -0.951050
v 16.368116 0.574621 -0.916586
v 16.368116 0.636620 -0.963763
v 16.499750 0.572289 -0.951050
v 16.499750 0.636620 -1.000000
v 16.497322 0.636620 -0.963763
v 16.497322 0.574621 -0.916586
v 16.365688 0.700947 -0.951050
v 16.365688 0.636620 -1.000000
v 16.368116 0.636620 -0.963763
v 16.368116 0.698616 -0.916586
v 16.499750 0.636620 -1.000000
v 16.499750 0.700947 -0.951050
v 16.497322 0.698616 -0.916586
v 16.497322 0.636620 -0.963763
v 16.365688 0.758976 -0.809017
v 16.365688 0.700947 -0.951050
v 16.368116 0.698616 -0.916586
v 16.368116 0.754543 -0.779701
v 16.499750 0.700947 -0.951050
v 16.499750 0.758976 -0.809017
v 16.497322 0.754543 -0.779701
v 16.497322 0.698616 -0.916586
v 16.365688 0.805029 -0.587776
v 16.365688 0.758976 -0.809017
v 16.368116 0.754543 -0.779701
v 16.368116 0.798926 -0.566477
v 16.499750 0.758976 -0.809017
v 16.499750 0.805029 -0.587776
v 16.497322 0.798926 -0.566477
v 16.497322 0.754543 -0.779701
v 16.365688 0.834597 -0.309017
v 16.365688 0.805029 -0.587776
v 16.368116 0.798926 -0.566477
v 16.368116 0.827423 -0.297819
v 16.499750 0.805029 -0.587776
v 16.499750 0.834597 -0.309017
v 16.497322 0.827423 -0.297819
v 16.497322 0.798926 -0.566477
v 16.365688 0.844788 0.000011
v 16.365688 0.834597 -0.309017
v 16.368116 0.827423 -0.297819
v 16.368116 0.837245 0.000011
v 16.499750 0.834597 -0.309017
v 16.499750 0.844788 0.000011
v 16.497322 0.837245 0.000011
v 16.497322 0.827423 -0.297819
v 16.365688 0.834597 0.309021
v 16.365688 0.844788 0.000011
v 16.368116 0.837245 0.000011
v 16.368116 0.827423 0.297823
v 16.499750 0.844788 0.000011
v 16.499750 0.834597 0.309021
v 16.497322 0.827423 0.297823
v 16.497322 0.837245 0.000011
v 16.365688 0.805029 0.587799
v 16.365688 0.834597 0.309021
v 16.368116 0.827423 0.297823
v 16.368116 0.798926 0.566499
v 16.499750 0.834597 0.309021
v 16.499750 0.805029 0.587799
v 16.497322 0.798926 0.566499
v 16.497322 0.827423 0.297823
v 16.365688 0.758976 0.809021
v 16.365688 0.805029 0.587799
v 16.368116 0.798926 0.566499
v 16.368116 0.754543 0.779705
v 16.499750 0.805029 0.587799
v 16.499750 0.758976 0.809021
v 16.497322 0.754543 0.779705
v 16.497322 0.798926 0.566499
v 16.365688 0.700947 0.951057
v 16.365688 0.758976 0.809021
v 16.368116 0.754543 0.779705
v 16.368116 0.698616 0.916594
v 16.499750 0.758976 0.809021
v 16.499750 0.700947 0.951057
v 16.497322 0.698616 0.916594
v 16.497322 0.754543 0.779705
v 16.365688 0.636620 1.000008
v 16.365688 0.700947 0.951057
v 16.368116 0.698616 0.916594
v 16.368116 0.636620 0.963770
v 16.499750 0.700947 0.951057
v 16.499750 0.636620 1.000008
v 16.497322 0.636620 0.963770
v 16.497322 0.698616 0.916594
v 16.365688 0.572289 0.951057
v 16.365688 0.636620 1.000008
v 16.368116 0.636620 0.963770
v 16.368116 0.574621 0.916594
v 16.499750 0.636620 1.000008
v 16.499750 0.572289 0.951057
v 16.497322 0.574621 0.916594
v 16.497322 0.636620 0.963770
v 16.365688 0.514258 0.809021
v 16.365688 0.572289 0.951057
v 16.368116 0.574621 0.916594
v 16.368116 0.518692 0.779705
v 16.499750 0.572289 0.951057
v 16.499750 0.514258 0.809021
v 16.497322 0.518692 0.779705
v 16.497322 0.574621 0.916594
v 16.365688 0.468205 0.587799
v 16.365688 0.514258 0.809021
v 16.368116 0.518692 0.779705
v 16.368116 0.474308 0.566499
v 16.499750 0.514258 0.809021
v 16.499750 0.468205 0.587799
v 16.497322 0.474308 0.566499
v 16.497322 0.518692 0.779705
v 16.365688 0.438637 0.309021
v 16.365688 0.468205 0.587799
v 16.368116 0.474308 0.566499
v 16.368116 0.445811 0.297823
v 16.499750 0.468205 0.587799
v 16.499750 0.438637 0.309021
v 16.497322 0.445811 0.297823
v 16.497322 0.474308 0.566499
v 16.365688 0.428448 0.000011
v 16.365688 0.438637 0.309021
v 16.368116 0.445811 0.297823
v 16.368116 0.435992 0.000011
v 16.499750 0.438637 0.309021
v 16.499750 0.428448 0.000011
v 16.497322 0.435992 0.000011
v 16.497322 0.445811 0.297823
vn 0.0381 0.9937 0.1054
vn -0.0444 0.9934 0.1054
vn -0.0381 0.9937 0.1054
vn 0.0444 0.9934 0.1054
vn -0.0346 0.9989 0.0329
vn 0.0329 0.9989 0.0329
vn 0.0346 0.9989 0.0329
vn -0.0329 0.9989 0.0329
vn 0.0551 0.9775 0.2035
vn -0.0737 0.9764 0.2032
vn -0.0551 0.9775 0.2035
vn 0.0737 0.9763 0.2032
vn 0.1085 0.9202 0.3760
vn -0.1808 0.9105 0.3720
vn -0.1085 0.9203 0.3760
vn 0.1808 0.9105 0.3720
vn -0.0000 -0.8419 -0.5396
vn -0.0000 0.0001 -1.0000
vn -0.0000 -0.0001 -1.0000
vn -0.0000 0.8419 -0.5396
vn -0.0000 0.8421 -0.5393
vn -0.0000 0.9613 -0.2755
vn -0.0000 0.9613 -0.2754
vn -0.0000 0.9888 -0.1495
vn -0.0000 0.9888 -0.1496
vn -0.0000 0.9977 -0.0675
vn -0.0000 1.0000 -0.0000
vn -0.0000 0.9977 0.0675
vn -0.0000 0.9888 0.1495
vn -0.0000 0.9613 0.2754
vn -0.0000 0.9613 0.2756
vn 0.0001 0.9613 0.2756
vn -0.0000 0.8421 0.5393
vn -0.0000 0.8420 0.5395
vn -0.0000 0.8419 0.5396
vn -0.0000 -0.0001 1.0000
vn -0.0000 0.0001 1.0000
vn 0.0002 0.0001 1.0000
vn -0.0000 -0.8419 0.5396
vn 0.1808 0.9105 -0.3720
vn -0.1085 0.9203 -0.3760
vn -0.1808 0.9105 -0.3720
vn 0.1085 0.9203 -0.3760
vn 0.0737 0.9763 -0.2033
vn -0.0551 0.9775 -0.2035
vn -0.0737 0.9763 -0.2033
vn 0.0551 0.9775 -0.2035
vn 0.0444 0.9934 -0.1054
vn -0.0381 0.9937 -0.1054
vn -0.0444 0.9934 -0.1054
vn 0.0381 0.9937 -0.1054
vn 0.0346 0.9989 -0.0329
vn -0.0329 0.9989 -0.0329
vn -0.0346 0.9989 -0.0329
vn 0.0329 0.9989 -0.0329
vn 0.9598 -0.2791 -0.0296
vn 0.9599 -0.2787 -0.0296
vn 0.9599 0.2787 0.0296
vn 0.9599 0.2789 0.0296
vn 0.9520 0.3059 0.0101
vn 0.9518 0.3066 0.0101
vn 0.9519 0.3063 0.0101
vn 0.9518 -0.3066 -0.0101
vn 0.9519 -0.3063 -0.0095
vn 0.9519 -0.3063 -0.0101
vn 0.9517 -0.3069 -0.0099
vn 0.9734 -0.2244 -0.0467
vn 0.9734 -0.2243 -0.0467
vn 0.9735 0.2240 0.0467
vn 0.9733 0.2245 0.0467
vn 0.9734 0.2243 0.0467
vn 0.9875 -0.1461 -0.0597
vn 0.9875 -0.1460 -0.0597
vn 0.9875 0.1459 0.0597
vn 0.9875 0.1461 0.0597
vn 0.9965 -0.0508 -0.0668
vn 0.9965 -0.0509 -0.0668
vn 0.9965 0.0508 0.0668
vn 0.9965 0.0509 0.0668
vn 0.9965 0.0508 -0.0668
vn 0.9965 0.0509 -0.0668
vn 0.9965 -0.0508 0.0668
vn 0.9875 0.1461 -0.0597
vn 0.9875 0.1459 -0.0597
vn 0.9875 -0.1461 0.0597
vn 0.9734 0.2244 -0.0467
vn 0.9734 0.2243 -0.0467
vn 0.9734 -0.2242 0.0467
vn 0.9734 -0.2245 0.0467
vn 0.9734 -0.2244 0.0467
vn 0.9598 0.2791 -0.0296
vn 0.9600 0.2784 -0.0296
vn 0.9599 0.2788 -0.0296
vn 0.9599 0.2787 -0.0298
vn 0.9599 -0.2789 0.0296
vn 0.9598 -0.2790 0.0296
vn 0.9600 -0.2784 0.0296
vn 0.9518 0.3066 -0.0101
vn 0.9519 0.3062 -0.0101
vn 0.9518 0.3066 -0.0104
vn 0.9520 -0.3059 0.0101
vn 0.9518 -0.3066 0.0101
vn 0.9519 -0.3061 0.0101
vn 0.9519 -0.3062 0.0101
vn 0.9520 0.3060 0.0101
vn 0.9520 0.3059 0.0104
vn 0.9518 0.3067 0.0101
vn 0.9518 -0.3067 -0.0101
vn 0.9598 0.2790 0.0296
vn 0.9598 0.2790 0.0293
vn 0.9600 0.2784 0.0296
vn 0.9598 0.2791 0.0296
vn 0.9598 -0.2790 -0.0296
vn 0.9599 -0.2788 -0.0296
vn 0.9734 0.2245 0.0467
vn 0.9734 0.2242 0.0467
vn 0.9736 0.2236 0.0467
vn 0.9733 0.2246 0.0467
vn 0.9735 -0.2240 -0.0467
vn 0.9875 0.1462 0.0597
vn 0.9875 0.1458 0.0597
vn 0.9874 0.1466 0.0598
vn 0.9965 -0.0509 0.0668
vn 0.9874 -0.1463 0.0597
vn 0.9875 -0.1459 0.0597
vn 0.9874 -0.1462 0.0598
vn 0.9874 0.1462 -0.0597
vn 0.9875 0.1462 -0.0597
vn 0.9734 0.2242 -0.0467
vn 0.9735 0.2240 -0.0467
vn 0.9597 -0.2796 0.0293
vn 0.9600 -0.2785 0.0296
vn 0.9599 -0.2788 0.0297
vn 0.9599 0.2787 -0.0296
vn 0.9598 0.2790 -0.0296
vn 0.9518 -0.3067 0.0098
vn 0.9518 -0.3067 0.0101
vn 0.9519 0.3063 -0.0101
vn 0.9518 0.3067 -0.0101
s 1
usemtl M_polySurface638_lambert1_0_0
f 1//1 3//2 2//3
f 1//1 4//4 3//2
f 5//5 7//6 6//7
f 5//5 8//8 7//6
f 9//9 11//10 10//11
f 9//9 12//12 11//10
f 13//13 15//14 14//15
f 13//13 16//16 15//14
f 17//17 18//17 19//18
f 17//17 19//18 20//18
f 21//19 22//19 23//20
f 21//19 23//20 24//20
f 25//21 26//21 27//22
f 25//21 27//22 28//22
f 29//23 30//23 31//24
f 29//23 31//24 32//24
f 33//25 34//24 35//26
f 33//25 35//26 36//26
f 37//26 38//26 39//27
f 37//26 39//27 40//27
f 41//27 42//27 43//28
f 41//27 43//28 44//28
f 45//28 46//28 47//29
f 45//28 47//29 48//29
f 49//29 50//29 51//30
f 49//29 51//30 52//30
f 53//31 54//32 55//33
f 53//31 55//33 56//33
f 57//34 58//35 59//36
f 57//34 59//36 60//36
f 61//37 62//38 63//39
f 61//37 63//39 64//39
f 65//40 67//41 66//42
f 65//40 68//43 67//41
f 69//44 71//45 70//46
f 69//44 72//47 71//45
f 73//48 75//49 74//50
f 73//48 76//51 75//49
f 77//52 79//53 78//54
f 77//52 80//55 79//53
f 81//56 83//57 82//57
f 81//56 84//56 83//57
f 85//58 86//59 87//59
f 85//58 87//59 88//58
f 89//60 90//61 91//62
f 89//60 91//62 92//60
f 93//63 95//64 94//65
f 93//63 96//66 95//64
f 97//67 99//68 98//68
f 97//67 100//67 99//68
f 101//69 102//70 103//70
f 101//69 103//70 104//71
f 105//72 107//73 106//73
f 105//72 108//72 107//73
f 109//74 110//75 111//75
f 109//74 111//75 112//74
f 113//76 115//76 114//76
f 113//76 116//77 115//76
f 117//78 118//79 119//78
f 117//78 119//78 120//78
f 121//80 123//80 122//80
f 121//80 124//81 123//80
f 125//82 126//82 127//82
f 125//82 127//82 128//82
f 129//83 131//84 130//84
f 129//83 132//83 131//84
f 133//85 134//85 135//85
f 133//85 135//85 136//85
f 137//86 139//87 138//87
f 137//86 140//86 139//87
f 141//88 142//89 143//90
f 141//88 143//90 144//88
f 145//91 147//92 146//93
f 145//91 148//94 147//92
f 149//95 150//96 151//96
f 149//95 151//96 152//97
f 153//98 155//99 154//99
f 153//98 156//100 155//99
f 157//101 158//102 159//103
f 157//101 159//103 160//104
f 161//61 163//105 162//106
f 161//61 164//107 163//105
f 165//65 166//108 167//65
f 165//65 167//65 168//65
f 169//109 171//110 170//111
f 169//109 172//112 171//110
f 173//113 174//56 175//56
f 173//113 175//56 176//114
f 177//115 179//116 178//117
f 177//115 180//118 179//116
f 181//119 182//67 183//67
f 181//119 183//67 184//68
f 185//120 187//74 186//121
f 185//120 188//122 187//74
f 189//72 190//72 191//72
f 189//72 191//72 192//72
f 193//78 195//78 194//78
f 193//78 196//79 195//78
f 197//76 198//77 199//76
f 197//76 199//76 200//76
f 201//82 203//82 202//82
f 201//82 204//123 203//82
f 205//80 206//80 207//80
f 205//80 207//80 208//80
f 209//124 211//125 210//126
f 209//124 212//124 211//125
f 213//84 214//127 215//128
f 213//84 215//128 216//84
f 217//90 219//88 218//88
f 217//90 220//90 219//88
f 221//129 222//130 223//87
f 221//129 223//87 224//129
f 225//131 227//132 226//132
f 225//131 228//133 227//132
f 229//134 230//135 231//135
f 229//134 231//135 232//134
f 233//136 235//104 234//104
f 233//136 236//137 235//104
f 237//138 238//139 239//139
f 237//138 239//139 240//98
