# Blender 4.4.1
# www.blender.org
mtllib SM_polySurface220_lambert1_0_0.mtl
o SM_polySurface220_lambert1_0_0
v 4.194587 1.300473 -2.533460
v 7.689820 1.300473 -2.533460
v 7.689820 5.545485 -2.533460
v 4.194587 5.545485 -2.533460
v 4.194587 5.545485 -2.533460
v 7.689820 5.545485 -2.533460
v 7.689820 5.545485 -5.436531
v 4.194587 5.545485 -5.436531
v 4.194587 5.545485 -5.436531
v 7.689820 5.545485 -5.436531
v 7.689820 1.300473 -5.436531
v 4.194587 1.300473 -5.436531
v 4.194587 1.300473 -5.436531
v 7.689820 1.300473 -5.436531
v 7.689820 1.300473 -2.533460
v 4.194587 1.300473 -2.533460
v 4.194587 1.300473 -5.436531
v 4.194587 1.300473 -2.533460
v 4.194587 5.545485 -2.533460
v 4.194587 5.545485 -5.436531
v 7.689820 5.545485 -2.533460
v 7.689820 1.300473 -2.533460
v 7.689820 1.522036 -2.684982
v 7.689820 5.323923 -2.684982
v 7.689820 5.545485 -5.436531
v 7.689820 5.545485 -2.533460
v 7.689820 5.323923 -2.684982
v 7.689820 5.323923 -5.285009
v 7.689820 1.300473 -5.436531
v 7.689820 5.545485 -5.436531
v 7.689820 5.323923 -5.285009
v 7.689820 1.522036 -5.285009
v 7.689820 1.300473 -2.533460
v 7.689820 1.300473 -5.436531
v 7.689820 1.522036 -5.285009
v 7.689820 1.522036 -2.684982
vn -0.0000 -0.0000 1.0000
vn -0.0000 -1.0000 -0.0000
vn -1.0000 -0.0000 -0.0000
s 1
usemtl M_polySurface220_lambert1_0_0
f 1//1 2//1 3//1
f 1//1 3//1 4//1
f 5//2 7//2 6//2
f 5//2 8//2 7//2
f 9//1 11//1 10//1
f 9//1 12//1 11//1
f 13//2 14//2 15//2
f 13//2 15//2 16//2
f 17//3 18//3 19//3
f 17//3 19//3 20//3
f 21//3 23//3 22//3
f 21//3 24//3 23//3
f 25//3 27//3 26//3
f 25//3 28//3 27//3
f 29//3 31//3 30//3
f 29//3 32//3 31//3
f 33//3 35//3 34//3
f 33//3 36//3 35//3
