# Blender 4.4.1
# www.blender.org
mtllib SM_polySurface195_lambert1_0_0.mtl
o SM_polySurface195_lambert1_0_0
v 3.871229 5.434455 6.256746
v 3.871229 1.348446 6.256746
v 7.644992 1.348446 6.256746
v 7.644992 5.434455 6.256746
v 3.829551 5.529065 6.150577
v 3.829551 1.253836 6.150577
v 7.686670 1.253836 6.150577
v 7.686670 5.529065 6.150577
v 3.829551 5.529065 6.150577
v 3.829551 1.253836 6.150577
v 3.871229 1.348446 6.256746
v 3.871229 5.434455 6.256746
v 3.829551 1.253836 6.150577
v 7.686670 1.253836 6.150577
v 7.644992 1.348446 6.256746
v 3.871229 1.348446 6.256746
v 7.686670 1.253836 6.150577
v 7.686670 5.529065 6.150577
v 7.644992 5.434455 6.256746
v 7.644992 1.348446 6.256746
v 7.686670 5.529065 6.150577
v 3.829551 5.529065 6.150577
v 3.871229 5.434455 6.256746
v 7.644992 5.434455 6.256746
vn -0.0000 -0.0000 1.0000
vn 0.9308 -0.0000 -0.3654
vn -0.0000 -0.7466 0.6653
vn 0.9308 -0.0000 0.3654
vn -0.0000 0.7466 0.6653
s 1
usemtl M_polySurface195_lambert1_0_0
f 1//1 2//1 3//1
f 1//1 3//1 4//1
f 5//1 6//1 7//1
f 5//1 7//1 8//1
f 9//2 11//2 10//2
f 9//2 12//2 11//2
f 13//3 14//3 15//3
f 13//3 15//3 16//3
f 17//4 18//4 19//4
f 17//4 19//4 20//4
f 21//5 22//5 23//5
f 21//5 23//5 24//5
