# Blender 4.4.1
# www.blender.org
mtllib SM_polySurface174_lambert1_0_0.mtl
o SM_polySurface174_lambert1_0_0
v 4.444427 8.184645 0.795381
v 4.439006 8.184645 0.795381
v 4.439006 8.184645 0.876063
v 4.444427 8.184645 0.876063
v 4.465545 8.079760 0.844197
v 4.460123 8.079760 0.844197
v 4.460123 8.079760 0.827247
v 4.465545 8.079760 0.827247
v 4.465545 8.111626 0.795381
v 4.465545 8.095693 0.799650
v 4.460123 8.095693 0.799650
v 4.460123 8.111626 0.795381
v 4.465545 8.095693 0.799650
v 4.465545 8.084029 0.811314
v 4.460123 8.084029 0.811314
v 4.460123 8.095693 0.799650
v 4.465545 8.084029 0.811314
v 4.460123 8.084029 0.811314
v 4.465545 8.084029 0.860130
v 4.460123 8.084029 0.860130
v 4.465545 8.095693 0.871794
v 4.460123 8.095693 0.871794
v 4.465545 8.095693 0.871794
v 4.465545 8.111626 0.876063
v 4.460123 8.111626 0.876063
v 4.460123 8.095693 0.871794
v 4.463147 8.156003 0.795381
v 4.467757 8.145168 0.795381
v 4.462336 8.145168 0.795381
v 4.457726 8.156003 0.795381
v 4.468336 8.133411 0.795381
v 4.462913 8.133411 0.795381
v 4.468336 8.133411 0.876063
v 4.467757 8.145168 0.876063
v 4.462336 8.145168 0.876063
v 4.462913 8.133411 0.876063
v 4.463147 8.156003 0.876063
v 4.457726 8.156003 0.876063
v 4.465545 8.111626 0.795381
v 4.444427 8.184645 0.876063
v 4.439006 8.184645 0.876063
v 4.439006 8.184645 0.876063
v 4.439006 8.184645 0.795381
v 4.457726 8.156003 0.795381
v 4.457726 8.156003 0.876063
v 4.439006 8.184645 0.795381
v 4.444427 8.184645 0.795381
v 4.465545 8.111626 0.876063
v 4.463147 8.156003 0.876063
v 4.463147 8.156003 0.795381
v 4.444427 8.184645 0.795381
v 4.444427 8.184645 0.876063
v 4.468336 8.133411 0.795381
v 4.467757 8.145168 0.795381
v 4.467757 8.145168 0.876063
v 4.468336 8.133411 0.876063
v 4.462336 8.145168 0.795381
v 4.462336 8.145168 0.876063
v 4.462913 8.133411 0.795381
v 4.462913 8.133411 0.876063
v 4.465545 8.079760 0.844197
v 4.465545 8.079760 0.827247
v 4.465545 8.084029 0.811314
v 4.465545 8.095693 0.799650
v 4.465545 8.111626 0.795381
v 4.465545 8.111626 0.876063
v 4.465545 8.095693 0.871794
v 4.465545 8.084029 0.860130
v 4.460123 8.111626 0.795381
v 4.460123 8.095693 0.799650
v 4.460123 8.084029 0.811314
v 4.460123 8.079760 0.827247
v 4.460123 8.079760 0.844197
v 4.460123 8.084029 0.860130
v 4.460123 8.095693 0.871794
v 4.460123 8.111626 0.876063
vn -0.0000 1.0000 -0.0000
vn -0.0000 0.9916 -0.1290
vn -0.0000 0.9916 0.1290
vn 0.1534 0.2557 0.9545
vn -0.0000 0.2588 0.9659
vn -0.1430 0.2561 0.9560
vn -0.0000 0.7071 0.7071
vn -0.2587 0.6831 0.6829
vn 0.2587 0.6830 0.6830
vn 0.2586 0.9330 0.2502
vn -0.2586 0.9330 0.2501
vn -0.0000 0.8660 -0.5000
vn -0.0000 0.7071 -0.7071
vn -0.0000 0.2588 -0.9659
vn -0.1430 0.2561 -0.9560
vn 0.1533 0.2557 -0.9545
vn -0.0000 -0.0000 1.0000
vn 0.1065 -0.0136 0.9942
vn -0.1168 0.0150 0.9930
vn 0.8371 0.5471 -0.0000
vn 0.8596 0.5109 -0.0000
vn 0.8592 0.5117 -0.0000
vn -0.0000 -0.1178 0.9930
vn -0.0000 -0.1074 0.9942
vn 0.8609 0.5088 -0.0000
vn 0.9993 -0.0375 -0.0000
vn 0.9746 0.2238 -0.0000
vn 0.9746 0.2239 -0.0000
vn 0.9746 0.2237 -0.0000
vn 0.9993 -0.0373 -0.0000
vn 0.9983 -0.0588 -0.0000
vn 0.9983 -0.0589 -0.0000
vn 0.9983 0.0294 -0.0509
vn 0.9983 0.0564 -0.0152
vn 0.9983 0.0570 0.0153
vn 0.9983 0.0294 0.0509
vn 0.9983 -0.0294 -0.0509
vn 0.9983 -0.0294 0.0509
vn 0.9982 -0.0596 0.0026
vn 0.9982 -0.0596 -0.0026
s 1
usemtl M_polySurface174_lambert1_0_0
f 1//1 2//1 3//1
f 1//1 3//1 4//1
f 5//2 7//3 6//2
f 5//2 8//3 7//3
f 9//4 11//5 10//5
f 9//4 12//6 11//5
f 13//7 15//8 14//9
f 13//7 16//7 15//8
f 17//10 7//3 8//3
f 17//10 18//11 7//3
f 5//2 20//12 19//12
f 5//2 6//2 20//12
f 19//12 22//13 21//13
f 19//12 20//12 22//13
f 23//14 25//15 24//16
f 23//14 26//14 25//15
f 27//17 29//17 28//17
f 27//17 30//17 29//17
f 28//17 32//17 31//17
f 28//17 29//17 32//17
f 33//17 34//17 35//17
f 33//17 35//17 36//17
f 34//17 37//17 38//17
f 34//17 38//17 35//17
f 39//18 32//17 12//19
f 39//18 31//17 32//17
f 40//17 41//17 38//17
f 40//17 38//17 37//17
f 42//20 44//21 43//20
f 42//20 45//22 44//21
f 27//17 46//17 30//17
f 27//17 47//17 46//17
f 33//17 36//17 25//23
f 33//17 25//23 48//24
f 49//25 50//25 51//20
f 49//25 51//20 52//20
f 53//26 54//27 55//28
f 53//26 55//28 56//26
f 54//27 50//25 49//25
f 54//27 49//25 55//28
f 44//21 58//27 57//29
f 44//21 45//22 58//27
f 57//29 60//26 59//30
f 57//29 58//27 60//26
f 63//31 61//31 62//31
f 61//31 63//31 68//31
f 68//31 63//31 64//31
f 68//31 64//31 67//31
f 67//31 64//31 65//32
f 67//31 65//32 66//31
f 66//31 65//32 53//26
f 66//31 53//26 56//26
f 74//33 73//34 72//35
f 72//35 71//36 74//33
f 71//36 75//37 74//33
f 71//36 70//38 75//37
f 70//38 76//39 75//37
f 70//38 69//40 76//39
f 69//40 60//26 76//39
f 69//40 59//30 60//26
