# Blender 4.4.1
# www.blender.org
mtllib SM_pCylinder174_lambert1_0_001_0.mtl
o SM_pCylinder174_lambert1_0_001_0
v 17.504766 -0.032084 15.658451
v 17.511360 -0.032198 15.671390
v 17.467213 -0.032326 15.685734
v 17.494497 -0.031992 15.648182
v 17.481558 -0.031934 15.641588
v 17.467213 -0.031914 15.639317
v 17.452869 -0.031934 15.641588
v 17.439928 -0.031992 15.648182
v 17.429659 -0.032084 15.658449
v 17.423065 -0.032198 15.671390
v 17.420795 -0.032326 15.685734
v 17.423065 -0.032453 15.700077
v 17.429659 -0.032568 15.713017
v 17.439928 -0.032659 15.723286
v 17.452869 -0.032718 15.729878
v 17.467213 -0.032738 15.732151
v 17.481558 -0.032718 15.729878
v 17.494497 -0.032659 15.723286
v 17.504766 -0.032568 15.713017
v 17.511362 -0.032453 15.700077
v 17.513632 -0.032326 15.685734
v 17.511360 0.838420 15.679119
v 17.504766 0.838534 15.666180
v 17.467213 0.838292 15.693462
v 17.494497 0.838626 15.655910
v 17.481558 0.838684 15.649317
v 17.467213 0.838704 15.647045
v 17.452869 0.838684 15.649317
v 17.439928 0.838626 15.655910
v 17.429659 0.838534 15.666180
v 17.423065 0.838420 15.679118
v 17.420795 0.838292 15.693462
v 17.423065 0.838165 15.707807
v 17.429659 0.838050 15.720746
v 17.439928 0.837959 15.731014
v 17.452869 0.837900 15.737608
v 17.467213 0.837880 15.739880
v 17.481558 0.837900 15.737608
v 17.494497 0.837959 15.731015
v 17.504766 0.838050 15.720746
v 17.511362 0.838165 15.707807
v 17.513632 0.838292 15.693462
v 17.511360 0.511938 15.676221
v 17.504766 0.512053 15.663280
v 17.504766 0.620880 15.664248
v 17.511360 0.620765 15.677187
v 17.494497 0.512144 15.653011
v 17.494497 0.620971 15.653978
v 17.481558 0.512203 15.646418
v 17.481558 0.621030 15.647385
v 17.467213 0.512223 15.644148
v 17.467213 0.621050 15.645113
v 17.452869 0.512203 15.646418
v 17.452869 0.621030 15.647385
v 17.439928 0.512144 15.653011
v 17.439928 0.620971 15.653978
v 17.429659 0.512053 15.663280
v 17.429659 0.620880 15.664248
v 17.423065 0.511938 15.676220
v 17.423065 0.620765 15.677186
v 17.420795 0.511811 15.690564
v 17.420795 0.620638 15.691530
v 17.423065 0.511683 15.704908
v 17.423065 0.620511 15.705874
v 17.429659 0.511569 15.717848
v 17.429659 0.620396 15.718814
v 17.439928 0.511477 15.728116
v 17.439928 0.620305 15.729082
v 17.452869 0.511419 15.734709
v 17.452869 0.620246 15.735675
v 17.467213 0.511399 15.736981
v 17.467213 0.620226 15.737947
v 17.481558 0.511419 15.734709
v 17.481558 0.620246 15.735676
v 17.494497 0.511477 15.728116
v 17.494497 0.620305 15.729082
v 17.504766 0.511569 15.717848
v 17.504766 0.620396 15.718814
v 17.511362 0.511683 15.704908
v 17.511362 0.620511 15.705874
v 17.513632 0.511811 15.690564
v 17.513632 0.620638 15.691530
v 17.511360 0.511938 15.676221
v 17.511360 0.620765 15.677187
v 17.511360 0.185456 15.673322
v 17.504766 0.185571 15.660383
v 17.504766 0.294399 15.661348
v 17.511360 0.294284 15.674288
v 17.494497 0.185662 15.650114
v 17.494497 0.294490 15.651079
v 17.481558 0.185721 15.643520
v 17.481558 0.294548 15.644485
v 17.467213 0.185741 15.641249
v 17.467213 0.294568 15.642216
v 17.452869 0.185721 15.643520
v 17.452869 0.294548 15.644485
v 17.439928 0.185662 15.650114
v 17.439928 0.294490 15.651079
v 17.429659 0.185571 15.660381
v 17.429659 0.294399 15.661348
v 17.423065 0.185456 15.673322
v 17.423065 0.294284 15.674288
v 17.420795 0.185329 15.687666
v 17.420795 0.294156 15.688632
v 17.423065 0.185202 15.702009
v 17.423065 0.294029 15.702975
v 17.429659 0.185087 15.714950
v 17.429659 0.293914 15.715916
v 17.439928 0.184996 15.725218
v 17.439928 0.293823 15.726184
v 17.452869 0.184937 15.731811
v 17.452869 0.293764 15.732777
v 17.467213 0.184917 15.734083
v 17.467213 0.293744 15.735049
v 17.481558 0.184937 15.731811
v 17.481558 0.293764 15.732777
v 17.494497 0.184996 15.725218
v 17.494497 0.293823 15.726184
v 17.504766 0.185087 15.714950
v 17.504766 0.293914 15.715916
v 17.511362 0.185202 15.702009
v 17.511362 0.294029 15.702976
v 17.513632 0.185329 15.687666
v 17.513632 0.294156 15.688632
v 17.511360 0.185456 15.673322
v 17.511360 0.294284 15.674288
v 17.511360 0.729593 15.678153
v 17.513632 0.729465 15.692496
v 17.511362 0.729338 15.706841
v 17.504766 0.729223 15.719780
v 17.494497 0.729132 15.730048
v 17.481558 0.729074 15.736642
v 17.467213 0.729053 15.738914
v 17.452869 0.729074 15.736641
v 17.439928 0.729132 15.730048
v 17.429659 0.729223 15.719780
v 17.423065 0.729338 15.706841
v 17.420795 0.729465 15.692496
v 17.423065 0.729593 15.678152
v 17.429659 0.729707 15.665213
v 17.439928 0.729799 15.654943
v 17.452869 0.729857 15.648350
v 17.467213 0.729877 15.646080
v 17.481558 0.729857 15.648350
v 17.494497 0.729799 15.654943
v 17.504766 0.729707 15.665213
v 17.511360 0.729593 15.678153
v 17.511360 0.076629 15.672356
v 17.504766 0.076744 15.659416
v 17.494497 0.076835 15.649147
v 17.481558 0.076894 15.642553
v 17.467213 0.076914 15.640284
v 17.452869 0.076894 15.642553
v 17.439928 0.076835 15.649147
v 17.429659 0.076744 15.659416
v 17.423065 0.076629 15.672356
v 17.420795 0.076502 15.686700
v 17.423065 0.076375 15.701043
v 17.429659 0.076260 15.713984
v 17.439928 0.076169 15.724252
v 17.452869 0.076110 15.730844
v 17.467213 0.076090 15.733117
v 17.481558 0.076110 15.730844
v 17.494497 0.076169 15.724252
v 17.504766 0.076260 15.713984
v 17.511362 0.076375 15.701043
v 17.513632 0.076502 15.686700
v 17.511360 0.076629 15.672356
v 17.511360 0.403111 15.675254
v 17.504766 0.403226 15.662315
v 17.494497 0.403317 15.652046
v 17.481558 0.403375 15.645452
v 17.467213 0.403396 15.643181
v 17.452869 0.403375 15.645452
v 17.439928 0.403317 15.652046
v 17.429659 0.403226 15.662315
v 17.423065 0.403111 15.675254
v 17.420795 0.402983 15.689598
v 17.423065 0.402856 15.703941
v 17.429659 0.402741 15.716882
v 17.439928 0.402650 15.727150
v 17.452869 0.402592 15.733743
v 17.467213 0.402571 15.736015
v 17.481558 0.402592 15.733743
v 17.494497 0.402650 15.727150
v 17.504766 0.402741 15.716882
v 17.511362 0.402856 15.703942
v 17.513632 0.402983 15.689598
v 17.511360 0.403111 15.675254
v 17.511360 0.838420 15.679119
v 17.513632 0.838292 15.693462
v 17.511362 0.838165 15.707807
v 17.504766 0.838050 15.720746
v 17.494497 0.837959 15.731015
v 17.481558 0.837900 15.737608
v 17.467213 0.837880 15.739880
v 17.452869 0.837900 15.737608
v 17.439928 0.837959 15.731014
v 17.429659 0.838050 15.720746
v 17.423065 0.838165 15.707807
v 17.420795 0.838292 15.693462
v 17.423065 0.838420 15.679118
v 17.429659 0.838534 15.666180
v 17.439928 0.838626 15.655910
v 17.452869 0.838684 15.649317
v 17.467213 0.838704 15.647045
v 17.481558 0.838684 15.649317
v 17.494497 0.838626 15.655910
v 17.504766 0.838534 15.666180
v 17.511360 0.838420 15.679119
v 17.511360 -0.032198 15.671390
v 17.504766 -0.032084 15.658451
v 17.494497 -0.031992 15.648182
v 17.481558 -0.031934 15.641588
v 17.467213 -0.031914 15.639317
v 17.452869 -0.031934 15.641588
v 17.439928 -0.031992 15.648182
v 17.429659 -0.032084 15.658449
v 17.423065 -0.032198 15.671390
v 17.420795 -0.032326 15.685734
v 17.423065 -0.032453 15.700077
v 17.429659 -0.032568 15.713017
v 17.439928 -0.032659 15.723286
v 17.452869 -0.032718 15.729878
v 17.467213 -0.032738 15.732151
v 17.481558 -0.032718 15.729878
v 17.494497 -0.032659 15.723286
v 17.504766 -0.032568 15.713017
v 17.511362 -0.032453 15.700077
v 17.513632 -0.032326 15.685734
v 17.511360 -0.032198 15.671390
vn -0.0000 1.0000 0.0089
vn 0.9510 0.0027 -0.3091
vn 0.8090 0.0052 -0.5878
vn 0.5878 0.0072 -0.8090
vn 0.3090 0.0084 -0.9510
vn -0.0000 0.0089 -1.0000
vn -0.3090 0.0085 -0.9510
vn -0.3090 0.0084 -0.9510
vn -0.5878 0.0072 -0.8090
vn -0.8090 0.0052 -0.5878
vn -0.9511 0.0027 -0.3090
vn -0.9511 0.0027 -0.3089
vn -1.0000 -0.0000 -0.0000
vn -0.9511 -0.0027 0.3089
vn -0.9511 -0.0027 0.3090
vn -0.8090 -0.0052 0.5878
vn -0.5878 -0.0072 0.8090
vn -0.5877 -0.0072 0.8090
vn -0.3090 -0.0084 0.9510
vn -0.0000 -0.0089 1.0000
vn 0.3090 -0.0084 0.9510
vn 0.3091 -0.0084 0.9510
vn 0.5877 -0.0072 0.8090
vn 0.5879 -0.0072 0.8089
vn 0.8089 -0.0052 0.5879
vn 0.8090 -0.0052 0.5878
vn 0.9511 -0.0027 0.3090
vn 1.0000 -0.0000 -0.0001
vn 0.9511 0.0027 -0.3089
vn 0.9510 0.0028 -0.3091
vn 0.5879 0.0072 -0.8089
vn 0.3091 0.0084 -0.9510
vn 0.3089 0.0084 -0.9510
vn -0.0001 0.0089 -1.0000
vn -0.5877 0.0072 -0.8090
vn -0.5878 0.0072 -0.8089
vn -0.8090 0.0052 -0.5877
vn 0.5878 -0.0072 0.8090
vn 0.9511 0.0028 -0.3089
vn -0.3089 0.0085 -0.9510
vn -0.3091 -0.0084 0.9510
vn 0.9510 -0.0027 0.3090
vn -0.3090 -0.0085 0.9510
vn 0.3091 0.0085 -0.9510
vn 0.5878 0.0072 -0.8089
vn 0.8090 0.0052 -0.5877
vn 0.0001 0.0089 -1.0000
vn -0.3089 0.0084 -0.9510
s 1
usemtl M_pCylinder174_lambert1_0_001_0
f 1//1 3//1 2//1
f 4//1 3//1 1//1
f 5//1 3//1 4//1
f 6//1 3//1 5//1
f 7//1 3//1 6//1
f 8//1 3//1 7//1
f 9//1 3//1 8//1
f 10//1 3//1 9//1
f 11//1 3//1 10//1
f 12//1 3//1 11//1
f 13//1 3//1 12//1
f 14//1 3//1 13//1
f 15//1 3//1 14//1
f 16//1 3//1 15//1
f 17//1 3//1 16//1
f 18//1 3//1 17//1
f 19//1 3//1 18//1
f 20//1 3//1 19//1
f 21//1 3//1 20//1
f 2//1 3//1 21//1
f 22//1 23//1 24//1
f 23//1 25//1 24//1
f 25//1 26//1 24//1
f 26//1 27//1 24//1
f 27//1 28//1 24//1
f 28//1 29//1 24//1
f 29//1 30//1 24//1
f 30//1 31//1 24//1
f 31//1 32//1 24//1
f 32//1 33//1 24//1
f 33//1 34//1 24//1
f 34//1 35//1 24//1
f 35//1 36//1 24//1
f 36//1 37//1 24//1
f 37//1 38//1 24//1
f 38//1 39//1 24//1
f 39//1 40//1 24//1
f 40//1 41//1 24//1
f 41//1 42//1 24//1
f 42//1 22//1 24//1
f 43//2 44//3 45//3
f 43//2 45//3 46//2
f 44//3 47//4 48//4
f 44//3 48//4 45//3
f 47//4 49//5 50//5
f 47//4 50//5 48//4
f 49//5 51//6 52//6
f 49//5 52//6 50//5
f 51//6 53//7 54//8
f 51//6 54//8 52//6
f 53//7 55//9 56//9
f 53//7 56//9 54//8
f 55//9 57//10 58//10
f 55//9 58//10 56//9
f 57//10 59//11 60//12
f 57//10 60//12 58//10
f 59//11 61//13 62//13
f 59//11 62//13 60//12
f 61//13 63//14 64//15
f 61//13 64//15 62//13
f 63//14 65//16 66//16
f 63//14 66//16 64//15
f 65//16 67//17 68//18
f 65//16 68//18 66//16
f 67//17 69//19 70//19
f 67//17 70//19 68//18
f 69//19 71//20 72//20
f 69//19 72//20 70//19
f 71//20 73//21 74//22
f 71//20 74//22 72//20
f 73//21 75//23 76//24
f 73//21 76//24 74//22
f 75//23 77//25 78//26
f 75//23 78//26 76//24
f 77//25 79//27 80//27
f 77//25 80//27 78//26
f 79//27 81//28 82//28
f 79//27 82//28 80//27
f 81//28 83//29 84//29
f 81//28 84//29 82//28
f 85//2 86//3 87//3
f 85//2 87//3 88//30
f 86//3 89//31 90//4
f 86//3 90//4 87//3
f 89//31 91//32 92//33
f 89//31 92//33 90//4
f 91//32 93//6 94//34
f 91//32 94//34 92//33
f 93//6 95//8 96//7
f 93//6 96//7 94//34
f 95//8 97//35 98//36
f 95//8 98//36 96//7
f 97//35 99//10 100//37
f 97//35 100//37 98//36
f 99//10 101//12 102//12
f 99//10 102//12 100//37
f 101//12 103//13 104//13
f 101//12 104//13 102//12
f 103//13 105//14 106//15
f 103//13 106//15 104//13
f 105//14 107//16 108//16
f 105//14 108//16 106//15
f 107//16 109//17 110//18
f 107//16 110//18 108//16
f 109//17 111//19 112//19
f 109//17 112//19 110//18
f 111//19 113//20 114//20
f 111//19 114//20 112//19
f 113//20 115//22 116//21
f 113//20 116//21 114//20
f 115//22 117//38 118//38
f 115//22 118//38 116//21
f 117//38 119//26 120//26
f 117//38 120//26 118//38
f 119//26 121//27 122//27
f 119//26 122//27 120//26
f 121//27 123//28 124//28
f 121//27 124//28 122//27
f 123//28 125//39 126//39
f 123//28 126//39 124//28
f 82//28 84//29 127//29
f 82//28 127//29 128//28
f 80//27 82//28 128//28
f 80//27 128//28 129//27
f 78//26 80//27 129//27
f 78//26 129//27 130//25
f 76//24 78//26 130//25
f 76//24 130//25 131//38
f 74//22 76//24 131//38
f 74//22 131//38 132//21
f 72//20 74//22 132//21
f 72//20 132//21 133//20
f 70//19 72//20 133//20
f 70//19 133//20 134//19
f 68//18 70//19 134//19
f 68//18 134//19 135//17
f 66//16 68//18 135//17
f 66//16 135//17 136//16
f 64//15 66//16 136//16
f 64//15 136//16 137//14
f 62//13 64//15 137//14
f 62//13 137//14 138//13
f 60//12 62//13 138//13
f 60//12 138//13 139//12
f 58//10 60//12 139//12
f 58//10 139//12 140//10
f 56//9 58//10 140//10
f 56//9 140//10 141//9
f 54//8 56//9 141//9
f 54//8 141//9 142//7
f 52//6 54//8 142//7
f 52//6 142//7 143//6
f 50//5 52//6 143//6
f 50//5 143//6 144//5
f 48//4 50//5 144//5
f 48//4 144//5 145//4
f 45//3 48//4 145//4
f 45//3 145//4 146//3
f 46//2 45//3 146//3
f 46//2 146//3 147//2
f 148//30 149//3 86//3
f 148//30 86//3 85//2
f 149//3 150//4 89//31
f 149//3 89//31 86//3
f 150//4 151//33 91//32
f 150//4 91//32 89//31
f 151//33 152//6 93//6
f 151//33 93//6 91//32
f 152//6 153//40 95//8
f 152//6 95//8 93//6
f 153//40 154//9 97//35
f 153//40 97//35 95//8
f 154//9 155//10 99//10
f 154//9 99//10 97//35
f 155//10 156//11 101//12
f 155//10 101//12 99//10
f 156//11 157//13 103//13
f 156//11 103//13 101//12
f 157//13 158//14 105//14
f 157//13 105//14 103//13
f 158//14 159//16 107//16
f 158//14 107//16 105//14
f 159//16 160//17 109//17
f 159//16 109//17 107//16
f 160//17 161//19 111//19
f 160//17 111//19 109//17
f 161//19 162//20 113//20
f 161//19 113//20 111//19
f 162//20 163//21 115//22
f 162//20 115//22 113//20
f 163//21 164//38 117//38
f 163//21 117//38 115//22
f 164//38 165//26 119//26
f 164//38 119//26 117//38
f 165//26 166//27 121//27
f 165//26 121//27 119//26
f 166//27 167//28 123//28
f 166//27 123//28 121//27
f 167//28 168//39 125//39
f 167//28 125//39 123//28
f 169//30 170//3 44//3
f 169//30 44//3 43//2
f 170//3 171//4 47//4
f 170//3 47//4 44//3
f 171//4 172//5 49//5
f 171//4 49//5 47//4
f 172//5 173//6 51//6
f 172//5 51//6 49//5
f 173//6 174//8 53//7
f 173//6 53//7 51//6
f 174//8 175//9 55//9
f 174//8 55//9 53//7
f 175//9 176//10 57//10
f 175//9 57//10 55//9
f 176//10 177//11 59//11
f 176//10 59//11 57//10
f 177//11 178//13 61//13
f 177//11 61//13 59//11
f 178//13 179//14 63//14
f 178//13 63//14 61//13
f 179//14 180//16 65//16
f 179//14 65//16 63//14
f 180//16 181//17 67//17
f 180//16 67//17 65//16
f 181//17 182//41 69//19
f 181//17 69//19 67//17
f 182//41 183//20 71//20
f 182//41 71//20 69//19
f 183//20 184//22 73//21
f 183//20 73//21 71//20
f 184//22 185//38 75//23
f 184//22 75//23 73//21
f 185//38 186//26 77//25
f 185//38 77//25 75//23
f 186//26 187//42 79//27
f 186//26 79//27 77//25
f 187//42 188//28 81//28
f 187//42 81//28 79//27
f 188//28 189//29 83//29
f 188//28 83//29 81//28
f 128//28 127//29 190//29
f 128//28 190//29 191//28
f 129//27 128//28 191//28
f 129//27 191//28 192//27
f 130//25 129//27 192//27
f 130//25 192//27 193//26
f 131//38 130//25 193//26
f 131//38 193//26 194//38
f 132//21 131//38 194//38
f 132//21 194//38 195//22
f 133//20 132//21 195//22
f 133//20 195//22 196//20
f 134//19 133//20 196//20
f 134//19 196//20 197//43
f 135//17 134//19 197//43
f 135//17 197//43 198//18
f 136//16 135//17 198//18
f 136//16 198//18 199//16
f 137//14 136//16 199//16
f 137//14 199//16 200//15
f 138//13 137//14 200//15
f 138//13 200//15 201//13
f 139//12 138//13 201//13
f 139//12 201//13 202//11
f 140//10 139//12 202//11
f 140//10 202//11 203//10
f 141//9 140//10 203//10
f 141//9 203//10 204//9
f 142//7 141//9 204//9
f 142//7 204//9 205//8
f 143//6 142//7 205//8
f 143//6 205//8 206//6
f 144//5 143//6 206//6
f 144//5 206//6 207//44
f 145//4 144//5 207//44
f 145//4 207//44 208//45
f 146//3 145//4 208//45
f 146//3 208//45 209//3
f 147//2 146//3 209//3
f 147//2 209//3 210//2
f 124//28 126//39 189//29
f 124//28 189//29 188//28
f 122//27 124//28 188//28
f 122//27 188//28 187//42
f 120//26 122//27 187//42
f 120//26 187//42 186//26
f 118//38 120//26 186//26
f 118//38 186//26 185//38
f 116//21 118//38 185//38
f 116//21 185//38 184//22
f 114//20 116//21 184//22
f 114//20 184//22 183//20
f 112//19 114//20 183//20
f 112//19 183//20 182//41
f 110//18 112//19 182//41
f 110//18 182//41 181//17
f 108//16 110//18 181//17
f 108//16 181//17 180//16
f 106//15 108//16 180//16
f 106//15 180//16 179//14
f 104//13 106//15 179//14
f 104//13 179//14 178//13
f 102//12 104//13 178//13
f 102//12 178//13 177//11
f 100//37 102//12 177//11
f 100//37 177//11 176//10
f 98//36 100//37 176//10
f 98//36 176//10 175//9
f 96//7 98//36 175//9
f 96//7 175//9 174//8
f 94//34 96//7 174//8
f 94//34 174//8 173//6
f 92//33 94//34 173//6
f 92//33 173//6 172//5
f 90//4 92//33 172//5
f 90//4 172//5 171//4
f 87//3 90//4 171//4
f 87//3 171//4 170//3
f 88//30 87//3 170//3
f 88//30 170//3 169//30
f 211//2 212//46 149//3
f 211//2 149//3 148//30
f 212//46 213//4 150//4
f 212//46 150//4 149//3
f 213//4 214//5 151//33
f 213//4 151//33 150//4
f 214//5 215//47 152//6
f 214//5 152//6 151//33
f 215//47 216//48 153//40
f 215//47 153//40 152//6
f 216//48 217//9 154//9
f 216//48 154//9 153//40
f 217//9 218//10 155//10
f 217//9 155//10 154//9
f 218//10 219//12 156//11
f 218//10 156//11 155//10
f 219//12 220//13 157//13
f 219//12 157//13 156//11
f 220//13 221//14 158//14
f 220//13 158//14 157//13
f 221//14 222//16 159//16
f 221//14 159//16 158//14
f 222//16 223//17 160//17
f 222//16 160//17 159//16
f 223//17 224//19 161//19
f 223//17 161//19 160//17
f 224//19 225//20 162//20
f 224//19 162//20 161//19
f 225//20 226//21 163//21
f 225//20 163//21 162//20
f 226//21 227//23 164//38
f 226//21 164//38 163//21
f 227//23 228//25 165//26
f 227//23 165//26 164//38
f 228//25 229//27 166//27
f 228//25 166//27 165//26
f 229//27 230//28 167//28
f 229//27 167//28 166//27
f 230//28 231//29 168//39
f 230//28 168//39 167//28
