# Blender 4.4.1
# www.blender.org
mtllib SM_polySurface184_lambert1_0_0.mtl
o SM_polySurface184_lambert1_0_0
v 4.141265 -0.000107 -5.619408
v 4.159406 -0.000107 -5.583801
v 4.037930 -0.000107 -5.544331
v 4.113006 -0.000107 -5.647665
v 4.077401 -0.000107 -5.665807
v 4.037930 -0.000107 -5.672059
v 3.998460 -0.000107 -5.665807
v 3.962853 -0.000107 -5.647665
v 3.934596 -0.000107 -5.619408
v 3.916453 -0.000107 -5.583801
v 3.910202 -0.000107 -5.544331
v 3.916453 -0.000107 -5.504861
v 3.934596 -0.000107 -5.469254
v 3.962853 -0.000107 -5.440997
v 3.998460 -0.000107 -5.422855
v 4.037930 -0.000107 -5.416604
v 4.077401 -0.000107 -5.422855
v 4.113006 -0.000107 -5.440998
v 4.141265 -0.000107 -5.469254
v 4.159406 -0.000107 -5.504861
v 4.165658 -0.000107 -5.544331
v 4.132998 0.091323 -5.575220
v 4.118800 0.091323 -5.603086
v 4.037930 0.091323 -5.544331
v 4.096686 0.091323 -5.625200
v 4.068820 0.091323 -5.639398
v 4.037930 0.091323 -5.644291
v 4.007041 0.091323 -5.639398
v 3.979175 0.091323 -5.625200
v 3.957061 0.091323 -5.603086
v 3.942863 0.091323 -5.575220
v 3.937970 0.091323 -5.544331
v 3.942863 0.091323 -5.513443
v 3.957061 0.091323 -5.485577
v 3.979175 0.091323 -5.463462
v 4.007041 0.091323 -5.449265
v 4.037930 0.091323 -5.444372
v 4.068820 0.091323 -5.449265
v 4.096686 0.091323 -5.463462
v 4.118800 0.091323 -5.485577
v 4.132998 0.091323 -5.513443
v 4.137889 0.091323 -5.544331
v 4.159406 -0.000107 -5.583801
v 4.141265 -0.000107 -5.619408
v 4.141265 0.063897 -5.619408
v 4.159406 0.063897 -5.583801
v 4.113006 -0.000107 -5.647665
v 4.113006 0.063897 -5.647665
v 4.077401 -0.000107 -5.665807
v 4.077401 0.063897 -5.665807
v 4.037930 -0.000107 -5.672059
v 4.037930 0.063897 -5.672059
v 3.998460 -0.000107 -5.665807
v 3.998460 0.063897 -5.665807
v 3.962853 -0.000107 -5.647665
v 3.962853 0.063897 -5.647665
v 3.934596 -0.000107 -5.619408
v 3.934596 0.063897 -5.619408
v 3.916453 -0.000107 -5.583801
v 3.916453 0.063897 -5.583801
v 3.910202 -0.000107 -5.544331
v 3.910202 0.063897 -5.544331
v 3.916453 -0.000107 -5.504861
v 3.916453 0.063897 -5.504861
v 3.934596 -0.000107 -5.469254
v 3.934596 0.063897 -5.469254
v 3.962853 -0.000107 -5.440997
v 3.962853 0.063897 -5.440997
v 3.998460 -0.000107 -5.422855
v 3.998460 0.063897 -5.422855
v 4.037930 -0.000107 -5.416604
v 4.037930 0.063897 -5.416604
v 4.077401 -0.000107 -5.422855
v 4.077401 0.063897 -5.422855
v 4.113006 -0.000107 -5.440998
v 4.113006 0.063897 -5.440998
v 4.141265 -0.000107 -5.469254
v 4.141265 0.063897 -5.469254
v 4.159406 -0.000107 -5.504861
v 4.159406 0.063897 -5.504861
v 4.165658 -0.000107 -5.544331
v 4.165658 0.063897 -5.544331
v 4.159406 -0.000107 -5.583801
v 4.159406 0.063897 -5.583801
v 4.151672 0.083290 -5.581288
v 4.157526 0.083290 -5.544331
v 4.151672 0.083290 -5.581288
v 4.157526 0.083290 -5.544331
v 4.134684 0.083290 -5.614627
v 4.151672 0.083290 -5.581288
v 4.134684 0.083290 -5.614627
v 4.108225 0.083290 -5.641085
v 4.108225 0.083290 -5.641085
v 4.074886 0.083290 -5.658072
v 4.074886 0.083290 -5.658072
v 4.037930 0.083290 -5.663926
v 4.037930 0.083290 -5.663926
v 4.000975 0.083290 -5.658072
v 4.000975 0.083290 -5.658072
v 3.967634 0.083290 -5.641085
v 3.967634 0.083290 -5.641085
v 3.941177 0.083290 -5.614627
v 3.941177 0.083290 -5.614627
v 3.924189 0.083290 -5.581288
v 3.924189 0.083290 -5.581288
v 3.918335 0.083290 -5.544331
v 3.918335 0.083290 -5.544331
v 3.924189 0.083290 -5.507375
v 3.924189 0.083290 -5.507375
v 3.941177 0.083290 -5.474035
v 3.941177 0.083290 -5.474035
v 3.967634 0.083290 -5.447577
v 3.967634 0.083290 -5.447577
v 4.000975 0.083290 -5.430590
v 4.000975 0.083290 -5.430590
v 4.037930 0.083290 -5.424737
v 4.037930 0.083290 -5.424737
v 4.074886 0.083290 -5.430590
v 4.074886 0.083290 -5.430590
v 4.108225 0.083290 -5.447578
v 4.108225 0.083290 -5.447578
v 4.134684 0.083290 -5.474035
v 4.134684 0.083290 -5.474035
v 4.151672 0.083290 -5.507375
v 4.151672 0.083290 -5.507375
vn -0.0000 -1.0000 -0.0000
vn 0.1324 0.9903 -0.0430
vn 0.1127 0.9903 -0.0819
vn -0.0000 1.0000 -0.0000
vn 0.0819 0.9903 -0.1127
vn 0.0430 0.9903 -0.1324
vn -0.0000 0.9903 -0.1392
vn -0.0430 0.9903 -0.1324
vn -0.0819 0.9903 -0.1127
vn -0.1127 0.9903 -0.0819
vn -0.1324 0.9903 -0.0430
vn -0.1392 0.9903 -0.0000
vn -0.1324 0.9903 0.0430
vn -0.1127 0.9903 0.0819
vn -0.0819 0.9903 0.1127
vn -0.0430 0.9903 0.1324
vn -0.0000 0.9903 0.1392
vn 0.0430 0.9903 0.1324
vn 0.0819 0.9903 0.1127
vn 0.1127 0.9903 0.0819
vn 0.1324 0.9903 0.0430
vn 0.1393 0.9903 -0.0000
vn 0.9510 -0.0000 -0.3092
vn 0.8090 -0.0000 -0.5878
vn 0.8056 0.0919 -0.5853
vn 0.9470 0.0919 -0.3078
vn 0.5878 -0.0000 -0.8090
vn 0.5853 0.0920 -0.8056
vn 0.3090 -0.0000 -0.9511
vn 0.3077 0.0919 -0.9470
vn -0.0000 -0.0000 -1.0000
vn -0.0000 0.0919 -0.9958
vn -0.3090 -0.0000 -0.9511
vn -0.3077 0.0919 -0.9470
vn -0.5878 -0.0000 -0.8090
vn -0.5853 0.0919 -0.8056
vn -0.8090 -0.0000 -0.5878
vn -0.8056 0.0919 -0.5853
vn -0.9511 -0.0000 -0.3090
vn -0.9470 0.0919 -0.3077
vn -1.0000 -0.0000 -0.0000
vn -0.9958 0.0919 -0.0000
vn -0.9511 -0.0000 0.3090
vn -0.9470 0.0919 0.3077
vn -0.8090 -0.0000 0.5878
vn -0.8056 0.0919 0.5853
vn -0.5878 -0.0000 0.8090
vn -0.5853 0.0919 0.8056
vn -0.3090 -0.0000 0.9511
vn -0.3077 0.0919 0.9470
vn -0.0000 -0.0000 1.0000
vn -0.0000 0.0919 0.9958
vn 0.3090 -0.0000 0.9511
vn 0.3077 0.0919 0.9470
vn 0.5878 -0.0000 0.8090
vn 0.5853 0.0919 0.8056
vn 0.8090 -0.0000 0.5878
vn 0.8056 0.0919 0.5853
vn 0.9511 -0.0000 0.3090
vn 0.9470 0.0919 0.3077
vn 1.0000 -0.0000 -0.0000
vn 0.9958 0.0919 -0.0000
vn 0.9511 -0.0000 -0.3089
vn 0.9471 0.0919 -0.3076
vn 0.8771 0.3867 -0.2849
vn 0.9222 0.3867 -0.0000
vn 0.3601 0.9255 -0.1170
vn 0.3786 0.9256 -0.0000
vn 0.3063 0.9255 -0.2226
vn 0.8770 0.3867 -0.2851
vn 0.7460 0.3868 -0.5421
vn 0.2226 0.9255 -0.3064
vn 0.5420 0.3868 -0.7461
vn 0.1170 0.9255 -0.3601
vn 0.2850 0.3867 -0.8771
vn -0.0000 0.9255 -0.3786
vn -0.0000 0.3867 -0.9222
vn -0.1170 0.9255 -0.3601
vn -0.2850 0.3867 -0.8771
vn -0.2226 0.9255 -0.3063
vn -0.5420 0.3868 -0.7461
vn -0.3063 0.9255 -0.2226
vn -0.7460 0.3868 -0.5420
vn -0.3601 0.9255 -0.1170
vn -0.8770 0.3868 -0.2850
vn -0.3786 0.9255 -0.0000
vn -0.9222 0.3868 -0.0000
vn -0.3601 0.9255 0.1170
vn -0.8770 0.3868 0.2850
vn -0.3063 0.9255 0.2226
vn -0.7460 0.3868 0.5420
vn -0.2226 0.9255 0.3063
vn -0.5420 0.3868 0.7461
vn -0.1170 0.9255 0.3601
vn -0.2850 0.3868 0.8771
vn -0.0000 0.9255 0.3786
vn -0.0000 0.3867 0.9222
vn 0.1170 0.9255 0.3601
vn 0.2850 0.3868 0.8770
vn 0.2226 0.9255 0.3064
vn 0.5420 0.3868 0.7461
vn 0.3063 0.9255 0.2226
vn 0.7460 0.3868 0.5420
vn 0.3601 0.9255 0.1170
vn 0.8771 0.3867 0.2850
s 1
usemtl M_polySurface184_lambert1_0_0
f 1//1 2//1 3//1
f 4//1 1//1 3//1
f 5//1 4//1 3//1
f 6//1 5//1 3//1
f 7//1 6//1 3//1
f 8//1 7//1 3//1
f 9//1 8//1 3//1
f 10//1 9//1 3//1
f 11//1 10//1 3//1
f 12//1 11//1 3//1
f 13//1 12//1 3//1
f 14//1 13//1 3//1
f 15//1 14//1 3//1
f 16//1 15//1 3//1
f 17//1 16//1 3//1
f 18//1 17//1 3//1
f 19//1 18//1 3//1
f 20//1 19//1 3//1
f 21//1 20//1 3//1
f 2//1 21//1 3//1
f 22//2 23//3 24//4
f 23//3 25//5 24//4
f 25//5 26//6 24//4
f 26//6 27//7 24//4
f 27//7 28//8 24//4
f 28//8 29//9 24//4
f 29//9 30//10 24//4
f 30//10 31//11 24//4
f 31//11 32//12 24//4
f 32//12 33//13 24//4
f 33//13 34//14 24//4
f 34//14 35//15 24//4
f 35//15 36//16 24//4
f 36//16 37//17 24//4
f 37//17 38//18 24//4
f 38//18 39//19 24//4
f 39//19 40//20 24//4
f 40//20 41//21 24//4
f 41//21 42//22 24//4
f 42//22 22//2 24//4
f 43//23 44//24 45//25
f 43//23 45//25 46//26
f 44//24 47//27 48//28
f 44//24 48//28 45//25
f 47//27 49//29 50//30
f 47//27 50//30 48//28
f 49//29 51//31 52//32
f 49//29 52//32 50//30
f 51//31 53//33 54//34
f 51//31 54//34 52//32
f 53//33 55//35 56//36
f 53//33 56//36 54//34
f 55//35 57//37 58//38
f 55//35 58//38 56//36
f 57//37 59//39 60//40
f 57//37 60//40 58//38
f 59//39 61//41 62//42
f 59//39 62//42 60//40
f 61//41 63//43 64//44
f 61//41 64//44 62//42
f 63//43 65//45 66//46
f 63//43 66//46 64//44
f 65//45 67//47 68//48
f 65//45 68//48 66//46
f 67//47 69//49 70//50
f 67//47 70//50 68//48
f 69//49 71//51 72//52
f 69//49 72//52 70//50
f 71//51 73//53 74//54
f 71//51 74//54 72//52
f 73//53 75//55 76//56
f 73//53 76//56 74//54
f 75//55 77//57 78//58
f 75//55 78//58 76//56
f 77//57 79//59 80//60
f 77//57 80//60 78//58
f 79//59 81//61 82//62
f 79//59 82//62 80//60
f 81//61 83//63 84//64
f 81//61 84//64 82//62
f 84//64 85//65 86//66
f 84//64 86//66 82//62
f 87//67 22//2 42//22
f 87//67 42//22 88//68
f 22//2 87//67 89//69
f 22//2 89//69 23//3
f 90//70 46//26 45//25
f 90//70 45//25 91//71
f 23//3 89//69 92//72
f 23//3 92//72 25//5
f 91//71 45//25 48//28
f 91//71 48//28 93//73
f 25//5 92//72 94//74
f 25//5 94//74 26//6
f 93//73 48//28 50//30
f 93//73 50//30 95//75
f 26//6 94//74 96//76
f 26//6 96//76 27//7
f 95//75 50//30 52//32
f 95//75 52//32 97//77
f 27//7 96//76 98//78
f 27//7 98//78 28//8
f 97//77 52//32 54//34
f 97//77 54//34 99//79
f 28//8 98//78 100//80
f 28//8 100//80 29//9
f 99//79 54//34 56//36
f 99//79 56//36 101//81
f 29//9 100//80 102//82
f 29//9 102//82 30//10
f 101//81 56//36 58//38
f 101//81 58//38 103//83
f 30//10 102//82 104//84
f 30//10 104//84 31//11
f 103//83 58//38 60//40
f 103//83 60//40 105//85
f 31//11 104//84 106//86
f 31//11 106//86 32//12
f 105//85 60//40 62//42
f 105//85 62//42 107//87
f 32//12 106//86 108//88
f 32//12 108//88 33//13
f 107//87 62//42 64//44
f 107//87 64//44 109//89
f 33//13 108//88 110//90
f 33//13 110//90 34//14
f 109//89 64//44 66//46
f 109//89 66//46 111//91
f 34//14 110//90 112//92
f 34//14 112//92 35//15
f 111//91 66//46 68//48
f 111//91 68//48 113//93
f 35//15 112//92 114//94
f 35//15 114//94 36//16
f 113//93 68//48 70//50
f 113//93 70//50 115//95
f 36//16 114//94 116//96
f 36//16 116//96 37//17
f 115//95 70//50 72//52
f 115//95 72//52 117//97
f 37//17 116//96 118//98
f 37//17 118//98 38//18
f 117//97 72//52 74//54
f 117//97 74//54 119//99
f 38//18 118//98 120//100
f 38//18 120//100 39//19
f 119//99 74//54 76//56
f 119//99 76//56 121//101
f 39//19 120//100 122//102
f 39//19 122//102 40//20
f 121//101 76//56 78//58
f 121//101 78//58 123//103
f 40//20 122//102 124//104
f 40//20 124//104 41//21
f 123//103 78//58 80//60
f 123//103 80//60 125//105
f 41//21 124//104 88//68
f 41//21 88//68 42//22
f 125//105 80//60 82//62
f 125//105 82//62 86//66
