# Blender 4.4.1
# www.blender.org
mtllib SM_polySurface214_lambert1_0_0.mtl
o SM_polySurface214_lambert1_0_0
v 7.610630 0.084493 5.591433
v 7.617048 0.084493 5.604030
v 7.574073 0.084493 5.617993
v 7.600634 0.084493 5.581436
v 7.588037 0.084493 5.575018
v 7.574073 0.084493 5.572806
v 7.560109 0.084493 5.575018
v 7.547512 0.084493 5.581436
v 7.537516 0.084493 5.591433
v 7.531097 0.084493 5.604030
v 7.528886 0.084493 5.617993
v 7.531097 0.084493 5.631957
v 7.537516 0.084493 5.644554
v 7.547512 0.084493 5.654551
v 7.560109 0.084493 5.660969
v 7.574073 0.084493 5.663181
v 7.588037 0.084493 5.660969
v 7.600634 0.084493 5.654551
v 7.610630 0.084493 5.644554
v 7.617048 0.084493 5.631957
v 7.619260 0.084493 5.617993
v 7.617048 0.146901 5.604030
v 7.610630 0.146901 5.591433
v 7.574073 0.146901 5.617993
v 7.600634 0.146901 5.581436
v 7.588037 0.146901 5.575018
v 7.574073 0.146901 5.572806
v 7.560109 0.146901 5.575018
v 7.547512 0.146901 5.581436
v 7.537516 0.146901 5.591433
v 7.531097 0.146901 5.604030
v 7.528886 0.146901 5.617993
v 7.531097 0.146901 5.631957
v 7.537516 0.146901 5.644554
v 7.547512 0.146901 5.654551
v 7.560109 0.146901 5.660969
v 7.574073 0.146901 5.663181
v 7.588037 0.146901 5.660969
v 7.600634 0.146901 5.654551
v 7.610630 0.146901 5.644554
v 7.617048 0.146901 5.631957
v 7.619260 0.146901 5.617993
v 7.617048 0.084493 5.604030
v 7.610630 0.084493 5.591433
v 7.610630 0.146901 5.591433
v 7.617048 0.146901 5.604030
v 7.600634 0.084493 5.581436
v 7.600634 0.146901 5.581436
v 7.588037 0.084493 5.575018
v 7.588037 0.146901 5.575018
v 7.574073 0.084493 5.572806
v 7.574073 0.146901 5.572806
v 7.560109 0.084493 5.575018
v 7.560109 0.146901 5.575018
v 7.547512 0.084493 5.581436
v 7.547512 0.146901 5.581436
v 7.537516 0.084493 5.591433
v 7.537516 0.146901 5.591433
v 7.531097 0.084493 5.604030
v 7.531097 0.146901 5.604030
v 7.528886 0.084493 5.617993
v 7.528886 0.146901 5.617993
v 7.531097 0.084493 5.631957
v 7.531097 0.146901 5.631957
v 7.537516 0.084493 5.644554
v 7.537516 0.146901 5.644554
v 7.547512 0.084493 5.654551
v 7.547512 0.146901 5.654551
v 7.560109 0.084493 5.660969
v 7.560109 0.146901 5.660969
v 7.574073 0.084493 5.663181
v 7.574073 0.146901 5.663181
v 7.588037 0.084493 5.660969
v 7.588037 0.146901 5.660969
v 7.600634 0.084493 5.654551
v 7.600634 0.146901 5.654551
v 7.610630 0.084493 5.644554
v 7.610630 0.146901 5.644554
v 7.617048 0.084493 5.631957
v 7.617048 0.146901 5.631957
v 7.619260 0.084493 5.617993
v 7.619260 0.146901 5.617993
v 7.617048 0.084493 5.604030
v 7.617048 0.146901 5.604030
vn -0.0000 1.0000 -0.0000
vn 0.9510 -0.0000 -0.3091
vn 0.8090 -0.0000 -0.5878
vn 0.5878 -0.0000 -0.8090
vn 0.3090 -0.0000 -0.9511
vn -0.0000 -0.0000 -1.0000
vn -0.3090 -0.0000 -0.9511
vn -0.5878 -0.0000 -0.8090
vn -0.8090 -0.0000 -0.5878
vn -0.9511 -0.0000 -0.3090
vn -1.0000 -0.0000 -0.0000
vn -0.9511 -0.0000 0.3090
vn -0.8090 -0.0000 0.5878
vn -0.5878 -0.0000 0.8090
vn -0.3091 -0.0000 0.9510
vn -0.3090 -0.0000 0.9511
vn -0.0000 -0.0000 1.0000
vn 0.3090 -0.0000 0.9511
vn 0.3091 -0.0000 0.9510
vn 0.5878 -0.0000 0.8090
vn 0.8090 -0.0000 0.5878
vn 0.9511 -0.0000 0.3090
vn 1.0000 -0.0000 -0.0000
vn 0.9511 -0.0000 -0.3089
s 1
usemtl M_polySurface214_lambert1_0_0
f 1//1 3//1 2//1
f 4//1 3//1 1//1
f 5//1 3//1 4//1
f 6//1 3//1 5//1
f 7//1 3//1 6//1
f 8//1 3//1 7//1
f 9//1 3//1 8//1
f 10//1 3//1 9//1
f 11//1 3//1 10//1
f 12//1 3//1 11//1
f 13//1 3//1 12//1
f 14//1 3//1 13//1
f 15//1 3//1 14//1
f 16//1 3//1 15//1
f 17//1 3//1 16//1
f 18//1 3//1 17//1
f 19//1 3//1 18//1
f 20//1 3//1 19//1
f 21//1 3//1 20//1
f 2//1 3//1 21//1
f 22//1 23//1 24//1
f 23//1 25//1 24//1
f 25//1 26//1 24//1
f 26//1 27//1 24//1
f 27//1 28//1 24//1
f 28//1 29//1 24//1
f 29//1 30//1 24//1
f 30//1 31//1 24//1
f 31//1 32//1 24//1
f 32//1 33//1 24//1
f 33//1 34//1 24//1
f 34//1 35//1 24//1
f 35//1 36//1 24//1
f 36//1 37//1 24//1
f 37//1 38//1 24//1
f 38//1 39//1 24//1
f 39//1 40//1 24//1
f 40//1 41//1 24//1
f 41//1 42//1 24//1
f 42//1 22//1 24//1
f 43//2 44//3 45//3
f 43//2 45//3 46//2
f 44//3 47//4 48//4
f 44//3 48//4 45//3
f 47//4 49//5 50//5
f 47//4 50//5 48//4
f 49//5 51//6 52//6
f 49//5 52//6 50//5
f 51//6 53//7 54//7
f 51//6 54//7 52//6
f 53//7 55//8 56//8
f 53//7 56//8 54//7
f 55//8 57//9 58//9
f 55//8 58//9 56//8
f 57//9 59//10 60//10
f 57//9 60//10 58//9
f 59//10 61//11 62//11
f 59//10 62//11 60//10
f 61//11 63//12 64//12
f 61//11 64//12 62//11
f 63//12 65//13 66//13
f 63//12 66//13 64//12
f 65//13 67//14 68//14
f 65//13 68//14 66//13
f 67//14 69//15 70//16
f 67//14 70//16 68//14
f 69//15 71//17 72//17
f 69//15 72//17 70//16
f 71//17 73//18 74//19
f 71//17 74//19 72//17
f 73//18 75//20 76//20
f 73//18 76//20 74//19
f 75//20 77//21 78//21
f 75//20 78//21 76//20
f 77//21 79//22 80//22
f 77//21 80//22 78//21
f 79//22 81//23 82//23
f 79//22 82//23 80//22
f 81//23 83//24 84//24
f 81//23 84//24 82//23
