# Blender 4.4.1
# www.blender.org
mtllib SM_polySurface167_lambert1_0_0.mtl
o SM_polySurface167_lambert1_0_0
v 3.677042 6.873490 -4.691582
v 4.017689 6.873490 -4.691582
v 4.017689 6.873490 -4.751532
v 3.677042 6.873490 -4.751532
v 3.677042 6.720199 -4.751532
v 4.017689 6.720199 -4.751532
v 4.017689 6.703167 -4.751532
v 3.677042 6.703167 -4.751532
v 3.677042 6.532844 -4.751532
v 4.017689 6.532844 -4.751532
v 4.017689 6.532844 -4.691582
v 3.677042 6.532844 -4.691582
v 4.017689 6.703167 -4.707082
v 4.017689 6.703167 -4.751532
v 4.017689 6.720199 -4.751532
v 4.017689 6.720199 -4.702362
v 3.677042 6.703167 -4.751532
v 3.677042 6.703167 -4.691582
v 3.677042 6.720199 -4.691582
v 3.677042 6.720199 -4.751532
v 3.677042 6.532844 -4.691582
v 4.017689 6.532844 -4.691582
v 4.001689 6.548845 -4.691582
v 3.693042 6.548845 -4.691582
v 4.001689 6.703167 -4.707082
v 4.017689 6.703167 -4.707082
v 4.017689 6.720199 -4.702362
v 4.001689 6.718600 -4.702362
v 4.017689 6.873490 -4.691582
v 3.677042 6.873490 -4.691582
v 3.693042 6.857490 -4.691582
v 4.001689 6.857490 -4.691582
v 3.693042 6.718600 -4.691582
v 3.677042 6.720199 -4.691582
v 3.677042 6.703167 -4.691582
v 3.693042 6.703167 -4.691582
v 3.693042 6.548845 -4.691582
v 4.001689 6.548845 -4.691582
v 4.001689 6.548845 -4.720016
v 3.693042 6.548845 -4.720016
v 4.001689 6.703167 -4.720016
v 4.001689 6.703167 -4.707082
v 4.001689 6.718600 -4.702362
v 4.001689 6.718600 -4.720016
v 4.001689 6.857490 -4.691582
v 3.693042 6.857490 -4.691582
v 3.693042 6.857490 -4.720016
v 4.001689 6.857490 -4.720016
v 3.693042 6.718600 -4.720016
v 3.693042 6.718600 -4.691582
v 3.693042 6.703167 -4.691582
v 3.693042 6.703167 -4.720016
v 4.001689 6.687736 -4.720016
v 4.001689 6.687736 -4.702362
v 4.001689 6.687736 -4.702362
v 4.017689 6.686135 -4.702362
v 4.017689 6.686135 -4.702362
v 4.017689 6.686135 -4.751532
v 4.017689 6.686135 -4.751532
v 3.677042 6.686135 -4.751532
v 3.677042 6.686135 -4.751532
v 3.677042 6.686135 -4.691582
v 3.677042 6.686135 -4.691582
v 3.693042 6.687736 -4.691582
v 3.693042 6.687736 -4.691582
v 3.693042 6.687736 -4.720016
v 3.693042 6.732489 -4.720016
v 3.693042 6.732489 -4.691582
v 3.693042 6.732489 -4.691582
v 3.677042 6.735528 -4.691582
v 3.677042 6.735528 -4.691582
v 3.677042 6.735528 -4.751532
v 3.677042 6.735528 -4.751532
v 4.017689 6.735528 -4.751532
v 4.017689 6.735528 -4.751532
v 4.017689 6.735528 -4.691582
v 4.017689 6.735528 -4.691582
v 4.001689 6.732489 -4.691582
v 4.001689 6.732489 -4.691582
v 4.001689 6.732489 -4.720016
v 3.693042 6.857490 -4.691582
v 3.693042 6.857490 -4.720016
v 3.677042 6.873490 -4.691582
v 3.677042 6.873490 -4.751532
v 3.677042 6.873490 -4.751532
v 4.017689 6.873490 -4.751532
v 4.017689 6.873490 -4.751532
v 4.017689 6.873490 -4.691582
v 4.001689 6.857490 -4.691582
v 4.001689 6.857490 -4.720016
v 4.001689 6.673846 -4.720016
v 4.001689 6.673846 -4.691582
v 4.001689 6.673846 -4.691582
v 4.017689 6.670805 -4.691582
v 4.017689 6.670805 -4.691582
v 4.017689 6.670805 -4.751532
v 4.017689 6.670805 -4.751532
v 3.677042 6.670805 -4.751532
v 3.677042 6.670805 -4.751532
v 3.677042 6.670805 -4.691582
v 3.677042 6.670805 -4.691582
v 3.693042 6.673846 -4.691582
v 3.693042 6.673846 -4.691582
v 3.693042 6.673846 -4.720016
v 4.001689 6.548845 -4.691582
v 4.001689 6.548845 -4.720016
v 4.017689 6.532844 -4.691582
v 4.017689 6.532844 -4.751532
v 4.017689 6.532844 -4.751532
v 3.677042 6.532844 -4.751532
v 3.677042 6.532844 -4.751532
v 3.677042 6.532844 -4.691582
v 3.693042 6.548845 -4.691582
v 3.693042 6.548845 -4.720016
vn -0.0000 1.0000 -0.0000
vn -0.0000 -0.0000 -1.0000
vn 1.0000 -0.0000 -0.0000
vn 0.0024 0.0021 -1.0000
vn -0.0188 0.4605 -0.8875
vn 0.0027 0.0018 -1.0000
vn -0.0627 0.4394 -0.8961
vn -0.0219 -0.4394 -0.8980
vn -0.0620 -0.4588 -0.8864
vn -0.0646 0.1127 -0.9915
vn -0.1054 0.1636 -0.9809
vn -0.0770 -0.1594 -0.9842
vn -0.0812 -0.1079 -0.9908
s 1
usemtl M_polySurface167_lambert1_0_0
f 1//1 2//1 3//1
f 1//1 3//1 4//1
f 5//2 6//2 7//2
f 5//2 7//2 8//2
f 9//1 11//1 10//1
f 9//1 12//1 11//1
f 13//3 14//3 15//3
f 13//3 15//3 16//3
f 17//3 19//3 18//3
f 17//3 20//3 19//3
f 21//2 23//2 22//2
f 21//2 24//2 23//2
f 25//4 27//5 26//6
f 25//4 28//7 27//5
f 29//2 31//2 30//2
f 29//2 32//2 31//2
f 33//2 35//2 34//2
f 33//2 36//2 35//2
f 37//1 38//1 39//1
f 37//1 39//1 40//1
f 41//3 43//3 42//3
f 41//3 44//3 43//3
f 45//1 47//1 46//1
f 45//1 48//1 47//1
f 49//3 50//3 51//3
f 49//3 51//3 52//3
f 53//3 42//3 54//3
f 53//3 41//3 42//3
f 55//8 26//6 56//9
f 55//8 25//4 26//6
f 57//3 58//3 14//3
f 57//3 14//3 13//3
f 8//2 7//2 59//2
f 8//2 59//2 60//2
f 61//3 18//3 62//3
f 61//3 17//3 18//3
f 36//2 63//2 35//2
f 36//2 64//2 63//2
f 52//3 51//3 65//3
f 52//3 65//3 66//3
f 67//3 68//3 50//3
f 67//3 50//3 49//3
f 69//2 34//2 70//2
f 69//2 33//2 34//2
f 20//3 71//3 19//3
f 20//3 72//3 71//3
f 73//2 74//2 6//2
f 73//2 6//2 5//2
f 16//3 15//3 75//3
f 16//3 75//3 76//3
f 28//7 77//10 27//5
f 28//7 78//11 77//10
f 44//3 79//3 43//3
f 44//3 80//3 79//3
f 81//3 68//3 67//3
f 81//3 67//3 82//3
f 30//2 69//2 70//2
f 30//2 31//2 69//2
f 72//3 83//3 71//3
f 72//3 84//3 83//3
f 85//2 86//2 74//2
f 85//2 74//2 73//2
f 76//3 75//3 87//3
f 76//3 87//3 88//3
f 78//11 29//2 77//10
f 78//11 32//2 29//2
f 80//3 89//3 79//3
f 80//3 90//3 89//3
f 91//3 54//3 92//3
f 91//3 53//3 54//3
f 93//12 56//9 94//13
f 93//12 55//8 56//9
f 95//3 96//3 58//3
f 95//3 58//3 57//3
f 60//2 59//2 97//2
f 60//2 97//2 98//2
f 99//3 62//3 100//3
f 99//3 61//3 62//3
f 64//2 101//2 63//2
f 64//2 102//2 101//2
f 66//3 65//3 103//3
f 66//3 103//3 104//3
f 105//3 91//3 92//3
f 105//3 106//3 91//3
f 22//2 93//12 94//13
f 22//2 23//2 93//12
f 107//3 108//3 96//3
f 107//3 96//3 95//3
f 98//2 97//2 109//2
f 98//2 109//2 110//2
f 111//3 100//3 112//3
f 111//3 99//3 100//3
f 102//2 21//2 101//2
f 102//2 24//2 21//2
f 104//3 103//3 113//3
f 104//3 113//3 114//3
